<svg viewBox="0 0 1496 400" xmlns="http://www.w3.org/2000/svg"><g><g><g><g><g><line x1="70" y1="378" x2="65" y2="378" style="visibility: inherit;" fill="rgb(0, 0, 0)" stroke="rgb(204, 204, 204)" stroke-width="1px"></line><line x1="70" y1="351" x2="65" y2="351" style="visibility: inherit;" fill="rgb(0, 0, 0)" stroke="rgb(204, 204, 204)" stroke-width="1px"></line><line x1="70" y1="324" x2="65" y2="324" style="visibility: inherit;" fill="rgb(0, 0, 0)" stroke="rgb(204, 204, 204)" stroke-width="1px"></line><line x1="70" y1="297" x2="65" y2="297" style="visibility: inherit;" fill="rgb(0, 0, 0)" stroke="rgb(204, 204, 204)" stroke-width="1px"></line><line x1="70" y1="270" x2="65" y2="270" style="visibility: inherit;" fill="rgb(0, 0, 0)" stroke="rgb(204, 204, 204)" stroke-width="1px"></line><line x1="70" y1="242.99999999999997" x2="65" y2="242.99999999999997" style="visibility: inherit;" fill="rgb(0, 0, 0)" stroke="rgb(204, 204, 204)" stroke-width="1px"></line><line x1="70" y1="216" x2="65" y2="216" style="visibility: inherit;" fill="rgb(0, 0, 0)" stroke="rgb(204, 204, 204)" stroke-width="1px"></line><line x1="70" y1="189" x2="65" y2="189" style="visibility: inherit;" fill="rgb(0, 0, 0)" stroke="rgb(204, 204, 204)" stroke-width="1px"></line><line x1="70" y1="162" x2="65" y2="162" style="visibility: inherit;" fill="rgb(0, 0, 0)" stroke="rgb(204, 204, 204)" stroke-width="1px"></line><line x1="70" y1="134.99999999999997" x2="65" y2="134.99999999999997" style="visibility: inherit;" fill="rgb(0, 0, 0)" stroke="rgb(204, 204, 204)" stroke-width="1px"></line><line x1="70" y1="108" x2="65" y2="108" style="visibility: inherit;" fill="rgb(0, 0, 0)" stroke="rgb(204, 204, 204)" stroke-width="1px"></line><line x1="70" y1="81" x2="65" y2="81" style="visibility: inherit;" fill="rgb(0, 0, 0)" stroke="rgb(204, 204, 204)" stroke-width="1px"></line><line x1="70" y1="54.00000000000002" x2="65" y2="54.00000000000002" style="visibility: inherit;" fill="rgb(0, 0, 0)" stroke="rgb(204, 204, 204)" stroke-width="1px"></line><line x1="70" y1="26.99999999999999" x2="65" y2="26.99999999999999" style="visibility: inherit;" fill="rgb(0, 0, 0)" stroke="rgb(204, 204, 204)" stroke-width="1px"></line><line x1="70" y1="0" x2="65" y2="0" style="visibility: inherit;" fill="rgb(0, 0, 0)" stroke="rgb(204, 204, 204)" stroke-width="1px"></line></g><g transform="translate(60, 0)"><text x="0" y="378" dx="0em" dy="0.3em" style="text-anchor: end; visibility: hidden; font-family: Roboto, sans-serif; font-size: 12px; font-weight: 200;" fill="rgb(50, 49, 63)" stroke="none" stroke-width="1px">1.8e+3</text><text x="0" y="351" dx="0em" dy="0.3em" style="text-anchor: end; visibility: inherit; font-family: Roboto, sans-serif; font-size: 12px; font-weight: 200;" fill="rgb(50, 49, 63)" stroke="none" stroke-width="1px">2e+3</text><text x="0" y="324" dx="0em" dy="0.3em" style="text-anchor: end; visibility: inherit; font-family: Roboto, sans-serif; font-size: 12px; font-weight: 200;" fill="rgb(50, 49, 63)" stroke="none" stroke-width="1px">2.2e+3</text><text x="0" y="297" dx="0em" dy="0.3em" style="text-anchor: end; visibility: inherit; font-family: Roboto, sans-serif; font-size: 12px; font-weight: 200;" fill="rgb(50, 49, 63)" stroke="none" stroke-width="1px">2.4e+3</text><text x="0" y="270" dx="0em" dy="0.3em" style="text-anchor: end; visibility: inherit; font-family: Roboto, sans-serif; font-size: 12px; font-weight: 200;" fill="rgb(50, 49, 63)" stroke="none" stroke-width="1px">2.6e+3</text><text x="0" y="242.99999999999997" dx="0em" dy="0.3em" style="text-anchor: end; visibility: inherit; font-family: Roboto, sans-serif; font-size: 12px; font-weight: 200;" fill="rgb(50, 49, 63)" stroke="none" stroke-width="1px">2.8e+3</text><text x="0" y="216" dx="0em" dy="0.3em" style="text-anchor: end; visibility: inherit; font-family: Roboto, sans-serif; font-size: 12px; font-weight: 200;" fill="rgb(50, 49, 63)" stroke="none" stroke-width="1px">3e+3</text><text x="0" y="189" dx="0em" dy="0.3em" style="text-anchor: end; visibility: inherit; font-family: Roboto, sans-serif; font-size: 12px; font-weight: 200;" fill="rgb(50, 49, 63)" stroke="none" stroke-width="1px">3.2e+3</text><text x="0" y="162" dx="0em" dy="0.3em" style="text-anchor: end; visibility: inherit; font-family: Roboto, sans-serif; font-size: 12px; font-weight: 200;" fill="rgb(50, 49, 63)" stroke="none" stroke-width="1px">3.4e+3</text><text x="0" y="134.99999999999997" dx="0em" dy="0.3em" style="text-anchor: end; visibility: inherit; font-family: Roboto, sans-serif; font-size: 12px; font-weight: 200;" fill="rgb(50, 49, 63)" stroke="none" stroke-width="1px">3.6e+3</text><text x="0" y="108" dx="0em" dy="0.3em" style="text-anchor: end; visibility: inherit; font-family: Roboto, sans-serif; font-size: 12px; font-weight: 200;" fill="rgb(50, 49, 63)" stroke="none" stroke-width="1px">3.8e+3</text><text x="0" y="81" dx="0em" dy="0.3em" style="text-anchor: end; visibility: inherit; font-family: Roboto, sans-serif; font-size: 12px; font-weight: 200;" fill="rgb(50, 49, 63)" stroke="none" stroke-width="1px">4e+3</text><text x="0" y="54.00000000000002" dx="0em" dy="0.3em" style="text-anchor: end; visibility: inherit; font-family: Roboto, sans-serif; font-size: 12px; font-weight: 200;" fill="rgb(50, 49, 63)" stroke="none" stroke-width="1px">4.2e+3</text><text x="0" y="26.99999999999999" dx="0em" dy="0.3em" style="text-anchor: end; visibility: inherit; font-family: Roboto, sans-serif; font-size: 12px; font-weight: 200;" fill="rgb(50, 49, 63)" stroke="none" stroke-width="1px">4.4e+3</text><text x="0" y="0" dx="0em" dy="0.3em" style="text-anchor: end; visibility: hidden; font-family: Roboto, sans-serif; font-size: 12px; font-weight: 200;" fill="rgb(50, 49, 63)" stroke="none" stroke-width="1px">4.6e+3</text></g><line x1="70" y1="0" x2="70" y2="378" fill="rgb(0, 0, 0)" stroke="rgb(204, 204, 204)" stroke-width="1px"></line></g></g><g transform="translate(70, 0)" clip-path="url(#clip_0)"><clipPath id="clip_0"><rect width="1426" height="378"></rect></clipPath><g><g><g><line x1="0" y1="0" x2="0" y2="378" fill="rgb(0, 0, 0)" stroke="rgb(60, 60, 60)" stroke-width="1px" opacity="0.25"></line><line x1="118.83333333333333" y1="0" x2="118.83333333333333" y2="378" fill="rgb(0, 0, 0)" stroke="rgb(60, 60, 60)" stroke-width="1px" opacity="0.25"></line><line x1="237.66666666666666" y1="0" x2="237.66666666666666" y2="378" fill="rgb(0, 0, 0)" stroke="rgb(60, 60, 60)" stroke-width="1px" opacity="0.25"></line><line x1="356.5" y1="0" x2="356.5" y2="378" fill="rgb(0, 0, 0)" stroke="rgb(60, 60, 60)" stroke-width="1px" opacity="0.25"></line><line x1="475.3333333333333" y1="0" x2="475.3333333333333" y2="378" fill="rgb(0, 0, 0)" stroke="rgb(60, 60, 60)" stroke-width="1px" opacity="0.25"></line><line x1="594.1666666666667" y1="0" x2="594.1666666666667" y2="378" fill="rgb(0, 0, 0)" stroke="rgb(60, 60, 60)" stroke-width="1px" opacity="0.25"></line><line x1="713" y1="0" x2="713" y2="378" fill="rgb(0, 0, 0)" stroke="rgb(60, 60, 60)" stroke-width="1px" opacity="0.25"></line><line x1="831.8333333333334" y1="0" x2="831.8333333333334" y2="378" fill="rgb(0, 0, 0)" stroke="rgb(60, 60, 60)" stroke-width="1px" opacity="0.25"></line><line x1="950.6666666666666" y1="0" x2="950.6666666666666" y2="378" fill="rgb(0, 0, 0)" stroke="rgb(60, 60, 60)" stroke-width="1px" opacity="0.25"></line><line x1="1069.5" y1="0" x2="1069.5" y2="378" fill="rgb(0, 0, 0)" stroke="rgb(60, 60, 60)" stroke-width="1px" opacity="0.25"></line><line x1="1188.3333333333335" y1="0" x2="1188.3333333333335" y2="378" fill="rgb(0, 0, 0)" stroke="rgb(60, 60, 60)" stroke-width="1px" opacity="0.25"></line><line x1="1307.1666666666665" y1="0" x2="1307.1666666666665" y2="378" fill="rgb(0, 0, 0)" stroke="rgb(60, 60, 60)" stroke-width="1px" opacity="0.25"></line><line x1="1426" y1="0" x2="1426" y2="378" fill="rgb(0, 0, 0)" stroke="rgb(60, 60, 60)" stroke-width="1px" opacity="0.25"></line></g><g><line x1="0" y1="378" x2="1426" y2="378" fill="rgb(0, 0, 0)" stroke="rgb(60, 60, 60)" stroke-width="1px" opacity="0.25"></line><line x1="0" y1="351" x2="1426" y2="351" fill="rgb(0, 0, 0)" stroke="rgb(60, 60, 60)" stroke-width="1px" opacity="0.25"></line><line x1="0" y1="324" x2="1426" y2="324" fill="rgb(0, 0, 0)" stroke="rgb(60, 60, 60)" stroke-width="1px" opacity="0.25"></line><line x1="0" y1="297" x2="1426" y2="297" fill="rgb(0, 0, 0)" stroke="rgb(60, 60, 60)" stroke-width="1px" opacity="0.25"></line><line x1="0" y1="270" x2="1426" y2="270" fill="rgb(0, 0, 0)" stroke="rgb(60, 60, 60)" stroke-width="1px" opacity="0.25"></line><line x1="0" y1="242.99999999999997" x2="1426" y2="242.99999999999997" fill="rgb(0, 0, 0)" stroke="rgb(60, 60, 60)" stroke-width="1px" opacity="0.25"></line><line x1="0" y1="216" x2="1426" y2="216" fill="rgb(0, 0, 0)" stroke="rgb(60, 60, 60)" stroke-width="1px" opacity="0.25"></line><line x1="0" y1="189" x2="1426" y2="189" fill="rgb(0, 0, 0)" stroke="rgb(60, 60, 60)" stroke-width="1px" opacity="0.25"></line><line x1="0" y1="162" x2="1426" y2="162" fill="rgb(0, 0, 0)" stroke="rgb(60, 60, 60)" stroke-width="1px" opacity="0.25"></line><line x1="0" y1="134.99999999999997" x2="1426" y2="134.99999999999997" fill="rgb(0, 0, 0)" stroke="rgb(60, 60, 60)" stroke-width="1px" opacity="0.25"></line><line x1="0" y1="108" x2="1426" y2="108" fill="rgb(0, 0, 0)" stroke="rgb(60, 60, 60)" stroke-width="1px" opacity="0.25"></line><line x1="0" y1="81" x2="1426" y2="81" fill="rgb(0, 0, 0)" stroke="rgb(60, 60, 60)" stroke-width="1px" opacity="0.25"></line><line x1="0" y1="54.00000000000002" x2="1426" y2="54.00000000000002" fill="rgb(0, 0, 0)" stroke="rgb(60, 60, 60)" stroke-width="1px" opacity="0.25"></line><line x1="0" y1="26.99999999999999" x2="1426" y2="26.99999999999999" fill="rgb(0, 0, 0)" stroke="rgb(60, 60, 60)" stroke-width="1px" opacity="0.25"></line><line x1="0" y1="0" x2="1426" y2="0" fill="rgb(0, 0, 0)" stroke="rgb(60, 60, 60)" stroke-width="1px" opacity="0.25"></line></g></g></g><g><g><line x1="0" y1="621" x2="1426" y2="621" fill="rgb(0, 0, 0)" stroke="rgb(153, 153, 153)" stroke-width="1.5px"></line></g></g><g><g><line x1="118.83333333333333" y1="0" x2="118.83333333333333" y2="378" fill="rgb(0, 0, 0)" stroke="rgb(153, 153, 153)" stroke-width="1.5px"></line></g></g><g><g><g><g><g><path stroke="rgb(255, 112, 67)" stroke-width="2px" d="M126.3869504,415.8081651789917L126.8175311,360.3898054782655L126.91616276666667,412.9846960013836L131.25650273333335,412.55350431715436L132.06273936666668,323.1169639716892L133.3057598,314.28928184399916L133.71426126666668,347.33558281493634L136.30473286666668,350.4214625136128L136.5616743,324.73231396658406L136.79042846666667,379.5201095062503L138.61509053333333,320.05159606292636L138.76203983333335,352.41111096947736L139.4053322,377.2267371332264L139.6687144,395.35607320527066L141.2736061,383.95210761047286L141.64897683333334,355.651258309704L143.85889656666666,372.15075717438776L144.71684946666667,335.07045135353684L145.6421571,343.06227119374716L146.44297493333335,375.9373636581585L146.7795347,355.70241784704206L146.8460576,358.1414507333825L147.63810553333332,351.50487039895796L148.02260266666667,340.50292219852247L150.35140326666667,413.82175348246165L154.18912576666668,313.09305195482796L156.25021863333333,231.05583110709884L156.65641473333332,268.77349868241015L156.67970606666668,272.50409921052324L165.3668743,297.422459530631L167.05594753333332,332.89347572206566L167.17998576666668,241.85608542756165L167.65049446666666,277.4136512578675L167.72210343333333,319.2681907556602L168.54989643333332,308.2009144532471L170.1708544,267.5405486716196L170.6680293,288.50432920307344L171.43490833333334,239.52259752170156L171.6189574,280.8735585130931L172.50402806666668,319.7241351078965L172.69399503333335,288.4944810647183L173.0224979,267.0566886388229L173.2137245,212.07401318328132L174.39100633333334,245.50440790997337L174.7828949,316.3226447459898L176.14641233333333,255.67358684759088L176.5342368,275.44415210855516L179.08207099999998,258.1464912651328L181.54959763333332,228.3278947590794L181.57376833333333,270.9167368554479L182.06181683333332,247.33004211326863L182.0864391,237.4980252679611L182.94512876666667,266.1588151607767L184.13816789999998,297.9352890964661L184.54854693333334,209.54117345787958L185.07752163333333,173.2447040747278L185.6448319666667,200.6068224448367L185.71427816666665,252.66409346690196L187.66414303333335,247.17845608014122L188.83774103333332,276.2870736480848L190.66556406666666,304.01224418885084L191.05892616666665,290.9473465133105L191.6847738,327.3884079079863L192.60544693333333,276.3530447447919L193.424066,266.25182684687513L193.77816556666667,261.8110961081251L194.661834,298.5666576648751L194.82675089999998,351.939994598925L194.9834445333333,340.76399675935505L195.04112623333333,245.49839805561302L195.92560273333333,288.2390388333678L197.51416673333335,314.9634233000206L199.06993273333333,328.8380539800124L200.63090363333333,309.08283238800743L201.06483543333334,272.92969943280445L202.04483016666669,278.2378196596827L202.900549,276.56269179580966L203.13911879999998,334.4176150774858L205.1020791,310.27056904649146L205.38209796666666,299.56234142789486L205.92210039999998,302.8574048567369L206.74475980000003,253.53444291404216L206.97852873333335,310.8806657484253L207.7574337,330.70839944905526L209.85134833333333,289.68503966943314L210.09170063333335,170.03102380165987L212.96471036666665,252.13861428099597L214.89610853333332,296.0031685685976L215.42986033333332,334.7419011411585L217.34975543333334,343.40514068469514L218.2606367,409.08308441081715L221.5857835,407.6579103878941L221.67764166666666,373.6547462327365L221.85517866666666,342.9928477396419L222.7484726,314.3357086437851L223.3692817,314.9614251862711L227.21287456666664,319.1168551117627L227.43490276666665,343.2101130670576L227.47380879999997,401.94606784023455L228.46963213333336,352.40764070414076L228.57292206666665,340.50458442248447L229.02867166666667,318.7827506534907L229.78851576666668,298.1896503920944L230.097221,314.99379023525665L230.69141143333331,338.57627414115393L231.01513720000003,354.88576448469234L231.59606583333334,290.15145869081545L232.34079433333332,309.6308752144892L232.862948,214.39852512869354L233.93240046666665,237.17911507721612L234.93494976666668,241.12746904632968L236.12311673333332,277.5164814277978L241.10097376666667,204.84988885667872L243.30787513333334,107.78993331400721L245.12357716666668,169.43395998840435L245.9175502,157.8203759930427L246.2354056,128.17222559582564L248.0736622,203.80333535749537L248.64289763333332,254.5820012144972L249.01553520000002,282.88920072869837L250.39987223333335,310.67352043721905L251.79818406666666,323.5641122623314L252.469735,346.95846735739883L252.55705373333333,362.0750804144393L254.608735,327.4050482486636L255.05780616666667,337.9230289491982L255.9381235,327.4938173695189L257.31076733333333,319.0762904217114L257.35373746666664,370.18577425302686L257.9454324,283.1314645518161L257.9715282,273.5588787310897L258.1060950666666,278.61532723865383L258.2203652,342.6691963431923L262.0151888666667,348.1615178059154L262.5536227,340.11691068354924L262.8870928,314.2301464101295L263.03380443333333,308.9580878460778L263.46688063333335,235.05485270764666L263.57670640000003,269.55291162458803L263.78511629999997,244.89174697475278L264.1826851,257.6350481848517L266.9844186,300.92102891091105L267.4589676333334,317.7126173465466L268.7255408333333,306.187570407928L269.68286216666667,307.3725422447568L269.86588926666667,320.50352534685413L271.4555703,311.64211520811244L271.53323976666667,300.92526912486744L273.2425384333333,387.91516147492047L273.3612767,388.2690968849523L273.4054827,353.92145813097136L274.7351326333333,344.65287487858285L276.2757355,261.8717249271497L277.4009683333333,281.3230349562898L278.43258426666665,261.6738209737739L279.5482153666667,293.08429258426435L280.010786,374.03057555055864L280.83634493333335,345.9183453303352L281.6036517666667,344.17100719820115L281.97868976666666,336.64260431892075L283.96484633333336,331.58556259135247L284.6756360333333,339.8913375548115L284.76666236666665,336.23480253288693L284.82023243333333,262.76088151973215L285.6904014,272.1365289118393L286.59132443333334,127.64191734710359L287.7655641333333,224.54515040826217L287.9973842,202.22709024495734L289.0090123666667,231.49625414697442L291.04900043333333,127.55775248818468L291.1216313666667,195.8746514929108L291.76076456666664,236.86479089574655L292.6898035666666,267.3988745374479L293.3413192,291.1193247224688L294.213746,164.95159483348127L295.20422183333335,256.1109569000888L297.4341531,320.52657414005324L300.77479576666667,318.67594448403196L301.31605783333333,319.7255666904192L304.7790037666667,306.31534001425155L304.8994057,289.0892040085509L306.9333332666667,233.3935224051305L307.4603828666667,250.1961134430783L311.11244016666666,269.99766806584705L311.2600787,164.15860083950824L312.86330673333333,213.51516050370498L313.8654757666667,223.689096302223L313.96907466666664,226.5534577813338L314.6743267333333,95.97207466880027L315.40403469999995,182.32324480128017L316.0860905,130.45394688076811L316.66288373333333,188.9723681284609L316.7184739666667,170.08342087707658L317.78008343333335,222.47005252624592L318.04339433333337,232.30203151574761L318.89507283333336,213.90121890944857L319.0604413,243.9007313456692L320.11853329999997,207.90043880740157L323.5407194,286.7402632844409L325.1430680666667,193.10415797066455L325.9028408666667,243.30249478239878L327.36936303333334,255.06149686943925L328.4138605,295.0568981216636L329.4359935333333,179.19413887299822L329.73352843333333,166.9164833237989L330.30692303333336,187.6298899942793L331.11104443333335,204.91793399656757L331.72864503333335,229.3307603979406L333.3414272666667,285.0184562387643L335.32378116666666,309.7910737432586L335.5680074333333,313.31464424595515L336.0496864666667,325.14878654757314L338.6740731,337.6492719285439L339.7330207,366.7495631571263L340.83413036666667,335.6097378942758L340.87491396666667,186.78584273656554L341.31329013333334,292.97150564193936L342.9126679666667,331.3029033851636L343.2501784,334.3217420310982L343.70165,337.7530452186589L344.40122183333335,196.17182713119539L344.9824356666667,26.443096278717213L345.8222546,97.40585776723036L345.84839793333333,191.2835146603382L345.86793413333334,234.11010879620298L346.1714107,35.706065277721805L346.50081670000003,124.5636391666331L346.6455794666667,134.67818349997987L346.9846109666667,234.1669100999879L348.7354062333333,239.32014605999277L349.47029533333335,264.0120876359957L350.3312190666667,266.40725258159745L350.7805279,263.5243515489585L352.1451386,302.29461092937515L352.6038115,263.99676655762505L352.7759772333333,278.278059934575L354.43769503333334,308.98683596074505L356.0458427666667,172.97210157644702L356.12550863333337,204.76326094586824L356.15060623333335,262.71795656752096L357.4941596666667,291.55077394051256L358.79224746666665,315.8704643643076L358.94295189999997,267.2822786185846L358.96681363333335,290.5093671711508L359.1229131,279.0656203026905L360.25579880000004,232.7793721816143L360.72927833333335,256.3076233089686L361.83421443333333,320.6445739853811L362.6719656666667,301.4667443912287L363.9907304666667,214.36004663473727L364.03747949999996,242.55602798084234L365.7006708333334,227.61361678850545L365.94335226666664,240.2481700731033L366.1389757,152.24890204386196L373.60154266666666,156.14934122631723L373.7390328333333,125.54960473579038L373.93123386666673,203.84976284147425L374.3880767333333,172.5298577048846L375.40959183333337,253.6379146229308L376.03244486666665,284.4827487737585L376.1890909666667,279.7696492642551L378.42330023333335,375.76178955855306L378.566637,398.2570737351319L381.40608819999994,137.97424424107908L382.9514919333333,100.60454654464748L383.3439509,277.4427279267885L384.2622711333333,305.2456367560731L384.6966782666667,297.6273820536439L388.5125829666667,308.7164292321863L391.81852630000003,295.3898575393118L393.1087473333334,291.7139145235871L393.96420473333336,326.76834871415224L394.7646660666666,268.9610092284914L395.3152446666666,226.71660553709486L395.5133160666666,278.04996332225693L398.03774009999995,247.28997799335417L399.4298726,264.47398679601247L400.78160176666665,303.4043920776075L403.3712653,153.96263524656447L403.44748500000003,240.33758114793875L404.88857683333333,255.4425486887632L405.8626536666667,264.5055292132579L406.6538697666667,235.92331752795477L407.00730386666663,349.4539905167728L408.0584322333333,137.85239431006374L409.1200654666667,231.21143658603825L409.21125816666665,274.26686195162296L409.2656125333333,252.0401171709738L409.8415264,228.98407030258426L410.2782151333334,278.8704421815506L411.2909365666667,260.20226530893035L411.33972953333335,287.3413591853583L411.39225386666664,222.08481551121494L413.2530175,283.37088930672894L414.40684163333333,279.10253358403736L415.62333846666667,217.14152015042248L417.2063648333333,208.58491209025354L422.2916947333334,218.57094725415214L422.3818654666667,245.0825683524913L423.4359884333333,212.92954101149476L424.16880983333334,198.4977246068969L424.25465503333334,264.3586347641381L425.50525703333335,306.57518085848295L429.78408886666665,291.94510851508977L432.8512485,292.34706510905386L433.99138303333336,285.0282390654323L434.9918171,307.09694343925935L435.78003859999995,332.75816606355556L436.7411863666666,331.4148996381333L438.4708293,325.20893978287995L439.1730867666667,338.765363869728L439.3801419666667,296.1392183218368L441.02479530000005,218.18353099310207L441.5175971333333,238.37011859586121L441.64424970000005,268.8420711575167L445.5621371666667,280.64524269451L446.80468226666665,290.96714561670603L448.50803926666663,304.7202873700236L449.9309496,366.43217242201416L450.15594863333337,290.5993034532085L450.8148557,322.85958207192505L451.8684795666667,174.81574924315504L455.3202314,123.24944954589301L455.6124425666667,193.28966972753582L456.05039093333335,216.41380183652151L457.35972036666664,243.7882811019129L457.54804743333335,274.2529686611478L459.9496928666667,262.29178119668865L460.1238787666666,318.29506871801317L461.2262956,299.51704123080793L461.6039241666667,349.81022473848475L464.7604227,250.92613484309086L465.939796,295.27568090585453L467.07674579999997,307.30540854351267L467.6007532666667,276.7232451261076L470.25049893333335,190.33394707566458L472.2516760333333,228.68036824539877L473.11666386666667,344.0282209472393L473.4444537333333,304.15693256834356L473.56252653333337,258.63415954100617L474.8799366333334,358.22049572460367L474.9820382333333,281.8922974347622L475.3703618,92.99537846085735L477.4351385,204.83722707651438L478.5938585666667,226.5823362459086L478.62228350000004,254.74940174754516L478.73714780000006,201.4496410485271L479.77168703333336,220.76978462911626L480.1192983,210.22187077746977L480.4701180666667,236.29312246648183L480.8732245,184.43587347988912L481.73355406666667,221.36152408793345L482.0860612666667,232.17691445276006L485.7869828333333,251.08614867165605L486.5136724333333,269.99168920299365L486.73075716666665,253.7950135217962L487.9608247666667,299.6970081130777L488.9064053666667,368.81820486784665L489.07460206666667,169.99092292070796L489.8433111333333,237.53455375242478L493.14868406666665,191.6607322514549L493.85472043333334,245.13643935087293L495.7621380333334,139.52186361052378L496.0357399,220.33311816631422L497.1497548666667,229.93987089978862L498.1047946,-1.3560774601268153L498.8453639333333,51.026353523924016L500.3926214666667,117.55581211435442L501.79414180000003,79.71348726861267L504.7278516,147.18809236116758L505.87879996666663,172.5528554167005L506.9656258666667,77.07171325002035L508.69676610000005,149.92302795001225L508.71575566666667,250.87381677000735L510.16592636666667,287.1442900620044L512.1356126333334,291.62657403720266L513.0068511,315.9159444223216L514.1702056666667,283.50956665339294L514.6722289666667,311.58573999203577L515.0443912,299.27144399522143L523.2071954666667,304.30286639713285L523.3281915666666,325.6817198382797L525.9489656666667,359.5690319029678L526.7631166,247.06141914178073L527.1924139,299.4368514850685L527.297011,143.4821108910411L527.8994722333333,227.02926653462467L528.9803564666666,278.2375599207748L530.3783118,348.3825359524649L530.7570811666667,290.56952157147896L531.7764335,205.66171294288742L532.3559599,169.29702776573248L533.5484999333333,238.7382166594395L533.6872022,310.64292999566374L533.7070711333333,260.3657579973982L534.1052103333334,147.57945479843897L537.3579638666666,215.44767287906345L537.6336572,320.4286037274381L541.0269430333334,97.75716223646283L542.0982968333333,143.4342973418777L545.6838074666667,190.28057840512668L547.5791278333332,207.048347043076L549.0750018333333,285.14900822584565L549.3394535333333,245.60940493550746L550.2228605333333,256.98564296130445L551.2175906,236.81138577678274L554.2139968666667,273.30683146606964L554.4379739333333,113.7640988796418L554.5668368,199.4784593277851L555.9814525666667,142.36707559667107L557.8967607,168.58024535800263L561.1057360333333,204.28814721480163L561.3334444666667,95.57288832888098L561.4510181666667,162.6437329973286L561.5536426333333,133.76623979839724L563.4427598999999,273.5797438790384L565.2189379666667,147.40784632742307L566.8585765333333,162.96470779645387L568.8747504,212.7988246778723L569.5986117666666,131.4592948067234L570.6612194333334,192.81557688403407L571.0009877,274.44934613042045L571.2399615333334,284.5496076782523L572.1852094,207.44976460695142L574.7197342666667,243.80985876417085L575.1798094,249.9659152585025L575.4804815,216.3995491551015L578.6846084333333,255.11972949306093L578.7238472,135.79183769583656L578.8907129666667,198.11510261750192L578.979529,206.88906157050118L579.3265461,102.53343694230068L579.7809885333334,207.86006216538044L582.9501784666667,112.83603729922825L585.2806189666667,182.18162237953695L586.6207024666667,235.12897342772217L588.6218795666666,138.37738405663328L588.7286156666667,229.36643043397999L591.3875828,187.29985826038802L593.3358552999999,94.01991495623281L594.6101051333333,94.75194897373966L596.3406512,31.471169384243826L597.1371910333334,124.72270163054633L597.5326208333333,206.05362097832779L599.6737123,193.29217258699663L599.7415423666666,248.81530355219797L601.0323575666666,222.7291821313188L603.0099106,269.17750927879126L603.5010012333333,280.8465055672748L604.0850433,250.04790334036488L609.5629747666667,232.10874200421898L610.1100596666666,237.00524520253143L611.0118145333333,252.36314712151884L611.5011226666667,224.8578882729113L611.8227807333333,281.2547329637468L613.4809810666667,375.57283977824807L613.5913534666666,190.24370386694886L613.9598318666667,222.68622232016932L614.3760812666667,224.8717333921016L617.6644135,221.86304003526095L622.5711368999999,236.25782402115655L624.0872363333333,124.47469441269398L625.0082659666666,201.04481664761641L625.3137389333334,216.74688998856985L625.8242469333334,250.46813399314195L626.3142442999999,148.12088039588522L627.8903070333333,154.7525282375311L630.4578675666667,31.831516942518682L630.5542889333333,-52.18108983448873L631.5720251333333,109.63134609930673L632.3485296666666,139.75880765958408L632.8516462333333,64.95528459575048L632.9114431666667,-82.52682924254975L637.7917855666667,-53.72499511639071L640.9637799666666,107.08500293016561L641.0884836666667,184.13100175809936L641.5875836666667,277.87860105485964L641.6546056666667,105.16716063291581L641.7687094333334,155.4402963797495L641.9366684666667,87.86417782784974L642.6443447333334,87.2785066967099L643.6455393333333,158.7471040180259L644.1297851666667,113.06826241081556L646.3358784666666,193.12095744648937L648.3987300666666,263.83257446789366L648.5187042,124.81954468073626L649.2104092666666,236.8917268084418L650.2193280333333,129.71503608506507L651.3941381333334,159.36902165103908L653.6607651333334,231.16141299062352L654.4535023,221.3168477943741L659.0758813,102.01010867662447L659.4538188333333,181.08606520597465L659.6098707666666,242.57163912358484L659.8258147,156.34298347415088L660.2567994333334,171.56579008449054L661.8377343333334,113.19947405069436L661.8873591333333,139.7396844304166L663.5394039,106.52381065824997L665.8409916666667,12.07428639494999L666.8035416666667,130.90457183697004L673.2448312,214.08274310218204L673.9015755,231.5896458613092L675.2870771,135.71378751678554L675.5651946333334,198.60827251007132L675.9930897,242.8249635060428L677.8053218,195.37497810362566L679.1091373666667,189.58498686217544L679.4606701333333,120.77099211730531L680.1022275333333,141.5825952703832L682.1731835666666,209.68955716222996L682.2351195,77.75373429733794L683.1996659,68.25224057840276L684.5562197,55.53134434704167L685.9056435,174.25880660822503L691.2688770333333,173.675283964935L692.7505148,266.745170378961L693.4421010333334,148.1671022273766L697.6184034666667,203.380261336426L698.40489,213.28815680185562L701.7188427,133.91289408111336L702.1809855333333,32.287736448668035L702.9122383333333,17.752641869200826L703.2525056999999,99.21158512152051L707.7739239,175.0869510729123L708.9042903333333,121.79217064374741L709.7842749333333,184.31530238624845L711.9137682666667,251.52918143174912L711.9510581666666,86.65750885904951L714.6109522,103.83450531542971L717.1406761999999,-27.879296810742126L717.1996413,93.43242191355473L718.7697386000001,206.71945314813286L718.8599331,108.37167188887972L731.2439825666667,-47.296996866672146L735.4009627,46.14180187999669L740.0160928666667,168.625081127998L741.7948139666667,182.71504867679883L742.6833308,231.1290292060793L742.7787064333334,225.61741752364762L743.2805633666667,233.6504505141886L746.4147212333334,108.33027030851322L749.2294788666666,195.13816218510794L749.6134293666667,204.5628973110648L750.8449942666666,163.77773838663887L752.8341454333333,197.62664303198335L753.2291712,196.33598581919006L754.2050543,227.42159149151402L754.3878675,258.49295489490845L756.0274109999999,146.99577293694506L756.5585484666666,60.65746376216699L756.6346255666667,-55.945521742699775L769.0205288333334,-70.53338146242736L770.2276853666666,61.35997112254362L770.9081963333333,200.43598267352618L774.9858433333334,143.48158960411573L776.0657056,234.04895376246947L776.4374875666667,277.58937225748167L777.1742067,135.77362335448902L777.668387,43.664174012693415L777.9762128666666,28.898504407615974L778.0333241666666,39.479102644569515L779.1492642333334,148.42746158674177L780.7716006666667,229.99647695204504L781.2494295,32.15788617122711L783.3825591333333,151.0547317027363L783.6635049,10.712839021641773L783.9765356666667,104.7077034129851L785.6264652000001,198.36462204779107L788.6299777,277.2387732286747L788.9020822666666,248.4232639372048L789.1536286666666,159.31395836232284L789.4031548999999,33.48837501739363L790.2146677333334,141.0530250104362L793.1934629,193.17181500626168L793.9368842333334,227.683089003757L794.3021779,280.24985340225425L794.3480000333333,282.6299120413525L796.4422949333334,305.11794722481153L797.6788983666668,286.21076833488695L801.2363881,233.8264610009321L802.2701905666667,207.25587660055933L802.4025233666666,88.17352596033558L803.9974805999999,87.46411557620137L805.5623967666667,166.4184693457208L807.1935031,178.1510816074325L808.9673282666668,204.63064896445954L808.9887658,225.91838937867578L811.8152166333333,152.29103362720548L813.3898296,232.8546201763233L814.5658042666668,162.93277210579396L814.9760169333334,76.69966326347642L815.8740166666666,-72.24020204191409L817.1682542666666,-30.384121225148565L817.7337108,66.5495272649109L818.2547474333334,154.40971635894653L822.8989442333333,40.265829815367944L824.6055810333334,44.13949788922084L826.6974992666667,132.86369873353254L826.7922094333334,28.958219240119515L827.0426863333333,131.31493154407175L828.9261471333333,140.88895892644305L829.4051167666667,64.55337535586584L831.9311331666667,73.29202521351951L832.6573712,154.13521512811172L836.6845853333334,93.02112907686703L837.6203740666667,144.3726774461202L837.8479161333333,211.90360646767212L839.6047481333333,166.0221638806033L841.7740506333333,83.413298328362L842.7104573,185.58797899701722L843.8535864333334,236.09278739821036L845.4053121000001,277.7356724389262L848.1534992999999,287.0614034633557L848.6813332,100.95684207801344L852.6617745333334,104.85410524680807L855.2377484666667,170.91246314808484L855.4718739,227.2874778888509L857.0984170333332,143.39248673331056L857.7211749999999,178.3754920399864L859.3025139333333,68.68529522399189L860.1605619,138.95117713439515L860.5256892000001,108.21070628063707L865.3297881333334,106.50642376838225L865.4103333666667,43.383854261029455L867.2315492666667,-25.269687443382423L868.0243102,56.658187533970505L870.6419946333334,138.75491252038233L870.6936158333333,199.89294751222943L870.9399811,253.31576850733762L874.9566190666667,277.2694611044026L875.1443995000001,284.62167666264156L879.1721365,290.113005997585L880.6896144,293.407803598551L881.9119578333334,302.94468215913065L883.4421271333333,307.04680929547845L884.2589399333333,150.2080855772871L885.9630812333334,93.9048513463723L888.0885817666667,101.16291080782338L889.6337716,175.17774648469407L890.0695572,192.04664789081644L891.0721778000001,126.56798873448989L891.2384256333333,166.66079324069395L894.4723322,126.99647594441639L894.6839268333333,223.07788556664983L895.2358363666666,226.7267313399899L895.8712382,256.99603880399394L896.3677238666667,149.8776232823964L897.1126900333334,155.26657396943781L899.5960928,229.23994438166272L899.8703839000001,191.54396662899762L900.6019456666667,-18.993620022601412L902.2250426333334,107.94382798643916L902.5426603666667,207.3262967918635L902.9210494666665,270.7357780751181L906.2411814999999,292.04146684507083L907.5605879999999,241.6448801070425L907.8810339666666,311.84692806422555L907.9379076,328.0481568385353L908.0717139333334,274.0488941031212L909.2398931333333,265.4093364618727L910.0911200666667,300.72560187712367L910.5692816333334,252.25536112627418L912.7174080333334,121.65321667576453L918.2377154666666,181.53193000545875L920.4176654333334,260.65915800327525L920.7889720666667,176.91549480196514L922.1813422333333,209.28929688117907L924.8895301333334,224.93357812870747L926.0895566666666,189.50014687722447L926.7876549666667,227.6400881263347L927.4973276333333,255.92405287580078L927.7218513333333,208.09443172548043L927.8915691,246.89665903528825L928.1131695,299.877995421173L929.2549677000001,239.86679725270378L932.5307036,264.8800783516223L935.0909202333332,165.40804701097338L936.0626679333334,244.504828206584L938.0280762,175.3228969239504L938.6790451999999,213.1937381543703L939.7449564333334,285.5962428926222L940.7230498333334,307.4377457355733L942.2573307666665,303.802647441344L946.2661495000001,250.32158846480635L946.8871725,274.93295307888377L947.7785175666667,235.69977184733028L948.8007219,255.35986310839814L948.9237619333334,272.5559178650389L949.1570555333333,132.75355071902334L950.968741,123.93213043141401L951.0450557666667,211.51927825884846L954.0436960999999,258.671566955309L954.6215350666666,286.9629401731854L955.0648071666666,265.59776410391123L955.5228859,227.39865846234676L956.1365412333332,95.39919507740804L956.7453244,5.399517046444805L957.2289047666667,118.2597102278669L957.7569050333334,232.4158261367202L962.4025991333334,275.5294956820321L963.3330166000001,239.83769740921932L964.6358101999999,298.3426184455316L971.7891966,278.36557106731897L972.1417038,235.0593426403914L973.5256843333333,224.1956055842348L974.8176641,276.5373633505409L978.7032526666667,126.50241801032453L980.4197764,226.56145080619473L980.4425686333333,282.2768704837169L980.7510599666667,310.84612229023014L980.8034179333333,73.64767337413804L983.0226779666666,69.56860402448287L984.7884937666666,155.6811624146897L985.3523104,252.70869744881378L986.0784058333332,238.5652184692883L987.0893447666667,284.079131081573L990.9057723333333,243.34747864894382L992.1538550666667,190.8284871893663L993.4485679999999,261.9170923136198L993.7192465666667,200.8902553881719L996.9626360333333,258.2341532329031L997.4188372,183.0204919397419L997.5407126666665,288.5522951638452L997.9177232999999,244.41137709830716L998.3176450000001,260.5868262589844L1005.9506664999999,155.27209575539058L1006.1510670333333,218.98325745323433L1007.3345995000001,169.72995447194057L1007.3614320666667,226.57797268316432L1008.9281545000001,277.42678360989856L1009.6530616,303.0760701659392L1010.4406176333333,155.3856420995635L1010.5556245333333,240.11138525973809L1010.6261164666666,279.6068311558428L1011.2490170333334,178.5640986935057L1015.0149642,260.49845921610336L1016.9314844333334,239.99907552966198L1017.4605304333334,217.43944531779724L1020.0842753666667,233.60366719067835L1022.4112934666666,264.902200314407L1022.5476666000001,283.6813201886442L1024.9891925,323.56879211318653L1027.9966265,340.4812752679119L1028.2930681333332,296.6287651607472L1028.9554451333333,219.55725909644832L1031.7582719,4.834355457869065L1032.7345115,89.84061327472145L1034.0493310333334,189.44436796483288L1036.1161754333334,227.60662077889972L1038.0798487333334,266.70397246733984L1039.3747993333334,264.78238348040395L1039.9412540666667,294.4094300882424L1040.9289729666666,315.96565805294546L1041.5652304,245.7393948317673L1041.7881617333333,266.7836368990604L1042.0411816666667,259.9701821394363L1042.0856966333333,275.3221092836618L1042.1300214666667,309.9132655701971L1042.5855571666668,299.8879593421182L1044.0816926,283.61277560527094L1044.8741683333333,162.6076653631626L1045.7332145,233.10459921789763L1046.7978661,145.26275953073855L1047.5668841333334,198.93765571844318L1048.5677697666667,53.482593431065936L1049.8685194333334,116.86955605863962L1054.4189092,216.46173363518378L1056.4710420333333,36.45704018111027L1057.1776725666666,71.01422410866617L1057.5381416,157.08853446519973L1058.9607905,235.73312067911988L1059.7238431,234.3198724074719L1060.5721229666667,93.61192344448314L1060.8327244666666,190.6271540666899L1062.1569318333334,127.87629244001394L1062.6390149000001,147.4657754640084L1064.0732857,71.73946527840509L1065.8351324666667,36.563679167043055L1068.454029,6.8182075002258635L1069.2104031666668,-25.60907549986446L1070.2002135333332,146.63455470008128L1071.2206353666666,218.12073282004877L1072.7880945666666,87.13243969202924L1073.0021133999999,149.47946381521754L1076.4487554,178.24767828913053L1076.9831964333334,220.88860697347832L1078.2878913666666,269.693164184087L1080.4926299666665,274.6758985104522L1080.7466718666667,311.1455391062713L1086.0838571333334,198.56732346376276L1087.7065500666668,35.98039407825764L1088.5338202,35.08823644695461L1090.4802864333333,102.59294186817277L1090.5225198,215.99576512090368L1090.8325559666666,50.757459072542154L1091.0160584,140.0744754435253L1091.5640464333333,84.04468526611524L1093.2562568666667,72.02681115966917L1093.5052602333333,-1.6039133041985387L1094.5775171666667,35.21765201748097L1098.4066599,152.3505912104886L1099.0297981333333,229.11035472629314L1099.1130052333333,158.5262128357759L1099.1872998333333,215.5357277014656L1099.4889226,97.46143662087937L1099.8688327666666,172.4168619725276L1100.4378543,182.29011718351657L1100.6223549333333,94.79407031010993L1100.7194892999999,174.05644218606596L1102.2250838666666,208.6538653116396L1104.2514536333333,100.35231918698376L1104.6545600666668,66.15139151219033L1104.9211983,41.85083490731411L1105.7967860666668,-12.149499055611518L1107.3742748,98.55030056663311L1107.6728554333333,162.27018033997985L1108.2594167666666,200.50210820398786L1113.1599608333333,262.86126492239276L1116.8615716333334,304.0567589534357L1117.6908619333333,265.5940553720614L1117.7628749333335,306.2364332232368L1118.8555474333334,296.0618599339422L1119.2029923333332,286.7171159603653L1120.3135611333335,312.97026957621915L1121.3956812333333,207.2221617457315L1122.2270154666667,297.1332970474389L1124.5667012,305.71997822846333L1126.1432868,146.171986937078L1126.3180668666666,207.04319216224675L1130.0617209,88.04591529734812L1130.9124487333333,123.0275491784089L1131.2490085,120.79652950704532L1133.2576958666666,161.0379177042272L1133.4415548,221.36275062253637L1137.1010748333333,173.85765037352184L1143.3763066666668,218.79459022411314L1143.3953437666667,288.4167541344679L1143.8671834,175.7500524806808L1144.1256221333333,132.9900314884085L1145.2165834333334,227.2140188930451L1146.4567043333334,240.00841133582708L1147.3663735,189.36504680149625L1148.6263158000002,87.15902808089776L1152.2037457666668,130.5954168485387L1153.4476455666666,125.87725010912327L1155.7345217666668,140.32635006547395L1156.7715802666667,219.73581003928436L1157.9592243666666,284.1214860235706L1158.4882703666667,178.0328916141424L1158.7605650666667,160.27973496848543L1162.1904278,172.3078409810912L1162.7377265999999,222.1847045886547L1163.8062284,231.05082275319288L1164.9174626666666,-44.429506348084274L1173.4069635333333,-15.370064022711661L1174.9860446333334,58.27796158637309L1175.8680494,16.066776951823915L1178.0859309666666,118.18006617109431L1179.1388893666667,206.4480397026566L1179.5408787666668,237.808823821594L1182.2530594666666,266.8852942929564L1182.7016553,278.39117657577384L1182.9986673333333,304.7347059454643L1183.1095863666667,274.6408235672786L1185.5841954666666,318.6844941403672L1188.2854910333333,305.69069648422027L1189.5730739666667,299.51441789053223L1190.8795514,336.84865073431934L1191.1344489,236.66919044059162L1191.7683296666667,245.14151426435498L1191.8357081666666,187.04490855861303L1192.4281636333333,244.52694513516786L1193.2119407666667,175.3361670811007L1194.1609675333334,50.66170024866043L1196.003312,191.85702014919627L1196.0280055666665,229.05421208951773L1196.5820541,132.57252725371063L1197.8957328333333,49.30351635222649L1197.9200223666667,133.26210981133593L1198.3357964333334,224.13726588680154L1199.4219331,284.6023595320809L1200.5608317666668,199.92141571924859L1200.7619690666668,270.6128494315492L1201.7825810333334,105.12770965892952L1203.1646364666667,206.17662579535772L1206.0767661333334,109.1259754772146L1206.6318128666667,73.03558528632878L1208.1455594,197.72135117179727L1208.8729382333333,95.41281070307838L1213.7925194,112.327686421847L1213.9808702333332,181.33661185310822L1215.4316113333334,173.60196711186495L1216.2959099333334,105.24118026711898L1217.3972572666667,74.48470816027141L1218.0525042666666,125.69082489616285L1220.1419745333333,54.89449493769769L1220.9831957,133.37669696261864L1221.7953502333335,215.5660181775712L1221.9085271000001,90.45961090654274L1222.0300223,186.03576654392566L1223.6297091,247.16145992635543L1223.6613663,220.65687595581326L1224.5439652333334,151.2941255734879L1227.5260164333333,98.87647534409278L1227.6133114,152.20588520645566L1228.3552829666667,-31.796468876126593L1229.8383467333333,-23.397881325675925L1230.8014671333333,19.981271204594442L1231.2847385333332,159.94876272275664L1233.6886655666667,79.229257633654L1235.0290580333333,156.6175545801924L1235.1778136,169.03053274811546L1235.3409004666667,236.95831964886926L1235.4806247000001,256.1149917893216L1236.1679091666667,231.42899507359297L1236.3484882999999,130.21739704415577L1236.7807802,214.2104382264935L1236.8465425666666,70.74626293589607L1237.4888367333333,169.88775776153764L1238.8808741666667,79.79265465692262L1239.1762938333334,107.81559279415363L1239.285977,212.10935567649213L1242.3863386666667,247.1456134058953L1246.5664913,268.16736804353724L1247.5986301,142.00042082612228L1248.0212964999998,156.4802524956734L1248.2929257333333,62.56815149740405L1249.3741427,162.28089089844244L1249.6139483666668,218.3285345390655L1250.2435036,267.07712072343924L1250.7272741,295.7862724340636L1250.7496623,314.63176346043815L1251.8627503666667,340.5190580762629L1252.4087657666666,226.99143484575777L1252.7015711,110.27486090745468L1252.9832061,190.90491654447283L1253.0976426,104.8229499266837L1259.9997202666666,130.93376995601022L1260.1011801666666,115.28026197360612L1261.9618962666666,196.60815718416373L1262.7520190999999,71.52489431049821L1262.8901985,36.43493658629894L1265.0292222666667,41.8409619517793L1269.9074732,43.464577171067596L1270.5172308,-57.621253697359435L1271.7820928,48.047247781584296L1274.1144108666667,175.16834866895056L1274.4072637333334,-20.178990798629684L1274.6202606,102.37260552082215L1274.8111782333333,68.98356331249332L1275.3420780333333,37.610137987496024L1275.6908776333332,154.86608279249765L1277.0248531,194.4396496754986L1277.6768915999999,259.2237898052992L1282.5064684,200.8942738831795L1283.9646246999998,148.07656432990768L1284.1802358999998,152.56593859794464L1285.3173996,231.9395631587668L1285.4282473333333,152.12373789526006L1287.2432363666667,65.89424273715606L1289.4560318666665,197.21654564229365L1292.7336691,237.66992738537618L1293.1001986333333,168.52195643122576L1294.6133034666666,148.09317385873553L1295.7490411666668,84.53590431524132L1296.4116320666667,37.761542589144874L1298.3206420333333,8.616925553487L1300.9248745333332,71.59015533209227L1301.5530988333335,-56.405906800744596L1304.5862008333334,-29.523544080446857L1305.1127988666667,113.50587355173194L1305.5405988666666,156.12352413103918L1306.9494393333332,306.9741144786235L1307.1520264,373.72446868717407" style="fill: none;" fill="none"></path></g></g></g></g><g opacity="0.2"><g><g><g><path stroke="rgb(255, 112, 67)" stroke-width="2px" d="M125.10421586666668,541.35L125.58496799999999,295.65L126.3869504,379.35L126.8175311,278.1L126.91616276666667,491.40000000000003L127.22933613333332,464.40000000000003L128.0136599,345.59999999999997L128.9002516333333,457.65L129.219129,467.1L131.25650273333335,371.25L132.06273936666668,189L133.3057598,301.05L133.71426126666668,396.90000000000003L136.30473286666668,355.05L136.5616743,286.2L136.79042846666667,461.70000000000005L138.61509053333333,230.85000000000002L138.76203983333335,400.95L141.22816423333333,413.1L141.2736061,353.7L141.64897683333334,313.2L143.85889656666666,396.90000000000003L144.71684946666667,279.45L145.6421571,355.05L146.44297493333335,425.25L146.7795347,325.35L146.8460576,361.8L147.63810553333332,341.55L148.02260266666667,324L150.35140326666667,523.8L154.18912576666668,162L156.25021863333333,108L156.65641473333332,325.35L156.67970606666668,278.1L165.3668743,334.8L167.05594753333332,386.09999999999997L167.17998576666668,105.3L167.65049446666666,330.75L167.72210343333333,382.05L168.54989643333332,291.6L170.1708544,206.55L170.6680293,319.95L171.43490833333334,166.05L171.6189574,342.9L172.50402806666668,378L172.69399503333335,241.64999999999998L173.0224979,234.9L173.2137245,129.6L174.39100633333334,295.65L174.7828949,422.55L176.14641233333333,164.7L176.5342368,305.1L179.08207099999998,232.20000000000002L181.54959763333332,183.60000000000002L181.57376833333333,334.8L182.06181683333332,211.95L182.0864391,222.75L182.94512876666667,309.15L184.13816789999998,345.59999999999997L184.54854693333334,76.95000000000002L185.07752163333333,118.8L185.6448319666667,241.64999999999998L185.71427816666665,330.75L187.66414303333335,238.95L188.83774103333332,319.95L190.66556406666666,345.59999999999997L191.05892616666665,271.35L191.6847738,382.05L192.60544693333333,199.8L193.424066,251.10000000000002L193.77816556666667,255.15L194.661834,353.7L194.82675089999998,432L194.9834445333333,324L195.04112623333333,102.60000000000001L195.92560273333333,352.35L197.51416673333335,355.05L199.06993273333333,349.65000000000003L200.63090363333333,279.45L201.06483543333334,218.7L202.04483016666669,286.2L202.900549,274.05L203.13911879999998,421.2L205.1020791,274.05L205.38209796666666,283.5L205.92210039999998,307.8L206.74475980000003,179.54999999999998L206.97852873333335,396.90000000000003L207.7574337,360.45L209.85134833333333,228.15000000000003L210.09170063333335,-9.449999999999967L212.96471036666665,375.3L214.89610853333332,361.8L215.42986033333332,392.85L217.34975543333334,356.4L218.2606367,507.6L220.28177780000001,475.2L221.5857835,365.85L221.67764166666666,322.65L221.85517866666666,297L222.7484726,271.35L223.3692817,315.90000000000003L227.21287456666664,325.35L227.43490276666665,379.35L227.47380879999997,490.05L228.46963213333336,278.1L228.57292206666665,322.65L229.02867166666667,286.2L229.78851576666668,267.29999999999995L230.097221,340.2L230.69141143333331,373.95L231.01513720000003,379.35L231.59606583333334,193.04999999999998L232.34079433333332,338.85L232.862948,71.55L233.93240046666665,271.35L234.93494976666668,247.05L236.12311673333332,332.1L241.10097376666667,95.85L243.30787513333334,-37.80000000000003L245.12357716666668,261.9L245.9175502,140.4L246.2354056,83.7L248.0736622,317.25L248.64289763333332,330.75L249.01553520000002,325.35L250.39987223333335,352.35L251.79818406666666,342.9L252.469735,382.05L252.55705373333333,384.75L254.608735,275.40000000000003L255.05780616666667,353.7L255.9381235,311.84999999999997L257.31076733333333,306.45L257.35373746666664,446.85L257.9454324,152.55L257.9715282,259.2L258.1060950666666,286.2L258.2203652,438.75000000000006L262.0151888666667,356.4L262.5536227,328.05L262.8870928,275.40000000000003L263.03380443333333,301.05L263.46688063333335,124.20000000000002L263.57670640000003,321.3L263.78511629999997,207.9L264.1826851,276.75L266.9844186,365.85L267.4589676333334,342.9L268.7255408333333,288.9L269.68286216666667,309.15L269.86588926666667,340.2L271.4555703,298.34999999999997L271.53323976666667,284.85L273.2425384333333,518.4L273.3612767,388.79999999999995L273.4054827,302.40000000000003L274.7351326333333,330.75L276.2757355,137.70000000000002L277.4009683333333,310.5L278.43258426666665,232.20000000000002L279.5482153666667,340.2L280.010786,495.45L280.83634493333335,303.75L281.6036517666667,341.55L281.97868976666666,325.35L283.96484633333336,324L284.6756360333333,352.35L284.76666236666665,330.75L284.82023243333333,152.55L285.6904014,286.2L286.59132443333334,-89.10000000000002L287.7655641333333,369.9L287.9973842,168.75L289.0090123666667,275.40000000000003L291.04900043333333,-28.349999999999984L291.1216313666667,298.34999999999997L291.76076456666664,298.34999999999997L292.6898035666666,313.2L293.3413192,326.7L294.213746,-24.299999999999997L297.4341531,417.15000000000003L300.77479576666667,315.90000000000003L301.31605783333333,321.3L304.7790037666667,286.2L304.8994057,263.25L306.9333332666667,149.85000000000002L307.4603828666667,275.40000000000003L311.11244016666666,299.7L311.2600787,5.399999999999981L312.86330673333333,287.55L313.8654757666667,238.95L313.96907466666664,230.85000000000002L314.6743267333333,-99.89999999999998L315.40403469999995,311.84999999999997L316.0860905,52.64999999999998L316.66288373333333,276.75L316.7184739666667,141.75L317.78008343333335,301.05L318.04339433333337,247.05L318.89507283333336,186.3L319.0604413,288.9L320.11853329999997,153.9L323.5407194,405L325.1430680666667,52.64999999999998L325.9028408666667,318.6L327.36936303333334,272.7L328.4138605,355.05L329.4359935333333,5.399999999999981L329.73352843333333,148.50000000000003L330.30692303333336,218.7L331.11104443333335,230.85000000000002L331.72864503333335,265.95L333.3414272666667,368.55L335.32378116666666,346.95L335.5680074333333,318.6L336.0496864666667,342.9L338.6740731,356.4L339.7330207,410.4L340.83413036666667,288.9L340.87491396666667,-36.45000000000004L342.9126679666667,388.79999999999995L343.2501784,338.85L343.70165,342.9L344.40122183333335,-16.200000000000028L344.9824356666667,-228.15000000000003L345.8222546,203.85000000000002L345.84839793333333,332.1L345.86793413333334,298.34999999999997L346.1714107,-261.9L346.50081670000003,257.85L346.6455794666667,149.85000000000002L346.9846109666667,383.4L348.7354062333333,247.05L349.47029533333335,301.05L350.3312190666667,270L350.7805279,259.2L352.1451386,360.45L352.6038115,206.55L352.7759772333333,299.7L354.43769503333334,355.05L356.0458427666667,-31.049999999999972L356.12550863333337,252.45000000000002L356.15060623333335,349.65000000000003L357.4941596666667,334.8L358.79224746666665,352.35L358.94295189999997,194.39999999999998L358.96681363333335,325.35L359.1229131,261.9L360.25579880000004,163.35L360.72927833333335,291.6L361.83421443333333,417.15000000000003L362.6719656666667,272.7L363.9907304666667,83.7L364.03747949999996,284.85L365.7006708333334,205.20000000000002L365.94335226666664,259.2L366.1389757,20.25000000000001L373.60154266666666,162L373.7390328333333,79.65L373.93123386666673,321.3L374.3880767333333,125.55000000000001L375.40959183333337,375.3L376.03244486666665,330.75L376.1890909666667,272.7L378.42330023333335,519.75L381.40608819999994,-252.45000000000002L382.9514919333333,44.55000000000001L383.3439509,542.7L384.2622711333333,346.95L384.6966782666667,286.2L388.5125829666667,325.35L391.81852630000003,275.40000000000003L393.1087473333334,286.2L393.96420473333336,379.35L394.7646660666666,182.24999999999997L395.3152446666666,163.35L395.5133160666666,355.05L398.03774009999995,201.15L399.4298726,290.25L400.78160176666665,361.8L403.3712653,-70.2L403.44748500000003,369.9L404.88857683333333,278.1L405.8626536666667,278.1L406.6538697666667,193.04999999999998L407.00730386666663,519.75L408.0584322333333,-179.55000000000004L409.1200654666667,371.25L409.21125816666665,338.85L409.2656125333333,218.7L409.8415264,194.39999999999998L410.2782151333334,353.7L411.2909365666667,232.20000000000002L411.33972953333335,328.05L411.39225386666664,124.20000000000002L413.2530175,375.3L414.40684163333333,272.7L415.62333846666667,124.20000000000002L417.2063648333333,195.74999999999997L422.2916947333334,233.55L422.3818654666667,284.85L423.4359884333333,164.7L424.16880983333334,176.85L424.25465503333334,363.15000000000003L425.50525703333335,369.9L429.78408886666665,270L432.8512485,292.95L433.99138303333336,274.05L434.9918171,340.2L435.78003859999995,371.25L436.7411863666666,329.4L438.4708293,315.90000000000003L439.1730867666667,359.09999999999997L439.3801419666667,232.20000000000002L441.02479530000005,101.25000000000001L441.5175971333333,268.65L441.64424970000005,314.55L445.5621371666667,298.34999999999997L446.80468226666665,306.45L448.50803926666663,325.35L449.9309496,458.99999999999994L450.15594863333337,176.85L450.8148557,371.25L451.8684795666667,-47.25L455.3202314,45.900000000000006L455.6124425666667,298.34999999999997L456.05039093333335,251.10000000000002L457.35972036666664,284.85L457.54804743333335,319.95L459.9496928666667,244.34999999999997L460.1238787666666,402.3L461.2262956,271.35L461.6039241666667,425.25L464.7604227,102.60000000000001L465.939796,361.8L467.07674579999997,325.35L467.6007532666667,230.85000000000002L470.25049893333335,60.74999999999999L472.2516760333333,286.2L473.11666386666667,517.05L473.4444537333333,244.34999999999997L473.56252653333337,190.35L474.8799366333334,507.6L474.9820382333333,167.4L475.3703618,-190.35L477.4351385,372.6L478.5938585666667,259.2L478.62228350000004,297L478.73714780000006,121.49999999999999L479.77168703333336,249.75L480.1192983,194.39999999999998L480.4701180666667,275.40000000000003L480.8732245,106.65L481.73355406666667,276.75L482.0860612666667,248.4L485.7869828333333,279.45L486.5136724333333,298.34999999999997L486.73075716666665,229.50000000000003L487.9608247666667,368.55L488.9064053666667,472.5L489.07460206666667,-128.24999999999997L489.8433111333333,338.85L493.14868406666665,122.84999999999998L493.85472043333334,325.35L495.7621380333334,-18.900000000000016L496.0357399,341.55L497.1497548666667,244.34999999999997L498.1047946,-348.3L498.8453639333333,129.6L500.3926214666667,217.35L501.79414180000003,22.950000000000003L504.7278516,248.4L505.87879996666663,210.6L506.9656258666667,-66.15000000000002L508.69676610000005,259.2L508.71575566666667,402.3L510.16592636666667,341.55L512.1356126333334,298.34999999999997L513.0068511,352.35L514.1702056666667,234.9L514.6722289666667,353.7L515.0443912,280.8L523.2071954666667,311.84999999999997L523.3281915666666,357.75L525.9489656666667,410.4L526.7631166,78.30000000000001L527.1924139,378L527.297011,-90.45000000000002L527.8994722333333,352.35L528.9803564666666,355.05L530.3783118,453.59999999999997L530.7570811666667,203.85000000000002L531.7764335,78.30000000000001L532.3559599,114.75000000000001L533.5484999333333,342.9L533.6872022,418.5L533.7070711333333,184.95000000000002L534.1052103333334,-21.60000000000001L537.3579638666666,317.25L537.6336572,477.9L541.0269430333334,-236.25L542.0982968333333,211.95L545.6838074666667,260.55L547.5791278333332,232.20000000000002L549.0750018333333,402.3L549.3394535333333,186.3L550.2228605333333,274.05L551.2175906,206.55L554.2139968666667,328.05L554.4379739333333,-125.54999999999997L554.5668368,328.05L555.9814525666667,56.70000000000001L557.8967607,207.9L561.1057360333333,257.85L561.3334444666667,-67.50000000000001L561.4510181666667,263.25L561.5536426333333,90.45000000000002L563.4427598999999,483.29999999999995L565.2189379666667,-41.85000000000002L566.8585765333333,186.3L568.8747504,287.55L569.5986117666666,9.450000000000008L570.6612194333334,284.85L571.0009877,396.90000000000003L571.2399615333334,299.7L572.1852094,91.80000000000001L574.7197342666667,298.34999999999997L575.1798094,259.2L575.4804815,166.05L578.6846084333333,313.2L578.7238472,-43.20000000000002L578.8907129666667,291.6L578.979529,220.04999999999998L579.3265461,-53.99999999999998L579.7809885333334,365.85L582.9501784666667,-29.699999999999978L585.2806189666667,286.2L586.6207024666667,314.55L588.6218795666666,-6.749999999999976L588.7286156666667,365.85L591.3875828,124.20000000000002L593.3358552999999,-45.900000000000006L594.6101051333333,95.85L596.3406512,-63.450000000000024L597.1371910333334,264.59999999999997L597.5326208333333,328.05L599.6737123,174.15L599.7415423666666,332.1L601.0323575666666,183.60000000000002L603.0099106,338.85L603.5010012333333,298.34999999999997L604.0850433,203.85000000000002L609.5629747666667,205.20000000000002L610.1100596666666,244.34999999999997L611.0118145333333,275.40000000000003L611.5011226666667,183.60000000000002L611.8227807333333,365.85L613.4809810666667,517.05L613.5913534666666,-87.75000000000003L613.9598318666667,271.35L614.3760812666667,228.15000000000003L617.6644135,217.35L622.5711368999999,257.85L624.0872363333333,-43.20000000000002L625.0082659666666,315.90000000000003L625.3137389333334,240.29999999999998L625.8242469333334,301.05L626.3142442999999,-5.399999999999981L627.8903070333333,164.7L630.4578675666667,-152.54999999999995L630.5542889333333,-178.20000000000005L631.5720251333333,352.35L632.3485296666666,184.95000000000002L632.8516462333333,-47.25L632.9114431666667,-303.75L635.4851830333333,36.449999999999996L636.9745211999999,37.79999999999999L637.7917855666667,-125.54999999999997L640.9637799666666,348.3L641.0884836666667,299.7L641.5875836666667,418.5L641.6546056666667,-153.90000000000003L641.7687094333334,230.85000000000002L641.9366684666667,-13.500000000000036L642.6443447333334,86.39999999999999L643.6455393333333,265.95L644.1297851666667,44.55000000000001L646.3358784666666,313.2L648.3987300666666,369.9L648.5187042,-83.70000000000005L650.2193280333333,-31.049999999999972L651.3941381333334,203.85000000000002L653.6607651333334,338.85L654.4535023,206.55L659.0758813,-76.94999999999997L659.4538188333333,299.7L659.6098707666666,334.8L659.8258147,26.99999999999999L660.2567994333334,194.39999999999998L661.8377343333334,25.64999999999999L661.8873591333333,179.54999999999998L663.5394039,56.70000000000001L665.8409916666667,-129.59999999999997L666.8035416666667,309.15L673.2448312,338.85L673.9015755,257.85L675.2870771,-8.099999999999971L675.5651946333334,292.95L675.9930897,309.15L677.8053218,124.20000000000002L679.1091373666667,180.89999999999998L679.4606701333333,17.54999999999998L680.1022275333333,172.8L682.1731835666666,311.84999999999997L682.2351195,-120.14999999999999L683.1996659,54.00000000000002L684.5562197,36.449999999999996L685.9056435,352.35L691.2688770333333,172.8L692.7505148,406.34999999999997L693.4421010333334,-29.699999999999978L697.6184034666667,286.2L698.40489,228.15000000000003L701.7188427,14.849999999999989L702.1809855333333,-120.14999999999999L702.9122383333333,-4.049999999999986L703.2525056999999,221.39999999999998L707.7739239,288.9L708.9042903333333,41.85000000000002L709.7842749333333,278.1L711.9137682666667,352.35L711.9510581666666,-160.65L714.6109522,129.6L717.1406761999999,-225.45000000000005L717.1996413,275.40000000000003L718.7697386000001,376.65L718.8599331,-39.15000000000003L731.2439825666667,-280.8L735.4009627,186.3L740.0160928666667,352.35L741.7948139666667,203.85000000000002L742.6833308,303.75L742.7787064333334,217.35L743.2805633666667,245.70000000000002L746.4147212333334,-79.64999999999996L749.2294788666666,325.35L749.6134293666667,218.7L750.8449942666666,102.60000000000001L752.8341454333333,248.4L753.2291712,194.39999999999998L754.2050543,274.05L754.3878675,305.1L756.0274109999999,-20.25000000000001L759.4047731666666,-139.05L761.1038046333333,18.900000000000016L763.2106958666666,52.64999999999998L764.8922350666667,-109.35000000000004L769.0205288333334,-102.59999999999997L770.2276853666666,259.2L770.9081963333333,409.04999999999995L774.9858433333334,58.050000000000004L776.0657056,369.9L776.4374875666667,342.9L777.1742067,-76.94999999999997L777.668387,-94.5L777.9762128666666,6.750000000000018L778.0333241666666,55.350000000000016L779.1492642333334,311.84999999999997L780.7716006666667,352.35L781.2494295,-264.59999999999997L783.3825591333333,329.4L783.6635049,-199.79999999999995L783.9765356666667,245.70000000000002L785.6264652000001,338.85L788.6299777,395.55L788.9020822666666,205.20000000000002L789.1536286666666,25.64999999999999L789.4031548999999,-155.25000000000003L790.2146677333334,302.40000000000003L793.1934629,271.35L793.9368842333334,279.45L794.3021779,359.09999999999997L794.3480000333333,286.2L796.4422949333334,338.85L797.6788983666668,257.85L801.2363881,155.25L802.2701905666667,167.4L802.4025233666666,-90.45000000000002L803.9974805999999,86.39999999999999L805.5623967666667,284.85L807.1935031,195.74999999999997L808.9673282666668,244.34999999999997L808.9887658,257.85L811.8152166333333,41.85000000000002L813.3898296,353.7L814.5658042666668,58.050000000000004L814.9760169333334,-52.64999999999998L815.8740166666666,-295.65000000000003L817.1682542666666,32.40000000000001L817.7337108,211.95L818.2547474333334,286.2L822.8989442333333,-130.95000000000005L824.6055810333334,49.94999999999999L826.6974992666667,265.95L826.7922094333334,-126.89999999999996L827.0426863333333,284.85L828.9261471333333,155.25L829.4051167666667,-49.94999999999999L831.9311331666667,86.39999999999999L832.6573712,275.40000000000003L836.6845853333334,1.3499999999999952L837.6203740666667,221.39999999999998L837.8479161333333,313.2L839.6047481333333,97.19999999999999L841.7740506333333,-40.50000000000002L842.7104573,338.85L843.8535864333334,311.84999999999997L845.4053121000001,340.2L848.1534992999999,301.05L848.6813332,-178.20000000000005L852.6617745333334,110.69999999999999L855.2377484666667,270L855.4718739,311.84999999999997L857.0984170333332,17.54999999999998L857.7211749999999,230.85000000000002L859.3025139333333,-95.85L860.1605619,244.34999999999997L860.5256892000001,62.09999999999999L865.3297881333334,103.95L865.4103333666667,-51.29999999999998L867.2315492666667,-128.24999999999997L868.0243102,179.54999999999998L870.6419946333334,261.9L870.6936158333333,291.6L870.9399811,333.45L874.9566190666667,313.2L875.1443995000001,295.65L879.1721365,298.34999999999997L880.6896144,298.34999999999997L881.9119578333334,317.25L883.4421271333333,313.2L884.2589399333333,-85.05000000000004L885.9630812333334,9.450000000000008L888.0885817666667,112.04999999999998L889.6337716,286.2L890.0695572,217.35L891.0721778000001,28.349999999999984L891.2384256333333,226.79999999999998L894.4723322,67.50000000000001L894.6839268333333,367.2L895.2358363666666,232.20000000000002L895.8712382,302.40000000000003L896.3677238666667,-10.799999999999962L897.1126900333334,163.35L899.5960928,340.2L899.8703839000001,134.99999999999997L900.6019456666667,-334.8L902.2250426333334,298.34999999999997L902.5426603666667,356.4L902.9210494666665,365.85L906.2411814999999,324L907.5605879999999,166.05L907.8810339666666,417.15000000000003L907.9379076,352.35L908.0717139333334,193.04999999999998L909.2398931333333,252.45000000000002L910.0911200666667,353.7L910.5692816333334,179.54999999999998L912.7174080333334,-74.24999999999999L918.2377154666666,271.35L920.4176654333334,379.35L920.7889720666667,51.29999999999998L922.1813422333333,257.85L924.8895301333334,248.4L926.0895566666666,136.35000000000002L926.7876549666667,284.85L927.4973276333333,298.34999999999997L927.7218513333333,136.35000000000002L927.8915691,305.1L928.1131695,379.35L929.2549677000001,149.85000000000002L932.5307036,302.40000000000003L935.0909202333332,16.199999999999985L936.0626679333334,363.15000000000003L938.0280762,71.55L938.6790451999999,270L939.7449564333334,394.20000000000005L940.7230498333334,340.2L942.2573307666665,298.34999999999997L946.2661495000001,170.1L946.8871725,311.84999999999997L947.7785175666667,176.85L948.8007219,284.85L948.9237619333334,298.34999999999997L949.1570555333333,-76.94999999999997L950.968741,110.69999999999999L951.0450557666667,342.9L954.0436960999999,329.4L954.6215350666666,329.4L955.0648071666666,233.55L955.5228859,170.1L956.1365412333332,-102.59999999999997L956.7453244,-129.59999999999997L957.2289047666667,287.55L957.7569050333334,403.65L962.4025991333334,340.2L963.3330166000001,186.3L964.6358101999999,386.09999999999997L971.7891966,248.4L972.1417038,170.1L973.5256843333333,207.9L974.8176641,355.05L978.7032526666667,-98.54999999999998L980.4197764,376.65L980.4425686333333,365.85L980.7510599666667,353.7L980.8034179333333,-282.15L983.0226779666666,63.44999999999998L984.7884937666666,284.85L985.3523104,398.25L986.0784058333332,217.35L987.0893447666667,352.35L990.9057723333333,182.24999999999997L992.1538550666667,112.04999999999998L993.4485679999999,368.55L993.7192465666667,109.35L996.9626360333333,344.25L997.4188372,70.2L997.5407126666665,446.85L997.9177232999999,178.2L998.3176450000001,284.85L1005.9506664999999,-2.6999999999999904L1006.1510670333333,314.55L1007.3345995000001,95.85L1007.3614320666667,311.84999999999997L1008.9281545000001,353.7L1009.6530616,341.55L1010.4406176333333,-66.15000000000002L1010.5556245333333,367.2L1010.6261164666666,338.85L1011.2490170333334,26.99999999999999L1015.0149642,383.4L1016.9314844333334,209.25L1017.4605304333334,183.60000000000002L1020.0842753666667,257.85L1022.4112934666666,311.84999999999997L1022.5476666000001,311.84999999999997L1024.9891925,383.4L1027.9966265,365.85L1028.2930681333332,230.85000000000002L1028.9554451333333,103.95L1031.7582719,-317.24999999999994L1032.7345115,217.35L1034.0493310333334,338.85L1036.1161754333334,284.85L1038.0798487333334,325.35L1039.3747993333334,261.9L1039.9412540666667,338.85L1040.9289729666666,348.3L1041.5652304,140.4L1041.7881617333333,298.34999999999997L1042.0411816666667,249.75L1042.0856966333333,298.34999999999997L1042.1300214666667,361.8L1042.5855571666668,284.85L1044.0816926,259.2L1044.8741683333333,-18.900000000000016L1045.7332145,338.85L1046.7978661,13.499999999999995L1047.5668841333334,279.45L1048.5677697666667,-164.7L1049.8685194333334,211.95L1054.4189092,365.85L1056.4710420333333,-233.55L1057.1776725666666,122.84999999999998L1057.5381416,286.2L1058.9607905,353.7L1059.7238431,232.20000000000002L1060.5721229666667,-117.45L1060.8327244666666,336.15L1062.1569318333334,33.75000000000001L1062.6390149000001,176.85L1064.0732857,-41.85000000000002L1070.2002135333332,405L1071.2206353666666,325.35L1072.7880945666666,-109.35000000000004L1073.0021133999999,242.99999999999997L1076.4487554,221.39999999999998L1076.9831964333334,284.85L1078.2878913666666,342.9L1080.4926299666665,282.15L1080.7466718666667,365.85L1086.0838571333334,29.70000000000002L1087.7065500666668,-207.9L1088.5338202,33.75000000000001L1090.4802864333333,203.85000000000002L1090.5225198,386.09999999999997L1090.8325559666666,-197.09999999999997L1091.0160584,274.05L1091.5640464333333,0L1093.2562568666667,54.00000000000002L1093.5052602333333,-112.05000000000003L1094.5775171666667,90.45000000000002L1098.4066599,328.05L1099.0297981333333,344.25L1099.1130052333333,52.64999999999998L1099.1872998333333,301.05L1099.4889226,-79.64999999999996L1099.8688327666666,284.85L1100.4378543,197.09999999999997L1100.6223549333333,-36.45000000000004L1100.7194892999999,292.95L1102.2250838666666,260.55L1104.2514536333333,-62.10000000000003L1104.6545600666668,14.849999999999989L1104.9211983,5.399999999999981L1105.7967860666668,-93.15L1107.3742748,264.59999999999997L1107.6728554333333,257.85L1108.2594167666666,257.85L1113.1599608333333,356.4L1116.8615716333334,365.85L1117.6908619333333,207.9L1117.7628749333335,367.2L1118.8555474333334,280.8L1119.2029923333332,272.7L1120.3135611333335,352.35L1121.3956812333333,48.599999999999994L1122.2270154666667,432L1124.5667012,318.6L1126.1432868,-93.15L1126.3180668666666,298.34999999999997L1130.0617209,-90.45000000000002L1130.9124487333333,175.5L1131.2490085,117.45L1133.2576958666666,221.39999999999998L1133.4415548,311.84999999999997L1137.1010748333333,102.60000000000001L1143.3763066666668,286.2L1143.3953437666667,392.85L1143.8671834,6.750000000000018L1144.1256221333333,68.85000000000001L1145.2165834333334,368.55L1146.4567043333334,259.2L1147.3663735,113.40000000000002L1148.6263158000002,-66.15000000000002L1152.2037457666668,195.74999999999997L1153.4476455666666,118.8L1155.7345217666668,162L1156.7715802666667,338.85L1157.9592243666666,380.7L1158.4882703666667,18.900000000000016L1158.7605650666667,133.64999999999998L1162.1904278,190.35L1162.7377265999999,297L1163.8062284,244.34999999999997L1164.9174626666666,-457.65000000000003L1167.5488604666666,20.25000000000001L1168.5346067333332,1.3499999999999952L1168.5747011,-133.65000000000003L1173.4069635333333,51.29999999999998L1174.9860446333334,168.75L1175.8680494,-47.25L1178.0859309666666,271.35L1179.1388893666667,338.85L1179.5408787666668,284.85L1182.2530594666666,310.5L1182.7016553,295.65L1182.9986673333333,344.25L1183.1095863666667,229.50000000000003L1185.5841954666666,384.75L1188.2854910333333,286.2L1189.5730739666667,290.25L1190.8795514,392.85L1191.1344489,86.39999999999999L1191.7683296666667,257.85L1191.8357081666666,99.89999999999998L1192.4281636333333,330.75L1193.2119407666667,71.55L1194.1609675333334,-136.35000000000002L1196.003312,403.65L1196.0280055666665,284.85L1196.5820541,-12.150000000000041L1197.8957328333333,-75.59999999999998L1197.9200223666667,259.2L1198.3357964333334,360.45L1199.4219331,375.3L1200.5608317666668,72.89999999999999L1200.7619690666668,376.65L1201.7825810333334,-143.1L1203.1646364666667,357.75L1206.0767661333334,-36.45000000000004L1206.6318128666667,18.900000000000016L1208.1455594,384.75L1208.8729382333333,-58.04999999999996L1213.7925194,137.70000000000002L1213.9808702333332,284.85L1215.4316113333334,162L1216.2959099333334,2.6999999999999904L1217.3972572666667,28.349999999999984L1218.0525042666666,202.5L1220.1419745333333,-51.29999999999998L1220.9831957,251.10000000000002L1221.7953502333335,338.85L1221.9085271000001,-97.19999999999999L1222.0300223,329.4L1223.6297091,338.85L1223.6613663,180.89999999999998L1224.5439652333334,47.25L1227.5260164333333,20.25000000000001L1227.6133114,232.20000000000002L1228.3552829666667,-307.8L1229.8383467333333,-10.799999999999962L1230.8014671333333,85.05L1231.2847385333332,369.9L1233.6886655666667,-41.85000000000002L1235.0290580333333,272.7L1235.1778136,187.65L1235.3409004666667,338.85L1235.4806247000001,284.85L1236.1679091666667,194.39999999999998L1236.3484882999999,-21.60000000000001L1236.7807802,340.2L1236.8465425666666,-144.45L1237.4888367333333,318.6L1238.8808741666667,-55.34999999999997L1239.1762938333334,149.85000000000002L1239.285977,368.55L1242.3863386666667,299.7L1246.5664913,299.7L1247.5986301,-47.25L1248.0212964999998,178.2L1248.2929257333333,-78.29999999999997L1249.3741427,311.84999999999997L1249.6139483666668,302.40000000000003L1250.2435036,340.2L1250.7272741,338.85L1250.7496623,342.9L1251.8627503666667,379.35L1252.4087657666666,56.70000000000001L1252.7015711,-64.80000000000003L1252.9832061,311.84999999999997L1253.0976426,-24.299999999999997L1259.9997202666666,170.1L1260.1011801666666,91.80000000000001L1261.9618962666666,318.6L1262.7520190999999,-116.10000000000001L1262.8901985,-16.200000000000028L1265.0292222666667,49.94999999999999L1269.9074732,45.900000000000006L1270.5172308,-209.25L1271.7820928,206.55L1274.1144108666667,365.85L1274.4072637333334,-313.2L1274.6202606,286.2L1274.8111782333333,18.900000000000016L1275.3420780333333,-9.449999999999967L1275.6908776333332,330.75L1277.0248531,253.8L1277.6768915999999,356.4L1282.5064684,113.40000000000002L1283.9646246999998,68.85000000000001L1284.1802358999998,159.29999999999998L1285.3173996,351L1285.4282473333333,32.40000000000001L1287.2432363666667,-63.450000000000024L1289.4560318666665,394.20000000000005L1292.7336691,298.34999999999997L1293.1001986333333,64.79999999999998L1294.6133034666666,117.45L1295.7490411666668,-10.799999999999962L1298.3206420333333,-35.09999999999996L1300.9248745333332,166.05L1301.5530988333335,-248.40000000000003L1304.5862008333334,10.800000000000004L1305.1127988666667,328.05L1305.5405988666666,220.04999999999998L1306.9494393333332,533.25" style="fill: none;" fill="none"></path></g></g></g></g></g><g><g opacity="0.34019"><span fill="rgb(0, 0, 0)" stroke="none" stroke-width="1px">Alt + Scroll to Zoom</span></g></g></g><g transform="translate(70, 378)" clip-path="url(#clip_1)"><clipPath id="clip_1"><rect width="1426" height="22"></rect></clipPath><g><g><line x1="0" y1="0" x2="0" y2="5" style="visibility: inherit;" fill="rgb(0, 0, 0)" stroke="rgb(204, 204, 204)" stroke-width="1px"></line><line x1="118.83333333333333" y1="0" x2="118.83333333333333" y2="5" style="visibility: inherit;" fill="rgb(0, 0, 0)" stroke="rgb(204, 204, 204)" stroke-width="1px"></line><line x1="237.66666666666666" y1="0" x2="237.66666666666666" y2="5" style="visibility: inherit;" fill="rgb(0, 0, 0)" stroke="rgb(204, 204, 204)" stroke-width="1px"></line><line x1="356.5" y1="0" x2="356.5" y2="5" style="visibility: inherit;" fill="rgb(0, 0, 0)" stroke="rgb(204, 204, 204)" stroke-width="1px"></line><line x1="475.3333333333333" y1="0" x2="475.3333333333333" y2="5" style="visibility: inherit;" fill="rgb(0, 0, 0)" stroke="rgb(204, 204, 204)" stroke-width="1px"></line><line x1="594.1666666666667" y1="0" x2="594.1666666666667" y2="5" style="visibility: inherit;" fill="rgb(0, 0, 0)" stroke="rgb(204, 204, 204)" stroke-width="1px"></line><line x1="713" y1="0" x2="713" y2="5" style="visibility: inherit;" fill="rgb(0, 0, 0)" stroke="rgb(204, 204, 204)" stroke-width="1px"></line><line x1="831.8333333333334" y1="0" x2="831.8333333333334" y2="5" style="visibility: inherit;" fill="rgb(0, 0, 0)" stroke="rgb(204, 204, 204)" stroke-width="1px"></line><line x1="950.6666666666666" y1="0" x2="950.6666666666666" y2="5" style="visibility: inherit;" fill="rgb(0, 0, 0)" stroke="rgb(204, 204, 204)" stroke-width="1px"></line><line x1="1069.5" y1="0" x2="1069.5" y2="5" style="visibility: inherit;" fill="rgb(0, 0, 0)" stroke="rgb(204, 204, 204)" stroke-width="1px"></line><line x1="1188.3333333333335" y1="0" x2="1188.3333333333335" y2="5" style="visibility: inherit;" fill="rgb(0, 0, 0)" stroke="rgb(204, 204, 204)" stroke-width="1px"></line><line x1="1307.1666666666665" y1="0" x2="1307.1666666666665" y2="5" style="visibility: inherit;" fill="rgb(0, 0, 0)" stroke="rgb(204, 204, 204)" stroke-width="1px"></line><line x1="1426" y1="0" x2="1426" y2="5" style="visibility: inherit;" fill="rgb(0, 0, 0)" stroke="rgb(204, 204, 204)" stroke-width="1px"></line></g><g transform="translate(0, 8)"><text x="0" y="0" dx="0em" dy="0.95em" style="text-anchor: middle; visibility: hidden; font-family: Roboto, sans-serif; font-size: 12px; font-weight: 200;" fill="rgb(50, 49, 63)" stroke="none" stroke-width="1px">-5M</text><text x="118.83333333333333" y="0" dx="0em" dy="0.95em" style="text-anchor: middle; visibility: inherit; font-family: Roboto, sans-serif; font-size: 12px; font-weight: 200;" fill="rgb(50, 49, 63)" stroke="none" stroke-width="1px">0</text><text x="237.66666666666666" y="0" dx="0em" dy="0.95em" style="text-anchor: middle; visibility: inherit; font-family: Roboto, sans-serif; font-size: 12px; font-weight: 200;" fill="rgb(50, 49, 63)" stroke="none" stroke-width="1px">5M</text><text x="356.5" y="0" dx="0em" dy="0.95em" style="text-anchor: middle; visibility: inherit; font-family: Roboto, sans-serif; font-size: 12px; font-weight: 200;" fill="rgb(50, 49, 63)" stroke="none" stroke-width="1px">10M</text><text x="475.3333333333333" y="0" dx="0em" dy="0.95em" style="text-anchor: middle; visibility: inherit; font-family: Roboto, sans-serif; font-size: 12px; font-weight: 200;" fill="rgb(50, 49, 63)" stroke="none" stroke-width="1px">15M</text><text x="594.1666666666667" y="0" dx="0em" dy="0.95em" style="text-anchor: middle; visibility: inherit; font-family: Roboto, sans-serif; font-size: 12px; font-weight: 200;" fill="rgb(50, 49, 63)" stroke="none" stroke-width="1px">20M</text><text x="713" y="0" dx="0em" dy="0.95em" style="text-anchor: middle; visibility: inherit; font-family: Roboto, sans-serif; font-size: 12px; font-weight: 200;" fill="rgb(50, 49, 63)" stroke="none" stroke-width="1px">25M</text><text x="831.8333333333334" y="0" dx="0em" dy="0.95em" style="text-anchor: middle; visibility: inherit; font-family: Roboto, sans-serif; font-size: 12px; font-weight: 200;" fill="rgb(50, 49, 63)" stroke="none" stroke-width="1px">30M</text><text x="950.6666666666666" y="0" dx="0em" dy="0.95em" style="text-anchor: middle; visibility: inherit; font-family: Roboto, sans-serif; font-size: 12px; font-weight: 200;" fill="rgb(50, 49, 63)" stroke="none" stroke-width="1px">35M</text><text x="1069.5" y="0" dx="0em" dy="0.95em" style="text-anchor: middle; visibility: inherit; font-family: Roboto, sans-serif; font-size: 12px; font-weight: 200;" fill="rgb(50, 49, 63)" stroke="none" stroke-width="1px">40M</text><text x="1188.3333333333335" y="0" dx="0em" dy="0.95em" style="text-anchor: middle; visibility: inherit; font-family: Roboto, sans-serif; font-size: 12px; font-weight: 200;" fill="rgb(50, 49, 63)" stroke="none" stroke-width="1px">45M</text><text x="1307.1666666666665" y="0" dx="0em" dy="0.95em" style="text-anchor: middle; visibility: inherit; font-family: Roboto, sans-serif; font-size: 12px; font-weight: 200;" fill="rgb(50, 49, 63)" stroke="none" stroke-width="1px">50M</text><text x="1426" y="0" dx="0em" dy="0.95em" style="text-anchor: middle; visibility: hidden; font-family: Roboto, sans-serif; font-size: 12px; font-weight: 200;" fill="rgb(50, 49, 63)" stroke="none" stroke-width="1px">55M</text></g><line x1="0" y1="0" x2="1426" y2="0" fill="rgb(0, 0, 0)" stroke="rgb(204, 204, 204)" stroke-width="1px"></line></g></g></g></g></svg>