<svg viewBox="0 0 718 400" xmlns="http://www.w3.org/2000/svg"><g><g><g><g><g><line x1="70" y1="378" x2="65" y2="378" style="visibility: inherit;" fill="rgb(0, 0, 0)" stroke="rgb(204, 204, 204)" stroke-width="1px"></line><line x1="70" y1="340.2" x2="65" y2="340.2" style="visibility: inherit;" fill="rgb(0, 0, 0)" stroke="rgb(204, 204, 204)" stroke-width="1px"></line><line x1="70" y1="302.40000000000003" x2="65" y2="302.40000000000003" style="visibility: inherit;" fill="rgb(0, 0, 0)" stroke="rgb(204, 204, 204)" stroke-width="1px"></line><line x1="70" y1="264.59999999999997" x2="65" y2="264.59999999999997" style="visibility: inherit;" fill="rgb(0, 0, 0)" stroke="rgb(204, 204, 204)" stroke-width="1px"></line><line x1="70" y1="226.79999999999998" x2="65" y2="226.79999999999998" style="visibility: inherit;" fill="rgb(0, 0, 0)" stroke="rgb(204, 204, 204)" stroke-width="1px"></line><line x1="70" y1="189" x2="65" y2="189" style="visibility: inherit;" fill="rgb(0, 0, 0)" stroke="rgb(204, 204, 204)" stroke-width="1px"></line><line x1="70" y1="151.20000000000002" x2="65" y2="151.20000000000002" style="visibility: inherit;" fill="rgb(0, 0, 0)" stroke="rgb(204, 204, 204)" stroke-width="1px"></line><line x1="70" y1="113.40000000000002" x2="65" y2="113.40000000000002" style="visibility: inherit;" fill="rgb(0, 0, 0)" stroke="rgb(204, 204, 204)" stroke-width="1px"></line><line x1="70" y1="75.59999999999998" x2="65" y2="75.59999999999998" style="visibility: inherit;" fill="rgb(0, 0, 0)" stroke="rgb(204, 204, 204)" stroke-width="1px"></line><line x1="70" y1="37.80000000000003" x2="65" y2="37.80000000000003" style="visibility: inherit;" fill="rgb(0, 0, 0)" stroke="rgb(204, 204, 204)" stroke-width="1px"></line><line x1="70" y1="0" x2="65" y2="0" style="visibility: inherit;" fill="rgb(0, 0, 0)" stroke="rgb(204, 204, 204)" stroke-width="1px"></line></g><g transform="translate(60, 0)"><text x="0" y="378" dx="0em" dy="0.3em" style="text-anchor: end; visibility: hidden; font-family: Roboto, sans-serif; font-size: 12px; font-weight: 200;" fill="rgb(50, 49, 63)" stroke="none" stroke-width="1px">0</text><text x="0" y="340.2" dx="0em" dy="0.3em" style="text-anchor: end; visibility: inherit; font-family: Roboto, sans-serif; font-size: 12px; font-weight: 200;" fill="rgb(50, 49, 63)" stroke="none" stroke-width="1px">5e-4</text><text x="0" y="302.40000000000003" dx="0em" dy="0.3em" style="text-anchor: end; visibility: inherit; font-family: Roboto, sans-serif; font-size: 12px; font-weight: 200;" fill="rgb(50, 49, 63)" stroke="none" stroke-width="1px">1e-3</text><text x="0" y="264.59999999999997" dx="0em" dy="0.3em" style="text-anchor: end; visibility: inherit; font-family: Roboto, sans-serif; font-size: 12px; font-weight: 200;" fill="rgb(50, 49, 63)" stroke="none" stroke-width="1px">1.5e-3</text><text x="0" y="226.79999999999998" dx="0em" dy="0.3em" style="text-anchor: end; visibility: inherit; font-family: Roboto, sans-serif; font-size: 12px; font-weight: 200;" fill="rgb(50, 49, 63)" stroke="none" stroke-width="1px">2e-3</text><text x="0" y="189" dx="0em" dy="0.3em" style="text-anchor: end; visibility: inherit; font-family: Roboto, sans-serif; font-size: 12px; font-weight: 200;" fill="rgb(50, 49, 63)" stroke="none" stroke-width="1px">2.5e-3</text><text x="0" y="151.20000000000002" dx="0em" dy="0.3em" style="text-anchor: end; visibility: inherit; font-family: Roboto, sans-serif; font-size: 12px; font-weight: 200;" fill="rgb(50, 49, 63)" stroke="none" stroke-width="1px">3e-3</text><text x="0" y="113.40000000000002" dx="0em" dy="0.3em" style="text-anchor: end; visibility: inherit; font-family: Roboto, sans-serif; font-size: 12px; font-weight: 200;" fill="rgb(50, 49, 63)" stroke="none" stroke-width="1px">3.5e-3</text><text x="0" y="75.59999999999998" dx="0em" dy="0.3em" style="text-anchor: end; visibility: inherit; font-family: Roboto, sans-serif; font-size: 12px; font-weight: 200;" fill="rgb(50, 49, 63)" stroke="none" stroke-width="1px">4e-3</text><text x="0" y="37.80000000000003" dx="0em" dy="0.3em" style="text-anchor: end; visibility: inherit; font-family: Roboto, sans-serif; font-size: 12px; font-weight: 200;" fill="rgb(50, 49, 63)" stroke="none" stroke-width="1px">4.5e-3</text><text x="0" y="0" dx="0em" dy="0.3em" style="text-anchor: end; visibility: hidden; font-family: Roboto, sans-serif; font-size: 12px; font-weight: 200;" fill="rgb(50, 49, 63)" stroke="none" stroke-width="1px">5e-3</text></g><line x1="70" y1="0" x2="70" y2="378" fill="rgb(0, 0, 0)" stroke="rgb(204, 204, 204)" stroke-width="1px"></line></g></g><g transform="translate(70, 0)" clip-path="url(#clip_0)"><clipPath id="clip_0"><rect width="648" height="378"></rect></clipPath><g><g><g><line x1="0" y1="0" x2="0" y2="378" fill="rgb(0, 0, 0)" stroke="rgb(60, 60, 60)" stroke-width="1px" opacity="0.25"></line><line x1="54" y1="0" x2="54" y2="378" fill="rgb(0, 0, 0)" stroke="rgb(60, 60, 60)" stroke-width="1px" opacity="0.25"></line><line x1="108" y1="0" x2="108" y2="378" fill="rgb(0, 0, 0)" stroke="rgb(60, 60, 60)" stroke-width="1px" opacity="0.25"></line><line x1="162" y1="0" x2="162" y2="378" fill="rgb(0, 0, 0)" stroke="rgb(60, 60, 60)" stroke-width="1px" opacity="0.25"></line><line x1="216" y1="0" x2="216" y2="378" fill="rgb(0, 0, 0)" stroke="rgb(60, 60, 60)" stroke-width="1px" opacity="0.25"></line><line x1="270" y1="0" x2="270" y2="378" fill="rgb(0, 0, 0)" stroke="rgb(60, 60, 60)" stroke-width="1px" opacity="0.25"></line><line x1="324" y1="0" x2="324" y2="378" fill="rgb(0, 0, 0)" stroke="rgb(60, 60, 60)" stroke-width="1px" opacity="0.25"></line><line x1="378" y1="0" x2="378" y2="378" fill="rgb(0, 0, 0)" stroke="rgb(60, 60, 60)" stroke-width="1px" opacity="0.25"></line><line x1="432" y1="0" x2="432" y2="378" fill="rgb(0, 0, 0)" stroke="rgb(60, 60, 60)" stroke-width="1px" opacity="0.25"></line><line x1="486" y1="0" x2="486" y2="378" fill="rgb(0, 0, 0)" stroke="rgb(60, 60, 60)" stroke-width="1px" opacity="0.25"></line><line x1="540" y1="0" x2="540" y2="378" fill="rgb(0, 0, 0)" stroke="rgb(60, 60, 60)" stroke-width="1px" opacity="0.25"></line><line x1="594" y1="0" x2="594" y2="378" fill="rgb(0, 0, 0)" stroke="rgb(60, 60, 60)" stroke-width="1px" opacity="0.25"></line><line x1="648" y1="0" x2="648" y2="378" fill="rgb(0, 0, 0)" stroke="rgb(60, 60, 60)" stroke-width="1px" opacity="0.25"></line></g><g><line x1="0" y1="378" x2="648" y2="378" fill="rgb(0, 0, 0)" stroke="rgb(60, 60, 60)" stroke-width="1px" opacity="0.25"></line><line x1="0" y1="340.2" x2="648" y2="340.2" fill="rgb(0, 0, 0)" stroke="rgb(60, 60, 60)" stroke-width="1px" opacity="0.25"></line><line x1="0" y1="302.40000000000003" x2="648" y2="302.40000000000003" fill="rgb(0, 0, 0)" stroke="rgb(60, 60, 60)" stroke-width="1px" opacity="0.25"></line><line x1="0" y1="264.59999999999997" x2="648" y2="264.59999999999997" fill="rgb(0, 0, 0)" stroke="rgb(60, 60, 60)" stroke-width="1px" opacity="0.25"></line><line x1="0" y1="226.79999999999998" x2="648" y2="226.79999999999998" fill="rgb(0, 0, 0)" stroke="rgb(60, 60, 60)" stroke-width="1px" opacity="0.25"></line><line x1="0" y1="189" x2="648" y2="189" fill="rgb(0, 0, 0)" stroke="rgb(60, 60, 60)" stroke-width="1px" opacity="0.25"></line><line x1="0" y1="151.20000000000002" x2="648" y2="151.20000000000002" fill="rgb(0, 0, 0)" stroke="rgb(60, 60, 60)" stroke-width="1px" opacity="0.25"></line><line x1="0" y1="113.40000000000002" x2="648" y2="113.40000000000002" fill="rgb(0, 0, 0)" stroke="rgb(60, 60, 60)" stroke-width="1px" opacity="0.25"></line><line x1="0" y1="75.59999999999998" x2="648" y2="75.59999999999998" fill="rgb(0, 0, 0)" stroke="rgb(60, 60, 60)" stroke-width="1px" opacity="0.25"></line><line x1="0" y1="37.80000000000003" x2="648" y2="37.80000000000003" fill="rgb(0, 0, 0)" stroke="rgb(60, 60, 60)" stroke-width="1px" opacity="0.25"></line><line x1="0" y1="0" x2="648" y2="0" fill="rgb(0, 0, 0)" stroke="rgb(60, 60, 60)" stroke-width="1px" opacity="0.25"></line></g></g></g><g><g><line x1="0" y1="378" x2="648" y2="378" fill="rgb(0, 0, 0)" stroke="rgb(153, 153, 153)" stroke-width="1.5px"></line></g></g><g><g><line x1="54" y1="0" x2="54" y2="378" fill="rgb(0, 0, 0)" stroke="rgb(153, 153, 153)" stroke-width="1.5px"></line></g></g><g><g><g><g><g><path stroke="rgb(255, 112, 67)" stroke-width="2px" d="M54.561751199999996,-181.34093613177538L54.9963432,42.33782842276354L56.7510732,133.2810187882963L56.990066399999996,162.70558042610216L57.567650400000005,200.45154724402974L58.166348400000004,-80.61276435846462L58.9448772,49.43310858980232L59.7160188,64.60649319148266L61.682256,149.86547144094055L62.7171876,187.18148188882276L62.745354000000006,206.50723360562216L63.359290800000004,223.30400367666286L63.474472799999994,77.68538085146876L63.5765544,4.6237736423038545L63.83810879999999,59.42548973743217L65.2018464,-216.91050988868366L65.8570284,-11.385328236039513L67.2926832,30.098777055045886L67.83440039999999,-49.31359365058435L69.1342452,87.5568304497635L69.57144000000001,42.85870557856346L69.6089268,58.52728151593001L69.639048,100.77086268933115L69.8091696,179.94492488974018L70.3802196,8.270284539899501L70.419618,131.21637620120333L70.8414336,204.71834928798413L71.6198004,231.7549201744525L72.2507148,195.36514571999413L72.5221836,164.55036452259463L73.8092628,110.65460062660337L76.039344,176.64675120772884L76.0824468,-172.74731389542362L76.2964164,-7.262194125308721L77.0615748,93.71842894703839L78.0807492,146.49650777059716L78.8319972,181.98889545318096L79.112592,171.51953949104933L80.5101444,202.38810867652245L80.5502124,210.38973369885073L80.8392204,19.43360207342058L81.05387040000001,94.59358424423633L81.8421948,140.12906019105074L81.9563508,-109.9281064951594L81.97524,48.413608957990014L82.0896444,82.10721208061771L82.1018808,118.5805569469239L82.5416568,145.9521060188423L83.3797044,172.42366331529405L83.63921760000001,150.07632124990744L84.2921748,145.42114252191283L84.43521,190.09471656813832L85.0318668,251.39397966603084L85.647888,206.03181700251565L85.7235312,236.0007310500336L86.54319720000001,149.72151041271667L86.6020788,114.76309627140705L86.6212164,184.65442677942346L86.8452408,218.3443583181953L87.8329332,240.4043231208004L88.1076096,282.25687216681297L88.353774,244.15441699601425L88.4003328,149.2344673113653L88.4805336,152.09165307650738L88.74256319999999,187.34969528627263L89.4189456,226.78606699622793L89.52534720000001,253.42835866789298L89.5619916,240.77502459514307L89.7109992,223.83730739193058L90.1964268,271.864927727502L90.27369,213.46609892011963L91.7906364,228.99042397625018L92.2578984,-4.17477117844361L92.93195879999999,94.3328773387197L93.2276844,96.87054937231083L94.04484479999999,65.2698842564079L94.4588736,-30.555744643279734L95.28069959999999,118.1645735135562L95.8260132,105.23717318361325L95.90445360000001,197.3540272664894L96.6230532,87.63634245406804L97.06463280000001,110.94305938667785L97.8675804,191.57626133076388L97.9827516,243.65987846128365L98.23645439999999,235.1981594316496L98.3339352,261.51334206997353L98.5444812,253.5790614201963L99.26093159999999,257.13784440543293L100.32381360000001,270.01202195099614L101.245626,292.6605714482762L102.1674276,264.62771004871706L102.42043919999999,295.73752603492846L103.4180568,-66.39858848713814L104.495454,40.61400070868153L104.7765996,76.52872438479793L105.278454,-266.26988782138034L105.4351728,-163.98267688840875L105.50862359999999,41.52104175357379L105.8259276,143.4833708339534L105.85364039999999,198.07420322350274L105.9660576,204.20466883362295L106.7909184,220.2356985383091L107.7822072,268.24173286916954L108.93691079999999,297.553848748205L109.1639916,298.0211575745331L109.2271932,300.55186309255885L109.3276764,312.43457438327505L109.3718268,292.8190409542777L109.6087464,307.9185773716365L109.94442120000001,226.04201213932004L109.9996416,262.5373192577271L110.3873724,256.41246808461597L111.24324,279.7863062613741L111.4128972,104.92187913319677L112.221828,195.86666309795507L112.26707999999999,60.759067913661745L113.0033592,80.3145785932364L113.0815728,180.34377049309742L113.38688880000001,251.67358370924134L114.0724404,264.99714473592724L114.61926600000001,250.90063824777295L116.66590919999999,285.7142613658279L116.7513156,238.3216041269284L116.7630444,288.01240243214414L117.4253652,305.8210004233452L118.2138408,298.9276207387824L120.8913984,319.0430201780277L121.06056960000001,330.0860572755845L122.8528512,332.37923694628546L123.9365124,340.3007393999581L124.15970519999999,320.12693942330384L124.3460268,285.2247821889347L124.5554172,300.2769254383908L124.66270440000001,292.65996659546886L125.2229976,311.17174540199215L125.3998044,314.5866820587956L127.1784132,333.81294237799153L127.304568,347.5377858458561L128.5403688,343.9631884904863L129.08302559999998,276.8484958149291L129.3065964,283.33996168299296L129.89887919999998,267.09153163298237L130.2767172,281.44994996407195L130.3417008,230.55656493853667L131.5650384,139.30841704101047L132.5336256,170.568460296933L133.26918120000002,243.26488355124394L134.181036,284.12142867825565L134.571132,269.67638305265984L134.8335288,298.1401638835775L134.8844292,124.20882192850755L135.4374216,208.35460081458478L135.4943592,229.95050990885727L135.9992052,262.80418009717005L136.2583944,296.2927248321622L136.4019372,312.95720538900196L136.93237919999999,246.83146152440247L137.5260228,238.6103255855652L138.751488,264.299133532203L138.79740959999998,294.5518766353767L138.9638376,319.29126864993515L139.5340452,332.66352039414755L140.2290144,339.53584959596765L140.6268108,339.9429305213861L141.8370372,303.58974657316037L142.8841836,316.52069769678434L143.068194,316.10913088174414L143.670402,327.8459434345469L144.6895872,327.06568076782554L145.4845968,314.0025253501423L146.78441999999998,223.93164170425462L146.8956168,176.88310295129614L146.9464848,252.3851713560733L147.4102692,287.8059918659307L148.24107,306.5162735593991L148.8498012,293.0949316762493L149.1730344,305.4201200182799L149.3508132,267.05443516526003L149.554188,274.9918705241584L149.6546388,304.6085992118986L150.5375388,327.5708628381802L152.2902492,320.5288662767716L153.3037968,335.1557931268622L154.0390716,336.58136335250197L154.314882,340.26208998180306L155.1332844,340.91413805248965L155.695986,339.10154938764947L155.96438759999998,338.0110144105111L156.2355756,319.72372429067224L156.4900344,330.2490612644364L156.9696192,130.15647560229357L157.0415688,196.8667196668414L157.169916,257.8114424178214L157.3663464,295.508078706143L159.235146,255.9736373376117L160.5677472,248.81715897403754L160.788402,52.25156137754079L161.1007488,168.5213005924795L161.9207496,244.17716038172384L162.3751704,290.0063617567044L163.4924196,298.56891575767526L163.54206720000002,228.61705208756882L163.80469079999997,272.37293821983553L164.3151636,299.74378480039843L164.5877772,205.52256025685554L165.20081760000002,258.6474484045129L165.7618236,236.31782818817024L166.23387,261.7082805915649L166.5569844,280.3086487425253L167.26503240000002,302.4282740792862L167.3065368,315.5663973207016L167.7179736,313.3340797015869L168.4724292,333.8305477331262L169.6275216,330.1440932291854L169.7461596,326.48003820035507L170.1185328,332.9537551374206L170.32386240000002,262.9580875468831L170.4480624,293.6694675811429L170.53627680000002,308.62610244472614L170.537724,327.1393851215082L170.6014116,327.8122451141141L170.8779888,326.4176777636804L170.9243964,338.8511336813597L171.40403519999998,281.08189522744584L172.0618524,306.4084487489767L172.9830816,297.1487308461611L173.73199680000002,296.697880461463L174.4354332,301.5184626122705L174.45945239999998,307.6343764437224L175.4541108,299.9386024116269L175.46361480000002,323.1648000829691L178.8588,313.3337113680407L179.1103212,170.12759932112488L179.5002444,231.39177183945054L179.8709544,136.8221021451895L179.91778319999997,219.0883311688286L181.0316196,270.8319536359985L181.1401812,300.929953321405L181.61856719999997,316.09411710327134L182.7980352,-48.621839637605746L183.8024676,83.39059099701143L183.87442800000002,187.37524650780614L184.339044,209.30438641779574L185.0961132,204.1510624204454L185.16062159999998,265.2368842714654L185.705082,180.77876170597236L185.7322872,231.69569882525062L186.22433519999998,247.17657701163327L187.0252524,265.1802502750685L187.6424616,301.4920942068818L187.745418,325.47334929645643L188.1487548,328.42207626530876L189.35424,303.58071246686194L189.76688639999998,325.8617350366271L189.76739400000002,318.4553420718942L189.8348724,316.11953197428187L190.0282032,334.1146497449419L190.7540928,275.410772575208L190.83439080000002,291.9122672595939L191.5079328,277.81388190200096L192.2274936,301.28469660914044L193.26006,313.65938339105907L193.4825292,326.74329019246494L193.5217764,336.8537825703725L193.5978624,344.89122439161565L193.6231668,57.82492921194808L193.7271816,163.42046416143404L194.43406320000003,222.99498755426603L194.45074920000002,275.0573087170953L195.0701076,307.91581010320687L195.17524559999998,327.92752306069525L196.00188839999998,309.27053578141687L196.0308324,-639.2069412503043L196.71460199999999,-5.092193036200002L196.7874588,117.19774431129014L197.1182304,199.21361644388568L198.7804152,199.77801356507138L198.91740240000001,232.7411218332815L199.2321792,279.2619291460554L199.4333076,309.6778874321157L199.6800228,331.7371109464168L199.7787024,336.33592880001066L199.9049976,306.5428754581833L200.8328472,324.7448755763515L203.09965920000002,338.7893360903513L203.4012168,329.07461751256295L204.48361440000002,285.9926882878179L204.9046956,295.6777375307819L205.2599184,315.4351793101961L205.479126,184.1565460158309L205.5371868,248.00893582976138L205.8496956,291.6532035213785L206.88051240000001,215.2910983781264L207.14545800000002,232.83908704937969L207.3735972,231.9113320530741L207.5095692,282.60734563671286L207.5429412,279.4388022242649L207.8440128,312.4931609880128L208.3022136,247.02181125886432L209.095722,284.2972436287683L209.64346559999998,315.1509946520213L210.2390856,320.8733836641958L210.9416904,337.28283210935746L211.421232,-9.849009476050416L211.4308872,132.52603998329062L211.52244960000002,222.55796367609247L212.474394,279.49983658667276L213.0767748,291.70787985936323L214.12330559999998,321.371376901883L214.381404,315.6004808083285L214.94653559999998,326.91834150799264L215.586036,313.3702623422334L216.9625392,321.6662674151593L217.4372424,322.52453678750896L217.88691120000001,333.7948587516183L219.8038896,334.24812316472736L221.6781864,337.7738100151369L222.2554248,331.2843109181612L223.231086,311.2297254703098L223.60580280000002,320.17390025267923L223.7629104,334.3660708903368L224.2852848,299.55054161483616L228.8664288,294.2692313241039L229.0239684,312.01639612411407L229.15097640000002,335.1411435942889L229.26058559999998,337.1933115655804L229.74654239999998,334.131272378765L229.9470552,257.11714094919114L230.1633252,275.67426533575144L230.46367320000002,273.4997019764798L231.6369528,280.5883352523755L231.9819696,298.73917872179805L232.1838864,314.1129837607996L233.3097216,326.19901260271854L233.38978200000003,324.53637065014357L233.8328196,333.5160125927395L234.50418,328.48053956918517L235.3956012,340.41758917468843L235.4576472,329.8602884654585L235.5960924,305.76254683550496L236.0420568,320.6354475243244L236.22589440000002,330.62120704641063L237.4883712,328.54792250605L237.5435592,335.50065772480707L238.2195852,347.0583510035467L239.013774,348.4193924194093L239.5011132,355.89507923119976L239.60917799999999,347.30028434153627L239.6894868,351.4463759582116L240.385374,356.6720549525096L240.8606064,357.90047655256615L240.9218424,89.91149143428812L242.40723119999998,191.99360395365184L242.8696548,251.13703019182816L242.88685919999998,287.8031114694383L243.04069439999998,303.4133569021169L243.1334124,323.7443969104674L243.56464559999998,340.73660434955275L244.40620320000002,280.13435365959356L245.2635072,282.70266686278194L246.915216,313.41261784913456L247.31366039999997,-53.1475167710643L248.1350112,5.066554387565773L249.0000372,144.61802822398028L249.8651172,233.80986818242823L250.336386,236.13476318087433L250.54820640000003,236.11551704386625L250.7150556,266.9565554857537L250.74887040000002,303.4623356893829L251.4341952,278.7431453092498L251.78058360000003,251.60225558272612L252.3149784,291.6823461167014L252.57841200000001,318.4211006132586L253.04083559999998,-96.04663195801828L254.23065000000003,27.816622104686154L254.7922608,158.6699972464914L255.6301788,240.46284924802706L255.964968,263.7944957635255L256.0015044,244.4013342765839L256.1291388,291.88213569233545L256.7012364,312.0478908639236L256.8043116,301.59572921297456L257.1073596,313.4768697211981L257.819274,323.6617570226544L259.3317168,300.0928451079222L260.1492336,326.7190137706864L261.4111596,291.8774271735649L262.0476792,281.56373742172724L262.6396812,-228.1163577142381L262.920384,-32.4916502842619L263.164788,106.27790473793065L263.60839799999997,187.66936399910819L264.2935824,250.31579585223778L264.51759599999997,82.26086925476422L264.6840564,185.8455894768812L265.6306764,258.70087389616015L265.9705308,291.4538229288479L266.1590232,271.2090528149498L266.5384704,280.6881024145539L266.7530772,309.24685199355815L266.83183080000003,309.4076884298517L266.98548239999997,261.92792425805294L268.0074864,294.4744250303371L268.8629436,319.6615434399389L269.11000440000004,326.1403528398957L270.1347408,329.9357419757059L270.2432376,160.9092315136201L270.3357504,219.37487303756518L270.94856400000003,277.21866676385906L272.4567948,262.00374425158327L272.9060424,183.0625683230485L273.98163600000004,252.11451506166608L274.42458719999996,85.34648901253316L274.6903428,197.60987691058588L276.5023344,255.28867025713697L279.8471484,217.3035456779037L280.518444,261.60610721215215L280.932408,286.38049994158513L281.9107368,312.0206818897144L282.2417676,328.0085008196453L283.2776928,327.6685421200049L283.782636,148.12673658021993L283.9307256,220.1819942519886L284.0028156,183.00622521047725L284.3315136,256.7649921498369L284.3362872,289.8882330069197L284.5027908,318.00055355093644L284.834286,330.3399959350706L286.787142,333.4035748933304L288.1240524,344.4216379004075L288.25146,351.42646735659866L288.3205692,343.91460434124843L288.6036264,336.53345892035054L289.57670640000003,328.1404165362006L293.628024,343.8473613156191L293.76476279999997,337.69943954308695L293.7960936,300.82232595986045L294.657372,317.1733870771135L294.67172519999997,288.92314011926084L294.9237,-146.344362395557L295.0211916,19.162655866115003L295.402032,126.87379869280379L295.4600172,-77.99910995687169L295.46365679999997,89.75389500290085L296.2284156,193.4939832544993L297.2187648,79.56844823102182L298.5109308,178.51513114818948L298.8550944,244.62659255340108L299.4700788,292.81176117818455L301.4220924,268.96543716124233L301.8445128,274.49041437644684L302.6410452,257.7579304861362L303.3399996,298.33620623423667L303.8590584,70.85458086534744L303.8599764,158.42931034701706L304.36906680000004,240.80496641717934L305.4359448,255.68853273077363L305.7621156,282.3493943409386L305.8250148,188.13700973965305L305.9647128,260.34077207898395L306.282708,304.76044136611176L306.54006119999997,322.6443236005458L306.7541712,270.94421858383134L307.73550240000003,285.8495321008141L307.9365336,298.54842655480354L308.6655768,288.8345596171645L308.8619316,314.9579813800217L309.0285216,300.2230652747727L309.09122640000004,323.18171027843215L309.2517468,334.9530305345375L309.6427716,347.9382441705923L312.6314988,206.71903419294722L312.8218488,233.91732354342201L313.2269568,287.32685795456854L313.2528984,288.155047200058L313.65163440000003,320.0298177348802L314.6907996,322.27047609744847L315.3410244,326.12920544532466L316.391616,63.181721472665785L316.4720868,149.55469904775921L316.9994508,236.29719499245962L318.00391559999997,-106.12879201474382L318.9016872,64.0627730811978L319.119642,158.62423419954447L320.7986856,-39.479716676461294L321.0958368,106.91164503962544L322.173126,179.3569518996522L322.7682924,233.80842264433176L324.4186944,272.61658270546474L324.70122239999995,302.7852447134327L324.70660080000005,319.71363672253915L325.010016,138.67318304263011L325.5219684,222.9602251656798L327.3790932,268.2733540405599L327.9055176,309.5914810524929L328.13440199999997,15.9850705460637L328.57249319999994,151.04238946152802L328.9442616,226.4776508005743L329.4376272,265.059233594971L329.56874999999997,283.50688534582383L330.0913296,282.3592101796253L330.4272312,315.83986634684925L330.50610359999996,336.78053156352536L330.727752,349.01963875445125L332.1793908,348.1106630439082L332.8106616,353.2920137426529L333.1545984,347.4830687075867L335.0309256,-14.299950794576793L336.62880720000004,126.78619567233376L336.79883159999997,160.04358778553038L336.8454228,225.29691635612744L336.97439640000005,274.8006802980623L338.32972079999996,287.4331251705152L339.86714400000005,302.9978452510811L340.450776,203.21636945528854L340.9106292,174.88524894430083L341.41726800000004,239.1447913405379L342.0110196,200.92224961263423L342.09567000000004,267.8973063221684L343.456794,302.63625045756913L343.6153272,329.24461892451967L343.79993160000004,337.00954347710984L343.9888776,155.024394150741L346.9305924,234.49108407157186L347.014962,273.4465997316392L349.8844896,303.9750169182838L350.489322,317.53972175397104L350.70186600000005,338.03701916331124L350.9520588,339.92124933317496L351.7250148,327.5466634184283L352.61493479999996,200.82224086225995L352.7784036,236.9174810412584L353.92226400000004,191.87342186200965L354.539646,255.9838332274383L354.5679744,264.6716777712897L354.63793680000003,298.3132760129598L355.0876056,317.1082748095901L355.1509908,326.9903563368372L355.5626868,335.9600615034954L355.71396239999996,280.88794764759876L356.4427572,293.924664758937L356.4914976,307.76727492260716L356.5215864,323.8627208159732L357.16064400000005,320.3245072192768L357.78517560000006,84.54264225523592L358.2181368,150.25007656714868L358.4466,215.58232813180416L360.21389039999997,273.9377753781583L360.262836,309.2603715341795L360.53449919999997,324.13797198516926L360.75726000000003,329.46356066410425L361.1586636,281.96676527169154L362.386116,309.098728279512L363.39300000000003,324.5070719422345L363.885318,231.59856664546996L363.922254,267.5559725055615L364.49931960000004,303.65005487848936L364.61709360000003,317.2203723420925L365.0113152,272.13902707578103L366.00908400000003,307.43587689675456L367.6685796,322.256755504847L368.1248148,325.5708385259452L368.5708872,275.53849878612414L369.2667744,307.6824031584904L369.6615468,310.64577004579877L369.9950292,332.7699504391442L370.0292328,344.2873675217384L371.30145120000003,346.51707105671045L371.3329116,352.5538033926319L371.4067296,338.8076376137931L371.6504532,334.76039237970406L371.805606,340.89067727685295L372.2138676,338.72699811226323L372.72177,26.586647428072638L372.9543696,158.48628611385652L373.7577816,23.54296779942411L373.7749644,103.36607651896412L374.37793919999996,202.06705163094932L374.5184256,231.10092794700586L374.6486304,284.6961093856454L375.7762692,304.0432652880138L376.01757360000005,331.2732410952083L376.1466552,334.6222239084322L377.206146,343.6989331888276L377.4088188,289.2812141088913L377.6116428,183.57719898273174L379.03325759999996,219.53181173383967L379.1781612,241.63097413542732L379.3397508,275.98487863376954L380.21697,-76.14213364460936L380.283552,47.19440448201377L380.3913144,172.57641303303353L380.8868724,250.88798476800326L381.9407364,250.4349892395437L382.195908,276.0078234155595L382.55309639999996,280.51585799110654L382.56294599999995,311.9691204195632L382.7702088,267.1508457356938L383.00378040000004,307.9378088855481L383.2410456,277.47788638211705L383.7039552,290.4803922725464L383.90819400000004,232.0173804552999L384.3062604,229.14748154828825L384.41665800000004,279.3788844257586L384.4395108,287.7210751166935L384.7990428,320.9604577470792L385.27223399999997,314.9668790108843L385.68034439999997,319.3415671307971L386.979714,323.94823457191166L387.2986272,336.2562523701178L388.2295332,325.206254319825L388.9101816,339.14323235866243L388.92408120000005,345.7229551904161L391.079934,346.3964997946253L391.23324,353.9705332264471L391.91897520000003,240.98369503588486L392.16184560000005,165.27397463662035L392.16221279999996,241.0957841299779L392.43250439999997,277.84504806162755L392.7531024,295.2172964958807L393.58630079999995,317.30673936503143L393.99053399999997,310.92394588960417L394.78358879999996,312.9562803541017L394.8310548,326.56901717521356L395.894034,288.7320112688101L396.1428552,316.2145382864181L396.8107596,254.20103104578877L398.2546872,292.4925918704565L398.5820892,318.25501312006537L398.7439056,331.122218528399L398.7661968,327.6489304402525L398.9690316,289.0305173493358L399.045474,215.25143731665213L399.7743336,244.96085468922018L399.8074032,283.79216906368856L401.6074176,311.0443300541647L401.6317284,320.23074798950006L401.6633076,330.46729413054703L401.8405572,343.40467944931873L402.8355828,350.76526233742766L403.38335880000005,335.5797786411055L403.63281720000003,338.1597768498306L403.72295399999996,345.5960291416404L404.02527840000005,311.0333741525386L404.03964240000005,30.6253036868318L404.1221112,155.58661407656191L404.8373196,227.71587514498364L406.67574959999996,282.50670153923204L406.9228536,273.4909808920465L407.49006959999997,302.86561803067576L408.05186399999997,294.8687790776482L408.1914324,313.8290243840704L408.4560324,295.82894499280985L409.1964372,313.7423550728198L409.402242,331.5437244856424L409.4201484,341.7189428608681L409.6522296,304.88588028631L410.06594520000004,301.3053533761584L410.927094,323.86747790765816L411.19763400000005,340.58713685628874L411.43241520000004,331.24833050575614L412.0569792,320.699503463994L412.09130159999995,321.8273424096349L412.1329572,326.8257953692194L412.2539604,341.81634838348054L412.589214,349.26413312142597L414.708012,345.2707646434635L414.868662,336.59036781647086L415.1611476,340.0585006334381L415.5603696,321.57341512936335L415.6776252,338.2741237900658L415.9960092,340.2786419522094L416.1888108,349.72765197800936L416.62408320000003,89.9310329106291L416.7526788,180.77365846913102L417.98024999999996,248.7678515485289L418.0372308,293.8404186846383L418.0501476,320.3425294699337L419.3770788,330.1554809207955L419.42593800000003,339.50562790156835L419.4918072,322.50620836911463L419.6053152,337.6296537431389L420.64677,337.4933296784645L421.308594,343.07012919510964L421.31442599999997,112.95485187128519L421.56330119999996,204.4882799969559L421.8617592,33.941141366150696L422.05288679999995,135.99075385581654L422.731548,223.84752374996214L423.0324468,275.8146176750778L423.356598,226.1113811934184L423.60442559999996,278.74703557758426L424.0647864,298.5942428356045L424.186794,319.9663783858722L424.7204328,331.2209988169673L427.4393112,341.32938315523734L427.86425879999996,29.30431841047441L427.87321199999997,163.45898729002454L428.45145479999996,240.37727854772498L428.45635799999997,256.9058830462342L428.9979996,287.5184630638328L429.32356560000005,299.5649615741352L429.8786424,320.2408530163217L430.24776479999997,338.5780504122718L430.9863228,345.19039831908606L431.1237852,349.680620687877L431.1621792,354.1289484139643L431.43705,337.412289222262L431.9006184,301.42144679139955L432.72938880000004,327.6972808443101L433.3008924,320.8567829532231L433.3424292,325.91074147390157L434.8252044,320.7119758572687L435.1973832,322.550964839921L435.37490280000003,314.6558003694806L435.5028072,311.6926784360256L436.8206232,316.12443589754974L437.4931284,285.59040899925276L437.8467312,292.2374323702028L438.0770088,312.7604551178915L439.25338800000003,330.60926502180564L439.9982424,334.8057338709829L440.40203280000003,346.34003906713116L440.6880492,287.3512306363355L440.86539600000003,310.4550307207388L441.32201999999995,319.0969352446844L441.4428396,218.48869182007607L441.6856992,236.38529270492253L444.8976516,285.55935862684106L444.9742668,316.5333563174612L445.2659748,285.82323567037616L445.5416124,180.7904745219042L445.6699596,243.3137093519652L446.3098812,281.3024623497119L446.4093276,314.67782859713077L448.3642788,323.8853030083194L449.04288599999995,341.87910193592995L449.30566080000006,342.3510568858128L449.34607439999996,345.85022025754694L451.7810748,137.41730912298348L452.3651604,217.88935876165564L452.60843040000003,265.8870577560349L453.20197679999995,268.022126846551L453.23297279999997,285.99334633009977L454.93560360000004,17.01761405263748L455.22178199999996,142.22349789049866L455.3540712,224.23260100946067L455.7311856,257.5387469620421L457.1467308,287.0775006404319L458.00528760000003,245.71177416388986L458.2574244,283.7132095640588L458.5970628,297.79772751678155L458.6543568,242.99227314531277L460.059966,220.44214000904245L460.180764,265.8315227820199L460.32280560000004,290.23755010030993L460.6300008,278.2799061309536L460.63635120000004,291.8874462635809L460.6883316,311.5475474494096L461.5526448,324.303309503415L462.8075616,341.5512313917838L462.8673612,347.0582156248726L462.98866680000003,283.1923736970328L463.11029640000004,301.1942465646239L463.5865764,311.2956064283503L463.99935239999996,327.7648631749095L464.70968999999997,329.066406680199L464.924448,339.4128808792249L465.11906400000004,282.51054897104586L465.13714319999997,310.2869911581719L466.25327999999996,299.83612691852113L466.5788568,323.7596791609684L466.791984,304.85710847449656L468.2611836,278.65131355492684L468.56035440000005,311.565070906354L469.12503239999995,-118.13799978549905L470.1496716,59.14641976800188L471.5315208,140.11246880112066L472.4985312,103.7130872143386L472.7237328,141.7127062116908L473.8108608,177.00714228658956L474.3926028,145.1624570420926L475.11629999999997,220.44515957051783L476.14519440000004,240.9313462733583L477.0433656,278.71927938666084L477.683784,302.6891374293336L477.7351488,327.5522579772543L478.89430200000004,304.6824296659691L479.34467279999996,281.2114943293609L479.4565716,299.58715050423905L479.6864604,308.99678124713756L479.72167920000004,-76.01396801633919L479.8826532,84.80995560846755L479.91475080000004,153.89392788134234L480.05413560000005,226.92228973312507L482.87227679999995,267.07788735570506L483.1336908,296.09693058806357L484.1046,318.2801381284905L484.3869552,320.9812917402334L484.7143896,333.507186525148L485.0350416,18.468438698698154L485.47869479999997,17.39091770878377L486.2754756,154.53478263206597L486.27950400000003,220.35543966449686L486.95093999999995,271.0663124378838L488.093364,297.7018544767093L488.11918679999997,308.3449306424732L489.40003440000004,258.5357401690647L489.692682,271.5487982703307L490.2174756,297.48884065512175L490.3374852,325.61165263606745L490.59050759999997,256.3496334097006L490.612032,290.37898105963876L491.09099039999995,88.71517428508287L491.4133272,156.25804418772987L492.33549600000003,152.00476539999565L492.51338280000004,227.74034497623333L493.08199199999996,281.12301393570567L493.98113520000004,312.1670962402795L494.21166120000004,326.72604279098357L494.85918599999997,249.30936745332144L495.3335652,297.900767852384L495.44785079999997,323.0081589945514L496.46196,333.6815441467008L497.1150144,328.3463257710719L497.36018520000005,266.6053825161209L498.8331648,287.6406182120055L499.63237560000005,312.76999192504945L500.6913156,302.0972820762924L501.15216239999995,310.1540484633524L501.72158160000004,327.43630810139206L502.7606172,330.00348117348625L503.1779616,100.08193119404956L503.30538,126.48307554297593L504.25518600000004,131.32081036640972L505.00791359999994,190.91483205556133L505.5998724,256.77586426846244L505.6133076,285.9086045940194L505.72067039999996,299.0138709873392L505.83471840000004,292.50832204702107L506.17182959999997,321.08742072597954L507.069072,297.1009895625163L507.60858599999995,312.63099909372323L507.80851559999996,181.13990511028288L507.933018,243.7517236882646L507.98254679999997,278.3621370480477L508.3898148,54.47189324414842L509.02329960000003,162.3176431320823L509.4868464,235.60067318492932L510.2654832,264.2077343217361L510.374682,302.82697608519067L510.417828,298.04091956808253L511.29896759999997,172.18174464162635L511.56746639999994,241.09001325387626L511.8643476,279.22608642507413L512.1613584,316.39021000281394L512.4324168,137.0290969491924L512.81856,186.67898556997926L514.6094052,221.57825383341643L515.2366908,267.06546956365605L515.293326,37.01694402733622L515.5041204,127.74623586618411L515.7550476,207.26621616040777L516.0470688,209.26592110189858L517.4218872,94.69410285707156L518.0860332,-29.74317000892254L518.3924832,101.92056149118244L519.4268748,169.40517947821678L519.563322,247.63777130618013L519.6777155999999,282.53767334013776L519.7861152,295.43544886761657L520.7199264,324.13234911498057L520.87941,317.3491665837116L521.2781892,318.1141858289807L521.2940112,326.11231208608564L521.4092256,333.1888131598965L521.5398299999999,344.06057135995616L521.5875120000001,349.4890139940315L521.8559892,325.95975006106096L522.6005952,33.91424385596873L522.99756,146.4751410235588L525.4554348,229.54894241390372L525.973122,273.17558195783346L526.3757136,286.5598373906681L526.5216324,274.79689083974773L526.7583576,297.78902630198724L527.0680584,318.28030337114615L527.2904844,294.75448627006705L527.3947692,297.2595898254615L528.2656272,320.06742751897286L529.3544616,247.8160123202259L529.7933628,284.1709504461619L529.9591428,218.81595673479632L530.3340216,278.7113353811532L530.9376552,303.2102218752551L532.9148004,318.10847217577384L533.0822868,288.40835362218434L533.2248792,315.20429489097813L533.390184,328.4159271988306L533.9161656,286.7129196687361L534.052224,306.61667538479395L535.2183648,320.58656793710844L535.6068084,314.93297584616994L536.1862824,269.5371178747049L536.6230668,285.50459983599666L536.66874,309.4237150966897L536.9081544000001,323.0144497201457L536.9978484,333.89860373578904L537.1115184,342.91642197183484L538.2711684,337.65136024295816L538.3896984,-617.153456730011L538.879446,-227.53331747978203L539.5881095999999,8.093274154134683L541.9680516,150.65140299288143L541.9745208,229.76089364051944L542.8427328,254.55765068686085L544.3942824000001,292.92778642922536L544.4525376,298.09078789248997L545.1785784,319.380163428716L545.2106652,276.56498734505897L545.8316544,296.65160428607123L546.0027156,304.7512819673786L546.0935652000001,321.68586906361844L546.2861184,335.8836454160855L546.3766656,347.65307349367265L546.4370592,334.00186680274203L547.932762,331.7124251526862L548.4758832,342.8276461036366L549.0855216,273.1510752958871L549.2550384,300.463523248453L549.3561156000001,329.22772067855686L549.4556592,297.5108370338135L550.8102276000001,-41.48034785066525L551.0871504,120.86522922572058L551.1238164,203.6081663528476L551.5603632,245.2274779988464L551.88756,274.55107769150356L552.0663756,294.57661538737307L552.3775236,184.22031549464037L553.2994656,-345.6805530795434L555.7440672,-67.72485885040335L556.0586064,5.6860941140868055L556.0825067999999,123.35029917591919L556.2475524,212.94944448457872L557.0430588,74.72298334650229L558.3097908,168.2131548493328L558.6935256,239.48242488692534L559.0627884,278.5304637506773L559.4926284000001,245.0916416394812L559.5059772000001,277.99637177351724L561.7201284,315.42579950987096L561.837114,161.86274894534822L562.7197008,240.04270958987937L562.8250224,270.9055683189664L563.3428824,301.97668257536196L563.3632404,325.71176894117417L564.1663500000001,338.8015498477013L564.8042196,287.0117022220964L564.849774,276.6064735322997L564.9879168,312.60037198315143L565.8073668000001,303.7290216298406L565.848234,297.87431780317456L566.1537984,286.2425323028507L566.2819188,260.1542124092067L566.8961364,217.5818251454523L567.4484484000001,164.652009447437L569.8046628,224.28338217401293L572.4340632,244.3796734417307L572.4379188,279.0446729443119L572.643864,238.13912526855745L572.7317544,276.314384506806L572.9181948,293.7675820937987L573.077322,274.6992648266992L573.5696832,302.9110571497003L574.5419423999999,325.1939140698057L574.782858,302.3015243159677L574.832916,328.65547923278484L575.472492,239.0294490309457L576.587052,287.2062615948931L578.1413016,309.043087160469L579.0895631999999,323.98054093137733L579.4451316,316.71361143225647L580.0001436,316.8734898173613L580.02372,312.02913309358377L580.1480064,333.2397588079106L581.474646,312.83996025085037L582.0522732,317.06985574467234L583.0826688,338.18819338518273L584.77194,292.1441574033373L585.5805792,302.37261095412214L585.8035884,329.695477508393L586.1993219999999,341.2388119236079L586.6456644,351.1100798654078L588.6379836,-98.23465502217302L589.4801784,81.2251542328752L590.4336348,160.85174941012008" style="fill: none;" fill="none"></path></g></g></g></g><g opacity="0.2"><g><g><g><path stroke="rgb(255, 112, 67)" stroke-width="2px" d="M54.537332400000004,-498.9441470503807L54.561751199999996,9.220990419387817L54.9963432,257.06944239512086L56.7510732,240.23021065816283L56.990066399999996,201.12228810042143L57.567650400000005,252.66780790127814L58.166348400000004,-482.53922697901726L58.9448772,239.04123978875577L59.7160188,86.98428820073605L61.682256,276.4651177190244L62.7171876,242.81704409234226L62.745354000000006,235.3906912934035L63.359290800000004,248.4443144146353L63.474472799999994,-140.45727134495974L63.5765544,-104.88275599479675L63.83810879999999,141.58941346406937L65.2018464,-631.2975731939077L65.78189280000001,261.56674374081194L65.8570284,9.784782372415066L67.2926832,92.32114318013191L67.83440039999999,-168.4277945458889L69.1342452,292.85796282067895L69.57144000000001,-24.18759924173355L69.6089268,82.02995981276035L69.639048,164.13593420013785L69.8091696,298.70568054914474L70.3802196,-249.24123671650887L70.419618,315.63532494194806L70.8414336,314.97124121244997L71.6198004,272.30976156145334L72.2507148,140.78049610555172L72.5221836,118.32819885760546L73.8092628,29.810961216688156L76.039344,275.63497235253453L76.0824468,-696.8383965343237L76.2964164,240.96548126265407L77.0615748,245.18936199322343L78.0807492,225.6636255159974L78.8319972,235.2274767793715L79.112592,155.81550558283925L80.5101444,248.6909623928368L80.5502124,222.39217122271657L80.8392204,-267.0005952268839L81.05387040000001,207.33355746790767L81.8421948,208.43227409943938L81.9563508,-485.01385648548603L81.97524,285.9261821229011L82.0896444,132.6476167626679L82.1018808,173.29057424515486L82.5416568,187.00942962616682L83.3797044,212.1309992596507L83.63921760000001,116.55530815199018L84.2921748,138.43837442994118L84.43521,257.1050776373595L85.0318668,343.34287431277335L85.647888,137.9885730072856L85.7235312,280.95410212129354L86.54319720000001,20.30267945677042L86.6020788,62.32547505944967L86.6212164,289.49142254143953L86.8452408,268.87925562635064L87.8329332,273.49427032470703L88.1076096,345.0356957358308L88.353774,187.00073423981667L88.4003328,6.854542784392834L88.4805336,156.37743172422051L88.74256319999999,240.23675860092044L89.4189456,285.9406245611608L89.52534720000001,293.3917961753905L89.5619916,221.79502348601818L89.7109992,198.43073158711195L90.1964268,343.90635823085904L90.27369,125.86785570904613L91.7906364,252.27691156044602L92.2578984,-353.9225639104843L92.93195879999999,242.09435011446476L93.2276844,100.67705742269754L94.04484479999999,17.868886582553387L94.4588736,-174.2941879928112L95.28069959999999,341.2450507488102L95.8260132,85.84607268869877L95.90445360000001,335.52930839080364L96.6230532,-76.94018476456404L97.06463280000001,145.90313478559256L97.8675804,312.52606424689293L97.9827516,321.78530415706336L98.23645439999999,222.50558088719845L98.3339352,300.9861160274595L98.5444812,241.67764044553041L99.26093159999999,262.4760188832879L100.32381360000001,289.323288269341L101.245626,326.6333956941962L102.1674276,222.5784179493785L102.42043919999999,342.4022500142455L103.4180568,-609.6027602702379L104.495454,201.1328845024109L104.7765996,130.4008098989725L105.278454,-780.4678061306477L105.4351728,-10.551860488951206L105.50862359999999,349.77661971654743L105.8259276,296.42686445452273L105.85364039999999,279.96045180782676L105.9660576,213.40036724880338L106.7909184,244.28224309533834L107.7822072,340.2507843654603L108.93691079999999,341.5220225667581L109.1639916,298.7221208140254L109.2271932,304.3479213695973L109.3276764,330.2586413193494L109.3718268,263.3957408107817L109.6087464,330.5678819976747L109.94442120000001,103.2271642908454L109.9996416,317.2802799353376L110.3873724,247.22519132494926L111.24324,314.8470635265112L111.4128972,-157.37476155906916L112.221828,332.28383904509246L112.26707999999999,-141.9023248627782L113.0033592,109.64784461259842L113.0815728,330.38755834288895L113.38688880000001,358.6683035334572L114.0724404,284.98248627595603L114.61926600000001,229.75587851554155L116.66590919999999,337.9346960429102L116.7513156,167.23261826857924L116.7630444,362.5485998899676L117.4253652,332.5338974101469L118.2138408,288.58755121193826L120.8913984,349.21611933689564L121.06056960000001,346.6506129219197L122.8528512,335.8190064523369L123.9365124,352.182993080467L124.15970519999999,289.8662394583225L124.3460268,232.871546337381L124.5554172,322.8551403125748L124.66270440000001,281.23452833108604L125.2229976,338.9394136117771L125.3998044,319.7090870440006L127.1784132,362.6523328567855L127.304568,368.12505104765296L128.5403688,338.60129245743155L129.08302559999998,176.1764568015933L129.3065964,293.0771604850888L129.89887919999998,242.71888655796647L130.2767172,302.98757746070623L130.3417008,154.21648740023375L131.5650384,2.436195194721222L132.5336256,217.45852518081665L133.26918120000002,352.3095184327103L134.181036,345.4062463687733L134.571132,248.00881461426616L134.8335288,340.8358351299539L134.8844292,-136.68819100409746L135.4374216,334.5732691437006L135.4943592,262.344373550266L135.9992052,312.08468537963927L136.2583944,346.5255419346504L136.4019372,337.9539262242615L136.93237919999999,147.6428457275033L137.5260228,226.27862167730927L138.751488,302.83234545215964L138.79740959999998,339.9309912901372L138.9638376,356.4003566717729L139.5340452,352.72189801046625L140.2290144,349.8443433986977L140.6268108,340.55355190951377L141.8370372,249.05997065082192L142.8841836,335.9171243822202L143.068194,315.49178065918386L143.670402,345.45116226375103L144.6895872,325.8952867677435L145.4845968,294.40779222361743L146.78441999999998,88.82531623542309L146.8956168,106.3102948218584L146.9464848,365.63827396323904L147.4102692,340.93722263071686L148.24107,334.5816960996017L148.8498012,272.9629188515246L149.1730344,323.9079025313258L149.3508132,209.50590788573027L149.554188,286.89802356250584L149.6546388,349.033692243509L150.5375388,362.0142582776025L152.2902492,309.96587143465877L153.3037968,357.09618340199813L154.0390716,338.7197186909616L154.314882,345.78317992575467L155.1332844,341.89221015851945L155.695986,336.3826663903892L155.96438759999998,336.3752119448036L156.2355756,292.2927891109139L156.4900344,346.0370667250827L156.9696192,-169.98240289092064L157.0415688,296.93208576366305L157.169916,349.2285265442915L157.3663464,352.0530331386253L159.235146,196.67197528481483L160.5677472,238.08244142867625L160.788402,-242.59683501720428L161.1007488,342.9259094148874L161.9207496,357.66095006559044L162.3751704,358.7501638191752L163.4924196,311.41274675913155L163.54206720000002,123.68925658240914L163.80469079999997,338.00676741823554L164.3151636,340.80005467124283L164.5877772,64.1907234415412L165.20081760000002,338.334780625999L165.7618236,202.82339786365628L166.23387,299.79395919665694L166.5569844,308.2092009689659L167.26503240000002,335.6077120844275L167.3065368,335.2735821828246L167.7179736,309.9856032729149L168.4724292,364.5752497804351L169.6275216,324.61441147327423L169.7461596,320.9839556571096L170.1185328,342.6643305430189L170.32386240000002,157.96458616107702L170.4480624,339.7365376325324L170.53627680000002,331.0610547401011L170.537724,354.90930913668126L170.6014116,328.82153510302305L170.8779888,324.3258267380297L170.9243964,357.5013175578788L171.40403519999998,194.42803754657507L172.0618524,344.398279031273L172.9830816,283.25915399193764L173.73199680000002,296.02160488441586L174.4354332,308.7493358384818L174.45945239999998,316.80824719090015L175.4541108,288.39494136348367L175.46361480000002,358.0040965899825L178.8588,298.5870782956481L179.1103212,-44.68156874924898L179.5002444,323.28803061693907L179.8709544,-5.032402396202087L179.91778319999997,342.4876747042872L181.0316196,348.4473873367533L181.1401812,346.0769528495148L181.61856719999997,338.84036277607083L182.7980352,-595.6957747489214L183.8024676,281.4092369489372L183.87442800000002,343.35222977399826L184.339044,242.19809628278017L185.0961132,196.42107642441988L185.16062159999998,356.86561704799533L185.705082,54.09157785773277L185.7322872,308.07110450416803L186.22433519999998,270.3978942912072L187.0252524,292.18576017022133L187.6424616,355.95986010460183L187.745418,361.4452319308184L188.1487548,332.8451667185873L189.35424,266.3186667691916L189.76688639999998,359.28326889127493L189.76739400000002,307.34575262479484L189.8348724,312.61581682786345L190.0282032,361.1073264009319L190.7540928,187.35495682060719L190.83439080000002,316.6645092861727L191.5079328,256.66630386561155L192.2274936,336.49091866984963L193.26006,332.22141356393695L193.4825292,346.3691503945738L193.5217764,352.0195211372338L193.5978624,356.94738712348044L193.6231668,-372.7745135575533L193.7271816,321.81376658566296L194.43406320000003,312.356772643514L194.45074920000002,353.15079046133906L195.0701076,357.2035621823743L195.17524559999998,357.9450924969278L196.00188839999998,281.28505486249924L196.0308324,-2061.923156797886L196.1052876,280.37687984481454L196.3769832,141.76548623666167L196.71460199999999,146.446297198534L196.7874588,300.6326503325254L197.1182304,322.23742464277893L198.7804152,200.62460924685L198.91740240000001,282.18578423559666L199.2321792,349.0431401152164L199.4333076,355.3018248612061L199.6800228,364.8259462178685L199.7787024,343.2341555804014L199.9049976,261.8532954454422L200.8328472,352.0478757536039L203.09965920000002,359.856026861351L203.4012168,314.50253964588046L204.48361440000002,221.36979445070028L204.9046956,310.2053113952279L205.2599184,345.07134197931737L205.479126,-12.761403925716877L205.5371868,343.78752055065706L205.8496956,357.11960505880415L206.88051240000001,100.7479406632483L207.14545800000002,259.16107005625963L207.3735972,230.51969955861568L207.5095692,358.6513660121709L207.5429412,274.6859871055931L207.8440128,362.07469913363457L208.3022136,148.81478666514158L209.095722,340.2103921836242L209.64346559999998,361.4316211869009L210.2390856,329.45696718245745L210.9416904,361.89700477709994L211.421232,-530.5467718541622L211.4308872,346.0886141723022L211.52244960000002,357.60584921529517L212.474394,364.91264595254324L213.0767748,310.019944768399L214.12330559999998,365.86662246566266L214.381404,306.94413666799664L214.94653559999998,343.895132557489L215.586036,293.04814359359443L216.9625392,334.1102750245482L217.4372424,323.8119408460334L217.88691120000001,350.7003416977823L219.8038896,334.9280197843909L221.6781864,343.0623402907513L222.2554248,321.5500622726977L223.231086,281.1478472985327L223.60580280000002,333.5901624262333L223.7629104,355.6543268468231L224.2852848,247.3272477015853L228.8664288,286.3472658880055L229.0239684,338.6371433241293L229.15097640000002,369.8282647995511L229.26058559999998,340.2715635225177L229.74654239999998,329.5382135985419L229.9470552,141.5959438048303L230.1633252,303.50995191559196L230.46367320000002,270.23785693757236L231.6369528,291.2212851662189L231.9819696,325.96544392593205L232.1838864,337.1736913193017L233.3097216,344.328055865597L233.38978200000003,322.04240772128105L233.8328196,346.9854755066335L234.50418,320.92733003385365L235.3956012,358.3231635829434L235.4576472,314.0243374016136L235.5960924,269.6159343905747L236.0420568,342.94479855755344L236.22589440000002,345.59984632954L237.4883712,325.437995695509L237.5435592,345.92976055294275L238.2195852,364.39489092165604L239.013774,350.4609545432031L239.5011132,367.10860944888555L239.60917799999999,334.408092007041L239.6894868,357.6655133832246L240.385374,364.5105734439567L240.8606064,359.7431089526508L240.9218424,-312.0719862431288L242.40723119999998,345.1167727326974L242.8696548,339.85216954909265L242.88685919999998,342.80223338585347L243.04069439999998,326.8287250511348L243.1334124,354.24095692299306L243.56464559999998,366.22491550818086L244.40620320000002,189.23097762465477L245.2635072,286.5551366675645L246.915216,359.4775443286635L247.31366039999997,-602.9877187013626L248.1350112,92.38766112551093L249.0000372,353.945238978602L249.8651172,367.5976281201001L250.336386,239.62210567854345L250.54820640000003,236.0866478383541L250.7150556,313.21811314858496L250.74887040000002,358.22100599482656L251.4341952,241.66435973905027L251.78058360000003,210.89092099294066L252.3149784,351.8024819176644L252.57841200000001,358.5292323580943L253.04083559999998,-717.7482308149338L254.23065000000003,213.61150319874287L254.7922608,354.9500599591993L255.6301788,363.1521272503305L255.964968,298.7919655367732L256.0015044,215.31159204617143L256.1291388,363.10333781596273L256.7012364,342.2965236213058L256.8043116,285.9174867365509L257.1073596,331.29858048353344L257.819274,338.9390879748389L259.3317168,264.73947723582387L260.1492336,366.65826676483266L261.4111596,239.6150472778827L262.0476792,266.0932027939707L262.6396812,-992.6365004181862L262.920384,260.9454108607024L263.164788,314.4322372712195L263.60839799999997,309.75655289087445L264.2935824,344.28544363193214L264.51759599999997,-169.8215206414461L264.6840564,341.2226698100567L265.6306764,367.98380052507855L265.9705308,340.5832464778796L266.1590232,240.84189764410257L266.5384704,294.9066768139601L266.7530772,352.0849763620645L266.83183080000003,309.6489430842921L266.98548239999997,190.70827800035477L268.0074864,343.29417618876323L268.8629436,357.44222105434164L269.11000440000004,335.8585669398308L270.1347408,335.6288256794214L270.2432376,-92.63053417950869L270.3357504,307.07333532348275L270.94856400000003,363.98435735329986L272.4567948,239.18136048316956L272.9060424,64.65080443024635L273.98163600000004,355.6924351695925L274.42458719999996,-164.8055500611663L274.6903428,366.004958757665L276.5023344,341.80686027696356L279.8471484,160.3258588090539L280.518444,328.05994951352477L280.932408,323.54208903573453L281.9107368,350.4809548119083L282.2417676,351.9902292145416L283.2776928,327.15860407054424L283.782636,-121.18597172945738L283.9307256,328.2648807596415L284.0028156,127.24257164821029L284.3315136,367.4031425588764L284.3362872,339.57309429254383L284.5027908,360.16903436696157L284.834286,348.84915951127186L286.787142,337.99894333072007L288.1240524,360.94873241102323L288.25146,361.93371154088527L288.3205692,332.6468098182231L288.6036264,325.46174078900367L289.57670640000003,315.5508529599756L293.628024,367.4077784847468L293.76476279999997,328.4775568842888L293.7960936,245.50665558502078L294.657372,341.69997875299305L294.67172519999997,246.54776968248188L294.9237,-799.2456161677837L295.0211916,267.4231832586229L295.402032,288.440512932837L295.4600172,-385.30847293138504L295.46365679999997,341.3834024425596L296.2284156,349.104115631897L297.2187648,-91.31985430419445L298.5109308,326.9351555239409L298.8550944,343.7937846612185L299.4700788,365.08951411535963L301.4220924,233.1959511358291L301.8445128,282.77788019925356L302.6410452,232.6592046506703L303.3399996,359.2036198563874L303.8590584,-270.3678571879864L303.8599764,289.79140456952155L304.36906680000004,364.3684505224228L305.4359448,278.01388220116496L305.7621156,322.3406867561862L305.8250148,46.818432837724686L305.9647128,368.6464155879803L306.282708,371.3899452968035L306.54006119999997,349.47014695219696L306.7541712,193.3940610587597L307.73550240000003,308.2075023762882L307.9365336,317.59676823578775L308.6655768,274.26375921070576L308.8619316,354.1431140243076L309.0285216,278.12069111689925L309.09122640000004,357.61967778392136L309.2517468,352.6100109186955L309.6427716,367.4160646246746L312.6314988,-5.10978077352047L312.8218488,274.71475756913424L313.2269568,367.44115957128815L313.2528984,289.39733106829226L313.65163440000003,367.8419735371135L314.6907996,325.6314636413008L315.3410244,331.91729946713895L316.391616,-331.2395044863224L316.4720868,279.11416541039944L316.9994508,366.41093890951015L318.00391559999997,-619.7677725255489L318.9016872,319.3501207251102L319.119642,300.46642587706447L320.7986856,-336.63564299046993L321.0958368,326.49868761375546L322.173126,288.02491218969226L322.7682924,315.4856287613511L324.4186944,330.8288227971643L324.70122239999995,348.03823772538453L324.70660080000005,345.1062247361988L325.010016,-132.8874974772334L325.5219684,349.3907883502543L327.3790932,336.24304735288024L327.9055176,371.5686715703923L328.13440199999997,-424.42454521358013L328.57249319999994,353.6283678347245L328.9442616,339.63054280914366L329.4376272,322.931607786566L329.56874999999997,311.17836297210306L330.0913296,280.63769743032753L330.4272312,366.0608505976852L330.50610359999996,368.1915293885395L330.727752,367.3782995408401L332.1793908,346.74719947809353L332.8106616,361.06403979077004L333.1545984,338.7696511549875L335.0309256,-556.974480047822L336.62880720000004,338.4154153726995L336.79883159999997,209.92967595532537L336.8454228,323.176909212023L336.97439640000005,349.05632621096447L338.32972079999996,306.3817924791947L339.86714400000005,326.34492537193L340.450776,53.54415576159954L340.9106292,132.38856817781925L341.41726800000004,335.53410493489355L342.0110196,143.58843702077866L342.09567000000004,368.3598913864698L343.456794,354.7446666606702L343.6153272,369.1571716249455L343.79993160000004,348.65693030599505L343.9888776,-117.95332983881235L346.9305924,353.6911189528182L347.014962,331.8798732217401L349.8844896,349.7676426982507L350.489322,337.8867790075019L350.70186600000005,368.78296527732164L350.9520588,342.7475945879705L351.7250148,308.9847845463082L352.61493479999996,10.735607028007507L352.7784036,291.06034130975604L353.92226400000004,124.30733309313655L354.539646,352.14945027558133L354.5679744,277.70344458706677L354.63793680000003,348.775673375465L355.0876056,345.3007730045356L355.1509908,341.8134786277078L355.5626868,349.41461925348267L355.71396239999996,198.2797768637538L356.4427572,313.4797404259443L356.4914976,328.5311901681125L356.5215864,348.0058896560222L357.16064400000005,315.01718682423234L357.78517560000006,-269.13015519082546L358.2181368,248.81122803501785L358.4466,313.5807054787874L360.21389039999997,361.4709462476894L360.262836,362.24426576821133L360.53449919999997,346.4543726616539L360.75726000000003,337.4519436825067L361.1586636,210.72157218307257L362.386116,349.7966727912426L363.39300000000003,347.6195874363184L363.885318,92.2358087003231L363.922254,321.4920812956989L364.49931960000004,357.7911784378812L364.61709360000003,337.5758485374972L365.0113152,204.51700917631388L366.00908400000003,360.38115162821487L367.6685796,344.48807341698557L368.1248148,330.5419630575925L368.5708872,200.48998917639256L369.2667744,355.89825971703976L369.6615468,315.09082037676126L369.9950292,365.9562210291624L370.0292328,361.56349314562976L371.30145120000003,349.86162635916844L371.3329116,361.608901896514L371.4067296,318.1883889455348L371.6504532,328.6895245285705L371.805606,350.0861046225764L372.2138676,335.4814793653786L372.72177,-441.6238785982132L372.9543696,356.33574414253235L373.7577816,-178.87200967222452L373.7749644,223.10073959827423L374.37793919999996,350.11851429892704L374.5184256,274.6517424210906L374.6486304,365.08888154360466L375.7762692,333.06399914156646L376.01757360000005,372.118204806L376.1466552,339.6456981282681L377.206146,357.3139971094206L377.4088188,207.65463548898697L377.6116428,25.021176293492317L379.03325759999996,273.4637308605015L379.1781612,274.7797177378088L379.3397508,327.51573538128287L380.21697,-604.3326520621777L380.283552,232.19921167194843L380.3913144,360.64942585956305L380.8868724,368.35534237045795L381.9407364,249.75549594685435L382.195908,314.3670746795833L382.55309639999996,287.277909854427L382.56294599999995,359.14901406224817L382.7702088,199.92343370988965L383.00378040000004,369.1182536103297L383.2410456,231.7880026269704L383.7039552,309.9841511081904L383.90819400000004,144.3228627294302L384.3062604,224.84263318777084L384.41665800000004,354.7259887419641L384.4395108,300.23436115309596L384.7990428,370.8195316926576L385.27223399999997,305.976510906592L385.68034439999997,325.9035993106663L386.979714,330.85823573358357L387.2986272,354.7182790674269L388.2295332,308.6312572443858L388.9101816,360.0486994169187L388.92408120000005,355.5925394380465L391.079934,347.4068167009391L391.23324,365.3315833741799L391.91897520000003,71.50343775004148L392.16184560000005,51.70939403772354L392.16221279999996,354.82849837001413L392.43250439999997,332.96894395910203L392.7531024,321.2756691472605L393.58630079999995,350.4409036687575L393.99053399999997,301.34975567646325L394.78358879999996,316.004782050848L394.8310548,346.9881224068813L395.894034,231.97650240920484L396.1428552,357.43832881283015L396.8107596,161.18077018484473L398.2546872,349.92993310745806L398.5820892,356.8986449944787L398.7439056,350.4230266408995L398.7661968,322.43899830803275L398.9690316,231.10289771296084L399.045474,104.58281726762652L399.7743336,289.52498074807227L399.8074032,342.03914062539116L401.6074176,351.92257153987885L401.6317284,334.010374892503L401.6633076,345.8221133421175L401.8405572,362.81075742747635L402.8355828,361.80613666959107L403.38335880000005,312.80155309662223L403.63281720000003,342.02977416291833L403.72295399999996,356.75040757935494L404.02527840000005,259.18939166888595L404.03964240000005,-389.9868020117283L404.1221112,343.028579661157L404.8373196,335.90976674761623L406.67574959999996,364.6929411306046L406.9228536,259.9673999212682L407.49006959999997,346.9275737386197L408.05186399999997,282.87352064810693L408.1914324,342.26939234370366L408.4560324,268.8288259059191L409.1964372,340.61247019283473L409.402242,358.24577860487625L409.4201484,356.9817704237066L409.6522296,249.63628642447293L410.06594520000004,295.934563010931L410.927094,357.7106647049077L411.19763400000005,365.6666252792347L411.43241520000004,317.2401209799573L412.0569792,304.87626290135086L412.09130159999995,323.51910082809627L412.1329572,334.3234748085961L412.2539604,364.3021779048722L412.589214,360.43581022834405L414.708012,339.28071192651987L414.868662,323.5697725759819L415.1611476,345.260699858889L415.5603696,293.8457868732512L415.6776252,363.32518678111956L415.9960092,343.28541919542477L416.1888108,363.9011670167092L416.62408320000003,-299.76389569044113L416.7526788,317.0375968068838L417.98024999999996,350.7591411676258L418.0372308,361.44926938880235L418.0501476,360.0956956478767L419.3770788,344.87490809708834L419.42593800000003,353.53084837272763L419.4918072,297.007079070434L419.6053152,360.31482180417515L420.64677,337.28884358145297L421.308594,351.43532847007737L421.31442599999997,-232.2180641144514L421.56330119999996,341.78842218546197L421.8617592,-221.87956658005714L422.05288679999995,289.06517259031534L422.731548,355.6326785911806L423.0324468,353.7652585627511L423.356598,151.55652647092938L423.60442559999996,357.70051715383306L424.0647864,328.3650537226349L424.186794,352.02458171127364L424.7204328,348.10292946361005L427.4393112,356.49195966264233L427.86425879999996,-438.7332787066698L427.87321199999997,364.6909906093497L428.45145479999996,355.75471543427557L428.45635799999997,281.698789793998L428.9979996,333.4373330902308L429.32356560000005,317.6347093395889L429.8786424,351.2546901796013L430.24776479999997,366.083846506197L430.9863228,355.10892017930746L431.1237852,356.41595424106345L431.1621792,360.8014400030952L431.43705,312.3373004347086L431.9006184,247.43518314510584L432.72938880000004,367.1110319236759L433.3008924,310.5960361165926L433.3424292,333.4916792549193L434.8252044,312.9138274323195L435.1973832,325.30944831389934L435.37490280000003,302.81305366382L435.5028072,307.2479955358431L436.8206232,322.772072089836L437.4931284,239.7893686518073L437.8467312,302.2079674266279L438.0770088,343.54498923942447L439.25338800000003,357.3824798776768L439.9982424,341.10043714474887L440.40203280000003,363.6414968613535L440.6880492,198.8680179901421L440.86539600000003,345.1107308473438L441.32201999999995,332.0597920306027L441.4428396,67.57632668316364L441.6856992,263.23019403219223L444.8976516,359.32045750971884L444.9742668,362.9943528533913L445.2659748,239.75805469974875L445.5416124,23.241332799196243L445.6699596,337.0985615970567L446.3098812,338.28559184633195L446.4093276,364.74087796825916L448.3642788,337.6965146251023L449.04288599999995,368.86980032734573L449.30566080000006,343.0589893106371L449.34607439999996,351.09896531514823L451.7810748,-175.2320575788617L452.3651604,338.5974332196638L452.60843040000003,337.8836062476039L453.20197679999995,271.22473048232496L453.23297279999997,312.9501755554229L454.93560360000004,-386.4459843635559L455.22178199999996,330.03232364729047L455.3540712,347.2462556879036L455.7311856,307.4979658909142L457.1467308,331.3856311580166L458.00528760000003,183.66318444907665L458.2574244,340.7153626643121L458.5970628,318.92450444586575L458.6543568,160.78409158810973L460.059966,186.61694030463696L460.180764,333.915596941486L460.32280560000004,326.84659107774496L460.6300008,260.3434401769191L460.63635120000004,312.29875646252185L460.6883316,341.03769922815263L461.5526448,343.4369525844231L462.8075616,367.42311422433704L462.8673612,355.3186919745058L462.98866680000003,187.39361080527306L463.11029640000004,328.1970558660105L463.5865764,326.44764622393996L463.99935239999996,352.46874829474837L464.70968999999997,331.01872193813324L464.924448,354.9325921777636L465.11906400000004,197.15705110877752L465.13714319999997,351.9516544388607L466.25327999999996,284.1598305590451L466.5788568,359.64500752463937L466.791984,276.5032524447888L468.2611836,239.34262117557228L468.56035440000005,360.93570693349466L469.12503239999995,-762.6926058232784L470.1496716,325.07304909825325L471.5315208,261.56154235079885L472.4985312,49.11401483416557L472.7237328,198.7121347077191L473.8108608,229.9487963989377L474.3926028,97.39542917534709L475.11629999999997,333.3692133631557L476.14519440000004,271.66062632761896L477.0433656,335.40117905661464L477.683784,338.64392449334264L477.7351488,364.8469387991354L478.89430200000004,270.37768719904125L479.34467279999996,246.00509132444859L479.4565716,327.1506347665563L479.6864604,323.11122736148536L479.72167920000004,-653.5300919115543L479.8826532,326.04584104567766L479.91475080000004,257.51988629065454L480.05413560000005,336.46483251079917L482.87227679999995,327.3112837895751L483.1336908,339.62549543660134L484.1046,351.5549494391307L484.3869552,325.0330221578479L484.7143896,352.29602870251983L485.0350416,-454.0896830409765L485.47869479999997,15.774636223912239L486.2754756,360.25058001698926L486.27950400000003,319.08642521314323L486.95093999999995,347.1326215979643L488.093364,337.6551675349474L488.11918679999997,324.309544891119L489.40003440000004,183.82195445895195L489.692682,291.06838542222977L490.2174756,336.39890423230827L490.3374852,367.795870607486L490.59050759999997,152.45660457015038L490.612032,341.42300253454596L491.09099039999995,-213.78053587675095L491.4133272,257.57234904170036L492.33549600000003,145.62484721839428L492.51338280000004,341.34371434058994L493.08199199999996,361.19701737491414L493.98113520000004,358.73321969714016L494.21166120000004,348.5644626170397L494.85918599999997,133.18435444682837L495.3335652,370.78786845097784L495.44785079999997,360.6692457078025L496.46196,349.69162187492475L497.1150144,320.3434982076287L497.36018520000005,173.9939676336944L498.8331648,319.19347175583243L499.63237560000005,350.4640524946153L500.6913156,286.08821730315685L501.15216239999995,322.23919804394245L501.72158160000004,353.35969755845144L502.7606172,333.8542407816276L503.1779616,-244.80039377510548L503.30538,166.08479206636548L504.25518600000004,138.57741260156035L505.00791359999994,280.30586458928883L505.5998724,355.56741258781403L505.6133076,329.60771508235484L505.72067039999996,318.67177057731897L505.83471840000004,282.74999863654375L506.17182959999997,363.9560687444173L507.069072,261.1213428173214L507.60858599999995,335.9260133905336L507.80851559999996,-16.0967358648777L507.933018,337.6694515552372L507.98254679999997,330.2777570877224L508.3898148,-281.36347246170044L509.02329960000003,324.0862679639831L509.4868464,345.5252182641998L510.2654832,307.1183260269463L510.374682,360.7558387303725L510.417828,290.86183479242027L511.29896759999997,-16.607017748057842L511.56746639999994,344.4524161722511L511.8643476,336.430196181871L512.1613584,372.13639536942355L512.4324168,-132.0125726312399L512.81856,261.15381850115955L514.6094052,273.92715622857213L515.2366908,335.2962931590155L515.293326,-308.0558442771435L515.5041204,263.84017362445593L515.7550476,326.5461866017431L516.0470688,212.26547851413488L517.4218872,-77.16362451016903L518.0860332,-216.39907930791378L518.3924832,299.41615874134004L519.4268748,270.63210645876825L519.563322,364.98665904812515L519.6777155999999,334.88752639107406L519.7861152,314.78211215883493L520.7199264,367.17769948602654L520.87941,307.1743927868083L521.2781892,319.26171469688416L521.2940112,338.109501471743L521.4092256,343.80356477061287L521.5398299999999,360.36820866004564L521.5875120000001,357.6316779451445L521.8559892,290.66585416160524L522.6005952,-404.1540154516697L522.99756,315.31648677494377L525.4554348,354.1596444994211L525.973122,338.615541273728L526.3757136,306.63622053992003L526.5216324,257.1524710133672L526.7583576,332.27722949534655L527.0680584,349.0172189748846L527.2904844,259.46576061844826L527.3947692,301.0172451585531L528.2656272,354.2791840592399L529.3544616,139.43888952210546L529.7933628,338.7033576350659L529.9591428,120.78346616774797L530.3340216,368.5544033506885L530.9376552,339.95855161640793L532.9148004,340.455847626552L533.0822868,243.85817579180002L533.2248792,355.3982067941688L533.390184,348.23337566060945L533.9161656,224.15840837359428L534.052224,336.4723089588806L535.2183648,341.5414067655802L535.6068084,306.45258770976216L536.1862824,201.4433309175074L536.6230668,309.4558227779344L536.66874,345.30238798772916L536.9081544000001,343.40055165532976L536.9978484,350.224834759254L537.1115184,356.4431493259035L538.2711684,329.7537676496431L538.3896984,-2049.3606821894646L538.879446,356.8968913955614L539.5881095999999,361.5331616050098L541.9680516,364.4885962510016L541.9745208,348.42512961197644L542.8427328,291.75278625637293L544.3942824000001,350.48299004277214L544.4525376,305.83529008738697L545.1785784,351.31422673305497L545.2106652,212.3422232195735L545.8316544,326.7815296975896L546.0027156,316.90079848933965L546.0935652000001,347.0877497079782L546.2861184,357.18030994478613L546.3766656,365.3072156100534L546.4370592,313.5250567663461L547.932762,328.27826267760247L548.4758832,359.5004775300622L549.0855216,168.63621908426285L549.2550384,341.43219517730176L549.3561156000001,372.37401682371274L549.4556592,249.93551156669855L550.8102276000001,-549.9671251773834L551.0871504,364.38359484029934L551.1238164,327.7225720435381L551.5603632,307.6564454678446L551.88756,318.53647723048925L552.0663756,324.6149219311774L552.3775236,18.68586565554142L553.2994656,-1140.5318559408188L555.7440672,349.2086824933067L556.0586064,115.80252356082201L556.0825067999999,299.8466067686677L556.2475524,347.34816244756803L557.0430588,-132.6167083606124L558.3097908,308.44841210357845L558.6935256,346.3863299433142L559.0627884,337.10252204630524L559.4926284000001,194.933408472687L559.5059772000001,327.35346697457135L561.7201284,371.56994111440144L561.837114,-68.48182690143585L562.7197008,357.3126505566761L562.8250224,317.199856412597L563.3428824,348.5833539599553L563.3632404,361.3143984898925L564.1663500000001,358.43622120749205L564.8042196,209.32693078368902L564.849774,260.9986304976046L564.9879168,366.59121965942904L565.8073668000001,290.4219960998744L565.848234,289.09226206317544L566.1537984,268.7948540523648L566.2819188,221.02173256874084L566.8961364,153.7232442498207L567.4484484000001,85.25728590041399L569.8046628,313.73044126387686L572.4340632,274.52411034330726L572.4379188,331.04217219818383L572.643864,176.78080375492573L572.7317544,333.57727336417884L572.9181948,319.9473784742877L573.077322,246.09678892605007L573.5696832,345.2287456342019L574.5419423999999,358.61819944996387L574.782858,267.9629396852106L574.832916,368.18641160801053L575.472492,104.59040372818708L576.587052,359.47148044081405L578.1413016,341.79832550883293L579.0895631999999,346.3867215877399L579.4451316,305.81321718357503L580.0001436,317.11330739501864L580.02372,304.7625980079174L580.1480064,365.05569737940095L581.474646,282.2402624152601L582.0522732,323.41469898540527L583.0826688,369.86569984594826L584.77194,223.07810343056917L585.5805792,317.7152912802994L585.8035884,370.67977733979933L586.1993219999999,358.5538135464303L586.6456644,365.9169817781076L588.6379836,-772.2517573535442L589.4801784,350.41486811544746L590.4336348,280.29164217598736" style="fill: none;" fill="none"></path></g></g></g></g></g></g><g transform="translate(70, 378)" clip-path="url(#clip_1)"><clipPath id="clip_1"><rect width="648" height="22"></rect></clipPath><g><g><line x1="0" y1="0" x2="0" y2="5" style="visibility: inherit;" fill="rgb(0, 0, 0)" stroke="rgb(204, 204, 204)" stroke-width="1px"></line><line x1="54" y1="0" x2="54" y2="5" style="visibility: inherit;" fill="rgb(0, 0, 0)" stroke="rgb(204, 204, 204)" stroke-width="1px"></line><line x1="108" y1="0" x2="108" y2="5" style="visibility: inherit;" fill="rgb(0, 0, 0)" stroke="rgb(204, 204, 204)" stroke-width="1px"></line><line x1="162" y1="0" x2="162" y2="5" style="visibility: inherit;" fill="rgb(0, 0, 0)" stroke="rgb(204, 204, 204)" stroke-width="1px"></line><line x1="216" y1="0" x2="216" y2="5" style="visibility: inherit;" fill="rgb(0, 0, 0)" stroke="rgb(204, 204, 204)" stroke-width="1px"></line><line x1="270" y1="0" x2="270" y2="5" style="visibility: inherit;" fill="rgb(0, 0, 0)" stroke="rgb(204, 204, 204)" stroke-width="1px"></line><line x1="324" y1="0" x2="324" y2="5" style="visibility: inherit;" fill="rgb(0, 0, 0)" stroke="rgb(204, 204, 204)" stroke-width="1px"></line><line x1="378" y1="0" x2="378" y2="5" style="visibility: inherit;" fill="rgb(0, 0, 0)" stroke="rgb(204, 204, 204)" stroke-width="1px"></line><line x1="432" y1="0" x2="432" y2="5" style="visibility: inherit;" fill="rgb(0, 0, 0)" stroke="rgb(204, 204, 204)" stroke-width="1px"></line><line x1="486" y1="0" x2="486" y2="5" style="visibility: inherit;" fill="rgb(0, 0, 0)" stroke="rgb(204, 204, 204)" stroke-width="1px"></line><line x1="540" y1="0" x2="540" y2="5" style="visibility: inherit;" fill="rgb(0, 0, 0)" stroke="rgb(204, 204, 204)" stroke-width="1px"></line><line x1="594" y1="0" x2="594" y2="5" style="visibility: inherit;" fill="rgb(0, 0, 0)" stroke="rgb(204, 204, 204)" stroke-width="1px"></line><line x1="648" y1="0" x2="648" y2="5" style="visibility: inherit;" fill="rgb(0, 0, 0)" stroke="rgb(204, 204, 204)" stroke-width="1px"></line></g><g transform="translate(0, 8)"><text x="0" y="0" dx="0em" dy="0.95em" style="text-anchor: middle; visibility: hidden; font-family: Roboto, sans-serif; font-size: 12px; font-weight: 200;" fill="rgb(50, 49, 63)" stroke="none" stroke-width="1px">-5M</text><text x="54" y="0" dx="0em" dy="0.95em" style="text-anchor: middle; visibility: inherit; font-family: Roboto, sans-serif; font-size: 12px; font-weight: 200;" fill="rgb(50, 49, 63)" stroke="none" stroke-width="1px">0</text><text x="108" y="0" dx="0em" dy="0.95em" style="text-anchor: middle; visibility: inherit; font-family: Roboto, sans-serif; font-size: 12px; font-weight: 200;" fill="rgb(50, 49, 63)" stroke="none" stroke-width="1px">5M</text><text x="162" y="0" dx="0em" dy="0.95em" style="text-anchor: middle; visibility: inherit; font-family: Roboto, sans-serif; font-size: 12px; font-weight: 200;" fill="rgb(50, 49, 63)" stroke="none" stroke-width="1px">10M</text><text x="216" y="0" dx="0em" dy="0.95em" style="text-anchor: middle; visibility: inherit; font-family: Roboto, sans-serif; font-size: 12px; font-weight: 200;" fill="rgb(50, 49, 63)" stroke="none" stroke-width="1px">15M</text><text x="270" y="0" dx="0em" dy="0.95em" style="text-anchor: middle; visibility: inherit; font-family: Roboto, sans-serif; font-size: 12px; font-weight: 200;" fill="rgb(50, 49, 63)" stroke="none" stroke-width="1px">20M</text><text x="324" y="0" dx="0em" dy="0.95em" style="text-anchor: middle; visibility: inherit; font-family: Roboto, sans-serif; font-size: 12px; font-weight: 200;" fill="rgb(50, 49, 63)" stroke="none" stroke-width="1px">25M</text><text x="378" y="0" dx="0em" dy="0.95em" style="text-anchor: middle; visibility: inherit; font-family: Roboto, sans-serif; font-size: 12px; font-weight: 200;" fill="rgb(50, 49, 63)" stroke="none" stroke-width="1px">30M</text><text x="432" y="0" dx="0em" dy="0.95em" style="text-anchor: middle; visibility: inherit; font-family: Roboto, sans-serif; font-size: 12px; font-weight: 200;" fill="rgb(50, 49, 63)" stroke="none" stroke-width="1px">35M</text><text x="486" y="0" dx="0em" dy="0.95em" style="text-anchor: middle; visibility: inherit; font-family: Roboto, sans-serif; font-size: 12px; font-weight: 200;" fill="rgb(50, 49, 63)" stroke="none" stroke-width="1px">40M</text><text x="540" y="0" dx="0em" dy="0.95em" style="text-anchor: middle; visibility: inherit; font-family: Roboto, sans-serif; font-size: 12px; font-weight: 200;" fill="rgb(50, 49, 63)" stroke="none" stroke-width="1px">45M</text><text x="594" y="0" dx="0em" dy="0.95em" style="text-anchor: middle; visibility: inherit; font-family: Roboto, sans-serif; font-size: 12px; font-weight: 200;" fill="rgb(50, 49, 63)" stroke="none" stroke-width="1px">50M</text><text x="648" y="0" dx="0em" dy="0.95em" style="text-anchor: middle; visibility: hidden; font-family: Roboto, sans-serif; font-size: 12px; font-weight: 200;" fill="rgb(50, 49, 63)" stroke="none" stroke-width="1px">55M</text></g><line x1="0" y1="0" x2="648" y2="0" fill="rgb(0, 0, 0)" stroke="rgb(204, 204, 204)" stroke-width="1px"></line></g></g></g></g></svg>