<svg viewBox="0 0 718 400" xmlns="http://www.w3.org/2000/svg"><g><g><g><g><g><line x1="30" y1="378" x2="25" y2="378" style="visibility: inherit;" fill="rgb(0, 0, 0)" stroke="rgb(204, 204, 204)" stroke-width="1px"></line><line x1="30" y1="330.75" x2="25" y2="330.75" style="visibility: inherit;" fill="rgb(0, 0, 0)" stroke="rgb(204, 204, 204)" stroke-width="1px"></line><line x1="30" y1="283.5" x2="25" y2="283.5" style="visibility: inherit;" fill="rgb(0, 0, 0)" stroke="rgb(204, 204, 204)" stroke-width="1px"></line><line x1="30" y1="236.25" x2="25" y2="236.25" style="visibility: inherit;" fill="rgb(0, 0, 0)" stroke="rgb(204, 204, 204)" stroke-width="1px"></line><line x1="30" y1="189" x2="25" y2="189" style="visibility: inherit;" fill="rgb(0, 0, 0)" stroke="rgb(204, 204, 204)" stroke-width="1px"></line><line x1="30" y1="141.75" x2="25" y2="141.75" style="visibility: inherit;" fill="rgb(0, 0, 0)" stroke="rgb(204, 204, 204)" stroke-width="1px"></line><line x1="30" y1="94.5" x2="25" y2="94.5" style="visibility: inherit;" fill="rgb(0, 0, 0)" stroke="rgb(204, 204, 204)" stroke-width="1px"></line><line x1="30" y1="47.25" x2="25" y2="47.25" style="visibility: inherit;" fill="rgb(0, 0, 0)" stroke="rgb(204, 204, 204)" stroke-width="1px"></line><line x1="30" y1="0" x2="25" y2="0" style="visibility: inherit;" fill="rgb(0, 0, 0)" stroke="rgb(204, 204, 204)" stroke-width="1px"></line></g><g transform="translate(20, 0)"><text x="0" y="378" dx="0em" dy="0.3em" style="text-anchor: end; visibility: hidden; font-family: Roboto, sans-serif; font-size: 12px; font-weight: 200;" fill="rgb(50, 49, 63)" stroke="none" stroke-width="1px">6</text><text x="0" y="330.75" dx="0em" dy="0.3em" style="text-anchor: end; visibility: inherit; font-family: Roboto, sans-serif; font-size: 12px; font-weight: 200;" fill="rgb(50, 49, 63)" stroke="none" stroke-width="1px">8</text><text x="0" y="283.5" dx="0em" dy="0.3em" style="text-anchor: end; visibility: inherit; font-family: Roboto, sans-serif; font-size: 12px; font-weight: 200;" fill="rgb(50, 49, 63)" stroke="none" stroke-width="1px">10</text><text x="0" y="236.25" dx="0em" dy="0.3em" style="text-anchor: end; visibility: inherit; font-family: Roboto, sans-serif; font-size: 12px; font-weight: 200;" fill="rgb(50, 49, 63)" stroke="none" stroke-width="1px">12</text><text x="0" y="189" dx="0em" dy="0.3em" style="text-anchor: end; visibility: inherit; font-family: Roboto, sans-serif; font-size: 12px; font-weight: 200;" fill="rgb(50, 49, 63)" stroke="none" stroke-width="1px">14</text><text x="0" y="141.75" dx="0em" dy="0.3em" style="text-anchor: end; visibility: inherit; font-family: Roboto, sans-serif; font-size: 12px; font-weight: 200;" fill="rgb(50, 49, 63)" stroke="none" stroke-width="1px">16</text><text x="0" y="94.5" dx="0em" dy="0.3em" style="text-anchor: end; visibility: inherit; font-family: Roboto, sans-serif; font-size: 12px; font-weight: 200;" fill="rgb(50, 49, 63)" stroke="none" stroke-width="1px">18</text><text x="0" y="47.25" dx="0em" dy="0.3em" style="text-anchor: end; visibility: inherit; font-family: Roboto, sans-serif; font-size: 12px; font-weight: 200;" fill="rgb(50, 49, 63)" stroke="none" stroke-width="1px">20</text><text x="0" y="0" dx="0em" dy="0.3em" style="text-anchor: end; visibility: hidden; font-family: Roboto, sans-serif; font-size: 12px; font-weight: 200;" fill="rgb(50, 49, 63)" stroke="none" stroke-width="1px">22</text></g><line x1="30" y1="0" x2="30" y2="378" fill="rgb(0, 0, 0)" stroke="rgb(204, 204, 204)" stroke-width="1px"></line></g></g><g transform="translate(30, 0)" clip-path="url(#clip_0)"><clipPath id="clip_0"><rect width="688" height="378"></rect></clipPath><g><g><g><line x1="0" y1="0" x2="0" y2="378" fill="rgb(0, 0, 0)" stroke="rgb(60, 60, 60)" stroke-width="1px" opacity="0.25"></line><line x1="57.33333333333333" y1="0" x2="57.33333333333333" y2="378" fill="rgb(0, 0, 0)" stroke="rgb(60, 60, 60)" stroke-width="1px" opacity="0.25"></line><line x1="114.66666666666666" y1="0" x2="114.66666666666666" y2="378" fill="rgb(0, 0, 0)" stroke="rgb(60, 60, 60)" stroke-width="1px" opacity="0.25"></line><line x1="172" y1="0" x2="172" y2="378" fill="rgb(0, 0, 0)" stroke="rgb(60, 60, 60)" stroke-width="1px" opacity="0.25"></line><line x1="229.33333333333331" y1="0" x2="229.33333333333331" y2="378" fill="rgb(0, 0, 0)" stroke="rgb(60, 60, 60)" stroke-width="1px" opacity="0.25"></line><line x1="286.6666666666667" y1="0" x2="286.6666666666667" y2="378" fill="rgb(0, 0, 0)" stroke="rgb(60, 60, 60)" stroke-width="1px" opacity="0.25"></line><line x1="344" y1="0" x2="344" y2="378" fill="rgb(0, 0, 0)" stroke="rgb(60, 60, 60)" stroke-width="1px" opacity="0.25"></line><line x1="401.33333333333337" y1="0" x2="401.33333333333337" y2="378" fill="rgb(0, 0, 0)" stroke="rgb(60, 60, 60)" stroke-width="1px" opacity="0.25"></line><line x1="458.66666666666663" y1="0" x2="458.66666666666663" y2="378" fill="rgb(0, 0, 0)" stroke="rgb(60, 60, 60)" stroke-width="1px" opacity="0.25"></line><line x1="516" y1="0" x2="516" y2="378" fill="rgb(0, 0, 0)" stroke="rgb(60, 60, 60)" stroke-width="1px" opacity="0.25"></line><line x1="573.3333333333334" y1="0" x2="573.3333333333334" y2="378" fill="rgb(0, 0, 0)" stroke="rgb(60, 60, 60)" stroke-width="1px" opacity="0.25"></line><line x1="630.6666666666666" y1="0" x2="630.6666666666666" y2="378" fill="rgb(0, 0, 0)" stroke="rgb(60, 60, 60)" stroke-width="1px" opacity="0.25"></line><line x1="688" y1="0" x2="688" y2="378" fill="rgb(0, 0, 0)" stroke="rgb(60, 60, 60)" stroke-width="1px" opacity="0.25"></line></g><g><line x1="0" y1="378" x2="688" y2="378" fill="rgb(0, 0, 0)" stroke="rgb(60, 60, 60)" stroke-width="1px" opacity="0.25"></line><line x1="0" y1="330.75" x2="688" y2="330.75" fill="rgb(0, 0, 0)" stroke="rgb(60, 60, 60)" stroke-width="1px" opacity="0.25"></line><line x1="0" y1="283.5" x2="688" y2="283.5" fill="rgb(0, 0, 0)" stroke="rgb(60, 60, 60)" stroke-width="1px" opacity="0.25"></line><line x1="0" y1="236.25" x2="688" y2="236.25" fill="rgb(0, 0, 0)" stroke="rgb(60, 60, 60)" stroke-width="1px" opacity="0.25"></line><line x1="0" y1="189" x2="688" y2="189" fill="rgb(0, 0, 0)" stroke="rgb(60, 60, 60)" stroke-width="1px" opacity="0.25"></line><line x1="0" y1="141.75" x2="688" y2="141.75" fill="rgb(0, 0, 0)" stroke="rgb(60, 60, 60)" stroke-width="1px" opacity="0.25"></line><line x1="0" y1="94.5" x2="688" y2="94.5" fill="rgb(0, 0, 0)" stroke="rgb(60, 60, 60)" stroke-width="1px" opacity="0.25"></line><line x1="0" y1="47.25" x2="688" y2="47.25" fill="rgb(0, 0, 0)" stroke="rgb(60, 60, 60)" stroke-width="1px" opacity="0.25"></line><line x1="0" y1="0" x2="688" y2="0" fill="rgb(0, 0, 0)" stroke="rgb(60, 60, 60)" stroke-width="1px" opacity="0.25"></line></g></g></g><g><g><line x1="0" y1="519.75" x2="688" y2="519.75" fill="rgb(0, 0, 0)" stroke="rgb(153, 153, 153)" stroke-width="1.5px"></line></g></g><g><g><line x1="57.33333333333333" y1="0" x2="57.33333333333333" y2="378" fill="rgb(0, 0, 0)" stroke="rgb(153, 153, 153)" stroke-width="1.5px"></line></g></g><g><g><g><g><g><path stroke="rgb(255, 112, 67)" stroke-width="2px" d="M88.8497304,408.28328238679876L89.4411696,348.9199694307464L90.98019120000001,332.2019816582226L91.52173893333334,445.0211889958455L91.7683296,380.41271339719395L92.46278533333334,369.99762803828605L92.86547173333332,307.0485768228617L93.17165466666667,297.6291460937072L93.23429706666666,291.9774876562208L93.48197706666667,250.78649259371693L94.41474453333333,197.72189555621813L95.39602746666667,175.33313733372785L95.44614826666667,152.44988240023483L95.53703306666667,223.76992944014438L95.82801119999999,257.11195766408764L95.937988,258.21717459845263L97.48574719999999,221.08030475907117L98.07907840000001,255.4981828554429L98.96438533333333,276.1489097132658L100.12941013333334,269.6393458279594L101.20416933333333,237.38360749677562L101.22945333333332,218.03016449806535L102.23169733333333,206.41809869883923L102.68752026666667,218.35085921930352L102.76732826666667,178.2605155315821L103.72497840000001,220.35630931894926L103.81313413333334,160.5637855913695L104.227184,171.93827135482178L104.80046,159.86296281289304L105.08286106666667,114.8177776877358L105.9308784,182.29066661264147L106.13522586666666,166.0743999675849L107.08220053333334,156.34463998055094L107.48318986666668,141.05678398833058L107.96466373333334,122.43407039299834L108.02487520000001,158.51044223579896L108.20345706666667,161.25626534147938L109.97723573333333,144.00375920488761L111.7304088,124.2022555229326L112.05675013333334,140.6713533137596L113.01061626666666,150.55281198825577L113.25534933333333,165.93168719295343L114.06457493333333,137.3590123157721L114.57314453333332,129.66540738946324L114.59564213333334,96.69924443367802L115.06233546666668,86.36954666020681L117.29017119999999,108.52172799612407L117.52582266666667,93.46303679767443L117.77089973333334,122.22782207860466L118.04213226666666,111.13669324716284L120.78300960000001,142.28201594829767L121.51176213333333,113.71920956897864L123.49523173333333,96.58152574138717L124.48423173333333,114.64891544483231L125.31124213333332,87.68934926689946L126.32339333333333,118.76360956013967L126.444252,118.50816573608378L126.75861066666667,99.45489944165026L126.93853413333333,88.02293966499015L127.00832026666667,109.51376379899409L127.50348533333333,84.60825827939642L127.96450266666668,79.11495496763787L128.30009760000002,123.06897298058276L128.60435413333332,121.0913837883496L129.7161048,119.90483027300972L129.7384648,100.29289816380582L130.2528136,88.52573889828349L130.91397013333332,100.36544333897004L131.10855946666666,88.56926600338203L131.29099413333333,128.74155960202918L132.2761528,105.59493576121753L132.48332106666666,110.60696145673053L132.8515616,179.76417687403833L133.07016213333335,174.008506124423L133.46344586666666,151.65510367465382L133.60703146666668,157.1430622047923L133.912664,122.63583732287537L133.9346456,111.38150239372524L133.95971173333334,142.42890143623518L134.2882088,104.35734086174112L134.70221279999998,109.86440451704468L135.340608,75.36864271022682L135.85738773333333,101.92118562613611L136.1007448,98.95271137568169L136.50027786666666,87.72162682540898L138.6649896,156.58297609524539L138.89322213333332,122.2997856571472L139.14670426666666,148.9798713942883L140.57772133333333,155.537922836573L141.75506133333332,159.47275370194382L141.7766072,124.03365222116629L142.2578632,168.92019133269977L142.2846952,176.9521147996199L142.6355408,125.07126887977198L143.22996133333334,93.94276132786315L144.2937928,84.7156567967179L144.45520906666667,79.1793940780307L144.85804453333333,113.65763644681844L145.4162648,105.99458186809105L145.96629786666665,101.3967491208546L146.04352586666667,136.43804947251272L146.90907573333334,129.1128296835076L148.06009973333335,96.36769781010462L149.1517608,95.62061868606277L150.43242693333332,76.27237121163763L150.93776293333332,83.5634227269826L151.11698693333335,87.9380536361896L151.3246024,100.01283218171375L151.9276344,126.1576993090282L152.86203013333335,132.39461958541693L152.92685120000002,98.33677175125011L153.65009973333332,106.25206305075L154.02266319999998,82.65123783044997L154.951704,96.84074269826995L155.01866933333332,86.454445618962L155.1079832,70.77266737137722L155.26878026666665,61.36360042282638L155.33469066666666,46.2681602536958L155.7761,75.01089615221746L156.31752160000002,111.15653769133047L157.45391413333334,95.04392261479825L157.94702666666666,104.27635356887893L159.50162,72.01581214132733L159.54979146666668,71.55948728479643L160.78293973333334,61.83569237087782L161.08592346666666,84.35141542252666L161.22308773333333,88.41084925351603L161.500432,90.8465095521096L161.57613493333335,92.30790573126578L162.47447946666665,64.83474343875946L163.35470666666666,76.70084606325565L163.4000458666667,74.37050763795338L163.61963253333332,110.77230458277207L163.8756144,75.91338274966323L164.0129048,54.998029649797985L164.1763048,51.898817789878855L165.0364768,78.38929067392728L165.63863733333332,103.73357440435633L165.93636933333335,81.14014464261386L166.01433120000002,95.93408678556825L166.53264746666665,95.36045207134096L167.39239519999998,95.01627124280459L167.64947786666667,104.2597627456827L168.50616399999998,147.60585764740966L169.25304533333332,164.16351458844576L170.71683413333332,136.29810875306745L170.96636026666667,119.57886525184047L173.6963672,90.6473191511043L173.95600693333336,92.1883914906626L175.91256426666666,83.66303489439754L176.00434346666668,87.99782093663852L176.5925605333333,128.39869256198307L177.7528381333333,124.2892155371898L178.62174773333334,112.3735293223139L179.6028242666667,86.32411759338834L179.65284186666668,70.69447055603295L179.81637946666666,70.76668233361977L180.03024426666664,61.3600094001719L180.60028666666668,112.41600564010314L181.7422864,124.14960338406188L183.06950719999998,121.73976203043706L183.14204533333333,91.94385721826231L183.16821226666667,102.41631433095732L183.36774373333336,118.14978859857442L184.28943439999998,89.78987315914462L184.9533888,91.67392389548677L185.38689760000003,83.35435433729202L185.87136426666666,87.81261260237522L186.61399146666665,81.03756756142516L186.88457039999997,86.42254053685507L188.93467280000002,108.55352432211308L189.1403389333333,74.58211459326785L189.18482960000003,63.649268755960776L190.17734986666665,85.43956125357643L190.26542533333333,60.71373675214583L190.622268,74.22824205128747L190.69496666666666,110.68694523077255L190.71905813333333,123.11216713846352L191.45761466666667,130.56730028307808L191.7582592,116.14038016984684L192.33643146666668,79.13422810190809L192.63044826666666,66.38053686114488L192.9960744,134.32832211668693L193.2082994666667,108.94699327001211L193.28176639999998,112.6181959620073L193.98804426666666,86.47091757720442L194.5467232,80.23255054632267L194.6135968,76.48953032779359L195.5294624,74.24371819667611L195.7128602666667,72.8962309180057L196.47307733333335,72.0877385508034L197.42486799999998,62.15264313048205L197.62736933333332,56.19158587828928L197.745648,62.06495152697359L198.8908698666667,46.68897091618413L199.1537432,37.463382549710495L202.4716346666667,50.82802952982632L203.91820053333333,39.946817717895755L204.5609072,71.21809063073742L205.08101226666668,80.53085437844247L206.22922693333334,86.11851262706547L207.0286944,89.47110757623932L207.31804426666667,82.0326645457436L208.9153968,58.66959872744614L209.09542346666666,73.00175923646768L209.65970959999999,81.60105554188061L210.01377733333334,67.8606333251284L210.28379439999998,87.96637999507708L211.26527226666667,109.47982799704629L212.62614773333334,84.58789679822779L212.67006506666667,69.65273807893665L213.11658853333333,98.49164284736202L213.23228719999997,68.54498570841722L213.27266133333333,50.576991425050366L213.31681946666666,39.7961948550302L215.2191624,33.32771691301811L215.625048,38.89663014781086L216.45268906666666,61.13797808868648L216.93835973333333,46.132786853211854L217.68205333333333,46.57967211192712L217.7237576,46.847803267156266L218.27983360000002,47.008681960293764L218.29991173333332,47.105209176176274L218.41772026666666,56.61312550570577L218.52172293333334,62.31787530342349L220.8677914666667,46.84072518205408L222.11789893333335,47.004435109232446L222.1812408,66.00266106553946L222.52846293333334,77.40159663932366L222.6376944,55.89095798359418L222.93265146666664,52.43457479015655L223.0450936,50.360744874093896L223.4079792,96.36644692445637L223.51868986666665,86.16986815467382L223.72969946666666,117.85192089280433L224.11969226666665,127.41115253568258L225.4421888,161.4966915214095L226.5269584,134.69801491284574L226.75548906666668,109.16880894770746L227.22502613333333,93.85128536862445L228.39013119999998,65.76077122117466L229.30917306666666,67.8064627327048L229.5008154666667,125.73387763962292L229.69934933333334,84.89032658377377L230.0523392,69.8341959502643L231.00240986666665,79.70051757015855L231.07220746666664,57.27031054209512L231.33560826666667,43.81218632525702L232.37849013333334,45.18731179515418L232.76902186666666,46.012387077092576L232.88798853333333,46.50743224625556L232.93105733333334,56.25445934775334L234.2407456,90.45267560865202L235.7635762666667,92.07160536519117L235.83316746666668,83.59296321911472L235.98037653333336,87.95577793146884L236.9112176,71.67346675888137L237.26410426666666,109.15408005532886L237.97389093333334,93.84244803319731L239.05790373333335,75.20546881991835L239.55098186666666,101.82328129195099L240.36377359999997,98.89396877517062L241.05508746666666,87.68638126510238L241.3993168,90.41182875906145L241.72638053333336,101.49709725543684L243.05833706666667,79.79825835326213L243.30890666666667,57.32895501195725L243.33131253333335,72.19737300717433L243.98422453333333,109.46842380430459L244.08600266666667,160.18105428258275L244.13794666666666,152.80863256954967L244.42422346666666,157.83517954172981L244.98998880000002,123.05110772503788L245.27965973333335,111.63066463502274L245.4604432,114.22839878101362L245.59541733333336,87.43703926860817L245.85926533333333,71.36222356116497L246.04776586666668,61.717334136699016L246.09367840000002,65.38040048201943L247.01496773333335,58.128240289211675L247.2092818666667,44.32694417352699L247.25463253333334,54.946166504116206L248.04048906666665,51.867699902469695L248.16889279999998,50.02061994148181L248.542408,48.912371964889125L250.09958133333333,48.24742317893344L250.16728053333333,38.39845390736008L250.7654392,60.83907234441607L251.65214506666666,64.85344340664962L251.67663786666668,86.16206604398977L252.28879733333332,61.14723962639391L252.69049760000001,46.13834377583632L252.96475733333335,65.48300626550179L253.07280773333335,86.53980375930104L253.99725039999998,80.27388225558066L254.14975706666667,85.96432935334843L254.79427546666668,79.92859761200909L256.09656773333336,142.45715856720543L257.4541752,123.27429514032329L258.1844298666667,83.414577084194L259.19098533333334,116.19874625051636L259.6937986666667,107.51924775030982L260.1268717333333,102.31154865018591L260.1502064,89.73692919011151L260.79651359999997,119.9921575140669L261.34897759999996,90.89529450844013L261.6617768,101.78717670506411L262.27639013333334,89.42230602303843L262.7581048,82.00338361382306L263.0801232,77.55203016829385L263.19406746666664,65.43121810097637L264.4370082666667,95.95873086058585L264.6907197333333,104.82523851635148L265.01076586666665,147.9451431098109L265.46531600000003,136.01708586588651L265.78230053333334,91.06025151953193L267.5867984,73.53615091171918L268.24897546666665,53.57169054703147L268.850964,60.49301432821887L268.9945037333333,102.4458085969313L269.20372453333334,89.81748515815882L270.4345336,82.24049109489526L270.6307741333333,58.794294656937154L271.35873546666664,54.17657679416226L271.4519709333333,70.30594607649734L272.17755866666664,89.43356764589835L272.31367946666666,100.91014058753905L272.7305616,98.3460843525234L272.8820133333333,96.80765061151403L273.54696533333333,67.53459036690843L273.5925224,59.420754220145014L274.1051397333333,82.90245253208698L274.15806986666666,125.34147151925221L275.21108826666665,94.1048829115514L275.44339146666664,84.81292974693088L276.1947677333333,60.33775784815849L276.30682,55.10265470889506L276.4758157333333,61.411592825337L277.3896746666667,55.74695569520217L277.4988144,80.69817341712127L278.9698501333333,86.21890405027273L279.4768602666667,70.63134243016366L280.1133749333334,61.278805458098205L280.70889626666667,84.01728327485895L282.13435200000004,69.31036996491544L282.2215789333333,51.03622197894925L282.9560992,40.07173318736953L284.4127557333333,33.4930399124217L285.3449384,38.99582394745304L286.2721674666667,51.74749436847184L286.56144853333336,49.94849662108315L286.6041962666667,39.41909797264991L286.764936,99.25145878358991L287.1263194666667,97.35087527015398L287.5748152,86.76052516209242L287.91665946666666,108.75631509725544L288.2077981333333,74.70378905835328L288.323428,73.172273435012L288.5615562666667,72.25336406100719L290.193584,62.252018436604324L290.9489506666667,75.15121106196256L292.1377,82.89072663717751L292.3663912,106.43443598230648L292.5823314666667,101.66066158938392L292.8137288,79.89639695363037L293.4527890666667,85.73783817217819L293.757424,89.24270290330692L295.2298930666667,138.59562174198413L295.2547528,130.40737304519052L295.71838453333334,97.14442382711431L296.0056474666667,86.6366542962686L296.19124693333333,70.88199257776111L297.15388506666665,61.429195546656686L297.17596986666666,74.65751732799404L297.61886986666667,82.59451039679642L298.59459146666666,68.45670623807784L298.85658186666666,59.97402374284674L299.1748392,111.58441424570805L299.4604394666667,76.40064854742481L299.8515904,64.74038912845484L300.4575464,76.64423347707287L300.69472293333337,74.3365400862437L300.99331493333335,91.85192405174627L301.722056,121.26115443104783L301.7461474666666,91.65669265862871L301.7673608,73.89401559517728L302.0059248,53.7864093571064L302.2982904,60.621845614263854L302.4383672,159.22310736855832L302.62097386666665,133.333864421135L302.75548933333334,117.80031865268103L304.380316,89.58019119160868L304.9915352,63.19811471496517L305.70728453333334,85.16886882897909L306.1067488,70.0013212973875L307.30582960000004,70.35079277843246L307.68294533333335,89.46047566705948L307.8448317333333,91.47628540023572L309.0753312,83.23577124014142L309.3375853333333,68.84146274408486L310.78494240000003,107.45487764645088L310.8462776,73.92292658787055L310.8656562666667,53.80375595272231L312.01258666666666,51.18225357163345L313.18615413333333,49.60935214298011L313.33073733333333,48.665611285788096L313.3532808,95.34936677147287L313.4894589333333,95.0096200628837L314.4693544,94.80577203773018L314.86073466666664,75.78346322263806L315.8768533333333,111.6200779335828L316.1646208,123.67204676014968L316.6799557333333,93.10322805608982L317.0671048,65.31193683365385L317.5004072,67.53716210019232L317.72523413333334,97.22229726011538L317.7704816,115.03337835606922L319.22129013333335,106.82002701364152L319.45773280000003,130.2420162081849L319.64124533333336,115.94520972491094L320.13036746666666,116.8171258349465L320.2913938666667,107.89027550096792L320.7270469333333,111.98416530058074L322.3646704,246.74049918034848L323.6346610666667,166.9442995082091L325.4492954666667,119.06657970492549L326.5035522666667,137.58994782295525L326.52649706666665,101.4539686937731L326.6376893333333,79.77238121626384L326.829756,104.56342872975831L327.26803493333335,128.888057237855L328.1939568,134.03283434271302L328.7594469333333,137.1197006056278L328.89037333333334,110.62182036337666L328.9106349333333,85.27309221802597L329.7138290666667,79.5138553308156L329.9572205333333,66.6083131984894L330.8587528,77.76498791909363L330.9524469333333,93.90899275145622L331.0852653333333,75.24539565087375L331.23399946666666,64.04723739052424L331.2589968,123.47834243431451L333.6079090666667,111.88700546058871L333.63356,104.93220327635325L335.1032082666667,100.7593219658119L335.3243888,88.80559317948713L335.4483664,100.53335590769233L336.2538768,69.77001354461538L336.37573306666667,79.66200812676925L336.6714010666667,66.69720487606155L336.7247784,68.36832292563696L338.1640056,116.62099375538216L339.2017618666667,98.3225962532293L339.3767776,68.44355775193756L340.1371896,50.51613465116255L342.1532704,105.90968079069755L343.15838106666666,129.6958084744185L343.6360021333333,125.06748508465112L343.8362904,103.39049105079064L344.3377506666667,71.48429463047438L345.04742266666665,99.59057677828467L345.0965573333333,88.10434606697083L345.1850456,62.3126076401825L345.6913677333334,56.28756458410947L345.76118826666664,43.222538750465645L345.86362,63.73352325027937L346.24507013333334,66.59011395016763L346.4469064,49.40406837010058L346.5843688,48.54244102206035L347.4268133333333,66.92546461323622L348.27678000000003,49.60527876794174L348.6716805333333,95.91316726076506L349.94045573333335,66.99790035645906L350.8976816,68.54874021387545L351.08099920000006,69.47924412832529L352.44614026666665,79.48754647699518L353.3885168,57.1425278861971L353.48514639999996,119.3355167317183L354.230904,99.95131003903094L354.8288792,97.77078602341854L355.65681839999996,96.46247161405113L356.38715333333334,86.22748296843065L356.4295914666667,70.63648978105836L356.7203517333333,99.08189386863505L357.585592,116.14913632118099L357.87517119999995,88.5894817927086L358.52298053333334,100.40368907562515L358.61956426666666,116.94221344537507L358.667128,107.96532806722509L359.1463314666667,83.67919684033505L359.17114533333336,97.45751810420103L359.51073066666663,105.72451086252067L359.7995416,82.3347065175124L360.3973562666667,77.7508239105074L360.44178959999994,56.100494346304444L360.4904082666667,80.91029660778263L362.2142381333333,67.44617796466964L363.2909466666666,78.26770677880182L364.37109519999996,56.41062406728109L365.7479093333333,43.29637444036864L367.45613306666667,82.67782466422123L367.66921813333335,68.5066947985328L369.2328930666667,60.00401687911965L370.22043679999996,64.35241012747183L370.31432586666665,57.51144607648311L370.7086186666666,62.856867645889864L371.24387119999994,84.96412058753393L371.9189482666667,107.6784723525204L372.0053266666667,74.05708341151221L372.4972810666667,72.7842500469073L372.7885917333333,62.57055002814444L373.12783306666665,56.44233001688666L373.3995013333333,62.21539801013201L373.42468213333336,94.02923880607919L373.6926352,103.66754328364755L374.6346104,137.80052597018852L374.72243360000004,120.48031558211314L376.92145359999995,110.08818934926785L377.4370637333334,94.40291360956074L377.82764133333336,94.44174816573644L378.3541562666667,75.56504889944192L378.61225946666667,64.23902933966512L379.5816514666667,76.34341760379911L380.64208879999995,102.50605056227946L381.5498589333334,89.85363033736769L382.25356826666666,82.26217820242066L383.12558533333333,58.80730692145239L384.6933194666667,82.53438415287145L384.89546533333333,106.2206304917229L384.91580719999996,82.63237829503375L385.3424589333333,115.72942697702028L385.531808,97.78765618621213L385.96157866666664,124.82259371172731L386.26625946666667,103.24355622703641L387.14232426666666,90.2961337362218L387.59452373333335,148.67768024173307L387.64240853333337,164.80660814503983L387.70845653333333,146.1339648870239L388.01841199999996,97.13037893221434L388.9968741333333,86.62822735932862L389.322344,80.32693641559719L389.78187066666663,67.09616184935835L391.2854832,78.05769710961505L391.95604239999994,94.08461826576895L392.3753669333334,94.2507709594614L393.2896042666667,75.45046257567688L393.88685706666666,73.62027754540613L395.1607808,63.072166527243645L395.37490933333333,103.9932999163462L395.9655458666667,71.84597994980777L396.89880639999996,52.557587969884665L398.1752872,50.43455278193086L398.43064986666667,68.06073166915854L398.73040000000003,106.98643900149517L399.01594293333335,111.44186340089709L399.4311968,114.11511804053826L399.8571376,87.36907082432303L400.1205154666667,146.9214424945938L400.2661536,173.20286549675632L400.5484170666667,151.17171929805377L400.9405082666667,119.05303157883228L400.9637970666667,90.33181894729941L401.7530706666667,91.99909136837962L401.90962506666665,64.6494548210278L403.86080453333335,86.03967289261665L403.9802528,61.073803735569975L404.1501658666666,64.99428224134198L404.29826933333334,67.34656934480522L405.05056293333337,49.85794160688312L405.07090480000005,48.81476496412987L405.18917200000004,67.0888589784779L405.5146189333333,87.50331538708674L405.6980397333333,90.30198923225207L405.7237938666667,91.98119353935124L407.2750962666667,64.63871612361075L407.3178554666667,57.68322967416651L408.2469306666667,110.2099378044999L408.2691301333333,85.02596268269998L409.2213221333334,88.81557760962002L410.3151504,81.63934656577204L410.8308637333333,58.43360793946323L413.15761093333333,72.86016476367791L413.5169074666667,90.9660988582068L413.91654373333336,101.82965931492406L414.1125664,98.89779558895441L414.90581893333336,78.23867735337262L415.6447768,75.29320641202358L415.9476573333333,82.97592384721416L416.0506509333334,97.03555430832851L416.7812496,77.12133258499715L417.2837304,84.07279955099833L417.38349039999997,88.24367973059898L417.71288186666663,100.19620783835943L419.5256242666667,97.91772470301565L420.6255986666667,96.55063482180935L420.6488989333333,67.38038089308563L420.7393136,78.2282285358514L421.40285520000003,75.28693712151087L421.68360506666664,82.97216227290649L421.91659626666666,78.13329736374392L422.0093042666667,75.22997841824638L422.3426746666667,54.58798705094784L422.6773981333334,51.65279223056871L423.19855813333334,68.79167533834121L423.4017474666667,116.87500520300472L423.71059066666663,89.02500312180278L426.4552061333333,318.0150018730817L426.81782799999996,228.609001123849L427.1597984,174.9654006743094L427.4581381333333,142.77924040458564L427.67112000000003,123.46754424275139L428.31090266666666,83.53052654565082L428.7370384,78.46831592739049L429.12735226666666,160.48098955643428L429.26457386666664,124.63859373386056L429.6184237333333,93.68315624031635L429.7485704,84.5598937441898L430.3833421333333,60.18593624651386L430.4295069333333,64.46156174790833L433.17328533333335,57.576937048745L433.7166448,62.89616222924697L433.8289264,47.187697337548194L434.5572202666667,75.56261840252886L435.6304085333333,73.68757104151727L435.86196640000003,91.46254262491037L436.5490490666666,83.22752557494626L436.81097066666666,78.28651534496778L437.5526002666667,84.7719092069807L437.62722533333334,117.01314552418842L437.8446677333333,126.90788731451305L437.98776026666667,85.59473238870783L438.3347186666667,60.80683943322472L438.62186693333337,55.384103659934866L439.6805154666667,118.2804621959609L440.7961074666666,99.31827731757653L440.82073786666666,116.29096639054595L442.1785288,117.0245798343275L442.9229677333333,79.66474790059654L443.36693413333336,76.14884874035789L443.6020581333333,64.58930924421476L444.39119413333333,67.10358554652889L445.0819346666667,59.16215132791737L445.3510344,54.39729079675044L445.5322421333333,60.98837447805023L446.8866848,46.04302468683015L446.9104896,55.97581481209813L448.03595440000004,61.93548888725891L448.10204826666666,65.51129333235532L448.14602293333337,48.7567759994132L448.2780730666667,38.70406559964792L449.78564159999996,32.672439359788754L450.5516722666667,47.95346361587322L451.5730312,47.67207816952398L452.0014488,94.75324690171439L452.0679210666667,66.30194814102862L452.3636464,68.13116888461714L453.7799861333333,78.6787013307703L455.33460240000005,75.55722079846218L456.44753413333336,83.13433247907734L456.4931370666667,59.330599487446435L456.72209200000003,73.39835969246789L457.5013552,62.93901581548081L457.71051866666664,85.01340948928852L459.36020506666665,79.35804569357315L459.45422026666665,85.41482741614385L460.77108666666663,60.69889644968628L461.3120496,93.11933786981174L461.7123853333334,93.67160272188701L462.41641573333334,94.00296163313223L462.46426613333335,84.75177697987935L462.81356373333335,79.20106618792761L462.8795429333333,56.97063971275659L463.43155973333336,62.53238382765399L464.3889690666667,65.86943029659243L464.47706746666665,77.32165817795548L465.66342026666666,55.84299490677326L465.9824,42.95579694406399L466.8806528,158.0734781664384L466.95170026666665,151.54408689986303L467.3985677333333,119.27645213991782L468.45045093333334,137.71587128395078L468.5996781333333,92.07952277037047L468.6230930666666,102.4977136622223L469.0018485333334,80.39862819733338L469.2627725333333,104.93917691840002L470.9961770666667,148.01350615104L471.046252,126.60810369062398L471.49430053333333,104.31486221437434L471.79339706666667,81.48891732862467L472.02975946666663,115.04335039717479L472.22417679999995,116.27601023830486L474.82858933333335,117.01560614298292L475.51318373333334,98.55936368578972L475.68912826666667,68.58561821147384L477.59416586666663,50.60137092688427L477.7610632,58.71082255613058L478.6851618666667,73.02649353367833L479.92830906666666,91.06589612020697L480.2927312,101.88953767212422L480.31726986666666,108.38372260327452L480.66553546666665,93.38023356196473L481.1996413333333,112.72814013717884L481.61450533333334,95.98688408230733L481.81373866666667,67.04213044938437L482.6014184,78.0252782696306L483.29634426666667,65.71516696177834L483.45560479999995,86.67910017706693L484.53300133333335,80.35746010624018L485.67145786666663,76.56447606374411L485.8846117333334,55.38868563824644L486.04039786666664,61.58321138294785L486.0630904,74.74992682976874L486.1601672,129.89995609786124L487.06446293333335,181.8899736587167L487.32074293333335,137.48398419523005L487.72826826666665,120.29039051713804L488.0145450666667,119.4242343102828L489.0163074666667,90.55454058616968L489.08761866666663,111.03272435170186L489.71551039999997,94.96963461102114L489.8686018666667,104.23178076661267L490.3572424,90.8890684599676L490.71982986666666,92.33344107598055L490.91410959999996,74.30006464558836L491.4073138666667,91.83003878735299L491.6740858666667,92.89802327241179L491.8564861333333,93.53881396344704L491.95070773333333,131.72328837806822L492.049,116.83397302684094L493.6654789333333,98.45038381610456L495.2740802666667,106.32023028966277L496.5820256,73.24213817379764L496.88478,81.74528290427858L497.56786080000006,96.29716974256714L498.24937066666666,123.92830184554028L498.2732328,131.05698110732416L498.5405437333333,97.53418866439449L498.8204221333333,67.97051319863664L499.1752122666667,69.13230791918203L499.3909002666667,60.379384751509214L499.7148565333333,92.92763085090556L500.0042178666667,65.20657851054335L500.2115352,48.57394710632601L500.9731397333333,76.39436826379561L502.4782773333333,74.1866209582774L503.2002530666667,53.96197257496644L503.32374906666666,70.17718354497984L503.34571919999996,79.90631012698795L503.6176512,85.74378607619273L503.8720392,89.24627164571562L506.4308946666667,176.3977629874294L506.45496319999995,153.08865779245764L506.6061168,120.20319467547458L506.6762125333333,81.57191680528473L506.9600928,67.8431500831708L507.2943576,59.60589004990245L509.1223850666667,64.11353402994146L509.7539461333334,47.918120417964914L509.8903765333334,47.65087225077892L509.91683013333335,85.29052335046737L510.7131786666667,60.62431401028042L511.2910184,83.6245884061682L511.8855765333334,78.52475304370095L512.8943909333333,84.91485182622061L512.9650256,107.64891109573234L513.4694327999999,83.48934665743943L514.3452224,87.8936079944637L514.5890152,90.53616479667824L514.6819181333334,73.22169887800689L514.7017210666667,62.83301932680416L516.9137328,66.04981159608246L516.958384,58.529886957649495L517.0708146666666,63.46793217458966L518.4562517333334,104.2307593047538L518.5028064,119.23845558285223L519.2288757333333,99.8930733497113L519.4711778666666,144.9858440098268L520.6141408,124.79150640589609L520.8053245333333,93.7749038435377L521.1554133333334,65.71494230612262L521.3936792,48.87896538367354L521.4933818666667,76.57737923020406L521.81446,74.29642753812244L522.8712394666667,63.47785652287347L523.0709314666667,56.9867139137241L523.6135685333334,62.542028348234496L523.6884573333333,103.6752170089407L524.7588248,128.35513020536442L526.4275802666666,114.81307812321866L526.8090648,78.3378468739312L527.3131509333333,94.25270812435866L527.4743264,84.90162487461518L528.3981728,98.19097492476907L529.8336962666666,96.71458495486145L529.8873832,143.07875097291685L529.9735552,114.19725058375009L531.6679386666666,115.76835035025006L532.1292197333333,78.91101021015008L532.9140213333333,94.59660612609008L533.2848877333333,66.20796367565403L533.5457544,68.07477820539245L534.5762178666666,50.294866923235475L534.9529552,39.626920153941285L534.9728384,33.226152092364785L535.0645717333334,67.18569125541887L535.3664661333333,68.66141475325132L535.7140781333334,60.096848851950796L537.1446136000001,64.40810931117045L538.0041434666666,85.89486558670227L538.5032645333333,79.88691935202137L542.6766381333333,76.2821516112128L543.1511517333333,93.01929096672772L543.8240272,112.51157458003664L544.5449709333333,95.85694474802202L544.7358106666667,76.41416684881321L545.1734589333333,55.29850010928789L545.6052936,108.77910006557273L546.6535189333333,178.66746003934364L546.8596208,126.10047602360616L547.326532,122.91028561416373L547.8453757333333,102.09617136849822L548.3943882666666,89.60770282109895L548.799024,110.4646216926594L548.8725712,132.42877301559565L548.9425866666667,98.35726380935739L549.787852,77.91435828561448L550.413416,56.19861497136868L550.8414666666666,80.96916898282119L550.8894088000001,143.0815013896927L552.8739333333333,161.44890083381563L553.1251909333333,125.21934050028939L553.744024,122.38160430017363L554.3623640000001,120.67896258010411L554.9456045333334,129.10737754806246L555.0124781333334,96.36442652883746L557.4507616,76.71865591730248L557.5387568,55.48119355038155L557.8985922666667,42.73871613022892L557.9485869333333,129.59322967813733L558.0637696,143.9059378068824L558.1898914666666,95.79356268412941L558.4927375999999,76.37613761047761L558.671824,74.17568256628654L559.4903032,110.65540953977194L559.8615136000001,104.1932457238632L561.5172429333334,100.3159474343179L561.6255112,69.63956846059072L562.1183829333334,70.13374107635441L562.1692949333334,108.23024464581269L562.4464557333333,121.6381467874876L562.6328349333334,129.68288807249257L562.7803994666667,96.70973284349562L563.3845896,76.92583970609743L563.4801069333333,65.05550382365843L564.0685189333333,95.73330229419506L564.3504727999999,133.03998137651703L564.8759901333334,108.1739888259102L565.1462136,74.35439329554617L565.9228968,129.66263597732768L567.4370930666666,96.69758158639667L567.7413037333333,133.618548951838L568.43506,117.97112937110276L568.6898034666667,108.58267762266165L569.5007605333333,112.39960657359697L569.7496330666667,124.13976394415815L572.2273733333334,102.83385836649491L572.2740197333334,71.15031501989694L572.4892376,61.590189011938214L572.5830808,65.30411340716294L572.6096834666668,58.08246804429782L572.7720400000001,63.19948082657866L573.1373106666666,85.16968849594723L573.2468058666666,79.4518130975683L574.3042389333333,57.12108785854097L574.3921309333333,72.07265271512455L574.4358648,62.14359162907474L575.3430271999999,122.33615497744485L575.4182944,120.65169298646691L575.7361274666666,100.74101579188017L577.5803,88.79460947512811L577.7454658666667,62.7267656850769L578.3518002666666,56.5360594110462L583.4188629333333,81.1716356466277L583.9814290666667,58.15298138797667L584.5867773333333,82.141788832786L584.607532,68.18507329967161L585.0996813333334,69.261043979803L585.2434618666666,88.8066263878818L585.3407565333333,109.98397583272903L585.7038141333334,103.79038549963738L586.2215570666667,118.9742312997824L587.2265416,80.83453877986943L588.2655477333333,67.40072326792173L588.5056138666666,87.69043396075297L588.5486253333333,80.9642603764518L588.7218064,105.27855622587109L589.0665746666667,100.96713373552267L590.6924792,107.83028024131363L590.7380706666667,93.0481681447882L591.6069,93.62890088687293L592.7422949333333,103.42734053212375L593.2262570666667,128.2064043192742L593.8697549333333,180.87384259156454L594.0562373333333,136.87430555493867L594.2835066666667,129.3745833329632L595.0900605333333,143.77474999977792L595.9465517333333,180.76484999986673L596.8721066666667,146.25890999992L597.1897448,135.00534599995197L598.1865536,137.70320759997122L598.8649904,120.42192455998276L599.3815637333333,110.05315473598966L599.4300677333333,113.28189284159379L599.9577637333333,86.86913570495635L599.9827381333333,71.02148142297382L602.4094517333334,127.66288885378427L603.1600368000001,114.39773331227056L603.7771957333333,87.53863998736229L604.5931408,61.97318399241733L604.7254776,65.5339103954504L604.8132778666667,48.770346237270225L606.1831661333333,38.71220774236212L606.2953904,70.4773246454172L606.5864144,51.73639478725034L607.1158877333334,40.491836872350206L607.3912368,33.74510212341007L607.9058493333333,124.19706127404606L609.1479186666667,93.41823676442759L610.0925541333334,93.85094205865651L611.0105984,94.11056523519387L611.0817261333333,94.26633914111636L611.8551986666666,113.25980348466979L612.3688594666667,86.85588209080187L612.6011512,108.81352925448115L613.1434671999999,131.43811755268868L613.3167285333333,97.76287053161319L613.6929613333333,115.35772231896793L614.3418256,97.5646333913808L614.3648850666667,96.33878003482845L616.4688464,114.50326802089708L617.3376528,87.60196081253828L618.500476,62.01117648752294L618.5430632,93.9067058925138L619.3798202666667,94.14402353550825L619.7934114666666,75.38641412130495L619.8685525333334,92.48184847278293L620.4138728,74.38910908366972L621.483644,120.23346545020186L622.5570042666667,109.9400792701211L623.2601861333333,103.76404756207269L623.7532183999999,100.05842853724359L624.9533082666667,107.28505712234613L626.2647394666667,83.27103427340771L626.8662578666666,59.412620564044595" style="fill: none;" fill="none"></path></g></g></g></g><g opacity="0.2"><g><g><g><path stroke="rgb(255, 112, 67)" stroke-width="2px" d="M81.27599706666666,425.25L82.16404453333334,283.5L84.4864688,307.125L86.77398853333332,637.875L87.3935784,330.75L87.75430826666667,637.875L88.16002186666667,307.125L88.8497304,378L89.4411696,259.875L90.98019120000001,307.125L91.52173893333334,614.25L91.7683296,283.5L92.46278533333334,354.375L92.86547173333332,212.625L93.17165466666667,283.5L93.23429706666666,283.5L93.48197706666667,189L94.41474453333333,118.125L95.39602746666667,141.75L95.44614826666667,118.125L95.53703306666667,330.75L95.82801119999999,307.125L95.937988,259.875L97.48574719999999,165.375L98.07907840000001,307.125L98.96438533333333,307.125L100.12941013333334,259.875L101.20416933333333,189L101.22945333333332,189L102.23169733333333,189L102.68752026666667,236.25L102.76732826666667,118.125L103.72497840000001,283.5L103.81313413333334,70.875L104.227184,189L104.80046,141.75L105.08286106666667,47.25L105.9308784,283.5L106.13522586666666,141.75L107.08220053333334,141.75L107.48318986666668,118.125L107.96466373333334,94.5L108.02487520000001,212.625L108.20345706666667,165.375L109.97723573333333,118.125L111.7304088,94.5L112.05675013333334,165.375L113.01061626666666,165.375L113.25534933333333,189L114.06457493333333,94.5L114.57314453333332,118.125L114.59564213333334,47.25L115.06233546666668,70.875L117.29017119999999,141.75L117.52582266666667,70.875L117.77089973333334,165.375L118.04213226666666,94.5L120.78300960000001,189L121.51176213333333,70.875L123.49523173333333,70.875L124.48423173333333,141.75L125.31124213333332,47.25L126.32339333333333,165.375L126.444252,118.125L126.75861066666667,70.875L126.93853413333333,70.875L127.00832026666667,141.75L127.50348533333333,47.25L127.96450266666668,70.875L128.30009760000002,189L128.60435413333332,118.125L129.7161048,118.125L129.7384648,70.875L130.2528136,70.875L130.91397013333332,118.125L131.10855946666666,70.875L131.29099413333333,189L132.2761528,70.875L132.48332106666666,118.125L132.8515616,283.5L133.07016213333335,165.375L133.46344586666666,118.125L133.60703146666668,165.375L133.912664,70.875L133.9346456,94.5L133.95971173333334,189L134.2882088,47.25L134.70221279999998,118.125L135.340608,23.625L135.85738773333333,141.75L136.1007448,94.5L136.50027786666666,70.875L138.6649896,259.875L138.89322213333332,70.875L139.14670426666666,189L140.57772133333333,165.375L141.75506133333332,165.375L141.7766072,70.875L142.2578632,236.25L142.2846952,189L142.6355408,47.25L143.22996133333334,47.25L144.2937928,70.875L144.45520906666667,70.875L144.85804453333333,165.375L145.4162648,94.5L145.96629786666665,94.5L146.04352586666667,189L146.90907573333334,118.125L148.06009973333335,47.25L149.1517608,94.5L150.43242693333332,47.25L150.93776293333332,94.5L151.11698693333335,94.5L151.3246024,118.125L151.9276344,165.375L152.86203013333335,141.75L152.92685120000002,47.25L153.65009973333332,118.125L154.02266319999998,47.25L154.951704,118.125L155.01866933333332,70.875L155.1079832,47.25L155.26878026666665,47.25L155.33469066666666,23.625L155.7761,118.125L156.31752160000002,165.375L157.45391413333334,70.875L157.94702666666666,118.125L159.50162,23.625L159.54979146666668,70.875L160.78293973333334,47.25L161.08592346666666,118.125L161.22308773333333,94.5L161.500432,94.5L161.57613493333335,94.5L162.47447946666665,23.625L163.35470666666666,94.5L163.4000458666667,70.875L163.61963253333332,165.375L163.8756144,23.625L164.0129048,23.625L164.1763048,47.25L165.0364768,118.125L165.63863733333332,141.75L165.93636933333335,47.25L166.01433120000002,118.125L166.53264746666665,94.5L167.39239519999998,94.5L167.64947786666667,118.125L168.50616399999998,212.625L169.25304533333332,189L170.71683413333332,94.5L170.96636026666667,94.5L173.6963672,47.25L173.95600693333336,94.5L175.91256426666666,70.875L176.00434346666668,94.5L176.5925605333333,189L177.7528381333333,118.125L178.62174773333334,94.5L179.6028242666667,47.25L179.65284186666668,47.25L179.81637946666666,70.875L180.03024426666664,47.25L180.60028666666668,189L181.7422864,141.75L183.06950719999998,118.125L183.14204533333333,47.25L183.16821226666667,118.125L183.36774373333336,141.75L184.28943439999998,47.25L184.9533888,94.5L185.38689760000003,70.875L185.87136426666666,94.5L186.61399146666665,70.875L186.88457039999997,94.5L188.93467280000002,141.75L189.1403389333333,23.625L189.18482960000003,47.25L190.17734986666665,118.125L190.26542533333333,23.625L190.622268,94.5L190.69496666666666,165.375L190.71905813333333,141.75L191.45761466666667,141.75L191.7582592,94.5L192.33643146666668,23.625L192.63044826666666,47.25L192.9960744,236.25L193.2082994666667,70.875L193.28176639999998,118.125L193.98804426666666,47.25L194.5467232,70.875L194.6135968,70.875L195.5294624,70.875L195.7128602666667,70.875L196.47307733333335,70.875L197.42486799999998,47.25L197.62736933333332,47.25L197.745648,70.875L198.8908698666667,23.625L199.1537432,23.625L202.4716346666667,70.875L203.91820053333333,23.625L204.5609072,118.125L205.08101226666668,94.5L206.22922693333334,94.5L207.0286944,94.5L207.31804426666667,70.875L208.9153968,23.625L209.09542346666666,94.5L209.65970959999999,94.5L210.01377733333334,47.25L210.28379439999998,118.125L211.26527226666667,141.75L212.62614773333334,47.25L212.67006506666667,47.25L213.11658853333333,141.75L213.23228719999997,23.625L213.27266133333333,23.625L213.31681946666666,23.625L215.2191624,23.625L215.625048,47.25L216.45268906666666,94.5L216.93835973333333,23.625L217.68205333333333,47.25L217.7237576,47.25L218.27983360000002,47.25L218.29991173333332,47.25L218.41772026666666,70.875L218.52172293333334,70.875L220.8677914666667,23.625L222.11789893333335,47.25L222.1812408,94.5L222.52846293333334,94.5L222.6376944,23.625L222.93265146666664,47.25L223.0450936,47.25L223.4079792,165.375L223.51868986666665,70.875L223.72969946666666,165.375L224.11969226666665,141.75L225.4421888,212.625L226.5269584,94.5L226.75548906666668,70.875L227.22502613333333,70.875L228.39013119999998,23.625L229.30917306666666,70.875L229.5008154666667,212.625L229.69934933333334,23.625L230.0523392,47.25L231.00240986666665,94.5L231.07220746666664,23.625L231.33560826666667,23.625L232.37849013333334,47.25L232.76902186666666,47.25L232.88798853333333,47.25L232.93105733333334,70.875L234.2407456,141.75L235.7635762666667,94.5L235.83316746666668,70.875L235.98037653333336,94.5L236.9112176,47.25L237.26410426666666,165.375L237.97389093333334,70.875L239.05790373333335,47.25L239.55098186666666,141.75L240.36377359999997,94.5L241.05508746666666,70.875L241.3993168,94.5L241.72638053333336,118.125L243.05833706666667,47.25L243.30890666666667,23.625L243.33131253333335,94.5L243.98422453333333,165.375L244.08600266666667,236.25L244.13794666666666,141.75L244.42422346666666,165.375L244.98998880000002,70.875L245.27965973333335,94.5L245.4604432,118.125L245.59541733333336,47.25L245.85926533333333,47.25L246.04776586666668,47.25L246.09367840000002,70.875L247.01496773333335,47.25L247.2092818666667,23.625L247.25463253333334,70.875L248.04048906666665,47.25L248.16889279999998,47.25L248.542408,47.25L250.09958133333333,47.25L250.16728053333333,23.625L250.7654392,94.5L251.65214506666666,70.875L251.67663786666668,118.125L252.28879733333332,23.625L252.69049760000001,23.625L252.96475733333335,94.5L253.07280773333335,118.125L253.99725039999998,70.875L254.14975706666667,94.5L254.79427546666668,70.875L256.09656773333336,236.25L257.4541752,94.5L258.1844298666667,23.625L259.19098533333334,165.375L259.6937986666667,94.5L260.1268717333333,94.5L260.1502064,70.875L260.79651359999997,165.375L261.34897759999996,47.25L261.6617768,118.125L262.27639013333334,70.875L262.7581048,70.875L263.0801232,70.875L263.19406746666664,47.25L264.4370082666667,141.75L264.6907197333333,118.125L265.01076586666665,212.625L265.46531600000003,118.125L265.78230053333334,23.625L267.5867984,47.25L268.24897546666665,23.625L268.850964,70.875L268.9945037333333,165.375L269.20372453333334,70.875L270.4345336,70.875L270.6307741333333,23.625L271.35873546666664,47.25L271.4519709333333,94.5L272.17755866666664,118.125L272.31367946666666,118.125L272.7305616,94.5L272.8820133333333,94.5L273.54696533333333,23.625L273.5925224,47.25L274.1051397333333,118.125L274.15806986666666,189L275.21108826666665,47.25L275.44339146666664,70.875L276.1947677333333,23.625L276.30682,47.25L276.4758157333333,70.875L277.3896746666667,47.25L277.4988144,118.125L278.9698501333333,94.5L279.4768602666667,47.25L280.1133749333334,47.25L280.70889626666667,118.125L282.13435200000004,47.25L282.2215789333333,23.625L282.9560992,23.625L284.4127557333333,23.625L285.3449384,47.25L286.2721674666667,70.875L286.56144853333336,47.25L286.6041962666667,23.625L286.764936,189L287.1263194666667,94.5L287.5748152,70.875L287.91665946666666,141.75L288.2077981333333,23.625L288.323428,70.875L288.5615562666667,70.875L290.193584,47.25L290.9489506666667,94.5L292.1377,94.5L292.3663912,141.75L292.5823314666667,94.5L292.8137288,47.25L293.4527890666667,94.5L293.757424,94.5L295.2298930666667,212.625L295.2547528,118.125L295.71838453333334,47.25L296.0056474666667,70.875L296.19124693333333,47.25L297.15388506666665,47.25L297.17596986666666,94.5L297.61886986666667,94.5L298.59459146666666,47.25L298.85658186666666,47.25L299.1748392,189L299.4604394666667,23.625L299.8515904,47.25L300.4575464,94.5L300.69472293333337,70.875L300.99331493333335,118.125L301.722056,165.375L301.7461474666666,47.25L301.7673608,47.25L302.0059248,23.625L302.2982904,70.875L302.4383672,307.125L302.62097386666665,94.5L302.75548933333334,94.5L304.380316,47.25L304.9915352,23.625L305.70728453333334,118.125L306.1067488,47.25L307.30582960000004,70.875L307.68294533333335,118.125L307.8448317333333,94.5L309.0753312,70.875L309.3375853333333,47.25L310.78494240000003,165.375L310.8462776,23.625L310.8656562666667,23.625L312.01258666666666,47.25L313.18615413333333,47.25L313.33073733333333,47.25L313.3532808,165.375L313.4894589333333,94.5L314.4693544,94.5L314.86073466666664,47.25L315.8768533333333,165.375L316.1646208,141.75L316.6799557333333,47.25L317.0671048,23.625L317.5004072,70.875L317.72523413333334,141.75L317.7704816,141.75L319.22129013333335,94.5L319.45773280000003,165.375L319.64124533333336,94.5L320.13036746666666,118.125L320.2913938666667,94.5L320.7270469333333,118.125L322.3646704,448.875L323.6346610666667,47.25L325.4492954666667,47.25L326.5035522666667,165.375L326.52649706666665,47.25L326.6376893333333,47.25L326.829756,141.75L327.26803493333335,165.375L328.1939568,141.75L328.7594469333333,141.75L328.89037333333334,70.875L328.9106349333333,47.25L329.7138290666667,70.875L329.9572205333333,47.25L330.8587528,94.5L330.9524469333333,118.125L331.0852653333333,47.25L331.23399946666666,47.25L331.2589968,212.625L333.6079090666667,94.5L333.63356,94.5L335.1032082666667,94.5L335.3243888,70.875L335.4483664,118.125L336.2538768,23.625L336.37573306666667,94.5L336.6714010666667,47.25L336.7247784,70.875L338.1640056,189L339.2017618666667,70.875L339.3767776,23.625L340.1371896,23.625L342.1532704,189L343.15838106666666,165.375L343.6360021333333,118.125L343.8362904,70.875L344.3377506666667,23.625L345.04742266666665,141.75L345.0965573333333,70.875L345.1850456,23.625L345.6913677333334,47.25L345.76118826666664,23.625L345.86362,94.5L346.24507013333334,70.875L346.4469064,23.625L346.5843688,47.25L347.4268133333333,94.5L348.27678000000003,23.625L348.6716805333333,165.375L349.94045573333335,23.625L350.8976816,70.875L351.08099920000006,70.875L352.44614026666665,94.5L353.3885168,23.625L353.48514639999996,212.625L354.230904,70.875L354.8288792,94.5L355.65681839999996,94.5L356.38715333333334,70.875L356.4295914666667,47.25L356.7203517333333,141.75L357.585592,141.75L357.87517119999995,47.25L358.52298053333334,118.125L358.61956426666666,141.75L358.667128,94.5L359.1463314666667,47.25L359.17114533333336,118.125L359.51073066666663,118.125L359.7995416,47.25L360.3973562666667,70.875L360.44178959999994,23.625L360.4904082666667,118.125L362.2142381333333,47.25L363.2909466666666,94.5L364.37109519999996,23.625L365.7479093333333,23.625L367.45613306666667,141.75L367.66921813333335,47.25L369.2328930666667,47.25L370.22043679999996,70.875L370.31432586666665,47.25L370.7086186666666,70.875L371.24387119999994,118.125L371.9189482666667,141.75L372.0053266666667,23.625L372.4972810666667,70.875L372.7885917333333,47.25L373.12783306666665,47.25L373.3995013333333,70.875L373.42468213333336,141.75L373.6926352,118.125L374.6346104,189L374.72243360000004,94.5L376.92145359999995,94.5L377.4370637333334,70.875L377.82764133333336,94.5L378.3541562666667,47.25L378.61225946666667,47.25L379.5816514666667,94.5L380.64208879999995,141.75L381.5498589333334,70.875L382.25356826666666,70.875L383.12558533333333,23.625L384.6933194666667,118.125L384.89546533333333,141.75L384.91580719999996,47.25L385.3424589333333,165.375L385.531808,70.875L385.96157866666664,165.375L386.26625946666667,70.875L387.14232426666666,70.875L387.59452373333335,236.25L387.64240853333337,189L387.70845653333333,118.125L388.01841199999996,23.625L388.9968741333333,70.875L389.322344,70.875L389.78187066666663,47.25L391.2854832,94.5L391.95604239999994,118.125L392.3753669333334,94.5L393.2896042666667,47.25L393.88685706666666,70.875L395.1607808,47.25L395.37490933333333,165.375L395.9655458666667,23.625L396.89880639999996,23.625L398.1752872,47.25L398.43064986666667,94.5L398.73040000000003,165.375L399.01594293333335,118.125L399.4311968,118.125L399.8571376,47.25L400.1205154666667,236.25L400.2661536,212.625L400.5484170666667,118.125L400.9405082666667,70.875L400.9637970666667,47.25L401.7530706666667,94.5L401.90962506666665,23.625L403.86080453333335,118.125L403.9802528,23.625L404.1501658666666,70.875L404.29826933333334,70.875L405.05056293333337,23.625L405.07090480000005,47.25L405.18917200000004,94.5L405.5146189333333,118.125L405.6980397333333,94.5L405.7237938666667,94.5L407.2750962666667,23.625L407.3178554666667,47.25L408.2469306666667,189L408.2691301333333,47.25L409.2213221333334,94.5L410.3151504,70.875L410.8308637333333,23.625L413.15761093333333,94.5L413.5169074666667,118.125L413.91654373333336,118.125L414.1125664,94.5L414.90581893333336,47.25L415.6447768,70.875L415.9476573333333,94.5L416.0506509333334,118.125L416.7812496,47.25L417.2837304,94.5L417.38349039999997,94.5L417.71288186666663,118.125L419.5256242666667,94.5L420.6255986666667,94.5L420.6488989333333,23.625L420.7393136,94.5L421.40285520000003,70.875L421.68360506666664,94.5L421.91659626666666,70.875L422.0093042666667,70.875L422.3426746666667,23.625L422.6773981333334,47.25L423.19855813333334,94.5L423.4017474666667,189L423.71059066666663,47.25L426.4552061333333,661.5L426.81782799999996,94.5L427.1597984,94.5L427.4581381333333,94.5L427.67112000000003,94.5L428.31090266666666,23.625L428.7370384,70.875L429.12735226666666,283.5L429.26457386666664,70.875L429.6184237333333,47.25L429.7485704,70.875L430.3833421333333,23.625L430.4295069333333,70.875L433.17328533333335,47.25L433.7166448,70.875L433.8289264,23.625L434.5572202666667,118.125L435.6304085333333,70.875L435.86196640000003,118.125L436.5490490666666,70.875L436.81097066666666,70.875L437.5526002666667,94.5L437.62722533333334,165.375L437.8446677333333,141.75L437.98776026666667,23.625L438.3347186666667,23.625L438.62186693333337,47.25L439.6805154666667,212.625L440.7961074666666,70.875L440.82073786666666,141.75L442.1785288,118.125L442.9229677333333,23.625L443.36693413333336,70.875L443.6020581333333,47.25L444.39119413333333,70.875L445.0819346666667,47.25L445.3510344,47.25L445.5322421333333,70.875L446.8866848,23.625L446.9104896,70.875L448.03595440000004,70.875L448.10204826666666,70.875L448.14602293333337,23.625L448.2780730666667,23.625L449.78564159999996,23.625L450.5516722666667,70.875L451.5730312,47.25L452.0014488,165.375L452.0679210666667,23.625L452.3636464,70.875L453.7799861333333,94.5L455.33460240000005,70.875L456.44753413333336,94.5L456.4931370666667,23.625L456.72209200000003,94.5L457.5013552,47.25L457.71051866666664,118.125L459.36020506666665,70.875L459.45422026666665,94.5L460.77108666666663,23.625L461.3120496,141.75L461.7123853333334,94.5L462.41641573333334,94.5L462.46426613333335,70.875L462.81356373333335,70.875L462.8795429333333,23.625L463.43155973333336,70.875L464.3889690666667,70.875L464.47706746666665,94.5L465.66342026666666,23.625L465.9824,23.625L466.8806528,330.75L466.95170026666665,141.75L467.3985677333333,70.875L468.45045093333334,165.375L468.5996781333333,23.625L468.6230930666666,118.125L469.0018485333334,47.25L469.2627725333333,141.75L470.9961770666667,212.625L471.046252,94.5L471.49430053333333,70.875L471.79339706666667,47.25L472.02975946666663,165.375L472.22417679999995,118.125L474.82858933333335,118.125L475.51318373333334,70.875L475.68912826666667,23.625L477.59416586666663,23.625L477.7610632,70.875L478.6851618666667,94.5L479.92830906666666,118.125L480.2927312,118.125L480.31726986666666,118.125L480.66553546666665,70.875L481.1996413333333,141.75L481.61450533333334,70.875L481.81373866666667,23.625L482.6014184,94.5L483.29634426666667,47.25L483.45560479999995,118.125L484.53300133333335,70.875L485.67145786666663,70.875L485.8846117333334,23.625L486.04039786666664,70.875L486.0630904,94.5L486.1601672,212.625L487.06446293333335,259.875L487.32074293333335,70.875L487.72826826666665,94.5L488.0145450666667,118.125L489.0163074666667,47.25L489.08761866666663,141.75L489.71551039999997,70.875L489.8686018666667,118.125L490.3572424,70.875L490.71982986666666,94.5L490.91410959999996,47.25L491.4073138666667,118.125L491.6740858666667,94.5L491.8564861333333,94.5L491.95070773333333,189L492.049,94.5L493.6654789333333,70.875L495.2740802666667,118.125L496.5820256,23.625L496.88478,94.5L497.56786080000006,118.125L498.24937066666666,165.375L498.2732328,141.75L498.5405437333333,47.25L498.8204221333333,23.625L499.1752122666667,70.875L499.3909002666667,47.25L499.7148565333333,141.75L500.0042178666667,23.625L500.2115352,23.625L500.9731397333333,118.125L502.4782773333333,70.875L503.2002530666667,23.625L503.32374906666666,94.5L503.34571919999996,94.5L503.6176512,94.5L503.8720392,94.5L506.4308946666667,307.125L506.45496319999995,118.125L506.6061168,70.875L506.6762125333333,23.625L506.9600928,47.25L507.2943576,47.25L509.1223850666667,70.875L509.7539461333334,23.625L509.8903765333334,47.25L509.91683013333335,141.75L510.7131786666667,23.625L511.2910184,118.125L511.8855765333334,70.875L512.8943909333333,94.5L512.9650256,141.75L513.4694327999999,47.25L514.3452224,94.5L514.5890152,94.5L514.6819181333334,47.25L514.7017210666667,47.25L516.9137328,70.875L516.958384,47.25L517.0708146666666,70.875L518.4562517333334,165.375L518.5028064,141.75L519.2288757333333,70.875L519.4711778666666,212.625L520.6141408,94.5L520.8053245333333,47.25L521.1554133333334,23.625L521.3936792,23.625L521.4933818666667,118.125L521.81446,70.875L522.8712394666667,47.25L523.0709314666667,47.25L523.6135685333334,70.875L523.6884573333333,165.375L524.7588248,165.375L526.4275802666666,94.5L526.8090648,23.625L527.3131509333333,118.125L527.4743264,70.875L528.3981728,118.125L529.8336962666666,94.5L529.8873832,212.625L529.9735552,70.875L531.6679386666666,118.125L532.1292197333333,23.625L532.9140213333333,118.125L533.2848877333333,23.625L533.5457544,70.875L534.5762178666666,23.625L534.9529552,23.625L534.9728384,23.625L535.0645717333334,118.125L535.3664661333333,70.875L535.7140781333334,47.25L537.1446136000001,70.875L538.0041434666666,118.125L538.5032645333333,70.875L542.6766381333333,70.875L543.1511517333333,118.125L543.8240272,141.75L544.5449709333333,70.875L544.7358106666667,47.25L545.1734589333333,23.625L545.6052936,189L546.6535189333333,283.5L546.8596208,47.25L547.326532,118.125L547.8453757333333,70.875L548.3943882666666,70.875L548.799024,141.75L548.8725712,165.375L548.9425866666667,47.25L549.787852,47.25L550.413416,23.625L550.8414666666666,118.125L550.8894088000001,236.25L552.8739333333333,189L553.1251909333333,70.875L553.744024,118.125L554.3623640000001,118.125L554.9456045333334,141.75L555.0124781333334,47.25L557.4507616,47.25L557.5387568,23.625L557.8985922666667,23.625L557.9485869333333,259.875L558.0637696,165.375L558.1898914666666,23.625L558.4927375999999,47.25L558.671824,70.875L559.4903032,165.375L559.8615136000001,94.5L561.5172429333334,94.5L561.6255112,23.625L562.1183829333334,70.875L562.1692949333334,165.375L562.4464557333333,141.75L562.6328349333334,141.75L562.7803994666667,47.25L563.3845896,47.25L563.4801069333333,47.25L564.0685189333333,141.75L564.3504727999999,189L564.8759901333334,70.875L565.1462136,23.625L565.9228968,212.625L567.4370930666666,47.25L567.7413037333333,189L568.43506,94.5L568.6898034666667,94.5L569.5007605333333,118.125L569.7496330666667,141.75L572.2273733333334,70.875L572.2740197333334,23.625L572.4892376,47.25L572.5830808,70.875L572.6096834666668,47.25L572.7720400000001,70.875L573.1373106666666,118.125L573.2468058666666,70.875L574.3042389333333,23.625L574.3921309333333,94.5L574.4358648,47.25L575.3430271999999,212.625L575.4182944,118.125L575.7361274666666,70.875L577.5803,70.875L577.7454658666667,23.625L578.3518002666666,47.25L583.4188629333333,118.125L583.9814290666667,23.625L584.5867773333333,118.125L584.607532,47.25L585.0996813333334,70.875L585.2434618666666,118.125L585.3407565333333,141.75L585.7038141333334,94.5L586.2215570666667,141.75L587.2265416,23.625L588.2655477333333,47.25L588.5056138666666,118.125L588.5486253333333,70.875L588.7218064,141.75L589.0665746666667,94.5L590.6924792,118.125L590.7380706666667,70.875L591.6069,94.5L592.7422949333333,118.125L593.2262570666667,165.375L593.8697549333333,259.875L594.0562373333333,70.875L594.2835066666667,118.125L595.0900605333333,165.375L595.9465517333333,236.25L596.8721066666667,94.5L597.1897448,118.125L598.1865536,141.75L598.8649904,94.5L599.3815637333333,94.5L599.4300677333333,118.125L599.9577637333333,47.25L599.9827381333333,47.25L602.4094517333334,212.625L603.1600368000001,94.5L603.7771957333333,47.25L604.5931408,23.625L604.7254776,70.875L604.8132778666667,23.625L606.1831661333333,23.625L606.2953904,118.125L606.5864144,23.625L607.1158877333334,23.625L607.3912368,23.625L607.9058493333333,259.875L609.1479186666667,47.25L610.0925541333334,94.5L611.0105984,94.5L611.0817261333333,94.5L611.8551986666666,141.75L612.3688594666667,47.25L612.6011512,141.75L613.1434671999999,165.375L613.3167285333333,47.25L613.6929613333333,141.75L614.3418256,70.875L614.3648850666667,94.5L616.4688464,141.75L617.3376528,47.25L618.500476,23.625L618.5430632,141.75L619.3798202666667,94.5L619.7934114666666,47.25L619.8685525333334,118.125L620.4138728,47.25L621.483644,189L622.5570042666667,94.5L623.2601861333333,94.5L623.7532183999999,94.5L624.9533082666667,118.125L626.2647394666667,47.25L626.8662578666666,23.625" style="fill: none;" fill="none"></path></g></g></g></g></g></g><g transform="translate(30, 378)" clip-path="url(#clip_1)"><clipPath id="clip_1"><rect width="688" height="22"></rect></clipPath><g><g><line x1="0" y1="0" x2="0" y2="5" style="visibility: inherit;" fill="rgb(0, 0, 0)" stroke="rgb(204, 204, 204)" stroke-width="1px"></line><line x1="57.33333333333333" y1="0" x2="57.33333333333333" y2="5" style="visibility: inherit;" fill="rgb(0, 0, 0)" stroke="rgb(204, 204, 204)" stroke-width="1px"></line><line x1="114.66666666666666" y1="0" x2="114.66666666666666" y2="5" style="visibility: inherit;" fill="rgb(0, 0, 0)" stroke="rgb(204, 204, 204)" stroke-width="1px"></line><line x1="172" y1="0" x2="172" y2="5" style="visibility: inherit;" fill="rgb(0, 0, 0)" stroke="rgb(204, 204, 204)" stroke-width="1px"></line><line x1="229.33333333333331" y1="0" x2="229.33333333333331" y2="5" style="visibility: inherit;" fill="rgb(0, 0, 0)" stroke="rgb(204, 204, 204)" stroke-width="1px"></line><line x1="286.6666666666667" y1="0" x2="286.6666666666667" y2="5" style="visibility: inherit;" fill="rgb(0, 0, 0)" stroke="rgb(204, 204, 204)" stroke-width="1px"></line><line x1="344" y1="0" x2="344" y2="5" style="visibility: inherit;" fill="rgb(0, 0, 0)" stroke="rgb(204, 204, 204)" stroke-width="1px"></line><line x1="401.33333333333337" y1="0" x2="401.33333333333337" y2="5" style="visibility: inherit;" fill="rgb(0, 0, 0)" stroke="rgb(204, 204, 204)" stroke-width="1px"></line><line x1="458.66666666666663" y1="0" x2="458.66666666666663" y2="5" style="visibility: inherit;" fill="rgb(0, 0, 0)" stroke="rgb(204, 204, 204)" stroke-width="1px"></line><line x1="516" y1="0" x2="516" y2="5" style="visibility: inherit;" fill="rgb(0, 0, 0)" stroke="rgb(204, 204, 204)" stroke-width="1px"></line><line x1="573.3333333333334" y1="0" x2="573.3333333333334" y2="5" style="visibility: inherit;" fill="rgb(0, 0, 0)" stroke="rgb(204, 204, 204)" stroke-width="1px"></line><line x1="630.6666666666666" y1="0" x2="630.6666666666666" y2="5" style="visibility: inherit;" fill="rgb(0, 0, 0)" stroke="rgb(204, 204, 204)" stroke-width="1px"></line><line x1="688" y1="0" x2="688" y2="5" style="visibility: inherit;" fill="rgb(0, 0, 0)" stroke="rgb(204, 204, 204)" stroke-width="1px"></line></g><g transform="translate(0, 8)"><text x="0" y="0" dx="0em" dy="0.95em" style="text-anchor: middle; visibility: hidden; font-family: Roboto, sans-serif; font-size: 12px; font-weight: 200;" fill="rgb(50, 49, 63)" stroke="none" stroke-width="1px">-5M</text><text x="57.33333333333333" y="0" dx="0em" dy="0.95em" style="text-anchor: middle; visibility: inherit; font-family: Roboto, sans-serif; font-size: 12px; font-weight: 200;" fill="rgb(50, 49, 63)" stroke="none" stroke-width="1px">0</text><text x="114.66666666666666" y="0" dx="0em" dy="0.95em" style="text-anchor: middle; visibility: inherit; font-family: Roboto, sans-serif; font-size: 12px; font-weight: 200;" fill="rgb(50, 49, 63)" stroke="none" stroke-width="1px">5M</text><text x="172" y="0" dx="0em" dy="0.95em" style="text-anchor: middle; visibility: inherit; font-family: Roboto, sans-serif; font-size: 12px; font-weight: 200;" fill="rgb(50, 49, 63)" stroke="none" stroke-width="1px">10M</text><text x="229.33333333333331" y="0" dx="0em" dy="0.95em" style="text-anchor: middle; visibility: inherit; font-family: Roboto, sans-serif; font-size: 12px; font-weight: 200;" fill="rgb(50, 49, 63)" stroke="none" stroke-width="1px">15M</text><text x="286.6666666666667" y="0" dx="0em" dy="0.95em" style="text-anchor: middle; visibility: inherit; font-family: Roboto, sans-serif; font-size: 12px; font-weight: 200;" fill="rgb(50, 49, 63)" stroke="none" stroke-width="1px">20M</text><text x="344" y="0" dx="0em" dy="0.95em" style="text-anchor: middle; visibility: inherit; font-family: Roboto, sans-serif; font-size: 12px; font-weight: 200;" fill="rgb(50, 49, 63)" stroke="none" stroke-width="1px">25M</text><text x="401.33333333333337" y="0" dx="0em" dy="0.95em" style="text-anchor: middle; visibility: inherit; font-family: Roboto, sans-serif; font-size: 12px; font-weight: 200;" fill="rgb(50, 49, 63)" stroke="none" stroke-width="1px">30M</text><text x="458.66666666666663" y="0" dx="0em" dy="0.95em" style="text-anchor: middle; visibility: inherit; font-family: Roboto, sans-serif; font-size: 12px; font-weight: 200;" fill="rgb(50, 49, 63)" stroke="none" stroke-width="1px">35M</text><text x="516" y="0" dx="0em" dy="0.95em" style="text-anchor: middle; visibility: inherit; font-family: Roboto, sans-serif; font-size: 12px; font-weight: 200;" fill="rgb(50, 49, 63)" stroke="none" stroke-width="1px">40M</text><text x="573.3333333333334" y="0" dx="0em" dy="0.95em" style="text-anchor: middle; visibility: inherit; font-family: Roboto, sans-serif; font-size: 12px; font-weight: 200;" fill="rgb(50, 49, 63)" stroke="none" stroke-width="1px">45M</text><text x="630.6666666666666" y="0" dx="0em" dy="0.95em" style="text-anchor: middle; visibility: inherit; font-family: Roboto, sans-serif; font-size: 12px; font-weight: 200;" fill="rgb(50, 49, 63)" stroke="none" stroke-width="1px">50M</text><text x="688" y="0" dx="0em" dy="0.95em" style="text-anchor: middle; visibility: hidden; font-family: Roboto, sans-serif; font-size: 12px; font-weight: 200;" fill="rgb(50, 49, 63)" stroke="none" stroke-width="1px">55M</text></g><line x1="0" y1="0" x2="688" y2="0" fill="rgb(0, 0, 0)" stroke="rgb(204, 204, 204)" stroke-width="1px"></line></g></g></g></g></svg>