<svg viewBox="0 0 1076 400" xmlns="http://www.w3.org/2000/svg"><g><g><g><g><g><line x1="40" y1="378" x2="35" y2="378" style="visibility: inherit;" fill="rgb(0, 0, 0)" stroke="rgb(204, 204, 204)" stroke-width="1px"></line><line x1="40" y1="330.75" x2="35" y2="330.75" style="visibility: inherit;" fill="rgb(0, 0, 0)" stroke="rgb(204, 204, 204)" stroke-width="1px"></line><line x1="40" y1="283.5" x2="35" y2="283.5" style="visibility: inherit;" fill="rgb(0, 0, 0)" stroke="rgb(204, 204, 204)" stroke-width="1px"></line><line x1="40" y1="236.25" x2="35" y2="236.25" style="visibility: inherit;" fill="rgb(0, 0, 0)" stroke="rgb(204, 204, 204)" stroke-width="1px"></line><line x1="40" y1="189" x2="35" y2="189" style="visibility: inherit;" fill="rgb(0, 0, 0)" stroke="rgb(204, 204, 204)" stroke-width="1px"></line><line x1="40" y1="141.75" x2="35" y2="141.75" style="visibility: inherit;" fill="rgb(0, 0, 0)" stroke="rgb(204, 204, 204)" stroke-width="1px"></line><line x1="40" y1="94.5" x2="35" y2="94.5" style="visibility: inherit;" fill="rgb(0, 0, 0)" stroke="rgb(204, 204, 204)" stroke-width="1px"></line><line x1="40" y1="47.25" x2="35" y2="47.25" style="visibility: inherit;" fill="rgb(0, 0, 0)" stroke="rgb(204, 204, 204)" stroke-width="1px"></line><line x1="40" y1="0" x2="35" y2="0" style="visibility: inherit;" fill="rgb(0, 0, 0)" stroke="rgb(204, 204, 204)" stroke-width="1px"></line></g><g transform="translate(30, 0)"><text x="0" y="378" dx="0em" dy="0.3em" style="text-anchor: end; visibility: hidden; font-family: &quot;Helvetica Neue&quot;, sans-serif; font-size: 12px; font-weight: 200;" fill="rgb(50, 49, 63)" stroke="none" stroke-width="1px">-50</text><text x="0" y="330.75" dx="0em" dy="0.3em" style="text-anchor: end; visibility: inherit; font-family: &quot;Helvetica Neue&quot;, sans-serif; font-size: 12px; font-weight: 200;" fill="rgb(50, 49, 63)" stroke="none" stroke-width="1px">0</text><text x="0" y="283.5" dx="0em" dy="0.3em" style="text-anchor: end; visibility: inherit; font-family: &quot;Helvetica Neue&quot;, sans-serif; font-size: 12px; font-weight: 200;" fill="rgb(50, 49, 63)" stroke="none" stroke-width="1px">50</text><text x="0" y="236.25" dx="0em" dy="0.3em" style="text-anchor: end; visibility: inherit; font-family: &quot;Helvetica Neue&quot;, sans-serif; font-size: 12px; font-weight: 200;" fill="rgb(50, 49, 63)" stroke="none" stroke-width="1px">100</text><text x="0" y="189" dx="0em" dy="0.3em" style="text-anchor: end; visibility: inherit; font-family: &quot;Helvetica Neue&quot;, sans-serif; font-size: 12px; font-weight: 200;" fill="rgb(50, 49, 63)" stroke="none" stroke-width="1px">150</text><text x="0" y="141.75" dx="0em" dy="0.3em" style="text-anchor: end; visibility: inherit; font-family: &quot;Helvetica Neue&quot;, sans-serif; font-size: 12px; font-weight: 200;" fill="rgb(50, 49, 63)" stroke="none" stroke-width="1px">200</text><text x="0" y="94.5" dx="0em" dy="0.3em" style="text-anchor: end; visibility: inherit; font-family: &quot;Helvetica Neue&quot;, sans-serif; font-size: 12px; font-weight: 200;" fill="rgb(50, 49, 63)" stroke="none" stroke-width="1px">250</text><text x="0" y="47.25" dx="0em" dy="0.3em" style="text-anchor: end; visibility: inherit; font-family: &quot;Helvetica Neue&quot;, sans-serif; font-size: 12px; font-weight: 200;" fill="rgb(50, 49, 63)" stroke="none" stroke-width="1px">300</text><text x="0" y="0" dx="0em" dy="0.3em" style="text-anchor: end; visibility: hidden; font-family: &quot;Helvetica Neue&quot;, sans-serif; font-size: 12px; font-weight: 200;" fill="rgb(50, 49, 63)" stroke="none" stroke-width="1px">350</text></g><line x1="40" y1="0" x2="40" y2="378" fill="rgb(0, 0, 0)" stroke="rgb(204, 204, 204)" stroke-width="1px"></line></g></g><g transform="translate(40, 0)" clip-path="url(#clip_0)"><clipPath id="clip_0"><rect width="1036" height="378"></rect></clipPath><g><g><g><line x1="0" y1="0" x2="0" y2="378" fill="rgb(0, 0, 0)" stroke="rgb(60, 60, 60)" stroke-width="1px" opacity="0.25"></line><line x1="86.33333333333333" y1="0" x2="86.33333333333333" y2="378" fill="rgb(0, 0, 0)" stroke="rgb(60, 60, 60)" stroke-width="1px" opacity="0.25"></line><line x1="172.66666666666666" y1="0" x2="172.66666666666666" y2="378" fill="rgb(0, 0, 0)" stroke="rgb(60, 60, 60)" stroke-width="1px" opacity="0.25"></line><line x1="259" y1="0" x2="259" y2="378" fill="rgb(0, 0, 0)" stroke="rgb(60, 60, 60)" stroke-width="1px" opacity="0.25"></line><line x1="345.3333333333333" y1="0" x2="345.3333333333333" y2="378" fill="rgb(0, 0, 0)" stroke="rgb(60, 60, 60)" stroke-width="1px" opacity="0.25"></line><line x1="431.6666666666667" y1="0" x2="431.6666666666667" y2="378" fill="rgb(0, 0, 0)" stroke="rgb(60, 60, 60)" stroke-width="1px" opacity="0.25"></line><line x1="518" y1="0" x2="518" y2="378" fill="rgb(0, 0, 0)" stroke="rgb(60, 60, 60)" stroke-width="1px" opacity="0.25"></line><line x1="604.3333333333334" y1="0" x2="604.3333333333334" y2="378" fill="rgb(0, 0, 0)" stroke="rgb(60, 60, 60)" stroke-width="1px" opacity="0.25"></line><line x1="690.6666666666666" y1="0" x2="690.6666666666666" y2="378" fill="rgb(0, 0, 0)" stroke="rgb(60, 60, 60)" stroke-width="1px" opacity="0.25"></line><line x1="777" y1="0" x2="777" y2="378" fill="rgb(0, 0, 0)" stroke="rgb(60, 60, 60)" stroke-width="1px" opacity="0.25"></line><line x1="863.3333333333334" y1="0" x2="863.3333333333334" y2="378" fill="rgb(0, 0, 0)" stroke="rgb(60, 60, 60)" stroke-width="1px" opacity="0.25"></line><line x1="949.6666666666666" y1="0" x2="949.6666666666666" y2="378" fill="rgb(0, 0, 0)" stroke="rgb(60, 60, 60)" stroke-width="1px" opacity="0.25"></line><line x1="1036" y1="0" x2="1036" y2="378" fill="rgb(0, 0, 0)" stroke="rgb(60, 60, 60)" stroke-width="1px" opacity="0.25"></line></g><g><line x1="0" y1="378" x2="1036" y2="378" fill="rgb(0, 0, 0)" stroke="rgb(60, 60, 60)" stroke-width="1px" opacity="0.25"></line><line x1="0" y1="330.75" x2="1036" y2="330.75" fill="rgb(0, 0, 0)" stroke="rgb(60, 60, 60)" stroke-width="1px" opacity="0.25"></line><line x1="0" y1="283.5" x2="1036" y2="283.5" fill="rgb(0, 0, 0)" stroke="rgb(60, 60, 60)" stroke-width="1px" opacity="0.25"></line><line x1="0" y1="236.25" x2="1036" y2="236.25" fill="rgb(0, 0, 0)" stroke="rgb(60, 60, 60)" stroke-width="1px" opacity="0.25"></line><line x1="0" y1="189" x2="1036" y2="189" fill="rgb(0, 0, 0)" stroke="rgb(60, 60, 60)" stroke-width="1px" opacity="0.25"></line><line x1="0" y1="141.75" x2="1036" y2="141.75" fill="rgb(0, 0, 0)" stroke="rgb(60, 60, 60)" stroke-width="1px" opacity="0.25"></line><line x1="0" y1="94.5" x2="1036" y2="94.5" fill="rgb(0, 0, 0)" stroke="rgb(60, 60, 60)" stroke-width="1px" opacity="0.25"></line><line x1="0" y1="47.25" x2="1036" y2="47.25" fill="rgb(0, 0, 0)" stroke="rgb(60, 60, 60)" stroke-width="1px" opacity="0.25"></line><line x1="0" y1="0" x2="1036" y2="0" fill="rgb(0, 0, 0)" stroke="rgb(60, 60, 60)" stroke-width="1px" opacity="0.25"></line></g></g></g><g><g><line x1="0" y1="330.75" x2="1036" y2="330.75" fill="rgb(0, 0, 0)" stroke="rgb(153, 153, 153)" stroke-width="1.5px"></line></g></g><g><g><line x1="86.33333333333333" y1="0" x2="86.33333333333333" y2="378" fill="rgb(0, 0, 0)" stroke="rgb(153, 153, 153)" stroke-width="1.5px"></line></g></g><g><g><g><g><g><path stroke="rgb(255, 112, 67)" stroke-width="2px" d="M90.64999999999999,320.11112926483156L94.96666666666665,315.81571373820304L99.28333333333335,310.2041980075836L103.60000000000001,305.48338924474575L107.91666666666667,298.25879465736506L112.23333333333333,295.47625400076237L116.55,279.47982122170316L120.86666666666667,274.3793484143706L125.18333333333334,264.09257741258614L129.5,257.59606788342063L133.8166666666667,244.63725316444987L138.13333333333333,230.0863656499662L142.45000000000002,204.9398977138512L146.76666666666665,177.02306100861003L151.08333333333334,162.57629395222045L155.4,153.9150688759414L159.71666666666667,133.4982821008713L164.03333333333333,107.62056200662187L168.35,126.58021777930847L172.66666666666666,110.04441116309664L176.98333333333335,97.4342156496761L181.29999999999998,91.23422903452547L185.61666666666667,81.27023784583491L189.9333333333333,74.63476238913478L194.25,59.82786392102639L198.5666666666667,61.577465477741384L202.88333333333333,55.83959816985231L207.20000000000002,54.43235880677673L211.51666666666665,57.86514591901613L215.83333333333334,47.47193638899603L220.15,43.77363509772164L224.46666666666667,39.14571194031231L228.78333333333333,42.716654629628806L233.1,28.698462285807523L237.41666666666666,45.92307199131824L241.73333333333335,50.29791220964148L246.04999999999998,51.68985200969206L250.36666666666667,43.15791099102904L254.6833333333333,64.48361746122112L259,64.78362537215327L263.31666666666666,72.59680071783976L267.6333333333334,78.27551396615144L271.95,66.1333390768686L276.26666666666665,55.341798060950794L280.5833333333333,67.44420994134413L284.90000000000003,54.34752852746618L289.2166666666667,55.927211147300625L293.5333333333333,52.494763455881355L297.84999999999997,58.645155375857826L302.1666666666667,95.56532576975837L306.48333333333335,91.5752004056834L310.8,92.56541797290504L315.1166666666666,78.845117177762L319.43333333333334,79.31679967677496L323.75,78.40853470108397L328.06666666666666,81.02311953891308L332.3833333333334,84.68748176973537L336.7,84.57449437189985L341.01666666666665,78.32070101767061L345.3333333333333,96.85266588037865L349.65000000000003,92.53099814883257L353.9666666666667,84.39779658217054L358.2833333333333,93.27271862923402L362.59999999999997,107.69855134355606L366.9166666666667,99.99993311326261L371.23333333333335,108.9536995835337L375.55,103.07215956945618L379.8666666666666,123.59783449899794L384.18333333333334,123.92699534661557L388.5,124.84783444551809L392.81666666666666,147.49414836018198L397.1333333333334,135.73503412108963L401.45,146.96649798119873L405.76666666666665,171.497798691063L410.0833333333333,181.5226792146378L414.40000000000003,171.10135588083347L418.7166666666667,159.86916054388095L423.0333333333333,162.5439963263286L427.34999999999997,160.01452279579718L431.6666666666667,165.38581600291772L435.98333333333335,162.4047396017507L440.3,170.19251865729066L444.6166666666666,194.80111004080993L448.93333333333334,210.1641919339098L453.25,200.58440837934003L457.56666666666666,212.62243434950344L461.8833333333334,199.73810529353995L466.2,221.88486180283294L470.51666666666665,214.8980110758404L474.8333333333333,212.4210375720179L479.15000000000003,218.5661581724832L483.4666666666667,214.85049309074577L487.7833333333333,224.71709692561444L492.09999999999997,234.0104450602759L496.4166666666667,223.49426731082374L500.73333333333335,218.683934898213L505.05,220.2970290297481L509.3666666666666,213.65732404626684L513.6833333333334,220.57308168361948L518,222.66621245926837L522.3166666666666,234.20293995419874L526.6333333333333,228.2864904587253L530.9499999999999,227.22495445589922L535.2666666666668,226.09885519612254L539.5833333333334,220.55954007690204L543.9,216.9461900343004L548.2166666666667,217.23596443256756L552.5333333333333,211.07246608019486L556.85,213.73161462736496L561.1666666666666,221.73726819963673L565.4833333333332,225.2154512670721L569.8000000000001,225.5272705466202L574.1166666666667,226.9200647968442L578.4333333333334,233.91228887810652L582.75,230.61377448042836L587.0666666666666,231.51502399611834L591.3833333333333,238.85609095101572L595.6999999999999,241.4748547354044L600.0166666666668,240.23541284124263L604.3333333333334,234.4359977047456L608.65,227.59603844218327L612.9666666666667,236.11595128186272L617.2833333333333,231.5715118854506L621.6,234.7587290764608L625.9166666666666,238.43773758320557L630.2333333333332,235.47866780321925L634.5500000000001,232.08014921403603L638.8666666666667,233.72853661094115L643.1833333333334,234.35427699586157L647.5,230.12506683838606L651.8166666666666,227.9544146147504L656.1333333333333,234.69604450554456L660.4499999999999,234.32343583113436L664.7666666666668,236.0490081081777L669.0833333333334,238.15800563394959L673.4,236.55157372033557L677.7166666666667,236.27852376100992L682.0333333333333,240.21004658387648L686.35,241.5474270439538L690.6666666666666,243.2706593055959L694.9833333333332,242.8334867546222L699.3000000000001,244.1211354945458L703.6166666666667,241.88331661166887L707.9333333333334,246.74220508540952L712.25,244.0299979932623L716.5666666666666,248.61904223772984L720.8833333333333,248.48951511009398L725.1999999999999,249.1937078911296L729.5166666666668,245.48554861773442L733.8333333333334,246.36390869944924L738.15,248.67603113275547L742.4666666666667,249.98936111129393L746.7833333333333,247.53683793447652L751.1,250.72500632513905L755.4166666666666,250.23197854178756L759.7333333333332,248.79221237836842L764.0500000000001,257.7337644463692L768.3666666666667,257.587987076635L772.6833333333334,253.3816697484224L777,253.4726985043269L781.3166666666666,252.1649532548178L785.6333333333333,253.31754745337895L789.9499999999999,253.44386315830667L794.2666666666668,251.1372103357799L798.5833333333334,250.80386495879216L802.9,255.5477292841132L807.2166666666667,258.2080731020841L811.5333333333333,260.1222450148149L815.85,256.3831561366966L820.1666666666666,250.58145827247205L824.4833333333332,249.30927611704766L828.8000000000001,250.55766210577548L833.1166666666667,249.24944415677584L837.4333333333334,252.51457436149715L841.75,251.07574475422737L846.0666666666666,254.72144781384014L850.3833333333333,252.34692886896812L854.6999999999999,247.01308172933986L859.0166666666668,243.13673276563125L863.3333333333334,245.25746734797738L867.65,248.69565614426006L871.9666666666667,254.37959958865565L876.2833333333333,261.9085296125074L880.6,260.17001387040966L884.9166666666666,266.1000083222458L889.2333333333332,258.2943799933475L893.5500000000001,258.68331818155536L897.8666666666667,250.74949090893324L902.1833333333334,252.27507395515L906.5,258.9499980626652L910.8166666666666,262.9109988375991L915.1333333333333,261.96503375080164L919.4499999999999,255.5164389211353L923.7666666666668,254.70177073183157L928.0833333333334,256.77106243909896L932.4,254.44668423164785L936.7166666666667,250.96764708989204L941.0333333333333,251.32004246230923L945.35,248.10306882760528L949.6666666666666,248.57923739946844" style="fill: none;" fill="none"></path></g></g></g></g><g opacity="0.2"><g><g><g><path stroke="rgb(255, 112, 67)" stroke-width="2px" d="M90.64999999999999,320.11112926483156L94.96666666666665,313.23846442222595L99.28333333333335,304.81714290618896L103.60000000000001,299.9317181396484L107.91666666666667,288.8263639640808L112.23333333333333,291.6269985580444L116.55,256.6046664047241L120.86666666666667,266.9428100967407L125.18333333333334,248.9215882873535L129.5,247.9495083618164L133.8166666666667,225.31656658172608L138.13333333333333,208.33921966552734L142.45000000000002,167.3023033905029L146.76666666666665,135.2024979400635L151.08333333333334,140.923125L155.4,140.9293398284912L159.71666666666667,102.8817416381836L164.03333333333333,68.81055221557614L168.35,155.01681312561035L172.66666666666666,85.24221267700199L176.98333333333335,78.51961395263669L181.29999999999998,81.934453125L185.61666666666667,66.3244477844238L189.9333333333333,64.68162780761719L194.25,37.61762145996096L198.5666666666667,64.20186035156252L202.88333333333333,47.23281188964842L207.20000000000002,52.32150192260741L211.51666666666665,63.01432342529296L215.83333333333334,31.88212783813475L220.15,38.22618438720701L224.46666666666667,32.20382812500003L228.78333333333333,48.07306823730465L233.1,7.671174774169913L237.41666666666666,71.75998580932617L241.73333333333335,56.860172424316374L246.04999999999998,53.77776168823243L250.36666666666667,30.359999542236324L254.6833333333333,96.47217704772947L259,65.23363723754886L263.31666666666666,84.31656372070313L267.6333333333334,86.79358383178709L271.95,47.92007675170902L276.26666666666665,39.15448654174804L280.5833333333333,85.5978277587891L284.90000000000003,34.70250640869142L289.2166666666667,58.296735076904326L293.5333333333333,47.34609191894532L297.84999999999997,67.87074325561525L302.1666666666667,150.9455813598633L306.48333333333335,85.59001235961915L310.8,94.0507443237305L315.1166666666666,58.264665985107456L319.43333333333334,80.02432342529295L323.75,77.04613723754886L328.06666666666666,84.94499679565428L332.3833333333334,90.18402511596679L336.7,84.40501327514647L341.01666666666665,68.9400109863281L345.3333333333333,124.65061317443846L349.65000000000003,86.04849655151367L353.9666666666667,72.19799423217773L358.2833333333333,106.58510169982907L362.59999999999997,129.33730041503907L366.9166666666667,88.4520057678223L371.23333333333335,122.38434928894043L375.55,94.24984954833985L379.8666666666666,154.38634689331053L384.18333333333334,124.42073661804199L388.5,126.22909309387205L392.81666666666666,181.46361923217773L397.1333333333334,118.09636276245118L401.45,163.81369377136232L405.76666666666665,208.29474975585939L410.0833333333333,196.56L414.40000000000003,155.46937088012697L418.7166666666667,143.02086753845217L423.0333333333333,166.55625L427.34999999999997,156.2203125L431.6666666666667,173.44275581359864L435.98333333333335,157.93312500000002L440.3,181.8741872406006L444.6166666666666,231.71399711608888L448.93333333333334,233.20881477355957L453.25,186.21473304748537L457.56666666666666,230.67947330474854L461.8833333333334,180.41161170959472L466.2,255.10499656677246L470.51666666666665,204.41773498535156L474.8333333333333,208.70557731628418L479.15000000000003,227.78383907318116L483.4666666666667,209.27699546813963L487.7833333333333,239.51700267791747L492.09999999999997,247.95046726226806L496.4166666666667,207.7200006866455L500.73333333333335,211.46843627929687L505.05,222.7166702270508L509.3666666666666,203.69776657104492L513.6833333333334,230.94671813964845L518,225.8059086227417L522.3166666666666,251.50803119659423L526.6333333333333,219.41181621551513L530.9499999999999,225.63265045166014L535.2666666666668,224.40970630645754L539.5833333333334,212.2505673980713L543.9,211.52616497039796L548.2166666666667,217.67062602996825L552.5333333333333,201.82721855163575L556.85,217.72033744812012L561.1666666666666,233.74574855804443L565.4833333333332,230.4327258682251L569.8000000000001,225.99499946594239L574.1166666666667,229.00925617218016L578.4333333333334,244.400625L582.75,225.66600288391115L587.0666666666666,232.86689826965332L591.3833333333333,249.8676913833618L595.6999999999999,245.4030004119873L600.0166666666668,238.37625L604.3333333333334,225.736875L608.65,217.33609954833986L612.9666666666667,248.89582054138185L617.2833333333333,224.75485279083253L621.6,239.53955486297608L625.9166666666666,243.95625034332275L630.2333333333332,231.04006313323976L634.5500000000001,226.98237133026123L638.8666666666667,236.20111770629885L643.1833333333334,235.29288757324218L647.5,223.78125160217286L651.8166666666666,224.69843627929689L656.1333333333333,244.80848934173585L660.4499999999999,233.76452281951904L664.7666666666668,238.63736652374268L669.0833333333334,241.32150192260744L673.4,234.14192584991454L677.7166666666667,235.86894882202148L682.0333333333333,246.10733081817628L686.35,243.55349773406982L690.6666666666666,245.85550769805909L694.9833333333332,242.17772792816163L699.3000000000001,246.05260860443116L703.6166666666667,238.52658828735352L707.9333333333334,254.0305377960205L712.25,239.9616873550415L716.5666666666666,255.50260860443115L720.8833333333333,248.29522441864015L725.1999999999999,250.24999706268312L729.5166666666668,239.9233097076416L733.8333333333334,247.68144882202148L738.15,252.14421478271484L742.4666666666667,251.95935607910155L746.7833333333333,243.8580531692505L751.1,255.50725891113282L755.4166666666666,249.49243686676024L759.7333333333332,246.63256313323976L764.0500000000001,271.14609254837035L768.3666666666667,257.36932102203366L772.6833333333334,247.07219375610353L777,253.6092416381836L781.3166666666666,250.20333538055422L785.6333333333333,255.0464387512207L789.9499999999999,253.63333671569825L794.2666666666668,247.67723110198975L798.5833333333334,250.30384689331055L802.9,262.6635257720947L807.2166666666667,262.19858882904055L811.5333333333333,262.9935028839111L815.85,250.77452281951904L820.1666666666666,241.87891147613524L824.4833333333332,247.40100288391113L828.8000000000001,252.43024108886718L833.1166666666667,247.28711723327638L837.4333333333334,257.4122696685791L841.75,248.91750034332276L846.0666666666666,260.1900024032593L850.3833333333333,248.78515045166017L854.6999999999999,239.01231101989745L859.0166666666668,237.32220932006837L863.3333333333334,248.43856922149658L867.65,253.85293933868408L871.9666666666667,262.905514755249L876.2833333333333,273.20192464828494L880.6,257.56224025726317L884.9166666666666,274.995L889.2333333333332,246.5859375L893.5500000000001,259.2667254638672L897.8666666666667,238.84875L902.1833333333334,254.56344852447512L906.5,268.962384223938L910.8166666666666,268.85249999999996L915.1333333333333,260.5460861206055L919.4499999999999,245.84354667663573L923.7666666666668,253.47976844787598L928.0833333333334,259.875L932.4,250.9601169204712L936.7166666666667,245.7490913772583L941.0333333333333,251.84863552093506L945.35,243.2776083755493L949.6666666666666,249.2934902572632" style="fill: none;" fill="none"></path></g></g></g></g></g></g><g transform="translate(40, 378)" clip-path="url(#clip_1)"><clipPath id="clip_1"><rect width="1036" height="22"></rect></clipPath><g><g><line x1="0" y1="0" x2="0" y2="5" style="visibility: inherit;" fill="rgb(0, 0, 0)" stroke="rgb(204, 204, 204)" stroke-width="1px"></line><line x1="86.33333333333333" y1="0" x2="86.33333333333333" y2="5" style="visibility: inherit;" fill="rgb(0, 0, 0)" stroke="rgb(204, 204, 204)" stroke-width="1px"></line><line x1="172.66666666666666" y1="0" x2="172.66666666666666" y2="5" style="visibility: inherit;" fill="rgb(0, 0, 0)" stroke="rgb(204, 204, 204)" stroke-width="1px"></line><line x1="259" y1="0" x2="259" y2="5" style="visibility: inherit;" fill="rgb(0, 0, 0)" stroke="rgb(204, 204, 204)" stroke-width="1px"></line><line x1="345.3333333333333" y1="0" x2="345.3333333333333" y2="5" style="visibility: inherit;" fill="rgb(0, 0, 0)" stroke="rgb(204, 204, 204)" stroke-width="1px"></line><line x1="431.6666666666667" y1="0" x2="431.6666666666667" y2="5" style="visibility: inherit;" fill="rgb(0, 0, 0)" stroke="rgb(204, 204, 204)" stroke-width="1px"></line><line x1="518" y1="0" x2="518" y2="5" style="visibility: inherit;" fill="rgb(0, 0, 0)" stroke="rgb(204, 204, 204)" stroke-width="1px"></line><line x1="604.3333333333334" y1="0" x2="604.3333333333334" y2="5" style="visibility: inherit;" fill="rgb(0, 0, 0)" stroke="rgb(204, 204, 204)" stroke-width="1px"></line><line x1="690.6666666666666" y1="0" x2="690.6666666666666" y2="5" style="visibility: inherit;" fill="rgb(0, 0, 0)" stroke="rgb(204, 204, 204)" stroke-width="1px"></line><line x1="777" y1="0" x2="777" y2="5" style="visibility: inherit;" fill="rgb(0, 0, 0)" stroke="rgb(204, 204, 204)" stroke-width="1px"></line><line x1="863.3333333333334" y1="0" x2="863.3333333333334" y2="5" style="visibility: inherit;" fill="rgb(0, 0, 0)" stroke="rgb(204, 204, 204)" stroke-width="1px"></line><line x1="949.6666666666666" y1="0" x2="949.6666666666666" y2="5" style="visibility: inherit;" fill="rgb(0, 0, 0)" stroke="rgb(204, 204, 204)" stroke-width="1px"></line><line x1="1036" y1="0" x2="1036" y2="5" style="visibility: inherit;" fill="rgb(0, 0, 0)" stroke="rgb(204, 204, 204)" stroke-width="1px"></line></g><g transform="translate(0, 8)"><text x="0" y="0" dx="0em" dy="0.95em" style="text-anchor: middle; visibility: hidden; font-family: &quot;Helvetica Neue&quot;, sans-serif; font-size: 12px; font-weight: 200;" fill="rgb(50, 49, 63)" stroke="none" stroke-width="1px">-5M</text><text x="86.33333333333333" y="0" dx="0em" dy="0.95em" style="text-anchor: middle; visibility: inherit; font-family: &quot;Helvetica Neue&quot;, sans-serif; font-size: 12px; font-weight: 200;" fill="rgb(50, 49, 63)" stroke="none" stroke-width="1px">0</text><text x="172.66666666666666" y="0" dx="0em" dy="0.95em" style="text-anchor: middle; visibility: inherit; font-family: &quot;Helvetica Neue&quot;, sans-serif; font-size: 12px; font-weight: 200;" fill="rgb(50, 49, 63)" stroke="none" stroke-width="1px">5M</text><text x="259" y="0" dx="0em" dy="0.95em" style="text-anchor: middle; visibility: inherit; font-family: &quot;Helvetica Neue&quot;, sans-serif; font-size: 12px; font-weight: 200;" fill="rgb(50, 49, 63)" stroke="none" stroke-width="1px">10M</text><text x="345.3333333333333" y="0" dx="0em" dy="0.95em" style="text-anchor: middle; visibility: inherit; font-family: &quot;Helvetica Neue&quot;, sans-serif; font-size: 12px; font-weight: 200;" fill="rgb(50, 49, 63)" stroke="none" stroke-width="1px">15M</text><text x="431.6666666666667" y="0" dx="0em" dy="0.95em" style="text-anchor: middle; visibility: inherit; font-family: &quot;Helvetica Neue&quot;, sans-serif; font-size: 12px; font-weight: 200;" fill="rgb(50, 49, 63)" stroke="none" stroke-width="1px">20M</text><text x="518" y="0" dx="0em" dy="0.95em" style="text-anchor: middle; visibility: inherit; font-family: &quot;Helvetica Neue&quot;, sans-serif; font-size: 12px; font-weight: 200;" fill="rgb(50, 49, 63)" stroke="none" stroke-width="1px">25M</text><text x="604.3333333333334" y="0" dx="0em" dy="0.95em" style="text-anchor: middle; visibility: inherit; font-family: &quot;Helvetica Neue&quot;, sans-serif; font-size: 12px; font-weight: 200;" fill="rgb(50, 49, 63)" stroke="none" stroke-width="1px">30M</text><text x="690.6666666666666" y="0" dx="0em" dy="0.95em" style="text-anchor: middle; visibility: inherit; font-family: &quot;Helvetica Neue&quot;, sans-serif; font-size: 12px; font-weight: 200;" fill="rgb(50, 49, 63)" stroke="none" stroke-width="1px">35M</text><text x="777" y="0" dx="0em" dy="0.95em" style="text-anchor: middle; visibility: inherit; font-family: &quot;Helvetica Neue&quot;, sans-serif; font-size: 12px; font-weight: 200;" fill="rgb(50, 49, 63)" stroke="none" stroke-width="1px">40M</text><text x="863.3333333333334" y="0" dx="0em" dy="0.95em" style="text-anchor: middle; visibility: inherit; font-family: &quot;Helvetica Neue&quot;, sans-serif; font-size: 12px; font-weight: 200;" fill="rgb(50, 49, 63)" stroke="none" stroke-width="1px">45M</text><text x="949.6666666666666" y="0" dx="0em" dy="0.95em" style="text-anchor: middle; visibility: inherit; font-family: &quot;Helvetica Neue&quot;, sans-serif; font-size: 12px; font-weight: 200;" fill="rgb(50, 49, 63)" stroke="none" stroke-width="1px">50M</text><text x="1036" y="0" dx="0em" dy="0.95em" style="text-anchor: middle; visibility: hidden; font-family: &quot;Helvetica Neue&quot;, sans-serif; font-size: 12px; font-weight: 200;" fill="rgb(50, 49, 63)" stroke="none" stroke-width="1px">55M</text></g><line x1="0" y1="0" x2="1036" y2="0" fill="rgb(0, 0, 0)" stroke="rgb(204, 204, 204)" stroke-width="1px"></line></g></g></g></g></svg>