<svg viewBox="0 0 718 400" xmlns="http://www.w3.org/2000/svg"><g><g><g><g><g><line x1="70" y1="378" x2="65" y2="378" style="visibility: inherit;" fill="rgb(0, 0, 0)" stroke="rgb(204, 204, 204)" stroke-width="1px"></line><line x1="70" y1="336" x2="65" y2="336" style="visibility: inherit;" fill="rgb(0, 0, 0)" stroke="rgb(204, 204, 204)" stroke-width="1px"></line><line x1="70" y1="294" x2="65" y2="294" style="visibility: inherit;" fill="rgb(0, 0, 0)" stroke="rgb(204, 204, 204)" stroke-width="1px"></line><line x1="70" y1="252.00000000000003" x2="65" y2="252.00000000000003" style="visibility: inherit;" fill="rgb(0, 0, 0)" stroke="rgb(204, 204, 204)" stroke-width="1px"></line><line x1="70" y1="210" x2="65" y2="210" style="visibility: inherit;" fill="rgb(0, 0, 0)" stroke="rgb(204, 204, 204)" stroke-width="1px"></line><line x1="70" y1="168" x2="65" y2="168" style="visibility: inherit;" fill="rgb(0, 0, 0)" stroke="rgb(204, 204, 204)" stroke-width="1px"></line><line x1="70" y1="126.00000000000001" x2="65" y2="126.00000000000001" style="visibility: inherit;" fill="rgb(0, 0, 0)" stroke="rgb(204, 204, 204)" stroke-width="1px"></line><line x1="70" y1="84" x2="65" y2="84" style="visibility: inherit;" fill="rgb(0, 0, 0)" stroke="rgb(204, 204, 204)" stroke-width="1px"></line><line x1="70" y1="42.00000000000002" x2="65" y2="42.00000000000002" style="visibility: inherit;" fill="rgb(0, 0, 0)" stroke="rgb(204, 204, 204)" stroke-width="1px"></line><line x1="70" y1="0" x2="65" y2="0" style="visibility: inherit;" fill="rgb(0, 0, 0)" stroke="rgb(204, 204, 204)" stroke-width="1px"></line></g><g transform="translate(60, 0)"><text x="0" y="378" dx="0em" dy="0.3em" style="text-anchor: end; visibility: hidden; font-family: Roboto, sans-serif; font-size: 12px; font-weight: 200;" fill="rgb(50, 49, 63)" stroke="none" stroke-width="1px">1.8e+3</text><text x="0" y="336" dx="0em" dy="0.3em" style="text-anchor: end; visibility: inherit; font-family: Roboto, sans-serif; font-size: 12px; font-weight: 200;" fill="rgb(50, 49, 63)" stroke="none" stroke-width="1px">1.9e+3</text><text x="0" y="294" dx="0em" dy="0.3em" style="text-anchor: end; visibility: inherit; font-family: Roboto, sans-serif; font-size: 12px; font-weight: 200;" fill="rgb(50, 49, 63)" stroke="none" stroke-width="1px">2e+3</text><text x="0" y="252.00000000000003" dx="0em" dy="0.3em" style="text-anchor: end; visibility: inherit; font-family: Roboto, sans-serif; font-size: 12px; font-weight: 200;" fill="rgb(50, 49, 63)" stroke="none" stroke-width="1px">2.1e+3</text><text x="0" y="210" dx="0em" dy="0.3em" style="text-anchor: end; visibility: inherit; font-family: Roboto, sans-serif; font-size: 12px; font-weight: 200;" fill="rgb(50, 49, 63)" stroke="none" stroke-width="1px">2.2e+3</text><text x="0" y="168" dx="0em" dy="0.3em" style="text-anchor: end; visibility: inherit; font-family: Roboto, sans-serif; font-size: 12px; font-weight: 200;" fill="rgb(50, 49, 63)" stroke="none" stroke-width="1px">2.3e+3</text><text x="0" y="126.00000000000001" dx="0em" dy="0.3em" style="text-anchor: end; visibility: inherit; font-family: Roboto, sans-serif; font-size: 12px; font-weight: 200;" fill="rgb(50, 49, 63)" stroke="none" stroke-width="1px">2.4e+3</text><text x="0" y="84" dx="0em" dy="0.3em" style="text-anchor: end; visibility: inherit; font-family: Roboto, sans-serif; font-size: 12px; font-weight: 200;" fill="rgb(50, 49, 63)" stroke="none" stroke-width="1px">2.5e+3</text><text x="0" y="42.00000000000002" dx="0em" dy="0.3em" style="text-anchor: end; visibility: inherit; font-family: Roboto, sans-serif; font-size: 12px; font-weight: 200;" fill="rgb(50, 49, 63)" stroke="none" stroke-width="1px">2.6e+3</text><text x="0" y="0" dx="0em" dy="0.3em" style="text-anchor: end; visibility: hidden; font-family: Roboto, sans-serif; font-size: 12px; font-weight: 200;" fill="rgb(50, 49, 63)" stroke="none" stroke-width="1px">2.7e+3</text></g><line x1="70" y1="0" x2="70" y2="378" fill="rgb(0, 0, 0)" stroke="rgb(204, 204, 204)" stroke-width="1px"></line></g></g><g transform="translate(70, 0)" clip-path="url(#clip_0)"><clipPath id="clip_0"><rect width="648" height="378"></rect></clipPath><g><g><g><line x1="0" y1="0" x2="0" y2="378" fill="rgb(0, 0, 0)" stroke="rgb(60, 60, 60)" stroke-width="1px" opacity="0.25"></line><line x1="54" y1="0" x2="54" y2="378" fill="rgb(0, 0, 0)" stroke="rgb(60, 60, 60)" stroke-width="1px" opacity="0.25"></line><line x1="108" y1="0" x2="108" y2="378" fill="rgb(0, 0, 0)" stroke="rgb(60, 60, 60)" stroke-width="1px" opacity="0.25"></line><line x1="162" y1="0" x2="162" y2="378" fill="rgb(0, 0, 0)" stroke="rgb(60, 60, 60)" stroke-width="1px" opacity="0.25"></line><line x1="216" y1="0" x2="216" y2="378" fill="rgb(0, 0, 0)" stroke="rgb(60, 60, 60)" stroke-width="1px" opacity="0.25"></line><line x1="270" y1="0" x2="270" y2="378" fill="rgb(0, 0, 0)" stroke="rgb(60, 60, 60)" stroke-width="1px" opacity="0.25"></line><line x1="324" y1="0" x2="324" y2="378" fill="rgb(0, 0, 0)" stroke="rgb(60, 60, 60)" stroke-width="1px" opacity="0.25"></line><line x1="378" y1="0" x2="378" y2="378" fill="rgb(0, 0, 0)" stroke="rgb(60, 60, 60)" stroke-width="1px" opacity="0.25"></line><line x1="432" y1="0" x2="432" y2="378" fill="rgb(0, 0, 0)" stroke="rgb(60, 60, 60)" stroke-width="1px" opacity="0.25"></line><line x1="486" y1="0" x2="486" y2="378" fill="rgb(0, 0, 0)" stroke="rgb(60, 60, 60)" stroke-width="1px" opacity="0.25"></line><line x1="540" y1="0" x2="540" y2="378" fill="rgb(0, 0, 0)" stroke="rgb(60, 60, 60)" stroke-width="1px" opacity="0.25"></line><line x1="594" y1="0" x2="594" y2="378" fill="rgb(0, 0, 0)" stroke="rgb(60, 60, 60)" stroke-width="1px" opacity="0.25"></line><line x1="648" y1="0" x2="648" y2="378" fill="rgb(0, 0, 0)" stroke="rgb(60, 60, 60)" stroke-width="1px" opacity="0.25"></line></g><g><line x1="0" y1="378" x2="648" y2="378" fill="rgb(0, 0, 0)" stroke="rgb(60, 60, 60)" stroke-width="1px" opacity="0.25"></line><line x1="0" y1="336" x2="648" y2="336" fill="rgb(0, 0, 0)" stroke="rgb(60, 60, 60)" stroke-width="1px" opacity="0.25"></line><line x1="0" y1="294" x2="648" y2="294" fill="rgb(0, 0, 0)" stroke="rgb(60, 60, 60)" stroke-width="1px" opacity="0.25"></line><line x1="0" y1="252.00000000000003" x2="648" y2="252.00000000000003" fill="rgb(0, 0, 0)" stroke="rgb(60, 60, 60)" stroke-width="1px" opacity="0.25"></line><line x1="0" y1="210" x2="648" y2="210" fill="rgb(0, 0, 0)" stroke="rgb(60, 60, 60)" stroke-width="1px" opacity="0.25"></line><line x1="0" y1="168" x2="648" y2="168" fill="rgb(0, 0, 0)" stroke="rgb(60, 60, 60)" stroke-width="1px" opacity="0.25"></line><line x1="0" y1="126.00000000000001" x2="648" y2="126.00000000000001" fill="rgb(0, 0, 0)" stroke="rgb(60, 60, 60)" stroke-width="1px" opacity="0.25"></line><line x1="0" y1="84" x2="648" y2="84" fill="rgb(0, 0, 0)" stroke="rgb(60, 60, 60)" stroke-width="1px" opacity="0.25"></line><line x1="0" y1="42.00000000000002" x2="648" y2="42.00000000000002" fill="rgb(0, 0, 0)" stroke="rgb(60, 60, 60)" stroke-width="1px" opacity="0.25"></line><line x1="0" y1="0" x2="648" y2="0" fill="rgb(0, 0, 0)" stroke="rgb(60, 60, 60)" stroke-width="1px" opacity="0.25"></line></g></g></g><g><g><line x1="0" y1="1134" x2="648" y2="1134" fill="rgb(0, 0, 0)" stroke="rgb(153, 153, 153)" stroke-width="1.5px"></line></g></g><g><g><line x1="54" y1="0" x2="54" y2="378" fill="rgb(0, 0, 0)" stroke="rgb(153, 153, 153)" stroke-width="1.5px"></line></g></g><g><g><g><g><g><path stroke="rgb(255, 112, 67)" stroke-width="2px" d="M56.699999999999996,622.7323388671875L59.4,365.7543237304688L62.1,206.32802804129466L64.8,29.57591707117426L67.5,-229.7942581784568L91.8,-30.459194869120402L94.5,26.482076321744582L97.2,74.82650538157571L99.9,149.20290087124246L102.6,197.28180700811944L105.3,224.80716969278163L108,230.82121701126772L110.7,242.96660210822387L113.39999999999999,237.60636922826072L116.1,241.6297537014648L118.8,238.10774959478042L121.5,259.8198023051718L124.2,286.08405118511274L126.9,295.58109961089275L129.6,299.9353216201257L132.3,306.6279454380164L135,313.6465188144333L137.7,312.102574169802L140.4,314.48479469147406L143.1,301.5620822524871L145.8,285.16164341285037L148.5,299.4883612939966L151.2,266.8702918305864L153.9,290.8550502467852L156.6,306.72903020701426L159.29999999999998,303.29844839000305L162,265.65808070243617L164.7,277.0924040946951L167.4,281.16744245877805L170.1,294.290965479056L172.8,302.2910792888195L175.5,283.7777842901173L178.20000000000002,275.0930514329038L180.9,280.88098222714643L183.6,282.61160203163917L186.29999999999998,292.08163797692356L189,313.09552575507405L191.7,333.7060273672068L194.4,272.21313399827017L197.1,289.87913039899286L199.8,309.4143923019162L202.5,314.4573853811529L205.2,333.554661697449L207.9,329.09642201846845L210.6,336.70440301576957L213.3,320.68211641883545L216,312.7692727809884L218.70000000000002,279.6849992154671L221.4,274.18018312303013L224.1,299.55685401444333L226.79999999999998,298.39902158835355L229.5,310.0587410780122L232.2,314.7704946468074L234.9,299.2494940537095L237.6,308.9753214322257L240.3,313.76344285933544L243,294.2492493093511L245.7,319.18907595279813L248.4,315.10810475136634L251.1,334.6368628508198L253.8,321.19277493705437L256.5,304.41638761848264L259.2,317.22816850858965L261.9,318.5786511051538L264.6,274.36120824121735L267.3,231.96606283535544L270,281.1195810605883L272.7,289.3677515660404L275.4,270.5392603146242L278.09999999999997,252.95512650127463L280.8,271.0124294163898L283.5,292.73395764983394L286.2,303.16024958990045L288.90000000000003,302.34948373831526L291.6,294.1487029383016L294.3,319.8258086770435L297,294.210315284351L299.7,311.9774606549856L302.4,323.7984695570539L305.1,343.8707360311074L307.8,312.9296388842894L310.5,322.69795911182365L313.2,331.6078682405316L315.9,333.2587570771315L318.59999999999997,311.5210149884664L321.3,315.9523589930798L324,336.0402425442854L326.7,314.96079689375875L329.4,304.5984175893802L332.09999999999997,308.46767555362806L334.8,308.6112801368643L337.5,312.09864308211866L340.2,306.43892315395857L342.9,319.4651937361252L345.6,326.2548681948001L348.3,303.67331544813004L351,312.844989268878L353.7,307.6915189519519L356.40000000000003,305.76157348054613L359.1,316.63960033832774L361.8,310.81308442174657L364.5,235.61960651242293L367.2,275.0971799230788L369.9,272.7826888132222L372.59999999999997,290.64086328793337L375.3,303.04364297276004L378,302.56217894771856L380.7,303.6039704545686L383.4,293.79975629617866L386.1,297.9971867855198L388.8,289.1330093369369L391.5,303.22043060216214L394.2,318.4348013300473L396.90000000000003,325.29804876677844L399.6,331.42174332256707L402.3,332.78005380604014L405,321.7373613851866L407.7,300.988035971737L410.4,298.3527004892922L413.09999999999997,290.3047296685753L415.8,278.8781737386452L418.5,300.1709560009996L421.2,303.7692357099748L423.9,300.4251576369224L426.6,302.78043540246597L429.3,285.0793979602295L432,304.4086309636376L434.7,309.6085535781826L437.40000000000003,307.8851360531596L440.1,314.3955816318957L442.8,290.8041126510124L445.5,278.4573640749825L448.2,277.85251512467687L450.9,291.8181682544936L453.59999999999997,298.2562290776962L456.3,287.1485265091177L459,304.0889918820331L461.7,287.4506060667199L464.4,279.2119691087819L467.1,313.52164240276915L469.8,293.12697176978645L472.5,298.8335209524969L475.2,307.7124875714982L477.90000000000003,320.96966441789897L480.6,295.1016658382394L483.3,302.97699950294367L486,321.6182065377037L488.7,331.2909307585597L491.4,321.2092342363858L494.09999999999997,282.32552686995643L496.8,288.0412555750988L499.5,290.33804631380923L502.2,300.6044527882855L504.9,307.2367966729713L507.6,282.1296444100327L510.3,295.36966164601967L513,302.76504698761175L515.6999999999999,286.687041864442L518.4,303.0961733608527L521.1,315.3453319461991L523.8,306.0186737770945L526.5,290.39759879750665L529.2,306.99215107537896L531.9,311.8989156452274L534.6,305.98308669182387L537.3000000000001,317.5892318979069L540,323.1546553496816L542.7,312.4032375457465L545.4,315.4316925274479L548.1,314.6616844617812L550.8,290.7046786458188L553.5,297.05480914061627L556.1999999999999,310.57812571874473L558.9,300.3995980874968L561.6,314.82326275874806L564.3,313.94196449118635L567,317.7960536947118L569.7,326.85180409182715L572.4,303.1270824550963L575.1,317.8213490824328L577.8000000000001,275.3588211682096L580.5,300.13221262280086L583.2,310.1139525736805L585.9,333.52048677858335L588.6,328.89479206715004" style="fill: none;" fill="none"></path></g></g></g></g><g opacity="0.2"><g><g><g><path stroke="rgb(255, 112, 67)" stroke-width="2px" d="M56.699999999999996,622.7323388671875L59.4,211.5675146484375L62.1,53.27878417968748L64.8,-178.28456542968752L86.4,-174.615L89.10000000000001,83.3571826171875L91.8,124.43525390625L94.5,111.82705078125L97.2,147.309052734375L99.9,260.7360205078125L102.6,269.387958984375L105.3,266.0910205078125L108,239.84173828125L110.7,261.184013671875L113.39999999999999,229.5661962890625L116.1,247.66475097656252L118.8,232.82478515625L121.5,292.3877270507812L124.2,325.48031249999997L126.9,309.82664794921874L129.6,306.4666479492187L132.3,316.666875L135,324.174375L137.7,309.7866577148437L140.4,318.05812499999996L143.1,282.1780151367188L145.8,260.560986328125L148.5,320.9784375L151.2,217.94318847656248L153.9,326.8321875L156.6,330.54L159.29999999999998,298.15257568359374L162,209.19752929687496L164.7,294.24388916015624L167.4,287.28000000000003L170.1,313.97625L172.8,314.29125L175.5,256.007841796875L178.20000000000002,262.06595214843753L180.9,289.56287841796876L183.6,285.20753173828126L186.29999999999998,306.28669189453126L189,344.61635742187497L191.7,364.62177978515626L194.4,179.9737939453125L197.1,316.37812499999995L199.8,338.71728515625L202.5,322.021875L205.2,362.200576171875L207.9,322.4090625L210.6,348.1163745117188L213.3,296.6486865234375L216,300.9000073242188L218.70000000000002,230.0585888671875L221.4,265.922958984375L224.1,337.6218603515625L226.79999999999998,296.66227294921873L229.5,327.5483203125L232.2,321.838125L234.9,275.9679931640625L237.6,323.5640625L240.3,320.945625L243,264.977958984375L245.7,356.59881591796875L248.4,308.98664794921876L251.1,363.93L253.8,301.0266430664062L256.5,279.251806640625L259.2,336.44583984375004L261.9,320.604375L264.6,208.0350439453125L267.3,168.3733447265625L270,354.8498583984375L272.7,301.74000732421877L275.4,242.29652343749999L278.09999999999997,226.57892578125L280.8,298.0983837890625L283.5,325.31624999999997L286.2,318.7996875L288.90000000000003,301.1333349609375L291.6,281.84753173828125L294.3,358.3414672851562L297,255.7870751953125L299.7,338.6281787109375L302.4,341.5299829101562L305.1,373.9791357421875L307.8,266.51799316406255L310.5,337.35043945312503L313.2,344.97273193359376L315.9,335.73509033203123L318.59999999999997,278.9144018554688L321.3,322.599375L324,366.17206787109376L326.7,283.34162841796876L329.4,289.0548486328125L332.09999999999997,314.2715625L334.8,308.8266870117187L337.5,317.3296875L340.2,297.94934326171875L342.9,339.004599609375L345.6,336.4393798828125L348.3,269.800986328125L351,326.6025L353.7,299.9613134765625L356.40000000000003,302.8666552734375L359.1,332.956640625L361.8,302.073310546875L364.5,122.82938964843748L367.2,334.3135400390625L369.9,269.3109521484375L372.59999999999997,317.42812499999997L375.3,321.64781250000004L378,301.83998291015627L380.7,305.1666577148437L383.4,279.09343505859374L386.1,304.29333251953125L388.8,275.8367431640625L391.5,324.3515625L394.2,341.256357421875L396.90000000000003,335.59291992187497L399.6,340.60728515625004L402.3,334.81751953125L405,305.17332275390623L407.7,269.86404785156253L410.4,294.399697265625L413.09999999999997,278.2327734375L415.8,261.73833984375L418.5,332.1101293945312L421.2,309.1666552734375L423.9,295.4090405273438L426.6,306.31335205078125L429.3,258.52784179687495L432,333.40248046875L434.7,317.4084375L437.40000000000003,305.300009765625L440.1,324.16125L442.8,255.41690917968748L445.5,259.9372412109375L448.2,276.9452416992188L450.9,312.76664794921874L453.59999999999997,307.9133203125L456.3,270.48697265625003L459,329.49968994140625L461.7,262.49302734375004L464.4,266.854013671875L467.1,364.98615234375L469.8,262.5349658203125L472.5,307.39334472656253L475.2,321.0309375L477.90000000000003,340.8554296875L480.6,256.29966796875L483.3,314.79L486,349.58001708984375L488.7,345.8000170898437L491.4,306.086689453125L494.09999999999997,223.99996582031247L496.8,296.6148486328125L499.5,293.78323242187497L502.2,316.0040625L504.9,317.1853125L507.6,244.46891601562498L510.3,315.2296875L513,313.85812500000003L515.6999999999999,262.5700341796875L518.4,327.7098706054687L521.1,333.71906982421876L523.8,292.0286865234375L526.5,266.965986328125L529.2,331.8839794921875L531.9,319.25906249999997L534.6,297.1093432617188L537.3000000000001,334.9984497070312L540,331.50279052734373L542.7,296.27611083984374L545.4,319.974375L548.1,313.50667236328127L550.8,254.76916992187498L553.5,306.5800048828125L556.1999999999999,330.8631005859375L558.9,285.131806640625L561.6,336.458759765625L564.3,312.62001708984377L567,323.5771875L569.7,340.4354296875L572.4,267.54L575.1,339.8627490234375L577.8000000000001,211.66502929687502L580.5,337.2922998046875L583.2,325.08656249999996L585.9,368.6302880859375L588.6,321.95625" style="fill: none;" fill="none"></path></g></g></g></g></g><g><g opacity="0.213514"><span fill="rgb(0, 0, 0)" stroke="none" stroke-width="1px">Alt + Scroll to Zoom</span></g></g></g><g transform="translate(70, 378)" clip-path="url(#clip_1)"><clipPath id="clip_1"><rect width="648" height="22"></rect></clipPath><g><g><line x1="0" y1="0" x2="0" y2="5" style="visibility: inherit;" fill="rgb(0, 0, 0)" stroke="rgb(204, 204, 204)" stroke-width="1px"></line><line x1="54" y1="0" x2="54" y2="5" style="visibility: inherit;" fill="rgb(0, 0, 0)" stroke="rgb(204, 204, 204)" stroke-width="1px"></line><line x1="108" y1="0" x2="108" y2="5" style="visibility: inherit;" fill="rgb(0, 0, 0)" stroke="rgb(204, 204, 204)" stroke-width="1px"></line><line x1="162" y1="0" x2="162" y2="5" style="visibility: inherit;" fill="rgb(0, 0, 0)" stroke="rgb(204, 204, 204)" stroke-width="1px"></line><line x1="216" y1="0" x2="216" y2="5" style="visibility: inherit;" fill="rgb(0, 0, 0)" stroke="rgb(204, 204, 204)" stroke-width="1px"></line><line x1="270" y1="0" x2="270" y2="5" style="visibility: inherit;" fill="rgb(0, 0, 0)" stroke="rgb(204, 204, 204)" stroke-width="1px"></line><line x1="324" y1="0" x2="324" y2="5" style="visibility: inherit;" fill="rgb(0, 0, 0)" stroke="rgb(204, 204, 204)" stroke-width="1px"></line><line x1="378" y1="0" x2="378" y2="5" style="visibility: inherit;" fill="rgb(0, 0, 0)" stroke="rgb(204, 204, 204)" stroke-width="1px"></line><line x1="432" y1="0" x2="432" y2="5" style="visibility: inherit;" fill="rgb(0, 0, 0)" stroke="rgb(204, 204, 204)" stroke-width="1px"></line><line x1="486" y1="0" x2="486" y2="5" style="visibility: inherit;" fill="rgb(0, 0, 0)" stroke="rgb(204, 204, 204)" stroke-width="1px"></line><line x1="540" y1="0" x2="540" y2="5" style="visibility: inherit;" fill="rgb(0, 0, 0)" stroke="rgb(204, 204, 204)" stroke-width="1px"></line><line x1="594" y1="0" x2="594" y2="5" style="visibility: inherit;" fill="rgb(0, 0, 0)" stroke="rgb(204, 204, 204)" stroke-width="1px"></line><line x1="648" y1="0" x2="648" y2="5" style="visibility: inherit;" fill="rgb(0, 0, 0)" stroke="rgb(204, 204, 204)" stroke-width="1px"></line></g><g transform="translate(0, 8)"><text x="0" y="0" dx="0em" dy="0.95em" style="text-anchor: middle; visibility: hidden; font-family: Roboto, sans-serif; font-size: 12px; font-weight: 200;" fill="rgb(50, 49, 63)" stroke="none" stroke-width="1px">-5M</text><text x="54" y="0" dx="0em" dy="0.95em" style="text-anchor: middle; visibility: inherit; font-family: Roboto, sans-serif; font-size: 12px; font-weight: 200;" fill="rgb(50, 49, 63)" stroke="none" stroke-width="1px">0</text><text x="108" y="0" dx="0em" dy="0.95em" style="text-anchor: middle; visibility: inherit; font-family: Roboto, sans-serif; font-size: 12px; font-weight: 200;" fill="rgb(50, 49, 63)" stroke="none" stroke-width="1px">5M</text><text x="162" y="0" dx="0em" dy="0.95em" style="text-anchor: middle; visibility: inherit; font-family: Roboto, sans-serif; font-size: 12px; font-weight: 200;" fill="rgb(50, 49, 63)" stroke="none" stroke-width="1px">10M</text><text x="216" y="0" dx="0em" dy="0.95em" style="text-anchor: middle; visibility: inherit; font-family: Roboto, sans-serif; font-size: 12px; font-weight: 200;" fill="rgb(50, 49, 63)" stroke="none" stroke-width="1px">15M</text><text x="270" y="0" dx="0em" dy="0.95em" style="text-anchor: middle; visibility: inherit; font-family: Roboto, sans-serif; font-size: 12px; font-weight: 200;" fill="rgb(50, 49, 63)" stroke="none" stroke-width="1px">20M</text><text x="324" y="0" dx="0em" dy="0.95em" style="text-anchor: middle; visibility: inherit; font-family: Roboto, sans-serif; font-size: 12px; font-weight: 200;" fill="rgb(50, 49, 63)" stroke="none" stroke-width="1px">25M</text><text x="378" y="0" dx="0em" dy="0.95em" style="text-anchor: middle; visibility: inherit; font-family: Roboto, sans-serif; font-size: 12px; font-weight: 200;" fill="rgb(50, 49, 63)" stroke="none" stroke-width="1px">30M</text><text x="432" y="0" dx="0em" dy="0.95em" style="text-anchor: middle; visibility: inherit; font-family: Roboto, sans-serif; font-size: 12px; font-weight: 200;" fill="rgb(50, 49, 63)" stroke="none" stroke-width="1px">35M</text><text x="486" y="0" dx="0em" dy="0.95em" style="text-anchor: middle; visibility: inherit; font-family: Roboto, sans-serif; font-size: 12px; font-weight: 200;" fill="rgb(50, 49, 63)" stroke="none" stroke-width="1px">40M</text><text x="540" y="0" dx="0em" dy="0.95em" style="text-anchor: middle; visibility: inherit; font-family: Roboto, sans-serif; font-size: 12px; font-weight: 200;" fill="rgb(50, 49, 63)" stroke="none" stroke-width="1px">45M</text><text x="594" y="0" dx="0em" dy="0.95em" style="text-anchor: middle; visibility: inherit; font-family: Roboto, sans-serif; font-size: 12px; font-weight: 200;" fill="rgb(50, 49, 63)" stroke="none" stroke-width="1px">50M</text><text x="648" y="0" dx="0em" dy="0.95em" style="text-anchor: middle; visibility: hidden; font-family: Roboto, sans-serif; font-size: 12px; font-weight: 200;" fill="rgb(50, 49, 63)" stroke="none" stroke-width="1px">55M</text></g><line x1="0" y1="0" x2="648" y2="0" fill="rgb(0, 0, 0)" stroke="rgb(204, 204, 204)" stroke-width="1px"></line></g></g></g></g></svg>