<svg viewBox="0 0 718 400" xmlns="http://www.w3.org/2000/svg"><g><g><g><g><g><line x1="80" y1="378" x2="75" y2="378" style="visibility: inherit;" fill="rgb(0, 0, 0)" stroke="rgb(204, 204, 204)" stroke-width="1px"></line><line x1="80" y1="348.92307692307696" x2="75" y2="348.92307692307696" style="visibility: inherit;" fill="rgb(0, 0, 0)" stroke="rgb(204, 204, 204)" stroke-width="1px"></line><line x1="80" y1="319.84615384615387" x2="75" y2="319.84615384615387" style="visibility: inherit;" fill="rgb(0, 0, 0)" stroke="rgb(204, 204, 204)" stroke-width="1px"></line><line x1="80" y1="290.7692307692307" x2="75" y2="290.7692307692307" style="visibility: inherit;" fill="rgb(0, 0, 0)" stroke="rgb(204, 204, 204)" stroke-width="1px"></line><line x1="80" y1="261.6923076923077" x2="75" y2="261.6923076923077" style="visibility: inherit;" fill="rgb(0, 0, 0)" stroke="rgb(204, 204, 204)" stroke-width="1px"></line><line x1="80" y1="232.61538461538464" x2="75" y2="232.61538461538464" style="visibility: inherit;" fill="rgb(0, 0, 0)" stroke="rgb(204, 204, 204)" stroke-width="1px"></line><line x1="80" y1="203.53846153846152" x2="75" y2="203.53846153846152" style="visibility: inherit;" fill="rgb(0, 0, 0)" stroke="rgb(204, 204, 204)" stroke-width="1px"></line><line x1="80" y1="174.46153846153848" x2="75" y2="174.46153846153848" style="visibility: inherit;" fill="rgb(0, 0, 0)" stroke="rgb(204, 204, 204)" stroke-width="1px"></line><line x1="80" y1="145.38461538461536" x2="75" y2="145.38461538461536" style="visibility: inherit;" fill="rgb(0, 0, 0)" stroke="rgb(204, 204, 204)" stroke-width="1px"></line><line x1="80" y1="116.30769230769232" x2="75" y2="116.30769230769232" style="visibility: inherit;" fill="rgb(0, 0, 0)" stroke="rgb(204, 204, 204)" stroke-width="1px"></line><line x1="80" y1="87.23076923076921" x2="75" y2="87.23076923076921" style="visibility: inherit;" fill="rgb(0, 0, 0)" stroke="rgb(204, 204, 204)" stroke-width="1px"></line><line x1="80" y1="58.15384615384616" x2="75" y2="58.15384615384616" style="visibility: inherit;" fill="rgb(0, 0, 0)" stroke="rgb(204, 204, 204)" stroke-width="1px"></line><line x1="80" y1="29.07692307692306" x2="75" y2="29.07692307692306" style="visibility: inherit;" fill="rgb(0, 0, 0)" stroke="rgb(204, 204, 204)" stroke-width="1px"></line><line x1="80" y1="0" x2="75" y2="0" style="visibility: inherit;" fill="rgb(0, 0, 0)" stroke="rgb(204, 204, 204)" stroke-width="1px"></line></g><g transform="translate(70, 0)"><text x="0" y="378" dx="0em" dy="0.3em" style="text-anchor: end; visibility: hidden; font-family: Roboto, sans-serif; font-size: 12px; font-weight: 200;" fill="rgb(50, 49, 63)" stroke="none" stroke-width="1px">1.8e+3</text><text x="0" y="348.92307692307696" dx="0em" dy="0.3em" style="text-anchor: end; visibility: inherit; font-family: Roboto, sans-serif; font-size: 12px; font-weight: 200;" fill="rgb(50, 49, 63)" stroke="none" stroke-width="1px">1.85e+3</text><text x="0" y="319.84615384615387" dx="0em" dy="0.3em" style="text-anchor: end; visibility: inherit; font-family: Roboto, sans-serif; font-size: 12px; font-weight: 200;" fill="rgb(50, 49, 63)" stroke="none" stroke-width="1px">1.9e+3</text><text x="0" y="290.7692307692307" dx="0em" dy="0.3em" style="text-anchor: end; visibility: inherit; font-family: Roboto, sans-serif; font-size: 12px; font-weight: 200;" fill="rgb(50, 49, 63)" stroke="none" stroke-width="1px">1.95e+3</text><text x="0" y="261.6923076923077" dx="0em" dy="0.3em" style="text-anchor: end; visibility: inherit; font-family: Roboto, sans-serif; font-size: 12px; font-weight: 200;" fill="rgb(50, 49, 63)" stroke="none" stroke-width="1px">2e+3</text><text x="0" y="232.61538461538464" dx="0em" dy="0.3em" style="text-anchor: end; visibility: inherit; font-family: Roboto, sans-serif; font-size: 12px; font-weight: 200;" fill="rgb(50, 49, 63)" stroke="none" stroke-width="1px">2.05e+3</text><text x="0" y="203.53846153846152" dx="0em" dy="0.3em" style="text-anchor: end; visibility: inherit; font-family: Roboto, sans-serif; font-size: 12px; font-weight: 200;" fill="rgb(50, 49, 63)" stroke="none" stroke-width="1px">2.1e+3</text><text x="0" y="174.46153846153848" dx="0em" dy="0.3em" style="text-anchor: end; visibility: inherit; font-family: Roboto, sans-serif; font-size: 12px; font-weight: 200;" fill="rgb(50, 49, 63)" stroke="none" stroke-width="1px">2.15e+3</text><text x="0" y="145.38461538461536" dx="0em" dy="0.3em" style="text-anchor: end; visibility: inherit; font-family: Roboto, sans-serif; font-size: 12px; font-weight: 200;" fill="rgb(50, 49, 63)" stroke="none" stroke-width="1px">2.2e+3</text><text x="0" y="116.30769230769232" dx="0em" dy="0.3em" style="text-anchor: end; visibility: inherit; font-family: Roboto, sans-serif; font-size: 12px; font-weight: 200;" fill="rgb(50, 49, 63)" stroke="none" stroke-width="1px">2.25e+3</text><text x="0" y="87.23076923076921" dx="0em" dy="0.3em" style="text-anchor: end; visibility: inherit; font-family: Roboto, sans-serif; font-size: 12px; font-weight: 200;" fill="rgb(50, 49, 63)" stroke="none" stroke-width="1px">2.3e+3</text><text x="0" y="58.15384615384616" dx="0em" dy="0.3em" style="text-anchor: end; visibility: inherit; font-family: Roboto, sans-serif; font-size: 12px; font-weight: 200;" fill="rgb(50, 49, 63)" stroke="none" stroke-width="1px">2.35e+3</text><text x="0" y="29.07692307692306" dx="0em" dy="0.3em" style="text-anchor: end; visibility: inherit; font-family: Roboto, sans-serif; font-size: 12px; font-weight: 200;" fill="rgb(50, 49, 63)" stroke="none" stroke-width="1px">2.4e+3</text><text x="0" y="0" dx="0em" dy="0.3em" style="text-anchor: end; visibility: hidden; font-family: Roboto, sans-serif; font-size: 12px; font-weight: 200;" fill="rgb(50, 49, 63)" stroke="none" stroke-width="1px">2.45e+3</text></g><line x1="80" y1="0" x2="80" y2="378" fill="rgb(0, 0, 0)" stroke="rgb(204, 204, 204)" stroke-width="1px"></line></g></g><g transform="translate(80, 0)" clip-path="url(#clip_0)"><clipPath id="clip_0"><rect width="638" height="378"></rect></clipPath><g><g><g><line x1="0" y1="0" x2="0" y2="378" fill="rgb(0, 0, 0)" stroke="rgb(60, 60, 60)" stroke-width="1px" opacity="0.25"></line><line x1="53.166666666666664" y1="0" x2="53.166666666666664" y2="378" fill="rgb(0, 0, 0)" stroke="rgb(60, 60, 60)" stroke-width="1px" opacity="0.25"></line><line x1="106.33333333333333" y1="0" x2="106.33333333333333" y2="378" fill="rgb(0, 0, 0)" stroke="rgb(60, 60, 60)" stroke-width="1px" opacity="0.25"></line><line x1="159.5" y1="0" x2="159.5" y2="378" fill="rgb(0, 0, 0)" stroke="rgb(60, 60, 60)" stroke-width="1px" opacity="0.25"></line><line x1="212.66666666666666" y1="0" x2="212.66666666666666" y2="378" fill="rgb(0, 0, 0)" stroke="rgb(60, 60, 60)" stroke-width="1px" opacity="0.25"></line><line x1="265.83333333333337" y1="0" x2="265.83333333333337" y2="378" fill="rgb(0, 0, 0)" stroke="rgb(60, 60, 60)" stroke-width="1px" opacity="0.25"></line><line x1="319" y1="0" x2="319" y2="378" fill="rgb(0, 0, 0)" stroke="rgb(60, 60, 60)" stroke-width="1px" opacity="0.25"></line><line x1="372.1666666666667" y1="0" x2="372.1666666666667" y2="378" fill="rgb(0, 0, 0)" stroke="rgb(60, 60, 60)" stroke-width="1px" opacity="0.25"></line><line x1="425.3333333333333" y1="0" x2="425.3333333333333" y2="378" fill="rgb(0, 0, 0)" stroke="rgb(60, 60, 60)" stroke-width="1px" opacity="0.25"></line><line x1="478.5" y1="0" x2="478.5" y2="378" fill="rgb(0, 0, 0)" stroke="rgb(60, 60, 60)" stroke-width="1px" opacity="0.25"></line><line x1="531.6666666666667" y1="0" x2="531.6666666666667" y2="378" fill="rgb(0, 0, 0)" stroke="rgb(60, 60, 60)" stroke-width="1px" opacity="0.25"></line><line x1="584.8333333333333" y1="0" x2="584.8333333333333" y2="378" fill="rgb(0, 0, 0)" stroke="rgb(60, 60, 60)" stroke-width="1px" opacity="0.25"></line><line x1="638" y1="0" x2="638" y2="378" fill="rgb(0, 0, 0)" stroke="rgb(60, 60, 60)" stroke-width="1px" opacity="0.25"></line></g><g><line x1="0" y1="378" x2="638" y2="378" fill="rgb(0, 0, 0)" stroke="rgb(60, 60, 60)" stroke-width="1px" opacity="0.25"></line><line x1="0" y1="348.92307692307696" x2="638" y2="348.92307692307696" fill="rgb(0, 0, 0)" stroke="rgb(60, 60, 60)" stroke-width="1px" opacity="0.25"></line><line x1="0" y1="319.84615384615387" x2="638" y2="319.84615384615387" fill="rgb(0, 0, 0)" stroke="rgb(60, 60, 60)" stroke-width="1px" opacity="0.25"></line><line x1="0" y1="290.7692307692307" x2="638" y2="290.7692307692307" fill="rgb(0, 0, 0)" stroke="rgb(60, 60, 60)" stroke-width="1px" opacity="0.25"></line><line x1="0" y1="261.6923076923077" x2="638" y2="261.6923076923077" fill="rgb(0, 0, 0)" stroke="rgb(60, 60, 60)" stroke-width="1px" opacity="0.25"></line><line x1="0" y1="232.61538461538464" x2="638" y2="232.61538461538464" fill="rgb(0, 0, 0)" stroke="rgb(60, 60, 60)" stroke-width="1px" opacity="0.25"></line><line x1="0" y1="203.53846153846152" x2="638" y2="203.53846153846152" fill="rgb(0, 0, 0)" stroke="rgb(60, 60, 60)" stroke-width="1px" opacity="0.25"></line><line x1="0" y1="174.46153846153848" x2="638" y2="174.46153846153848" fill="rgb(0, 0, 0)" stroke="rgb(60, 60, 60)" stroke-width="1px" opacity="0.25"></line><line x1="0" y1="145.38461538461536" x2="638" y2="145.38461538461536" fill="rgb(0, 0, 0)" stroke="rgb(60, 60, 60)" stroke-width="1px" opacity="0.25"></line><line x1="0" y1="116.30769230769232" x2="638" y2="116.30769230769232" fill="rgb(0, 0, 0)" stroke="rgb(60, 60, 60)" stroke-width="1px" opacity="0.25"></line><line x1="0" y1="87.23076923076921" x2="638" y2="87.23076923076921" fill="rgb(0, 0, 0)" stroke="rgb(60, 60, 60)" stroke-width="1px" opacity="0.25"></line><line x1="0" y1="58.15384615384616" x2="638" y2="58.15384615384616" fill="rgb(0, 0, 0)" stroke="rgb(60, 60, 60)" stroke-width="1px" opacity="0.25"></line><line x1="0" y1="29.07692307692306" x2="638" y2="29.07692307692306" fill="rgb(0, 0, 0)" stroke="rgb(60, 60, 60)" stroke-width="1px" opacity="0.25"></line><line x1="0" y1="0" x2="638" y2="0" fill="rgb(0, 0, 0)" stroke="rgb(60, 60, 60)" stroke-width="1px" opacity="0.25"></line></g></g></g><g><g><line x1="0" y1="1424.7692307692307" x2="638" y2="1424.7692307692307" fill="rgb(0, 0, 0)" stroke="rgb(153, 153, 153)" stroke-width="1.5px"></line></g></g><g><g><line x1="53.166666666666664" y1="0" x2="53.166666666666664" y2="378" fill="rgb(0, 0, 0)" stroke="rgb(153, 153, 153)" stroke-width="1.5px"></line></g></g><g><g><g><g><g><path stroke="rgb(255, 112, 67)" stroke-width="2px" d="M56.97169866666667,514.6691140889761L57.94486133333333,314.1176756405418L58.4586959,293.84331555196223L58.8948646,229.57099591170186L59.22631623333333,140.29810281937503L59.78006833333333,39.51449696048388L60.457762566666666,-101.20761557059303L87.55320786666667,-17.595942064513384L88.46317663333333,74.81228091515084L88.50965493333334,127.46583008755626L88.59393473333334,-2.6097327167034967L93.84921516666667,-58.090548411931955L93.87266166666666,22.13644018361019L94.80206816666667,37.47386411016602L95.22476443333333,-28.691066149285124L95.29877243333333,18.840744925813556L96.1868259,-58.71278381374264L96.26857496666668,48.9790989425236L96.65253399999999,18.45453628859116L97.1841475,124.12379869623155L97.44602523333333,211.48474075620032L98.2324134,15.002844453720316L98.42191003333332,51.10509128761678L99.30006386666668,62.763977849493045L99.67191153333334,69.06146363277274L100.11839456666667,141.46149356427892L100.17423020000001,81.62028075395199L100.33983373333334,93.40170691390966L101.98470406666667,136.06071645603788L103.61046630000001,166.54104525823817L103.91309096666667,168.77878100109683L104.79763543333333,102.66296090835047L105.02458266666667,143.013161160395L105.77499826666666,150.00974285008311L106.24660786666666,133.97015340235774L106.26747046666668,193.89839973372221L106.70024713333335,257.071347532541L108.76617619999999,245.42803928875534L108.98470183333333,271.93866972709947L109.21196806666667,190.3792018362598L109.46348893333332,236.5832134094482L112.0051746,44.01885112259197L112.68096546666666,85.96084913509358L114.52028756666667,184.16727871182556L115.43741256666667,130.04005953478753L116.20432046666666,203.63634341318024L117.14291416666666,85.42857527867733L117.25498950000001,116.38945285951398L117.54650233333334,223.82505633109307L117.71334996666667,242.92641841404048L117.77806443333334,216.70354335611677L118.23724366666666,276.80243370597776L118.66475683333334,270.99099868512513L118.9759626,204.23275305722902L119.25810746666666,182.78703644972197L120.28906230000001,181.550375715987L120.3097973,225.2379177372844L120.7867661,267.7335198731399L121.39987346666666,255.77980423157624L121.58032113333333,294.2001902312535L121.74949746666667,174.65919106182903L122.66306030000001,230.87305309863584L122.85517273333333,230.8721395514893L123.1966516,213.19282219243206L123.39936546666668,172.1126163923824L123.76406753333333,156.07126214312163L123.89721813333334,81.77937267048827L124.180639,189.56731590998515L124.2010231,237.72438954599102L124.22426756666667,204.04509526605634L124.52889130000001,239.66521100578763L124.9128078,225.67974198808804L125.504808,271.95307596208363L125.98403106666666,231.56076865417322L126.20970229999999,266.40969196173467L126.58019953333333,301.0433536385792L128.5875921,41.754627567762896L128.79923796666668,161.8306226945038L129.03429843333333,164.78945053977912L130.36131716666665,144.00105493925207L131.45309466666666,75.70032527124366L131.47307469999998,178.2435797781308L131.9193557,145.32768632841706L131.9442377,112.78430410474252L132.26958580000002,225.61642861669168L132.82080716666667,283.0806264007843L133.8073253,295.46068353277826L133.95701073333333,334.7570255042823L134.33057036666668,264.3582153025693L134.8482223,278.64446764307996L135.35828203333332,253.71960366277114L135.42989753333333,165.72345450535497L136.23254406666666,189.92145731859736L137.29991806666666,267.0137974680814L138.3122433,290.0076630962334L139.49983776666667,337.30059785774006L139.96844876666665,312.1748202531056L140.13464776666666,318.73258445955565L140.3271749,316.3866275988102L140.8863819,259.8492073285168L141.75287096666668,194.75629362787924L141.8129812,257.35346848441986L142.48366806666667,259.08900416757507L142.8291557,263.85217173131423L143.690679,259.4989953464809L143.75277766666667,267.82001259250393L143.8356007,323.2901614016562L143.98471193333333,310.9796353025321L144.04583233333332,357.7927042584423L144.4551625,287.0190071704501L144.95723660000002,235.0175581484239L146.01104246666665,258.9465348890543L146.46831833333334,206.07807477958644L147.9099325,275.544691021598L147.95460313333334,303.5003530744972L149.09813306666666,250.02390415239066L149.37909763333332,202.12018864528062L149.50629356666667,223.62288241793766L149.763482,197.910344835378L149.83368326666667,160.8495915166115L150.66674113333332,271.43652414073614L151.48299833333334,235.6705298690571L151.52504253333333,221.88724099835724L151.72867086666665,198.49726767593734L151.9660494,281.9291298363317L152.0933623,349.20178559410675L152.2448873,374.2127636641564L153.0425468,329.20458127541696L153.60094566666666,184.26367184217332L153.87704016666666,215.4677415668426L153.9493362,185.10833724779786L154.42998413333333,208.06561773329423L155.2272502,225.79444756305358L155.46564953333333,192.00220699937069L156.2600765,116.36440112269916L156.95267866666666,45.39402528900417L158.31008746666666,146.33549209647944L158.54147943333334,115.48252602711844L161.07308469999998,177.22305407780934L161.31385526666668,202.17137090822408L163.12822093333335,264.3612840833961L163.21333013333336,224.21430891157607L163.75879886666664,135.22643150079173L164.83475396666665,142.31370505432125L165.6405160666667,174.24729995566975L166.55029343333334,200.15330305032487L166.59667603333332,252.4501356763487L166.74832863333333,280.5716198673477L166.94665093333333,312.5645103819471L167.47526583333334,172.186090844553L168.53427140000002,112.84888527596259L169.7650372,117.25640808865442L169.83230366666666,241.09353716088498L169.85656893333334,183.7355069119155L170.0415995666667,122.33730414714928L170.89630689999998,196.22330556521257L171.5120088,178.2139833391277L171.9140126,247.42808231116894L172.36327093333333,202.19100323285534L173.05192813333332,273.2124480935593L173.30284289999997,238.82962270228944L175.20395530000002,183.77285054445045L175.39467476666667,296.356018018978L175.43593210000003,340.6443800421561L176.35632153333333,262.3078587945244L176.43799616666666,317.4240998920993L176.7689055,284.66369070449036L176.83632083333333,212.20375288423264L176.85866146666666,208.50502096130884L177.54354383333333,196.28332026909305L177.8223392,218.72506908453292L178.35849313333335,284.993810681489L178.63114243333334,334.52490179350883L178.9701969,124.8823256914899L179.16699863333335,194.02847233797073L179.23512639999998,179.4558526335516L179.89007593333332,239.1012038878233L180.40815320000002,235.11118387115545L180.47016680000002,233.18240263038555L181.3194724,216.90513388592373L181.48954193333336,264.8273880238619L182.19451066666667,113.76904819893227L183.07713049999998,240.62942891935924L183.26491516666667,255.56781119776937L183.374598,265.92653287250766L184.43659153333334,333.7848428004276L184.68036070000002,357.2862902956412L187.75712633333333,352.5453126389231L189.09856386666667,391.33887989104625L189.6945622,309.00763562693544L190.17686893333334,313.3430429146229L191.24163776666668,322.22490267185066L191.9830044,230.088172372341L192.25132593333333,242.9624418849431L193.7325918,319.5411574386581L193.89953513333333,262.90500215550264L194.4228121,231.01684744714757L194.75114816666667,265.6181084682884L195.00154189999998,220.31609585020374L195.91169143333332,192.6696575101221L197.17366606666667,242.84240989068869L197.21439173333334,303.6512920882593L197.62846436666666,249.41662140680174L197.73575469999997,258.9792036133119L197.77319466666668,311.7050606295256L197.81414363333332,302.63288253156145L199.57823489999998,370.6960372112445L199.954623,384.7831607882853L200.72211573333334,340.89697339604805L201.17249056666665,358.7621840376289L201.86213666666666,296.4400796533465L201.9008101,339.99697086893093L202.41647360000002,343.33479790597386L202.43509256666667,368.59903258973816L202.54433943333333,267.9151118615352L202.64078376666666,284.9656825015365L204.81635313333334,351.25633257784506L205.97560976666668,329.852876469784L206.0343483,328.8741874203319L206.35633626666666,320.3780509137376L206.45762939999997,368.3166767020888L206.73115063333333,329.8540060212533L206.8354211,337.94686515121356L207.17193419999998,228.12319601380517L207.27459903333332,255.97299453135997L207.47027363333333,144.04656594958539L207.83192393333331,101.08270880052035L209.05830880000002,66.69762528031217L210.0642434,99.80072901434114L210.27616573333336,198.98443740860458L210.71157946666668,242.44420090670116L211.7920112,292.2468282363283L212.6442622333333,309.5671738648739L212.82197713333335,182.48368893430893L213.00608266666669,292.3259056682777L213.3334192,333.3413895548127L214.2144440333333,262.8109875790414L214.2791691333333,291.2078233166556L214.52342743333335,289.6366939899933L215.49051846666669,289.8570933170729L215.85266853333334,256.72533291332076L215.96298936666665,260.10781513260775L216.00292816666666,266.78961215648764L217.2174356,253.3525365246619L218.62959543333335,248.31429114556636L218.69412913333335,203.42057468733998L218.83063986666667,121.81972942778849L219.69383259999998,172.8838376566729L220.02107343333333,121.17645644015748L220.67927676666667,225.5341815564022L221.68450956666666,244.41712431845673L222.14175353333331,158.74627459107404L222.8954761,142.2360724469522L223.53654913333332,217.6997973143251L223.85576179999998,208.7786476193644L224.15905636666668,140.619803956234L225.39421373333334,218.1257285275867L225.62657333333334,316.2698986550136L225.64735086666667,305.139169962239L226.25281286666666,244.02873274657418L226.34719433333333,3.5913934940983974L226.39536333333334,13.552989942612674L226.66083513333334,67.91394781172133L227.18548380000001,114.72006099472507L227.45410306666668,199.3292673660658L227.62174819999998,228.22894503502397L227.74691316666667,283.71767471332197L227.99158616666668,263.7419894433778L228.16638753333334,261.99165520448815L228.20896340000002,300.2534546611544L229.06329856666667,342.0523804890003L229.24349103333333,363.17727444724636L229.28554586666667,343.9839031298862L230.01429073333333,345.02911110870093L230.1333628,378.9202358959897L230.479733,392.5090646145169L231.92373966666668,342.7411310764025L231.98651886666667,375.91914018430305L232.5412067,319.0628687259664L233.36347173333334,316.35218277404135L233.38618453333333,262.8525404336555L233.95385566666664,313.5638319525011L234.3263626,372.834914556116L234.5806906666667,304.6511025798235L234.68088856666668,281.1869692402018L235.53814789999998,311.53802769796715L235.67957123333332,296.48466277262656L236.27724963333333,291.639720740499L237.48489856666666,163.35306321353025L238.7438427,198.2690686973489L239.42102653333333,295.283902756871L240.35443116666667,160.65464934643023L240.82070283333334,202.23278960785814L241.22230256666666,180.19136607240725L241.2439414,204.6502042588289L241.8432786,150.00612255529745L242.3555926,234.22521199471697L242.64565929999998,210.78497335067632L243.21560596666666,221.6106763180982L243.6623123,238.80640579085897L243.9609282,243.07584347451532L244.06659163333333,308.9088907000939L245.21920243333335,262.1084113431333L245.45447556666667,230.07366219049538L245.75126253333332,109.43250500660506L246.17277850000002,107.76288761934761L246.46672636666665,244.4694248793008L248.1400834,276.9462703121959L248.75413713333333,332.4877621873175L249.31237649999997,236.47850346623667L249.44548456666666,170.73140977204963L249.63950036666665,216.18776894015272L250.78086109999998,287.6585075179378L250.96283996666668,338.68248912614723L251.63789713333333,309.9799550141499L251.72435676666666,276.94058839310543L252.39721283333333,136.38958380509396L252.5234411333333,122.30882720613342L252.9100266,205.27821940060312L253.05047166666665,183.4143162557466L253.66709866666667,258.92243590729413L253.7093449,326.5583846212995L254.18470806666664,280.6070307727797L254.23379153333335,131.61098769443723L255.2102824333333,225.97951569358534L255.42570313333334,234.21663249307423L256.12247356666666,261.02474872661367L256.2263825,304.79084923596815L256.38309656666667,294.52989415696555L257.23054133333335,311.86747495571785L257.33174940000004,185.02694651189233L258.69587846666667,222.4389371379047L259.1660419333333,169.98397766735812L259.7562982666667,264.3559250619534L260.30854043333335,161.87017042178746L261.630402,200.86856379153411L261.71128976666665,306.3808305826128L262.3924292,355.0334214264907L263.74322406666664,371.89636054820204L264.6076609,363.40489325199815L265.46750413333336,364.12539748966043L265.7357618666667,335.24816157071933L265.77540293333334,372.12120463473934L265.924461,223.97056893468968L266.25958113333337,223.24141828389088L266.67548270000003,237.22608173956522L266.99248363333334,243.98857212066218L267.26246396666664,330.3919125031666L267.3696905,320.8234551942077L267.59051293333334,280.19007311652456L269.103934,324.4315823314532L269.80440483333336,290.03125709117967L270.9067625,174.71660040855392L271.1188337,176.24288332205543L271.31908063333333,196.0004992240026L271.5336613,246.00399184209382L272.1262782333333,249.4879335667948L272.408774,249.71737552469236L273.77423223333335,208.4495022378923L273.7972853,190.66723980427383L274.2272228666667,188.83726695948727L274.49360913333334,202.16143709876928L274.66572026666665,260.40086225926166L275.5583992333333,259.5217481247877L275.5788790333333,277.6035104133341L275.98959153333334,194.70856778646197L276.89440313333336,228.71314067187723L277.13735353333334,274.2383459415878L277.4324817,145.46854602649117L277.6973261333333,234.52666607743325L278.0600504,297.03353810799837L278.6219689,269.63796901864526L278.8419087666667,268.3206275650332L279.11880076666665,209.14376115440444L279.794581,149.91087207725812L279.8169216333333,171.12929247712415L279.8365933,242.2468062555053L280.0578198,293.98931452253396L280.3289379,289.90989640582796L280.4588347,194.648707074266L280.62817053333333,256.3584550137904L280.75291016666665,229.1824576236587L282.2596535,227.2990130357337L282.8264527,311.53879243682485L283.4901853666667,258.10358315440254L283.8606188,288.8486114311032L284.9725571,268.914089935585L285.3222661666667,222.75891549981264L285.47238756666667,259.5002723768105L286.6134612,271.0773941953172L286.85665616666665,319.1965903633443L288.1988274,127.3161080641603L288.2557051,225.03089560772693L288.2736754333333,311.80622967232847L289.3372533333333,315.254814726474L290.42553246666665,357.33381191280745L290.5596081666667,349.31721022460755L290.5805133,322.1761722886106L290.7067947666667,287.04970337316627L291.6154769,244.8058220238997L291.9784138333333,283.661339368186L292.92068666666665,227.65280362091167L293.1875408,175.4384514033163L293.6654240666667,259.02184007275906L294.0244373,322.8961809667324L294.4262497,331.6786316569626L294.63473746666665,135.270563609562L294.6766966,170.4866458580448L296.02206846666667,192.54675674559599L296.2413278,143.9071309704346L296.41150366666665,120.77135550533775L296.8650791333333,139.45604407243331L297.01440303333334,202.07485721269077L297.41839526666666,207.07999125069145L298.9370054,100.52122551964567L300.11470023333334,212.90842761947968L301.79745713333335,236.37644118707243L302.7750964333333,156.24801855839735L302.7963737333333,198.19311882734596L302.89948516666664,276.86171745025365L303.0775935,182.4001073932291L303.4840207666667,164.10467982055292L304.3426518,115.67634635387019L304.86704526666665,107.08950012001443L304.98845666666665,180.32877699508535L305.00724576666664,267.073573889359L305.7520682333333,253.98814433361542L305.9777713666667,292.4273481386308L306.8137853,315.0256396524093L306.9006702666667,262.52184532990725L307.0238361666667,321.0417225825596L307.16176113333336,327.3093412418434L307.1849418,259.19175859125994L309.36314823333333,214.13413207783307L309.386935,178.0275561697767L310.74977743333335,208.93468754801987L310.9548838,247.94912022111959L311.0698514,189.01193367113336L311.8168218,250.1850063565261L311.92982223333337,220.36084996776177L312.20400273333337,285.9752792114263L312.2535009,189.49655214224043L313.5881331,108.11516205457492L314.55047103333334,172.570020309668L314.7127676,237.76108910887768L315.4179171,200.57788423455736L317.2874804,127.09257669458061L318.21954523333335,93.00385370905613L318.66245546666664,144.4287737638952L318.8481879,225.06341810449112L319.3132048333333,296.9383585550024L319.9713018333333,235.15378436377074L320.01686566666666,268.3328860028778L320.09892310000004,333.6003469863421L320.5684485666667,315.537438961036L320.6331949333333,321.9132326073909L320.7281825,290.61378571828067L321.08191096666667,276.48642527712224L321.2690789,351.28631670473493L321.3965513,354.760713099764L322.1777716666667,314.2767355521662L322.96596750000003,340.4638874851459L323.3321688666666,263.3626401833952L324.50873656666664,341.78373795619103L325.3963966,287.41608892756074L325.56639170000005,318.06688412576716L326.83232193333333,247.36566893699887L327.7062118,319.85693982373783L327.7958189,226.8064715865504L328.48737900000003,278.4444983365457L329.0418967,251.04085284808124L329.80966589999997,282.98266555500254L330.48692416666665,268.41852240992466L330.52627813333334,280.15019036903175L330.79590756666664,125.75411422141913L331.598267,71.03277622515911L331.86680119999994,161.25351188894143L332.46753136666666,190.2634917487495L332.5570959333333,162.30947966463427L332.601203,192.5253801064729L333.0455806333334,239.7318434484991L333.0685911666667,210.3671060690996L333.3834973333333,144.36426364145964L333.6513191,184.31701972333735L334.20568793333337,257.60313491092546L334.24689209999997,281.56988094655526L334.2919774333334,207.7886977987024L335.89052896666664,286.3409109869137L336.8889883333333,305.55839274599447L337.89063769999996,366.8685741091352L339.1673926666666,369.460221388558L340.75147223333335,274.47982514082713L340.9490714666667,311.2355873921886L342.3991072333333,288.859506281467L343.31488179999997,254.7310883842648L343.4019475333333,254.02634533825128L343.7675853333333,273.14319181833537L344.2639387,225.06376124484743L344.88995493333334,205.28810290075458L344.9700558333334,293.4473232789142L345.42625773333333,265.62531704427164L345.6963975666667,309.17949791887065L346.0109847333333,298.5587756743994L346.26290966666664,222.8669577123318L346.2862604666667,192.8044823197069L346.5347402,186.86299708413182L347.4082579,160.73441363509448L347.48969860000005,229.26403279644123L349.5289061,260.84457352401864L350.0070445666667,247.22674411441116L350.36923716666666,245.33666185326206L350.85748793333335,282.58415095811114L351.09683363333335,289.3474136517898L351.9957756333333,290.61398665261237L352.97914629999997,203.44531506849054L353.8209447666667,228.60503519494048L354.4735124333333,244.631328809272L355.28215616666665,303.3289511317171L356.73595613333333,287.6047552944148L356.92341116666665,271.4243916381874L356.9422747,320.1026349829125L357.33791976666663,252.77419637436276L357.513508,272.85713320923304L357.9120453333333,241.1752030024629L358.1945836333333,162.38389103224688L359.00698093333335,243.9780269270404L359.4263170666667,205.00589307930136L359.4707218666667,193.71861277065761L359.53196986666666,189.73762920085613L359.8193995,273.41673136666753L360.72675246666665,289.4297311276927L361.028569,313.92491559969244L361.45469983333334,300.0103339752001L362.8490382,245.60373884665862L363.4708649,243.4323971541489L363.8597152666667,190.2563613694124L364.70751093333337,274.19320143703214L365.26135873333334,267.33192086221936L366.4427008,322.9973063634854L366.64126766666664,204.033460741168L367.18898003333334,304.3253072139315L368.0544164,353.10226125143583L369.2381297,326.0755105970153L369.47493403333334,266.82561405051695L369.7529,250.11752227646403L370.0176912666667,214.97020567357066L370.4027668,233.65904648106542L370.79775259999997,284.6495817347932L371.04198963333334,161.95036442549127L371.1770436,120.89698788606404L371.43879373333334,141.62496196240755L371.80238993333336,200.81743871590615L371.82398623333336,217.9563093833898L372.55589983333334,97.97501639926483L372.70107673333337,243.24900983955894L374.5104553666667,239.46079051911994L374.62122280000006,310.9269358499334L374.7787875333333,324.9623153561139L374.9161276666667,284.9995430598222L375.6137487666667,302.66003352820087L375.6326123,338.84402011692043L375.74228450000004,260.52979668553695L376.04407976666664,261.46003185747605L376.21417056666667,287.14063449910105L376.23805303333336,219.7379191609989L377.6766154333334,299.09321303506084L377.71626713333336,310.6510047441134L378.5778223333333,178.48167976954485L378.5984084666667,226.65331555403455L379.4814004666667,265.7913739478055L380.4957354,222.04836283022175L380.97396956666665,319.55394077505616L383.1316217666667,290.82651831118756L383.46480663333335,253.58514175594334L383.8353995666667,277.7633927458737L384.0171764,261.33249718598574L384.75277976666666,263.10472908082227L385.4380343,295.10591437157024L385.7189031666667,301.2801640075575L385.8144117666667,215.6604060968423L386.49191460000003,295.9488590427207L386.9578779,278.5243923487093L387.0503879,267.13925079384103L387.3558410333333,222.8570889378431L389.03684343333333,246.76533028578274L390.0568778333334,283.208736633008L390.07848476666663,267.15847274903547L390.1623286,261.71539134172895L390.7776477,302.4138501896528L391.0379942333333,246.1153870368685L391.2540529333333,231.87600145289034L391.34002343333333,228.21729317942655L391.64916633333337,247.19006821534813L391.9595639666667,259.50419477536275L392.44284896666665,221.53267071137148L392.6312716333333,168.97498704220763L392.9176698333333,274.9160691484015L395.46282196666664,271.0222568736563L395.7990905,269.15120027804L396.1162084,241.27779708990084L396.39286646666665,278.7531397924021L396.59037,274.2549607985182L397.1836568333333,319.9400534021878L397.5788234,299.66495511823575L397.94077143333334,109.08389614786442L398.0680205333333,175.4774146117955L398.39615456666667,227.17691030553874L398.51684290000003,202.60153079870798L399.10548296666667,271.36522617153247L399.14829276666666,220.97298185676567L401.6926686666667,276.80532757559797L402.1965398,304.721965776128L402.3006614,328.2177948502922L402.97602693333334,269.27406152556L403.97122186666667,316.4862830691821L404.1859514,180.81976984150936L404.8231007333333,158.50416959721332L405.06598733333334,71.84096329678965L405.7537194333333,112.88919336268927L405.8229211666667,77.96859294069044L406.02456106666665,-18.81638269712413L406.1572544333333,155.26278576634098L406.4789978333333,192.9496714598046L406.7452777666667,215.56180287588265L407.72698963333335,151.43554326399124L408.76150663333334,205.77332595839465L408.78434703333335,193.71384172888312L410.0434613,212.53107426809896L410.7337985666666,258.24849071470555L411.1454999666667,298.9380175057465L411.36353646666663,292.1812720419095L412.09532246666663,282.07922476360716L412.7358638333333,303.0013810120105L412.9854069,323.6962132225909L413.15344546666665,326.343266395093L414.4094548,366.54565214474815L414.43152960000003,306.92554513300274L415.4752019,349.0796347721093L415.5364924333333,378.79178086326544L415.5772712666667,376.1489146718054L415.69972473333337,407.8271949569294L417.0977316,424.0427785126193L417.80809143333335,374.9204363383407L418.75522370000004,380.106723341466L419.1525063,306.22280323564894L419.2141477333334,326.79214347985095L419.4883814,321.2223630109875L420.80178946666666,234.37157165274635L422.24342490000004,230.41248145318633L423.27547496666665,191.98164271806573L423.3177637333334,237.31206255391638L423.5300795,190.30600676311903L424.25271019999997,224.90852713479458L424.4466728333333,194.2620393577997L425.9764692333333,234.95845438391052L426.0636519333333,204.71168801496185L427.2848158333333,294.497166655131L427.78646460000004,249.04168460846316L428.1577061666667,245.9603953804625L428.8105715666666,249.46177568981585L428.8549444666667,273.1958346446587L429.1788570666667,224.16488540217983L429.24004126666665,282.67493124130783L429.7519405666667,321.27018951401544L430.63977073333336,322.09626755456304L430.7214666333333,254.43560668658407L431.82160193333334,286.8804409350273L432.11740000000003,323.7934953302472L432.9503728,151.47486642891752L433.0162569333333,175.55691985735066L433.43064856666666,206.056613452872L434.4060867666667,37.7988911486463L434.54446896666667,131.7759500738032L434.56618223333334,173.97264696735886L434.91741186666667,245.81374202656914L435.1593733666666,243.09316829286445L436.76680373333335,181.21343943725714L436.8132395,161.0665252008159L437.2287263666667,174.33345358202797L437.50608623333335,202.99637984152446L437.7252711333333,127.38059713568393L437.9055593,117.60128135833358L440.32069766666666,167.56138419961565L440.9555395666667,141.70975359669254L441.1186974333333,264.8375444657077L442.8852875333333,337.78375744865536L443.0400557,285.2487160076548L443.8969960333333,261.1713834507468L445.0497982333333,224.1612916089096L445.3877362,158.6887749653458L445.4104915333333,167.32403420997682L445.73344713333336,169.71380514137067L446.2287371666667,165.3322830848225L446.61345116666666,211.78521600473948L446.7982053333333,301.3000526797668L447.5286409,287.78310853093706L448.1730634333333,312.7043266570238L448.3207498,296.7192113788296L449.31984716666665,299.9219883657593L450.3755670333333,267.4165776348402L450.5732300666667,310.9521004270579L450.7176945333333,328.9318756408502L450.7387379,306.92097153835635L450.82875970000003,187.87442907686008L451.66733626666667,52.24465744611604L451.9049912666667,159.5178713907465L452.28289993333334,228.7667228344479L452.54837173333334,106.32218754682255L453.4773316333334,178.70531252809357L453.5434603333333,163.51611059377933L454.1257204,238.60935866395982L454.26768603333335,256.21669212145287L454.7208149,294.9275537344102L455.0570515333333,288.3793014714154L455.23721209999997,321.66881165208L455.69457303333337,322.8006716066326L455.9419575333334,295.79855681013345L456.11110196666664,237.72651870146464L456.1984760666667,184.73929583626344L456.289625,258.32173134791185L457.78862726666665,275.0225772702857L459.28032443333336,285.74093097755605L460.4932156,358.00209704807213L460.7739675,298.5427966903818L461.40740580000005,268.4499857065368L462.03938733333337,254.11614527007603L462.0615153,238.30476408512246L462.3093995666667,270.92131998953505L462.5689379666666,327.2444843014133L462.89794393333335,347.54669058084806L463.0979569333333,309.25047588697026L463.39836986666666,268.1287470706437L463.66670203333337,338.5954020885401L463.85895270000003,363.6618566377395L464.5652080666666,260.3004985980284L465.96096066666667,290.8646068511246L466.6304672333334,246.86214872605936L466.74498823333334,271.6360584664049L466.76536169999997,287.1982504644583L467.0175312,276.9958733555981L467.2534317,231.56244709028198L469.62632383333334,147.7768528695538L469.6486432,170.31411172173225L469.7888118,251.29492857150086L469.85381336666666,278.94803406597754L470.1170628,265.29989736266344L470.4270351,295.72516918682885L472.12221173333336,270.2486399736358L472.7078744666667,299.85749167648913L472.8343898666667,310.17911039050887L472.8589209666667,219.37146623430527L473.59739533333334,280.03149512519866L474.1332409,238.03612784434995L474.68458986666667,250.28998439891765L475.62008926666664,165.75922140858117L475.6855906,84.5681482297641L476.15334029999997,137.0411966301662L476.9654824,194.3453333627153L477.1915577,178.01766155609081L477.2777089666667,244.98413539519296L477.29607273333335,315.17140431403885L479.3473278,320.763150280731L479.388734,309.9286593992078L479.4929938333333,290.168887947217L480.7777450666667,213.18071738371475L480.8209164,192.57550735330582L481.4942190666667,263.0234582581373L481.7189120333333,92.91438264719002L482.77881080000003,103.43478343446782L482.9561003666667,200.93225467606518L483.2807466666667,265.47873742102365L483.50169669999997,343.5186270679988L483.5941535333333,233.79240701003005L483.8918975,255.88529035986423L484.8718761333334,270.0714819082262L485.05705563333333,325.33888914493576L485.5602568666667,310.81317964080756L485.6297031666666,196.72298470756144L486.6222823,73.60425236299847L488.1697619333333,111.85362834087606L488.5235223,238.0844846968334L488.9909742666667,233.10546004886928L489.1404364,245.47066064470613L489.9971428,199.3882425406698L491.3283404333333,229.19479167824815L491.3781257,119.14025962233355L491.4580352,191.2810788503233L493.0292803333333,173.85295500250152L493.45703806666666,277.1450037707316L494.18480466666665,273.7553099547466L494.52871856666667,314.0574936651557L494.7706269,310.32495773755494L495.7262020333333,312.7377438733022L496.0755602,320.2334155547506L496.0939984,358.6926647174658L496.1790650666667,283.60452190740256L496.4590194666667,282.2833285290569L496.78136896666666,295.9127663482033L498.1079411,321.53658288584506L498.9050051333333,245.0277958853531L499.3678528666666,254.4849852235196L503.2379289666667,290.86452959565014L503.67795756666663,288.5002562189286L504.3019322,233.11492296212626L504.97048176666664,252.6874153157373L505.1474523333333,310.48875688174996L505.5532947666667,355.8698695136653L505.9537461,232.8289986312761L506.9257922666667,75.49555302491952L507.1169158,208.825947199567L507.5498945,225.55279908897103L508.0310315666666,217.91014099184414L508.54014493333335,253.79962305664498L508.915374,238.58008152629466L508.9835762,125.70189506962299L509.0485033333334,188.9374447340814L509.8323395,251.30338991737196L510.412441,317.5672647196539L510.80938333333336,243.34405113948466L510.85384130000006,169.50058452984456L512.6941416666666,41.452966102522005L512.9271392666667,77.908087353821L513.500999,121.64700625844657L514.0744015,115.55681913968328L514.6152553666667,116.78762994534843L514.6772689666667,237.7882702749015L516.9383516,280.61388524186384L517.0199518000001,334.4557157605029L517.3536364333333,372.5761986870709L517.3999977666666,223.0804884430118L517.5068096,205.4938315273455L517.6237656333333,279.61383737794574L517.9046026,316.1769178113828L518.070674,327.41445837913733L518.8296707,264.83759810440546L519.1739036,247.9942511703357L520.7093037666667,240.44701224066293L520.8097037,309.19251503670534L521.2667562666667,332.76104748356175L521.3139682666667,198.49355156706002L521.5709865666666,126.30720786331291L521.7438207666667,177.43724779491075L521.8806611333333,218.35034867694637L522.4409421,247.08528612924476L522.5295177666667,278.28317167754676L523.0751672666667,207.67759531422038L523.3366302999999,40.16717257314757L523.8239559666666,139.71014969773458L524.0745411,234.56085904941003L524.7947793,150.73897696810747L526.1989322333333,216.98615541163358L526.4810345666667,57.615693246980356L527.1243724999999,115.05433902511126L527.3606026333333,165.10275726122057L528.1126238666666,198.62103897211682L528.3434097333333,194.77262338327003L530.6410816666667,208.51403556842345L530.6843380666667,282.1238059564387L530.8839151000001,208.35366818924797L530.9709383,248.99620091354873L530.9956076333334,179.63772054812924L531.146165,154.77094002118517L531.4848898333333,150.78379478194182L531.5864275333333,180.0271999460882L532.5670122666667,246.1898584291913L532.6485167666666,289.60929967289945L532.6890723,281.0012721114321L533.5303071999999,152.08507095916698L533.6001044,104.97535026780767L533.8948391333333,161.148902468377L535.6049875,244.40011071179538L535.7581500333333,298.07268181169263L536.3204194333333,264.2134552408618L541.0192362666667,207.84253468297874L541.5409182333333,308.00644388671026L542.1022731666667,233.1878663320261L542.1215195,288.7865659530619L542.5779021666667,306.56055495645256L542.7112335333334,264.65387143541005L542.8014573666667,212.29386132278466L543.1381299666667,208.0938552552093L543.6182462333334,183.24277469158713L544.5501941,280.68535712264463L545.5136910666666,310.7718296582021L545.7363105333333,259.73694394876736L545.7761961666666,240.74678175387587L545.9367914,192.59945366771018L546.2565038333333,247.45259527754916L547.7642467000001,204.76448024345245L547.8065248333334,266.1497650691484L548.6122125,264.5993975030274L549.6650932666666,228.54425388643173L550.1138837333333,157.8293215626282L550.7106157666667,95.39543909142321L550.8835456666667,145.3984942240847L551.0942983333333,185.63540422675845L551.8422363666666,106.26370407451674L552.6364825666667,31.42468398317145L553.4947733333333,94.92004115913355L553.7893273,165.81602469548014L554.7136936,150.66499943267291L555.3428254,167.8599227365268L555.8218570666667,193.29687671883923L555.8668360666667,210.88520295438053L556.3561820666666,260.05235254185897L556.3793414666667,219.30279614049982L558.6296950666667,130.1859853766077L559.3257318,220.47220661058003L559.8980390666667,305.1165547355788L560.6546857999999,360.7880866875011L560.7774051,360.22915970480835L560.8588245333333,378.0378035151928L562.1291569666666,391.5143744168079L562.2332253999999,340.9812400347002L562.5030994,389.2853594054354L563.2494318,395.0426678474953L563.7266451666667,267.0329853238818L564.8784478333333,303.04563734817526L565.7544324666667,288.36522856275127L566.6057584,269.08929098380463L566.6717169666666,247.52126689797504L567.3889778333333,207.13183706186194L567.8653086333334,236.8649483909633L568.0807187,148.39958441919345L568.5836221999999,86.01575065151607L568.7442918666667,207.69437346783263L569.0931821666667,181.84000869608423L569.6948906,256.81477444841977L569.7162742333334,256.20701851520573L571.6673314,248.86390341681573L572.4729977999999,254.69311128085852L573.5513135,326.81217446082286L573.5908056999999,300.7642277534168L574.3667519333334,265.13053665204995L574.7502856333333,307.9521681450762L574.8199658666667,248.50791627166114L575.3256553,318.68136514761204L576.3176815,191.20881908856717L577.3130359333334,171.2508299146787L577.9651144666666,184.1658825641919L578.4223159,176.79491415389964L579.5351899333333,228.20002541541692L580.7513136333333,258.1126306338656L581.3091170333333,311.1851168418578" style="fill: none;" fill="none"></path></g></g></g></g><g opacity="0.2"><g><g><g><path stroke="rgb(255, 112, 67)" stroke-width="2px" d="M56.2608497,538.5046153846154L56.97169866666667,332.05846153846153L57.94486133333333,13.3753846153846L58.4586959,263.4369230769231L58.8948646,133.1723076923077L59.22631623333333,6.39692307692308L59.78006833333333,-111.6553846153846L60.940409566666666,-145.38461538461536L61.801720200000005,1.1630769230769273L62.5497752,-589.0984615384615L62.793065866666666,-961.8646153846154L63.362076800000004,48.84923076923078L64.69995216666666,5.233846153846152L66.2076206,-747.8584615384615L86.45854873333333,-284.3723076923077L86.68822873333335,13.3753846153846L87.55320786666667,171.55384615384617L88.46317663333333,213.42461538461538L88.50965493333334,206.44615384615386L88.59393473333334,-197.7230769230769L88.9657505,-169.22769230769228L90.4010272,36.63692307692306L90.95123840000001,-183.1846153846154L93.84921516666667,-19.772307692307724L93.87266166666666,142.47692307692307L94.80206816666667,60.48000000000001L95.22476443333333,-127.93846153846151L95.29877243333333,90.13846153846156L96.1868259,-175.04307692307697L96.26857496666668,210.51692307692306L96.65253399999999,-27.33230769230773L97.1841475,282.6276923076923L97.44602523333333,342.5261538461539L98.2324134,-279.71999999999997L98.42191003333332,105.25846153846153L99.30006386666668,80.2523076923077L99.67191153333334,78.50769230769232L100.11839456666667,250.06153846153845L100.17423020000001,-8.141538461538449L100.33983373333334,111.07384615384616L101.98470406666667,200.04923076923075L103.61046630000001,212.26153846153846L103.91309096666667,172.13538461538462L104.79763543333333,3.4892307692307822L105.02458266666667,203.53846153846152L105.77499826666666,160.5046153846154L106.24660786666666,109.91076923076923L106.26747046666668,283.79076923076923L106.70024713333335,351.83076923076925L108.76617619999999,227.96307692307693L108.98470183333333,311.7046153846154L109.21196806666667,68.04000000000002L109.46348893333332,305.8892307692308L112.0051746,-244.82769230769233L112.68096546666666,148.87384615384616L114.52028756666667,331.4769230769231L115.43741256666667,48.84923076923078L116.20432046666666,314.0307692307692L117.14291416666666,-91.88307692307689L117.25498950000001,162.83076923076925L117.54650233333334,384.97846153846154L117.71334996666667,271.57846153846157L117.77806443333334,177.36923076923077L118.23724366666666,366.9507692307692L118.66475683333334,262.27384615384614L118.9759626,104.0953846153846L119.25810746666666,150.61846153846153L120.28906230000001,179.69538461538463L120.3097973,290.7692307692307L120.7867661,331.4769230769231L121.39987346666666,237.8492307692308L121.58032113333333,351.83076923076925L121.74949746666667,-4.652307692307709L122.66306030000001,315.19384615384615L122.85517273333333,230.8707692307692L123.1966516,186.67384615384614L123.39936546666668,110.49230769230768L123.76406753333333,132.00923076923078L123.89721813333334,-29.658461538461502L124.180639,351.24923076923073L124.2010231,309.96000000000004L124.22426756666667,153.52615384615387L124.52889130000001,293.0953846153846L124.9128078,204.70153846153846L125.504808,341.36307692307696L125.98403106666666,170.97230769230768L126.20970229999999,318.6830769230769L126.58019953333333,352.99384615384616L128.5875921,-347.17846153846153L128.79923796666668,341.94461538461536L129.03429843333333,169.2276923076923L130.36131716666665,112.81846153846153L131.45309466666666,-26.7507692307692L131.47307469999998,332.05846153846153L131.9193557,95.95384615384614L131.9442377,63.969230769230755L132.26958580000002,394.86461538461543L132.82080716666667,369.2769230769231L133.8073253,314.0307692307692L133.95701073333333,393.70153846153846L134.33057036666668,158.76000000000002L134.8482223,300.07384615384615L135.35828203333332,216.3323076923077L135.42989753333333,33.72923076923077L136.23254406666666,226.21846153846155L137.29991806666666,382.6523076923077L138.3122433,324.4984615384615L139.49983776666667,408.24L139.96844876666665,274.48615384615385L140.13464776666666,328.5692307692308L140.3271749,312.8676923076923L140.8863819,175.0430769230769L141.75287096666668,97.11692307692307L141.8129812,351.24923076923073L142.48366806666667,261.6923076923077L142.8291557,270.9969230769231L143.690679,252.9692307692308L143.75277766666667,280.3015384615384L143.8356007,406.49538461538464L143.98471193333333,292.51384615384615L144.04583233333332,428.0123076923077L144.4551625,180.85846153846154L144.95723660000002,157.0153846153846L146.01104246666665,294.84000000000003L146.46831833333334,126.77538461538462L147.9099325,379.74461538461543L147.95460313333334,345.43384615384616L149.09813306666666,169.80923076923077L149.37909763333332,130.2646153846154L149.50629356666667,255.87692307692308L149.763482,159.34153846153845L149.83368326666667,105.25846153846153L150.66674113333332,437.3169230769231L151.48299833333334,182.02153846153848L151.52504253333333,201.21230769230772L151.72867086666665,163.41230769230768L151.9660494,407.07692307692304L152.2448873,411.72923076923075L153.0425468,261.6923076923077L153.60094566666666,-33.147692307692324L153.87704016666666,262.27384615384614L153.9493362,139.56923076923078L154.42998413333333,242.5015384615385L155.2272502,252.3876923076923L155.46564953333333,141.31384615384616L156.2600765,2.9076923076922974L156.95267866666666,-61.0615384615385L158.31008746666666,297.7476923076923L158.54147943333334,69.2030769230769L161.07308469999998,269.83384615384614L161.31385526666668,239.59384615384616L163.12822093333335,357.6461538461538L163.21333013333336,163.99384615384616L163.75879886666664,1.74461538461537L164.83475396666665,152.9446153846154L165.6405160666667,222.14769230769232L166.55029343333334,239.01230769230767L166.59667603333332,330.8953846153846L166.74832863333333,322.75384615384615L166.94665093333333,360.5538461538461L167.47526583333334,-38.381538461538476L168.53427140000002,23.843076923076907L169.7650372,123.86769230769232L169.83230366666666,426.84923076923076L169.85656893333334,97.69846153846152L170.0415995666667,30.239999999999984L170.89630689999998,307.0523076923077L171.5120088,151.20000000000002L171.9140126,351.24923076923073L172.36327093333333,134.3353846153846L173.05192813333332,379.74461538461543L173.30284289999997,187.25538461538463L175.20395530000002,101.1876923076923L175.39467476666667,465.2307692307693L175.43593210000003,407.07692307692304L176.35632153333333,144.80307692307693L176.43799616666666,400.09846153846155L176.7689055,235.52307692307693L176.83632083333333,103.51384615384616L176.85866146666666,202.9569230769231L177.54354383333333,177.95076923076923L177.8223392,252.3876923076923L178.35849313333335,384.39692307692303L178.9701969,-189.58153846153843L179.16699863333335,297.7476923076923L179.23512639999998,157.59692307692308L179.89007593333332,328.5692307692308L180.40815320000002,229.12615384615384L180.47016680000002,230.28923076923078L181.3194724,192.48923076923074L181.48954193333336,336.71076923076924L182.19451066666667,-112.81846153846158L183.07713049999998,430.9200000000001L183.26491516666667,277.9753846153846L183.374598,281.4646153846154L184.43659153333334,435.5723076923077L184.68036070000002,392.53846153846155L187.75712633333333,345.43384615384616L189.09856386666667,449.5292307692308L189.6945622,185.51076923076923L190.17686893333334,319.84615384615387L191.24163776666668,335.5476923076923L191.9830044,91.88307692307693L192.25132593333333,262.27384615384614L193.7325918,434.40923076923076L193.89953513333333,177.95076923076923L194.4228121,183.1846153846154L194.75114816666667,317.52L195.00154189999998,152.36307692307693L195.91169143333332,151.20000000000002L197.17366606666667,318.1015384615385L197.21439173333334,394.86461538461543L197.62846436666666,168.0646153846154L197.73575469999997,273.32307692307694L197.77319466666668,390.7938461538462L197.81414363333332,289.0246153846154L199.57823489999998,472.7907692307693L199.954623,405.9138461538462L200.72211573333334,275.0676923076923L201.17249056666665,385.56L201.86213666666666,202.9569230769231L201.9008101,405.3323076923077L202.41647360000002,348.34153846153845L202.43509256666667,406.49538461538464L202.54433943333333,116.88923076923075L202.64078376666666,310.5415384615385L204.81635313333334,450.6923076923077L205.97560976666668,297.7476923076923L206.0343483,327.40615384615387L206.35633626666666,307.63384615384615L206.45762939999997,440.2246153846154L206.73115063333333,272.15999999999997L206.8354211,350.0861538461538L207.17193419999998,63.38769230769231L207.27459903333332,297.7476923076923L207.47027363333333,-23.843076923076907L207.83192393333331,36.63692307692306L209.05830880000002,15.120000000000013L210.0642434,149.4553846153846L210.27616573333336,347.76L210.71157946666668,307.63384615384615L211.7920112,366.9507692307692L212.6442622333333,335.5476923076923L212.82197713333335,-8.141538461538449L213.3334192,394.86461538461543L214.2144440333333,157.0153846153846L214.2791691333333,333.8030769230769L214.52342743333335,287.28000000000003L215.49051846666669,290.1876923076923L215.85266853333334,207.02769230769232L215.96298936666665,265.1815384615385L216.00292816666666,276.8123076923077L217.2174356,233.19692307692307L218.62959543333335,240.75692307692307L218.69412913333335,136.07999999999998L218.83063986666667,-0.5815384615384427L219.69383259999998,249.47999999999996L220.02107343333333,43.61538461538463L220.67927676666667,382.07076923076926L221.68450956666666,272.7415384615384L222.14175353333331,30.239999999999984L222.8954761,117.47076923076924L223.53654913333332,330.8953846153846L223.85576179999998,195.3969230769231L224.15905636666668,38.381538461538476L225.39421373333334,334.38461538461536L225.62657333333334,463.48615384615385L225.64735086666667,288.44307692307694L226.25281286666666,152.36307692307693L226.34719433333333,-357.06461538461537L226.39536333333334,28.495384615384616L226.66083513333334,149.4553846153846L227.18548380000001,184.92923076923077L227.45410306666668,326.2430769230769L227.62174819999998,271.57846153846157L227.74691316666667,366.9507692307692L227.99158616666668,233.7784615384615L228.16638753333334,259.36615384615385L228.20896340000002,357.6461538461538L229.06329856666667,404.7507692307692L229.24349103333333,394.86461538461543L229.28554586666667,315.19384615384615L230.01429073333333,346.5969230769231L230.1333628,429.7569230769231L230.479733,412.8923076923077L231.92373966666668,268.08923076923077L231.98651886666667,425.6861538461538L232.5412067,233.7784615384615L233.36347173333334,312.2861538461538L233.38618453333333,182.6030769230769L233.95385566666664,389.6307692307692L234.3263626,461.7415384615384L234.5806906666667,202.3753846153846L234.68088856666668,245.99076923076922L235.53814789999998,357.06461538461537L235.67957123333332,273.9046153846154L236.27724963333333,284.3723076923077L237.48489856666666,-29.07692307692306L238.7438427,250.64307692307693L239.42102653333333,440.80615384615385L240.35443116666667,-41.28923076923078L240.82070283333334,264.59999999999997L241.22230256666666,147.1292307692308L241.2439414,241.33846153846153L241.8432786,68.04000000000002L242.3555926,360.5538461538461L242.64565929999998,175.6246153846154L243.21560596666666,237.8492307692308L243.6623123,264.59999999999997L243.9609282,249.47999999999996L244.06659163333333,407.6584615384615L245.21920243333335,191.9076923076923L245.45447556666667,182.02153846153848L245.75126253333332,-71.52923076923081L246.17277850000002,105.25846153846153L246.46672636666665,449.5292307692308L248.1400834,325.6615384615385L248.75413713333333,415.8L249.31237649999997,92.46461538461537L249.44548456666666,72.11076923076925L249.63950036666665,284.3723076923077L250.78086109999998,394.86461538461543L250.96283996666668,415.2184615384615L251.63789713333333,266.92615384615385L251.72435676666666,227.38153846153847L252.39721283333333,-74.4369230769231L252.5234411333333,101.1876923076923L252.9100266,329.7323076923077L253.05047166666665,150.61846153846153L253.66709866666667,372.1846153846154L253.7093449,428.0123076923077L254.18470806666664,211.68L254.23379153333335,-91.88307692307689L255.2102824333333,367.5323076923077L255.42570313333334,246.57230769230767L256.12247356666666,301.23692307692306L256.2263825,370.44L256.38309656666667,279.13846153846157L257.23054133333335,337.87384615384616L257.33174940000004,-5.233846153846152L258.69587846666667,278.55692307692306L259.1660419333333,91.30153846153848L259.7562982666667,405.9138461538462L260.30854043333335,8.141538461538449L261.630402,259.36615384615385L261.71128976666665,464.6492307692307L263.74322406666664,397.1907692307692L264.6076609,350.66769230769233L265.46750413333336,365.2061538461538L265.7357618666667,291.9323076923077L265.77540293333334,427.4307692307692L265.924461,1.74461538461537L266.25958113333337,222.14769230769232L266.67548270000003,258.20307692307694L266.99248363333334,254.13230769230768L267.26246396666664,459.9969230769231L267.3696905,306.47076923076924L267.59051293333334,219.24000000000004L269.103934,390.7938461538462L269.80440483333336,238.43076923076922L270.9067625,1.74461538461537L271.1188337,178.53230769230768L271.31908063333333,225.63692307692307L271.5336613,321.0092307692308L272.1262782333333,254.71384615384616L272.408774,250.06153846153845L273.77423223333335,146.5476923076923L273.7972853,163.99384615384616L274.2272228666667,186.0923076923077L274.49360913333334,222.14769230769232L274.66572026666665,347.76L275.5583992333333,258.20307692307694L275.5788790333333,304.72615384615386L275.98959153333334,70.36615384615384L276.89440313333336,279.71999999999997L277.13735353333334,342.5261538461539L277.4324817,-47.686153846153815L277.6973261333333,368.1138461538461L278.0600504,390.7938461538462L278.6219689,228.54461538461535L278.8419087666667,266.3446153846154L279.11880076666665,120.37846153846154L279.794581,61.061538461538454L279.8169216333333,202.9569230769231L279.8365933,348.92307692307696L280.0578198,371.6030769230769L280.3289379,283.79076923076923L280.4588347,51.75692307692308L280.62817053333333,348.92307692307696L280.75291016666665,188.41846153846157L282.2596535,224.47384615384618L282.8264527,437.8984615384615L283.4901853666667,177.95076923076923L283.8606188,334.9661538461539L284.9725571,239.01230769230767L285.3222661666667,153.52615384615387L285.47238756666667,314.6123076923077L286.6134612,288.44307692307694L286.85665616666665,391.3753846153846L288.1988274,-160.5046153846154L288.2557051,371.6030769230769L288.2736754333333,441.9692307692308L289.3372533333333,320.4276923076923L290.42553246666665,420.45230769230767L290.5596081666667,337.29230769230765L290.5805133,281.4646153846154L290.7067947666667,234.35999999999999L291.6154769,181.44L291.9784138333333,341.94461538461536L292.92068666666665,143.64000000000001L293.1875408,97.11692307692307L293.6654240666667,384.39692307692303L294.0244373,418.70769230769235L294.4262497,344.8523076923077L294.63473746666665,-159.3415384615385L294.6766966,223.3107692307692L296.02206846666667,225.63692307692307L296.2413278,70.94769230769232L296.41150366666665,86.06769230769228L296.8650791333333,167.4830769230769L297.01440303333334,296.00307692307695L297.41839526666666,214.58769230769232L298.9370054,-59.31692307692308L300.11470023333334,381.48923076923074L301.79745713333335,271.57846153846157L302.7750964333333,36.055384615384625L302.7963737333333,261.1107692307692L302.89948516666664,394.86461538461543L303.0775935,40.70769230769229L303.4840207666667,136.66153846153847L304.3426518,43.03384615384614L304.86704526666665,94.20923076923079L304.98845666666665,290.1876923076923L305.00724576666664,397.1907692307692L305.7520682333333,234.35999999999999L305.9777713666667,350.0861538461538L306.8137853,348.92307692307696L306.9006702666667,183.76615384615386L307.0238361666667,408.82153846153847L307.16176113333336,336.71076923076924L307.1849418,157.0153846153846L309.36314823333333,146.5476923076923L309.386935,123.86769230769232L310.74977743333335,255.29538461538462L310.9548838,306.47076923076924L311.0698514,100.60615384615386L311.8168218,341.94461538461536L311.92982223333337,175.6246153846154L312.20400273333337,384.39692307692303L312.2535009,44.778461538461556L313.5881331,-13.956923076923044L314.55047103333334,269.2523076923077L314.7127676,335.5476923076923L315.4179171,144.80307692307693L317.2874804,16.864615384615384L318.21954523333335,41.87076923076921L318.66245546666664,221.56615384615384L318.8481879,346.0153846153846L319.3132048333333,404.7507692307692L319.9713018333333,142.47692307692307L320.01686566666666,318.1015384615385L320.09892310000004,431.5015384615385L320.5684485666667,288.44307692307694L320.6331949333333,331.4769230769231L320.7281825,243.6646153846154L321.08191096666667,255.29538461538462L321.2690789,463.48615384615385L321.3965513,359.9723076923077L322.1777716666667,253.55076923076925L322.96596750000003,379.74461538461543L323.3321688666666,147.71076923076922L324.50873656666664,459.41538461538465L325.3963966,205.86461538461538L325.56639170000005,364.0430769230769L326.83232193333333,141.31384615384616L327.7062118,428.59384615384613L327.7958189,87.23076923076921L328.48737900000003,355.90153846153845L329.0418967,209.9353846153846L329.80966589999997,330.8953846153846L330.48692416666665,246.57230769230767L330.52627813333334,297.7476923076923L330.79590756666664,-105.84L331.598267,-11.049230769230746L331.86680119999994,296.5846153846154L332.46753136666666,233.7784615384615L332.5570959333333,120.37846153846154L332.601203,237.8492307692308L333.0455806333334,310.5415384615385L333.0685911666667,166.32L333.3834973333333,45.36L333.6513191,244.24615384615382L334.20568793333337,367.5323076923077L334.24689209999997,317.52L334.2919774333334,97.11692307692307L335.89052896666664,404.16923076923075L336.8889883333333,334.38461538461536L337.89063769999996,458.83384615384614L339.1673926666666,373.3476923076923L340.75147223333335,132.00923076923078L340.9490714666667,366.3692307692308L342.3991072333333,255.29538461538462L343.31488179999997,203.53846153846152L343.4019475333333,252.9692307692308L343.7675853333333,301.8184615384615L344.2639387,152.9446153846154L344.88995493333334,175.6246153846154L344.9700558333334,425.6861538461538L345.42625773333333,223.8923076923077L345.6963975666667,374.5107692307692L346.0109847333333,282.6276923076923L346.26290966666664,109.32923076923075L346.2862604666667,147.71076923076922L346.5347402,177.95076923076923L347.4082579,121.54153846153847L347.48969860000005,332.05846153846153L349.5289061,308.2153846153846L350.0070445666667,226.79999999999998L350.36923716666666,242.5015384615385L350.85748793333335,338.4553846153846L351.09683363333335,299.4923076923077L351.9957756333333,292.51384615384615L352.97914629999997,72.69230769230768L353.8209447666667,266.3446153846154L354.4735124333333,268.6707692307692L355.28215616666665,391.3753846153846L356.73595613333333,264.01846153846157L356.92341116666665,247.15384615384616L356.9422747,393.12L357.33791976666663,151.78153846153845L357.513508,302.98153846153843L357.9120453333333,193.65230769230772L358.1945836333333,44.19692307692307L359.00698093333335,366.3692307692308L359.4263170666667,146.5476923076923L359.4707218666667,176.78769230769234L359.53196986666666,183.76615384615386L359.8193995,398.93538461538463L360.72675246666665,313.4492307692308L361.028569,350.66769230769233L361.45469983333334,279.13846153846157L362.8490382,163.99384615384616L363.4708649,240.17538461538464L363.8597152666667,110.49230769230768L364.70751093333337,400.09846153846155L365.26135873333334,257.03999999999996L366.4427008,406.49538461538464L366.64126766666664,25.58769230769232L367.18898003333334,454.76307692307694L368.0544164,426.26769230769236L369.2381297,285.5353846153846L369.47493403333334,177.95076923076923L369.7529,225.0553846153846L370.0176912666667,162.24923076923076L370.4027668,261.6923076923077L370.79775259999997,361.1353846153846L371.04198963333334,-22.098461538461578L371.1770436,59.31692307692308L371.43879373333334,172.71692307692305L371.80238993333336,289.60615384615386L371.82398623333336,243.6646153846154L372.55589983333334,-81.99692307692311L372.70107673333337,461.15999999999997L374.5104553666667,233.7784615384615L374.62122280000006,418.1261538461538L374.7787875333333,346.0153846153846L374.9161276666667,225.0553846153846L375.6137487666667,329.15076923076924L375.6326123,393.12L375.74228450000004,143.05846153846156L376.04407976666664,262.8553846153846L376.21417056666667,325.6615384615385L376.23805303333336,118.63384615384616L377.6766154333334,418.1261538461538L377.71626713333336,327.98769230769227L378.5778223333333,-19.772307692307724L378.5984084666667,298.91076923076923L379.4814004666667,324.4984615384615L380.4957354,156.43384615384616L380.97396956666665,465.8123076923077L383.1316217666667,247.73538461538465L383.46480663333335,197.7230769230769L383.8353995666667,314.0307692307692L384.0171764,236.68615384615384L384.75277976666666,265.76307692307694L385.4380343,343.10769230769233L385.7189031666667,310.5415384615385L385.8144117666667,87.23076923076921L386.49191460000003,416.38153846153847L386.9578779,252.3876923076923L387.0503879,250.06153846153845L387.3558410333333,156.43384615384616L389.03684343333333,282.6276923076923L390.0568778333334,337.87384615384616L390.07848476666663,243.08307692307693L390.1623286,253.55076923076925L390.7776477,363.46153846153845L391.0379942333333,161.6676923076923L391.2540529333333,210.51692307692306L391.34002343333333,222.72923076923075L391.64916633333337,275.64923076923077L391.9595639666667,277.9753846153846L392.44284896666665,164.57538461538462L392.6312716333333,90.13846153846156L392.9176698333333,433.82769230769236L395.46282196666664,265.1815384615385L395.7990905,266.3446153846154L396.1162084,199.46769230769232L396.39286646666665,334.9661538461539L396.59037,267.50769230769225L397.1836568333333,388.4676923076923L397.5788234,269.2523076923077L397.94077143333334,-176.78769230769228L398.0680205333333,275.0676923076923L398.39615456666667,304.72615384615386L398.51684290000003,165.73846153846154L399.10548296666667,374.5107692307692L399.14829276666666,145.38461538461536L401.6926686666667,360.5538461538461L402.1965398,346.5969230769231L402.3006614,363.46153846153845L402.97602693333334,180.85846153846154L403.97122186666667,387.30461538461543L404.1859514,-22.68000000000002L404.8231007333333,125.03076923076925L405.06598733333334,-58.15384615384612L405.7537194333333,174.46153846153848L405.8229211666667,25.58769230769232L406.02456106666665,-163.99384615384614L406.1572544333333,416.38153846153847L406.4789978333333,249.47999999999996L406.7452777666667,249.47999999999996L407.72698963333335,55.24615384615386L408.76150663333334,287.28000000000003L408.78434703333335,175.6246153846154L410.0434613,240.75692307692307L410.7337985666666,326.82461538461536L411.1454999666667,359.9723076923077L411.36353646666663,282.04615384615386L412.09532246666663,266.92615384615385L412.7358638333333,334.38461538461536L412.9854069,354.73846153846154L413.15344546666665,330.31384615384616L414.4094548,426.84923076923076L414.43152960000003,217.4953846153846L415.4752019,412.3107692307692L415.5364924333333,423.36L415.5772712666667,372.1846153846154L415.69972473333337,455.3446153846154L417.0977316,448.36615384615385L417.80809143333335,301.23692307692306L418.75522370000004,387.8861538461539L419.1525063,195.3969230769231L419.2141477333334,357.6461538461538L419.4883814,312.8676923076923L420.80178946666666,104.0953846153846L422.24342490000004,224.47384615384618L423.27547496666665,134.3353846153846L423.3177637333334,305.3076923076923L423.5300795,119.7969230769231L424.25271019999997,276.8123076923077L424.4466728333333,148.2923076923077L425.9764692333333,296.00307692307695L426.0636519333333,159.34153846153845L427.2848158333333,429.17538461538464L427.78646460000004,180.85846153846154L428.1577061666667,241.33846153846153L428.8105715666666,254.71384615384616L428.8549444666667,308.79692307692306L429.1788570666667,150.61846153846153L429.24004126666665,370.44L429.7519405666667,379.16307692307686L430.63977073333336,323.3353846153846L430.7214666333333,152.9446153846154L431.82160193333334,335.5476923076923L432.11740000000003,379.16307692307686L432.9503728,-107.00307692307689L433.0162569333333,211.68L433.43064856666666,251.80615384615382L434.4060867666667,-214.58769230769232L434.54446896666667,272.7415384615384L434.56618223333334,237.26769230769233L434.91741186666667,353.5753846153846L435.1593733666666,239.01230769230767L436.76680373333335,88.39384615384614L436.8132395,130.84615384615384L437.2287263666667,194.23384615384614L437.50608623333335,245.99076923076922L437.7252711333333,13.956923076923086L437.9055593,102.93230769230772L440.32069766666666,242.5015384615385L440.9555395666667,102.93230769230772L441.1186974333333,449.5292307692308L442.8852875333333,447.20307692307694L443.0400557,206.44615384615386L443.8969960333333,225.0553846153846L445.0497982333333,168.64615384615382L445.3877362,60.48000000000001L445.4104915333333,180.27692307692305L445.73344713333336,173.29846153846154L446.2287371666667,158.76000000000002L446.61345116666666,281.4646153846154L446.7982053333333,435.5723076923077L447.5286409,267.50769230769225L448.1730634333333,350.0861538461538L448.3207498,272.7415384615384L449.31984716666665,304.72615384615386L450.3755670333333,218.65846153846155L450.5732300666667,376.2553846153846L450.7176945333333,355.90153846153845L450.7387379,273.9046153846154L450.82875970000003,9.304615384615376L451.66733626666667,-151.19999999999996L451.9049912666667,320.4276923076923L452.28289993333334,332.64L452.54837173333334,-77.3446153846154L453.4773316333334,287.28000000000003L453.5434603333333,140.7323076923077L454.1257204,351.24923076923073L454.26768603333335,282.6276923076923L454.7208149,352.99384615384616L455.0570515333333,278.55692307692306L455.23721209999997,371.6030769230769L455.69457303333337,324.4984615384615L455.9419575333334,255.29538461538462L456.11110196666664,150.61846153846153L456.1984760666667,105.25846153846153L456.289625,368.6953846153846L457.78862726666665,300.07384615384615L459.28032443333336,301.8184615384615L460.4932156,466.39384615384614L460.7739675,209.35384615384618L461.40740580000005,223.3107692307692L462.03938733333337,232.61538461538464L462.0615153,214.58769230769232L462.3093995666667,319.84615384615387L462.5689379666666,411.72923076923075L462.89794393333335,378L463.0979569333333,251.80615384615382L463.39836986666666,206.44615384615386L463.66670203333337,444.29538461538465L463.85895270000003,401.26153846153846L464.5652080666666,105.25846153846153L465.96096066666667,336.71076923076924L466.6304672333334,180.85846153846154L466.74498823333334,308.79692307692306L466.76536169999997,310.5415384615385L467.0175312,261.6923076923077L467.2534317,163.41230769230768L469.62632383333334,22.098461538461535L469.6486432,204.12L469.7888118,372.7661538461538L469.85381336666666,320.4276923076923L470.1170628,244.8276923076923L470.4270351,341.36307692307696L472.12221173333336,232.03384615384616L472.7078744666667,344.27076923076925L472.8343898666667,325.6615384615385L472.8589209666667,83.16L473.59739533333334,371.02153846153846L474.1332409,175.0430769230769L474.68458986666667,268.6707692307692L475.62008926666664,38.96307692307692L475.6855906,-37.218461538461504L476.15334029999997,215.7507692307692L476.9654824,280.3015384615384L477.1915577,153.52615384615387L477.2777089666667,345.43384615384616L477.29607273333335,420.45230769230767L479.3473278,329.15076923076924L479.388734,293.67692307692306L479.4929938333333,260.5292307692308L480.7777450666667,97.69846153846152L480.8209164,161.6676923076923L481.4942190666667,368.6953846153846L481.7189120333333,-162.2492307692308L482.77881080000003,119.21538461538461L482.9561003666667,347.17846153846153L483.2807466666667,362.29846153846154L483.50169669999997,460.57846153846157L483.5941535333333,69.2030769230769L483.8918975,289.0246153846154L484.8718761333334,291.35076923076923L485.05705563333333,408.24L485.5602568666667,289.0246153846154L485.6297031666666,25.58769230769232L486.6222823,-111.07384615384616L488.1697619333333,169.2276923076923L488.5235223,427.4307692307692L488.9909742666667,225.63692307692307L489.1404364,264.01846153846157L489.9971428,130.2646153846154L491.3283404333333,273.9046153846154L491.3781257,-45.941538461538485L491.4580352,299.4923076923077L493.0292803333333,147.71076923076922L493.45703806666666,432.08307692307693L494.18480466666665,268.6707692307692L494.52871856666667,374.5107692307692L494.7706269,304.72615384615386L495.7262020333333,316.35692307692307L496.0755602,331.4769230769231L496.0939984,416.38153846153847L496.1790650666667,170.97230769230768L496.4590194666667,280.3015384615384L496.78136896666666,316.35692307692307L498.1079411,359.9723076923077L498.9050051333333,130.2646153846154L499.3678528666666,268.6707692307692L503.2379289666667,345.43384615384616L503.67795756666663,284.95384615384614L504.3019322,150.03692307692307L504.97048176666664,282.04615384615386L505.1474523333333,397.1907692307692L505.5532947666667,423.94153846153847L505.9537461,48.26769230769229L506.9257922666667,-160.5046153846154L507.1169158,408.82153846153847L507.5498945,250.64307692307693L508.0310315666666,206.44615384615386L508.54014493333335,307.63384615384615L508.915374,215.7507692307692L508.9835762,-43.61538461538463L509.0485033333334,283.79076923076923L509.8323395,344.8523076923077L510.412441,416.9630769230769L510.80938333333336,132.00923076923078L510.85384130000006,58.735384615384596L512.6941416666666,-150.61846153846153L512.9271392666667,132.5907692307692L513.500999,187.25538461538463L514.0744015,106.42153846153845L514.6152553666667,118.63384615384616L514.6772689666667,419.28923076923076L516.9383516,344.8523076923077L517.0199518000001,415.2184615384615L517.3999977666666,-1.1630769230768854L517.5068096,179.11384615384614L517.6237656333333,390.7938461538462L517.9046026,371.02153846153846L518.070674,344.27076923076925L518.8296707,170.97230769230768L519.1739036,222.72923076923075L520.7093037666667,229.12615384615384L520.8097037,412.3107692307692L521.2667562666667,368.1138461538461L521.3139682666667,-2.9076923076922974L521.5709865666666,18.027692307692313L521.7438207666667,254.13230769230768L521.8806611333333,279.71999999999997L522.4409421,290.1876923076923L522.5295177666667,325.08L523.0751672666667,101.76923076923079L523.3366302999999,-211.09846153846158L523.8239559666666,289.0246153846154L524.0745411,376.8369230769231L524.7947793,25.006153846153833L526.1989322333333,316.35692307692307L526.4810345666667,-181.44L527.1243724999999,201.21230769230772L527.3606026333333,240.17538461538464L528.1126238666666,248.89846153846153L528.3434097333333,189L530.6410816666667,229.12615384615384L530.6843380666667,392.53846153846155L530.8839151000001,97.69846153846152L530.9709383,309.96000000000004L530.9956076333334,75.59999999999998L531.146165,117.47076923076924L531.4848898333333,144.80307692307693L531.5864275333333,223.8923076923077L532.5670122666667,345.43384615384616L532.6485167666666,354.73846153846154L532.6890723,268.08923076923077L533.5303071999999,-41.28923076923078L533.6001044,34.31076923076925L533.8948391333333,245.4092307692308L535.6049875,369.2769230769231L535.7581500333333,378.58153846153846L536.3204194333333,213.42461538461538L541.0192362666667,123.28615384615384L541.5409182333333,458.2523076923077L542.1022731666667,120.95999999999998L542.1215195,372.1846153846154L542.5779021666667,333.22153846153844L542.7112335333334,201.79384615384615L542.8014573666667,133.75384615384613L543.1381299666667,201.79384615384615L543.6182462333334,145.96615384615384L544.5501941,426.84923076923076L545.5136910666666,355.90153846153845L545.7363105333333,183.1846153846154L545.7761961666666,212.26153846153846L545.9367914,120.37846153846154L546.2565038333333,329.7323076923077L547.7642467000001,140.7323076923077L547.8065248333334,358.22769230769234L548.6122125,262.27384615384614L549.6650932666666,174.46153846153848L550.1138837333333,51.75692307692308L550.7106157666667,1.74461538461537L550.8835456666667,220.40307692307692L551.0942983333333,245.99076923076922L551.8422363666666,-12.79384615384616L552.6364825666667,-80.83384615384614L553.4947733333333,190.16307692307691L553.7893273,272.15999999999997L554.7136936,127.93846153846154L555.3428254,193.65230769230772L555.8218570666667,231.4523076923077L555.8668360666667,237.26769230769233L556.3561820666666,333.8030769230769L556.3793414666667,158.17846153846153L558.6296950666667,-3.48923076923074L559.3257318,355.90153846153845L559.8980390666667,432.08307692307693L560.6546857999999,444.29538461538465L560.7774051,359.39076923076925L560.8588245333333,404.7507692307692L562.1291569666666,411.72923076923075L562.2332253999999,265.1815384615385L562.5030994,461.7415384615384L563.2494318,379.74461538461543L563.7266451666667,75.01846153846154L564.8784478333333,357.06461538461537L565.7544324666667,266.3446153846154L566.6057584,240.17538461538464L566.6717169666666,215.16923076923075L567.3889778333333,146.5476923076923L567.8653086333334,281.4646153846154L568.0807187,15.701538461538457L568.5836221999999,-7.560000000000007L568.7442918666667,390.2123076923077L569.0931821666667,143.05846153846156L569.6948906,369.2769230769231L569.7162742333334,255.29538461538462L571.6673314,237.8492307692308L572.4729977999999,263.4369230769231L573.5513135,434.9907692307692L573.5908056999999,261.6923076923077L574.3667519333334,211.68L574.7502856333333,372.1846153846154L574.8199658666667,159.34153846153845L575.3256553,423.94153846153847L576.3176815,0L577.3130359333334,141.31384615384616L577.9651144666666,203.53846153846152L578.4223159,165.73846153846154L579.5351899333333,305.3076923076923L580.7513136333333,302.98153846153843L581.3091170333333,390.7938461538462" style="fill: none;" fill="none"></path></g></g></g></g></g></g><g transform="translate(80, 378)" clip-path="url(#clip_1)"><clipPath id="clip_1"><rect width="638" height="22"></rect></clipPath><g><g><line x1="0" y1="0" x2="0" y2="5" style="visibility: inherit;" fill="rgb(0, 0, 0)" stroke="rgb(204, 204, 204)" stroke-width="1px"></line><line x1="53.166666666666664" y1="0" x2="53.166666666666664" y2="5" style="visibility: inherit;" fill="rgb(0, 0, 0)" stroke="rgb(204, 204, 204)" stroke-width="1px"></line><line x1="106.33333333333333" y1="0" x2="106.33333333333333" y2="5" style="visibility: inherit;" fill="rgb(0, 0, 0)" stroke="rgb(204, 204, 204)" stroke-width="1px"></line><line x1="159.5" y1="0" x2="159.5" y2="5" style="visibility: inherit;" fill="rgb(0, 0, 0)" stroke="rgb(204, 204, 204)" stroke-width="1px"></line><line x1="212.66666666666666" y1="0" x2="212.66666666666666" y2="5" style="visibility: inherit;" fill="rgb(0, 0, 0)" stroke="rgb(204, 204, 204)" stroke-width="1px"></line><line x1="265.83333333333337" y1="0" x2="265.83333333333337" y2="5" style="visibility: inherit;" fill="rgb(0, 0, 0)" stroke="rgb(204, 204, 204)" stroke-width="1px"></line><line x1="319" y1="0" x2="319" y2="5" style="visibility: inherit;" fill="rgb(0, 0, 0)" stroke="rgb(204, 204, 204)" stroke-width="1px"></line><line x1="372.1666666666667" y1="0" x2="372.1666666666667" y2="5" style="visibility: inherit;" fill="rgb(0, 0, 0)" stroke="rgb(204, 204, 204)" stroke-width="1px"></line><line x1="425.3333333333333" y1="0" x2="425.3333333333333" y2="5" style="visibility: inherit;" fill="rgb(0, 0, 0)" stroke="rgb(204, 204, 204)" stroke-width="1px"></line><line x1="478.5" y1="0" x2="478.5" y2="5" style="visibility: inherit;" fill="rgb(0, 0, 0)" stroke="rgb(204, 204, 204)" stroke-width="1px"></line><line x1="531.6666666666667" y1="0" x2="531.6666666666667" y2="5" style="visibility: inherit;" fill="rgb(0, 0, 0)" stroke="rgb(204, 204, 204)" stroke-width="1px"></line><line x1="584.8333333333333" y1="0" x2="584.8333333333333" y2="5" style="visibility: inherit;" fill="rgb(0, 0, 0)" stroke="rgb(204, 204, 204)" stroke-width="1px"></line><line x1="638" y1="0" x2="638" y2="5" style="visibility: inherit;" fill="rgb(0, 0, 0)" stroke="rgb(204, 204, 204)" stroke-width="1px"></line></g><g transform="translate(0, 8)"><text x="0" y="0" dx="0em" dy="0.95em" style="text-anchor: middle; visibility: hidden; font-family: Roboto, sans-serif; font-size: 12px; font-weight: 200;" fill="rgb(50, 49, 63)" stroke="none" stroke-width="1px">-5M</text><text x="53.166666666666664" y="0" dx="0em" dy="0.95em" style="text-anchor: middle; visibility: inherit; font-family: Roboto, sans-serif; font-size: 12px; font-weight: 200;" fill="rgb(50, 49, 63)" stroke="none" stroke-width="1px">0</text><text x="106.33333333333333" y="0" dx="0em" dy="0.95em" style="text-anchor: middle; visibility: inherit; font-family: Roboto, sans-serif; font-size: 12px; font-weight: 200;" fill="rgb(50, 49, 63)" stroke="none" stroke-width="1px">5M</text><text x="159.5" y="0" dx="0em" dy="0.95em" style="text-anchor: middle; visibility: inherit; font-family: Roboto, sans-serif; font-size: 12px; font-weight: 200;" fill="rgb(50, 49, 63)" stroke="none" stroke-width="1px">10M</text><text x="212.66666666666666" y="0" dx="0em" dy="0.95em" style="text-anchor: middle; visibility: inherit; font-family: Roboto, sans-serif; font-size: 12px; font-weight: 200;" fill="rgb(50, 49, 63)" stroke="none" stroke-width="1px">15M</text><text x="265.83333333333337" y="0" dx="0em" dy="0.95em" style="text-anchor: middle; visibility: inherit; font-family: Roboto, sans-serif; font-size: 12px; font-weight: 200;" fill="rgb(50, 49, 63)" stroke="none" stroke-width="1px">20M</text><text x="319" y="0" dx="0em" dy="0.95em" style="text-anchor: middle; visibility: inherit; font-family: Roboto, sans-serif; font-size: 12px; font-weight: 200;" fill="rgb(50, 49, 63)" stroke="none" stroke-width="1px">25M</text><text x="372.1666666666667" y="0" dx="0em" dy="0.95em" style="text-anchor: middle; visibility: inherit; font-family: Roboto, sans-serif; font-size: 12px; font-weight: 200;" fill="rgb(50, 49, 63)" stroke="none" stroke-width="1px">30M</text><text x="425.3333333333333" y="0" dx="0em" dy="0.95em" style="text-anchor: middle; visibility: inherit; font-family: Roboto, sans-serif; font-size: 12px; font-weight: 200;" fill="rgb(50, 49, 63)" stroke="none" stroke-width="1px">35M</text><text x="478.5" y="0" dx="0em" dy="0.95em" style="text-anchor: middle; visibility: inherit; font-family: Roboto, sans-serif; font-size: 12px; font-weight: 200;" fill="rgb(50, 49, 63)" stroke="none" stroke-width="1px">40M</text><text x="531.6666666666667" y="0" dx="0em" dy="0.95em" style="text-anchor: middle; visibility: inherit; font-family: Roboto, sans-serif; font-size: 12px; font-weight: 200;" fill="rgb(50, 49, 63)" stroke="none" stroke-width="1px">45M</text><text x="584.8333333333333" y="0" dx="0em" dy="0.95em" style="text-anchor: middle; visibility: inherit; font-family: Roboto, sans-serif; font-size: 12px; font-weight: 200;" fill="rgb(50, 49, 63)" stroke="none" stroke-width="1px">50M</text><text x="638" y="0" dx="0em" dy="0.95em" style="text-anchor: middle; visibility: hidden; font-family: Roboto, sans-serif; font-size: 12px; font-weight: 200;" fill="rgb(50, 49, 63)" stroke="none" stroke-width="1px">55M</text></g><line x1="0" y1="0" x2="638" y2="0" fill="rgb(0, 0, 0)" stroke="rgb(204, 204, 204)" stroke-width="1px"></line></g></g></g></g></svg>