<svg viewBox="0 0 1496 400" xmlns="http://www.w3.org/2000/svg"><g><g><g><g><g><line x1="40" y1="378" x2="35" y2="378" style="visibility: inherit;" fill="rgb(0, 0, 0)" stroke="rgb(204, 204, 204)" stroke-width="1px"></line><line x1="40" y1="336" x2="35" y2="336" style="visibility: inherit;" fill="rgb(0, 0, 0)" stroke="rgb(204, 204, 204)" stroke-width="1px"></line><line x1="40" y1="293.99999999999994" x2="35" y2="293.99999999999994" style="visibility: inherit;" fill="rgb(0, 0, 0)" stroke="rgb(204, 204, 204)" stroke-width="1px"></line><line x1="40" y1="252" x2="35" y2="252" style="visibility: inherit;" fill="rgb(0, 0, 0)" stroke="rgb(204, 204, 204)" stroke-width="1px"></line><line x1="40" y1="210" x2="35" y2="210" style="visibility: inherit;" fill="rgb(0, 0, 0)" stroke="rgb(204, 204, 204)" stroke-width="1px"></line><line x1="40" y1="168" x2="35" y2="168" style="visibility: inherit;" fill="rgb(0, 0, 0)" stroke="rgb(204, 204, 204)" stroke-width="1px"></line><line x1="40" y1="125.99999999999993" x2="35" y2="125.99999999999993" style="visibility: inherit;" fill="rgb(0, 0, 0)" stroke="rgb(204, 204, 204)" stroke-width="1px"></line><line x1="40" y1="84" x2="35" y2="84" style="visibility: inherit;" fill="rgb(0, 0, 0)" stroke="rgb(204, 204, 204)" stroke-width="1px"></line><line x1="40" y1="41.999999999999936" x2="35" y2="41.999999999999936" style="visibility: inherit;" fill="rgb(0, 0, 0)" stroke="rgb(204, 204, 204)" stroke-width="1px"></line><line x1="40" y1="0" x2="35" y2="0" style="visibility: inherit;" fill="rgb(0, 0, 0)" stroke="rgb(204, 204, 204)" stroke-width="1px"></line></g><g transform="translate(30, 0)"><text x="0" y="378" dx="0em" dy="0.3em" style="text-anchor: end; visibility: hidden; font-family: Roboto, sans-serif; font-size: 12px; font-weight: 200;" fill="rgb(50, 49, 63)" stroke="none" stroke-width="1px">0.3</text><text x="0" y="336" dx="0em" dy="0.3em" style="text-anchor: end; visibility: inherit; font-family: Roboto, sans-serif; font-size: 12px; font-weight: 200;" fill="rgb(50, 49, 63)" stroke="none" stroke-width="1px">0.4</text><text x="0" y="293.99999999999994" dx="0em" dy="0.3em" style="text-anchor: end; visibility: inherit; font-family: Roboto, sans-serif; font-size: 12px; font-weight: 200;" fill="rgb(50, 49, 63)" stroke="none" stroke-width="1px">0.5</text><text x="0" y="252" dx="0em" dy="0.3em" style="text-anchor: end; visibility: inherit; font-family: Roboto, sans-serif; font-size: 12px; font-weight: 200;" fill="rgb(50, 49, 63)" stroke="none" stroke-width="1px">0.6</text><text x="0" y="210" dx="0em" dy="0.3em" style="text-anchor: end; visibility: inherit; font-family: Roboto, sans-serif; font-size: 12px; font-weight: 200;" fill="rgb(50, 49, 63)" stroke="none" stroke-width="1px">0.7</text><text x="0" y="168" dx="0em" dy="0.3em" style="text-anchor: end; visibility: inherit; font-family: Roboto, sans-serif; font-size: 12px; font-weight: 200;" fill="rgb(50, 49, 63)" stroke="none" stroke-width="1px">0.8</text><text x="0" y="125.99999999999993" dx="0em" dy="0.3em" style="text-anchor: end; visibility: inherit; font-family: Roboto, sans-serif; font-size: 12px; font-weight: 200;" fill="rgb(50, 49, 63)" stroke="none" stroke-width="1px">0.9</text><text x="0" y="84" dx="0em" dy="0.3em" style="text-anchor: end; visibility: inherit; font-family: Roboto, sans-serif; font-size: 12px; font-weight: 200;" fill="rgb(50, 49, 63)" stroke="none" stroke-width="1px">1</text><text x="0" y="41.999999999999936" dx="0em" dy="0.3em" style="text-anchor: end; visibility: inherit; font-family: Roboto, sans-serif; font-size: 12px; font-weight: 200;" fill="rgb(50, 49, 63)" stroke="none" stroke-width="1px">1.1</text><text x="0" y="0" dx="0em" dy="0.3em" style="text-anchor: end; visibility: hidden; font-family: Roboto, sans-serif; font-size: 12px; font-weight: 200;" fill="rgb(50, 49, 63)" stroke="none" stroke-width="1px">1.2</text></g><line x1="40" y1="0" x2="40" y2="378" fill="rgb(0, 0, 0)" stroke="rgb(204, 204, 204)" stroke-width="1px"></line></g></g><g transform="translate(40, 0)" clip-path="url(#clip_0)"><clipPath id="clip_0"><rect width="1456" height="378"></rect></clipPath><g><g><g><line x1="0" y1="0" x2="0" y2="378" fill="rgb(0, 0, 0)" stroke="rgb(60, 60, 60)" stroke-width="1px" opacity="0.25"></line><line x1="121.33333333333333" y1="0" x2="121.33333333333333" y2="378" fill="rgb(0, 0, 0)" stroke="rgb(60, 60, 60)" stroke-width="1px" opacity="0.25"></line><line x1="242.66666666666666" y1="0" x2="242.66666666666666" y2="378" fill="rgb(0, 0, 0)" stroke="rgb(60, 60, 60)" stroke-width="1px" opacity="0.25"></line><line x1="364" y1="0" x2="364" y2="378" fill="rgb(0, 0, 0)" stroke="rgb(60, 60, 60)" stroke-width="1px" opacity="0.25"></line><line x1="485.3333333333333" y1="0" x2="485.3333333333333" y2="378" fill="rgb(0, 0, 0)" stroke="rgb(60, 60, 60)" stroke-width="1px" opacity="0.25"></line><line x1="606.6666666666667" y1="0" x2="606.6666666666667" y2="378" fill="rgb(0, 0, 0)" stroke="rgb(60, 60, 60)" stroke-width="1px" opacity="0.25"></line><line x1="728" y1="0" x2="728" y2="378" fill="rgb(0, 0, 0)" stroke="rgb(60, 60, 60)" stroke-width="1px" opacity="0.25"></line><line x1="849.3333333333334" y1="0" x2="849.3333333333334" y2="378" fill="rgb(0, 0, 0)" stroke="rgb(60, 60, 60)" stroke-width="1px" opacity="0.25"></line><line x1="970.6666666666666" y1="0" x2="970.6666666666666" y2="378" fill="rgb(0, 0, 0)" stroke="rgb(60, 60, 60)" stroke-width="1px" opacity="0.25"></line><line x1="1092" y1="0" x2="1092" y2="378" fill="rgb(0, 0, 0)" stroke="rgb(60, 60, 60)" stroke-width="1px" opacity="0.25"></line><line x1="1213.3333333333335" y1="0" x2="1213.3333333333335" y2="378" fill="rgb(0, 0, 0)" stroke="rgb(60, 60, 60)" stroke-width="1px" opacity="0.25"></line><line x1="1334.6666666666665" y1="0" x2="1334.6666666666665" y2="378" fill="rgb(0, 0, 0)" stroke="rgb(60, 60, 60)" stroke-width="1px" opacity="0.25"></line><line x1="1456" y1="0" x2="1456" y2="378" fill="rgb(0, 0, 0)" stroke="rgb(60, 60, 60)" stroke-width="1px" opacity="0.25"></line></g><g><line x1="0" y1="378" x2="1456" y2="378" fill="rgb(0, 0, 0)" stroke="rgb(60, 60, 60)" stroke-width="1px" opacity="0.25"></line><line x1="0" y1="336" x2="1456" y2="336" fill="rgb(0, 0, 0)" stroke="rgb(60, 60, 60)" stroke-width="1px" opacity="0.25"></line><line x1="0" y1="293.99999999999994" x2="1456" y2="293.99999999999994" fill="rgb(0, 0, 0)" stroke="rgb(60, 60, 60)" stroke-width="1px" opacity="0.25"></line><line x1="0" y1="252" x2="1456" y2="252" fill="rgb(0, 0, 0)" stroke="rgb(60, 60, 60)" stroke-width="1px" opacity="0.25"></line><line x1="0" y1="210" x2="1456" y2="210" fill="rgb(0, 0, 0)" stroke="rgb(60, 60, 60)" stroke-width="1px" opacity="0.25"></line><line x1="0" y1="168" x2="1456" y2="168" fill="rgb(0, 0, 0)" stroke="rgb(60, 60, 60)" stroke-width="1px" opacity="0.25"></line><line x1="0" y1="125.99999999999993" x2="1456" y2="125.99999999999993" fill="rgb(0, 0, 0)" stroke="rgb(60, 60, 60)" stroke-width="1px" opacity="0.25"></line><line x1="0" y1="84" x2="1456" y2="84" fill="rgb(0, 0, 0)" stroke="rgb(60, 60, 60)" stroke-width="1px" opacity="0.25"></line><line x1="0" y1="41.999999999999936" x2="1456" y2="41.999999999999936" fill="rgb(0, 0, 0)" stroke="rgb(60, 60, 60)" stroke-width="1px" opacity="0.25"></line><line x1="0" y1="0" x2="1456" y2="0" fill="rgb(0, 0, 0)" stroke="rgb(60, 60, 60)" stroke-width="1px" opacity="0.25"></line></g></g></g><g><g><line x1="0" y1="504.00000000000006" x2="1456" y2="504.00000000000006" fill="rgb(0, 0, 0)" stroke="rgb(153, 153, 153)" stroke-width="1.5px"></line></g></g><g><g><line x1="121.33333333333333" y1="0" x2="121.33333333333333" y2="378" fill="rgb(0, 0, 0)" stroke="rgb(153, 153, 153)" stroke-width="1.5px"></line></g></g><g><g><g><g><g><path stroke="rgb(255, 112, 67)" stroke-width="2px" d="M142.62165493333333,-21.19383874367632L142.85102346666665,9.714041285790003L143.4387136,52.202078365296245L146.50291413333332,2.963757762512259L147.80622826666666,78.46244226675968L147.97505146666666,-9.11163493713389L151.20084373333333,27.55705677044707L152.41803546666665,95.97820613638635L155.3386744,69.05333240698538L156.32101333333335,103.1699288998151L156.40524293333334,42.62517986282359L156.47292266666668,104.06760514056204L156.8551712,-74.16385013785381L158.226796,-28.620588979295903L159.17457919999998,35.5587957098703L160.92350213333333,14.929757766808049L162.34111226666667,31.79205642069922L162.9510792,99.96074743355733L165.84303493333334,-16.15613536226293L170.85383466666667,47.08782913576367L170.95068293333333,-22.161883481942656L171.43145413333335,28.927907631094527L173.15069893333333,28.481203461085027L175.44069573333334,55.98858980879608L177.12868506666666,128.91050453068223L177.75915733333335,62.48942587486018L180.8993368,109.3946590186521L180.98936613333333,73.81672093117947L181.63874213333332,146.24163036556922L182.12104213333336,116.57522952645786L183.89233893333332,38.598377530157094L184.1488376,69.58339881159161L184.19128,9.391186516758232L184.4483368,115.6407130034439L184.47583093333333,95.48758064908496L185.46396959999998,156.2181823926273L187.34699013333332,132.57918709964636L187.93009386666668,172.6074612764753L189.39723226666666,81.02137602719989L189.71862000000002,137.04197438575733L191.05925626666667,106.36024837502636L192.44340266666666,96.52425945286858L192.6133664,125.25325177005529L194.45508506666667,199.88152011569315L194.58738693333333,182.05180454454262L194.63038746666666,201.40584125638964L195.13375093333332,205.51797145915612L197.3530104,246.36507994122923L197.97018453333334,203.18416561000078L198.52329466666666,136.54041231460843L198.62790826666668,-48.12485196121119L198.80811253333334,-22.27733160214172L199.39687039999998,70.69571728017016L200.9166432,20.294940057433088L201.1557184,103.41092666568545L201.2380552,74.93747053493367L201.57286240000002,183.2193369504768L202.66357626666667,208.97749927264204L202.83718,191.66345574034298L206.24562746666666,173.60230394347337L207.2955248,157.42706277456182L208.81008026666666,102.7212586074251L209.47455013333334,25.57672832424503L211.3106389333333,106.65484112510124L212.24092586666666,150.76601754432343L214.08749786666667,119.92019669297589L215.3127704,42.32060403873475L215.48901920000003,162.11435048133097L217.10365040000002,210.23840084284524L218.09584160000003,234.7236885464786L219.89999546666667,127.46499392012346L220.1587752,-73.72551757920039L220.94785439999998,-75.8521742206629L221.42093306666666,62.69938176978727L223.03073519999998,139.9197194701976L225.4189392,220.0939683512775L227.490172,264.12212431406545L229.56138053333333,232.96650359616024L230.1298757333333,218.59542301646078L232.37143626666668,129.6728326520396L234.79225466666665,46.44480295426089L235.42396453333333,121.491306325474L236.55158799999998,158.78818360607545L236.9037216,200.83346237922146L237.0687592,90.97242430558467L237.78171386666665,72.34801871604128L237.84398213333333,61.61148952857494L238.09657386666666,13.348314424847633L239.9499648,108.64640415936411L242.1773050666667,176.4381210638863L244.77182426666664,118.02636064492357L245.2820552,219.33535917641336L245.42406373333336,88.48421263719568L245.6498408,131.80724444404223L245.74904293333333,186.07549904832229L246.2813808,158.80058297544113L247.03561306666668,140.08784928935404L247.15968853333334,192.92500314126985L248.03088613333335,200.71741910583128L249.95394666666667,183.76695983294454L250.33515173333333,221.68402986934072L252.15274933333333,202.22756155258588L252.25442666666666,208.0713178153405L253.9087824,214.4475237748366L254.08452160000002,140.76713429816616L254.77054026666667,21.271536606121316L256.3109154666667,63.45979858491917L257.5395853333333,51.286627441967106L262.1382157333333,132.7138610782174L262.33011653333335,156.4766295970647L262.35647013333335,156.6693359506827L263.8446477333333,152.0458926852167L265.61628426666664,49.774028759933685L271.6325248,138.42731121882025L272.0126378666667,138.99422108950742L276.03973973333336,85.90264341725427L278.4746328,48.878286108335914L278.9761277333333,-10.544149169349009L279.39477626666667,98.54092268405954L279.8652584,186.59307720815298L280.10632346666665,241.04265462491014L281.36525386666665,260.0333997436351L281.76252346666666,111.87648477721129L285.75890373333334,189.45807861428204L286.0423626666667,154.2945672460839L288.8191002666667,143.9052636020449L290.0384032,214.13578129965458L290.5407474666667,159.2247144768142L291.8715557333333,219.54905259546663L292.72052506666665,261.589934134108L292.8665376,273.76128546215426L295.6152714666667,190.3775680531104L297.7916032,228.42915332728865L299.4443330666667,221.1076820636644L301.49319199999996,140.13809671073278L302.369704,89.22226003449633L302.9592869333333,176.84341995502396L303.07365573333334,237.4331835781627L304.3161818666667,201.9836877271588L304.4441157333333,260.8021049550209L305.57846106666665,271.518517401876L306.16083679999997,278.63450540725114L306.4833650666667,263.93238895907234L307.6752224,147.46643239125146L309.00908826666665,204.55378979363763L311.7626026666666,245.25542060088347L311.86578453333334,287.7271193000747L312.23973386666665,273.8067600329562L313.52094106666664,51.92462723254222L315.0824768,152.10109458445945L315.9762909333333,222.1201090936627L318.69556506666663,29.336661250875263L321.0484125333333,105.27174562900416L321.461868,-21.14209445304185L322.81497733333333,74.47071542747908L325.1049984,124.45738128666932L326.89131626666665,199.92382781413107L329.81190666666663,149.73493690912068L330.06175626666663,197.2895348764905L330.17605226666666,174.44810046538407L331.2181357333333,177.7597574578803L333.08487333333335,135.3295734993864L334.45263973333334,134.28611404134324L335.1789168,160.52166785260135L335.57837040000004,192.8549219456917L336.03533600000003,107.65351503417531L336.26104026666667,114.46706095531958L338.2448402666667,182.8945849847518L342.1830290666667,89.750237471564L344.46038293333334,172.2566813032051L346.11248186666666,239.87551494838115L346.732204,254.77387273550818L348.57108346666666,228.99248993540283L349.8354253333334,201.64195640173244L350.4385005333333,110.826428647558L351.04783653333334,162.56816153271205L351.61958346666665,185.4296027454329L352.6971690666667,69.81687190726949L352.8588336,65.6067594206068L353.1472186666667,-23.352327709452364L353.5885808,0.16574227508538075L357.78761199999997,92.76945555029292L360.7818517333333,105.60617959390865L361.277644,60.7862041705298L361.97946026666665,-35.1372408918472L363.8219312,41.623778912309945L364.8429754666667,-1.382004777858214L367.35333786666666,38.92814767344616L367.4648917333334,92.69499628534206L368.0549842666666,122.17844977849892L369.20197253333333,188.92974824234346L369.81451173333335,146.69949857309163L371.1919605333334,237.50899710604364L372.4524925333334,294.54498490303047L373.51314,333.1495917833405L374.23915013333334,361.6590245125626L375.83007280000004,374.96828801381196L375.9233296,382.90889515249495L376.8477925333333,333.2201907024894L378.5429890666667,183.42295685923773L381.13838186666663,269.4822214574616L381.40495119999997,253.47966004198796L382.2416416,305.1934734868169L382.7029994666667,346.0730167321658L382.9820661333333,325.4975191171346L383.1802762666667,129.72705608697996L383.183528,246.5318440323607L383.32662853333335,302.93081382069204L383.9480736,347.05992803068887L384.0523474666667,357.1633427208181L385.13005439999995,253.2147361317584L386.6081128,300.0354093956536L388.6780352,271.6672971396199L390.3607829333334,193.01347375801512L391.9413437333333,241.95697317654674L391.99531279999997,267.03431645712135L394.23022426666665,185.13162598419706L394.25157893333335,179.79051352386782L401.88026666666667,190.83552132156552L402.4454130666667,220.515600360078L403.32153680000005,169.93243627348085L404.1544901333333,239.27882497667392L404.25971039999996,248.72655297016576L406.7624045333333,176.61982155260722L407.0063330666666,99.95304222355657L408.0812250666666,160.24683935314633L410.7313877333333,190.36690425199401L412.98826053333335,203.80350665642106L413.1499493333333,250.62292559381302L414.1939013333333,227.38142442367058L415.8949704,233.37213020122988L416.0399152,254.06102702973453L417.26327066666664,315.4466483709703L417.3243984,301.1999520848686L418.4299877333333,258.99836366119945L420.2295794666667,197.93589830841398L421.6163952,151.8048039462911L421.84772933333335,258.7406051747052L422.75399226666667,259.3186997289686L425.4626133333333,214.2628817865389L426.38979413333334,227.63140384609324L426.3909346666667,156.1998040691305L426.5425528,196.87417130561403L426.9769504,200.8607809358342L428.6079616,226.8154822715225L428.7883842666667,156.73251751232755L430.3017749333333,156.99366032581693L431.9185658666667,192.4730403155158L434.23865333333333,154.60745528519564L434.73852239999997,225.04156810748825L434.8267074666666,197.44441556160595L434.9976661333333,252.09475650325382L435.0545229333333,244.67157405576089L435.2882352,264.95117794252025L436.8765370666667,242.08298484549874L436.91402906666667,295.94708714524484L438.30567386666667,261.68542319321375L438.54190986666663,303.71214026083794L440.3993048,325.0673695198908L440.4643394666667,316.06718906117766L440.6316338666667,344.7684887907105L441.2421104,362.5995963490723L442.00071066666663,374.96581240157593L442.1644136,390.6197742203492L448.1094072,398.65003158412446L448.66375493333334,356.4449910268907L448.88547946666665,198.0252622095182L449.1692538666667,140.89697647854294L451.2540517333333,249.87325623491168L456.3473824,327.7222215584443L457.02495626666666,114.4072707326129L459.45701013333337,158.54361494963854L460.4031432,255.44152663103037L461.20129813333335,243.98838628501468L461.6938386666667,192.75555017692315L461.82429626666664,215.82357203425448L462.5264765333333,234.71675712741302L464.84263280000005,249.11934718416262L465.4379426666667,250.69013190821485L465.9505517333333,244.87003140780732L466.2560690666666,123.92998927315122L466.3310530666667,15.629238185167612L467.0075349333333,-47.66798969693162L468.03707253333334,100.92603623517041L469.82001733333334,141.36670896797L471.05074986666665,215.1928577744282L472.38905653333336,209.11267778416374L473.96774880000004,228.07162926876487L475.0452373333334,155.89797176291904L475.0669317333333,173.96385677677608L475.27266453333334,218.68228402150996L477.4116013333333,163.82357348450023L478.7650989333334,224.61402991681095L481.1165632,232.70088502924915L481.696488,101.26063969827463L482.9662898666666,108.5807848161266L484.403192,88.60693703805246L487.4960757333333,127.61604515740181L488.5626928,165.2578672410781L489.57305973333337,202.92626632700768L493.8803445333333,126.79919165045263L498.0917274666666,110.94573222202203L499.38873226666664,139.33349596620877L501.5809586666667,219.93909122443966L502.42291493333335,228.31697045503125L502.7759221333334,223.39006897650998L503.94965226666665,222.93990667368675L514.2430869333333,237.88195986572327L514.5970648,214.61829325570716L514.8824408,254.72639749654564L515.1287232,268.1167734039332L516.2206261333333,277.53539645507965L516.6711610666666,296.6150518645944L517.1571010666667,305.2244056457342L520.4682149333333,305.11636583769683L521.2434378666667,298.40899339177827L521.6971274666666,310.95387105261455L524.2267818666667,325.1687177426527L524.4066706666667,319.90899074118795L525.4021378666666,327.10214474225916L526.9106266666666,314.8899469043307L528.9135730666667,342.36178248318987L529.0529850666667,330.2927967619476L529.3640594666667,323.3498000092255L530.3661029333334,314.8678233973352L530.7791701333333,321.48340632630396L533.6158464,335.7475678093017L533.7398490666667,332.4174214343298L535.2588210666667,290.94617048144744L537.0432946666667,272.6852503731275L538.1383037333334,298.4124835082545L538.381116,246.77340134076206L538.5615629333333,57.56646084840248L540.1251613333334,156.52290072473974L541.1929674666667,186.2334355260914L541.3305594666666,194.26565373814017L544.6680997333333,246.1873244099373L545.7071256,244.5211777956816L545.7457823999999,292.54771873185234L546.0914368,283.09071791666264L546.2997661333333,273.7031814366431L547.2687098666667,280.74018183409277L549.1596170666667,305.69334220325413L551.0859050666667,300.8582313503948L554.797152,312.17747528827954L555.6924221333333,343.97516975090963L557.5379264,291.30239787868294L559.4815650666667,90.69855832559838L561.4253250666667,191.3989276856361L562.4842253333334,254.25990443051924L562.9601674666667,239.18890545738384L563.3350632,255.11842302067663L563.4110421333334,186.5468453620886L564.9509077333333,169.49868588775487L565.7292125333333,231.91329863745034L566.9299514666667,230.1299700920466L567.521864,269.3733455768039L568.5608898666667,227.486421324659L571.2343000000001,155.40974105468302L572.4961909333334,202.7161992852146L574.3789202666667,245.0796832361373L575.1311626666667,238.5719661306472L575.2132568,275.05619084782194L575.5000402666667,293.9270003554033L576.7854941333334,166.2760415981297L577.0170952,246.98914008796714L577.6980178666666,258.4077175465852L579.297628,226.48567018554388L582.6959562666667,147.58012624767886L584.5328458666667,218.28432481400648L587.3682845333334,162.54230413980775L588.7984890666667,150.31670957891635L590.1286663999999,74.62951473050416L590.7593813333333,160.85949985774218L591.308536,187.95921674127496L592.3052893333333,238.43745855543085L593.8448394666666,74.35913231404461L594.3481786666666,142.80120994110004L594.7222008,203.89090348159726L596.8491741333333,242.63108411357078L597.6127976,241.8962374623136L598.0363237333333,243.39699273678755L598.8889088,183.70931685789284L599.3711117333334,253.90184448256406L599.5480642666666,199.2630838280577L599.8933061333333,134.3504038170373L602.1896608000001,184.7940674016115L604.1117992,207.0358829611085L604.6669234666667,131.671705634209L606.9694175999999,192.58458361078053L607.2132005333333,222.6107358995005L607.4210688000001,206.69970617669372L608.798008,218.92631698833438L612.1868722666667,251.81702056638315L613.1962928,243.78390464253374L615.6130586666667,227.7747302595803L616.6083317333333,249.87000792885L617.2054616,195.2295023540507L621.2768501333333,179.32801532386839L630.3007013333333,231.92867388510166L631.2308426666666,139.05796173920308L633.4290629333334,206.44187009161752L634.1728605333334,222.15863878623276L636.5004949333334,244.9894639914967L637.6350586666667,172.31933681164605L637.9678032,149.98229994770537L638.1297832,165.39218253133689L638.8683391999999,169.2449579372286L638.8790650666666,58.45160122718085L639.2531842666667,50.53396351340814L639.9980253333333,112.61803140165445L644.385924,219.6033959741714L647.3898461333333,260.92248074742093L647.6761200000001,228.98431043941935L647.8314024,224.42142866324875L648.4674074666667,160.72170351905515L650.6538341333334,20.422389215009794L659.7567946666667,59.09295884715157L660.0640349333333,114.1025473114648L660.1344325333333,97.41662901859269L662.0696506666667,93.0557614458846L662.1019010666666,113.95402142365259L662.6680666666666,38.07163122272176L662.8871218666667,75.94960343227193L663.7428373333333,108.49650470844152L663.8731250666666,122.85436358708878L663.8813029333332,115.50605000650133L665.5996498666667,139.64680074212094L667.8248789333333,221.64991935823642L670.7282642666667,117.32365713557176L671.5015701333333,181.52936674380646L672.8833869333333,161.8754729820749L677.2693928,192.7790405031121L678.2185349333333,175.6956860587642L680.0082744,134.00841848645481L681.5787645333334,125.17195554133572L682.7450448,112.97895209524826L682.7471074666666,161.40579767545336L683.8909896,151.73317148399516L686.2881722666667,142.72503978080843L687.0210498666667,158.8736814383703L687.1623789333333,225.29993270182837L687.4762682666667,221.7295894047274L688.190776,224.54453626994209L688.7690264,266.06087288691947L689.2501130666667,227.4651342477462L691.4550794666667,199.54078623330955L691.9067792,198.5711949150346L693.5448762666666,260.75865213159216L693.9860685333333,115.99511170437032L694.3603818666667,163.68971657782842L694.5012741333334,153.00167469996242L694.8619496,156.15660527240055L695.7405485333334,92.39743682677044L702.4559602666667,117.93204730114032L702.8836602666667,156.88533378458433L703.7939029333334,215.50804238806015L703.8521914666667,209.56236193948894L704.7481168,239.77039960845656L707.0830311999999,244.17753841772287L708.5440301333333,254.67409087595107L710.9046186666667,163.2246983610199L711.0854296,218.9150432445172L712.2703709333333,118.69375498876354L714.5273165333333,209.69867853990428L716.5445317333333,253.29234197539824L717.0342573333334,198.5988674807711L720.8069232,103.55737327624338L721.4745962666666,154.0587829058705L723.895172,176.58323240908018L725.2324594666667,205.20841484446544L728.9407701333333,176.15634144055377L729.5755861333332,219.82666275922972L729.5876709333334,221.15966819539375L730.2694186666668,186.60223030337517L731.4197314666667,215.68293642573843L735.5925304,281.4776318524676L736.7753605333334,253.0116106781004L737.289644,264.7379443235778L738.2739970666667,294.316827224945L739.1093285333334,293.7260770364135L740.2178784,248.05876405021726L740.5124999999999,303.6189365803073L741.6866911999999,288.1823450338167L742.4414330666667,304.656192756374L742.6186525333333,324.0411360601659L743.1166773333334,262.42790896535365L746.3783842666667,278.6646383693245L747.7967952,252.93529005589644L748.5695914666667,197.2667202218924L752.7855365333334,193.36631694224798L756.3758384,250.809227316304L756.7578685333333,117.73981895966769L756.8625549333333,135.11005176856182L757.1523474666667,83.58479899021424L760.1976442666667,15.0889407268311L763.6521013333335,-7.963061078122425L764.963472,-69.48409866316989L767.1350960000001,24.020629554844547L768.4692045333333,56.52379083028832L768.6594066666668,105.98256482715253L771.7177346666666,34.88440126201413L772.0739450666667,104.39916197073995L772.4887352000001,161.97467660672984L772.9132805333334,171.64058418135352L779.5230594666667,201.17757121956654L779.7126306666667,217.20710787913984L786.1602112,166.10586339081394L787.5192173333334,225.21796578076524L787.9967853333334,223.20275384132293L788.5589469333333,210.00594910349983L790.2957122666667,223.29181285122954L792.2952855999999,191.68106000077677L792.6625858666666,198.94792566568822L795.2327413333334,65.35835901422003L796.6199453333334,173.3006530733269L796.6835968,191.43830343075763L796.8407962666668,233.95926129810914L797.8511632000001,247.1316704034382L797.9935842666666,211.07295480248771L798.9186296,258.88993086145786L799.2585327999999,239.95162819460913L800.8960717333333,262.76752967021395L801.0055872,231.88591357696967L801.0731941333333,248.55753262417863L802.5091013333333,181.4223400090775L803.9123698666667,74.15253501740939L804.8851962666668,134.89328502182872L805.3985333333333,16.09390482047024L809.3694821333332,142.84180474721683L809.4794586666666,107.97978358532963L810.0898624,168.34573634306173L810.5903866666667,188.78067102336635L811.4923058666667,213.6713701623902L814.2502853333333,229.6417946659461L816.5126666666667,88.29457024591775L817.6188626666666,50.27891538058285L817.7018546666667,125.90600107618907L818.9984712,152.1459400088116L819.2630992,210.33559280815868L820.1488810666667,245.4196704279372L822.3907813333333,243.27681246107744L826.1195245333333,301.3731009883042L827.1446456,334.664069218776L828.1469317333333,361.3283726950534L829.7105301333332,341.2761279928713L830.5975496,335.9344436280744L831.3468557333333,343.6611034365187L831.4237082666667,338.51427194426594L834.2822730666667,247.0355284985908L834.3529618666666,285.09365405899337L834.5188245333334,284.76583637155323L835.0664504,318.5403171381786L835.4150653333334,358.6855799437424L836.3323938666667,350.6890635538614L837.4736066666667,344.4193076162646L837.9962378666667,361.8690710466569L839.8014352,377.7248259068409L839.8400434666667,386.8725728560018L841.1948757333332,275.1501479845361L841.5105365333333,319.90048817998866L841.8030954666667,346.1874934924048L844.3368024000001,376.4404177959205L844.8789925333334,379.42216646048075L845.1690277333333,289.82095305545715L847.549612,314.67931747689005L848.0050002666667,354.34928856047486L848.4607282666667,378.7221804723292L851.6549738666666,334.6185651460379L851.9805597333333,279.8384614371711L852.3436376,250.9764221419962L854.3146733333333,242.59163264692256L854.4642773333334,236.93552100813642L854.7064101333333,278.95775663945824L855.8198861333334,256.6427204852924L858.1878274666667,222.4198140767589L858.761176,227.2231120864972L859.5637474666667,222.62752989533087L859.5858786666666,248.23130366565314L860.0515802666666,254.4549842677207L860.5763954666668,234.94173464785166L861.1095098666667,229.47751255995118L862.1496277333333,160.59781162837794L862.6085346666667,186.5345346027591L863.5029554666667,243.07075719201436L863.7510093333334,293.10379073717513L863.8023576,249.7625693184037L864.6101949333333,278.49183619629736L865.6734146666666,236.3970503605091L866.5904034666667,238.68900030831597L869.5099746666667,253.18143979299128L870.2265450666667,281.8552178835157L872.3182104,250.94414116712113L873.8475685333333,269.9798289404613L873.8787997333334,300.9042163530768L878.7228146666666,309.7569461727012L879.0672800000001,285.8377364673536L880.6080677333334,290.13705474128255L881.1537765333334,293.0447256445284L881.1546016,240.7808473991987L881.7619234666666,244.02462750003554L882.4822794666666,232.10530117348324L884.3544042666666,218.4136057567327L885.2626813333333,256.02952899168304L887.0446069333333,200.18593476790412L887.1512589333333,236.93645967589748L889.5396813333333,263.0803212496455L890.0987610666666,251.6382218940744L891.5994845333333,244.84566087387145L894.8438650666667,280.8262279681095L895.5795090666667,237.37235859940816L895.9430965333333,181.59269816822032L895.9931829333333,228.68966307131183L896.4489352,256.50610293083037L896.6206946666666,263.6689463921346L898.2583791999999,107.67279346394284L898.3326837333333,158.9695261455044L902.3771605333334,205.17140341618446L902.4317848,264.1283314753698L902.5027405333333,275.67345159823464L902.9010050666667,306.91937466606356L905.1367416,308.60601065245186L906.3675469333334,272.2605384211952L906.9280584,248.691906358076L907.130588,206.2873365791278L907.8098848000001,204.04710173080187L907.8421594666668,268.911522242247L908.0274597333333,214.40891753007114L909.6344712,209.2485558174201L913.7652645333333,136.86673431290083L914.3204858666667,189.8768313210779L915.5949711999999,238.05254489669636L916.8572746666666,194.38589648300075L917.1708728,169.3246918433527L917.7654061333333,207.6361193128597L919.8914573333334,174.66709896732397L919.9316914666667,154.4335936356129L920.4531578666666,236.95476415446652L921.3827410666668,206.9035876911357L923.317668,183.61744443902222L923.925548,250.49200139241722L924.4530810666668,247.63163958667104L925.8564223999999,173.95226675676332L925.9335418666666,219.5946167374076L926.0271384,210.71440363314278L926.2990221333333,221.90943432084632L927.052308,228.3863370909209L931.8130639999999,109.28710716330498L932.1740306666667,46.46085759021923L932.8312205333333,122.56123707305241L933.7282378666666,172.98549569613246L933.9917010666667,212.451553422013L934.7070824,228.1280142294163L935.1402909333334,249.06581019322837L936.1183104,276.44380015707475L936.4072536,279.1172219429997L939.1655,221.33032957998432L939.2935309333333,237.00034771136953L939.3225538666667,149.55747848613572L942.3040536,181.32988990463917L942.4138360000001,217.3353233165628L942.5618383999999,200.24110220832145L942.8168810666667,173.5655322013051L945.1569400000001,152.04949664698546L946.6440013333333,109.70578708426052L946.6571053333332,162.47390064105926L947.2163063999999,93.52968912425959L947.8869157333332,139.88266657056408L948.3163629333333,156.30051068223713L949.8412559999999,193.44125764225242L950.5173496,101.42026586922597L951.2456893333334,161.1234585022484L951.8025365333333,143.20971829745505L952.8369274666668,150.51990484627078L953.111068,231.1833834137439L954.3101082666667,203.66179901873588L960.4191930666667,158.3454254538746L961.3740135999999,199.84343510096855L961.3941306666666,135.66546581521982L962.6933922666666,113.818438043209L962.7044093333333,1.5392867028785644L963.9214312,-3.0669679105238883L964.6529498666667,54.40788434386508L965.9001594666668,-21.54550968146176L966.7295455999999,80.40800665297598L968.3890216,154.53043955849697L968.6978877333333,51.14687701634814L968.7841557333334,125.58245299203539L969.4017666666666,172.6542275783023L970.4433647999999,170.51680059651142L972.3055402666668,190.91531793725255L973.5896594666667,265.6130190876232L973.6829890666668,244.97886835259828L977.0146568,259.3977629823842L977.8509104,271.21421225567804L978.2497816,258.71339311421L978.5371717333334,283.59101251494934L981.4981904,291.3079364999059L983.0092514666666,345.75991377257844L983.8037664,283.47713947906215L984.3211802666667,270.9654971159346L986.9644026666667,224.66513048391622L988.6380261333333,106.24326316583792L989.5453082666668,72.28444972079188L990.1879624000001,160.68440159822214L990.5864453333334,189.4661239186806L991.6124399999999,237.9434617161681L991.8839112000001,225.26500328778795L992.4295957333333,159.5159866833661L999.6465752,212.20534443998181L999.8187229333333,257.66706476297287L1000.4741656,301.7967022996325L1001.0934994666667,270.71752161629075L1001.3818845333334,285.0757552793448L1002.8197330666667,299.09156007831234L1003.0431805333333,312.55595838585464L1007.4357869333334,299.3302345964847L1008.9605586666665,317.16722263655294L1009.5509909333334,312.5149218425824L1009.6417968,324.50376616630996L1015.1130322666667,305.5734441442134L1016.4254221333333,331.5960764505173L1016.9720288000001,308.457450462443L1018.3056762666666,337.8245905357971L1018.3753216,350.0964611124023L1022.2009858666668,351.746370253028L1022.8440039999999,365.3574574095377L1023.1412464,322.8732474864941L1023.9885898666666,143.52654324897648L1027.1691976,153.21868206816035L1029.0983005333335,193.63740421388815L1030.4279682666665,257.35972281130717L1030.5567029333333,289.501687835649L1033.7149853333333,290.77350730359274L1033.986408,239.79009086286848L1034.3055632,251.8904773616542L1034.9958042666667,192.62362586401395L1035.0100730666668,180.4696982082277L1035.1268685333334,195.0397311792701L1037.0689056,225.53639440214215L1039.8885952,262.8199303416942L1040.0229597333332,191.5587900798639L1040.2955229333334,212.09068729407312L1040.5688141333335,240.72749549106788L1041.6389741333332,237.60247009966395L1042.5664461333333,209.33214780076517L1044.1625133333332,207.73343022098643L1044.645056,172.41946811336578L1045.0823413333333,119.15164500986512L1045.1229637333333,208.54361847946032L1047.6308266666667,173.63681275790321L1048.3623696,192.73857912507884L1048.8412480000002,186.08981857947842L1052.1424125333333,239.4581350460788L1052.8146234666667,203.99174418301226L1054.0834061333333,177.25264586359762L1056.3856818666666,205.9230774244696L1059.4905776,172.17013139730867L1061.6633664,198.06269428256857L1062.1693749333333,183.92445872499766L1064.6120576,150.49322275086774L1065.9191816,217.30354215958434L1067.5452666666667,246.0640840665026L1069.8571034666668,224.6559628567411L1071.8752165333333,146.90397371776783L1073.3141813333334,88.06579235749174L1073.4295935999999,185.81564843390422L1076.0341106666667,210.02091858228468L1077.0460549333334,215.1146325435664L1077.2974818666667,176.7887689212814L1077.8140221333333,86.33564538597197L1077.8931557333333,132.19865323805286L1078.2548504000001,134.87326584877655L1078.3269709333333,153.5247019447212L1078.6401565333333,98.32645732863693L1084.9722762666665,147.37040909948317L1085.5596509333334,192.88927464975336L1087.7412000000002,187.06060984905608L1088.3756277333332,251.941034049845L1089.1113445333333,205.2519050902464L1089.8318218666666,121.91329629816636L1090.8286722666667,151.47053007839926L1092.6189698666667,181.72518027161843L1092.6280213333334,36.20805280408432L1094.1366799999998,153.67246480584842L1096.703608,218.17704002738415L1096.7616295999999,206.54504666733996L1099.6395834666666,229.2861670613781L1100.2971373333332,174.99414419892398L1101.4763032,216.85944599964003L1101.7459544,260.43846213255983L1102.3144738666667,209.1432348456065L1102.3628373333333,199.7296815613555L1103.4390154666667,125.81987375614925L1104.1632784,203.61627728103332L1106.235312,167.93280176138117L1106.6350082666668,119.59275429138677L1107.912624,197.509275440509L1109.9329210666667,216.53888912447385L1110.4508930666666,121.83942215113692L1111.9058253333333,47.66238208096529L1112.9717143999999,49.944932529218796L1113.2285042666667,179.97137607865795L1115.50712,221.7013616426782L1116.9744768,252.30712393903704L1117.5253544,193.16148421754824L1120.8350122666666,249.57052944654455L1122.6307698666667,276.4889121923103L1125.0101165333333,283.30991855104287L1126.0455994666665,295.14420155787184L1127.3250352,287.87517345013447L1129.6596584,313.62606461085215L1130.5973952,319.3371006920179L1130.8836933333332,323.24158040727616L1133.0178253333333,222.1541573050346L1134.7091392,250.96310013787303L1136.0392194666667,277.99309641275613L1136.0694072,292.12983659597523L1136.3106421333332,293.64461176212006L1136.5668981333333,282.20638184914213L1137.3243578666666,281.4742784808232L1139.340384,288.5456272786947L1140.5526253333333,239.94911136782716L1141.0018498666666,290.9714414987358L1141.281596,302.9850246854659L1141.3928829333333,319.8543119399569L1142.3079789333333,322.8182171326173L1143.7313645333334,314.7866211021717L1144.7729141333334,328.541267829226L1146.5224437333334,323.1805984241286L1146.767804,316.8262210883211L1146.8647493333333,317.7542939780659L1148.8445938666666,338.2368808149401L1149.4478874666665,302.05010978931807L1150.1149538666666,297.41268363329544L1150.7823114666667,316.6710845394896L1151.3913562666667,333.04924114727777L1152.2589866666667,328.76998448481436L1156.2828610666668,317.2526879317181L1157.6923176,319.43193225900035L1157.819572,314.51009061837016L1158.2932088,335.50810791792765L1158.8570205333333,343.2230949028867L1159.5131669333334,318.2118893399559L1162.6022650666666,322.37012734024063L1164.0945437333332,316.62934092288214L1164.7831104000002,341.12455060246583L1167.1072989333334,274.29258743621705L1167.413884,253.3934985142815L1167.6709165333332,275.9960944737117L1167.9144810666667,271.97830110103604L1170.0126741333333,105.86683562583157L1170.37102,91.74757520667568L1171.2670424,159.03984914011875L1171.3025930666665,192.86008349530167L1171.5614698666666,179.91873316450278L1171.8549266666666,263.40744011690236L1171.962064,257.901341015637L1172.5653090666667,98.42978814514879L1174.2383744,134.3422848896527L1175.13032,193.56873276927132L1180.6529522666667,239.84482728897365L1181.8161506666668,254.99913060342564L1182.7207392,263.66391241356905L1183.0486061333334,218.612112020285L1183.5805072,157.0569906084722L1184.2763781333333,201.32143706375277L1184.7761501333334,162.53959075387664L1185.0104690666667,212.21157498226376L1186.9672117333334,220.47392203251007L1189.4137285333334,227.2526202788322L1190.3999016,255.37509773912242L1190.7723949333333,227.53783292020688L1191.6147152,243.78408862617806L1192.9710277333334,282.0982034770679L1197.4135021333332,149.77388866949266L1197.7898296,236.6670226109516L1198.1102224,267.99082783773486L1198.481648,292.77084376761286L1199.6634832,280.5740583082972L1199.9691946666667,223.59712015038355L1202.5894122666668,172.6745294716693L1203.4622114666668,83.12557606618023L1204.7642394666666,118.58882620764027L1205.7456562666666,169.48003751535563L1205.84828,131.40103100835887L1206.3862234666667,198.8955279296613L1206.5877581333332,219.7515095297084L1206.8431648,250.96149937055026L1209.4487981333332,162.35790891493272L1209.7151248,207.23883973982876L1210.8155453333334,212.85793854848708L1212.4078511999999,233.44196134839152L1217.7553752,249.54604572077807L1217.7699109333334,305.1062874914421L1219.7207082666666,313.89615312345103L1223.2069061333334,307.01086229757834L1223.3378005333334,146.8767230670235L1224.9691514666667,229.578016672169L1225.0412477333332,146.77688850977117L1226.4365568,161.01485747109703L1226.8209165333333,204.199539864128L1227.0250477333334,190.39195358995505L1227.4576981333332,190.6990036740536L1227.6611498666668,212.2746645793101L1227.7968490666667,167.52761918215631L1231.157564,212.11691483204766L1232.3779104,270.23763203826667L1233.7477152,271.3919541848131L1234.1286048,187.25886769368813L1234.3557165333334,208.3645594315205L1234.5793824,248.48560224750483L1237.6229805333335,280.2122081922224L1238.2452021333334,129.37345929185932L1238.3275874666667,211.57117535615197L1239.3084704,270.8446406480326L1240.0436533333334,120.17710928658566L1240.4454365333333,191.37698638760997L1241.1445592,52.10640385343995L1243.2160832,127.02037841435887L1248.7088917333333,206.84387043927083L1249.4156341333332,197.38457353004193L1249.4693362666667,248.8203342383407L1249.8401794666668,215.4584666028799L1251.6276136,228.9959624728669L1254.4738509333333,174.6473472667401L1255.3360698666668,138.72882002309947L1256.1657714666667,101.19479781219951L1257.1315848,12.02713812488082L1257.1615784,-2.76468121351145L1262.1365848,29.352840975872684L1262.3994413333332,104.68544516322136L1264.3825376,76.61814385269356L1264.6191861333332,100.42777222165026L1265.7827728,187.18967066865298L1265.8285154666667,191.6618855158158L1267.6330333333335,112.60990577695773L1269.0662711999998,161.09499868010286L1269.1686280000001,153.3211786285329L1269.4790229333335,151.34124710174132L1271.3202562666668,107.82414180047348L1271.4120813333334,173.31899260286713L1272.0986581333334,156.76392716648712L1272.3865336000001,192.36358892013158L1273.7666274666667,218.9848815625282L1275.0076248,250.300044347368L1280.3018349333333,267.04775350661413L1286.2098704,278.28833552224245L1286.2185336,237.72917215837714L1286.6812746666667,256.46284413822696L1286.8787568,253.05321936898352L1287.2976722666667,254.39265549834323L1287.6552173333332,288.80155227575153L1288.7615104,259.3932881235686L1290.9460927999999,305.6308815407519L1291.4874093333333,325.57873649166606L1291.5998853333333,184.78178512314904L1293.0369573333335,203.50401370084253L1295.5412773333333,232.8031415006874L1299.0335418666668,252.05621790059553L1301.1642037333334,267.8864860961923L1301.9631352,258.777992846375L1303.2101992,251.29291741955592L1303.2631733333333,213.64766874854752L1303.5424341333332,215.2224276956617L1306.5232786666666,216.7888460216939L1307.8211570666667,174.27947159159294L1310.1363669333332,194.86793930261203L1313.9320133333333,138.26828688936754L1315.7489557333333,110.27098170851059L1316.2500381333334,124.01711277922621L1317.1392173333334,95.97190134978675L1318.1421101333333,115.46252828393213L1322.6186791999999,190.75752900572914L1324.5110181333334,147.1248966606396L1329.3602018666666,133.22058485459905L1331.1509362666666,172.33817280835885L1332.7151170666666,180.39575265352116L1333.2772786666667,185.1316768080246L1334.4358421333334,215.5042385906131L1334.6666666666665,242.17495163978046" style="fill: none;" fill="none"></path></g></g></g></g><g opacity="0.2"><g><g><g><path stroke="rgb(255, 112, 67)" stroke-width="2px" d="M134.1767336,-59.641154766082785L138.5946986666667,88.18667793273924L140.92010053333334,-235.196891784668L140.98338800000002,-164.44328641891482L142.36285093333333,100.2371206283569L142.62165493333333,27.451659679412817L142.85102346666665,56.0395302772522L143.4387136,115.90416812896729L146.50291413333332,-70.87288713455204L147.80622826666666,191.6912999153137L147.97505146666666,-140.45940971374515L151.20084373333333,82.55674266815184L152.41803546666665,198.6061778068542L155.3386744,28.66690778732298L156.32101333333335,154.3441500663757L156.40524293333334,-48.191226482391365L156.47292266666668,196.23080635070798L156.8551712,-341.5102729797364L158.1382712,-38.00285911560064L158.226796,17.997638225555416L159.17457919999998,131.8278136253357L160.92350213333333,-16.013787746429472L162.34111226666667,57.085498809814446L162.9510792,202.21377038955683L165.84303493333334,-190.33144569396975L170.85383466666667,141.95377135276794L170.95068293333333,-126.03644943237306L171.43145413333335,105.56259298324585L173.15069893333333,27.811147212982164L175.44069573333334,97.2496690750122L177.12868506666666,238.29337620735168L177.75915733333335,-37.14219188690191L180.8993368,179.75250864028928L180.98936613333333,20.449813842773438L181.63874213333332,254.87899446487427L182.12104213333336,72.07562828063963L183.89233893333332,-78.3669004440308L184.1488376,116.06093072891235L184.19128,-80.89713191986084L184.4483368,275.01500272750854L184.47583093333333,65.25788211822508L185.46396959999998,247.3140850067138L187.34699013333332,97.1206941604614L187.93009386666668,232.64987254142758L189.39723226666666,-56.35775184631348L189.71862000000002,221.07287192344663L191.05925626666667,60.33765935897825L192.44340266666666,81.77027606964111L192.6133664,168.3467402458191L194.45508506666667,311.8239226341247L194.58738693333333,155.30723118782043L194.63038746666666,230.43689632415766L195.13375093333332,211.68616676330566L197.3530104,307.63574266433716L197.97018453333334,138.41279411315915L198.52329466666666,36.57478237152097L198.62790826666668,-325.12274837493896L198.80811253333334,16.4939489364624L199.39687039999998,210.1552906036377L200.9166432,-55.30622577667243L201.1557184,228.08490657806394L201.2380552,32.227286338806124L201.57286240000002,345.6421365737915L202.66357626666667,247.6147427558899L202.83718,165.69239044189456L206.24562746666666,146.51057624816895L207.2955248,133.16420102119446L208.81008026666666,20.662552356719967L209.47455013333334,-90.1400671005249L211.3106389333333,228.2720103263855L212.24092586666666,216.9327821731567L214.08749786666667,73.65146541595456L215.3127704,-74.07878494262701L215.48901920000003,341.8049701452255L217.10365040000002,282.4244763851165L218.09584160000003,271.4516201019287L219.89999546666667,-33.423048019409215L220.94785439999998,-114.94370555877693L221.42093306666666,270.52671575546265L223.03073519999998,255.75022602081296L225.4189392,340.35534167289734L227.490172,330.1643582582474L229.56138053333333,186.23307251930237L230.1298757333333,197.0388021469116L232.37143626666668,-3.711052894592285L234.79225466666665,-78.39724159240721L235.42396453333333,234.06106138229367L236.55158799999998,214.73349952697754L236.9037216,263.90138053894043L237.0687592,-73.81913280487068L237.78171386666665,44.41141033172604L237.84398213333333,45.50669574737547L238.09657386666666,-59.046448230743415L239.9499648,251.59353876113886L242.1773050666667,278.12569642066956L244.77182426666664,30.408720016479496L245.2820552,371.29885697364807L245.42406373333336,-107.79250717163093L245.6498408,196.79179215431208L245.74904293333333,267.47788095474243L246.2813808,117.88820886611938L247.03561306666668,112.01874876022336L247.15968853333334,272.1807339191436L248.03088613333335,212.4060430526733L249.95394666666667,158.3412709236145L250.33515173333333,278.55963492393494L252.15274933333333,173.04285907745358L252.25442666666666,216.83695220947266L253.9087824,224.01183271408078L254.08452160000002,30.2465500831604L254.77054026666667,-157.97185993194586L256.3109154666667,126.74219155311583L257.5395853333333,33.026870727539055L262.1382157333333,254.85471153259277L262.33011653333335,192.12078237533566L262.35647013333335,156.95839548110962L263.8446477333333,145.1107277870178L265.61628426666664,-103.63376712799075L271.6325248,271.40723490715027L272.0126378666667,139.84458589553833L276.03973973333336,6.265276908874489L278.4746328,-6.658249855041485L278.9761277333333,-99.67780208587645L279.39477626666667,262.16853046417236L279.8652584,318.6713089942932L280.10632346666665,322.7170207500458L281.36525386666665,288.5195174217224L281.76252346666666,-110.35888767242433L285.75890373333334,305.8304693698883L286.0423626666667,101.54930019378659L288.8191002666667,128.32130813598633L290.0384032,319.48155784606934L290.5407474666667,76.85811424255373L291.8715557333333,310.0355597734451L292.72052506666665,324.65125644207L292.8665376,292.01831245422363L295.6152714666667,65.30199193954466L297.7916032,285.5065312385559L299.4443330666667,210.12547516822815L301.49319199999996,18.68371868133542L302.369704,12.848505020141596L302.9592869333333,308.27515983581543L303.07365573333334,328.3178290128708L304.3161818666667,148.80944395065308L304.4441157333333,349.02973079681396L305.57846106666665,287.5931360721588L306.16083679999997,289.3084874153137L306.4833650666667,241.8792142868042L307.6752224,-27.232502460479736L309.00908826666665,290.1848258972168L311.7626026666666,306.3078668117523L311.86578453333334,351.4346673488617L312.23973386666665,252.92622113227839L313.52094106666664,-280.89857196807867L315.0824768,302.3657956123352L315.9762909333333,327.14863085746765L318.69556506666663,-259.8385105133057L321.0484125333333,219.1743721961975L321.461868,-210.76285457611087L322.81497733333333,217.8899302482605L325.1049984,199.4373800754547L326.89131626666665,313.1234976053238L329.81190666666663,74.45160055160521L330.06175626666663,268.62143182754517L330.17605226666666,140.18594884872434L331.2181357333333,182.72724294662473L333.08487333333335,71.68429756164551L334.45263973333334,132.72092485427856L335.1789168,199.8749985694885L335.57837040000004,241.35480308532715L336.03533600000003,-20.148595333099394L336.26104026666667,124.68737983703613L338.2448402666667,285.53587102890015L342.1830290666667,-49.96628379821777L344.46038293333334,296.0163470506668L346.11248186666666,341.3037654161453L346.732204,277.12140941619873L348.57108346666666,190.32041573524472L349.8354253333334,160.6161561012268L350.4385005333333,-25.39686298370364L351.04783653333334,240.18076086044312L351.61958346666665,219.72176456451416L352.6971690666667,-103.60222434997561L352.8588336,59.29159069061279L353.1472186666667,-156.7909584045411L353.5885808,35.44284725189206L357.78761199999997,231.67502546310425L360.7818517333333,124.86126565933229L361.277644,-6.443758964538556L361.97946026666665,-179.02240848541265L363.8219312,156.76530861854553L364.8429754666667,-65.89068031311037L367.35333786666666,99.39337635040282L367.4648917333334,173.345269203186L368.0549842666666,166.40363001823422L369.20197253333333,289.05669593811035L369.81451173333335,83.35412406921388L371.1919605333334,373.7232449054718L372.4524925333334,380.09896659851074L375.9233296,394.8198058605194L376.8477925333333,258.6871340274811L378.5429890666667,-41.27289390563967L381.13838186666663,398.57111835479736L381.40495119999997,229.47581791877747L382.2416416,382.7641936540603L382.7029994666667,407.39233160018927L382.9820661333333,294.6342726945877L383.1802762666667,-163.92863845825204L383.9480736,413.2535993456841L384.0523474666667,372.31846475601196L385.13005439999995,97.29182624816893L386.6081128,370.2664192914963L388.6780352,229.11512875556946L390.3607829333334,75.03273868560791L391.9413437333333,315.3722223043442L391.99531279999997,304.6503313779831L394.23022426666665,62.27759027481077L394.25157893333335,171.778844833374L401.88026666666667,207.40303301811215L402.4454130666667,265.0357189178466L403.32153680000005,94.05769014358519L404.1544901333333,343.2984080314636L404.25971039999996,262.8981449604034L406.7624045333333,68.45972442626953L407.0063330666666,-15.047126770019569L408.0812250666666,250.68753504753113L410.7313877333333,235.5470016002655L412.98826053333335,223.95841026306152L413.1499493333333,320.8520539999008L414.1939013333333,192.519172668457L415.8949704,242.35818886756894L416.0399152,285.09437227249146L417.26327066666664,407.52508038282394L417.3243984,279.82990765571594L418.4299877333333,195.69598102569577L420.2295794666667,106.34220027923584L421.6163952,82.60816240310668L421.84772933333335,419.14430701732635L422.75399226666667,260.18584156036377L425.4626133333333,146.6791548728943L426.38979413333334,247.68418693542478L426.3909346666667,49.052404403686516L426.5425528,257.88572216033936L426.9769504,206.84069538116455L428.6079616,265.74753427505493L428.7883842666667,51.60807037353513L430.3017749333333,157.385374546051L431.9185658666667,245.69211030006403L434.23865333333333,97.80907773971556L434.73852239999997,330.6927373409271L434.8267074666666,156.0486867427826L434.9976661333333,334.0702679157257L435.0545229333333,233.53680038452146L435.2882352,295.3705837726593L436.8765370666667,207.78069519996643L436.91402906666667,376.7432405948639L438.30567386666667,210.2929272651672L438.54190986666663,366.75221586227417L440.3993048,357.10021340847015L440.4643394666667,302.5669183731079L440.6316338666667,387.82043838500977L442.1644136,414.1007169485092L442.9076288,375.48218035697937L446.64241439999995,381.63747811317444L446.95021280000003,377.3548575639725L447.65748906666664,399.17561316490173L448.1094072,414.23929238319397L448.66375493333334,293.13743019104004L448.88547946666665,-39.604331016540584L449.1692538666667,55.20454788208008L451.2540517333333,413.3376758694649L457.02495626666666,-205.56515550613406L459.45701013333337,224.74813127517697L460.4031432,400.78839415311813L461.20129813333335,226.8086757659912L461.6938386666667,115.90629601478575L461.82429626666664,250.42560482025146L462.5264765333333,263.0565347671508L464.84263280000005,270.72323226928705L465.4379426666667,253.04630899429316L465.9505517333333,236.13988065719604L466.2560690666666,-57.480073928833065L467.0075349333333,-142.61383152008065L468.03707253333334,323.81707513332367L469.82001733333334,202.0277180671692L471.05074986666665,325.9320809841156L472.38905653333336,199.99240779876706L473.96774880000004,256.51005649566645L475.0452373333334,47.63748550415038L475.0669317333333,201.0626842975616L475.27266453333334,285.75992488861084L477.4116013333333,81.5355076789856L478.7650989333334,315.7997145652771L481.1165632,244.8311676979065L481.696488,-95.8997282981873L482.9662898666666,119.56100249290466L484.403192,58.646165370941134L487.4960757333333,186.12970733642578L488.5626928,221.7206003665924L489.57305973333337,259.4288649559021L493.8803445333333,12.608579635620089L498.0917274666666,87.16554307937622L499.38873226666664,181.915141582489L501.5809586666667,340.8474841117859L502.42291493333335,240.88378930091855L502.7759221333334,215.99971675872803L503.94965226666665,222.2646632194519L514.2430869333333,260.2950396537781L514.5970648,179.72279334068295L514.8824408,314.88855385780334L515.1287232,288.20233726501465L516.2206261333333,291.6633310317993L516.6711610666666,325.2345349788666L517.1571010666667,318.13843631744385L520.4682149333333,304.95430612564087L521.2434378666667,288.3479347229004L521.6971274666666,329.771187543869L524.2267818666667,346.49098777770996L524.4066706666667,312.0194002389908L525.4021378666666,337.89187574386597L526.9106266666666,296.57165014743805L528.9135730666667,383.56953585147863L529.0529850666667,312.18931818008423L529.3640594666667,312.9353048801422L530.3661029333334,302.1448584794998L530.7791701333333,331.4067807197571L533.6158464,357.1438100337982L533.7398490666667,327.42220187187195L535.2588210666667,228.73929405212402L537.0432946666667,245.29387021064758L538.1383037333334,337.00333321094513L538.381116,169.3147780895233L538.5615629333333,-226.24394989013678L540.1251613333334,304.9575605392456L541.1929674666667,230.7992377281189L541.3305594666666,206.31398105621338L544.6680997333333,324.06983041763306L545.7071256,242.0219578742981L545.7457823999999,364.5875301361084L546.0914368,268.9052166938782L546.2997661333333,259.62187671661377L547.2687098666667,291.29568243026733L549.1596170666667,343.12308275699615L551.0859050666667,293.60556507110596L554.797152,329.1563411951065L555.6924221333333,391.67171144485474L557.5379264,212.293240070343L559.4815650666667,-210.20720100402832L561.4253250666667,342.44948172569275L562.4842253333334,348.55136954784393L562.9601674666667,216.5824069976806L563.3350632,279.01269936561584L563.4110421333334,83.68947887420654L564.9509077333333,143.92644667625427L565.7292125333333,325.5352177619934L566.9299514666667,227.45497727394098L567.521864,328.2384088039398L568.5608898666667,164.65603494644165L571.2343000000001,47.29472064971922L572.4961909333334,273.67588663101196L574.3789202666667,308.62490916252136L575.1311626666667,228.81039047241208L575.2132568,329.782527923584L575.5000402666667,322.2332146167755L576.7854941333334,-25.20039653778079L577.0170952,368.0587878227234L577.6980178666666,275.53558373451233L579.297628,178.6025991439819L582.6959562666667,29.22181034088135L584.5328458666667,324.3406226634979L587.3682845333334,78.92927312850952L588.7984890666667,131.97831773757935L590.1286663999999,-38.90127754211424L590.7593813333333,290.20447754859924L591.308536,228.60879206657407L592.3052893333333,314.15482127666473L593.8448394666666,-171.75835704803467L594.3481786666666,245.4643263816833L594.7222008,295.52544379234314L596.8491741333333,300.74135506153107L597.6127976,240.7939674854278L598.0363237333333,245.64812564849854L598.8889088,94.1778030395508L599.3711117333334,359.1906359195709L599.5480642666666,117.3049428462982L599.8933061333333,36.98138380050659L602.1896608000001,260.4595627784729L604.1117992,240.398606300354L604.6669234666667,18.62543964385985L606.9694175999999,283.9539005756378L607.2132005333333,267.64996433258057L607.4210688000001,182.8331615924835L608.798008,237.2662332057953L612.1868722666667,301.1530759334564L613.1962928,231.73423075675962L615.6130586666667,203.76096868515012L616.6083317333333,283.0129244327545L617.2054616,113.26874399185178L621.2768501333333,155.47578477859497L630.3007013333333,310.8296617269516L631.2308426666666,-0.2481064796447754L633.4290629333334,307.51773262023926L634.1728605333334,245.73379182815546L636.5004949333334,279.2357017993927L637.6350586666667,63.314146041870124L637.9678032,116.47674465179445L638.1297832,188.50700640678403L638.8683391999999,175.02412104606628L638.8790650666666,-107.7384338378907L639.2531842666667,38.657506942748995L639.9980253333333,205.74413323402405L644.385924,380.0814428329468L647.3898461333333,322.9011079072952L647.6761200000001,181.077054977417L647.8314024,217.5771059989929L648.4674074666667,65.17211580276489L650.6538341333334,-190.02658224105835L659.7567946666667,117.0988132953644L660.0640349333333,196.61693000793454L660.1344325333333,72.38775157928467L662.0696506666667,86.5144600868225L662.1019010666666,145.30141139030457L662.6680666666666,-75.75195407867433L662.8871218666667,132.7665617465973L663.7428373333333,157.31685662269592L663.8731250666666,144.39115190505981L663.8813029333332,104.4835796356201L665.5996498666667,175.8579268455505L667.8248789333333,344.65459728240967L670.7282642666667,-39.16573619842532L671.5015701333333,277.8379311561584L672.8833869333333,132.39463233947754L677.2693928,239.13439178466794L678.2185349333333,150.07065439224243L680.0082744,71.47751712799072L681.5787645333334,111.91726112365721L682.7450448,94.68944692611693L682.7471074666666,234.04606604576105L683.8909896,137.22423219680786L686.2881722666667,129.21284222602844L687.0210498666667,183.09664392471313L687.1623789333333,324.9393095970154L687.4762682666667,216.37407445907593L688.190776,228.76695656776425L688.7690264,328.33537781238556L689.2501130666667,169.57152628898618L691.4550794666667,157.65426421165466L691.9067792,197.11680793762204L693.5448762666666,354.0398379564285L693.9860685333333,-101.15019893646242L694.3603818666667,235.2316238880157L694.5012741333334,136.96961188316345L694.8619496,160.88900113105774L695.7405485333334,-3.2413158416748233L702.4559602666667,156.2339630126953L702.8836602666667,215.31526350975034L703.7939029333334,303.44210529327387L703.8521914666667,200.64384126663202L704.7481168,285.08245611190796L707.0830311999999,250.78824663162231L708.5440301333333,270.41891956329346L710.9046186666667,26.050609588623033L711.0854296,302.4505605697632L712.2703709333333,-31.63817739486698L714.5273165333333,346.2060638666153L716.5445317333333,318.6828371286392L717.0342573333334,116.55865573883054L720.8069232,-39.004868030548124L721.4745962666666,229.81089735031125L723.895172,210.36990666389465L725.2324594666667,248.14618849754333L728.9407701333333,132.57823133468628L729.5755861333332,285.33214473724365L729.5876709333334,223.1591763496399L730.2694186666668,134.7660734653473L731.4197314666667,259.30399560928345L735.5925304,380.1696749925614L736.7753605333334,210.31257891654965L737.289644,282.3274447917938L738.2739970666667,338.68515157699585L739.1093285333334,292.83995175361633L740.2178784,179.55779457092282L740.5124999999999,386.9591953754425L741.6866911999999,265.0274577140808L742.4414330666667,329.36696434020996L742.6186525333333,353.1185510158539L743.1166773333334,170.00806832313535L746.3783842666667,303.01973247528076L747.7967952,214.34126758575437L748.5695914666667,113.76386547088622L752.7855365333334,187.51571202278134L756.3758384,336.973592877388L756.7578685333333,-81.8642935752869L756.8625549333333,161.16540098190308L757.1523474666667,6.296919822692838L760.1976442666667,-87.65484666824342L764.963472,-161.765655040741L767.1350960000001,164.27772188186646L768.4692045333333,105.27853274345398L768.6594066666668,180.1707258224487L771.7177346666666,-71.7628440856934L772.0739450666667,208.67130303382874L772.4887352000001,248.33794856071472L772.9132805333334,186.13944554328918L779.5230594666667,245.48305177688596L779.7126306666667,241.25141286849976L786.1602112,89.45399665832517L787.5192173333334,313.88611936569214L787.9967853333334,220.17993593215942L788.5589469333333,190.2107419967651L790.2957122666667,243.2206084728241L792.2952855999999,144.26493072509763L792.6625858666666,209.8482241630554L795.2327413333334,-135.02599096298218L796.6199453333334,335.2140941619873L796.6835968,218.64477896690366L796.8407962666668,297.74069809913635L797.8511632000001,266.8902840614319L797.9935842666666,156.984881401062L798.9186296,330.615394949913L799.2585327999999,211.54417419433594L800.8960717333333,296.99138188362116L801.0055872,185.56348943710324L801.0731941333333,273.56496119499207L802.5091013333333,80.71955108642578L803.9123698666667,-86.75217247009279L804.8851962666668,226.00441002845764L805.3985333333333,-162.1051654815674L809.3694821333332,332.96365463733673L809.4794586666666,55.68675184249877L810.0898624,258.89466547966003L810.5903866666667,219.43307304382324L811.4923058666667,251.00741887092587L814.2502853333333,253.59743142127988L816.5126666666667,-123.72626638412477L817.6188626666666,-6.744566917419434L817.7018546666667,239.34662961959836L818.9984712,191.50584840774536L819.2630992,297.62007200717926L820.1488810666667,298.045786857605L822.3907813333333,240.06252551078794L826.1195245333333,388.5175337791443L828.1469317333333,401.3248279094696L829.7105301333332,311.1977609395981L830.5975496,327.9219170808792L831.3468557333333,355.2510931491852L831.4237082666667,330.79402470588684L834.2822730666667,109.81741333007811L834.3529618666666,342.18084239959717L834.5188245333334,284.27410984039307L835.0664504,369.20203828811646L835.4150653333334,418.9034741520882L836.3323938666667,338.6942889690399L837.4736066666667,335.0146737098694L837.9962378666667,388.0437161922455L839.8400434666667,400.5941932797432L841.1948757333332,107.56651067733765L841.5105365333333,387.0259984731674L844.8789925333334,383.89478945732117L845.1690277333333,155.41913294792172L847.549612,351.9668641090393L848.0050002666667,413.85424518585205L848.4607282666667,415.28151834011084L851.6549738666666,268.46314215660095L851.9805597333333,197.66830587387082L852.3436376,207.683363199234L854.3146733333333,230.01444840431208L854.4642773333334,228.45135354995728L854.7064101333333,341.99111008644104L855.8198861333334,223.17016625404358L858.1878274666667,171.0854544639587L858.761176,234.42805910110474L859.5637474666667,215.73415660858151L859.5858786666666,286.6369643211365L860.0515802666666,263.79050517082214L860.5763954666668,205.6718602180481L861.1095098666667,221.28117942810056L862.1496277333333,57.278260231018066L862.6085346666667,225.439619064331L863.5029554666667,327.8750910758972L863.7510093333334,368.1533410549164L863.8023576,184.75073719024655L864.6101949333333,321.5857365131378L865.6734146666666,173.25487160682675L866.5904034666667,242.12692523002625L869.5099746666667,274.9200990200043L870.2265450666667,324.86588501930237L872.3182104,204.5775260925293L873.8475685333333,298.5333606004715L873.8787997333334,347.2907974720001L878.7228146666666,323.03604090213776L879.0672800000001,249.95892190933225L880.6080677333334,296.5860321521759L881.1537765333334,297.4062319993973L881.1546016,162.38503003120422L881.7619234666666,248.89029765129087L882.4822794666666,214.22631168365476L884.3544042666666,197.87606263160706L885.2626813333333,312.4534138441086L887.0446069333333,116.42054343223569L887.1512589333333,292.0622470378876L889.5396813333333,302.29611361026764L890.0987610666666,234.47507286071775L891.5994845333333,234.6568193435669L894.8438650666667,334.79707860946655L895.5795090666667,172.19155454635617L895.9430965333333,97.9232075214386L895.9931829333333,299.3351104259491L896.4489352,298.23076272010803L896.6206946666666,274.4132115840912L898.2583791999999,-126.32143592834473L898.3326837333333,235.91462516784668L902.3771605333334,274.4742193222046L902.4317848,352.56372356414795L902.5027405333333,292.99113178253174L902.9010050666667,353.788259267807L905.1367416,311.1359646320343L906.3675469333334,217.7423300743103L906.9280584,213.33895826339722L907.130588,142.68048191070557L907.8098848000001,200.686749458313L907.8421594666668,366.2081530094147L908.0274597333333,132.65501046180725L909.6344712,201.50801324844358L913.7652645333333,28.29400205612183L914.3204858666667,269.3919768333435L915.5949711999999,310.3161152601242L916.8572746666666,128.88592386245728L917.1708728,131.73288488388062L917.7654061333333,265.10326051712036L919.8914573333334,125.21356844902039L919.9316914666667,124.08333563804626L920.4531578666666,360.7365199327469L921.3827410666668,161.8268229961395L923.317668,148.68822956085205L923.925548,350.80383682250977L924.4530810666668,243.34109687805176L925.8564223999999,63.43320751190185L925.9335418666666,288.058141708374L926.0271384,197.3940839767456L926.2990221333333,238.7019803524017L927.052308,238.1016912460327L931.8130639999999,-69.36173772811891L932.1740306666667,-47.77851676940923L932.8312205333333,236.71180629730222L933.7282378666666,248.62188363075254L933.9917010666667,271.65064001083374L934.7070824,251.64270544052124L935.1402909333334,280.47250413894653L936.1183104,317.51078510284424L936.4072536,283.1273546218872L939.1655,134.64999103546143L939.2935309333333,260.50537490844727L939.3225538666667,18.393174648284877L942.3040536,228.9885070323944L942.4138360000001,271.34347343444824L942.5618383999999,174.59977054595944L942.8168810666667,133.55217719078064L945.1569400000001,119.775443315506L946.6440013333333,46.190222740173326L946.6571053333332,241.62607097625732L947.2163063999999,-9.886628150939988L947.8869157333332,209.41213274002075L948.3163629333333,180.92727684974668L949.8412559999999,249.15237808227536L950.5173496,-36.61122179031375L951.2456893333334,250.6782474517822L951.8025365333333,116.33910799026488L952.8369274666668,161.48518466949463L953.111068,352.1786012649536L954.3101082666667,162.37942242622375L960.4191930666667,90.37086510658264L961.3740135999999,262.0904495716095L961.3941306666666,39.39851188659667L962.6933922666666,81.04789638519289L962.7044093333333,-166.87944030761724L963.9214312,-9.976349830627441L964.6529498666667,140.62016272544858L965.9001594666668,-135.4756007194519L966.7295455999999,233.33828115463254L968.3890216,265.71408891677856L968.6978877333333,-103.92846679687503L968.7841557333334,237.2358169555664L969.4017666666666,243.2618894577026L970.4433647999999,167.31066012382507L972.3055402666668,221.51309394836426L973.5896594666667,377.659570813179L973.6829890666668,214.027642250061L977.0146568,281.026104927063L977.8509104,288.9388861656189L978.2497816,239.96216440200803L978.5371717333334,320.90744161605835L981.4981904,302.8833224773407L983.0092514666666,427.4378796815873L983.8037664,190.0529780387878L984.3211802666667,252.19803357124323L986.9644026666667,155.21458053588867L988.6380261333333,-71.38953781127935L989.5453082666668,21.346229553222642L990.1879624000001,293.2843294143677L990.5864453333334,232.63870739936826L991.6124399999999,310.6594684123993L991.8839112000001,206.24731564521787L992.4295957333333,60.89246177673337L999.6465752,291.2393810749054L999.8187229333333,325.8596452474594L1000.4741656,367.9911586046219L1001.0934994666667,224.09875059127805L1001.3818845333334,306.6131057739258L1002.8197330666667,320.1152672767639L1003.0431805333333,332.75255584716797L1007.4357869333334,279.4916489124298L1008.9605586666665,343.9227046966553L1009.5509909333334,305.5364706516266L1009.6417968,342.48703265190125L1015.1130322666667,277.1779611110687L1016.4254221333333,370.63002490997314L1016.9720288000001,273.7495114803314L1018.3056762666666,381.87530064582825L1018.3753216,368.5042669773102L1022.2009858666668,354.22123396396637L1022.8440039999999,385.77408814430237L1023.1412464,259.1469326019287L1023.9885898666666,-125.49351310729986L1027.1691976,167.75689029693604L1029.0983005333335,254.26548743247986L1030.4279682666665,352.9432007074356L1030.5567029333333,337.71463537216187L1033.7149853333333,292.6812365055084L1033.986408,163.3149662017822L1034.3055632,270.04105710983276L1034.9958042666667,103.7233486175537L1035.0100730666668,162.23880672454834L1035.1268685333334,216.89478063583374L1037.0689056,271.2813892364502L1039.8885952,318.74523425102234L1040.0229597333332,84.66707968711853L1040.2955229333334,242.88853311538693L1040.5688141333335,283.68270778656006L1041.6389741333332,232.91493201255795L1042.5664461333333,166.926664352417L1044.1625133333332,205.33535385131833L1044.645056,119.44852495193483L1045.0823413333333,39.249910354614244L1045.1229637333333,342.63157868385315L1047.6308266666667,121.27660417556764L1048.3623696,221.39122867584226L1048.8412480000002,176.11667776107788L1052.1424125333333,319.5106097459793L1052.8146234666667,150.79215788841248L1054.0834061333333,137.1439983844757L1056.3856818666666,248.9287247657776L1059.4905776,121.5407123565674L1061.6633664,236.90153861045837L1062.1693749333333,162.71710538864136L1064.6120576,100.34636878967285L1065.9191816,317.5190212726593L1067.5452666666667,289.2048969268799L1069.8571034666668,192.54378104209897L1071.8752165333333,30.275990009307847L1073.3141813333334,-0.19147968292239126L1073.4295935999999,332.44043254852295L1076.0341106666667,246.3288238048553L1077.0460549333334,222.7552034854889L1077.2974818666667,119.299973487854L1077.8140221333333,-49.34403991699222L1077.8931557333333,200.99316501617432L1078.2548504000001,138.88518476486206L1078.3269709333333,181.50185608863828L1078.6401565333333,15.52909040451046L1084.9722762666665,220.93633675575254L1085.5596509333334,261.16757297515863L1087.7412000000002,178.31761264801023L1088.3756277333332,349.26167035102844L1089.1113445333333,135.2182116508484L1089.8318218666666,-3.0946168899536133L1090.8286722666667,195.80638074874875L1092.6189698666667,227.10715556144714L1092.6280213333334,-182.06763839721685L1094.1366799999998,329.86908280849457L1096.703608,314.9339028596878L1096.7616295999999,189.09705662727353L1099.6395834666666,263.3978476524353L1100.2971373333332,93.55610990524292L1101.4763032,279.6573987007141L1101.7459544,325.8069863319397L1102.3144738666667,132.2003939151764L1102.3628373333333,185.60935163497922L1103.4390154666667,14.955162048339835L1104.1632784,320.3108825683594L1106.235312,114.40758848190308L1106.6350082666668,47.08268308639527L1107.912624,314.3840571641922L1109.9329210666667,245.0833096504211L1110.4508930666666,-20.209778308868444L1111.9058253333333,-63.60317802429203L1112.9717143999999,53.36875820159912L1113.2285042666667,375.0110414028168L1115.50712,284.2963399887085L1116.9744768,298.21576738357544L1117.5253544,104.44302463531493L1120.8350122666666,334.18409729003906L1122.6307698666667,316.86648631095886L1125.0101165333333,293.54142808914185L1126.0455994666665,312.89562606811523L1127.3250352,276.9716312885284L1129.6596584,352.2524013519287L1130.5973952,327.9036548137665L1130.8836933333332,329.0982999801636L1133.0178253333333,70.52302265167236L1134.7091392,294.17651438713074L1136.0392194666667,318.5380908250809L1136.0694072,313.33494687080383L1136.3106421333332,295.9167745113373L1136.5668981333333,265.0490369796753L1137.3243578666666,280.3761234283447L1139.340384,299.152650475502L1140.5526253333333,167.05433750152588L1141.0018498666666,367.5049366950989L1141.281596,321.0053994655609L1141.3928829333333,345.1582428216934L1142.3079789333333,327.26407492160797L1143.7313645333334,302.7392270565033L1144.7729141333334,349.17323791980743L1146.5224437333334,315.13959431648254L1146.767804,307.29465508461L1146.8647493333333,319.1464033126831L1148.8445938666666,368.96076107025146L1149.4478874666665,247.769953250885L1150.1149538666666,290.4565443992615L1150.7823114666667,345.5586858987808L1151.3913562666667,357.61647605895996L1152.2589866666667,322.3510994911194L1156.2828610666668,299.97674310207367L1157.6923176,322.7007987499237L1157.819572,307.1273281574249L1158.2932088,367.0051338672638L1158.8570205333333,354.7955753803253L1159.5131669333334,280.6950809955597L1162.6022650666666,328.6074843406677L1164.0945437333332,308.0181612968445L1164.7831104000002,377.86736512184143L1167.1072989333334,174.04464268684384L1167.413884,222.04486513137815L1167.6709165333332,309.89998841285706L1167.9144810666667,265.9516110420227L1170.0126741333333,-143.3003625869751L1170.37102,70.56868457794188L1171.2670424,259.9782600402832L1171.3025930666665,243.59043502807614L1171.5614698666666,160.50670766830441L1171.8549266666666,388.64050054550165L1171.962064,249.64219236373899L1172.5653090666667,-140.77754116058352L1174.2383744,188.2110300064087L1175.13032,282.40840458869934L1180.6529522666667,309.2589690685272L1181.8161506666668,277.73058557510376L1182.7207392,276.6610851287842L1183.0486061333334,151.03441143035886L1183.5805072,64.72430849075316L1184.2763781333333,267.7181067466735L1184.7761501333334,104.36682128906249L1185.0104690666667,286.71955132484436L1186.9672117333334,232.86744260787964L1189.4137285333334,237.4206676483154L1190.3999016,297.55881392955774L1190.7723949333333,185.78193569183347L1191.6147152,268.1534721851349L1192.9710277333334,339.5693757534027L1197.4135021333332,-48.712583541870124L1197.7898296,367.00672352313995L1198.1102224,314.97653567790985L1198.481648,329.9408676624298L1199.6634832,262.2788801193237L1199.9691946666667,138.13171291351318L1202.5894122666668,96.29064345359802L1203.4622114666668,-51.19785404205326L1204.7642394666666,171.7837014198303L1205.7456562666666,245.81685447692868L1205.84828,74.28252124786377L1206.3862234666667,300.137273311615L1206.5877581333332,251.03548192977902L1206.8431648,297.77648413181305L1209.4487981333332,29.45252323150635L1209.7151248,274.56023597717285L1210.8155453333334,221.28658676147458L1212.4078511999999,264.3179955482483L1217.7553752,273.7021722793579L1217.7699109333334,388.44665014743805L1219.7207082666666,327.08095157146454L1223.2069061333334,296.6829260587692L1223.3378005333334,-93.32448577880864L1224.9691514666667,353.6299570798874L1225.0412477333332,22.575196266174288L1226.4365568,182.3718109130859L1226.8209165333333,268.9765634536743L1227.0250477333334,169.68057417869565L1227.4576981333332,191.1595788002014L1227.6611498666668,244.6381559371948L1227.7968490666667,100.4070510864258L1231.157564,279.00085830688477L1232.3779104,357.4187078475952L1233.7477152,273.12343740463257L1234.1286048,61.0592379570007L1234.3557165333334,240.02309703826901L1234.5793824,308.66716647148127L1237.6229805333335,327.8021171092987L1238.2452021333334,-96.88466405868536L1238.3275874666667,334.86774945259094L1239.3084704,359.7548385858536L1240.0436533333334,-105.82418775558475L1240.4454365333333,298.1768020391464L1241.1445592,-156.79946994781497L1243.2160832,239.39134025573728L1248.7088917333333,326.5791084766388L1249.4156341333332,183.1956281661987L1249.4693362666667,325.9739753007889L1249.8401794666668,165.4156651496887L1251.6276136,249.30220627784726L1254.4738509333333,93.12442445755005L1255.3360698666668,84.85102915763854L1256.1657714666667,44.8937644958496L1257.1315848,-121.72435140609745L1257.1615784,-24.952410221099854L1262.1365848,77.52912425994873L1262.3994413333332,217.68435144424436L1264.3825376,34.517191886901834L1264.6191861333332,136.14221477508542L1265.7827728,317.3325183391571L1265.8285154666667,198.37020778656003L1267.6330333333335,-5.968063831329355L1269.0662711999998,233.82263803482056L1269.1686280000001,141.66044855117798L1269.4790229333335,148.37134981155393L1271.3202562666668,42.548483848571756L1271.4120813333334,271.5612688064575L1272.0986581333334,131.93132901191711L1272.3865336000001,245.7630815505981L1273.7666274666667,258.91682052612305L1275.0076248,297.27278852462763L1280.3018349333333,292.1693172454834L1286.2098704,295.1492085456848L1286.2185336,176.89042711257935L1286.6812746666667,284.5633521080017L1286.8787568,247.93878221511838L1287.2976722666667,256.4018096923828L1287.6552173333332,340.414897441864L1288.7615104,215.2808918952942L1290.9460927999999,374.9872716665268L1291.4874093333333,355.5005189180374L1291.5998853333333,-26.413641929626476L1293.0369573333335,231.5873565673828L1295.5412773333333,276.7518332004547L1299.0335418666668,280.93583250045776L1301.1642037333334,291.6318883895874L1301.9631352,245.11525297164914L1303.2101992,240.06530427932736L1303.2631733333333,157.1797957420349L1303.5424341333332,217.58456611633295L1306.5232786666666,219.13847351074216L1307.8211570666667,110.51540994644164L1310.1363669333332,225.75064086914062L1313.9320133333333,53.368808269500725L1315.7489557333333,68.27502393722534L1316.2500381333334,144.63630938529968L1317.1392173333334,53.90408420562744L1318.1421101333333,144.69846868515015L1322.6186791999999,303.7000300884247L1324.5110181333334,81.67594814300534L1329.3602018666666,112.36411714553833L1331.1509362666666,231.01455473899838L1332.7151170666666,192.48212242126462L1333.2772786666667,192.23556303977963L1334.4358421333334,261.06308126449585L1334.6666666666665,282.1810212135315" style="fill: none;" fill="none"></path></g></g></g></g></g></g><g transform="translate(40, 378)" clip-path="url(#clip_1)"><clipPath id="clip_1"><rect width="1456" height="22"></rect></clipPath><g><g><line x1="0" y1="0" x2="0" y2="5" style="visibility: inherit;" fill="rgb(0, 0, 0)" stroke="rgb(204, 204, 204)" stroke-width="1px"></line><line x1="121.33333333333333" y1="0" x2="121.33333333333333" y2="5" style="visibility: inherit;" fill="rgb(0, 0, 0)" stroke="rgb(204, 204, 204)" stroke-width="1px"></line><line x1="242.66666666666666" y1="0" x2="242.66666666666666" y2="5" style="visibility: inherit;" fill="rgb(0, 0, 0)" stroke="rgb(204, 204, 204)" stroke-width="1px"></line><line x1="364" y1="0" x2="364" y2="5" style="visibility: inherit;" fill="rgb(0, 0, 0)" stroke="rgb(204, 204, 204)" stroke-width="1px"></line><line x1="485.3333333333333" y1="0" x2="485.3333333333333" y2="5" style="visibility: inherit;" fill="rgb(0, 0, 0)" stroke="rgb(204, 204, 204)" stroke-width="1px"></line><line x1="606.6666666666667" y1="0" x2="606.6666666666667" y2="5" style="visibility: inherit;" fill="rgb(0, 0, 0)" stroke="rgb(204, 204, 204)" stroke-width="1px"></line><line x1="728" y1="0" x2="728" y2="5" style="visibility: inherit;" fill="rgb(0, 0, 0)" stroke="rgb(204, 204, 204)" stroke-width="1px"></line><line x1="849.3333333333334" y1="0" x2="849.3333333333334" y2="5" style="visibility: inherit;" fill="rgb(0, 0, 0)" stroke="rgb(204, 204, 204)" stroke-width="1px"></line><line x1="970.6666666666666" y1="0" x2="970.6666666666666" y2="5" style="visibility: inherit;" fill="rgb(0, 0, 0)" stroke="rgb(204, 204, 204)" stroke-width="1px"></line><line x1="1092" y1="0" x2="1092" y2="5" style="visibility: inherit;" fill="rgb(0, 0, 0)" stroke="rgb(204, 204, 204)" stroke-width="1px"></line><line x1="1213.3333333333335" y1="0" x2="1213.3333333333335" y2="5" style="visibility: inherit;" fill="rgb(0, 0, 0)" stroke="rgb(204, 204, 204)" stroke-width="1px"></line><line x1="1334.6666666666665" y1="0" x2="1334.6666666666665" y2="5" style="visibility: inherit;" fill="rgb(0, 0, 0)" stroke="rgb(204, 204, 204)" stroke-width="1px"></line><line x1="1456" y1="0" x2="1456" y2="5" style="visibility: inherit;" fill="rgb(0, 0, 0)" stroke="rgb(204, 204, 204)" stroke-width="1px"></line></g><g transform="translate(0, 8)"><text x="0" y="0" dx="0em" dy="0.95em" style="text-anchor: middle; visibility: hidden; font-family: Roboto, sans-serif; font-size: 12px; font-weight: 200;" fill="rgb(50, 49, 63)" stroke="none" stroke-width="1px">-5M</text><text x="121.33333333333333" y="0" dx="0em" dy="0.95em" style="text-anchor: middle; visibility: inherit; font-family: Roboto, sans-serif; font-size: 12px; font-weight: 200;" fill="rgb(50, 49, 63)" stroke="none" stroke-width="1px">0</text><text x="242.66666666666666" y="0" dx="0em" dy="0.95em" style="text-anchor: middle; visibility: inherit; font-family: Roboto, sans-serif; font-size: 12px; font-weight: 200;" fill="rgb(50, 49, 63)" stroke="none" stroke-width="1px">5M</text><text x="364" y="0" dx="0em" dy="0.95em" style="text-anchor: middle; visibility: inherit; font-family: Roboto, sans-serif; font-size: 12px; font-weight: 200;" fill="rgb(50, 49, 63)" stroke="none" stroke-width="1px">10M</text><text x="485.3333333333333" y="0" dx="0em" dy="0.95em" style="text-anchor: middle; visibility: inherit; font-family: Roboto, sans-serif; font-size: 12px; font-weight: 200;" fill="rgb(50, 49, 63)" stroke="none" stroke-width="1px">15M</text><text x="606.6666666666667" y="0" dx="0em" dy="0.95em" style="text-anchor: middle; visibility: inherit; font-family: Roboto, sans-serif; font-size: 12px; font-weight: 200;" fill="rgb(50, 49, 63)" stroke="none" stroke-width="1px">20M</text><text x="728" y="0" dx="0em" dy="0.95em" style="text-anchor: middle; visibility: inherit; font-family: Roboto, sans-serif; font-size: 12px; font-weight: 200;" fill="rgb(50, 49, 63)" stroke="none" stroke-width="1px">25M</text><text x="849.3333333333334" y="0" dx="0em" dy="0.95em" style="text-anchor: middle; visibility: inherit; font-family: Roboto, sans-serif; font-size: 12px; font-weight: 200;" fill="rgb(50, 49, 63)" stroke="none" stroke-width="1px">30M</text><text x="970.6666666666666" y="0" dx="0em" dy="0.95em" style="text-anchor: middle; visibility: inherit; font-family: Roboto, sans-serif; font-size: 12px; font-weight: 200;" fill="rgb(50, 49, 63)" stroke="none" stroke-width="1px">35M</text><text x="1092" y="0" dx="0em" dy="0.95em" style="text-anchor: middle; visibility: inherit; font-family: Roboto, sans-serif; font-size: 12px; font-weight: 200;" fill="rgb(50, 49, 63)" stroke="none" stroke-width="1px">40M</text><text x="1213.3333333333335" y="0" dx="0em" dy="0.95em" style="text-anchor: middle; visibility: inherit; font-family: Roboto, sans-serif; font-size: 12px; font-weight: 200;" fill="rgb(50, 49, 63)" stroke="none" stroke-width="1px">45M</text><text x="1334.6666666666665" y="0" dx="0em" dy="0.95em" style="text-anchor: middle; visibility: inherit; font-family: Roboto, sans-serif; font-size: 12px; font-weight: 200;" fill="rgb(50, 49, 63)" stroke="none" stroke-width="1px">50M</text><text x="1456" y="0" dx="0em" dy="0.95em" style="text-anchor: middle; visibility: hidden; font-family: Roboto, sans-serif; font-size: 12px; font-weight: 200;" fill="rgb(50, 49, 63)" stroke="none" stroke-width="1px">55M</text></g><line x1="0" y1="0" x2="1456" y2="0" fill="rgb(0, 0, 0)" stroke="rgb(204, 204, 204)" stroke-width="1px"></line></g></g></g></g></svg>