<svg viewBox="0 0 1076 400" xmlns="http://www.w3.org/2000/svg"><g><g><g><g><g><line x1="70" y1="378" x2="65" y2="378" style="visibility: inherit;" fill="rgb(0, 0, 0)" stroke="rgb(204, 204, 204)" stroke-width="1px"></line><line x1="70" y1="348.9230769230769" x2="65" y2="348.9230769230769" style="visibility: inherit;" fill="rgb(0, 0, 0)" stroke="rgb(204, 204, 204)" stroke-width="1px"></line><line x1="70" y1="319.8461538461538" x2="65" y2="319.8461538461538" style="visibility: inherit;" fill="rgb(0, 0, 0)" stroke="rgb(204, 204, 204)" stroke-width="1px"></line><line x1="70" y1="290.7692307692308" x2="65" y2="290.7692307692308" style="visibility: inherit;" fill="rgb(0, 0, 0)" stroke="rgb(204, 204, 204)" stroke-width="1px"></line><line x1="70" y1="261.6923076923077" x2="65" y2="261.6923076923077" style="visibility: inherit;" fill="rgb(0, 0, 0)" stroke="rgb(204, 204, 204)" stroke-width="1px"></line><line x1="70" y1="232.6153846153846" x2="65" y2="232.6153846153846" style="visibility: inherit;" fill="rgb(0, 0, 0)" stroke="rgb(204, 204, 204)" stroke-width="1px"></line><line x1="70" y1="203.53846153846152" x2="65" y2="203.53846153846152" style="visibility: inherit;" fill="rgb(0, 0, 0)" stroke="rgb(204, 204, 204)" stroke-width="1px"></line><line x1="70" y1="174.46153846153848" x2="65" y2="174.46153846153848" style="visibility: inherit;" fill="rgb(0, 0, 0)" stroke="rgb(204, 204, 204)" stroke-width="1px"></line><line x1="70" y1="145.38461538461536" x2="65" y2="145.38461538461536" style="visibility: inherit;" fill="rgb(0, 0, 0)" stroke="rgb(204, 204, 204)" stroke-width="1px"></line><line x1="70" y1="116.30769230769232" x2="65" y2="116.30769230769232" style="visibility: inherit;" fill="rgb(0, 0, 0)" stroke="rgb(204, 204, 204)" stroke-width="1px"></line><line x1="70" y1="87.23076923076923" x2="65" y2="87.23076923076923" style="visibility: inherit;" fill="rgb(0, 0, 0)" stroke="rgb(204, 204, 204)" stroke-width="1px"></line><line x1="70" y1="58.15384615384613" x2="65" y2="58.15384615384613" style="visibility: inherit;" fill="rgb(0, 0, 0)" stroke="rgb(204, 204, 204)" stroke-width="1px"></line><line x1="70" y1="29.076923076923038" x2="65" y2="29.076923076923038" style="visibility: inherit;" fill="rgb(0, 0, 0)" stroke="rgb(204, 204, 204)" stroke-width="1px"></line><line x1="70" y1="0" x2="65" y2="0" style="visibility: inherit;" fill="rgb(0, 0, 0)" stroke="rgb(204, 204, 204)" stroke-width="1px"></line></g><g transform="translate(60, 0)"><text x="0" y="378" dx="0em" dy="0.3em" style="text-anchor: end; visibility: hidden; font-family: &quot;Helvetica Neue&quot;, sans-serif; font-size: 12px; font-weight: 200;" fill="rgb(50, 49, 63)" stroke="none" stroke-width="1px">1.1e+3</text><text x="0" y="348.9230769230769" dx="0em" dy="0.3em" style="text-anchor: end; visibility: inherit; font-family: &quot;Helvetica Neue&quot;, sans-serif; font-size: 12px; font-weight: 200;" fill="rgb(50, 49, 63)" stroke="none" stroke-width="1px">1.2e+3</text><text x="0" y="319.8461538461538" dx="0em" dy="0.3em" style="text-anchor: end; visibility: inherit; font-family: &quot;Helvetica Neue&quot;, sans-serif; font-size: 12px; font-weight: 200;" fill="rgb(50, 49, 63)" stroke="none" stroke-width="1px">1.3e+3</text><text x="0" y="290.7692307692308" dx="0em" dy="0.3em" style="text-anchor: end; visibility: inherit; font-family: &quot;Helvetica Neue&quot;, sans-serif; font-size: 12px; font-weight: 200;" fill="rgb(50, 49, 63)" stroke="none" stroke-width="1px">1.4e+3</text><text x="0" y="261.6923076923077" dx="0em" dy="0.3em" style="text-anchor: end; visibility: inherit; font-family: &quot;Helvetica Neue&quot;, sans-serif; font-size: 12px; font-weight: 200;" fill="rgb(50, 49, 63)" stroke="none" stroke-width="1px">1.5e+3</text><text x="0" y="232.6153846153846" dx="0em" dy="0.3em" style="text-anchor: end; visibility: inherit; font-family: &quot;Helvetica Neue&quot;, sans-serif; font-size: 12px; font-weight: 200;" fill="rgb(50, 49, 63)" stroke="none" stroke-width="1px">1.6e+3</text><text x="0" y="203.53846153846152" dx="0em" dy="0.3em" style="text-anchor: end; visibility: inherit; font-family: &quot;Helvetica Neue&quot;, sans-serif; font-size: 12px; font-weight: 200;" fill="rgb(50, 49, 63)" stroke="none" stroke-width="1px">1.7e+3</text><text x="0" y="174.46153846153848" dx="0em" dy="0.3em" style="text-anchor: end; visibility: inherit; font-family: &quot;Helvetica Neue&quot;, sans-serif; font-size: 12px; font-weight: 200;" fill="rgb(50, 49, 63)" stroke="none" stroke-width="1px">1.8e+3</text><text x="0" y="145.38461538461536" dx="0em" dy="0.3em" style="text-anchor: end; visibility: inherit; font-family: &quot;Helvetica Neue&quot;, sans-serif; font-size: 12px; font-weight: 200;" fill="rgb(50, 49, 63)" stroke="none" stroke-width="1px">1.9e+3</text><text x="0" y="116.30769230769232" dx="0em" dy="0.3em" style="text-anchor: end; visibility: inherit; font-family: &quot;Helvetica Neue&quot;, sans-serif; font-size: 12px; font-weight: 200;" fill="rgb(50, 49, 63)" stroke="none" stroke-width="1px">2e+3</text><text x="0" y="87.23076923076923" dx="0em" dy="0.3em" style="text-anchor: end; visibility: inherit; font-family: &quot;Helvetica Neue&quot;, sans-serif; font-size: 12px; font-weight: 200;" fill="rgb(50, 49, 63)" stroke="none" stroke-width="1px">2.1e+3</text><text x="0" y="58.15384615384613" dx="0em" dy="0.3em" style="text-anchor: end; visibility: inherit; font-family: &quot;Helvetica Neue&quot;, sans-serif; font-size: 12px; font-weight: 200;" fill="rgb(50, 49, 63)" stroke="none" stroke-width="1px">2.2e+3</text><text x="0" y="29.076923076923038" dx="0em" dy="0.3em" style="text-anchor: end; visibility: inherit; font-family: &quot;Helvetica Neue&quot;, sans-serif; font-size: 12px; font-weight: 200;" fill="rgb(50, 49, 63)" stroke="none" stroke-width="1px">2.3e+3</text><text x="0" y="0" dx="0em" dy="0.3em" style="text-anchor: end; visibility: hidden; font-family: &quot;Helvetica Neue&quot;, sans-serif; font-size: 12px; font-weight: 200;" fill="rgb(50, 49, 63)" stroke="none" stroke-width="1px">2.4e+3</text></g><line x1="70" y1="0" x2="70" y2="378" fill="rgb(0, 0, 0)" stroke="rgb(204, 204, 204)" stroke-width="1px"></line></g></g><g transform="translate(70, 0)" clip-path="url(#clip_0)"><clipPath id="clip_0"><rect width="1006" height="378"></rect></clipPath><g><g><g><line x1="0" y1="0" x2="0" y2="378" fill="rgb(0, 0, 0)" stroke="rgb(60, 60, 60)" stroke-width="1px" opacity="0.25"></line><line x1="83.83333333333333" y1="0" x2="83.83333333333333" y2="378" fill="rgb(0, 0, 0)" stroke="rgb(60, 60, 60)" stroke-width="1px" opacity="0.25"></line><line x1="167.66666666666666" y1="0" x2="167.66666666666666" y2="378" fill="rgb(0, 0, 0)" stroke="rgb(60, 60, 60)" stroke-width="1px" opacity="0.25"></line><line x1="251.5" y1="0" x2="251.5" y2="378" fill="rgb(0, 0, 0)" stroke="rgb(60, 60, 60)" stroke-width="1px" opacity="0.25"></line><line x1="335.3333333333333" y1="0" x2="335.3333333333333" y2="378" fill="rgb(0, 0, 0)" stroke="rgb(60, 60, 60)" stroke-width="1px" opacity="0.25"></line><line x1="419.1666666666667" y1="0" x2="419.1666666666667" y2="378" fill="rgb(0, 0, 0)" stroke="rgb(60, 60, 60)" stroke-width="1px" opacity="0.25"></line><line x1="503" y1="0" x2="503" y2="378" fill="rgb(0, 0, 0)" stroke="rgb(60, 60, 60)" stroke-width="1px" opacity="0.25"></line><line x1="586.8333333333334" y1="0" x2="586.8333333333334" y2="378" fill="rgb(0, 0, 0)" stroke="rgb(60, 60, 60)" stroke-width="1px" opacity="0.25"></line><line x1="670.6666666666666" y1="0" x2="670.6666666666666" y2="378" fill="rgb(0, 0, 0)" stroke="rgb(60, 60, 60)" stroke-width="1px" opacity="0.25"></line><line x1="754.5" y1="0" x2="754.5" y2="378" fill="rgb(0, 0, 0)" stroke="rgb(60, 60, 60)" stroke-width="1px" opacity="0.25"></line><line x1="838.3333333333334" y1="0" x2="838.3333333333334" y2="378" fill="rgb(0, 0, 0)" stroke="rgb(60, 60, 60)" stroke-width="1px" opacity="0.25"></line><line x1="922.1666666666666" y1="0" x2="922.1666666666666" y2="378" fill="rgb(0, 0, 0)" stroke="rgb(60, 60, 60)" stroke-width="1px" opacity="0.25"></line><line x1="1006" y1="0" x2="1006" y2="378" fill="rgb(0, 0, 0)" stroke="rgb(60, 60, 60)" stroke-width="1px" opacity="0.25"></line></g><g><line x1="0" y1="378" x2="1006" y2="378" fill="rgb(0, 0, 0)" stroke="rgb(60, 60, 60)" stroke-width="1px" opacity="0.25"></line><line x1="0" y1="348.9230769230769" x2="1006" y2="348.9230769230769" fill="rgb(0, 0, 0)" stroke="rgb(60, 60, 60)" stroke-width="1px" opacity="0.25"></line><line x1="0" y1="319.8461538461538" x2="1006" y2="319.8461538461538" fill="rgb(0, 0, 0)" stroke="rgb(60, 60, 60)" stroke-width="1px" opacity="0.25"></line><line x1="0" y1="290.7692307692308" x2="1006" y2="290.7692307692308" fill="rgb(0, 0, 0)" stroke="rgb(60, 60, 60)" stroke-width="1px" opacity="0.25"></line><line x1="0" y1="261.6923076923077" x2="1006" y2="261.6923076923077" fill="rgb(0, 0, 0)" stroke="rgb(60, 60, 60)" stroke-width="1px" opacity="0.25"></line><line x1="0" y1="232.6153846153846" x2="1006" y2="232.6153846153846" fill="rgb(0, 0, 0)" stroke="rgb(60, 60, 60)" stroke-width="1px" opacity="0.25"></line><line x1="0" y1="203.53846153846152" x2="1006" y2="203.53846153846152" fill="rgb(0, 0, 0)" stroke="rgb(60, 60, 60)" stroke-width="1px" opacity="0.25"></line><line x1="0" y1="174.46153846153848" x2="1006" y2="174.46153846153848" fill="rgb(0, 0, 0)" stroke="rgb(60, 60, 60)" stroke-width="1px" opacity="0.25"></line><line x1="0" y1="145.38461538461536" x2="1006" y2="145.38461538461536" fill="rgb(0, 0, 0)" stroke="rgb(60, 60, 60)" stroke-width="1px" opacity="0.25"></line><line x1="0" y1="116.30769230769232" x2="1006" y2="116.30769230769232" fill="rgb(0, 0, 0)" stroke="rgb(60, 60, 60)" stroke-width="1px" opacity="0.25"></line><line x1="0" y1="87.23076923076923" x2="1006" y2="87.23076923076923" fill="rgb(0, 0, 0)" stroke="rgb(60, 60, 60)" stroke-width="1px" opacity="0.25"></line><line x1="0" y1="58.15384615384613" x2="1006" y2="58.15384615384613" fill="rgb(0, 0, 0)" stroke="rgb(60, 60, 60)" stroke-width="1px" opacity="0.25"></line><line x1="0" y1="29.076923076923038" x2="1006" y2="29.076923076923038" fill="rgb(0, 0, 0)" stroke="rgb(60, 60, 60)" stroke-width="1px" opacity="0.25"></line><line x1="0" y1="0" x2="1006" y2="0" fill="rgb(0, 0, 0)" stroke="rgb(60, 60, 60)" stroke-width="1px" opacity="0.25"></line></g></g></g><g><g><line x1="0" y1="697.8461538461538" x2="1006" y2="697.8461538461538" fill="rgb(0, 0, 0)" stroke="rgb(153, 153, 153)" stroke-width="1.5px"></line></g></g><g><g><line x1="83.83333333333333" y1="0" x2="83.83333333333333" y2="378" fill="rgb(0, 0, 0)" stroke="rgb(153, 153, 153)" stroke-width="1.5px"></line></g></g><g><g><g><g><g><path stroke="rgb(255, 112, 67)" stroke-width="2px" d="M108.98333333333333,406.2673099935255L113.175,360.4486548790824L117.36666666666667,345.93389475962624L121.55833333333334,323.75956450657816L125.75,317.93186206882393L129.9416666666667,303.96674480012564L134.13333333333333,260.34693747526484L138.32500000000002,247.51257381874333L142.51666666666665,223.55145478548738L146.70833333333334,159.7477417128686L150.9,186.65024721551453L155.09166666666667,185.15906231274448L159.28333333333333,171.2127601093714L163.475,196.52240761850115L167.66666666666666,156.8479248985752L171.85833333333335,160.92419194114385L176.04999999999998,152.65050640024393L180.24166666666667,151.777767200265L184.4333333333333,152.87186615045073L188.625,122.50848123287912L192.8166666666667,134.77988363583913L197.00833333333333,100.50935664441067L201.20000000000002,102.21261683549335L205.39166666666665,124.0972722754172L209.58333333333334,119.75458626336876L213.775,72.96661319008206L217.96666666666667,101.84255344536052L222.15833333333333,111.55352554475644L226.35,70.42804623990645L230.54166666666666,97.27218397464446L234.73333333333335,97.05501215538311L238.92499999999998,118.35526756627576L243.11666666666667,123.03722786484278L247.3083333333333,147.85882745930223L251.5,152.11514203415558L255.69166666666666,157.87405104542486L259.8833333333334,173.03182156003L264.075,125.9487042505483L268.26666666666665,117.48193183371797L272.4583333333333,144.76823196965364L276.65000000000003,102.02321997840528L280.8416666666667,97.18455623566018L285.0333333333333,99.48947788207289L289.22499999999997,127.65158133599331L293.4166666666667,175.01670255798842L297.60833333333335,180.60182945248843L301.8,173.50466415284262L305.9916666666666,149.84173554094306L310.18333333333334,155.38975053430727L314.375,165.84977429895636L318.56666666666666,180.07286089848967L322.7583333333334,174.580263564333L326.95,171.24889852321465L331.14166666666665,156.41988719085066L335.3333333333333,180.22822618470394L339.52500000000003,125.66279553654189L343.7166666666667,85.37049402865534L347.9083333333333,57.25712093642369L352.09999999999997,121.16943204202289L356.2916666666667,134.60202716391572L360.48333333333335,153.9154324942629L364.675,20.54754615521142L368.8666666666666,108.66221955009809L373.05833333333334,150.69744193138095L377.25,153.4624449514968L381.44166666666666,192.15664417943168L385.6333333333334,178.9125620785725L389.825,183.141932379355L394.01666666666665,208.75832581883904L398.2083333333333,231.52422085188036L402.40000000000003,165.9223939894936L406.5916666666667,132.9909040920135L410.7833333333333,148.57116257239556L414.97499999999997,75.64152116122585L419.1666666666667,112.87074743231238L423.35833333333335,56.65422114568554L427.55,119.49419043981521L431.7416666666666,93.0805183203795L435.93333333333334,82.51392232035272L440.125,78.67952091024051L444.31666666666666,137.62258942414914L448.5083333333334,152.73574310761444L452.7,144.038061249184L456.89166666666665,171.13098413532774L461.0833333333333,149.94640861521108L465.27500000000003,172.91408435181896L469.4666666666667,179.49752663272602L473.6583333333333,25.291278900308782L477.84999999999997,146.50513430232468L482.0416666666667,141.83895558139477L486.23333333333335,151.24995169919742L490.425,193.74327210124923L494.6166666666666,94.10147272589364L498.80833333333334,122.70153605440643L503,167.96434921677843L507.19166666666666,218.71719351444207L511.3833333333333,225.84811456118928L515.5749999999999,204.90747660930978L519.7666666666668,197.12688658157143L523.9583333333334,185.96505081913512L528.15,62.60292892898116L532.3416666666667,61.645599154263664L536.5333333333333,96.57253422212563L540.725,143.96159182233782L544.9166666666666,187.2846542370325L549.1083333333332,206.4801139815224L553.3000000000001,141.67468347304802L557.4916666666667,171.41367351531923L561.6833333333334,202.62585021796556L565.875,181.15500577380823L570.0666666666666,106.60630830202524L574.2583333333333,-18.672830403400212L578.4499999999999,63.5559389274311L582.6416666666668,154.34977977773272L586.8333333333334,118.1139072296204L591.025,140.71701981854153L595.2166666666667,106.29605804497106L599.4083333333333,137.77156075847304L603.6,180.92548746169444L607.7916666666666,217.31393122401187L611.9833333333332,222.08413938344552L616.1750000000001,162.12889423703845L620.3666666666667,131.83057437275193L624.5583333333334,183.16575973783387L628.75,189.99881153681093L632.9416666666666,179.54721856271155L637.1333333333333,130.34157347536726L641.3249999999999,161.6415723905088L645.5166666666668,188.905786282863L649.7083333333334,-76.45191269542653L653.9,50.31679048370569L658.0916666666667,80.81715729803591L662.2833333333333,82.58420769011957L666.475,124.78521737248519L670.6666666666666,173.96092557072672L674.8583333333332,198.4128153334216L679.0500000000001,218.7011478839472L683.2416666666667,195.07013336678662L687.4333333333334,176.23035758918252L691.625,219.77236975182683L695.8166666666666,201.35726800494223L700.0083333333333,189.23406452892687L704.1999999999999,130.63133730509648L708.3916666666668,127.31110399062996L712.5833333333334,126.84943523091644L716.775,183.5655032359056L720.9666666666667,234.96590801125492L725.1583333333333,178.23483522141643L729.35,217.486464459172L733.5416666666666,221.2541736724984L737.7333333333332,224.6023442726096L741.9250000000001,265.50684180996L746.1166666666667,222.88795304270678L750.3083333333334,217.47273434064812L754.5,102.03280842289848L758.6916666666666,164.5548103542198L762.8833333333333,196.50993211096934L767.0749999999999,220.35601312775952L771.2666666666668,230.53942390730475L775.4583333333334,235.12110040808474L779.65,197.86457626047584L783.8416666666667,229.6587074449874L788.0333333333333,134.84877239367515L792.225,165.05945476733487L796.4166666666666,174.78853967229998L800.6083333333332,166.1848970155194L804.8000000000001,205.58596397553768L808.9916666666667,220.71142438892835L813.1833333333334,196.63737559189067L817.375,70.46127736835547L821.5666666666666,88.35940178759978L825.7583333333333,122.60977989467526L829.9499999999999,82.59836988993027L834.1416666666668,55.11106730655433L838.3333333333334,23.76202499931736L842.525,13.87697176040757L846.7166666666667,123.06504190540326L850.9083333333333,5.205844554299745L855.1,95.4461307560174L859.2916666666666,65.16317049087013L863.4833333333332,138.99615800365666L867.6750000000001,198.8608359530354L871.8666666666667,220.1681907244655L876.0583333333334,167.61616112939083L880.25,213.34404591140859L884.4416666666666,209.9093475438403L888.6333333333333,199.6597684571936L892.8249999999999,219.60531006770557L897.0166666666668,94.86721143124834L901.2083333333334,152.8138043226913L905.4,200.58689662606668L909.5916666666667,213.2417194059285L913.7833333333333,224.64146095545615L917.975,213.45895191882659L922.1666666666666,220.0173543994931" style="fill: none;" fill="none"></path></g></g></g></g><g opacity="0.2"><g><g><g><path stroke="rgb(255, 112, 67)" stroke-width="2px" d="M100.60000000000001,429.3304591721755L104.79166666666667,370.69673020582934L108.98333333333333,385.9034072641226L113.175,294.9272449669471L117.36666666666667,324.771235163762L121.55833333333334,291.05673452524036L125.75,309.27840313251204L129.9416666666667,283.1457314828726L134.13333333333333,195.1546035531851L138.32500000000002,228.302934758113L142.51666666666665,187.6567185621995L146.70833333333334,64.11717097355768L150.9,226.98503173828126L155.09166666666667,182.9229159780649L159.28333333333333,150.2968477689303L163.475,234.48302321213941L167.66666666666666,97.33982722355768L171.85833333333335,167.0383689528245L176.04999999999998,140.24025033804085L180.24166666666667,150.4686756310096L184.4333333333333,154.5130016150841L188.625,76.96361966646634L192.8166666666667,153.18693490835338L197.00833333333333,49.10365384615386L201.20000000000002,104.76750450721153L205.39166666666665,156.92423527644232L209.58333333333334,113.24055964543271L213.775,2.7846690955528857L217.96666666666667,145.15645808293272L222.15833333333333,126.1199825345553L226.35,8.739830228365406L230.54166666666666,137.5383894230769L234.73333333333335,96.72925443209135L238.92499999999998,150.3056503530649L243.11666666666667,130.0601682692308L247.3083333333333,185.0912267127404L251.5,158.49961388221152L255.69166666666666,166.51241455078124L259.8833333333334,195.76847731370194L264.075,55.32402832031249L268.26666666666665,104.7817732121394L272.4583333333333,185.69768216646634L276.65000000000003,37.90570199819712L280.8416666666667,89.92656062199518L285.0333333333333,102.94686035156252L289.22499999999997,169.8947365159255L293.4166666666667,246.06438439002403L297.60833333333335,188.97951979417064L301.8,162.85891620342548L305.9916666666666,114.34734262319711L310.18333333333334,163.71177302433892L314.375,181.53980994591345L318.56666666666666,201.40749079777643L322.7583333333334,166.34136756310096L326.95,166.25185096153848L331.14166666666665,134.1763701923077L335.3333333333333,215.94073467548077L339.52500000000003,43.8146495643029L343.7166666666667,24.9320417668269L347.9083333333333,15.087061298076947L352.09999999999997,217.03789870042067L356.2916666666667,154.75091984675478L360.48333333333335,182.88554048978366L364.675,-179.5042833533654L368.8666666666666,240.83422964242789L373.05833333333334,213.7502755033053L377.25,157.6099494816707L381.44166666666666,250.19794302133414L385.6333333333334,159.04643892728365L389.825,189.48598783052884L394.01666666666665,247.1829159780649L398.2083333333333,265.6730634014423L402.40000000000003,67.51965369591346L406.5916666666667,83.59366924579325L410.7833333333333,171.94155029296877L414.97499999999997,-33.75294095552886L419.1666666666667,168.71458683894232L423.35833333333335,-27.670568284254784L427.55,213.7541443810096L431.7416666666666,53.46001014122595L435.93333333333334,66.66402832031247L440.125,72.92791879507212L444.31666666666666,226.037192195012L448.5083333333334,175.40547363281252L452.7,130.99153846153848L456.89166666666665,211.77036846454325L461.0833333333333,118.16954533503605L465.27500000000003,207.36559795673077L469.4666666666667,189.37269005408652L473.6583333333333,-206.01809269831733L477.84999999999997,328.32591740534855L482.0416666666667,134.8396875L486.23333333333335,165.36644587590146L490.425,257.4832527043269L494.6166666666666,-55.361226337139385L498.80833333333334,165.6016310471755L503,235.85856896033653L507.19166666666666,294.8464599609375L511.3833333333333,236.5444961313101L515.5749999999999,173.4965196814904L519.7666666666668,185.45600153996395L523.9583333333334,169.22229717548075L528.15,-122.44025390625L532.3416666666667,60.20960449218751L536.5333333333333,148.96293682391828L540.725,215.04517822265623L544.9166666666666,252.26924785907454L549.1083333333332,235.2733035982572L553.3000000000001,44.466537710336524L557.4916666666667,216.02215857872596L561.6833333333334,249.4441152719351L565.875,148.94873910757212L570.0666666666666,-5.21673790564904L574.2583333333333,-206.59153846153845L578.4499999999999,186.8990929236779L582.6416666666668,290.5405410531851L586.8333333333334,63.76009840745189L591.025,174.6216887019231L595.2166666666667,54.66461538461539L599.4083333333333,184.98481482872594L603.6,245.65637751652645L607.7916666666666,271.896596867488L611.9833333333332,229.23945162259614L616.1750000000001,72.19602651742792L620.3666666666667,86.3830945763221L624.5583333333334,260.16853778545675L628.75,200.24838923527645L632.9416666666666,163.86982910156252L637.1333333333333,56.533105844350985L641.3249999999999,208.59157076322114L645.5166666666668,229.80210712139422L649.7083333333334,-474.48846116286063L653.9,240.46984525240384L658.0916666666667,126.56770751953127L662.2833333333333,85.23478327824517L666.475,188.08673189603363L670.6666666666666,247.72448786808894L674.8583333333332,235.09064997746395L679.0500000000001,249.1336467097356L683.2416666666667,159.62361159104566L687.4333333333334,147.97069392277646L691.625,285.08538799579327L695.8166666666666,173.7346153846154L700.0083333333333,171.04925931490382L704.1999999999999,42.72724646935097L708.3916666666668,122.33075401893032L712.5833333333334,126.15693209134616L716.775,268.6396052433894L720.9666666666667,312.06651517427883L725.1583333333333,93.1382260366587L729.35,276.3639083158053L733.5416666666666,226.905737492488L737.7333333333332,229.62460017277644L741.9250000000001,326.8635881159856L746.1166666666667,158.95961989182695L750.3083333333334,209.3499062875601L754.5,-71.12708045372597L758.6916666666666,258.3378132512019L762.8833333333333,244.44261474609377L767.0749999999999,256.1251346529447L771.2666666666668,245.8145400766226L775.4583333333334,241.9936151592548L779.65,141.9797900390625L783.8416666666667,277.3499042217548L788.0333333333333,-7.366130183293251L792.225,210.3754783278245L796.4166666666666,189.3821670297476L800.6083333333332,153.27943303034857L804.8000000000001,264.6875644155649L808.9916666666667,243.3996150090144L813.1833333333334,160.52630239633416L817.375,-118.80286996694707L821.5666666666666,115.20658841646639L825.7583333333333,173.98534705528843L829.9499999999999,22.581254882812516L834.1416666666668,13.880113431490372L838.3333333333334,-23.261538461538464L842.525,-0.9506080979567173L846.7166666666667,286.8471471228966L850.9083333333333,-171.58295147235572L855.1,230.80656005859376L859.2916666666666,19.738730093149L863.4833333333332,249.74563927283654L867.6750000000001,288.6578528771034L871.8666666666667,252.1292228816106L876.0583333333334,88.78811673677887L880.25,281.9358730844351L884.4416666666666,204.757299992488L888.6333333333333,184.28539982722356L892.8249999999999,249.52362248347356L897.0166666666668,-92.2399365234375L901.2083333333334,239.73369365985576L905.4,272.2465350811298L909.5916666666667,232.22395357572117L913.7833333333333,241.74107327974758L917.975,196.68518836388222L922.1666666666666,229.8549581204928" style="fill: none;" fill="none"></path></g></g></g></g></g></g><g transform="translate(70, 378)" clip-path="url(#clip_1)"><clipPath id="clip_1"><rect width="1006" height="22"></rect></clipPath><g><g><line x1="0" y1="0" x2="0" y2="5" style="visibility: inherit;" fill="rgb(0, 0, 0)" stroke="rgb(204, 204, 204)" stroke-width="1px"></line><line x1="83.83333333333333" y1="0" x2="83.83333333333333" y2="5" style="visibility: inherit;" fill="rgb(0, 0, 0)" stroke="rgb(204, 204, 204)" stroke-width="1px"></line><line x1="167.66666666666666" y1="0" x2="167.66666666666666" y2="5" style="visibility: inherit;" fill="rgb(0, 0, 0)" stroke="rgb(204, 204, 204)" stroke-width="1px"></line><line x1="251.5" y1="0" x2="251.5" y2="5" style="visibility: inherit;" fill="rgb(0, 0, 0)" stroke="rgb(204, 204, 204)" stroke-width="1px"></line><line x1="335.3333333333333" y1="0" x2="335.3333333333333" y2="5" style="visibility: inherit;" fill="rgb(0, 0, 0)" stroke="rgb(204, 204, 204)" stroke-width="1px"></line><line x1="419.1666666666667" y1="0" x2="419.1666666666667" y2="5" style="visibility: inherit;" fill="rgb(0, 0, 0)" stroke="rgb(204, 204, 204)" stroke-width="1px"></line><line x1="503" y1="0" x2="503" y2="5" style="visibility: inherit;" fill="rgb(0, 0, 0)" stroke="rgb(204, 204, 204)" stroke-width="1px"></line><line x1="586.8333333333334" y1="0" x2="586.8333333333334" y2="5" style="visibility: inherit;" fill="rgb(0, 0, 0)" stroke="rgb(204, 204, 204)" stroke-width="1px"></line><line x1="670.6666666666666" y1="0" x2="670.6666666666666" y2="5" style="visibility: inherit;" fill="rgb(0, 0, 0)" stroke="rgb(204, 204, 204)" stroke-width="1px"></line><line x1="754.5" y1="0" x2="754.5" y2="5" style="visibility: inherit;" fill="rgb(0, 0, 0)" stroke="rgb(204, 204, 204)" stroke-width="1px"></line><line x1="838.3333333333334" y1="0" x2="838.3333333333334" y2="5" style="visibility: inherit;" fill="rgb(0, 0, 0)" stroke="rgb(204, 204, 204)" stroke-width="1px"></line><line x1="922.1666666666666" y1="0" x2="922.1666666666666" y2="5" style="visibility: inherit;" fill="rgb(0, 0, 0)" stroke="rgb(204, 204, 204)" stroke-width="1px"></line><line x1="1006" y1="0" x2="1006" y2="5" style="visibility: inherit;" fill="rgb(0, 0, 0)" stroke="rgb(204, 204, 204)" stroke-width="1px"></line></g><g transform="translate(0, 8)"><text x="0" y="0" dx="0em" dy="0.95em" style="text-anchor: middle; visibility: hidden; font-family: &quot;Helvetica Neue&quot;, sans-serif; font-size: 12px; font-weight: 200;" fill="rgb(50, 49, 63)" stroke="none" stroke-width="1px">-5M</text><text x="83.83333333333333" y="0" dx="0em" dy="0.95em" style="text-anchor: middle; visibility: inherit; font-family: &quot;Helvetica Neue&quot;, sans-serif; font-size: 12px; font-weight: 200;" fill="rgb(50, 49, 63)" stroke="none" stroke-width="1px">0</text><text x="167.66666666666666" y="0" dx="0em" dy="0.95em" style="text-anchor: middle; visibility: inherit; font-family: &quot;Helvetica Neue&quot;, sans-serif; font-size: 12px; font-weight: 200;" fill="rgb(50, 49, 63)" stroke="none" stroke-width="1px">5M</text><text x="251.5" y="0" dx="0em" dy="0.95em" style="text-anchor: middle; visibility: inherit; font-family: &quot;Helvetica Neue&quot;, sans-serif; font-size: 12px; font-weight: 200;" fill="rgb(50, 49, 63)" stroke="none" stroke-width="1px">10M</text><text x="335.3333333333333" y="0" dx="0em" dy="0.95em" style="text-anchor: middle; visibility: inherit; font-family: &quot;Helvetica Neue&quot;, sans-serif; font-size: 12px; font-weight: 200;" fill="rgb(50, 49, 63)" stroke="none" stroke-width="1px">15M</text><text x="419.1666666666667" y="0" dx="0em" dy="0.95em" style="text-anchor: middle; visibility: inherit; font-family: &quot;Helvetica Neue&quot;, sans-serif; font-size: 12px; font-weight: 200;" fill="rgb(50, 49, 63)" stroke="none" stroke-width="1px">20M</text><text x="503" y="0" dx="0em" dy="0.95em" style="text-anchor: middle; visibility: inherit; font-family: &quot;Helvetica Neue&quot;, sans-serif; font-size: 12px; font-weight: 200;" fill="rgb(50, 49, 63)" stroke="none" stroke-width="1px">25M</text><text x="586.8333333333334" y="0" dx="0em" dy="0.95em" style="text-anchor: middle; visibility: inherit; font-family: &quot;Helvetica Neue&quot;, sans-serif; font-size: 12px; font-weight: 200;" fill="rgb(50, 49, 63)" stroke="none" stroke-width="1px">30M</text><text x="670.6666666666666" y="0" dx="0em" dy="0.95em" style="text-anchor: middle; visibility: inherit; font-family: &quot;Helvetica Neue&quot;, sans-serif; font-size: 12px; font-weight: 200;" fill="rgb(50, 49, 63)" stroke="none" stroke-width="1px">35M</text><text x="754.5" y="0" dx="0em" dy="0.95em" style="text-anchor: middle; visibility: inherit; font-family: &quot;Helvetica Neue&quot;, sans-serif; font-size: 12px; font-weight: 200;" fill="rgb(50, 49, 63)" stroke="none" stroke-width="1px">40M</text><text x="838.3333333333334" y="0" dx="0em" dy="0.95em" style="text-anchor: middle; visibility: inherit; font-family: &quot;Helvetica Neue&quot;, sans-serif; font-size: 12px; font-weight: 200;" fill="rgb(50, 49, 63)" stroke="none" stroke-width="1px">45M</text><text x="922.1666666666666" y="0" dx="0em" dy="0.95em" style="text-anchor: middle; visibility: inherit; font-family: &quot;Helvetica Neue&quot;, sans-serif; font-size: 12px; font-weight: 200;" fill="rgb(50, 49, 63)" stroke="none" stroke-width="1px">50M</text><text x="1006" y="0" dx="0em" dy="0.95em" style="text-anchor: middle; visibility: hidden; font-family: &quot;Helvetica Neue&quot;, sans-serif; font-size: 12px; font-weight: 200;" fill="rgb(50, 49, 63)" stroke="none" stroke-width="1px">55M</text></g><line x1="0" y1="0" x2="1006" y2="0" fill="rgb(0, 0, 0)" stroke="rgb(204, 204, 204)" stroke-width="1px"></line></g></g></g></g></svg>