<svg viewBox="0 0 1076 400" xmlns="http://www.w3.org/2000/svg"><g><g><g><g><g><line x1="30" y1="378" x2="25" y2="378" style="visibility: inherit;" fill="rgb(0, 0, 0)" stroke="rgb(204, 204, 204)" stroke-width="1px"></line><line x1="30" y1="343.6363636363636" x2="25" y2="343.6363636363636" style="visibility: inherit;" fill="rgb(0, 0, 0)" stroke="rgb(204, 204, 204)" stroke-width="1px"></line><line x1="30" y1="309.27272727272725" x2="25" y2="309.27272727272725" style="visibility: inherit;" fill="rgb(0, 0, 0)" stroke="rgb(204, 204, 204)" stroke-width="1px"></line><line x1="30" y1="274.90909090909093" x2="25" y2="274.90909090909093" style="visibility: inherit;" fill="rgb(0, 0, 0)" stroke="rgb(204, 204, 204)" stroke-width="1px"></line><line x1="30" y1="240.54545454545453" x2="25" y2="240.54545454545453" style="visibility: inherit;" fill="rgb(0, 0, 0)" stroke="rgb(204, 204, 204)" stroke-width="1px"></line><line x1="30" y1="206.1818181818182" x2="25" y2="206.1818181818182" style="visibility: inherit;" fill="rgb(0, 0, 0)" stroke="rgb(204, 204, 204)" stroke-width="1px"></line><line x1="30" y1="171.81818181818184" x2="25" y2="171.81818181818184" style="visibility: inherit;" fill="rgb(0, 0, 0)" stroke="rgb(204, 204, 204)" stroke-width="1px"></line><line x1="30" y1="137.45454545454547" x2="25" y2="137.45454545454547" style="visibility: inherit;" fill="rgb(0, 0, 0)" stroke="rgb(204, 204, 204)" stroke-width="1px"></line><line x1="30" y1="103.09090909090907" x2="25" y2="103.09090909090907" style="visibility: inherit;" fill="rgb(0, 0, 0)" stroke="rgb(204, 204, 204)" stroke-width="1px"></line><line x1="30" y1="68.72727272727269" x2="25" y2="68.72727272727269" style="visibility: inherit;" fill="rgb(0, 0, 0)" stroke="rgb(204, 204, 204)" stroke-width="1px"></line><line x1="30" y1="34.363636363636374" x2="25" y2="34.363636363636374" style="visibility: inherit;" fill="rgb(0, 0, 0)" stroke="rgb(204, 204, 204)" stroke-width="1px"></line><line x1="30" y1="0" x2="25" y2="0" style="visibility: inherit;" fill="rgb(0, 0, 0)" stroke="rgb(204, 204, 204)" stroke-width="1px"></line></g><g transform="translate(20, 0)"><text x="0" y="378" dx="0em" dy="0.3em" style="text-anchor: end; visibility: hidden; font-family: &quot;Helvetica Neue&quot;, sans-serif; font-size: 12px; font-weight: 200;" fill="rgb(50, 49, 63)" stroke="none" stroke-width="1px">-1</text><text x="0" y="343.6363636363636" dx="0em" dy="0.3em" style="text-anchor: end; visibility: inherit; font-family: &quot;Helvetica Neue&quot;, sans-serif; font-size: 12px; font-weight: 200;" fill="rgb(50, 49, 63)" stroke="none" stroke-width="1px">0</text><text x="0" y="309.27272727272725" dx="0em" dy="0.3em" style="text-anchor: end; visibility: inherit; font-family: &quot;Helvetica Neue&quot;, sans-serif; font-size: 12px; font-weight: 200;" fill="rgb(50, 49, 63)" stroke="none" stroke-width="1px">1</text><text x="0" y="274.90909090909093" dx="0em" dy="0.3em" style="text-anchor: end; visibility: inherit; font-family: &quot;Helvetica Neue&quot;, sans-serif; font-size: 12px; font-weight: 200;" fill="rgb(50, 49, 63)" stroke="none" stroke-width="1px">2</text><text x="0" y="240.54545454545453" dx="0em" dy="0.3em" style="text-anchor: end; visibility: inherit; font-family: &quot;Helvetica Neue&quot;, sans-serif; font-size: 12px; font-weight: 200;" fill="rgb(50, 49, 63)" stroke="none" stroke-width="1px">3</text><text x="0" y="206.1818181818182" dx="0em" dy="0.3em" style="text-anchor: end; visibility: inherit; font-family: &quot;Helvetica Neue&quot;, sans-serif; font-size: 12px; font-weight: 200;" fill="rgb(50, 49, 63)" stroke="none" stroke-width="1px">4</text><text x="0" y="171.81818181818184" dx="0em" dy="0.3em" style="text-anchor: end; visibility: inherit; font-family: &quot;Helvetica Neue&quot;, sans-serif; font-size: 12px; font-weight: 200;" fill="rgb(50, 49, 63)" stroke="none" stroke-width="1px">5</text><text x="0" y="137.45454545454547" dx="0em" dy="0.3em" style="text-anchor: end; visibility: inherit; font-family: &quot;Helvetica Neue&quot;, sans-serif; font-size: 12px; font-weight: 200;" fill="rgb(50, 49, 63)" stroke="none" stroke-width="1px">6</text><text x="0" y="103.09090909090907" dx="0em" dy="0.3em" style="text-anchor: end; visibility: inherit; font-family: &quot;Helvetica Neue&quot;, sans-serif; font-size: 12px; font-weight: 200;" fill="rgb(50, 49, 63)" stroke="none" stroke-width="1px">7</text><text x="0" y="68.72727272727269" dx="0em" dy="0.3em" style="text-anchor: end; visibility: inherit; font-family: &quot;Helvetica Neue&quot;, sans-serif; font-size: 12px; font-weight: 200;" fill="rgb(50, 49, 63)" stroke="none" stroke-width="1px">8</text><text x="0" y="34.363636363636374" dx="0em" dy="0.3em" style="text-anchor: end; visibility: inherit; font-family: &quot;Helvetica Neue&quot;, sans-serif; font-size: 12px; font-weight: 200;" fill="rgb(50, 49, 63)" stroke="none" stroke-width="1px">9</text><text x="0" y="0" dx="0em" dy="0.3em" style="text-anchor: end; visibility: hidden; font-family: &quot;Helvetica Neue&quot;, sans-serif; font-size: 12px; font-weight: 200;" fill="rgb(50, 49, 63)" stroke="none" stroke-width="1px">10</text></g><line x1="30" y1="0" x2="30" y2="378" fill="rgb(0, 0, 0)" stroke="rgb(204, 204, 204)" stroke-width="1px"></line></g></g><g transform="translate(30, 0)" clip-path="url(#clip_0)"><clipPath id="clip_0"><rect width="1046" height="378"></rect></clipPath><g><g><g><line x1="0" y1="0" x2="0" y2="378" fill="rgb(0, 0, 0)" stroke="rgb(60, 60, 60)" stroke-width="1px" opacity="0.25"></line><line x1="87.16666666666666" y1="0" x2="87.16666666666666" y2="378" fill="rgb(0, 0, 0)" stroke="rgb(60, 60, 60)" stroke-width="1px" opacity="0.25"></line><line x1="174.33333333333331" y1="0" x2="174.33333333333331" y2="378" fill="rgb(0, 0, 0)" stroke="rgb(60, 60, 60)" stroke-width="1px" opacity="0.25"></line><line x1="261.5" y1="0" x2="261.5" y2="378" fill="rgb(0, 0, 0)" stroke="rgb(60, 60, 60)" stroke-width="1px" opacity="0.25"></line><line x1="348.66666666666663" y1="0" x2="348.66666666666663" y2="378" fill="rgb(0, 0, 0)" stroke="rgb(60, 60, 60)" stroke-width="1px" opacity="0.25"></line><line x1="435.83333333333337" y1="0" x2="435.83333333333337" y2="378" fill="rgb(0, 0, 0)" stroke="rgb(60, 60, 60)" stroke-width="1px" opacity="0.25"></line><line x1="523" y1="0" x2="523" y2="378" fill="rgb(0, 0, 0)" stroke="rgb(60, 60, 60)" stroke-width="1px" opacity="0.25"></line><line x1="610.1666666666667" y1="0" x2="610.1666666666667" y2="378" fill="rgb(0, 0, 0)" stroke="rgb(60, 60, 60)" stroke-width="1px" opacity="0.25"></line><line x1="697.3333333333333" y1="0" x2="697.3333333333333" y2="378" fill="rgb(0, 0, 0)" stroke="rgb(60, 60, 60)" stroke-width="1px" opacity="0.25"></line><line x1="784.5" y1="0" x2="784.5" y2="378" fill="rgb(0, 0, 0)" stroke="rgb(60, 60, 60)" stroke-width="1px" opacity="0.25"></line><line x1="871.6666666666667" y1="0" x2="871.6666666666667" y2="378" fill="rgb(0, 0, 0)" stroke="rgb(60, 60, 60)" stroke-width="1px" opacity="0.25"></line><line x1="958.8333333333333" y1="0" x2="958.8333333333333" y2="378" fill="rgb(0, 0, 0)" stroke="rgb(60, 60, 60)" stroke-width="1px" opacity="0.25"></line><line x1="1046" y1="0" x2="1046" y2="378" fill="rgb(0, 0, 0)" stroke="rgb(60, 60, 60)" stroke-width="1px" opacity="0.25"></line></g><g><line x1="0" y1="378" x2="1046" y2="378" fill="rgb(0, 0, 0)" stroke="rgb(60, 60, 60)" stroke-width="1px" opacity="0.25"></line><line x1="0" y1="343.6363636363636" x2="1046" y2="343.6363636363636" fill="rgb(0, 0, 0)" stroke="rgb(60, 60, 60)" stroke-width="1px" opacity="0.25"></line><line x1="0" y1="309.27272727272725" x2="1046" y2="309.27272727272725" fill="rgb(0, 0, 0)" stroke="rgb(60, 60, 60)" stroke-width="1px" opacity="0.25"></line><line x1="0" y1="274.90909090909093" x2="1046" y2="274.90909090909093" fill="rgb(0, 0, 0)" stroke="rgb(60, 60, 60)" stroke-width="1px" opacity="0.25"></line><line x1="0" y1="240.54545454545453" x2="1046" y2="240.54545454545453" fill="rgb(0, 0, 0)" stroke="rgb(60, 60, 60)" stroke-width="1px" opacity="0.25"></line><line x1="0" y1="206.1818181818182" x2="1046" y2="206.1818181818182" fill="rgb(0, 0, 0)" stroke="rgb(60, 60, 60)" stroke-width="1px" opacity="0.25"></line><line x1="0" y1="171.81818181818184" x2="1046" y2="171.81818181818184" fill="rgb(0, 0, 0)" stroke="rgb(60, 60, 60)" stroke-width="1px" opacity="0.25"></line><line x1="0" y1="137.45454545454547" x2="1046" y2="137.45454545454547" fill="rgb(0, 0, 0)" stroke="rgb(60, 60, 60)" stroke-width="1px" opacity="0.25"></line><line x1="0" y1="103.09090909090907" x2="1046" y2="103.09090909090907" fill="rgb(0, 0, 0)" stroke="rgb(60, 60, 60)" stroke-width="1px" opacity="0.25"></line><line x1="0" y1="68.72727272727269" x2="1046" y2="68.72727272727269" fill="rgb(0, 0, 0)" stroke="rgb(60, 60, 60)" stroke-width="1px" opacity="0.25"></line><line x1="0" y1="34.363636363636374" x2="1046" y2="34.363636363636374" fill="rgb(0, 0, 0)" stroke="rgb(60, 60, 60)" stroke-width="1px" opacity="0.25"></line><line x1="0" y1="0" x2="1046" y2="0" fill="rgb(0, 0, 0)" stroke="rgb(60, 60, 60)" stroke-width="1px" opacity="0.25"></line></g></g></g><g><g><line x1="0" y1="343.6363636363636" x2="1046" y2="343.6363636363636" fill="rgb(0, 0, 0)" stroke="rgb(153, 153, 153)" stroke-width="1.5px"></line></g></g><g><g><line x1="87.16666666666666" y1="0" x2="87.16666666666666" y2="378" fill="rgb(0, 0, 0)" stroke="rgb(153, 153, 153)" stroke-width="1.5px"></line></g></g><g><g><g><g><g><path stroke="rgb(255, 112, 67)" stroke-width="2px" d="M88.1908227,337.9577367685058L89.10741506666668,335.58731492270124L89.72408436666666,333.31052728674626L91.11263193333333,329.87167354085466L91.39149553333334,327.11082557717464L91.50688676666667,324.2675308248898L92.31663023333334,325.73921071620987L93.4390231,324.5298425045215L93.51824016666666,323.88503960675496L94.6991393,324.28888029358427L96.43814916666666,323.698199667828L96.57955093333332,280.6723920124522L96.75027556666667,292.560533835973L96.87762606666666,300.33295802992086L98.56261003333333,300.4766005504785L99.86848873333334,305.88538406228065L100.13066863333334,298.0094288061353L100.15500556666666,283.7274055539883L101.34085576666666,288.3190297726203L101.4456824,303.2219585091469L102.46696193333334,295.35563469037993L102.53542263333333,292.82766366599213L102.56791836666666,298.09159300398164L102.7755145,305.4689470371264L103.64444413333334,310.242087419546L104.2994319,300.65891410044014L104.46986016666668,292.167824184943L105.49842683333334,291.32091405383267L105.82195463333333,283.7354806446658L105.90145063333333,272.13513583669226L106.5317528,243.64333261109974L107.7716812,273.4700865856547L109.06652460000001,288.5801079315903L109.5895246,286.13564081813706L111.1463387,292.1868860992853L111.1968082,262.20383632578825L111.41810693333333,281.09524359710827L111.57837156666666,292.9160285513455L111.61580093333333,287.5832109556239L111.94037473333333,297.843164628707L113.45247233333333,307.76677336868784L115.9332531,312.472303401626L117.39543906666667,307.2989209140213L118.1500932,302.2857356978184L118.7226213,312.1325430167202L119.73762483333334,311.55236727221796L120.63545893333334,313.52783312179844L121.61625826666668,312.4343017662194L121.68346376666668,307.08715493439325L121.70274503333334,275.81742180698524L124.28111759999999,293.791539978227L124.74953383333333,306.52779769379083L124.77296423333334,314.39200264447675L126.11191396666666,318.7551138815986L127.86244726666666,309.4391482558776L130.12417820000002,316.4384230828107L130.1478178,318.49409131036083L131.40721923333334,311.9629465894716L132.69407816666666,305.9387359019024L133.40047683333333,307.0321452561018L133.45136473333335,313.9957092467926L133.9614815,276.96046844885393L134.02605456666666,294.5514467918995L134.40505523333334,301.4712284001727L134.53122026666665,305.4807460368937L134.53859456666666,294.33051763813023L136.4198953,305.04892826906314L136.50448183333333,244.03743517244192L136.57881756666666,246.6543524581127L137.41326406666667,268.5298097843325L138.02112953333332,250.54035395198713L138.17832589999998,264.2316103176367L138.71108856666666,273.4051531648474L139.03758003333334,286.63898000204676L140.0180307,278.586111053513L142.01575123333333,260.69108171417236L143.5823803,273.97116787796296L143.77632613333333,260.9980298796653L143.9780821,221.70295444679772L145.28957433333332,226.17206948620498L146.81275953333335,250.5579274317604L147.6511808333333,220.642301063271L148.55033986666666,239.95604585874338L148.74252493333333,251.04589390318546L149.36719613333335,172.1736296757625L150.41497433333333,174.2519179094392L150.47215566666665,173.9007714953972L151.1620624,122.19699830595192L153.0957503,141.1576072338597L154.87782049999998,71.1525172905333L155.2728249666667,52.34849654153413L156.97546889999998,39.84373835849203L158.65532746666665,94.98162240407783L160.1705805,55.44246298878903L160.62602633333333,18.966915309919386L160.80431703333332,47.101308063237695L161.13004143333333,78.58823262514079L162.210542,116.77675473011374L162.8403909,97.77324870959478L163.43903413333334,68.69560788387122L163.8979317666667,109.20699853325686L165.21719926666668,114.26381787217355L165.2300825,116.95429801839248L165.8192245666667,130.95399471568743L166.70119433333335,47.96045356713887L166.9749674,69.92444053073075L168.31862413333334,47.336212905197215L168.4236774,70.10932901292699L169.7818038,-16.831235006350653L169.85357683333334,36.08548997402829L173.89030003333332,50.157307022358566L175.00749776666666,135.04377412194566L176.32488246666665,91.2989132324891L176.54405433333335,65.00572303382052L176.92657653333333,95.45177980223696L177.26816526666667,93.61893997384931L181.12293676666667,88.42637628844221L181.65428733333334,45.34867814011966L181.7543721,93.09140951801623L181.76261806666668,110.11855035752717L182.12725366666666,124.27206831793208L182.64129293333335,119.82003892000284L184.4875178,117.85296095603894L185.63752506666665,146.41237919175413L186.85599303333333,88.86244625561977L187.0626129,59.44079760955077L187.24627306666667,110.15389749717139L187.4020399,133.059193217985L188.90182956666666,114.60438768899189L188.92461493333332,87.37083324150234L191.08854486666667,65.15793015952329L195.29231426666666,100.51378053445683L195.83843086666667,88.55145873926438L196.21642039999998,113.1313673395058L196.22135403333334,125.27134578184408L196.82653476666667,159.06405390409847L197.43155860000002,155.72890170281065L197.59933700000002,181.15474252620302L198.82308726666665,171.41302311415487L200.05938953333333,172.85528096499507L200.61870316666668,159.21681737161063L200.79805729999998,178.59390805408103L201.15496993333332,157.6883536797719L201.6372108,160.93502439824846L202.72618396666667,147.08670509915416L203.00007906666667,109.21290528106118L204.1259586,147.98513327761222L204.68877633333332,143.15724866496487L209.2417877,172.40870751141233L209.24473393333335,133.3629382616747L210.7359464,135.14661472619207L213.41055096666668,111.4648798950081L213.59917963333334,142.63806084244476L213.65447816666665,140.28253608071768L213.94099500000002,116.67643048132743L216.49630326666664,91.27160924316433L216.646997,77.80688367001079L218.2070537,37.72945504775396L220.4397407,17.848099636651284L220.46303163333332,39.30763644325674L220.48578213333334,71.23969272799235L220.6088266,74.37527391926614L221.3286838,93.34377643291401L222.08590063333332,70.68804769790535L224.06864593333333,86.59363930433449L225.24222306666667,94.31482123629831L225.81673856666666,52.391517392213984L226.60014026666667,49.49113047261534L226.905642,106.52330307826912L228.07168793333332,95.88281185156683L229.73357273333332,103.27205046848405L229.84274026666665,101.35122972899973L231.8078779,151.93580150816513L233.6230017,108.95363955191613L235.00319869999998,74.51154717608483L235.24616706666666,89.19471822264313L235.36640476666665,135.57772914220402L236.64174026666666,146.95843412450478L237.4167391,82.83178925388876L237.53723829999998,110.66019644662038L237.86754766666667,121.91997370154598L244.4982637,45.20257258596229L245.86247433333332,31.515719618582807L246.7225827,65.32257319515543L247.6456254,112.80502164758417L247.669265,120.82654756219222L250.00845223333332,136.45141636080163L251.85218413333334,97.66077450742114L252.020625,54.198788618026924L257.43271616666664,90.49520721678118L258.4323435,98.59972782627347L258.4655017,54.717931899510575L260.5225827333333,90.38842775626125L262.42311243333336,84.08674102709222L262.50742003333335,95.26781388117007L262.9061901,54.586981164284396L263.1738266333333,81.72262521091079L263.19502556666663,95.7508839685986L264.60616673333334,101.81104805638552L266.9420765,71.50024841279975L267.3358083333334,3.4723909521986798L269.9349091333333,53.3206055710196L270.801032,81.86358949728594L270.99661656666666,89.31663048975332L271.4824312666667,111.09570373829894L272.87664466666666,123.4918190561119L272.9287529,118.95521394093589L273.5845949,141.98352951812595L274.0100554,104.35766601187879L276.60153783333334,71.90658749442309L276.68066773333334,83.59134359051484L277.56115566666665,89.71879627909806L278.3418203333333,102.57442931081596L278.6634304666666,117.01444664066662L278.66376169999995,164.4312357334234L279.05709256666665,125.72065564127033L279.7434429,131.80880544697365L280.24269869999995,98.57594759424512L282.35061533333334,43.29464914514796L282.5383549,54.044074435264406L284.0847438666667,92.9295893588681L284.37408489999996,103.46566626846362L284.4329747,121.15570976279827L284.74836113333333,144.26227521320322L285.56755346666665,93.21142639334721L285.8735433333333,109.45815847883057L286.23186806666666,122.2987598333921L286.69179426666665,72.04350691543829L286.8251244,94.56895738329393L286.85887533333334,79.52293529312448L287.3985241666667,118.45110685403074L288.5746117,112.44545548315705L288.66638076666663,113.09171089948012L290.85933719999997,88.80682444118844L292.11607133333337,104.27292814416086L292.11863403333336,116.61169910007516L292.55603636666666,106.76328729895664L293.2453678,126.84168778353771L294.00795409999995,69.90527227761106L294.2767935333333,90.29060297644105L296.9212558666666,66.13582890456132L297.5949670333334,91.9663473765836L297.67636326666667,105.35295385885587L297.78910463333335,104.52929183269185L299.59308853333334,38.45765584635251L302.5766466333334,50.18367276473617L302.67000213333336,69.31859443226813L302.8061913333333,56.24676044964406L303.16303423333335,80.87180650560413L303.61786989999996,107.14334923983262L303.8147096666667,47.465440557527074L303.9206346,52.946667885097725L304.11491166666667,61.8388894930992L307.85593066666667,49.523971901647826L309.49780200000004,84.20421919223605L311.48851433333334,80.71594717446578L313.41191656666666,92.96948491539729L314.3319607333333,94.75186410875096L318.97677603333335,105.95167180442849L319.16622406666664,138.8189561854625L320.28192253333333,90.06733265681191L321.651276,85.60029100005971L322.21751066666667,113.43653214675544L322.45566743333336,80.45550116394105L323.85652293333334,33.28906212581046L324.45699666666667,50.860086181847294L324.53244813333333,89.57767342708155L326.08612423333335,64.70465362234444L326.8584732,61.441556253107535L326.95592553333336,29.521735703879756L329.1867646,41.81886806028956L329.8857541,-25.55060435137068L332.31773896666664,36.35503372235189L333.3012404666667,18.07149947313502L333.46483486666665,-20.770979849366483L335.71525156666667,39.38574284821476L336.5397785,64.5874669658092L337.0732385,72.2965221078635L337.933312,98.66589793934526L338.0298055,90.85419942201003L338.45329603333334,57.363252699304155L338.6760068666667,39.934794964530965L338.8137302,76.72701900891428L339.1407621,43.556899895782806L339.9042375,54.77355352833433L340.23107763333337,83.54213896542251L340.8813758333333,44.98020239669847L341.0830446333333,65.0423382043765L341.5342716,28.45605214248559L341.67705060000003,49.477532056198925L343.7690680333334,40.61578212323468L343.98853626666664,2.2893149243536186L344.91926706666663,72.80797595356904L344.920592,74.68463454480883L346.21252403333335,108.65200668042093L346.2410972666667,126.05517842342474L346.33009443333333,115.96864172202362L346.3324130666667,151.17763590823634L347.6541038,187.3980328430486L347.7661304,153.9926101971067L348.83176033333336,121.94730499599393L349.2263638333333,103.22704790903987L349.3571138333333,107.79967704448507L350.4203902666667,113.80548891878533L351.16890786666664,128.62166185380136L351.2710149,105.40377360431302L351.5360887333334,99.5891793209463L351.70126956666667,123.23455926298902L352.13694599999997,98.03935241792306L352.19011766666665,90.40584005931868L354.15084466666667,94.95136473949299L354.32782786666667,114.23313563418986L354.6287620666667,101.3781909286318L356.3632044,123.0669078433119L357.1397025,119.99365547591788L357.6408759666666,88.89987134729614L358.4030613,79.21248584104819L359.57421519999997,74.52148959866742L359.8816171666667,44.65368182016908L359.9112887,76.82987624519984L361.5266962333333,122.904016708923L361.8788495666667,92.26140603864837L363.0069431333333,115.68056972237673L364.22239513333335,113.31871375253775L367.26949773333337,105.35514811652399L367.27608753333334,47.45921306813443L367.479151,78.21354351859276L367.8064444,24.50344925069311L368.48925576666664,69.29746985781111L369.0512715666667,39.83088420295013L369.0878815666667,54.25986190660234L369.2706526333333,66.73757871511725L371.9365231,94.14891486046236L372.1920434666667,71.44735700620998L372.68814383333336,32.70961439071556L373.8264359,74.61568143044985L375.2098232,119.33014560115652L375.9699688333334,113.26939723063356L376.7559506666667,125.43676810744532L377.19955926666665,97.69309543810886L377.32797320000003,128.42310227462843L378.8158036,116.38900658683406L380.3695668666667,121.24693922625926L380.68397703333335,53.88739783584873L381.5808,79.24998929133079L381.58749439999997,66.50928416595167L381.75469749999996,37.46943900487548L382.3755333666667,107.39646695988773L382.4077501666667,107.73432640396004L382.7691083,113.87729600439661L384.16924903333336,123.94437347166763L384.56386996666663,142.25838187469316L385.3302567333334,137.78027319608276L385.67977763333334,116.61991878242901L387.459843,105.24900749532083L389.2772157,109.83462982789206L389.9318373666667,61.93330269920324L390.4565632666667,34.690291886190096L390.59697133333333,51.410243774070295L392.7086187,40.423379180147094L392.8667739,-48.56860876676973L393.46381326666665,-17.554016697717145L395.59904793333334,38.51495482317773L400.4606641666667,86.99385732938691L400.55034123333337,76.1452562699688L402.5000852333333,47.10367847567096L402.519628,46.09283972866871L403.1786428666667,61.7078909071808L403.45471713333336,76.60810586277876L404.5620476,107.11872343643506L405.3508536333333,83.67261512098747L406.1022651666667,126.36341487559318L406.3445362,91.93828631049888L406.4222714333334,65.75220844456896L406.89393026666664,75.20988302794524L408.1425056,82.78733822380502L409.1726412666667,117.68272224525157L409.3423199,118.33273896848885L409.8854031,107.7691105095002L410.9724586,104.58483108369859L412.6745098,105.53833456330511L413.48632783333335,82.32988897151466L413.6567561,111.79062976352407L417.17119406666666,141.24045791681914L418.2099243666667,132.27424353199623L418.5041118666666,116.91389491569538L418.5622520333333,98.62994816656919L420.13716193333335,110.30805503580575L420.40940086666666,100.32145314421962L420.57852163333337,124.931223604394L421.93997779999995,138.49735263187466L422.1642925,162.9916245391079L424.3445051666667,169.49913850020923L425.2420777666667,158.264693026384L427.97304429999997,104.71705348118019L428.0951996666667,154.8550793100827L429.74592713333334,178.64858603403653L430.8136142,171.6704813129157L431.9157321,121.60938828615139L432.2976615666667,96.42944855674057L433.4198452333333,128.6841669922652L434.2089825,132.11542281942698L435.90203809999997,139.54717803858L436.44353486666665,136.37961020116646L438.1122361,144.598084446783L439.2101177,71.86753957742707L440.52215036666666,58.936390528904724L441.95916259999996,56.71884795037727L442.92249373333334,99.66133959298026L443.1232211333333,97.59689551659687L443.2505890666667,134.45890302373658L444.2541563333333,147.669121776955L444.2872622333333,169.4093315506146L444.65866196666667,158.38173958033767L445.0668809,163.9667698903923L445.1688136,128.90800473042236L445.215256,88.226586063573L446.00510803333333,119.586434752213L446.05224776666665,127.50812715048883L448.23983473333334,126.19427184804366L449.33928533333335,95.78348531397091L449.8475018666667,100.79406565904128L451.43308096666664,138.76076421481622L452.06849109999996,105.95013875460882L452.40362949999997,121.4702097619982L453.2438115666667,139.81378375237384L453.85746489999997,163.69753518006868L454.7912814,197.0149522506748L455.1545049,168.15104995813752L456.7091921333333,174.39559962376393L457.7446101,169.166496848122L458.286595,183.8140102692958L461.3782223333333,183.29053313273556L461.5949884,162.52285770617942L463.75782003333336,148.52664186980138L464.9073043,156.5002466519767L465.6934604666667,156.56231309544518L466.7808123333333,186.86393249754806L468.19343533333335,191.01666244375255L468.9289128,170.69508206930107L469.7831984333333,133.95788717104617L470.69334046666665,149.16718797584548L471.60224473333335,179.63748614338414L473.35722353333335,131.73539238183125L473.6297588333333,126.0427209415721L474.09440946666666,128.8824261939827L474.31061766666664,175.5894531709462L474.4842188,174.399315310216L475.2196265333333,149.36657331421466L477.1749666333333,102.48082433742792L477.2695424666667,126.89507474716555L478.0500502333333,143.57614001597952L479.17007216666667,157.7628782026475L479.8984542666667,197.13208858401967L480.3915038,143.24316132856788L480.91760693333333,162.0626936721407L481.60699066666666,175.8316534153095L483.1314136333333,178.84951514821796L484.2872087666667,176.06296978811625L485.96424313333335,180.2757484450244L487.20907029999995,187.21678937823845L488.0252989666667,164.727592825274L489.4770249333333,143.4256954254445L489.68748013333334,164.1757982811012L489.8043357666666,184.83884564013624L490.81506813333334,213.0074502320099L490.84130530000004,185.0576042944794L492.1146185333333,197.7657254628737L493.3899714666667,212.39506446348747L494.70280606666665,216.5116448105998L495.2876944,208.6576335815836L496.57917316666664,208.87332300853046L497.4520253,201.61497235819664L497.5836644,178.1522613773425L497.83932423333334,182.1223472882752L498.7809334333333,196.16620136945832L499.1938768,228.97190236727937L500.73705803333337,166.87421984915622L502.2938547,185.07502714389645L505.8470295333333,150.31994675481045L507.1732355,169.8472976704733L507.51583536666664,178.53313054292448L508.45688670000004,196.00304847096288L508.9379072333333,212.94230237900328L509.05246166666666,187.01767555165844L510.7008356333333,178.55554461488623L511.30202413333336,204.65615393470878L512.4044035333334,217.5700496994705L513.2211900666666,224.8579379742566L513.6692964666667,238.2905924638697L513.8625798333333,216.41641653844698L516.4514298333333,221.77302289115235L516.503817,201.10031109353375L518.479188,220.6066363520542L519.3230485,220.66386454397067L520.1229595666667,226.90336884803656L522.2987964666667,237.90104192344594L524.3416170333333,232.24401316010452L524.6338694333333,214.25253887750802L525.4210541666666,201.38539374609377L525.9300029,207.35733011209717L527.4456046,214.62547164791349L527.5679168666667,188.6768110524355L531.1469278999999,216.09274271638895L531.2819316333333,208.86046900241416L531.7384060333333,204.30608298170418L532.458978,230.71582889322062L532.7571925999999,217.60457709778427L533.5842473666668,206.79156997249336L533.9141557666667,204.56944386032706L534.3606234333333,207.78284416986725L534.8657368333334,230.82143828778123L535.0673882,209.22523390412073L535.0753203666667,216.8628872539548L536.1105988666667,224.23741329456152L538.4460727999999,200.83555551235926L541.7539606333333,226.53037761477748L542.9764034,226.26318572386248L543.8325718333333,207.7265757423453L545.0653002666667,209.97220639705625L546.3342726000001,218.75870565475094L546.60299,195.36076635605193L546.6918999999999,203.78894204407771L547.7705875,218.68016794140135L548.9887068,237.53962802397388L549.3482518666666,227.69459958216223L551.110204,229.02147377878285L552.7805091,235.31956000482407L553.6981997666667,215.7970750531874L554.0963771,230.45530625156132L555.5627296333333,221.88456762253549L556.7523454333333,237.26638579835262L556.9402419,250.31894642069526L557.3764413333333,250.6974273949864L557.408693,248.39191110312953L558.1769451333333,238.18674011294416L559.1270966666667,258.6793057983074L559.3357736666667,263.0456331421814L560.3098611666667,258.57449179534854L560.4761926,256.06443856309335L560.5877136333334,226.08683666080523L561.4327770333333,220.73651885411584L562.4724487333334,234.6749748195496L563.5796920333333,241.73632628840835L564.0178788666666,224.33138646990002L564.9203502333332,231.79330610221587L565.5584625333333,221.20275957630201L567.4463182000001,230.99710834227224L567.6584121333333,208.99744588582323L568.188769,201.8826222500664L570.2302123333334,204.79890744954932L573.1571992666667,219.4577497286019L574.8961568333334,233.64880039077772L575.4860136666667,226.43606402852294L575.5129307333334,226.3322836627525L580.6543694,224.9534444677265L582.3438860333333,242.64028674982757L582.9548720666667,258.2384434271132L583.2922419333332,239.74106138083627L583.4975891666667,231.1750076274797L584.0980280333333,252.86342732401312L585.0701455666666,244.2634921784877L586.2936517666667,219.52018179390902L586.9384236000001,221.4261274645734L587.6657771333333,158.3089843761384L591.4569692666666,162.94223304816842L592.1872341666666,181.51957233955443L593.1557778666667,194.15470983023522L594.3350731333334,233.12810555359766L594.4958084666667,224.88443051244536L594.6538067666667,251.82840664772712L595.4621381333333,246.88317987023365L597.8719652333333,251.32666966031047L598.1171650666666,267.0808207055712L598.5893120333334,251.6319348685776L598.7092708,247.63264618462424L599.0157139333334,253.58750462944244L599.0657999,251.97678606540737L599.5010404999999,242.72885345173887L599.8589119666666,245.08317050624063L603.2106969333333,253.29159573109035L603.7742817333333,263.32822604466674L604.5786731666667,236.41666007387698L605.3089206333333,249.84723432488263L606.4318888,242.46253298190356L606.5016395666667,258.5653069144695L606.9497982666667,276.4417560869363L607.0229485333333,284.8965947309027L607.2040808666667,269.60221309048364L608.6980826666667,241.39700755011316L609.3292042,260.1098333607175L610.9410204666666,254.49597285287294L611.6895206333332,234.6115204307512L611.9547164999999,242.57999965247149L612.5629306333333,259.0929179644926L613.5733840666667,260.4911566139339L614.1900882333333,240.13632209502495L614.7879121,218.9432563876191L615.4644300333333,244.12380513844636L615.7102400333333,251.87704020753515L616.0178163333334,260.29062384375936L617.2860913333333,245.89134870339473L617.5418732,246.92536538409072L617.9658693,268.69568815731765L618.5030077333333,206.62532776699356L618.6050450333333,221.32284916485702L620.1295551666667,241.88424832143508L620.7368104666667,250.57703669705143L621.2045468,236.61879715389534L621.6531413333333,233.49623884489958L621.9868676333333,213.87022193076345L623.3051065666666,247.11742292633028L623.6164310333334,231.46458156688323L624.3923015333334,247.66051264113537L624.5453836333334,246.92007880133383L625.2287703,255.42657415430216L625.9634981333334,230.9648569431983L626.2177807333333,224.56541842589547L627.2524839333333,240.36500005400583L627.4570292333334,250.445048241854L629.9025946666667,259.90690695802965L630.0597910333333,268.76294104357555L631.3545821333333,258.3364235970649L631.5985965,271.52254094939883L632.5268866333333,240.82660481977246L633.2019227333334,244.70333772471037L633.2130103333333,255.75995634104737L635.1260920333334,267.441704348632L635.2033217000001,265.1234193300654L635.9792270666667,269.8740680705956L637.3202862333334,236.83057837814616L637.4514720666667,247.47023974789047L638.4465667333333,269.993073450577L640.1287090666667,271.78424022943153L640.7873404000001,266.7838831803225L643.0259198666666,226.9486485560983L643.1624751666667,250.5436069935167L643.2645822000001,246.82451470367283L643.8814606999999,255.27655072450307L644.9664765,257.48919374175307L645.1459701,248.54961022393368L647.4843205333334,256.33848739928607L649.1182597,243.42460937821465L652.6112198,252.87892389663762L652.8318037666667,230.1158276753294L653.0540962,240.04255586062425L653.2151104666667,235.38694681316076L653.3576105333333,247.94386037776906L653.6725088333333,245.2412054617245L655.5887285333333,260.32136435979834L656.0047576000001,266.2434524191599L656.2918497333334,260.12374123673544L658.8784682666667,260.9334173896909L660.3979576,271.59741719684274L663.5150724666667,238.15802581165812L665.0405763,227.14148893226297L665.7395832333333,240.44340013426014L667.7214394333333,225.4301861224262L668.3746315666667,240.52813023369188L669.3769610666667,244.122920690042L669.6865770666666,259.0668340790643L670.2940415666666,251.5895796372246L670.5517934,264.62377362517475L670.8265427333333,268.8039175248946L670.8320865333334,264.35409798267136L670.8412216,262.4567929411309L671.4108557666666,253.90917358045226L672.270999,236.17484943524755L672.9739109999999,245.4572241073377L673.0213819666667,255.49021253488715L674.3322814666667,252.7824941507929L674.3795781,249.9892924978055L674.4880831666667,246.6124767687694L674.5086719333334,257.103285902709L675.0368496333333,258.6811937144492L677.3520834666666,262.7496706104389L678.7424441000001,262.926732481703L679.4478316333334,253.1549578662912L680.7804182,268.74009403379506L681.2013286,269.2162276141802L681.5090443666667,269.427879729935L681.6878929333333,272.7418844694307L682.0211310999999,258.94992540933066L683.4955378333333,264.1297225698726L683.7743665666667,184.86318219138204L684.5737895,209.60867788616267L688.3119494333333,248.00858257925395L688.4175257,260.3270712429148L690.6235397,274.4593755346671L692.6947766,278.0684352059987L692.8424369333333,290.4350299051572L693.2100013333333,265.1259528296799L693.7531891333333,277.4336638151175L695.1443865666666,274.5938357346937L696.0422729666667,266.2000515795325L696.5856874000001,276.59156682980233L696.8967329333333,274.0192588068214L697.9463242,232.58383242254277L698.1824238333332,226.52630311771577L699.0323685666667,236.93509238837404L699.1652803,258.8957595633706L699.7897945999999,260.997477398567L700.1620311333332,263.45529844808465L700.4011990333333,261.2148810445865L702.0070879666667,255.7590942123565L702.5642921666666,267.44743991510086L703.0956601666667,272.69649162226165L703.8606871333334,283.05215785593646L704.0681961,238.5150662631335L704.8333625333333,249.0621290557816L705.5053478,255.62874164952785L706.0384591333333,268.62495046665094L706.2881393333333,247.2071583140482L706.3829940999999,255.64607212410453L706.9774707666667,268.4338125207895L708.4892022666667,268.5966145277436L708.5236331,265.8916813985032L708.8489565333333,267.5721860116761L710.6665558666666,283.90362295912854L711.5742049333334,271.5742710544189L711.9904083333332,265.3702320773424L712.1954592,265.98317263402305L713.2247057666666,274.0101313854648L713.5638189666666,235.87158585309615L713.8397712000001,233.1897906606392L714.0448918,246.5536098263207L715.9102410333334,259.1373899069535L716.3945913333333,258.05373434672674L717.4667413333333,264.8824139686872L717.9952677,238.78855253770647L718.0976711,257.46392453402916L718.8878195,203.6012518165312L719.5008626666668,234.92861415546494L720.0518083,253.68919404724238L720.3986619,259.91897500003955L720.7385595999999,270.5695031821193L722.2792304333333,271.523414926822L722.8817613,279.10177345969703L724.0265037,279.2564493671779L725.8712641666667,269.38738690296606L726.3364203666666,281.36086706859294L726.6965930333333,282.77271691342196L729.4235673333333,282.3747620935765L730.0446124,291.5058099178336L730.8156538666667,289.49933902798176L731.3562789666667,269.3385844556629L731.5333144666668,233.09590410107663L732.8540638000001,249.55731406431698L733.5754202666666,268.4999477044205L733.9389401333333,271.38194453353265L736.6569013999999,276.1526726159076L737.4575795333333,285.5303693988043L737.4968219666667,254.11156773220029L738.3339357666666,271.50715311448994L738.4407846666667,254.01800341654553L740.8696315333333,252.3589952012279L741.7809939,267.0959645500192L741.9715402333333,272.9546286685602L744.9087954,270.6617186018375L745.2632150666666,265.30303894516567L746.3349815333333,270.5383199872776L746.7486571000001,283.22106589969854L747.4314684666666,281.172318096088L748.1871163,279.3813556230281L749.6765854333332,270.4928110933215L749.6944371666666,281.1065069407496L749.8152850333333,285.54790149208094L750.9543093,290.0407020172412L752.3524277666667,282.53861039297306L754.2578910999999,291.87838048478784L756.2796347666667,279.49891171788573L756.4639748333333,263.9923368482641L757.2086745333334,264.5390884381932L757.2628573333334,273.28311633265247L757.3243970000001,261.099177459781L759.1737424333332,247.72062269443552L759.6685353,237.25084987745342L760.1178794666666,258.68497471057407L760.8179672666666,264.4531518310164L765.9341450333334,272.2575379620271L766.4140847,277.4092820282039L766.8546076,288.0601442908581L767.5694963,294.2661470478703L767.7345725333333,266.14993767177634L768.0039872666666,264.50630917039314L769.1612293666667,242.707102728299L769.428186,265.1262538279473L770.1678649,206.3673527148592L771.2069438666666,218.9393645014519L771.2490104999999,251.0823433678134L771.7307806666668,270.4744257530766L772.7100633,283.7669212710488L773.1155103333333,287.6490803263832L773.7538841333333,266.2004039370187L774.1731209333333,267.0277769094968L774.3332112333334,262.82990779220466L774.3400799666667,258.0970635496126L775.9456202333333,264.8177059309483L779.7546292333333,278.3944542428841L780.8874298,271.94075883210184L780.9435302666666,283.0846014957998L782.2598689666667,275.93436028282815L782.6691164666668,268.60565796490727L782.9574289333333,266.0760705324511L784.0180032,274.46689926915553L785.8861243333333,285.9786674698185L786.4333392333333,283.6075308416101L787.6239836,275.77512041564387L787.7446397,273.54582925178335L787.941863,279.4753796138086L790.1296591666667,284.46949748264063L791.3654907333333,280.60190249612623L791.8100756,285.2297819985247L792.3325700333334,270.2016323494166L792.9501284333334,272.54096849268L796.0370487666667,279.6425690231315L796.0577944333334,285.06719076066406L800.0446583,264.0624443648734L803.2813309666667,249.87617528841315L803.7723931,253.89295292792517L804.2150603,244.36006513610522L807.1570050333333,264.0015846041795L807.9568812333333,282.2789954414559L809.0558611333333,272.9524055392987L809.2759221,277.3728714075192L811.5663134333332,283.23292528147886L811.6208449000001,283.1840845953927L811.6731623333333,272.92232757441866L815.2742788333334,242.07602494736113L815.4241532000001,264.92203134817186L816.0717143666667,257.2711042251074L816.1706311,253.63856684373033L816.6032044,278.1677810946748L819.7257933333334,287.67392328541985L821.8594764333333,228.4633530501759L822.7922469333333,254.79790096806718L823.6241481666667,273.90411950165554L825.3014614666668,280.9063417841953L826.1121288999999,284.29490051285563L829.1825398666666,279.07934478075805L830.8709582,266.26658495267225L831.1591660666667,264.10482722629195L831.8901108666668,238.64869518886908L835.1818728666666,247.6115132732391L835.2625194666666,271.0462893344879L836.3996783666668,271.7059083281708L837.0636966000001,282.27821559085777L838.462094,286.54094163402516L838.8972299999999,282.59864138151875L840.0759674,259.65952605358166L840.4591869333334,280.5067870540323L840.9127848333333,282.22341219269106L841.5738917,260.9204417296494L843.0973209666668,245.08349970964244L844.1036775666666,261.86864327726806L844.4732816666667,262.24139845193434L845.5865569,247.64846653614862L845.8185597,267.86156849840484L845.8953709666666,260.9659065184654L846.1803885333333,239.52517034332465L847.3631879000001,258.0881584009938L848.1226013333333,269.3154917605115L848.6105428999999,275.8008342034238L848.8145652000001,282.64862863970234L850.5967574333333,279.5909418020881L851.1058456333333,273.8825668665312L853.0490172666666,276.6930526272707L853.6469457333333,269.94610300247655L855.8499437666667,285.9349758193887L857.4811459,253.07199394500236L858.704809,267.84024027139264L859.3027026,231.30241322661178L860.4367235,248.92113560416053L861.1968168333334,248.51445161090942L861.7328569666666,266.8279915152101L862.9560145,266.2991360581961L864.5282745333334,282.06205901084985L864.6839019,294.16261255869273L866.2849792333334,299.27377873627654L867.1881653666666,300.45291436458257L867.9127993000001,295.71954673213895L868.2612044666666,295.37791571753377L868.8121675333334,288.0793989198363L869.0097917999999,253.8585251800934L869.0344076666667,252.65378982673946L869.195666,261.1526673855345L869.2890912333334,259.8968828160198L869.2982960333334,269.81030131700334L871.0421174999999,275.30209965193797L872.6604887000001,282.5274235408576L873.3378434333333,294.15374494038815L874.5560150333333,306.34174671003535L875.5863424666667,224.63643188721616L875.7823977333333,225.3096746390047L875.8274977666666,243.3459578255892L876.153135,238.39228486852693L876.3732308333334,253.9352673954342L878.3369738,270.9947692986635L878.3400769333333,243.31009500676603L878.4873537333333,266.6218637726504L879.6887544666668,268.4838434756874L880.1515223,282.9127570786902L880.7057454,273.5275821425L880.8842976000001,276.58534748940184L881.6682397333334,275.9201735385297L881.9818305333333,272.1098086671852L882.974624,283.8731248628283L883.7949669333333,285.80223757333664L884.0397483666667,264.335442025758L884.5994629666667,239.88966194674478L884.7906543333334,255.27024896726616L885.0438735,217.02838670862897L885.9793810333334,216.5973671220568L889.0300923333333,242.92348387117332L889.9173967,260.4421925073464L890.0671316,277.4096426507646L892.1119744333333,274.0175814354905L893.0844754999999,281.302637525956L895.0235851666666,290.1020707517408L896.1915487666666,283.05425264252847L896.2829691666666,231.01438544227312L896.4210934666667,244.77455320486692L897.2439642333333,268.22105439349843L897.6872939000001,263.94696405491675L897.9194013,268.9356566302212L898.2201785999999,278.3917219397943L899.0527771666667,280.0334370685314L899.9159189333333,287.6375927604309L900.8201510666667,291.2286603735132L901.1143908666667,263.2627122312712L903.1137152666666,264.11791582004156L905.3922519333333,268.38681443065684L906.071873,272.0764920206683L906.1190127333333,278.95462665563275L906.5195435666667,270.7261078886877L907.3956906,274.2540115283814L908.1559757,261.6668820979149L908.6260829666667,224.07958759948042L908.7542354,259.1661632076874L909.7139927000001,273.45656918274125L910.1824961,284.1997793905596L910.5875770333333,256.0574321373986L910.8792367,264.3736809420128L911.2044032333333,248.45004077609525L911.2532514333333,199.30374514103886L912.7933121000001,238.064129448723L913.0591878666667,265.68766493064186L913.2660692333333,264.9787984691328L913.4717302666667,249.20744353654672L913.711334,273.4433935183555L915.1319240333333,271.29558707953026L915.2266741999999,285.4320098717028L916.6145941666667,276.3907541456502L919.2185588666666,264.5666674497425L920.4842188666667,277.8933441907151L921.7779290999999,276.3682093911269L922.5001746666666,280.16950299534955L922.9487343333333,273.9842466961966L925.2996890666667,276.85580851472446L925.8285641,287.1104181789308L925.9853246333333,279.29996136975524L928.6349646666666,291.66209426233695L929.2186326666667,262.8050227955281L929.3415899666667,264.45922037009916L929.4825559000001,271.7248600984106L929.8236390666667,282.626784685034L931.2979237666667,270.950862701945L932.6220203,281.1518179058128L933.3548827666667,292.80669924058714L933.7634852333333,301.8530227448833L933.7663791666666,297.91063400381915L933.9636373333334,219.53219846758802L934.2078434666666,257.75386975603163L934.5813875,264.55894198329094L935.1728482,260.6442049879482L935.2515248333333,283.71471099596215L936.0610242333333,283.56319795627536L939.9550904666667,231.9863817975578L940.1883484666666,250.58126782906183L940.7268118333333,241.0481328676253L942.0177327333333,264.59450159078943L943.6993869333334,281.4948723845413L944.5652831666666,282.4151506784831L944.6501312,233.72968022170943L948.8117119333333,245.70697058849774L948.9503592333333,275.7307388466844L949.8283716333334,288.6492533624429L950.3698684000001,291.27945842386833L951.4323603333332,292.19165196985387L951.9622639333334,297.5407555085281L952.3072696,306.262658096446L952.6127364666667,292.79954305497233L952.9788539,286.09896116651277L956.3398436666668,258.61648746900613L956.5601138333333,272.9345674483892L957.2882344333334,287.60157532073197L957.8761910333334,265.93121560939255L957.9704879333333,228.34234322949382L958.2507462,243.84636298975371L958.8333333333333,256.9324941081195" style="fill: none;" fill="none"></path></g></g></g></g><g opacity="0.2"><g><g><g><path stroke="rgb(255, 112, 67)" stroke-width="2px" d="M88.1908227,337.9577367685058L89.10741506666668,334.1650618152185L89.72408436666666,331.12481115622955L91.11263193333333,325.82758153568614L91.39149553333334,323.506262475794L91.50688676666667,320.33423059636897L92.31663023333334,327.8437365076759L93.4390231,322.76657204194504L93.51824016666666,322.93408057906413L94.6991393,324.8885366483168L96.43814916666666,322.8175361589952L96.57955093333332,216.36782507462934L96.75027556666667,310.3539297255603L96.87762606666666,311.9763673327186L98.56261003333333,300.6918954849243L99.86848873333334,313.99474463679576L100.13066863333334,286.19882876222783L100.15500556666666,262.3079968799244L101.34085576666666,295.2057666128332L101.4456824,325.57498942721975L102.46696193333334,283.55658037012273L102.53542263333333,289.0357903133739L102.56791836666666,305.9873830838637L102.7755145,316.53489069505173L103.64444413333334,317.4017640677365L104.2994319,286.2841949896379L104.46986016666668,279.4312110380693L105.49842683333334,290.0505501573736L105.82195463333333,272.35733751817185L105.90145063333333,254.73462503606623L106.5317528,200.9056372209029L107.7716812,318.21021161296153L109.06652460000001,311.24513814666057L109.5895246,282.46894032304937L111.1463387,301.2637537609447L111.1968082,217.2292624386874L111.41810693333333,309.43235421180725L111.57837156666666,310.6472058729692L111.61580093333333,279.5839845917442L111.94037473333333,313.23309510404414L113.45247233333333,322.65218645876104L115.9332531,319.53059844537216L117.39543906666667,299.5388471863487L118.1500932,294.7659578756853L118.7226213,326.9027539925142L119.73762483333334,310.682103655555L120.63545893333334,316.4910318959843L121.61625826666668,310.79400473291224L121.68346376666668,299.06643468683416L121.70274503333334,228.912822116505L124.28111759999999,320.7527172348716L124.74953383333333,325.63218426704407L124.77296423333334,326.18831007047135L126.11191396666666,325.29978073727L127.86244726666666,295.4651998173107L130.12417820000002,326.9373353232037L130.1478178,321.5775936516849L131.40721923333334,302.16622950813985L132.69407816666666,296.90241987055L133.40047683333333,308.67225928740066L133.45136473333335,324.4410552328283L133.9614815,221.40760725194758L134.02605456666666,320.93791430646723L134.40505523333334,311.85090081258255L134.53122026666665,311.49502249197525L134.53859456666666,277.60517503998494L136.4198953,321.12654421546245L136.50448183333333,152.5201955275102L136.57881756666666,250.57972838661885L137.41326406666667,301.3429957736622L138.02112953333332,223.556170203469L138.17832589999998,284.76849486611104L138.71108856666666,287.1654674356634L139.03758003333334,306.48972025784576L140.0180307,266.50680763071233L142.01575123333333,233.84853770516136L143.5823803,293.8912971236489L143.77632613333333,241.5383228822188L143.9780821,162.76034129749644L145.28957433333332,232.87574204531583L146.81275953333335,287.1367143500935L147.6511808333333,175.76886151053688L148.55033986666666,268.926663051952L148.74252493333333,267.68066596984863L149.36719613333335,53.865233334628044L150.41497433333333,177.3693502599543L150.47215566666665,173.37405187433419L151.1620624,44.64133852178401L153.0957503,169.59852062572133L154.87782049999998,-33.85511762445623L155.2728249666667,24.14246541803533L156.97546889999998,21.086601083928883L158.65532746666665,177.68844847245649L160.1705805,-3.8662761341441296L160.62602633333333,-35.74640620838517L160.80431703333332,89.30289719321507L161.13004143333333,125.81861946799538L162.210542,174.05953788757324L162.8403909,69.26798967881638L163.43903413333334,25.079146645285903L163.8979317666667,169.9740845073353L165.21719926666668,121.84904688054866L165.2300825,120.99001823772085L165.8192245666667,151.95353976162997L166.70119433333335,-76.52985815568405L166.9749674,102.87042097611862L168.31862413333334,13.453871466896715L168.4236774,104.26900317452174L169.7818038,-147.24208103526723L169.85357683333334,115.46057744459671L173.89030003333332,71.26503259485418L175.00749776666666,262.37347477132624L176.32488246666665,25.681621898304343L176.54405433333335,25.565937735817613L176.92657653333333,141.12086495486173L177.26816526666667,90.86968023126775L181.12293676666667,80.63753076033157L181.65428733333334,-19.267869082364143L181.7543721,164.70550658486107L181.76261806666668,135.65926161679354L182.12725366666666,145.50234525853935L182.64129293333335,113.14199482310903L184.4875178,114.90234401009303L185.63752506666665,189.25150654532692L186.85599303333333,2.537546851418199L187.0626129,15.308324640447438L187.24627306666667,186.2235473286022L187.4020399,167.41713679920542L188.90182956666666,86.92217939550227L188.92461493333332,46.520501570268095L191.08854486666667,31.838575536554515L195.29231426666666,153.54755609685722L195.83843086666667,70.60797604647547L196.21642039999998,150.00123023986816L196.22135403333334,143.48131344535133L196.82653476666667,209.75311608748004L197.43155860000002,150.7261734008789L197.59933700000002,219.2935037612915L198.82308726666665,156.80044399608266L200.05938953333333,175.0186677412553L200.61870316666668,138.7591219815341L200.79805729999998,207.65954407778653L201.15496993333332,126.33002211830834L201.6372108,165.80503047596324L202.72618396666667,126.3142261505127L203.00007906666667,52.40220555392176L204.1259586,206.14347527243874L204.68877633333332,135.91542174599388L209.2417877,216.28589578108355L209.24473393333335,74.79428438706833L210.7359464,137.82212942296806L213.41055096666668,75.94227764823216L213.59917963333334,189.39783226359972L213.65447816666665,136.749248938127L213.94099500000002,81.26727208224207L216.49630326666664,53.16437738591975L216.646997,57.609795310280504L218.2070537,-22.38668788563126L220.4397407,-11.973933480002643L220.46303163333332,71.49694165316492L220.48578213333334,119.13777715509588L220.6088266,79.07864570617676L221.3286838,121.79653020338577L222.08590063333332,36.704454595392406L224.06864593333333,110.45202671397817L225.24222306666667,105.89659413424403L225.81673856666666,-10.493438373912511L226.60014026666667,45.140550093217314L226.905642,192.07156198674983L228.07168793333332,79.92207501151341L229.73357273333332,114.35590839385986L229.84274026666665,98.46999861977321L231.8078779,227.81265917691317L233.6230017,44.480396617542624L235.00319869999998,22.848408612338005L235.24616706666666,111.21947479248047L235.36640476666665,205.1522455215454L236.64174026666666,164.02949159795585L237.4167391,-13.35817805203527L237.53723829999998,152.40280723571777L237.86754766666667,138.80963958393443L244.4982637,-69.87352908741349L245.86247433333332,10.985440167513786L246.7225827,116.03285356001419L247.6456254,184.02869432622734L247.669265,132.85883643410423L250.00845223333332,159.88871955871582L251.85218413333334,39.47481172735041L252.020625,-10.994190216064453L257.43271616666664,144.93983511491254L258.4323435,110.75650874051183L258.4655017,-11.104761990633904L260.5225827333333,143.8941715413874L262.42311243333336,74.63421093333852L262.50742003333335,112.03942316228694L262.9061901,-6.43426791104406L263.1738266333333,122.4260912808505L263.19502556666663,116.79327210513026L264.60616673333334,110.90129418806595L266.9420765,26.034048947421013L267.3358083333334,-98.56939523870295L269.9349091333333,128.09292749925092L270.801032,124.67806538668546L270.99661656666666,100.49619197845459L271.4824312666667,143.76431361111727L272.87664466666666,142.08599203283134L272.9287529,112.15030626817185L273.5845949,176.52600288391113L274.0100554,47.918870752507985L276.60153783333334,23.229969718239488L276.68066773333334,101.11847773465246L277.56115566666665,98.90997531197291L278.3418203333333,121.8578788583929L278.6634304666666,138.67447263544258L278.66376169999995,235.5564193725586L279.05709256666665,67.65478550304067L279.7434429,140.94103015552867L280.24269869999995,48.72666081515223L282.35061533333334,-39.627298528497874L282.5383549,70.168212370439L284.0847438666667,151.25786174427378L284.37408489999996,119.2697816328569L284.4329747,147.6907750043002L284.74836113333333,178.9221233888106L285.56755346666665,16.635153163563132L285.8735433333333,133.82825660705566L286.23186806666666,141.55966186523438L286.69179426666665,-3.33937246149236L286.8251244,128.35713308507744L286.85887533333334,56.95390215787023L287.3985241666667,176.8433641953902L288.5746117,103.43697842684657L288.66638076666663,114.06109402396459L290.85933719999997,52.37949475375086L292.11607133333337,127.47208369861949L292.11863403333336,135.11985553394663L292.55603636666666,91.99066959727895L293.2453678,156.95928851040927L294.00795409999995,-15.499350981278837L294.2767935333333,120.86859902468592L296.9212558666666,29.903667796741843L297.5949670333334,130.71212508461693L297.67636326666667,125.4328635822643L297.78910463333335,103.29379879344594L299.59308853333334,-60.64979813315654L302.5766466333334,67.77269814231175L302.67000213333336,98.02097693356603L302.8061913333333,36.63900947570801L303.16303423333335,117.80937558954412L303.61786989999996,146.55066334117544L303.8147096666667,-42.05142246593124L303.9206346,61.16850887645376L304.11491166666667,75.17722190510142L307.85593066666667,31.051595514470876L309.49780200000004,136.22459012811836L311.48851433333334,75.48353914781052L313.41191656666666,111.34979152679443L314.3319607333333,97.42543289878148L318.97677603333335,122.75138334794477L319.16622406666664,188.11988275701347L320.28192253333333,16.93989736383611L321.651276,78.89972851493138L322.21751066666667,155.1908938667991L322.45566743333336,30.983954689719496L323.85652293333334,-37.46059643138534L324.45699666666667,77.21662226590246L324.53244813333333,147.65405429493296L326.08612423333335,27.3951239152388L326.8584732,56.54691019925207L326.95592553333336,-18.3579951199618L329.1867646,60.264566594904124L329.8857541,-126.60481296886093L332.31773896666664,129.2134908329357L333.3012404666667,-9.353801900690257L333.46483486666665,-79.03469883311874L335.71525156666667,129.6208268945867L336.5397785,102.39005314220083L337.0732385,83.86010482094508L337.933312,138.2199616865678L338.0298055,79.13665164600718L338.45329603333334,7.126832615245462L338.6760068666667,13.792108362371266L338.8137302,131.9153550754894L339.1407621,-6.198278773914637L339.9042375,71.59853397716176L340.23107763333337,126.69501712105492L340.8813758333333,-12.86270245638758L341.0830446333333,95.13554191589355L341.5342716,-26.4233769503507L341.67705060000003,81.0097519267689L343.7690680333334,27.3231572237882L343.98853626666664,-55.200385873967946L344.91926706666663,178.58596749739215L344.920592,77.49962243166834L346.21252403333335,159.603064883839L346.2410972666667,152.15993603793058L346.33009443333333,100.83883666992188L346.3324130666667,203.9911271875555L347.6541038,241.728628245267L347.7661304,103.88447622819382L348.83176033333336,73.87934719432485L349.2263638333333,75.14666227860886L349.3571138333333,114.65862074765295L350.4203902666667,122.8142067302357L351.16890786666664,150.84592125632545L351.2710149,70.57694123008031L351.5360887333334,90.86728789589625L351.70126956666667,158.70262917605314L352.13694599999997,60.246542150324046L352.19011766666665,78.95557152141225L354.15084466666667,101.76965175975454L354.32782786666667,143.15579197623512L354.6287620666667,82.09577387029475L356.3632044,155.59998321533203L357.1397025,115.38377692482692L357.6408759666666,42.259195154363454L358.4030613,64.68140758167613L359.57421519999997,67.48499523509633L359.8816171666667,-0.1480298475785844L359.9112887,125.0941678827459L361.5266962333333,192.01522740450773L361.8788495666667,46.29749003323644L363.0069431333333,150.80931524796918L364.22239513333335,109.77592979777944L367.26949773333337,93.4097996625033L367.27608753333334,-39.38468950445002L367.479151,124.34503919428047L367.8064444,-56.061692151156365L368.48925576666664,136.48850076848808L369.0512715666667,-4.36899427934128L369.0878815666667,75.90332846208054L369.2706526333333,85.45415392788976L371.9365231,135.26591907848012L372.1920434666667,37.395020224831285L372.68814383333336,-25.396999532526195L373.8264359,137.47478199005127L375.2098232,186.40184185721657L375.9699688333334,104.17827467484909L376.7559506666667,143.68782442266289L377.19955926666665,56.07758643410426L377.32797320000003,174.51811252940786L378.8158036,98.33786305514246L380.3695668666667,128.53383818539706L380.68397703333335,-47.151914249767L381.5808,117.29387647455388L381.58749439999997,47.39822647788304L381.75469749999996,-6.090328736738741L382.3755333666667,212.28700889240613L382.4077501666667,108.24111557006836L382.7691083,123.0917504050515L384.16924903333336,139.04498967257413L384.56386996666663,169.7293944792314L385.3302567333334,131.0631101781672L385.67977763333334,84.8793871619485L387.459843,88.19264056465846L389.2772157,116.71306332674891L389.9318373666667,-9.918687993829906L390.4565632666667,-6.174224333329619L390.59697133333333,76.49017160589045L392.7086187,23.943082289262236L392.8667739,-182.05659068714488L393.46381326666665,28.96787140586156L395.59904793333334,122.61841210451993L400.4606641666667,159.71221108870074L400.55034123333337,59.872354680841624L402.5000852333333,3.541311784224092L402.519628,44.576581608165384L403.1786428666667,85.13046767494899L403.45471713333336,98.9584282961759L404.5620476,152.88464979691938L405.3508536333333,48.50345264781606L406.1022651666667,190.39961450750178L406.3445362,40.30059346285731L406.4222714333334,26.473091645674288L406.89393026666664,89.3963949030096L408.1425056,94.15352101759476L409.1726412666667,170.02579827742144L409.3423199,119.30776405334473L409.8854031,91.9236678210172L410.9724586,99.80841194499624L412.6745098,106.96858978271484L413.48632783333335,47.51722058382899L413.6567561,155.9817409515381L417.17119406666666,185.4152001467618L418.2099243666667,118.82492195476186L418.5041118666666,93.87337199124426L418.5622520333333,71.20402804288L420.13716193333335,127.82521533966064L420.40940086666666,85.34155030684036L420.57852163333337,161.84587929465553L421.93997779999995,158.8465461730957L422.1642925,199.73303239995784L424.3445051666667,179.26040944186124L425.2420777666667,141.41302481564608L427.97304429999997,24.395594163374483L428.0951996666667,230.06211805343628L429.74592713333334,214.33884611996737L430.8136142,161.20332423123446L431.9157321,46.517748746005L432.2976615666667,58.659538962624254L433.4198452333333,177.0662446455522L434.2089825,137.26230656016958L435.90203809999997,150.69481086730957L436.44353486666665,131.62825844504616L438.1122361,156.92579581520775L439.2101177,-37.228277726606905L440.52215036666666,39.539666956121266L441.95916259999996,53.39253408258611L442.92249373333334,164.07507705688477L443.1232211333333,94.50022940202194L443.2505890666667,189.75191428444603L444.2541563333333,167.48444990678266L444.2872622333333,202.01964621110395L444.65866196666667,141.8403516249223L445.0668809,172.34431535547432L445.1688136,76.31985699046743L445.215256,27.204458063299L446.00510803333333,166.6262077851729L446.05224776666665,139.3906657479026L448.23983473333334,124.22348889437589L449.33928533333335,50.16730551286179L449.8475018666667,108.30993617664683L451.43308096666664,195.71081204847857L452.06849109999996,56.73420056429774L452.40362949999997,144.75031627308238L453.2438115666667,167.32914473793724L453.85746489999997,199.5231623216109L454.7912814,246.99107785658404L455.1545049,124.85519651933149L456.7091921333333,183.76242412220347L457.7446101,161.3228426846591L458.286595,205.78528040105647L461.3782223333333,182.50531742789528L461.5949884,131.37134456634521L463.75782003333336,127.53231811523438L464.9073043,168.4606538252397L465.6934604666667,156.65541276064786L466.7808123333333,232.31636160070246L468.19343533333335,197.2457573630593L468.9289128,140.21271150762382L469.7831984333333,78.85209482366389L470.69334046666665,171.98113918304443L471.60224473333335,225.34293339469215L473.35722353333335,59.88225173950195L473.6297588333333,117.50371378118342L474.09440946666666,133.14198407259855L474.31061766666664,245.64999363639137L474.4842188,172.61410851912066L475.2196265333333,111.81746032021266L477.1749666333333,32.152200872247874L477.2695424666667,163.51645036177203L478.0500502333333,168.59773791920054L479.17007216666667,179.04298548264936L479.8984542666667,256.185904156078L480.3915038,62.409770445390166L480.91760693333333,190.2919921875L481.60699066666666,196.4850930300626L483.1314136333333,183.3763077475808L484.2872087666667,171.88315174796364L485.96424313333335,186.59491643038663L487.20907029999995,197.6283507780595L488.0252989666667,130.9937979958274L489.4770249333333,111.47284932570022L489.68748013333334,195.3009525645863L489.8043357666666,215.83341667868874L490.81506813333334,255.26035711982036L490.84130530000004,143.1328353881836L492.1146185333333,216.82790721546522L493.3899714666667,234.3390729644082L494.70280606666665,222.6865153312683L495.2876944,196.8766167380593L496.57917316666664,209.19685714895076L497.4520253,190.72744638269597L497.5836644,142.95819490606132L497.83932423333334,188.07747615467417L498.7809334333333,217.23198249123314L499.1938768,278.1804538640109L500.73705803333337,73.72769607197154L502.2938547,212.37623808600685L505.8470295333333,98.18732617118138L507.1732355,199.13832404396751L507.51583536666664,191.56187985160133L508.45688670000004,222.20792536302045L508.9379072333333,238.3511832410639L509.05246166666666,148.1307353106412L510.7008356333333,165.86234820972788L511.30202413333336,243.80706791444257L512.4044035333334,236.9408933466131L513.2211900666666,235.78977038643578L513.6692964666667,258.43957419828934L513.8625798333333,183.60515265031293L516.4514298333333,229.8079324202104L516.503817,170.0912433971058L518.479188,249.86612423983487L519.3230485,220.74970683184537L520.1229595666667,236.2626253041354L522.2987964666667,254.39755153656006L524.3416170333333,223.75847001509234L524.6338694333333,187.26532745361328L525.4210541666666,182.0846760489724L525.9300029,216.3152346611023L527.4456046,225.52768395163795L527.5679168666667,149.75382015921852L531.1469278999999,257.21664021231913L531.2819316333333,198.01205843145198L531.7384060333333,197.47450395063922L532.458978,270.33044776049525L532.7571925999999,197.9376994046298L533.5842473666668,190.572059284557L533.9141557666667,201.23625469207764L534.3606234333333,212.60294463417748L534.8657368333334,265.3793294646523L535.0673882,176.83092732862994L535.0753203666667,228.31936727870593L536.1105988666667,235.29920235547152L538.4460727999999,165.73276883905586L541.7539606333333,265.0726107684049L542.9764034,225.86239788749L543.8325718333333,179.92166077006948L545.0653002666667,213.34065237912264L546.3342726000001,231.93845454129305L546.60299,160.26385740800336L546.6918999999999,216.43120557611638L547.7705875,241.0170067873868L548.9887068,265.8288181478327L549.3482518666666,212.9270569194447L551.110204,231.0117850737138L552.7805091,244.76668934388593L553.6981997666667,186.51334762573242L554.0963771,252.4426530491222L555.5627296333333,209.0284596789967L556.7523454333333,260.3391130620783L556.9402419,269.8977873542092L557.3764413333333,251.26514885642314L557.408693,244.93363666534424L558.1769451333333,222.87898362766614L559.1270966666667,289.41815432635224L559.3357736666667,269.5951241579923L560.3098611666667,251.86777977509934L560.4761926,252.2993587147106L560.5877136333334,181.12043380737305L561.4327770333333,212.7110421440818L562.4724487333334,255.5826587677002L563.5796920333333,252.32835349169642L564.0178788666666,198.22397674213758L564.9203502333332,242.9861855506897L565.5584625333333,205.3169397874312L567.4463182000001,245.6886314912276L567.6584121333333,175.99795220114967L568.188769,191.2103867964311L570.2302123333334,209.17333524877375L573.1571992666667,241.44601314718074L574.8961568333334,254.93537638404155L575.4860136666667,215.6169594851407L575.5129307333334,226.1766131140969L580.6543694,222.88518567518756L582.3438860333333,269.1705501729792L582.9548720666667,281.63567844304174L583.2922419333332,211.99498831142077L583.4975891666667,218.32592699744484L584.0980280333333,285.3960568688133L585.0701455666666,231.36358946019953L586.2936517666667,182.40521621704102L586.9384236000001,224.28504597056994L587.6657771333333,63.63326974348587L591.4569692666666,169.89210605621338L592.1872341666666,209.38558127663353L593.1557778666667,213.10741606625643L594.3350731333334,291.58819913864136L594.4958084666667,212.51891795071688L594.6538067666667,292.2443708506497L595.4621381333333,239.46533970399335L597.8719652333333,257.99190434542567L598.1171650666666,290.7120472734625L598.5893120333334,228.45860611308703L598.7092708,241.63371315869418L599.0157139333334,262.5197922966697L599.0657999,249.5607082193548L599.5010404999999,228.85695453123614L599.8589119666666,248.6146460879933L603.2106969333333,265.6042335683649L603.7742817333333,278.3831715150313L604.5786731666667,196.04931111769244L605.3089206333333,269.99309570139104L606.4318888,231.38548096743497L606.5016395666667,282.71946781331843L606.9497982666667,303.25642984563655L607.0229485333333,297.57885269685227L607.2040808666667,246.66064062985507L608.6980826666667,199.08919923955744L609.3292042,288.1790720766241L610.9410204666666,246.0751820911061L611.6895206333332,204.7848417975686L611.9547164999999,254.53271848505193L612.5629306333333,283.86229543252426L613.5733840666667,262.5885145880959L614.1900882333333,209.6040703166615L614.7879121,187.15365782651034L615.4644300333333,281.8946282646873L615.7102400333333,263.5068928111683L616.0178163333334,272.9109992980957L617.2860913333333,224.29243599284777L617.5418732,248.4763904051347L617.9658693,301.3511723171581L618.5030077333333,113.51978718150747L618.6050450333333,243.36913126165217L620.1295551666667,272.72634705630213L620.7368104666667,263.6162192604759L621.2045468,215.68143783916125L621.6531413333333,228.81240138140592L621.9868676333333,184.43119655955923L623.3051065666666,296.9882244196805L623.6164310333334,207.98531952771273L624.3923015333334,271.9544092525135L624.5453836333334,245.80942804163152L625.2287703,268.1863171837547L625.9634981333334,194.27228112654254L626.2177807333333,214.96626064994118L627.2524839333333,264.0643724961714L627.4570292333334,265.56512052362615L629.9025946666667,274.09969503229314L630.0597910333333,282.04699217189443L631.3545821333333,242.6966474272988L631.5985965,291.30171697789973L632.5268866333333,194.78270062533292L633.2019227333334,250.51843708211726L633.2130103333333,272.3448842655529L635.1260920333334,284.96432636000895L635.2033217000001,261.6459918022156L635.9792270666667,277.00004118139094L637.3202862333334,187.26534383947197L637.4514720666667,263.42973180250686L638.4465667333333,303.7773240046068L640.1287090666667,274.4709903977134L640.7873404000001,259.28334760665894L643.0259198666666,167.19579661976206L643.1624751666667,285.9360446496443L643.2645822000001,241.24587626890704L643.8814606999999,267.9546047557484L644.9664765,260.8081582676281L645.1459701,235.1402349472046L647.4843205333334,268.02180316231465L649.1182597,224.05379234660754L652.6112198,267.060395674272L652.8318037666667,195.97118334336713L653.0540962,254.93264813856644L653.2151104666667,228.40353324196556L653.3576105333333,266.7792307246815L653.6725088333333,241.1872230876576L655.5887285333333,282.9416027069092L656.0047576000001,275.1265845082023L656.2918497333334,250.9441744630987L658.8784682666667,262.147931619124L660.3979576,287.5934169075706L663.5150724666667,187.99893873388115L665.0405763,210.6166836131703L665.7395832333333,260.39626693725586L667.7214394333333,202.9103651046753L668.3746315666667,263.17504640059036L669.3769610666667,249.5151063745672L669.6865770666666,281.48270416259766L670.2940415666666,240.3736979744651L670.5517934,284.17506460710007L670.8265427333333,275.0741333744743L670.8320865333334,257.6793686693365L670.8412216,259.61083537882024L671.4108557666666,241.08774453943425L672.270999,209.57336321744052L672.9739109999999,259.380786115473L673.0213819666667,270.5396951762113L674.3322814666667,248.72091657465154L674.3795781,245.7994900183244L674.4880831666667,241.54725317521527L674.5086719333334,272.83949960361826L675.0368496333333,261.0480554320595L677.3520834666666,268.85238595442337L678.7424441000001,263.1923252885992L679.4478316333334,238.4972959431735L680.7804182,292.1177982850508L681.2013286,269.93042798475784L681.5090443666667,269.74535790356725L681.6878929333333,277.7128915786743L682.0211310999999,238.26198681918058L683.4955378333333,271.8994183106856L683.7743665666667,65.96337162364614L684.5737895,246.7269214283336L688.3119494333333,305.60843961889094L688.4175257,278.8048042384061L690.6235397,295.6578319722956L692.6947766,283.48202471299606L692.8424369333333,308.98492195389485L693.2100013333333,227.16233721646395L693.7531891333333,295.8952302932739L695.1443865666666,270.3340936140581L696.0422729666667,253.60937534679067L696.5856874000001,292.1788397052071L696.8967329333333,270.16079677234995L697.9463242,170.4306928461248L698.1824238333332,217.44000916047528L699.0323685666667,252.54827629436147L699.1652803,291.8367603258653L699.7897945999999,264.15005415136164L700.1620311333332,267.14203002236104L700.4011990333333,257.8542549393394L702.0070879666667,247.57541396401146L702.5642921666666,284.9799584692175L703.0956601666667,280.57006918300283L703.8606871333334,298.5856572064487L704.0681961,171.7094288739291L704.8333625333333,264.8827232447538L705.5053478,265.47866054014725L706.0384591333333,288.11926369233566L706.2881393333333,215.08047008514404L706.3829940999999,268.304442839189L706.9774707666667,287.61542311581695L708.4892022666667,268.8408175381747L708.5236331,261.83428170464254L708.8489565333333,270.09294293143535L710.6665558666666,308.4007783803073L711.5742049333334,253.08024319735438L711.9904083333332,256.06417361172765L712.1954592,266.9025834690441L713.2247057666666,286.05056951262736L713.5638189666666,178.66376755454323L713.8397712000001,229.16709787195379L714.0448918,266.599338574843L715.9102410333334,278.0130600279028L716.3945913333333,256.4282510063865L717.4667413333333,275.12543340162796L717.9952677,199.64776039123535L718.0976711,285.47698252851313L718.8878195,122.80724274028432L719.5008626666668,281.9196576638655L720.0518083,281.8300638849085L720.3986619,269.2636464292353L720.7385595999999,286.54529545523906L722.2792304333333,272.95428254387593L722.8817613,290.4693112590096L724.0265037,279.4884632283991L725.8712641666667,254.5837932066484L726.3364203666666,299.32108731703323L726.6965930333333,284.89049168066543L729.4235673333333,281.7778298638084L730.0446124,305.2023816542192L730.8156538666667,286.48963269320404L731.3562789666667,239.09745259718463L731.5333144666668,178.7318835691972L732.8540638000001,274.24942900917745L733.5754202666666,296.91389816457576L733.9389401333333,275.7049397772009L736.6569013999999,283.30876473947006L737.4575795333333,299.59691457314926L737.4968219666667,206.98336523229426L738.3339357666666,297.6005311879245L738.4407846666667,227.7842788696289L740.8696315333333,249.87048287825152L741.7809939,289.2014185732061L741.9715402333333,281.7426248463717L744.9087954,267.2223535017534L745.2632150666666,257.26501946015793L746.3349815333333,278.39124155044556L746.7486571000001,302.24518476833L747.4314684666666,278.09919639067215L748.1871163,276.69491191343826L749.6765854333332,257.15999429876155L749.6944371666666,297.0270507118919L749.8152850333333,292.2099933190779L750.9543093,296.7799028049816L752.3524277666667,271.2854729565707L754.2578910999999,305.8880356225101L756.2796347666667,260.9297085675326L756.4639748333333,240.73247454383156L757.2086745333334,265.3592158230868L757.2628573333334,286.3991581743414L757.3243970000001,242.82326915047386L759.1737424333332,227.65279054641724L759.6685353,221.5461906519803L760.1178794666666,290.836161960255L760.8179672666666,273.1054175116799L765.9341450333334,283.964117158543L766.4140847,285.1368981274692L766.8546076,304.0364376848394L767.5694963,303.57515118338847L767.7345725333333,223.9756236076355L768.0039872666666,262.04086641831833L769.1612293666667,210.0082930651578L769.428186,298.75498047741974L770.1678649,118.22900104522705L771.2069438666666,237.797382181341L771.2490104999999,299.29681166735566L771.7307806666668,299.5625493309715L772.7100633,303.7056645480069L773.1155103333333,293.47231890938497L773.7538841333333,234.02738935297185L774.1731209333333,268.268836368214L774.3332112333334,256.53310411626643L774.3400799666667,250.99779718572444L775.9456202333333,274.89866950295186L779.7546292333333,298.75957671078766L780.8874298,262.2602157159285L780.9435302666666,299.8003654913469L782.2598689666667,265.20899846337056L782.6691164666668,257.612604488026L782.9574289333333,262.2816893837669L784.0180032,287.0531423742121L785.8861243333333,303.246319770813L786.4333392333333,280.05082589929754L787.6239836,264.02650477669454L787.7446397,270.20189250599253L787.941863,288.36970515684646L790.1296591666667,291.9606742858887L791.3654907333333,274.8005100163546L791.8100756,292.17160125212234L792.3325700333334,247.65940787575462L792.9501284333334,276.049972707575L796.0370487666667,290.2949698188088L796.0577944333334,293.2041233669628L800.0446583,232.55532477118751L803.2813309666667,228.5967716737227L803.7723931,259.91811938719314L804.2150603,230.06073344837537L807.1570050333333,293.46386380629104L807.9568812333333,309.69511169737035L809.0558611333333,258.9625206860629L809.2759221,284.00357020984995L811.5663134333332,292.0230060924183L811.6208449000001,283.1108235662634L811.6731623333333,257.52969204295766L815.2742788333334,195.8065710067749L815.4241532000001,299.19104094938797L816.0717143666667,245.79471354051068L816.1706311,248.1897607716647L816.6032044,314.9616024710915L819.7257933333334,301.9331365715374L821.8594764333333,139.64749769731L822.7922469333333,294.2997228449041L823.6241481666667,302.563447302038L825.3014614666668,291.40967520800507L826.1121288999999,289.37773860584605L829.1825398666666,271.25601118261164L830.8709582,247.04744521054354L831.1591660666667,260.86219063672155L831.8901108666668,200.4644971327348L835.1818728666666,261.05574039979416L835.2625194666666,306.1984534263611L836.3996783666668,272.69533681869507L837.0636966000001,298.13667648488826L838.462094,292.93503069877625L838.8972299999999,276.68519100275904L840.0759674,225.25085306167603L840.4591869333334,311.7776785547083L840.9127848333333,284.79834990067917L841.5738917,228.9659860350869L843.0973209666668,221.328086679632L844.1036775666666,287.0463586287065L844.4732816666667,262.80053121393377L845.5865569,225.75906866247004L845.8185597,298.1812214417891L845.8953709666666,250.62241354855627L846.1803885333333,207.36406608061358L847.3631879000001,285.9326404874975L848.1226013333333,286.15649179978806L848.6105428999999,285.5288478677923L848.8145652000001,292.9203202941201L850.5967574333333,275.00441154566676L851.1058456333333,265.3200044631958L853.0490172666666,280.9087812683799L853.6469457333333,259.82567856528544L855.8499437666667,309.9182850447568L857.4811459,203.77752113342285L858.704809,289.992609760978L859.3027026,176.4956726594405L860.4367235,275.34921917048365L861.1968168333334,247.90442562103271L861.7328569666666,294.29830137166107L862.9560145,265.5058528726751L864.5282745333334,305.7064434398304L864.6839019,312.3134428804571L866.2849792333334,306.9405280026523L867.1881653666666,302.2216178070415L867.9127993000001,288.6194952834736L868.2612044666666,294.865469195626L868.8121675333334,277.1316237232902L869.0097917999999,202.52721457047895L869.0344076666667,250.84668679670852L869.195666,273.90098372372717L869.2890912333334,258.0132059617476L869.2982960333334,284.6804290684787L871.0421174999999,283.5397971543399L872.6604887000001,293.36540937423706L873.3378434333333,311.59322703968394L874.5560150333333,324.6237493645061L875.5863424666667,102.07845965298742L875.7823977333333,226.31953876668757L875.8274977666666,270.40038260546595L876.153135,230.96177543293348L876.3732308333334,277.2497411857952L878.3369738,296.5840221535076L878.3400769333333,201.7830835689198L878.4873537333333,301.5895169214769L879.6887544666668,271.2768130302429L880.1515223,304.55612748319453L880.7057454,259.44981973821467L880.8842976000001,281.17199550975454L881.6682397333334,274.9224126122215L881.9818305333333,266.39426136016846L882.974624,301.51809915629303L883.7949669333333,288.6959066390991L884.0397483666667,232.13524870439008L884.5994629666667,203.22099182822487L884.7906543333334,278.34112949804825L885.0438735,159.66559332067314L885.9793810333334,215.95083774219862L889.0300923333333,282.4126589948481L889.9173967,286.72025546160614L890.0671316,302.8608178658919L892.1119744333333,268.92948961257935L893.0844754999999,292.23022166165435L895.0235851666666,303.30122059041804L896.1915487666666,272.4825254787098L896.2829691666666,152.95458464189008L896.4210934666667,265.4148048487577L897.2439642333333,303.3908061764457L897.6872939000001,257.5358285470442L897.9194013,276.41869549317795L898.2201785999999,292.575819904154L899.0527771666667,282.4960097616369L899.9159189333333,299.0438262982802L900.8201510666667,296.6152617931366L901.1143908666667,221.31379001790827L903.1137152666666,265.4007212031971L905.3922519333333,274.7901623465798L906.071873,277.6110084056854L906.1190127333333,289.2718286080794L906.5195435666667,258.38332973827016L907.3956906,279.54586698792195L908.1559757,242.78618795221502L908.6260829666667,167.69864585182884L908.7542354,311.79602661999786L909.7139927000001,294.89217814532196L910.1824961,300.31459470228714L910.5875770333333,213.84391125765714L910.8792367,276.8480541489341L911.2044032333333,224.5645805272189L911.2532514333333,125.58430168845436L912.7933121000001,296.2047059102492L913.0591878666667,307.12296815352005L913.2660692333333,263.91549877686936L913.4717302666667,225.55041113766757L913.711334,309.7973184910687L915.1319240333333,268.07387742129237L915.2266741999999,306.6366440599615L916.6145941666667,262.82887055657125L919.2185588666666,246.83053740588102L920.4842188666667,297.883359302174L921.7779290999999,274.08050719174474L922.5001746666666,285.87144340168345L922.9487343333333,264.70636224746704L925.2996890666667,281.1631512425163L925.8285641,302.4923326752403L925.9853246333333,267.584276155992L928.6349646666666,310.20529360120946L929.2186326666667,219.5194155953147L929.3415899666667,266.94051673195577L929.4825559000001,282.62331969087774L929.8236390666667,298.9796715649692L931.2979237666667,253.43697972731155L932.6220203,296.45325071161443L933.3548827666667,310.2890212427486L933.7634852333333,315.4225080013275L933.7663791666666,291.997050892223L933.9636373333334,101.96454516324133L934.2078434666666,315.0863766886971L934.5813875,274.7665503241799L935.1728482,254.77209949493408L935.2515248333333,318.3204700079831L936.0610242333333,283.33592839674515L939.9550904666667,154.62115755948153L940.1883484666666,278.4735968763178L940.7268118333333,226.74843042547053L942.0177327333333,299.91405467553574L943.6993869333334,306.84542857516897L944.5652831666666,283.79556811939585L944.6501312,160.70147453654897L948.8117119333333,263.6729061386802L948.9503592333333,320.7663912339644L949.8283716333334,308.0270251360806L950.3698684000001,295.22476601600647L951.4323603333332,293.55994228883225L951.9622639333334,305.5644108165394L952.3072696,319.3455119783228L952.6127364666667,272.6048704927618L952.9788539,276.04808833382344L956.3398436666668,217.39277692274615L956.5601138333333,294.41168741746384L957.2882344333334,309.6020871292461L957.8761910333334,233.42567604238337L957.9704879333333,171.95903465964577L958.2507462,267.1023926301436L958.8333333333333,276.56169078566813" style="fill: none;" fill="none"></path></g></g></g></g></g></g><g transform="translate(30, 378)" clip-path="url(#clip_1)"><clipPath id="clip_1"><rect width="1046" height="22"></rect></clipPath><g><g><line x1="0" y1="0" x2="0" y2="5" style="visibility: inherit;" fill="rgb(0, 0, 0)" stroke="rgb(204, 204, 204)" stroke-width="1px"></line><line x1="87.16666666666666" y1="0" x2="87.16666666666666" y2="5" style="visibility: inherit;" fill="rgb(0, 0, 0)" stroke="rgb(204, 204, 204)" stroke-width="1px"></line><line x1="174.33333333333331" y1="0" x2="174.33333333333331" y2="5" style="visibility: inherit;" fill="rgb(0, 0, 0)" stroke="rgb(204, 204, 204)" stroke-width="1px"></line><line x1="261.5" y1="0" x2="261.5" y2="5" style="visibility: inherit;" fill="rgb(0, 0, 0)" stroke="rgb(204, 204, 204)" stroke-width="1px"></line><line x1="348.66666666666663" y1="0" x2="348.66666666666663" y2="5" style="visibility: inherit;" fill="rgb(0, 0, 0)" stroke="rgb(204, 204, 204)" stroke-width="1px"></line><line x1="435.83333333333337" y1="0" x2="435.83333333333337" y2="5" style="visibility: inherit;" fill="rgb(0, 0, 0)" stroke="rgb(204, 204, 204)" stroke-width="1px"></line><line x1="523" y1="0" x2="523" y2="5" style="visibility: inherit;" fill="rgb(0, 0, 0)" stroke="rgb(204, 204, 204)" stroke-width="1px"></line><line x1="610.1666666666667" y1="0" x2="610.1666666666667" y2="5" style="visibility: inherit;" fill="rgb(0, 0, 0)" stroke="rgb(204, 204, 204)" stroke-width="1px"></line><line x1="697.3333333333333" y1="0" x2="697.3333333333333" y2="5" style="visibility: inherit;" fill="rgb(0, 0, 0)" stroke="rgb(204, 204, 204)" stroke-width="1px"></line><line x1="784.5" y1="0" x2="784.5" y2="5" style="visibility: inherit;" fill="rgb(0, 0, 0)" stroke="rgb(204, 204, 204)" stroke-width="1px"></line><line x1="871.6666666666667" y1="0" x2="871.6666666666667" y2="5" style="visibility: inherit;" fill="rgb(0, 0, 0)" stroke="rgb(204, 204, 204)" stroke-width="1px"></line><line x1="958.8333333333333" y1="0" x2="958.8333333333333" y2="5" style="visibility: inherit;" fill="rgb(0, 0, 0)" stroke="rgb(204, 204, 204)" stroke-width="1px"></line><line x1="1046" y1="0" x2="1046" y2="5" style="visibility: inherit;" fill="rgb(0, 0, 0)" stroke="rgb(204, 204, 204)" stroke-width="1px"></line></g><g transform="translate(0, 8)"><text x="0" y="0" dx="0em" dy="0.95em" style="text-anchor: middle; visibility: hidden; font-family: &quot;Helvetica Neue&quot;, sans-serif; font-size: 12px; font-weight: 200;" fill="rgb(50, 49, 63)" stroke="none" stroke-width="1px">-5M</text><text x="87.16666666666666" y="0" dx="0em" dy="0.95em" style="text-anchor: middle; visibility: inherit; font-family: &quot;Helvetica Neue&quot;, sans-serif; font-size: 12px; font-weight: 200;" fill="rgb(50, 49, 63)" stroke="none" stroke-width="1px">0</text><text x="174.33333333333331" y="0" dx="0em" dy="0.95em" style="text-anchor: middle; visibility: inherit; font-family: &quot;Helvetica Neue&quot;, sans-serif; font-size: 12px; font-weight: 200;" fill="rgb(50, 49, 63)" stroke="none" stroke-width="1px">5M</text><text x="261.5" y="0" dx="0em" dy="0.95em" style="text-anchor: middle; visibility: inherit; font-family: &quot;Helvetica Neue&quot;, sans-serif; font-size: 12px; font-weight: 200;" fill="rgb(50, 49, 63)" stroke="none" stroke-width="1px">10M</text><text x="348.66666666666663" y="0" dx="0em" dy="0.95em" style="text-anchor: middle; visibility: inherit; font-family: &quot;Helvetica Neue&quot;, sans-serif; font-size: 12px; font-weight: 200;" fill="rgb(50, 49, 63)" stroke="none" stroke-width="1px">15M</text><text x="435.83333333333337" y="0" dx="0em" dy="0.95em" style="text-anchor: middle; visibility: inherit; font-family: &quot;Helvetica Neue&quot;, sans-serif; font-size: 12px; font-weight: 200;" fill="rgb(50, 49, 63)" stroke="none" stroke-width="1px">20M</text><text x="523" y="0" dx="0em" dy="0.95em" style="text-anchor: middle; visibility: inherit; font-family: &quot;Helvetica Neue&quot;, sans-serif; font-size: 12px; font-weight: 200;" fill="rgb(50, 49, 63)" stroke="none" stroke-width="1px">25M</text><text x="610.1666666666667" y="0" dx="0em" dy="0.95em" style="text-anchor: middle; visibility: inherit; font-family: &quot;Helvetica Neue&quot;, sans-serif; font-size: 12px; font-weight: 200;" fill="rgb(50, 49, 63)" stroke="none" stroke-width="1px">30M</text><text x="697.3333333333333" y="0" dx="0em" dy="0.95em" style="text-anchor: middle; visibility: inherit; font-family: &quot;Helvetica Neue&quot;, sans-serif; font-size: 12px; font-weight: 200;" fill="rgb(50, 49, 63)" stroke="none" stroke-width="1px">35M</text><text x="784.5" y="0" dx="0em" dy="0.95em" style="text-anchor: middle; visibility: inherit; font-family: &quot;Helvetica Neue&quot;, sans-serif; font-size: 12px; font-weight: 200;" fill="rgb(50, 49, 63)" stroke="none" stroke-width="1px">40M</text><text x="871.6666666666667" y="0" dx="0em" dy="0.95em" style="text-anchor: middle; visibility: inherit; font-family: &quot;Helvetica Neue&quot;, sans-serif; font-size: 12px; font-weight: 200;" fill="rgb(50, 49, 63)" stroke="none" stroke-width="1px">45M</text><text x="958.8333333333333" y="0" dx="0em" dy="0.95em" style="text-anchor: middle; visibility: inherit; font-family: &quot;Helvetica Neue&quot;, sans-serif; font-size: 12px; font-weight: 200;" fill="rgb(50, 49, 63)" stroke="none" stroke-width="1px">50M</text><text x="1046" y="0" dx="0em" dy="0.95em" style="text-anchor: middle; visibility: hidden; font-family: &quot;Helvetica Neue&quot;, sans-serif; font-size: 12px; font-weight: 200;" fill="rgb(50, 49, 63)" stroke="none" stroke-width="1px">55M</text></g><line x1="0" y1="0" x2="1046" y2="0" fill="rgb(0, 0, 0)" stroke="rgb(204, 204, 204)" stroke-width="1px"></line></g></g></g></g></svg>