<svg viewBox="0 0 1076 400" xmlns="http://www.w3.org/2000/svg"><g><g><g><g><g><line x1="70" y1="378" x2="65" y2="378" style="visibility: inherit;" fill="rgb(0, 0, 0)" stroke="rgb(204, 204, 204)" stroke-width="1px"></line><line x1="70" y1="346.5" x2="65" y2="346.5" style="visibility: inherit;" fill="rgb(0, 0, 0)" stroke="rgb(204, 204, 204)" stroke-width="1px"></line><line x1="70" y1="315" x2="65" y2="315" style="visibility: inherit;" fill="rgb(0, 0, 0)" stroke="rgb(204, 204, 204)" stroke-width="1px"></line><line x1="70" y1="283.5" x2="65" y2="283.5" style="visibility: inherit;" fill="rgb(0, 0, 0)" stroke="rgb(204, 204, 204)" stroke-width="1px"></line><line x1="70" y1="252" x2="65" y2="252" style="visibility: inherit;" fill="rgb(0, 0, 0)" stroke="rgb(204, 204, 204)" stroke-width="1px"></line><line x1="70" y1="220.5" x2="65" y2="220.5" style="visibility: inherit;" fill="rgb(0, 0, 0)" stroke="rgb(204, 204, 204)" stroke-width="1px"></line><line x1="70" y1="189" x2="65" y2="189" style="visibility: inherit;" fill="rgb(0, 0, 0)" stroke="rgb(204, 204, 204)" stroke-width="1px"></line><line x1="70" y1="157.5" x2="65" y2="157.5" style="visibility: inherit;" fill="rgb(0, 0, 0)" stroke="rgb(204, 204, 204)" stroke-width="1px"></line><line x1="70" y1="126" x2="65" y2="126" style="visibility: inherit;" fill="rgb(0, 0, 0)" stroke="rgb(204, 204, 204)" stroke-width="1px"></line><line x1="70" y1="94.5" x2="65" y2="94.5" style="visibility: inherit;" fill="rgb(0, 0, 0)" stroke="rgb(204, 204, 204)" stroke-width="1px"></line><line x1="70" y1="63" x2="65" y2="63" style="visibility: inherit;" fill="rgb(0, 0, 0)" stroke="rgb(204, 204, 204)" stroke-width="1px"></line><line x1="70" y1="31.5" x2="65" y2="31.5" style="visibility: inherit;" fill="rgb(0, 0, 0)" stroke="rgb(204, 204, 204)" stroke-width="1px"></line><line x1="70" y1="0" x2="65" y2="0" style="visibility: inherit;" fill="rgb(0, 0, 0)" stroke="rgb(204, 204, 204)" stroke-width="1px"></line></g><g transform="translate(60, 0)"><text x="0" y="378" dx="0em" dy="0.3em" style="text-anchor: end; visibility: hidden; font-family: &quot;Helvetica Neue&quot;, sans-serif; font-size: 12px; font-weight: 200;" fill="rgb(50, 49, 63)" stroke="none" stroke-width="1px">-200</text><text x="0" y="346.5" dx="0em" dy="0.3em" style="text-anchor: end; visibility: inherit; font-family: &quot;Helvetica Neue&quot;, sans-serif; font-size: 12px; font-weight: 200;" fill="rgb(50, 49, 63)" stroke="none" stroke-width="1px">0</text><text x="0" y="315" dx="0em" dy="0.3em" style="text-anchor: end; visibility: inherit; font-family: &quot;Helvetica Neue&quot;, sans-serif; font-size: 12px; font-weight: 200;" fill="rgb(50, 49, 63)" stroke="none" stroke-width="1px">200</text><text x="0" y="283.5" dx="0em" dy="0.3em" style="text-anchor: end; visibility: inherit; font-family: &quot;Helvetica Neue&quot;, sans-serif; font-size: 12px; font-weight: 200;" fill="rgb(50, 49, 63)" stroke="none" stroke-width="1px">400</text><text x="0" y="252" dx="0em" dy="0.3em" style="text-anchor: end; visibility: inherit; font-family: &quot;Helvetica Neue&quot;, sans-serif; font-size: 12px; font-weight: 200;" fill="rgb(50, 49, 63)" stroke="none" stroke-width="1px">600</text><text x="0" y="220.5" dx="0em" dy="0.3em" style="text-anchor: end; visibility: inherit; font-family: &quot;Helvetica Neue&quot;, sans-serif; font-size: 12px; font-weight: 200;" fill="rgb(50, 49, 63)" stroke="none" stroke-width="1px">800</text><text x="0" y="189" dx="0em" dy="0.3em" style="text-anchor: end; visibility: inherit; font-family: &quot;Helvetica Neue&quot;, sans-serif; font-size: 12px; font-weight: 200;" fill="rgb(50, 49, 63)" stroke="none" stroke-width="1px">1e+3</text><text x="0" y="157.5" dx="0em" dy="0.3em" style="text-anchor: end; visibility: inherit; font-family: &quot;Helvetica Neue&quot;, sans-serif; font-size: 12px; font-weight: 200;" fill="rgb(50, 49, 63)" stroke="none" stroke-width="1px">1.2e+3</text><text x="0" y="126" dx="0em" dy="0.3em" style="text-anchor: end; visibility: inherit; font-family: &quot;Helvetica Neue&quot;, sans-serif; font-size: 12px; font-weight: 200;" fill="rgb(50, 49, 63)" stroke="none" stroke-width="1px">1.4e+3</text><text x="0" y="94.5" dx="0em" dy="0.3em" style="text-anchor: end; visibility: inherit; font-family: &quot;Helvetica Neue&quot;, sans-serif; font-size: 12px; font-weight: 200;" fill="rgb(50, 49, 63)" stroke="none" stroke-width="1px">1.6e+3</text><text x="0" y="63" dx="0em" dy="0.3em" style="text-anchor: end; visibility: inherit; font-family: &quot;Helvetica Neue&quot;, sans-serif; font-size: 12px; font-weight: 200;" fill="rgb(50, 49, 63)" stroke="none" stroke-width="1px">1.8e+3</text><text x="0" y="31.5" dx="0em" dy="0.3em" style="text-anchor: end; visibility: inherit; font-family: &quot;Helvetica Neue&quot;, sans-serif; font-size: 12px; font-weight: 200;" fill="rgb(50, 49, 63)" stroke="none" stroke-width="1px">2e+3</text><text x="0" y="0" dx="0em" dy="0.3em" style="text-anchor: end; visibility: hidden; font-family: &quot;Helvetica Neue&quot;, sans-serif; font-size: 12px; font-weight: 200;" fill="rgb(50, 49, 63)" stroke="none" stroke-width="1px">2.2e+3</text></g><line x1="70" y1="0" x2="70" y2="378" fill="rgb(0, 0, 0)" stroke="rgb(204, 204, 204)" stroke-width="1px"></line></g></g><g transform="translate(70, 0)" clip-path="url(#clip_0)"><clipPath id="clip_0"><rect width="1006" height="378"></rect></clipPath><g><g><g><line x1="0" y1="0" x2="0" y2="378" fill="rgb(0, 0, 0)" stroke="rgb(60, 60, 60)" stroke-width="1px" opacity="0.25"></line><line x1="83.83333333333333" y1="0" x2="83.83333333333333" y2="378" fill="rgb(0, 0, 0)" stroke="rgb(60, 60, 60)" stroke-width="1px" opacity="0.25"></line><line x1="167.66666666666666" y1="0" x2="167.66666666666666" y2="378" fill="rgb(0, 0, 0)" stroke="rgb(60, 60, 60)" stroke-width="1px" opacity="0.25"></line><line x1="251.5" y1="0" x2="251.5" y2="378" fill="rgb(0, 0, 0)" stroke="rgb(60, 60, 60)" stroke-width="1px" opacity="0.25"></line><line x1="335.3333333333333" y1="0" x2="335.3333333333333" y2="378" fill="rgb(0, 0, 0)" stroke="rgb(60, 60, 60)" stroke-width="1px" opacity="0.25"></line><line x1="419.1666666666667" y1="0" x2="419.1666666666667" y2="378" fill="rgb(0, 0, 0)" stroke="rgb(60, 60, 60)" stroke-width="1px" opacity="0.25"></line><line x1="503" y1="0" x2="503" y2="378" fill="rgb(0, 0, 0)" stroke="rgb(60, 60, 60)" stroke-width="1px" opacity="0.25"></line><line x1="586.8333333333334" y1="0" x2="586.8333333333334" y2="378" fill="rgb(0, 0, 0)" stroke="rgb(60, 60, 60)" stroke-width="1px" opacity="0.25"></line><line x1="670.6666666666666" y1="0" x2="670.6666666666666" y2="378" fill="rgb(0, 0, 0)" stroke="rgb(60, 60, 60)" stroke-width="1px" opacity="0.25"></line><line x1="754.5" y1="0" x2="754.5" y2="378" fill="rgb(0, 0, 0)" stroke="rgb(60, 60, 60)" stroke-width="1px" opacity="0.25"></line><line x1="838.3333333333334" y1="0" x2="838.3333333333334" y2="378" fill="rgb(0, 0, 0)" stroke="rgb(60, 60, 60)" stroke-width="1px" opacity="0.25"></line><line x1="922.1666666666666" y1="0" x2="922.1666666666666" y2="378" fill="rgb(0, 0, 0)" stroke="rgb(60, 60, 60)" stroke-width="1px" opacity="0.25"></line><line x1="1006" y1="0" x2="1006" y2="378" fill="rgb(0, 0, 0)" stroke="rgb(60, 60, 60)" stroke-width="1px" opacity="0.25"></line></g><g><line x1="0" y1="378" x2="1006" y2="378" fill="rgb(0, 0, 0)" stroke="rgb(60, 60, 60)" stroke-width="1px" opacity="0.25"></line><line x1="0" y1="346.5" x2="1006" y2="346.5" fill="rgb(0, 0, 0)" stroke="rgb(60, 60, 60)" stroke-width="1px" opacity="0.25"></line><line x1="0" y1="315" x2="1006" y2="315" fill="rgb(0, 0, 0)" stroke="rgb(60, 60, 60)" stroke-width="1px" opacity="0.25"></line><line x1="0" y1="283.5" x2="1006" y2="283.5" fill="rgb(0, 0, 0)" stroke="rgb(60, 60, 60)" stroke-width="1px" opacity="0.25"></line><line x1="0" y1="252" x2="1006" y2="252" fill="rgb(0, 0, 0)" stroke="rgb(60, 60, 60)" stroke-width="1px" opacity="0.25"></line><line x1="0" y1="220.5" x2="1006" y2="220.5" fill="rgb(0, 0, 0)" stroke="rgb(60, 60, 60)" stroke-width="1px" opacity="0.25"></line><line x1="0" y1="189" x2="1006" y2="189" fill="rgb(0, 0, 0)" stroke="rgb(60, 60, 60)" stroke-width="1px" opacity="0.25"></line><line x1="0" y1="157.5" x2="1006" y2="157.5" fill="rgb(0, 0, 0)" stroke="rgb(60, 60, 60)" stroke-width="1px" opacity="0.25"></line><line x1="0" y1="126" x2="1006" y2="126" fill="rgb(0, 0, 0)" stroke="rgb(60, 60, 60)" stroke-width="1px" opacity="0.25"></line><line x1="0" y1="94.5" x2="1006" y2="94.5" fill="rgb(0, 0, 0)" stroke="rgb(60, 60, 60)" stroke-width="1px" opacity="0.25"></line><line x1="0" y1="63" x2="1006" y2="63" fill="rgb(0, 0, 0)" stroke="rgb(60, 60, 60)" stroke-width="1px" opacity="0.25"></line><line x1="0" y1="31.5" x2="1006" y2="31.5" fill="rgb(0, 0, 0)" stroke="rgb(60, 60, 60)" stroke-width="1px" opacity="0.25"></line><line x1="0" y1="0" x2="1006" y2="0" fill="rgb(0, 0, 0)" stroke="rgb(60, 60, 60)" stroke-width="1px" opacity="0.25"></line></g></g></g><g><g><line x1="0" y1="346.5" x2="1006" y2="346.5" fill="rgb(0, 0, 0)" stroke="rgb(153, 153, 153)" stroke-width="1.5px"></line></g></g><g><g><line x1="83.83333333333333" y1="0" x2="83.83333333333333" y2="378" fill="rgb(0, 0, 0)" stroke="rgb(153, 153, 153)" stroke-width="1.5px"></line></g></g><g><g><g><g><g><path stroke="rgb(255, 112, 67)" stroke-width="2px" d="M83.96807026666666,313.11L83.97693983333333,317.3428125L84.06112526666666,320.3260714285714L84.13627346666667,312.66703125L84.33080033333334,314.90851665510064L84.36136596666667,316.53289708646616L84.5520365,317.00392399062395L84.56836723333333,320.41769259810866L84.6373453,322.8743732395386L84.69296033333333,324.01552404627546L84.80053526666667,322.79890055355105L84.807812,313.23251639607724L84.8324087,310.3447381989044L85.1764607,313.53234085752075L85.3100575,314.6869473931686L85.36013953333334,318.65628823057745L85.5961136,314.35804538941863L85.7245798,305.2899062738355L85.80598196666668,298.7155431490809L85.83153436666667,305.2295640523736L86.05677776666667,308.129802053802L86.12417976666666,300.1677764347434L86.19486803333334,296.5246370898736L86.24396083333333,284.95172741706494L86.51160713333333,285.69403856065094L86.56016340000001,291.242432600937L86.88139596666667,288.83845710011644L86.9910332,266.60606060728367L87.12270183333334,270.5286378096694L87.16342806666667,277.4811842228283L87.3653155,276.1717103600027L88.21838673333333,264.676025301099L88.43412343333333,269.05561538979345L88.7951936,272.69136933804475L89.22252563333333,277.89682169231224L89.58840783333333,264.577092878002L90.37407706666667,251.35625564498199L91.24240596666667,253.69275339566508L91.88674896666667,246.40065202115287L91.92765963333333,231.81939119320023L92.10419586666667,230.56763471491615L92.14820836666667,238.5735808328024L92.72806676666667,231.65914849768498L92.80578026666666,220.64348909670258L93.3449292,223.23209345829062L93.71934563333333,204.24725607379034L94.4488633,215.41035364469192L94.84519376666665,233.76321218722723L95.0604107,241.24692731243715L95.29769256666665,234.20815638740538L96.05100213333334,220.0308938323745L96.75716383333334,199.36553629936458L97.01721483333333,194.84132177961084L97.15946323333333,199.49779306777137L97.37037113333334,205.69367584066674L97.4051955,191.14120550439455L97.4521254,170.313723302632L98.05119839999999,192.3412339815822L98.99491023333333,151.377740388946L99.16522603333333,158.1106442333679L99.36816976666665,148.60538654002048L99.40931516666667,197.96423192401312L99.53853586666668,166.02853915440755L100.1492114,187.8171234926447L100.41023486666667,189.55027409558681L100.6359142,193.92916445735207L101.51597976666667,200.27349867441126L102.09515073333333,210.06509920464677L102.80818676666667,224.19305952278808L103.11744793333334,205.3278357136728L104.78313243333334,205.2857014282037L105.00005956666666,172.6894208569222L105.5914199,170.51965251415328L105.70687516666668,169.154791508492L106.0972367,154.2868749050952L106.19825586666667,149.20912494305713L106.99593003333334,130.97947496583427L107.23212206666666,111.47368497950055L107.9244848,130.89221098770034L108.6297411,137.1883265926202L108.6465413,157.78699595557208L109.63746806666667,183.7541975733433L109.95789583333332,157.06151854400593L109.99501723333333,163.53691112640357L110.10074783333333,148.33314667584216L110.6321841,122.76788800550531L110.65882633333334,112.15373280330317L110.91991686666667,119.64523968198188L111.03580806666668,115.95014380918917L111.68786373333333,119.46608628551348L112.01962576666666,128.9466517713081L112.16284663333333,109.11999106278483L115.02486633333334,136.03199463767092L116.2704117,144.61919678260253L117.36435286666668,167.9155180695615L119.7595215,143.14831084173693L121.40853993333333,150.65298650504218L122.3499715,135.6887919030253L123.00469306666666,122.36327514181517L123.07370466666667,107.87896508508908L124.45940259999999,91.56537905105347L125.9137768,108.17422743063207L126.70241373333334,112.72153645837926L127.54391596666667,128.17592187502757L127.85815683333334,126.73855312501655L127.90413103333333,130.28613187500994L127.92666543333333,132.09967912500593L129.29090203333334,122.41480747500356L131.7797628,104.63388448500217L132.79354253333335,100.83233069100129L133.5579684,107.8753984146008L136.51428383333334,146.8772390487605L136.97322103333332,123.15434342925627L137.0312337,111.25160605755372L138.24747093333332,125.40396363453223L139.73789346666666,107.87637818071937L140.12916040000002,128.1668269084316L141.478307,71.48209614505896L142.02890756666665,75.39725768703539L142.19347240000002,109.05735461222122L145.1695557333333,83.01141276733273L145.9391289666667,92.77284766039963L146.67835453333333,95.66870859623975L148.08831383333333,88.83822515774386L149.78614003333334,111.82993509464632L152.49112313333333,101.36996105678776L152.64136923333334,124.89297663407262L153.32377256666666,106.24678598044358L153.46610479999998,69.2920715882662L154.28909663333334,75.02824295295972L155.4269497,122.56994577177582L155.75145176666666,132.4469674630655L155.8224083,82.9331804778393L158.1136403666667,89.51290828670358L160.7745942,75.37974497202214L161.2695462,49.448846983213286L161.86999406666666,77.99030818992793L164.66325366666666,98.1391849139568L165.74847616666668,58.44251094837409L165.91458353333334,39.475506569024446L166.1679111,42.7743039414147L168.31263603333332,33.413582364848764L169.49943100000002,40.208149418909215L169.9060059,74.14688965134559L171.04734643333333,54.82013379080735L171.42986116666668,3.408080274484462L172.6864893,33.67084816469071L174.73725383333334,50.127508898814426L175.0014462,63.84450533928867L175.08854903333332,69.23970320357319L177.39081356666668,52.00182192214396L177.44191836666667,84.81409315328636L179.11003403333333,71.74145589197184L179.96592206666668,73.47387353518315L183.2186889333333,51.39232412110988L185.9534161,76.57339447266588L186.40338313333334,43.10903668359953L186.85618373333332,85.08542201015973L188.7112645,55.71325320609583L191.491094,54.15495192365751L191.53914726666667,82.19997115419454L192.50012876666668,99.53098269251672L195.87576176666667,90.71458961551002L196.36898680000002,85.109753769306L197.68882526666667,50.56185226158357L200.3270938,45.70911135695019L200.84813473333335,38.19846681417005L200.92734046666666,40.43308008850198L202.02424933333333,23.12584805310121L202.23797403333333,31.95650883186073L203.34205903333333,37.002905299116435L204.01668263333332,41.416743179469904L205.82278796666665,44.94704590768191L206.3857791,64.57922754460913L209.6559833,76.48453652676551L209.98990823333332,58.9317219160593L211.60894786666665,66.60703314963558L212.19381950000002,69.44821988978134L212.56582153333332,53.76493193386881L212.73798166666668,50.84395916032133L213.10738486666668,40.01937549619282L214.77841793333332,11.789625297715645L215.47451963333336,42.79477517862938L215.6488762,12.383865107177655L216.38816883333334,50.77431906430661L217.4589217,45.206591438583985L218.15244133333334,48.92195486315035L221.06025079999998,76.03617291789016L221.7858283,48.45670375073405L223.50939133333333,55.66002225044042L224.34982050000002,77.81101335026426L225.94501793333333,83.03760801015858L227.1723044,46.29456480609514L227.25922279999997,44.72373888365706L227.60325803333333,62.618243330194275L228.58088883333335,45.44594599811654L231.79695346666668,33.315567598869904L232.07299986666666,9.78334055932197L232.50604933333335,49.02500433559317L235.35564493333334,72.57000260135595L236.1499993,46.12500156081353L236.7805098,17.53200093648809L239.52288256666668,92.79720056189285L239.76366866666666,86.2333203371357L241.04814623333334,52.93699220228143L242.81743196666667,51.41819532136884L243.71508576666668,62.98091719282132L245.5353757,114.14455031569281L246.05096746666666,106.60173018941566L246.36574486666666,81.22303811364941L246.4055154,37.89782286818968L246.95011350000001,71.9416937209138L247.63607136666667,63.640016232548305L248.1907127,67.16400973952898L249.67982743333332,77.34240584371742L249.9913521,72.55044350623041L250.07833756666665,64.95026610373827L250.48117349999998,62.78415966224293L251.4249524,102.87549579734576L255.3430876666667,72.81329747840749L256.595893,42.55397848704456L256.7665106,55.8983870922267L258.76122416666664,90.11303225533601L259.57952133333333,88.59181935320163L259.86596306666667,91.39609161192095L260.9062006,49.98665496715256L262.8275935333333,26.65299298029157L263.74872066666666,59.14679578817493L265.5444306666667,68.12207747290489L266.61196433333333,50.008246483742994L267.3081834,42.415947890245775L267.8327285666667,38.04956873414744L271.145671,61.95274124048848L272.1848857666667,68.98664474429307L272.38258153333334,59.97698684657587L274.4124045,89.47319210794552L275.76384813333334,32.57891526476732L276.60942466666665,22.067349158860395L276.76238696666667,17.39840949531623L277.02280683333333,42.191045697189736L279.7730096333333,20.274627418313855L279.8713629,-24.75322354901175L280.72664733333335,13.435065870593007L281.01826996666665,24.630039522355844L282.7690285333333,79.03802371341351L283.7812992666667,57.50281422804812L284.7591648,39.85668853682887L284.7873495666667,56.61101312209729L286.61042276666666,31.257607873258337L290.15241463333336,15.793564723955L290.2226334333334,84.19413883437295L291.8123984666667,68.0934833006238L292.5834639333333,59.75608998037427L292.69442573333333,32.2626539882246L293.3048665333333,71.20659239293474L293.5106773666667,67.60895543576083L295.25424303333335,57.5123732614565L295.40619933333335,83.01742395687393L296.9944721333333,81.37345437412432L297.24157926666663,94.7510726244746L302.1010455,79.40464357468471L302.31564206666667,101.19278614481084L303.08585243333334,117.8566716868865L304.8029770666667,89.5510030121319L305.6852055333333,94.30260180727913L307.5873671,61.62156108436744L307.67854423333335,55.74693665062051L308.2791597666667,18.95816199037222L308.47370340000003,34.495897194223346L309.2551977333334,43.37753831653407L311.30507363333334,68.55152298992044L311.56249226666665,69.60691379395223L311.7779774666667,42.64614827637138L312.1585305,46.94468896582282L312.7804564666667,71.06981337949372L313.8529866,69.29088802769627L314.68784923333334,67.59353281661771L315.37030286666663,91.77511968997067L315.8961726,122.41207181398238L317.9883172666667,134.36824308838942L320.1309966666667,122.89394585303364L321.2503728666666,111.15836751182013L321.8537046,110.1650205070921L323.6795443,111.90001230425526L325.91031576666666,74.19600738255315L326.0313543333333,91.7676044295319L326.12771236666663,84.8595626577191L326.8620253,38.56773759463147L329.23987396666666,58.6726425567789L329.70590346666665,64.49858553406733L331.7098554666666,67.17515132044042L332.28221916666666,44.46309079226421L332.4737280333333,77.83385447535852L335.6738811,61.19031268521519L335.7635492333333,50.196187611129005L336.32979309999996,65.39771256667746L338.0125293,82.96062754000644L338.2850714666667,93.43537652400391L338.4056573333333,88.19122591440231L339.2127879,104.19673554864141L340.13867676666666,78.07904132918486L341.6030103666667,104.3034247975109L342.1012318666667,114.30505487850655L342.5026761666666,127.2360329271039L342.9337807,142.80661975626236L343.45931509999997,105.96997185375739L344.64999993333333,89.85298311225444L345.8692048666666,58.95178986735266L345.89292969999997,84.8260739204116L346.49555723333333,96.444644352247L347.51813946666664,80.35778661134816L347.80339076666667,86.32967196680892L348.21353696666665,99.67780318008533L348.44054086666665,100.18968190805123L348.78596773333334,125.57080914483072L349.8774777333333,134.43648548689845L349.96276976666667,114.99689129213908L350.8939233666667,120.91013477528344L351.0113738666667,115.19708086517005L351.6451035666667,86.50624851910203L351.8076731666667,75.59174911146124L351.87165476666667,62.050049466876715L353.0112683333333,61.107029680126004L353.19226449999996,56.13121780807563L353.5272960333333,73.11673068484538L353.67314926666666,68.37703841090723L355.51109449999996,59.737223046544386L356.08042343333335,49.63933382792658L356.33930076666667,81.06560029675597L357.5945037333333,96.64536017805358L358.25789366666663,80.28921610683216L358.31999740000003,68.77452966409925L358.3535978,53.61271779845953L359.94549220000005,60.32863067907567L364.2970625666667,86.03017840744548L365.7330605,-29.588892955532742L367.138191,-10.715001463991825L367.3583541,31.55999912160496L367.82191889999996,52.76699947296294L368.26568226666666,59.44319968377778L369.0898980666667,72.52091981026666L370.37668943333335,89.06155188616003L370.94833216666666,107.36493113169604L371.31865753333335,127.1669586790176L373.21248606666666,129.85017520741053L376.28117169999996,116.1511051244463L378.7969597333333,80.02266307466778L378.92435286666665,114.6675978448007L379.85513760000003,88.83455870688039L380.64947520000004,151.83273522412824L383.2449216666667,164.62064113447693L383.93855866666667,119.94038468068618L384.0416904333334,109.89023080841167L384.4847328333333,81.36913848504702L385.5866046333333,66.20948309102823L387.25341249999997,41.6156898546169L387.3438519,69.06941391277019L387.7587430666666,79.36764834766211L390.2470840666667,98.46158900859723L391.6002714333333,109.16195340515833L393.9917514,75.577172043095L397.0609568,112.88230322585702L397.8276294,125.05938193551424L399.31821959999996,94.31362916130854L399.73010953333335,129.79417749678512L400.5341550333333,124.62250649807106L402.297891,131.72550389884267L402.76615046666666,158.22630233930562L403.8759864333333,138.27978140358337L404.40953529999996,117.17686884214999L405.83500376666666,132.80212130528997L406.2308647666667,170.779272783174L406.9031913333333,168.1135636699044L407.4120261333333,132.74613820194267L407.6987026,149.4516829211656L408.03864676666666,119.72200975269936L408.14144319999997,102.64020585161961L408.5610458,127.98612351097177L409.48356456666664,121.39567410658304L410.5177493333333,92.93440446394982L411.37011636666665,91.22964267836988L414.14937580000003,100.85378560702196L415.5017751333333,102.91127136421318L415.61723040000004,93.37276281852792L416.1447432666667,98.9896576911168L417.40224326666663,73.75779461467005L418.2185452,-5.137323231197968L419.2387298,57.019606061281195L420.4952238,99.73176363676873L421.08371703333336,74.83305818206122L422.6577717,85.09383490923676L422.7435667333333,82.55630094554203L424.45289486666667,88.40478056732525L425.1673896,89.14186834039509L426.02166803333336,119.5091210042371L426.94998806666666,114.2934726025423L427.5267614,105.17908356152537L427.9145911666667,148.85045013691524L429.27381453333334,135.86727008214916L429.8135838333333,110.56336204928948L430.13833739999995,122.4710172295737L430.2800828,124.76461033774422L430.8296103,104.15376620264652L432.9340281666667,120.26325972158793L436.3894202,140.89095583295278L438.0079736,119.75157349977167L438.15873946666665,121.242944099863L438.40205733333335,122.76776645991785L438.8159257333333,125.88765987595073L439.1344588666667,90.71559592557043L439.26616103333333,107.60135755534225L440.66408186666666,114.89781453320535L441.94703366666664,109.51068871992322L443.1180679666667,91.53641323195393L443.994579,124.9778479391723L444.5781260666667,109.51070876350343L444.6353171666667,130.02942525810204L446.56915096666665,130.24465515486125L446.74365843333334,119.15979309291674L447.44041403333335,124.35287585575009L447.6636957333333,100.12672551345003L447.7714048,117.34303530807006L447.90295606666666,122.12882118484202L450.1749064666667,132.4972927109052L450.1930815333333,149.80637562654312L450.3682429,138.3308253759259L450.46626083333337,112.41949522555558L450.86347993333334,109.72469713533332L452.4992527,109.30481828119997L452.9452628,120.26689096872002L453.75168916666667,121.61513458123193L456.1572028333333,116.25008074873921L457.80068826666667,127.14304844924348L458.9032475,112.88882906954609L459.96630446666666,114.16429744172763L460.4077875666667,165.32957846503658L462.0662959333333,155.14174707902194L463.4630766333333,165.09404824741318L464.0375697,147.56642894844788L465.9779425,145.23985736906877L466.6478379,136.72491442144124L467.07753403333334,131.42694865286475L467.1231729,140.02916919171886L467.9319633666667,155.01850151503132L468.67833153333333,181.3371009090188L470.1061473333333,192.0252605454113L473.6542087333333,158.05515632724675L474.2157244,149.20209379634807L474.45463263333335,133.87325627780885L474.5976690666667,118.94295376668532L475.695148,109.73277226001119L475.7608733333333,116.17666335600671L476.2349676,121.49199801360402L476.68919336666664,127.5791988081624L479.44216266666666,118.37951928489741L479.752346,113.23771157093842L482.1996422,101.89962694256309L482.6988697,93.58477616553785L484.4093212,122.55286569932272L485.8979161666666,131.99571941959363L487.5824464,133.8814316517562L488.1128263666667,150.95185899105368L488.4931446666667,123.9611153946322L489.65975256666667,155.39466923677935L490.4417163666667,142.6288015420676L491.96711416666665,115.94328092524051L493.24307426666667,143.90596855514434L493.8995228,159.0455811330866L494.01640323333334,138.51934867985193L495.6209229333333,130.04660920791116L496.52970980000003,117.65496552474673L497.7124137,133.78197931484803L499.1811737,146.60818758890883L499.20870456666665,123.11891255334527L499.99841456666667,142.91934753200718L500.30988893333335,124.3706085192043L501.3206171333333,121.43136511152255L505.46330836666664,121.80981906691358L506.20305370000005,120.08389144014814L507.0192382666667,115.8353348640889L508.51901660000004,117.25520091845334L508.74348873333327,133.227120551072L509.67444113333335,133.54927233064322L509.8673081,100.79356339838591L510.5029492,11.651138039031537L510.9340705000001,30.048682823418915L510.97850216666666,89.15620969405137L511.5116151,113.40672581643082L511.5338812333333,122.9800354898585L511.55827673333334,120.72302129391511L511.63226803333333,114.07681277634907L512.0528263333333,121.3660876658094L512.9587796333333,123.09365259948567L513.6778684333333,111.65619155969142L514.1872900666667,119.47271493581485L514.6181934,108.53862896148888L514.8654849666666,104.05717737689332L517.0020612999999,28.036306426136036L517.3522499000001,28.098783855681575L517.8313741666667,65.18027031340898L518.0224135666667,90.3271621880454L518.1931317666666,96.21729731282721L518.2168566,107.18537838769629L518.9429203333333,89.44822703261775L519.213702,88.63393621957067L519.6720020666667,111.07736173174243L521.3144144333334,101.04441703904547L522.5112861666667,140.88865022342725L522.5303331,151.56519013405637L523.2136753666667,131.19611408043377L524.1169292333334,117.27366844826025L526.7625583333333,100.91920106895611L527.3590827999999,122.79552064137371L527.4408035333333,76.38631238482424L527.6420538333333,113.49378743089454L528.3102558,128.7652724585367L529.0912471333334,141.96016347512202L529.3866255,130.28409808507323L530.3126652666667,152.44745885104393L530.9206581333333,121.64547531062635L531.2924589666667,138.2552851863758L532.8683579666667,126.99017111182548L533.3974636666667,124.13710266709526L534.0564607333333,113.60526160025711L535.3001785333333,114.78315696015432L538.358385,137.22489417609253L538.3831829,127.75793650565552L540.6515452333334,115.33676190339332L541.7124225333333,141.904057142036L544.630795,97.74243428522158L544.7789788,115.093460571133L547.6379469666666,114.6680763426798L548.713143,120.96484580560787L549.6315874666666,151.20290748336473L550.1905546,143.45274449001883L550.6637267,127.3366466940113L550.7777568,132.40898801640677L551.2984624000001,124.36439280984408L551.8232926,125.08163568590643L552.3088049666667,126.96098141154383L553.9292194666667,124.05658884692627L555.1754187333333,138.56795330815578L556.5073627333334,117.22377198489346L557.5440792666667,132.13726319093607L557.6396660333334,140.39235791456164L558.2356875,125.68941474873697L562.5522993666667,121.46664884924218L562.9522011333333,126.1779893095453L563.0096102,127.36679358572715L563.5343901,136.20707615143633L563.7089478666667,146.6142456908618L564.7887547333333,130.61954741451706L565.1433362,128.89772844871018L566.2373109,115.01263706922612L566.5434534666666,135.22058224153568L566.8031859,140.1003493449214L567.0460678333333,129.48320960695284L568.1352304999999,146.92692576417173L568.3986013000001,144.79315545850304L568.5344783666667,156.67989327510182L569.9182481333333,149.13293596506114L570.5406771,143.0927615790367L571.0538377,131.84565694742201L572.7211653333334,110.48139416845322L573.2321965666666,102.45083650107193L573.9893457,120.81650190064312L574.3810821,105.69090114038585L574.5408516666668,120.05154068423155L575.4465199333333,140.32292441053895L575.7435917333333,144.98875464632332L575.8561966666667,126.30525278779402L575.9933312333333,128.2621516726764L576.0606326333333,160.2432910036058L577.8497868666667,133.8829746021635L577.8770494666667,116.49178476129805L577.9215482,146.25107085677885L578.8833009666666,142.62364251406734L578.9465280666666,147.81818550844042L579.7039287,137.70491130506423L580.2797631,154.63194678303856L580.3376919333334,186.01916806982314L580.4449986,172.34350084189387L581.7176221333334,145.30110050513633L582.0677939666667,134.55666030308183L582.2634609666667,126.03099618184908L582.3110950666667,128.09759770910946L583.5073632,118.50155862546569L583.8487493,90.44193517527935L584.8509935666667,100.69616110516762L586.0180541666666,82.53069666310057L586.9876872666666,97.71341799786035L587.3025652666666,83.63905079871626L587.3325608333333,76.07643047922977L587.7783362,112.61485828753786L587.8400878333333,124.52091497252272L587.9603719,116.04054898351364L588.2560353,123.30032939010815L590.9377295,114.8671976340649L591.4560542333334,103.1293185804389L593.0645476333333,109.5055911482633L593.0983995333333,77.10635468895799L593.1710327333333,106.80681281337479L593.193936,116.62608768802488L594.1081049666667,118.9266526128149L594.3469629,155.46099156768895L594.9638085666667,136.80959494061338L595.7361650666667,106.844756964368L596.3126701333333,104.48985417862082L597.1744768000001,87.13791250717242L598.0413973000001,105.1397475043035L599.0053632666667,91.2448485025821L599.2199095333333,2.960909101549248L599.9684909,49.71954546092957L600.2742646,89.17772727655773L601.7914467333334,110.26963636593462L603.314799,69.50078181956076L603.8442567999999,102.4324690917365L605.8996489333333,101.21248145504188L605.9709575666666,112.00948887302513L606.1173305666666,110.23469332381507L607.7111531333334,95.372815994289L608.1145926666667,133.2646895965734L609.8289507999999,118.89281375794405L610.6961898666667,162.18168825476647L610.7213566333334,141.3460129528599L614.4672647,136.65660777171595L615.4418607333334,138.0009646630296L615.4625675666667,143.59557879781778L616.9328030333332,133.40734727869068L617.0537913000001,142.2884083672144L617.5207765,133.63104502032866L617.6429887333334,146.76962701219722L618.1355095666667,141.1707762073183L618.2727615,140.70946572439098L619.5918622333334,143.5826794346346L620.9686570666667,137.1796076607808L621.6961962666667,130.94376459646844L621.8616329666667,138.79425875788107L626.7774855,136.07055525472865L627.3814040666666,132.23133315283715L627.6985288000001,151.53679989170232L628.3690278,146.80307993502137L628.5269698,135.2058479610128L628.7774302666667,107.64650877660767L628.8871513333333,128.0919052659646L629.0883010333333,118.18314315957878L629.4035814333333,133.21688589574725L630.0762601,116.02913153744834L631.6621184999999,123.10447892246899L631.73279,114.68668735348143L632.7729269333333,100.24901241208886L633.5806443333333,107.14740744725333L634.4538020333333,114.31044446835199L636.5892885333333,114.38726668101117L636.9629504666666,70.01836000860669L639.4632964,84.599016005164L639.6272576333333,117.41340960309839L639.9386984666667,108.05904576185901L641.1256778666667,124.11842745711542L641.4010703666667,132.30505647426924L641.4201508333333,146.2890338845615L643.4651643999999,125.13242033073689L643.5360371,96.31045219844208L646.956085,81.91527131906531L647.0349554000001,107.48716279143918L647.0570874,119.93229767486349L647.4716935333333,122.3593786049181L647.7982579000001,156.82762716295088L648.0527759,141.03157629777056L648.3021297666667,142.20094577866232L648.4326414999999,132.0035674671974L648.5516177666667,97.9761404803184L648.6283252666667,129.40868428819107L648.7672371,113.05121057291467L649.3213586666667,120.18372634374879L649.5470882999999,115.26523580624928L650.1405109333333,95.49314148374953L650.1809353666666,129.80888489024974L651.2307969666666,134.64833093414984L651.7623338333333,121.99099856048986L652.9858142666667,102.30059913629395L653.5316028000001,104.59835948177636L653.9614163,115.36401568906581L654.2681792333333,113.82240941343952L655.0015029333333,125.37144564806374L657.5034752333332,149.43686738883824L658.6208729666666,130.80112043330294L659.9484911666666,149.54467225998175L660.3898568999999,148.69480335598905L660.6669428333333,152.09088201359341L661.1057935666666,129.05452920815605L662.5038653,133.25071752489364L662.7972987333333,144.84043051493623L663.6650408,182.85325830896173L664.1328811,156.07995498537701L664.3865607666667,153.6869729912262L666.3819282333333,145.1951837947357L666.6105249666666,138.84011027684141L669.8102924,164.82606616610482L670.6343908333333,148.72863969966292L670.6788225,151.22918381979773L671.3866608666666,134.77451029187864L672.2796702999999,128.30370617512722L673.3748354333334,116.6722237050763L674.4384624666667,146.54833422304577L674.4912104,128.56400053382748L674.6687023333334,135.28740032029646L675.3215292666666,121.87044019217791L675.8543236333334,112.62326411530677L676.1403462,118.54095846918403L677.4878832,150.50457508151044L679.6397339666667,142.40374504890627L680.7177468,95.08124702934379L680.8107347333333,106.75574821760625L682.2108352333333,101.60144893056378L683.2294437666667,132.65486935833823L683.8827234,138.43492161500293L684.3969067666667,145.74595296900176L684.5997331333333,123.73557178140106L687.3760751666667,121.17634306884065L688.0614797333333,133.4378058413044L688.5692582333334,129.39168350478263L689.3226348666667,139.75301010286958L689.9684198,172.99680606172174L691.0142238666667,166.60908363703305L691.9568123333333,180.47945018221986L693.8327173,171.91767010933194L695.5008832666666,152.22760206559914L696.0526407333333,165.4245612393595L696.3529988,137.8107367436157L696.5463687666668,150.8524420461694L698.3611257,139.84046522770169L699.6561662666667,150.999279136621L702.2665518333333,132.17956748197258L702.6101511333334,130.40074048918356L703.8021605333332,143.50844429351014L704.4394112333333,111.80906657610609L705.8370302666666,140.16543994566362L706.3956788333334,133.61726396739815L708.3285569333333,129.6253583804389L709.1742340666667,129.93921502826336L709.9394144333334,131.26152901695798L710.6490300666667,146.54491741017483L711.5302357666667,157.1009504461049L713.8714325000001,137.91957026766292L714.2292499333333,145.18474216059778L714.6645293666667,153.70184529635867L714.8751019333333,151.6301071778152L715.2285264999999,133.75506430668912L716.607501,147.2220385840135L716.6272018333334,152.9082231504081L716.9294545333333,181.64593389024483L719.4176278666667,166.88456033414687L719.6968431666667,180.95973620048812L719.972571,185.3728417202929L721.9897854333333,171.4517050321757L722.2080539,163.98102301930544L723.7687287666666,161.70361381158327L724.6745144,146.98116828694995L728.3385173,120.00370097217001L730.2463627666667,112.13322058330198L730.2893022000001,124.5469323499812L731.3102748333333,124.7501594099887L731.3328595333334,128.58909564599327L731.3515040666667,145.69745738759593L731.7146365333333,154.63947443255753L732.0062424,149.42068465953457L732.0550334,130.85441079572072L734.3294317333333,116.8796464774324L737.8027138,125.3787878864594L739.2603239666666,144.3382727318756L739.3875661999999,160.31296363912534L739.5247175333334,144.6977781834752L739.6086347,147.42466691008508L739.6208240666667,181.25380014605105L741.3304372333333,164.38128008763064L742.2515140666666,170.88976805257835L743.5125015333333,176.11786083154703L746.0773153,167.91471649892821L746.3327051666666,150.95982989935695L746.5209780666667,134.04589793961415L747.6738373000001,135.7415387637685L748.1836948666667,143.56292325826112L749.0687569,156.31975395495664L749.1418260333334,131.46585237297398L749.8146891333333,128.3345114237844L750.0501937333333,124.75470685427064L750.1860540333333,142.32582411256237L750.6072494666668,115.19449446753742L751.9307430666667,133.12469668052242L752.3945090666666,138.52781800831343L752.4525888,151.72369080498805L752.9357035333334,123.22721448299285L754.7734140333333,130.95132868979567L756.8327966333333,135.7747972138774L756.8786031666666,149.69387832832643L757.6266815333333,131.52232699699584L758.0489165,136.81039619819748L764.4960016333333,131.0372377189185L765.1018148333334,133.3063426313511L766.1202724666666,145.12580557881066L767.3248233333334,114.60648334728637L768.7230124333333,131.82689000837183L769.0334472666667,37.57913400502309L771.1604833666667,54.74048040301386L771.8165630333334,85.00828824180832L772.6806667333333,115.45397294508501L774.1316373,80.801383767051L779.0606684333334,121.05683026023058L780.8926615,116.73409815613837L781.4453243666667,104.43845889368305L781.9244989333333,142.54707533620984L782.3677257666667,130.0692452017259L782.8159323,146.3335471210355L782.9345229333334,127.67912827262128L783.2899092,137.71747696357275L783.5760994333333,122.00548617814368L783.9445804666667,134.5652917068862L784.5494547333334,147.01517502413174L786.0649434333333,138.10510501447902L787.1858454,135.7200630086874L787.4885172666667,140.27403780521243L787.7081270666666,141.80942268312745L788.5382112,140.33665360987646L789.9172192333334,134.47599216592593L791.5501584333333,137.2595952995555L792.2682077,136.47275717973332L792.4401163333333,123.77865430784001L792.6346934999999,167.633192584704L793.7871671,137.6239155508224L793.8600518000001,117.66534933049343L794.3415401666666,98.38220959829607L794.5848915666667,115.41432575897767L794.9980390000001,98.60659545538658L795.420559,108.87095727323197L798.5287469,143.94657436393916L800.3612597333333,137.8389446183635L800.3848336666666,132.72536677101814L801.1443133666667,139.3592200626109L801.5868527666667,141.0715320375665L802.6602715333333,133.4679192225399L804.3710416,141.31675153352398L804.4907220666666,128.00805092011436L805.0912202333334,145.28583055206863L806.1909962,140.46949833124117L806.5498867,142.24169899874474L807.5823445,117.53801939924688L808.4641705666667,124.38781163954809L809.4359330333333,120.62268698372884L809.9102117333334,119.43461219023732L810.0509846666666,124.45476731414237L810.3696686999999,124.37986038848541L811.0118152666666,123.95691623309122L812.0317148333334,131.95614973985474L812.9503772666667,124.59668984391286L814.5080509,122.32301390634771L815.0674036666667,118.56480834380864L815.2227971333333,122.42088500628518L815.3070999333333,134.1215310037711L817.5165777333333,139.81891860226267L817.5824036666667,150.48235116135763L818.4977798333333,122.23041069681454L819.2187800333334,110.82324641808873L820.6023988999999,134.21894785085328L820.9276051666667,93.383368710512L821.3401993,123.9440212263072L821.3596486333333,139.88641273578432L822.3009796,110.70684764147057L824.5157221333333,126.65210858488234L825.1434829,124.94226515092942L828.5897874,123.72735909055768L829.8916352333333,139.1894154543346L832.4845499333334,160.1216492726008L832.7425721666666,167.01098956356046L835.681182,141.40859373813626L837.0170829333334,120.94415624288177L837.9063198666666,120.00549374572904L838.3963089333333,115.03229624743744L839.2442831,125.02637774846244L840.0945542999999,92.34082664907748L840.1181114666667,105.48949598944654L840.6928895666666,114.76469759366796L842.1303462,118.94381855620077L842.2903672666666,107.78029113372043L842.6367833666667,119.22617468023225L843.7521188000001,102.59470480813934L844.3475031333334,109.81482288488365L844.7397928333334,131.03089373093016L845.3284034333334,142.8155362385581L846.3399196666667,127.45832174313483L847.8134414,103.81699304588085L847.9542143333333,115.90319582752852L848.1667150666667,115.5949174965171L849.2315996,116.66995049791029L849.4464812,125.12697029874619L850.7729760333334,128.12218217924774L851.0577411,130.36030930754868L854.4007126333333,120.7411855845292L854.6876238333333,129.0187113507175L855.4615396333334,120.3772268104305L855.4958777666666,139.0063360862583L856.3692199,120.95180165175498L857.9147209333333,117.80508099105299L859.5578207333334,126.75304859463176L860.5936486333334,151.96682915677906L861.4371461000001,124.12909749406742L862.1005192666667,117.94745849644045L862.7224452333334,135.34347509786426L863.0164655,116.67508505871854L863.0780159333333,100.7490510352311L864.6090641,92.20143062113868L864.6620132333334,119.95885837268321L865.6845116333333,111.5393150236099L866.6030734666667,32.52558901416592L866.8378906333334,32.17835340849956L866.9049740666667,69.64401204509971L868.1691304333334,105.73140722705989L870.7377837666667,102.24684433623594L871.1672284,101.66810660174156L871.3177930666667,143.5938639610449L871.3397071,142.41531837662694L871.5115654333333,138.4951910259762L872.9896812333334,137.21411461558571L873.0839937333334,130.27146876935143L873.6433129666667,126.92488126161086L873.9231318666666,108.3479287569665L874.2329798666666,137.26975725417992L874.3822032,131.75385435250794L876.2823527666667,103.24431261150477L877.0617345,124.06458756690287L877.1594841666667,133.84775254014173L877.7717525333334,139.02465152408507L877.8180453,139.79979091445105L879.330013,120.10487454867064L879.4748434666667,119.37592472920238L879.8748961333333,115.09555483752143L881.5308224333334,101.94333290251285L881.7781140000001,80.1289997415077L882.1821571333334,109.56539984490462L882.3327050333334,122.43923990694279L882.4000399666667,115.3585439441656L882.7645473,99.39212636649938L883.0044783000001,140.02327581989962L886.1503576666667,153.75496549193974L887.0251585,157.83597929516384L888.3346351666667,144.7235875770983L888.471535,165.45815254625896L889.9430112,160.32189152775538L890.5080311,172.17113491665322L890.7102035666666,172.47668094999196L891.002631,166.61200856999517L891.4307007666666,139.9722051419971L891.7881158,138.73032308519825L892.1013506666667,166.77619385111896L893.0073375,157.26971631067138L893.2967133999999,146.90382978640284L893.8485714666666,128.71429787184167L894.5670901999999,122.65157872310502L894.7251998666667,129.21994723386297L896.0091241333333,130.82996834031778L896.2431868,131.35498100419073L897.0117372666666,144.4589886025144L897.4540419333333,140.85539316150866L897.6112126666666,135.98423589690518L898.6518861333334,142.8265415381431L899.1725917333333,140.19092492288587L899.7765606,130.5455549537315L899.8391338,124.25433297223893L900.5786108666666,136.35559978334334L902.0743484333333,134.73335987000598L902.667704,128.34201592200364L903.4763268,32.84220955320217L903.5412138,53.977325731921326L904.7794321333333,72.7063954391528L904.8062755666666,81.36083726349165L904.9844884666667,125.67650235809495L905.2603001333333,123.285901414857L906.5686199,124.56054084891417L907.1703252666667,127.84532450934847L908.5222886666667,126.16219470560912L908.5516638666667,103.92131682336543L909.1269952666667,130.07779009401926L909.4167232666666,112.38167405641155L909.7583944,114.99400443384695L910.2256143333334,126.1374026603082L910.4167375666667,120.22344159618495L910.6104261,134.50406495771094L911.2937180666667,128.58243897462654L912.3728542666666,133.2194633847759L913.6028904666667,131.02467803086554L914.3242427666667,136.82680681851937L914.8144665666666,152.9710840911116L916.4675425333334,153.081650454667L918.2209502333334,140.10699027280018L919.4355946333334,154.3721941636801L919.9322065333333,146.74031649820807L921.0085427,148.6501898989248L921.8463059666667,140.47211393935493L922.1563216333333,126.05226836361297" style="fill: none;" fill="none"></path></g></g></g></g><g opacity="0.2"><g><g><g><path stroke="rgb(255, 112, 67)" stroke-width="2px" d="M83.96807026666666,313.11L83.97693983333333,319.8825L84.06112526666666,323.19L84.13627346666667,303.66L84.33080033333334,317.835L84.36136596666667,318.78L84.5520365,317.6775L84.56836723333333,325.395L84.6373453,326.4975L84.69296033333333,325.71L84.80053526666667,320.985L84.807812,298.935L84.8324087,306.0225L85.1764607,318.3075L85.3100575,316.4175L85.36013953333334,324.6075L85.5961136,307.9125L85.7245798,291.69L85.80598196666668,288.855L85.83153436666667,315L86.05677776666667,312.48L86.12417976666666,288.225L86.19486803333334,291.06L86.24396083333333,267.59250000000003L86.51160713333333,286.8075L86.56016340000001,299.565L86.88139596666667,285.2325L86.9910332,233.2575L87.12270183333334,276.4125L87.16342806666667,287.90999999999997L87.3653155,274.2075L88.21838673333333,247.4325L88.43412343333333,275.625L88.7951936,278.145L89.22252563333333,285.705L89.58840783333333,244.5975L90.37407706666667,231.525L91.24240596666667,257.1975L91.88674896666667,235.4625L91.92765963333333,209.9475L92.10419586666667,228.69L92.14820836666667,250.58249999999998L92.72806676666667,221.2875L92.80578026666666,204.12L93.3449292,227.115L93.71934563333333,175.76999999999998L94.4488633,232.155L94.84519376666665,261.2925L95.0604107,252.4725L95.29769256666665,223.65L96.05100213333334,198.765L96.75716383333334,168.3675L97.01721483333333,188.055L97.15946323333333,206.48250000000002L97.37037113333334,214.98749999999998L97.4051955,169.3125L97.4521254,139.0725L98.05119839999999,225.3825L98.99491023333333,89.9325L99.16522603333333,168.20999999999998L99.36816976666665,134.34750000000003L99.40931516666667,272.0025L99.53853586666668,118.125L100.1492114,220.5L100.41023486666667,192.15L100.6359142,200.4975L101.51597976666667,209.79L102.09515073333333,224.7525L102.80818676666667,245.385L103.11744793333334,177.03000000000003L104.78313243333334,205.2225L105.00005956666666,123.79500000000002L105.5914199,167.26500000000001L105.70687516666668,167.10750000000002L106.0972367,131.98499999999999L106.19825586666667,141.59250000000003L106.99593003333334,103.63499999999999L107.23212206666666,82.21500000000003L107.9244848,160.02L108.6297411,146.63250000000002L108.6465413,188.685L109.63746806666667,222.705L109.95789583333332,117.02249999999998L109.99501723333333,173.25L110.10074783333333,125.52749999999997L110.6321841,84.42000000000002L110.65882633333334,96.23250000000002L110.91991686666667,130.8825L111.03580806666668,110.40750000000003L111.68786373333333,124.73999999999998L112.01962576666666,143.16750000000002L112.16284663333333,79.38L115.02486633333334,176.4L116.2704117,157.5L117.36435286666668,202.86L119.7595215,105.9975L121.40853993333333,161.91L122.3499715,113.2425L123.00469306666666,102.375L123.07370466666667,86.15249999999997L124.45940259999999,67.09499999999997L125.9137768,133.08749999999998L126.70241373333334,119.54250000000002L127.54391596666667,151.3575L127.85815683333334,124.58250000000001L127.90413103333333,135.60750000000002L127.92666543333333,134.82000000000002L129.29090203333334,107.88749999999999L131.7797628,77.96250000000003L132.79354253333335,95.13L133.5579684,118.44L136.51428383333334,205.38L136.97322103333332,87.57L137.0312337,93.39749999999998L138.24747093333332,146.63250000000002L139.73789346666666,81.58499999999998L140.12916040000002,158.6025L141.478307,-13.545000000000016L142.02890756666665,81.26999999999998L142.19347240000002,159.5475L145.1695557333333,43.942499999999995L145.9391289666667,107.41500000000002L146.67835453333333,100.01249999999999L148.08831383333333,78.59249999999997L149.78614003333334,146.3175L152.49112313333333,85.68L152.64136923333334,160.17749999999998L153.32377256666666,78.27749999999997L153.46610479999998,13.859999999999957L154.28909663333334,83.6325L155.4269497,193.88250000000002L155.75145176666666,147.2625L155.8224083,8.662500000000023L158.1136403666667,99.3825L160.7745942,54.18000000000001L161.2695462,10.552500000000009L161.86999406666666,120.80250000000001L164.66325366666666,128.3625L165.74847616666668,-1.1025000000000205L165.91458353333334,11.024999999999977L166.1679111,47.72249999999997L168.31263603333332,19.372500000000002L169.49943100000002,50.39999999999998L169.9060059,125.05499999999998L171.04734643333333,25.829999999999984L171.42986116666668,-73.71000000000004L172.6864893,79.065L174.73725383333334,74.8125L175.0014462,84.42000000000002L175.08854903333332,77.33249999999998L177.39081356666668,26.14500000000004L177.44191836666667,134.0325L179.11003403333333,52.13249999999999L179.96592206666668,76.07249999999999L183.2186889333333,18.269999999999982L185.9534161,114.34499999999997L186.40338313333334,-7.087500000000034L186.85618373333332,148.05L188.7112645,11.65500000000003L191.491094,51.817499999999995L191.53914726666667,124.26749999999998L192.50012876666668,125.52749999999997L195.87576176666667,77.49000000000001L196.36898680000002,76.70249999999999L197.68882526666667,-1.2600000000000477L200.3270938,38.43000000000001L200.84813473333335,26.932500000000005L200.92734046666666,43.785000000000025L202.02424933333333,-2.8350000000000364L202.23797403333333,45.20250000000004L203.34205903333333,44.57249999999999L204.01668263333332,48.03750000000002L205.82278796666665,50.24250000000001L206.3857791,94.02750000000003L209.6559833,94.34250000000003L209.98990823333332,32.60250000000002L211.60894786666665,78.12L212.19381950000002,73.70999999999998L212.56582153333332,30.24000000000001L212.73798166666668,46.46249999999998L213.10738486666668,23.78249999999997L214.77841793333332,-30.555000000000007L215.47451963333336,89.30250000000001L215.6488762,-33.232500000000016L216.38816883333334,108.35999999999996L217.4589217,36.85500000000002L218.15244133333334,54.495000000000005L221.06025079999998,116.70749999999998L221.7858283,7.087500000000034L223.50939133333333,66.46499999999997L224.34982050000002,111.03749999999997L225.94501793333333,90.8775L227.1723044,-8.82000000000005L227.25922279999997,42.36750000000001L227.60325803333333,89.46000000000004L228.58088883333335,19.6875L231.79695346666668,15.120000000000005L232.07299986666666,-25.514999999999986L232.50604933333335,107.88749999999999L235.35564493333334,107.88749999999999L236.1499993,6.457499999999982L236.7805098,-25.357500000000016L239.52288256666668,205.69500000000002L239.76366866666666,76.38749999999999L241.04814623333334,2.992500000000007L242.81743196666667,49.139999999999986L243.71508576666668,80.32499999999999L245.5353757,190.89000000000001L246.05096746666666,95.28750000000002L246.36574486666666,43.15499999999997L246.4055154,-27.090000000000032L246.95011350000001,123.00750000000002L247.63607136666667,51.1875L248.1907127,72.44999999999999L249.67982743333332,92.61000000000001L249.9913521,65.36250000000001L250.07833756666665,53.55000000000001L250.48117349999998,59.53499999999997L251.4249524,163.01250000000002L255.3430876666667,27.720000000000027L256.595893,-2.8350000000000364L256.7665106,75.91499999999996L258.76122416666664,141.435L259.57952133333333,86.31L259.86596306666667,95.60250000000002L260.9062006,-12.12749999999994L262.8275935333333,-8.347499999999968L263.74872066666666,107.88749999999999L265.5444306666667,81.58499999999998L266.61196433333333,22.837499999999977L267.3081834,31.027499999999975L267.8327285666667,31.5L271.145671,97.8075L272.1848857666667,79.53750000000002L272.38258153333334,46.46249999999998L274.4124045,133.7175L275.76384813333334,-52.762500000000045L276.60942466666665,6.300000000000011L276.76238696666667,10.394999999999982L277.02280683333333,79.38L279.7730096333333,-12.600000000000023L279.8713629,-92.29500000000002L280.72664733333335,70.71750000000003L281.01826996666665,41.422500000000014L282.7690285333333,160.65L283.7812992666667,25.19999999999999L284.7591648,13.387499999999989L284.7873495666667,81.7425L286.61042276666666,-6.7724999999999795L290.15241463333336,-7.402499999999975L290.2226334333334,186.795L291.8123984666667,43.942499999999995L292.5834639333333,47.25L292.69442573333333,-8.977499999999964L293.3048665333333,129.6225L293.5106773666667,62.21249999999998L295.25424303333335,42.36750000000001L295.40619933333335,121.27499999999998L296.9944721333333,78.90749999999997L297.24157926666663,114.8175L302.1010455,56.38499999999999L302.31564206666667,133.875L303.08585243333334,142.8525L304.8029770666667,47.09250000000003L305.6852055333333,101.43L307.5873671,12.600000000000023L307.67854423333335,46.935L308.2791597666667,-36.22500000000002L308.47370340000003,57.80250000000001L309.2551977333334,56.69999999999999L311.30507363333334,106.3125L311.56249226666665,71.19L311.7779774666667,2.204999999999984L312.1585305,53.392499999999984L312.7804564666667,107.2575L313.8529866,66.6225L314.68784923333334,65.04750000000001L315.37030286666663,128.04749999999999L315.8961726,168.3675L317.9883172666667,152.3025L320.1309966666667,105.6825L321.2503728666666,93.555L321.8537046,108.67500000000001L323.6795443,114.5025L325.91031576666666,17.639999999999986L326.0313543333333,118.125L326.12771236666663,74.4975L326.8620253,-30.87000000000006L329.23987396666666,88.82999999999998L329.70590346666665,73.23750000000001L331.7098554666666,71.19L332.28221916666666,10.394999999999982L332.4737280333333,127.89000000000001L335.6738811,36.22500000000002L335.7635492333333,33.704999999999984L336.32979309999996,88.19999999999999L338.0125293,109.305L338.2850714666667,109.14749999999998L338.4056573333333,80.32499999999999L339.2127879,128.20499999999998L340.13867676666666,38.902499999999975L341.6030103666667,143.64000000000001L342.1012318666667,129.30749999999998L342.5026761666666,146.63250000000002L342.9337807,166.1625L343.45931509999997,50.714999999999975L344.64999993333333,65.67750000000001L345.8692048666666,12.600000000000023L345.89292969999997,123.63749999999999L346.49555723333333,113.8725L347.51813946666664,56.22750000000002L347.80339076666667,95.28750000000002L348.21353696666665,119.69999999999999L348.44054086666665,100.95749999999998L348.78596773333334,163.64249999999998L349.8774777333333,147.735L349.96276976666667,85.83749999999998L350.8939233666667,129.78000000000003L351.0113738666667,106.6275L351.6451035666667,43.46999999999997L351.8076731666667,59.21999999999997L351.87165476666667,41.73750000000001L353.0112683333333,59.692499999999995L353.19226449999996,48.66750000000002L353.5272960333333,98.59500000000003L353.67314926666666,61.267499999999984L355.51109449999996,46.77750000000003L356.08042343333335,34.49250000000001L356.33930076666667,128.20499999999998L357.5945037333333,120.01499999999999L358.25789366666663,55.754999999999995L358.31999740000003,51.5025L358.3535978,30.870000000000005L359.94549220000005,70.40250000000003L364.2970625666667,124.58250000000001L365.7330605,-203.01750000000004L366.31994413333337,19.6875L367.138191,-11.970000000000027L367.3583541,94.97249999999997L367.82191889999996,84.57749999999999L368.26568226666666,69.45749999999998L369.0898980666667,92.13749999999999L370.37668943333335,113.8725L370.94833216666666,134.82000000000002L371.31865753333335,156.87L373.21248606666666,133.875L376.28117169999996,95.60250000000002L378.7969597333333,25.829999999999984L378.92435286666665,166.635L379.85513760000003,50.08499999999998L380.64947520000004,246.33L383.2449216666667,183.80249999999998L383.93855866666667,52.920000000000016L384.0416904333334,94.815L384.4847328333333,38.58749999999998L385.5866046333333,43.46999999999997L387.25341249999997,4.724999999999966L387.3438519,110.25L387.7587430666666,94.815L390.2470840666667,127.10250000000002L391.6002714333333,125.2125L393.9917514,25.19999999999999L397.0609568,168.84L397.8276294,143.325L399.31821959999996,48.19499999999999L399.73010953333335,183.015L400.5341550333333,116.86500000000001L402.297891,142.38000000000002L402.76615046666666,197.9775L403.8759864333333,108.35999999999996L404.40953529999996,85.52249999999998L405.83500376666666,156.24L406.2308647666667,227.745L406.9031913333333,164.115L407.4120261333333,79.695L407.6987026,174.51L408.03864676666666,75.1275L408.14144319999997,77.01749999999998L408.5610458,166.00500000000002L409.48356456666664,111.50999999999999L410.5177493333333,50.24250000000001L411.37011636666665,88.67250000000001L414.14937580000003,115.29000000000002L415.5017751333333,105.9975L415.61723040000004,79.065L416.1447432666667,107.41500000000002L417.40224326666663,35.90999999999997L418.2185452,-123.48000000000002L419.2387298,150.255L420.4952238,163.8L421.08371703333336,37.48499999999996L422.6577717,100.48500000000001L422.7435667333333,78.75L424.45289486666667,97.17750000000001L425.1673896,90.2475L426.02166803333336,165.06L426.94998806666666,106.46999999999997L427.5267614,91.5075L427.9145911666667,214.3575L429.27381453333334,116.39249999999998L429.8135838333333,72.60750000000002L430.13833739999995,140.33249999999998L430.2800828,128.20499999999998L430.8296103,73.23750000000001L432.9340281666667,144.4275L436.3894202,171.8325L438.0079736,88.04250000000002L438.15873946666665,123.47999999999999L438.40205733333335,125.05499999999998L438.8159257333333,130.56750000000002L439.1344588666667,37.95750000000004L439.26616103333333,132.93L440.66408186666666,125.8425L441.94703366666664,101.43L443.1180679666667,64.57499999999999L443.994579,175.14000000000001L444.5781260666667,86.31L444.6353171666667,160.8075L446.56915096666665,130.56750000000002L446.74365843333334,102.53249999999997L447.44041403333335,132.1425L447.6636957333333,63.787499999999966L447.7714048,143.16750000000002L447.90295606666666,129.30749999999998L450.1749064666667,148.05L450.1930815333333,175.76999999999998L450.3682429,121.1175L450.46626083333337,73.55250000000001L450.86347993333334,105.6825L452.4992527,108.67500000000001L452.9452628,136.71L453.75168916666667,123.63749999999999L456.1572028333333,108.20249999999999L457.80068826666667,143.48250000000002L458.9032475,91.5075L459.96630446666666,116.07750000000004L460.4077875666667,242.07750000000001L462.0662959333333,139.85999999999999L463.4630766333333,180.02249999999998L464.0375697,121.27499999999998L465.9779425,141.75L466.6478379,123.95249999999999L467.07753403333334,123.47999999999999L467.1231729,152.93249999999998L467.9319633666667,177.5025L468.67833153333333,220.815L470.1061473333333,208.0575L473.6542087333333,107.10000000000002L474.2157244,135.9225L474.45463263333335,110.88L474.5976690666667,96.54749999999996L475.695148,95.91750000000002L475.7608733333333,125.8425L476.2349676,129.465L476.68919336666664,136.71L479.44216266666666,104.57999999999998L479.752346,105.52499999999998L482.1996422,84.89249999999998L482.6988697,81.11250000000001L484.4093212,166.00500000000002L485.8979161666666,146.16000000000003L487.5824464,136.71L488.1128263666667,176.55749999999998L488.4931446666667,83.47500000000002L489.65975256666667,202.545L490.4417163666667,123.47999999999999L491.96711416666665,75.91499999999996L493.24307426666667,185.85000000000002L493.8995228,181.755L494.01640323333334,107.73000000000002L495.6209229333333,117.33749999999998L496.52970980000003,99.0675L497.7124137,157.97250000000003L499.1811737,165.8475L499.20870456666665,87.88499999999999L499.99841456666667,172.62L500.30988893333335,96.54749999999996L501.3206171333333,117.02249999999998L505.46330836666664,122.3775L506.20305370000005,117.495L507.0192382666667,109.46249999999998L508.51901660000004,119.38499999999999L508.74348873333327,157.18500000000003L509.67444113333335,134.0325L509.8673081,51.660000000000025L510.5029492,-122.0625L510.9340705000001,57.64499999999998L510.97850216666666,177.81750000000002L511.5116151,149.7825L511.5338812333333,137.33999999999997L511.55827673333334,117.33749999999998L511.63226803333333,104.10750000000002L512.0528263333333,132.29999999999998L512.9587796333333,125.685L513.6778684333333,94.5L514.1872900666667,131.1975L514.6181934,92.13749999999999L514.8654849666666,97.33499999999998L517.0020612999999,-85.995L517.3522499000001,28.192499999999995L517.8313741666667,120.80250000000001L518.0224135666667,128.04749999999999L518.1931317666666,105.05250000000001L518.2168566,123.63749999999999L518.9429203333333,62.84250000000003L519.213702,87.41249999999997L519.6720020666667,144.7425L521.3144144333334,85.995L522.5112861666667,200.655L522.5303331,167.58L523.2136753666667,100.64249999999998L524.1169292333334,96.38999999999999L526.7625583333333,76.38749999999999L527.3590827999999,155.60999999999999L527.4408035333333,6.772500000000036L527.6420538333333,169.155L528.3102558,151.67249999999999L529.0912471333334,161.75249999999997L529.3866255,112.76999999999998L530.3126652666667,185.6925L530.9206581333333,75.4425L531.2924589666667,163.17L532.8683579666667,110.09250000000003L533.3974636666667,119.85750000000002L534.0564607333333,97.8075L535.3001785333333,116.55000000000001L538.358385,170.8875L538.3831829,113.5575L540.6515452333334,96.70499999999998L541.7124225333333,181.755L544.630795,31.5L544.7789788,141.11999999999998L547.6379469666666,114.02999999999997L548.713143,130.41L549.6315874666666,196.56L550.1905546,131.82750000000001L550.6637267,103.16250000000002L550.7777568,140.01749999999998L551.2984624000001,112.29750000000001L551.8232926,126.1575L552.3088049666667,129.78000000000003L553.9292194666667,119.69999999999999L555.1754187333333,160.335L556.5073627333334,85.20750000000004L557.5440792666667,154.5075L557.6396660333334,152.775L558.2356875,103.63499999999999L562.5522993666667,115.1325L562.9522011333333,133.245L563.0096102,129.15L563.5343901,149.4675L563.7089478666667,162.22500000000002L564.7887547333333,106.6275L565.1433362,126.31499999999997L566.2373109,94.185L566.5434534666666,165.53249999999997L566.8031859,147.42000000000002L567.0460678333333,113.5575L568.1352304999999,173.0925L568.3986013000001,141.59250000000003L568.5344783666667,174.51L569.9182481333333,137.8125L570.5406771,134.0325L571.0538377,114.97500000000002L572.7211653333334,78.435L573.2321965666666,90.40499999999997L573.9893457,148.36499999999998L574.3810821,83.0025L574.5408516666668,141.59250000000003L575.4465199333333,170.73L575.7435917333333,151.9875L575.8561966666667,98.28000000000003L575.9933312333333,131.1975L576.0606326333333,208.215L577.8497868666667,94.34250000000003L577.8770494666667,90.40499999999997L577.9215482,190.89000000000001L578.8833009666666,137.1825L578.9465280666666,155.60999999999999L579.7039287,122.53500000000003L580.2797631,180.02249999999998L580.3376919333334,233.1L580.4449986,151.82999999999998L581.7176221333334,104.73750000000001L582.0677939666667,118.44L582.2634609666667,113.2425L582.3110950666667,131.1975L583.5073632,104.10750000000002L583.8487493,48.35250000000002L584.8509935666667,116.07750000000004L586.0180541666666,55.28249999999997L586.9876872666666,120.48750000000001L587.3025652666666,62.527499999999975L587.3325608333333,64.73250000000002L587.7783362,167.42249999999999L587.8400878333333,142.38000000000002L587.9603719,103.32L588.2560353,134.19L590.9377295,102.21749999999997L591.4560542333334,85.52249999999998L593.0645476333333,119.07L593.0983995333333,28.507499999999993L593.1710327333333,151.3575L593.193936,131.35500000000002L594.1081049666667,122.3775L594.3469629,210.26250000000002L594.9638085666667,108.83250000000004L595.7361650666667,61.89749999999998L596.3126701333333,100.95749999999998L597.1744768000001,61.10999999999996L598.0413973000001,132.1425L599.0053632666667,70.40250000000003L599.2199095333333,-129.46500000000003L599.9684909,119.85750000000002L600.2742646,148.36499999999998L601.7914467333334,141.90749999999997L603.314799,8.347500000000025L603.8442567999999,151.82999999999998L605.8996489333333,99.3825L605.9709575666666,128.20499999999998L606.1173305666666,107.57249999999999L607.7111531333334,73.07999999999998L608.1145926666667,190.1025L609.8289507999999,97.33499999999998L610.6961898666667,227.115L610.7213566333334,110.09250000000003L614.4672647,129.6225L615.4418607333334,140.01749999999998L615.4625675666667,151.9875L616.9328030333332,118.125L617.0537913000001,155.60999999999999L617.5207765,120.64500000000004L617.6429887333334,166.4775L618.1355095666667,132.77249999999998L618.2727615,140.01749999999998L619.5918622333334,147.89249999999998L620.9686570666667,127.57500000000002L621.6961962666667,121.58999999999997L621.8616329666667,150.57L626.7774855,131.98499999999999L627.3814040666666,126.4725L627.6985288000001,180.495L628.3690278,139.70250000000001L628.5269698,117.81L628.7774302666667,66.3075L628.8871513333333,158.76000000000002L629.0883010333333,103.32L629.4035814333333,155.7675L630.0762601,90.2475L631.6621184999999,133.7175L631.73279,102.06L632.7729269333333,78.59249999999997L633.5806443333333,117.495L634.4538020333333,125.05499999999998L636.5892885333333,114.5025L636.9629504666666,3.464999999999975L639.4632964,106.46999999999997L639.6272576333333,166.635L639.9386984666667,94.02750000000003L641.1256778666667,148.2075L641.4010703666667,144.58499999999998L641.4201508333333,167.26500000000001L643.4651643999999,93.39749999999998L643.5360371,53.077499999999986L646.956085,60.32249999999999L647.0349554000001,145.845L647.0570874,138.60000000000002L647.4716935333333,126L647.7982579000001,208.53L648.0527759,117.33749999999998L648.3021297666667,143.955L648.4326414999999,116.70749999999998L648.5516177666667,46.935L648.6283252666667,176.55749999999998L648.7672371,88.51499999999999L649.3213586666667,130.8825L649.5470882999999,107.88749999999999L650.1405109333333,65.83500000000004L650.1809353666666,181.2825L651.2307969666666,141.90749999999997L651.7623338333333,103.005L652.9858142666667,72.76499999999999L653.5316028000001,108.04500000000002L653.9614163,131.5125L654.2681792333333,111.50999999999999L655.0015029333333,142.695L657.5034752333332,185.535L658.6208729666666,102.84750000000003L659.9484911666666,177.66L660.3898568999999,147.42000000000002L660.6669428333333,157.18500000000003L661.1057935666666,94.5L662.5038653,139.545L662.7972987333333,162.22500000000002L663.6650408,239.8725L664.1328811,115.92000000000002L664.3865607666667,150.0975L666.3819282333333,132.4575L666.6105249666666,129.30749999999998L669.8102924,203.805L670.6343908333333,124.58250000000001L670.6788225,154.98000000000002L671.3866608666666,110.09250000000003L672.2796702999999,118.59749999999997L673.3748354333334,99.22499999999997L674.4384624666667,191.36249999999998L674.4912104,101.58750000000003L674.6687023333334,145.37250000000003L675.3215292666666,101.745L675.8543236333334,98.7525L676.1403462,127.41749999999999L677.4878832,198.45000000000002L679.6397339666667,130.2525L680.7177468,24.097499999999968L680.8107347333333,124.26749999999998L682.2108352333333,93.87L683.2294437666667,179.23499999999999L683.8827234,147.105L684.3969067666667,156.71249999999998L684.5997331333333,90.71999999999997L687.3760751666667,117.33749999999998L688.0614797333333,151.82999999999998L688.5692582333334,123.32250000000002L689.3226348666667,155.29500000000002L689.9684198,222.8625L691.0142238666667,157.0275L691.9568123333333,201.285L693.8327173,159.075L695.5008832666666,122.6925L696.0526407333333,185.22L696.3529988,96.38999999999999L696.5463687666668,170.415L698.3611257,123.32250000000002L699.6561662666667,167.73749999999998L702.2665518333333,103.94999999999999L702.6101511333334,127.73249999999999L703.8021605333332,163.17L704.4394112333333,64.25999999999999L705.8370302666666,182.7L706.3956788333334,123.79500000000002L708.3285569333333,123.63749999999999L709.1742340666667,130.41L709.9394144333334,133.245L710.6490300666667,169.47L711.5302357666667,172.935L713.8714325000001,109.14749999999998L714.2292499333333,156.0825L714.6645293666667,166.4775L714.8751019333333,148.5225L715.2285264999999,106.9425L716.607501,167.42249999999999L716.6272018333334,161.4375L716.9294545333333,224.7525L719.4176278666667,144.7425L719.6968431666667,202.07250000000002L719.972571,191.9925L721.9897854333333,150.57L722.2080539,152.775L723.7687287666666,158.2875L724.6745144,124.89750000000001L728.3385173,79.53750000000002L730.2463627666667,100.32749999999999L730.2893022000001,143.16750000000002L731.3102748333333,125.05499999999998L731.3328595333334,134.34750000000003L731.3515040666667,171.36L731.7146365333333,168.0525L732.0062424,141.59250000000003L732.0550334,103.005L734.3294317333333,95.91750000000002L737.8027138,138.12749999999997L739.2603239666666,172.77749999999997L739.3875661999999,184.275L739.5247175333334,121.27499999999998L739.6086347,151.51500000000001L739.6208240666667,231.9975L741.3304372333333,139.0725L742.2515140666666,180.6525L743.5125015333333,183.96L746.0773153,155.60999999999999L746.3327051666666,125.52749999999997L746.5209780666667,108.67500000000001L747.6738373000001,138.285L748.1836948666667,155.29500000000002L749.0687569,175.45499999999998L749.1418260333334,94.185L749.8146891333333,123.63749999999999L750.0501937333333,119.38499999999999L750.1860540333333,168.6825L750.6072494666668,74.4975L751.9307430666667,160.02L752.3945090666666,146.63250000000002L752.4525888,171.51749999999998L752.9357035333334,80.48250000000002L754.7734140333333,142.5375L756.8327966333333,143.01L756.8786031666666,170.57250000000002L757.6266815333333,104.26500000000004L758.0489165,144.7425L764.4960016333333,122.3775L765.1018148333334,136.71L766.1202724666666,162.855L767.3248233333334,68.82750000000004L768.7230124333333,157.6575L769.0334472666667,-103.79250000000002L771.1604833666667,80.48250000000002L771.8165630333334,130.41L772.6806667333333,161.1225L774.1316373,28.82249999999999L779.0606684333334,181.44L780.8926615,110.25L781.4453243666667,85.995L781.9244989333333,199.71L782.3677257666667,111.35249999999996L782.8159323,170.73L782.9345229333334,99.69749999999999L783.2899092,152.775L783.5760994333333,98.4375L783.9445804666667,153.40500000000003L784.5494547333334,165.69L786.0649434333333,124.73999999999998L787.1858454,132.1425L787.4885172666667,147.105L787.7081270666666,144.11249999999998L788.5382112,138.12749999999997L789.9172192333334,125.685L791.5501584333333,141.435L792.2682077,135.2925L792.4401163333333,104.73750000000001L792.6346934999999,233.415L793.7871671,92.61000000000001L793.8600518000001,87.72749999999996L794.3415401666666,69.45749999999998L794.5848915666667,140.9625L794.9980390000001,73.39500000000004L795.420559,124.26749999999998L798.5287469,196.56L800.3612597333333,128.6775L800.3848336666666,125.05499999999998L801.1443133666667,149.31L801.5868527666667,143.64000000000001L802.6602715333333,122.0625L804.3710416,153.09L804.4907220666666,108.04500000000002L805.0912202333334,171.2025L806.1909962,133.245L806.5498867,144.89999999999998L807.5823445,80.48250000000002L808.4641705666667,134.6625L809.4359330333333,114.97500000000002L809.9102117333334,117.65250000000003L810.0509846666666,131.98499999999999L810.3696686999999,124.26749999999998L811.0118152666666,123.32250000000002L812.0317148333334,143.955L812.9503772666667,113.5575L814.5080509,118.91250000000002L815.0674036666667,112.92750000000001L815.2227971333333,128.20499999999998L815.3070999333333,151.67249999999999L817.5165777333333,148.36499999999998L817.5824036666667,166.4775L818.4977798333333,79.85250000000002L819.2187800333334,93.71249999999998L820.6023988999999,169.3125L820.9276051666667,32.129999999999995L821.3401993,169.78500000000003L821.3596486333333,163.8L822.3009796,66.9375L824.5157221333333,150.57L825.1434829,122.3775L828.5897874,121.90500000000003L829.8916352333333,162.3825L832.4845499333334,191.51999999999998L832.7425721666666,177.34499999999997L835.681182,103.005L837.0170829333334,90.2475L837.9063198666666,118.59749999999997L838.3963089333333,107.57249999999999L839.2442831,140.01749999999998L840.0945542999999,43.3125L840.1181114666667,125.2125L840.6928895666666,128.6775L842.1303462,125.2125L842.2903672666666,91.03500000000003L842.6367833666667,136.395L843.7521188000001,77.64750000000004L844.3475031333334,120.64500000000004L844.7397928333334,162.855L845.3284034333334,160.49249999999998L846.3399196666667,104.42250000000001L847.8134414,68.35499999999996L847.9542143333333,134.0325L848.1667150666667,115.1325L849.2315996,118.28249999999997L849.4464812,137.8125L850.7729760333334,132.615L851.0577411,133.7175L854.4007126333333,106.3125L854.6876238333333,141.435L855.4615396333334,107.41500000000002L855.4958777666666,166.95L856.3692199,93.87L857.9147209333333,113.08500000000004L859.5578207333334,140.175L860.5936486333334,189.7875L861.4371461000001,82.3725L862.1005192666667,108.67500000000001L862.7224452333334,161.4375L863.0164655,88.67250000000001L863.0780159333333,76.86000000000001L864.6090641,79.38L864.6620132333334,161.595L865.6845116333333,98.91000000000003L866.6030734666667,-85.995L866.8378906333334,31.65749999999997L866.9049740666667,125.8425L868.1691304333334,159.8625L870.7377837666667,97.02000000000004L871.1672284,100.80000000000001L871.3177930666667,206.48250000000002L871.3397071,140.6475L871.5115654333333,132.615L872.9896812333334,135.2925L873.0839937333334,119.85750000000002L873.6433129666667,121.90500000000003L873.9231318666666,80.48250000000002L874.2329798666666,180.6525L874.3822032,123.47999999999999L876.2823527666667,60.48000000000002L877.0617345,155.29500000000002L877.1594841666667,148.5225L877.7717525333334,146.79L877.8180453,140.9625L879.330013,90.5625L879.4748434666667,118.28249999999997L879.8748961333333,108.67500000000001L881.5308224333334,82.21500000000003L881.7781140000001,47.40749999999997L882.1821571333334,153.71999999999997L882.3327050333334,141.75L882.4000399666667,104.73750000000001L882.7645473,75.4425L883.0044783000001,200.97L886.1503576666667,174.35250000000002L887.0251585,163.95749999999998L888.3346351666667,125.05499999999998L888.471535,196.56L889.9430112,152.6175L890.5080311,189.945L890.7102035666666,172.935L891.002631,157.815L891.4307007666666,100.01249999999999L891.7881158,136.86749999999998L892.1013506666667,208.845L893.0073375,143.01L893.2967133999999,131.35500000000002L893.8485714666666,101.43L894.5670901999999,113.5575L894.7251998666667,139.0725L896.0091241333333,133.245L896.2431868,132.1425L897.0117372666666,164.115L897.4540419333333,135.45L897.6112126666666,128.6775L898.6518861333334,153.09L899.1725917333333,136.2375L899.7765606,116.07750000000004L899.8391338,114.8175L900.5786108666666,154.5075L902.0743484333333,132.29999999999998L902.667704,118.755L903.4763268,-110.40749999999997L903.5412138,85.68L904.7794321333333,100.80000000000001L904.8062755666666,94.34250000000003L904.9844884666667,192.15L905.2603001333333,119.69999999999999L906.5686199,126.4725L907.1703252666667,132.77249999999998L908.5222886666667,123.63749999999999L908.5516638666667,70.56L909.1269952666667,169.3125L909.4167232666666,85.83749999999998L909.7583944,118.91250000000002L910.2256143333334,142.8525L910.4167375666667,111.35249999999996L910.6104261,155.92499999999998L911.2937180666667,119.69999999999999L912.3728542666666,140.175L913.6028904666667,127.73249999999999L914.3242427666667,145.53L914.8144665666666,177.1875L916.4675425333334,153.2475L918.2209502333334,120.64500000000004L919.4355946333334,175.76999999999998L919.9322065333333,135.2925L921.0085427,151.51500000000001L921.8463059666667,128.20499999999998L922.1563216333333,104.42250000000001" style="fill: none;" fill="none"></path></g></g></g></g></g></g><g transform="translate(70, 378)" clip-path="url(#clip_1)"><clipPath id="clip_1"><rect width="1006" height="22"></rect></clipPath><g><g><line x1="0" y1="0" x2="0" y2="5" style="visibility: inherit;" fill="rgb(0, 0, 0)" stroke="rgb(204, 204, 204)" stroke-width="1px"></line><line x1="83.83333333333333" y1="0" x2="83.83333333333333" y2="5" style="visibility: inherit;" fill="rgb(0, 0, 0)" stroke="rgb(204, 204, 204)" stroke-width="1px"></line><line x1="167.66666666666666" y1="0" x2="167.66666666666666" y2="5" style="visibility: inherit;" fill="rgb(0, 0, 0)" stroke="rgb(204, 204, 204)" stroke-width="1px"></line><line x1="251.5" y1="0" x2="251.5" y2="5" style="visibility: inherit;" fill="rgb(0, 0, 0)" stroke="rgb(204, 204, 204)" stroke-width="1px"></line><line x1="335.3333333333333" y1="0" x2="335.3333333333333" y2="5" style="visibility: inherit;" fill="rgb(0, 0, 0)" stroke="rgb(204, 204, 204)" stroke-width="1px"></line><line x1="419.1666666666667" y1="0" x2="419.1666666666667" y2="5" style="visibility: inherit;" fill="rgb(0, 0, 0)" stroke="rgb(204, 204, 204)" stroke-width="1px"></line><line x1="503" y1="0" x2="503" y2="5" style="visibility: inherit;" fill="rgb(0, 0, 0)" stroke="rgb(204, 204, 204)" stroke-width="1px"></line><line x1="586.8333333333334" y1="0" x2="586.8333333333334" y2="5" style="visibility: inherit;" fill="rgb(0, 0, 0)" stroke="rgb(204, 204, 204)" stroke-width="1px"></line><line x1="670.6666666666666" y1="0" x2="670.6666666666666" y2="5" style="visibility: inherit;" fill="rgb(0, 0, 0)" stroke="rgb(204, 204, 204)" stroke-width="1px"></line><line x1="754.5" y1="0" x2="754.5" y2="5" style="visibility: inherit;" fill="rgb(0, 0, 0)" stroke="rgb(204, 204, 204)" stroke-width="1px"></line><line x1="838.3333333333334" y1="0" x2="838.3333333333334" y2="5" style="visibility: inherit;" fill="rgb(0, 0, 0)" stroke="rgb(204, 204, 204)" stroke-width="1px"></line><line x1="922.1666666666666" y1="0" x2="922.1666666666666" y2="5" style="visibility: inherit;" fill="rgb(0, 0, 0)" stroke="rgb(204, 204, 204)" stroke-width="1px"></line><line x1="1006" y1="0" x2="1006" y2="5" style="visibility: inherit;" fill="rgb(0, 0, 0)" stroke="rgb(204, 204, 204)" stroke-width="1px"></line></g><g transform="translate(0, 8)"><text x="0" y="0" dx="0em" dy="0.95em" style="text-anchor: middle; visibility: hidden; font-family: &quot;Helvetica Neue&quot;, sans-serif; font-size: 12px; font-weight: 200;" fill="rgb(50, 49, 63)" stroke="none" stroke-width="1px">-5M</text><text x="83.83333333333333" y="0" dx="0em" dy="0.95em" style="text-anchor: middle; visibility: inherit; font-family: &quot;Helvetica Neue&quot;, sans-serif; font-size: 12px; font-weight: 200;" fill="rgb(50, 49, 63)" stroke="none" stroke-width="1px">0</text><text x="167.66666666666666" y="0" dx="0em" dy="0.95em" style="text-anchor: middle; visibility: inherit; font-family: &quot;Helvetica Neue&quot;, sans-serif; font-size: 12px; font-weight: 200;" fill="rgb(50, 49, 63)" stroke="none" stroke-width="1px">5M</text><text x="251.5" y="0" dx="0em" dy="0.95em" style="text-anchor: middle; visibility: inherit; font-family: &quot;Helvetica Neue&quot;, sans-serif; font-size: 12px; font-weight: 200;" fill="rgb(50, 49, 63)" stroke="none" stroke-width="1px">10M</text><text x="335.3333333333333" y="0" dx="0em" dy="0.95em" style="text-anchor: middle; visibility: inherit; font-family: &quot;Helvetica Neue&quot;, sans-serif; font-size: 12px; font-weight: 200;" fill="rgb(50, 49, 63)" stroke="none" stroke-width="1px">15M</text><text x="419.1666666666667" y="0" dx="0em" dy="0.95em" style="text-anchor: middle; visibility: inherit; font-family: &quot;Helvetica Neue&quot;, sans-serif; font-size: 12px; font-weight: 200;" fill="rgb(50, 49, 63)" stroke="none" stroke-width="1px">20M</text><text x="503" y="0" dx="0em" dy="0.95em" style="text-anchor: middle; visibility: inherit; font-family: &quot;Helvetica Neue&quot;, sans-serif; font-size: 12px; font-weight: 200;" fill="rgb(50, 49, 63)" stroke="none" stroke-width="1px">25M</text><text x="586.8333333333334" y="0" dx="0em" dy="0.95em" style="text-anchor: middle; visibility: inherit; font-family: &quot;Helvetica Neue&quot;, sans-serif; font-size: 12px; font-weight: 200;" fill="rgb(50, 49, 63)" stroke="none" stroke-width="1px">30M</text><text x="670.6666666666666" y="0" dx="0em" dy="0.95em" style="text-anchor: middle; visibility: inherit; font-family: &quot;Helvetica Neue&quot;, sans-serif; font-size: 12px; font-weight: 200;" fill="rgb(50, 49, 63)" stroke="none" stroke-width="1px">35M</text><text x="754.5" y="0" dx="0em" dy="0.95em" style="text-anchor: middle; visibility: inherit; font-family: &quot;Helvetica Neue&quot;, sans-serif; font-size: 12px; font-weight: 200;" fill="rgb(50, 49, 63)" stroke="none" stroke-width="1px">40M</text><text x="838.3333333333334" y="0" dx="0em" dy="0.95em" style="text-anchor: middle; visibility: inherit; font-family: &quot;Helvetica Neue&quot;, sans-serif; font-size: 12px; font-weight: 200;" fill="rgb(50, 49, 63)" stroke="none" stroke-width="1px">45M</text><text x="922.1666666666666" y="0" dx="0em" dy="0.95em" style="text-anchor: middle; visibility: inherit; font-family: &quot;Helvetica Neue&quot;, sans-serif; font-size: 12px; font-weight: 200;" fill="rgb(50, 49, 63)" stroke="none" stroke-width="1px">50M</text><text x="1006" y="0" dx="0em" dy="0.95em" style="text-anchor: middle; visibility: hidden; font-family: &quot;Helvetica Neue&quot;, sans-serif; font-size: 12px; font-weight: 200;" fill="rgb(50, 49, 63)" stroke="none" stroke-width="1px">55M</text></g><line x1="0" y1="0" x2="1006" y2="0" fill="rgb(0, 0, 0)" stroke="rgb(204, 204, 204)" stroke-width="1px"></line></g></g></g></g></svg>