<svg viewBox="0 0 1496 400" xmlns="http://www.w3.org/2000/svg"><g><g><g><g><g><line x1="70" y1="378" x2="65" y2="378" style="visibility: inherit;" fill="rgb(0, 0, 0)" stroke="rgb(204, 204, 204)" stroke-width="1px"></line><line x1="70" y1="330.75" x2="65" y2="330.75" style="visibility: inherit;" fill="rgb(0, 0, 0)" stroke="rgb(204, 204, 204)" stroke-width="1px"></line><line x1="70" y1="283.5" x2="65" y2="283.5" style="visibility: inherit;" fill="rgb(0, 0, 0)" stroke="rgb(204, 204, 204)" stroke-width="1px"></line><line x1="70" y1="236.25" x2="65" y2="236.25" style="visibility: inherit;" fill="rgb(0, 0, 0)" stroke="rgb(204, 204, 204)" stroke-width="1px"></line><line x1="70" y1="189" x2="65" y2="189" style="visibility: inherit;" fill="rgb(0, 0, 0)" stroke="rgb(204, 204, 204)" stroke-width="1px"></line><line x1="70" y1="141.75" x2="65" y2="141.75" style="visibility: inherit;" fill="rgb(0, 0, 0)" stroke="rgb(204, 204, 204)" stroke-width="1px"></line><line x1="70" y1="94.5" x2="65" y2="94.5" style="visibility: inherit;" fill="rgb(0, 0, 0)" stroke="rgb(204, 204, 204)" stroke-width="1px"></line><line x1="70" y1="47.25" x2="65" y2="47.25" style="visibility: inherit;" fill="rgb(0, 0, 0)" stroke="rgb(204, 204, 204)" stroke-width="1px"></line><line x1="70" y1="0" x2="65" y2="0" style="visibility: inherit;" fill="rgb(0, 0, 0)" stroke="rgb(204, 204, 204)" stroke-width="1px"></line></g><g transform="translate(60, 0)"><text x="0" y="378" dx="0em" dy="0.3em" style="text-anchor: end; visibility: hidden; font-family: Roboto, sans-serif; font-size: 12px; font-weight: 200;" fill="rgb(50, 49, 63)" stroke="none" stroke-width="1px">2.2e+3</text><text x="0" y="330.75" dx="0em" dy="0.3em" style="text-anchor: end; visibility: inherit; font-family: Roboto, sans-serif; font-size: 12px; font-weight: 200;" fill="rgb(50, 49, 63)" stroke="none" stroke-width="1px">2.4e+3</text><text x="0" y="283.5" dx="0em" dy="0.3em" style="text-anchor: end; visibility: inherit; font-family: Roboto, sans-serif; font-size: 12px; font-weight: 200;" fill="rgb(50, 49, 63)" stroke="none" stroke-width="1px">2.6e+3</text><text x="0" y="236.25" dx="0em" dy="0.3em" style="text-anchor: end; visibility: inherit; font-family: Roboto, sans-serif; font-size: 12px; font-weight: 200;" fill="rgb(50, 49, 63)" stroke="none" stroke-width="1px">2.8e+3</text><text x="0" y="189" dx="0em" dy="0.3em" style="text-anchor: end; visibility: inherit; font-family: Roboto, sans-serif; font-size: 12px; font-weight: 200;" fill="rgb(50, 49, 63)" stroke="none" stroke-width="1px">3e+3</text><text x="0" y="141.75" dx="0em" dy="0.3em" style="text-anchor: end; visibility: inherit; font-family: Roboto, sans-serif; font-size: 12px; font-weight: 200;" fill="rgb(50, 49, 63)" stroke="none" stroke-width="1px">3.2e+3</text><text x="0" y="94.5" dx="0em" dy="0.3em" style="text-anchor: end; visibility: inherit; font-family: Roboto, sans-serif; font-size: 12px; font-weight: 200;" fill="rgb(50, 49, 63)" stroke="none" stroke-width="1px">3.4e+3</text><text x="0" y="47.25" dx="0em" dy="0.3em" style="text-anchor: end; visibility: inherit; font-family: Roboto, sans-serif; font-size: 12px; font-weight: 200;" fill="rgb(50, 49, 63)" stroke="none" stroke-width="1px">3.6e+3</text><text x="0" y="0" dx="0em" dy="0.3em" style="text-anchor: end; visibility: hidden; font-family: Roboto, sans-serif; font-size: 12px; font-weight: 200;" fill="rgb(50, 49, 63)" stroke="none" stroke-width="1px">3.8e+3</text></g><line x1="70" y1="0" x2="70" y2="378" fill="rgb(0, 0, 0)" stroke="rgb(204, 204, 204)" stroke-width="1px"></line></g></g><g transform="translate(70, 0)" clip-path="url(#clip_0)"><clipPath id="clip_0"><rect width="1426" height="378"></rect></clipPath><g><g><g><line x1="0" y1="0" x2="0" y2="378" fill="rgb(0, 0, 0)" stroke="rgb(60, 60, 60)" stroke-width="1px" opacity="0.25"></line><line x1="118.83333333333333" y1="0" x2="118.83333333333333" y2="378" fill="rgb(0, 0, 0)" stroke="rgb(60, 60, 60)" stroke-width="1px" opacity="0.25"></line><line x1="237.66666666666666" y1="0" x2="237.66666666666666" y2="378" fill="rgb(0, 0, 0)" stroke="rgb(60, 60, 60)" stroke-width="1px" opacity="0.25"></line><line x1="356.5" y1="0" x2="356.5" y2="378" fill="rgb(0, 0, 0)" stroke="rgb(60, 60, 60)" stroke-width="1px" opacity="0.25"></line><line x1="475.3333333333333" y1="0" x2="475.3333333333333" y2="378" fill="rgb(0, 0, 0)" stroke="rgb(60, 60, 60)" stroke-width="1px" opacity="0.25"></line><line x1="594.1666666666667" y1="0" x2="594.1666666666667" y2="378" fill="rgb(0, 0, 0)" stroke="rgb(60, 60, 60)" stroke-width="1px" opacity="0.25"></line><line x1="713" y1="0" x2="713" y2="378" fill="rgb(0, 0, 0)" stroke="rgb(60, 60, 60)" stroke-width="1px" opacity="0.25"></line><line x1="831.8333333333334" y1="0" x2="831.8333333333334" y2="378" fill="rgb(0, 0, 0)" stroke="rgb(60, 60, 60)" stroke-width="1px" opacity="0.25"></line><line x1="950.6666666666666" y1="0" x2="950.6666666666666" y2="378" fill="rgb(0, 0, 0)" stroke="rgb(60, 60, 60)" stroke-width="1px" opacity="0.25"></line><line x1="1069.5" y1="0" x2="1069.5" y2="378" fill="rgb(0, 0, 0)" stroke="rgb(60, 60, 60)" stroke-width="1px" opacity="0.25"></line><line x1="1188.3333333333335" y1="0" x2="1188.3333333333335" y2="378" fill="rgb(0, 0, 0)" stroke="rgb(60, 60, 60)" stroke-width="1px" opacity="0.25"></line><line x1="1307.1666666666665" y1="0" x2="1307.1666666666665" y2="378" fill="rgb(0, 0, 0)" stroke="rgb(60, 60, 60)" stroke-width="1px" opacity="0.25"></line><line x1="1426" y1="0" x2="1426" y2="378" fill="rgb(0, 0, 0)" stroke="rgb(60, 60, 60)" stroke-width="1px" opacity="0.25"></line></g><g><line x1="0" y1="378" x2="1426" y2="378" fill="rgb(0, 0, 0)" stroke="rgb(60, 60, 60)" stroke-width="1px" opacity="0.25"></line><line x1="0" y1="330.75" x2="1426" y2="330.75" fill="rgb(0, 0, 0)" stroke="rgb(60, 60, 60)" stroke-width="1px" opacity="0.25"></line><line x1="0" y1="283.5" x2="1426" y2="283.5" fill="rgb(0, 0, 0)" stroke="rgb(60, 60, 60)" stroke-width="1px" opacity="0.25"></line><line x1="0" y1="236.25" x2="1426" y2="236.25" fill="rgb(0, 0, 0)" stroke="rgb(60, 60, 60)" stroke-width="1px" opacity="0.25"></line><line x1="0" y1="189" x2="1426" y2="189" fill="rgb(0, 0, 0)" stroke="rgb(60, 60, 60)" stroke-width="1px" opacity="0.25"></line><line x1="0" y1="141.75" x2="1426" y2="141.75" fill="rgb(0, 0, 0)" stroke="rgb(60, 60, 60)" stroke-width="1px" opacity="0.25"></line><line x1="0" y1="94.5" x2="1426" y2="94.5" fill="rgb(0, 0, 0)" stroke="rgb(60, 60, 60)" stroke-width="1px" opacity="0.25"></line><line x1="0" y1="47.25" x2="1426" y2="47.25" fill="rgb(0, 0, 0)" stroke="rgb(60, 60, 60)" stroke-width="1px" opacity="0.25"></line><line x1="0" y1="0" x2="1426" y2="0" fill="rgb(0, 0, 0)" stroke="rgb(60, 60, 60)" stroke-width="1px" opacity="0.25"></line></g></g></g><g><g><line x1="0" y1="897.75" x2="1426" y2="897.75" fill="rgb(0, 0, 0)" stroke="rgb(153, 153, 153)" stroke-width="1.5px"></line></g></g><g><g><line x1="118.83333333333333" y1="0" x2="118.83333333333333" y2="378" fill="rgb(0, 0, 0)" stroke="rgb(153, 153, 153)" stroke-width="1.5px"></line></g></g><g><g><g><g><g><path stroke="rgb(255, 112, 67)" stroke-width="2px" d="M160.425,383.47672392206806L166.36666666666667,352.31819064291886L172.30833333333334,357.42685621631887L178.25,345.03105633171475L184.1916666666667,365.7739232215446L190.13333333333333,392.7708979364318L196.07500000000002,388.8824502916752L202.01666666666665,360.6620939319593L207.95833333333334,342.7391129340378L213.9,347.90323125558365L219.84166666666667,338.9104059483188L225.78333333333333,335.91285088059254L231.725,308.9784265527796L237.66666666666666,305.6000686440187L243.60833333333335,302.99698408267375L249.54999999999998,289.6804241103198L255.49166666666667,286.50515492724094L261.43333333333334,305.3083429416916L267.375,323.7870078853525L273.31666666666666,303.1377614263154L279.2583333333333,268.10143557164247L285.2,262.8723853535357L291.14166666666665,276.0593076529603L297.08333333333337,245.4963604278791L303.025,266.11954885067536L308.9666666666667,290.8917411696353L314.9083333333333,297.8868225016304L320.85,302.42555688785427L326.79166666666663,263.390940151133L332.73333333333335,274.33418688421716L338.675,267.0325596927648L344.6166666666667,241.47377803032447L350.55833333333334,255.86741089323135L356.5,247.41759374144044L362.44166666666666,231.5310756413022L368.3833333333334,226.79506286297087L374.325,222.7222558562549L380.26666666666665,218.93646862540174L386.2083333333333,206.44563800988027L392.15000000000003,237.99002172391116L398.0916666666667,226.71859555345625L404.0333333333333,243.8462903890989L409.97499999999997,241.10620135744585L415.9166666666667,204.57849730343005L421.85833333333335,196.70209240057454L427.8,200.0149094930887L433.7416666666666,194.49367958256227L439.68333333333334,185.99015538136442L445.625,219.49516683723823L451.56666666666666,244.21563843243035L457.5083333333334,235.8448952664876L463.45,247.0610608171206L469.39166666666665,263.50301149027365L475.3333333333333,219.78781238732614L481.27500000000003,259.43982012282646L487.2166666666667,204.91869480806997L493.1583333333333,185.25760934089644L499.09999999999997,156.90592388090482L505.0416666666667,156.46981116448043L510.98333333333335,155.07725815864907L516.925,156.40551334245518L522.8666666666667,171.3245639869185L528.8083333333334,199.8230286753542L534.75,199.20446491029062L540.6916666666666,194.61868663660402L546.6333333333333,183.3045645210249L552.575,172.11648871261497L558.5166666666667,161.3919844140924L564.4583333333333,148.39732993068205L570.4,146.98939246524517L576.3416666666667,111.57507188051433L582.2833333333333,133.57204202967586L588.225,158.5873153056961L594.1666666666667,124.14222524298798L600.1083333333333,159.04532403739432L606.05,126.55313192243665L611.9916666666667,145.49287695619637L617.9333333333334,161.21673618348348L623.875,170.67841426868387L629.8166666666666,93.77605625164003L635.7583333333333,113.99655123145281L641.7,107.72661128086386L647.6416666666667,99.37380685640899L653.5833333333333,113.58378411384543L659.525,120.50511617143222L665.4666666666667,119.64221716379681L671.4083333333333,97.31018173870785L677.35,86.84728958521694L683.2916666666667,79.56110824820045L689.2333333333333,55.99297952411553L695.175,41.70020092247707L701.1166666666667,37.75376484059557L707.0583333333334,75.62896813287296L713,83.77052065023162L718.9416666666666,84.81512073974835L724.8833333333333,104.8432199047865L730.8249999999999,89.08628484814531L736.7666666666668,60.50973965888722L742.7083333333334,99.44084159806671L748.65,107.07964924594938L754.5916666666667,89.71505505049927L760.5333333333333,90.4236735332293L766.475,99.56019423224228L772.4166666666666,151.4425525745016L778.3583333333332,167.7311532488025L784.3000000000001,99.50268474713305L790.2416666666667,126.93792249378765L796.1833333333334,78.54864778338198L802.125,52.50387617002919L808.0666666666666,73.81133229381433L814.0083333333333,93.65859661749953L819.9499999999999,110.86617652518723L825.8916666666668,24.222788678784216L831.8333333333334,55.843669911372004L837.775,77.8826267515107L843.7166666666667,37.99335559192198L849.6583333333333,71.16704729070014L855.6,58.601306865631L861.5416666666666,11.535784119378611L867.4833333333332,-0.6491423213415191L873.4250000000001,101.39112129664828L879.3666666666667,53.736444628574915L885.3083333333334,56.239421952926136L891.25,72.88554855749784L897.1916666666666,108.09528836301439L903.1333333333333,126.5521763137071L909.0749999999999,121.19955127162268L915.0166666666668,153.24905009891103L920.9583333333334,125.94954260817474L926.9,134.33236802095945L932.8416666666667,110.61987442585696L938.7833333333333,118.449845676022L944.725,120.71274615073034L950.6666666666666,128.71072642578974L956.6083333333332,126.24715729102078L962.5500000000001,104.57610077109689L968.4916666666667,158.34120062379094L974.4333333333334,137.23676114575892L980.375,147.46367704878344L986.3166666666666,107.56524516969975L992.2583333333333,63.37298572486666L998.1999999999999,84.26197698179504L1004.1416666666668,76.17118509044423L1010.0833333333334,65.63362853473531L1016.025,115.5948885466224L1021.9666666666667,106.22187685355934L1027.9083333333333,139.58513380256528L1033.85,125.6334756672814L1039.7916666666665,116.85291926267357L1045.7333333333333,128.3521061718619L1051.675,158.19869155956243L1057.6166666666668,128.08373153729997L1063.5583333333334,107.5124665835128L1069.5,160.64371884170924L1075.4416666666666,164.09548130502554L1081.3833333333332,120.22211995977312L1087.325,106.43061194168418L1093.2666666666667,93.97772739450265L1099.2083333333335,46.85355672478756L1105.15,15.84835962081003L1111.0916666666667,38.793956690454756L1117.0333333333333,69.10887401427283L1122.975,77.23606610778248L1128.9166666666665,75.39307606603661L1134.8583333333333,80.72059563962198L1140.8,41.057250694320096L1146.7416666666668,105.74259760897492L1152.6833333333334,114.57608017183027L1158.625,129.8938387769263L1164.5666666666666,105.11250529252297L1170.5083333333332,106.191318483131L1176.45,100.07343537698789L1182.3916666666667,119.34763312560682L1188.3333333333335,117.27715836657507L1194.275,97.96645505412474L1200.2166666666667,97.33386583032645L1206.1583333333333,109.24318827260991L1212.1,101.13420690887851L1218.0416666666665,78.80463669415528L1223.9833333333333,87.20658645985256L1229.925,126.73594198821623L1235.8666666666668,124.41698267339848L1241.8083333333334,108.30827029251566L1247.75,132.9092365895719L1253.6916666666666,107.55698885315715L1259.6333333333332,130.38142878552713L1265.575,66.4700441609647L1271.5166666666667,84.6181326977507L1277.4583333333335,104.45984568310361L1283.4,84.6544710084949L1289.3416666666667,99.69405626232344L1295.2833333333333,108.00188224372218L1301.225,114.98561274467075L1307.1666666666665,96.73533102570873" style="fill: none;" fill="none"></path></g></g></g></g><g opacity="0.2"><g><g><g><path stroke="rgb(255, 112, 67)" stroke-width="2px" d="M142.6,448.2197177124023L148.54166666666669,366.2244140625L154.48333333333335,374.16791656494144L160.425,344.4671502685547L166.36666666666667,306.88875L172.30833333333334,364.9611456298828L178.25,326.6247381591797L184.1916666666667,396.7000872802734L196.07500000000002,383.06247528076176L202.01666666666665,318.3868460083008L207.95833333333334,315.87570922851563L213.9,355.6457666015625L219.84166666666667,325.42497344970707L225.78333333333333,331.41727935791016L231.725,268.5808932495117L237.66666666666666,300.5328405761719L243.60833333333335,299.09250000000003L249.54999999999998,269.7060223388672L255.49166666666667,281.7423138427734L261.43333333333334,333.5129022216797L267.375,351.5048739624023L273.31666666666666,272.1639797973633L279.2583333333333,215.54703643798828L285.2,255.02881805419923L291.14166666666665,295.8396789550781L297.08333333333337,199.6519564819336L303.025,297.0543246459961L308.9666666666667,328.05002471923825L314.9083333333333,308.37944366455076L320.85,309.23365814208984L326.79166666666663,204.8390167236328L332.73333333333335,290.74905670166015L338.675,256.0801190185547L344.6166666666667,203.13560577392582L350.55833333333334,277.4578601074219L356.5,234.74286804199218L362.44166666666666,207.7012985229492L368.3833333333334,219.69104370117188L374.325,216.6130453491211L380.26666666666665,213.2577877807617L386.2083333333333,187.70939208984373L392.15000000000003,285.30659729003906L398.0916666666667,209.81145629882812L404.0333333333333,269.5378326416016L409.97499999999997,236.99606781005858L415.9166666666667,149.78694122314454L421.85833333333335,184.8874850463867L427.8,204.9841351318359L433.7416666666666,186.21183471679686L439.68333333333334,173.23486907958983L445.625,269.7526840209961L451.56666666666666,281.2963458251953L457.5083333333334,223.28878051757812L463.45,263.8853091430664L469.39166666666665,288.1659375L475.3333333333333,154.21501373291014L481.27500000000003,318.9178317260742L487.2166666666667,123.1370068359375L493.1583333333333,155.76598114013672L499.09999999999997,114.37839569091797L505.0416666666667,155.81564208984375L510.98333333333335,152.98842864990235L516.925,158.39789611816406L522.8666666666667,193.7031399536133L528.8083333333334,242.5707257080078L534.75,198.2766192626953L540.6916666666666,187.74001922607422L546.6333333333333,166.33338134765626L552.575,155.334375L558.5166666666667,145.3052279663086L564.4583333333333,128.9053482055664L570.4,144.87748626708986L576.3416666666667,58.45359100341797L582.2833333333333,166.56749725341797L588.225,196.1102252197266L594.1666666666667,72.47459014892578L600.1083333333333,211.3999722290039L606.05,77.81484374999998L611.9916666666667,173.90249450683592L617.9333333333334,184.80252502441408L623.875,184.8709313964844L629.8166666666666,-21.57748077392575L635.7583333333333,144.32729370117187L641.7,98.32170135498045L647.6416666666667,86.84460021972654L653.5833333333333,134.89875L659.525,130.8871142578125L665.4666666666667,118.34786865234375L671.4083333333333,63.81212860107423L677.35,71.15295135498049L683.2916666666667,68.63183624267576L689.2333333333333,20.640786437988286L695.175,20.261033020019514L701.1166666666667,31.83411071777345L707.0583333333334,132.44177307128908L713,95.98284942626951L718.9416666666666,86.38202087402344L724.8833333333333,134.88536865234374L730.8249999999999,65.45088226318357L736.7666666666668,17.644921874999984L742.7083333333334,157.83749450683595L748.65,118.53786071777344L754.5916666666667,63.66816375732423L760.5333333333333,91.48660125732424L766.475,113.26497528076172L772.4166666666666,229.26609008789063L778.3583333333332,192.1640542602539L784.3000000000001,-2.8400180053710904L790.2416666666667,168.0907791137695L796.1833333333334,5.964735717773435L802.125,13.436718749999992L808.0666666666666,105.77251647949217L814.0083333333333,123.42949310302734L819.9499999999999,136.67754638671875L825.8916666666668,-105.74229309082031L831.8333333333334,103.27499176025393L837.775,110.94106201171877L843.7166666666667,-21.84055114746091L849.6583333333333,120.92758483886719L855.6,39.752696228027354L861.5416666666666,-59.0625L867.4833333333332,-18.926531982421842L873.4250000000001,254.4515167236328L879.3666666666667,-17.745570373535124L885.3083333333334,59.993887939453145L891.25,97.85473846435545L897.1916666666666,160.90989807128906L903.1333333333333,154.2375082397461L909.0749999999999,113.17061370849609L915.0166666666668,201.32329833984375L920.9583333333334,85.00028137207033L926.9,146.90660614013672L932.8416666666667,75.05113403320313L938.7833333333333,130.19480255126953L944.725,124.10709686279297L950.6666666666666,140.70769683837892L956.6083333333332,122.55180358886719L962.5500000000001,72.06951599121093L968.4916666666667,238.988850402832L974.4333333333334,105.58010192871092L980.375,162.80405090332033L986.3166666666666,47.71759735107422L992.2583333333333,-2.9154034423828494L998.1999999999999,115.59546386718752L1004.1416666666668,64.03499725341797L1010.0833333333334,49.827293701171854L1016.025,190.53677856445313L1021.9666666666667,92.16235931396484L1027.9083333333333,189.63001922607418L1033.85,104.70598846435547L1039.7916666666665,103.6820846557617L1045.7333333333333,145.60088653564455L1051.675,202.96856964111328L1057.6166666666668,82.91129150390627L1063.5583333333334,76.65556915283203L1069.5,240.3405972290039L1075.4416666666666,169.273125L1081.3833333333332,54.41207794189455L1087.325,85.74334991455076L1093.2666666666667,75.29840057373049L1099.2083333333335,-23.832699279785125L1105.15,-30.659436035156283L1111.0916666666667,73.21235229492186L1117.0333333333333,114.58125L1122.975,89.4268542480469L1128.9166666666665,72.62859100341797L1134.8583333333333,88.71187500000002L1140.8,-18.437766723632834L1146.7416666666668,202.77061798095707L1152.6833333333334,127.82630401611328L1158.625,152.8704766845703L1164.5666666666666,67.94050506591799L1170.5083333333332,107.80953826904299L1176.45,90.89661071777346L1182.3916666666667,148.25892974853514L1188.3333333333335,114.17144622802736L1194.275,69.0004000854492L1200.2166666666667,96.38498199462889L1206.1583333333333,127.10717193603516L1212.1,88.97073486328125L1218.0416666666665,45.31028137207029L1223.9833333333333,99.80951110839844L1229.925,186.0299752807617L1235.8666666666668,120.9385437011719L1241.8083333333334,84.14520172119143L1247.75,169.81068603515627L1253.6916666666666,69.52861724853516L1259.6333333333332,164.618088684082L1265.575,-29.397032775878884L1271.5166666666667,111.84026550292967L1277.4583333333335,134.22241516113283L1283.4,54.94640899658204L1289.3416666666667,122.25343414306639L1295.2833333333333,120.46362121582031L1301.225,125.46120849609375L1307.1666666666665,69.35990844726562" style="fill: none;" fill="none"></path></g></g></g></g></g><g><g opacity="0.0744808"><span fill="rgb(0, 0, 0)" stroke="none" stroke-width="1px">Alt + Scroll to Zoom</span></g></g></g><g transform="translate(70, 378)" clip-path="url(#clip_1)"><clipPath id="clip_1"><rect width="1426" height="22"></rect></clipPath><g><g><line x1="0" y1="0" x2="0" y2="5" style="visibility: inherit;" fill="rgb(0, 0, 0)" stroke="rgb(204, 204, 204)" stroke-width="1px"></line><line x1="118.83333333333333" y1="0" x2="118.83333333333333" y2="5" style="visibility: inherit;" fill="rgb(0, 0, 0)" stroke="rgb(204, 204, 204)" stroke-width="1px"></line><line x1="237.66666666666666" y1="0" x2="237.66666666666666" y2="5" style="visibility: inherit;" fill="rgb(0, 0, 0)" stroke="rgb(204, 204, 204)" stroke-width="1px"></line><line x1="356.5" y1="0" x2="356.5" y2="5" style="visibility: inherit;" fill="rgb(0, 0, 0)" stroke="rgb(204, 204, 204)" stroke-width="1px"></line><line x1="475.3333333333333" y1="0" x2="475.3333333333333" y2="5" style="visibility: inherit;" fill="rgb(0, 0, 0)" stroke="rgb(204, 204, 204)" stroke-width="1px"></line><line x1="594.1666666666667" y1="0" x2="594.1666666666667" y2="5" style="visibility: inherit;" fill="rgb(0, 0, 0)" stroke="rgb(204, 204, 204)" stroke-width="1px"></line><line x1="713" y1="0" x2="713" y2="5" style="visibility: inherit;" fill="rgb(0, 0, 0)" stroke="rgb(204, 204, 204)" stroke-width="1px"></line><line x1="831.8333333333334" y1="0" x2="831.8333333333334" y2="5" style="visibility: inherit;" fill="rgb(0, 0, 0)" stroke="rgb(204, 204, 204)" stroke-width="1px"></line><line x1="950.6666666666666" y1="0" x2="950.6666666666666" y2="5" style="visibility: inherit;" fill="rgb(0, 0, 0)" stroke="rgb(204, 204, 204)" stroke-width="1px"></line><line x1="1069.5" y1="0" x2="1069.5" y2="5" style="visibility: inherit;" fill="rgb(0, 0, 0)" stroke="rgb(204, 204, 204)" stroke-width="1px"></line><line x1="1188.3333333333335" y1="0" x2="1188.3333333333335" y2="5" style="visibility: inherit;" fill="rgb(0, 0, 0)" stroke="rgb(204, 204, 204)" stroke-width="1px"></line><line x1="1307.1666666666665" y1="0" x2="1307.1666666666665" y2="5" style="visibility: inherit;" fill="rgb(0, 0, 0)" stroke="rgb(204, 204, 204)" stroke-width="1px"></line><line x1="1426" y1="0" x2="1426" y2="5" style="visibility: inherit;" fill="rgb(0, 0, 0)" stroke="rgb(204, 204, 204)" stroke-width="1px"></line></g><g transform="translate(0, 8)"><text x="0" y="0" dx="0em" dy="0.95em" style="text-anchor: middle; visibility: hidden; font-family: Roboto, sans-serif; font-size: 12px; font-weight: 200;" fill="rgb(50, 49, 63)" stroke="none" stroke-width="1px">-5M</text><text x="118.83333333333333" y="0" dx="0em" dy="0.95em" style="text-anchor: middle; visibility: inherit; font-family: Roboto, sans-serif; font-size: 12px; font-weight: 200;" fill="rgb(50, 49, 63)" stroke="none" stroke-width="1px">0</text><text x="237.66666666666666" y="0" dx="0em" dy="0.95em" style="text-anchor: middle; visibility: inherit; font-family: Roboto, sans-serif; font-size: 12px; font-weight: 200;" fill="rgb(50, 49, 63)" stroke="none" stroke-width="1px">5M</text><text x="356.5" y="0" dx="0em" dy="0.95em" style="text-anchor: middle; visibility: inherit; font-family: Roboto, sans-serif; font-size: 12px; font-weight: 200;" fill="rgb(50, 49, 63)" stroke="none" stroke-width="1px">10M</text><text x="475.3333333333333" y="0" dx="0em" dy="0.95em" style="text-anchor: middle; visibility: inherit; font-family: Roboto, sans-serif; font-size: 12px; font-weight: 200;" fill="rgb(50, 49, 63)" stroke="none" stroke-width="1px">15M</text><text x="594.1666666666667" y="0" dx="0em" dy="0.95em" style="text-anchor: middle; visibility: inherit; font-family: Roboto, sans-serif; font-size: 12px; font-weight: 200;" fill="rgb(50, 49, 63)" stroke="none" stroke-width="1px">20M</text><text x="713" y="0" dx="0em" dy="0.95em" style="text-anchor: middle; visibility: inherit; font-family: Roboto, sans-serif; font-size: 12px; font-weight: 200;" fill="rgb(50, 49, 63)" stroke="none" stroke-width="1px">25M</text><text x="831.8333333333334" y="0" dx="0em" dy="0.95em" style="text-anchor: middle; visibility: inherit; font-family: Roboto, sans-serif; font-size: 12px; font-weight: 200;" fill="rgb(50, 49, 63)" stroke="none" stroke-width="1px">30M</text><text x="950.6666666666666" y="0" dx="0em" dy="0.95em" style="text-anchor: middle; visibility: inherit; font-family: Roboto, sans-serif; font-size: 12px; font-weight: 200;" fill="rgb(50, 49, 63)" stroke="none" stroke-width="1px">35M</text><text x="1069.5" y="0" dx="0em" dy="0.95em" style="text-anchor: middle; visibility: inherit; font-family: Roboto, sans-serif; font-size: 12px; font-weight: 200;" fill="rgb(50, 49, 63)" stroke="none" stroke-width="1px">40M</text><text x="1188.3333333333335" y="0" dx="0em" dy="0.95em" style="text-anchor: middle; visibility: inherit; font-family: Roboto, sans-serif; font-size: 12px; font-weight: 200;" fill="rgb(50, 49, 63)" stroke="none" stroke-width="1px">45M</text><text x="1307.1666666666665" y="0" dx="0em" dy="0.95em" style="text-anchor: middle; visibility: inherit; font-family: Roboto, sans-serif; font-size: 12px; font-weight: 200;" fill="rgb(50, 49, 63)" stroke="none" stroke-width="1px">50M</text><text x="1426" y="0" dx="0em" dy="0.95em" style="text-anchor: middle; visibility: hidden; font-family: Roboto, sans-serif; font-size: 12px; font-weight: 200;" fill="rgb(50, 49, 63)" stroke="none" stroke-width="1px">55M</text></g><line x1="0" y1="0" x2="1426" y2="0" fill="rgb(0, 0, 0)" stroke="rgb(204, 204, 204)" stroke-width="1px"></line></g></g></g></g></svg>