<svg viewBox="0 0 1496 400" xmlns="http://www.w3.org/2000/svg"><g><g><g><g><g><line x1="80" y1="378" x2="75" y2="378" style="visibility: inherit;" fill="rgb(0, 0, 0)" stroke="rgb(204, 204, 204)" stroke-width="1px"></line><line x1="80" y1="336" x2="75" y2="336" style="visibility: inherit;" fill="rgb(0, 0, 0)" stroke="rgb(204, 204, 204)" stroke-width="1px"></line><line x1="80" y1="294" x2="75" y2="294" style="visibility: inherit;" fill="rgb(0, 0, 0)" stroke="rgb(204, 204, 204)" stroke-width="1px"></line><line x1="80" y1="252.00000000000003" x2="75" y2="252.00000000000003" style="visibility: inherit;" fill="rgb(0, 0, 0)" stroke="rgb(204, 204, 204)" stroke-width="1px"></line><line x1="80" y1="210" x2="75" y2="210" style="visibility: inherit;" fill="rgb(0, 0, 0)" stroke="rgb(204, 204, 204)" stroke-width="1px"></line><line x1="80" y1="168" x2="75" y2="168" style="visibility: inherit;" fill="rgb(0, 0, 0)" stroke="rgb(204, 204, 204)" stroke-width="1px"></line><line x1="80" y1="126.00000000000001" x2="75" y2="126.00000000000001" style="visibility: inherit;" fill="rgb(0, 0, 0)" stroke="rgb(204, 204, 204)" stroke-width="1px"></line><line x1="80" y1="84" x2="75" y2="84" style="visibility: inherit;" fill="rgb(0, 0, 0)" stroke="rgb(204, 204, 204)" stroke-width="1px"></line><line x1="80" y1="42.00000000000002" x2="75" y2="42.00000000000002" style="visibility: inherit;" fill="rgb(0, 0, 0)" stroke="rgb(204, 204, 204)" stroke-width="1px"></line><line x1="80" y1="0" x2="75" y2="0" style="visibility: inherit;" fill="rgb(0, 0, 0)" stroke="rgb(204, 204, 204)" stroke-width="1px"></line></g><g transform="translate(70, 0)"><text x="0" y="378" dx="0em" dy="0.3em" style="text-anchor: end; visibility: hidden; font-family: Roboto, sans-serif; font-size: 12px; font-weight: 200;" fill="rgb(50, 49, 63)" stroke="none" stroke-width="1px">900</text><text x="0" y="336" dx="0em" dy="0.3em" style="text-anchor: end; visibility: inherit; font-family: Roboto, sans-serif; font-size: 12px; font-weight: 200;" fill="rgb(50, 49, 63)" stroke="none" stroke-width="1px">950</text><text x="0" y="294" dx="0em" dy="0.3em" style="text-anchor: end; visibility: inherit; font-family: Roboto, sans-serif; font-size: 12px; font-weight: 200;" fill="rgb(50, 49, 63)" stroke="none" stroke-width="1px">1e+3</text><text x="0" y="252.00000000000003" dx="0em" dy="0.3em" style="text-anchor: end; visibility: inherit; font-family: Roboto, sans-serif; font-size: 12px; font-weight: 200;" fill="rgb(50, 49, 63)" stroke="none" stroke-width="1px">1.05e+3</text><text x="0" y="210" dx="0em" dy="0.3em" style="text-anchor: end; visibility: inherit; font-family: Roboto, sans-serif; font-size: 12px; font-weight: 200;" fill="rgb(50, 49, 63)" stroke="none" stroke-width="1px">1.1e+3</text><text x="0" y="168" dx="0em" dy="0.3em" style="text-anchor: end; visibility: inherit; font-family: Roboto, sans-serif; font-size: 12px; font-weight: 200;" fill="rgb(50, 49, 63)" stroke="none" stroke-width="1px">1.15e+3</text><text x="0" y="126.00000000000001" dx="0em" dy="0.3em" style="text-anchor: end; visibility: inherit; font-family: Roboto, sans-serif; font-size: 12px; font-weight: 200;" fill="rgb(50, 49, 63)" stroke="none" stroke-width="1px">1.2e+3</text><text x="0" y="84" dx="0em" dy="0.3em" style="text-anchor: end; visibility: inherit; font-family: Roboto, sans-serif; font-size: 12px; font-weight: 200;" fill="rgb(50, 49, 63)" stroke="none" stroke-width="1px">1.25e+3</text><text x="0" y="42.00000000000002" dx="0em" dy="0.3em" style="text-anchor: end; visibility: inherit; font-family: Roboto, sans-serif; font-size: 12px; font-weight: 200;" fill="rgb(50, 49, 63)" stroke="none" stroke-width="1px">1.3e+3</text><text x="0" y="0" dx="0em" dy="0.3em" style="text-anchor: end; visibility: hidden; font-family: Roboto, sans-serif; font-size: 12px; font-weight: 200;" fill="rgb(50, 49, 63)" stroke="none" stroke-width="1px">1.35e+3</text></g><line x1="80" y1="0" x2="80" y2="378" fill="rgb(0, 0, 0)" stroke="rgb(204, 204, 204)" stroke-width="1px"></line></g></g><g transform="translate(80, 0)" clip-path="url(#clip_0)"><clipPath id="clip_0"><rect width="1416" height="378"></rect></clipPath><g><g><g><line x1="0" y1="0" x2="0" y2="378" fill="rgb(0, 0, 0)" stroke="rgb(60, 60, 60)" stroke-width="1px" opacity="0.25"></line><line x1="118" y1="0" x2="118" y2="378" fill="rgb(0, 0, 0)" stroke="rgb(60, 60, 60)" stroke-width="1px" opacity="0.25"></line><line x1="236" y1="0" x2="236" y2="378" fill="rgb(0, 0, 0)" stroke="rgb(60, 60, 60)" stroke-width="1px" opacity="0.25"></line><line x1="354" y1="0" x2="354" y2="378" fill="rgb(0, 0, 0)" stroke="rgb(60, 60, 60)" stroke-width="1px" opacity="0.25"></line><line x1="472" y1="0" x2="472" y2="378" fill="rgb(0, 0, 0)" stroke="rgb(60, 60, 60)" stroke-width="1px" opacity="0.25"></line><line x1="590" y1="0" x2="590" y2="378" fill="rgb(0, 0, 0)" stroke="rgb(60, 60, 60)" stroke-width="1px" opacity="0.25"></line><line x1="708" y1="0" x2="708" y2="378" fill="rgb(0, 0, 0)" stroke="rgb(60, 60, 60)" stroke-width="1px" opacity="0.25"></line><line x1="826" y1="0" x2="826" y2="378" fill="rgb(0, 0, 0)" stroke="rgb(60, 60, 60)" stroke-width="1px" opacity="0.25"></line><line x1="944" y1="0" x2="944" y2="378" fill="rgb(0, 0, 0)" stroke="rgb(60, 60, 60)" stroke-width="1px" opacity="0.25"></line><line x1="1062" y1="0" x2="1062" y2="378" fill="rgb(0, 0, 0)" stroke="rgb(60, 60, 60)" stroke-width="1px" opacity="0.25"></line><line x1="1180" y1="0" x2="1180" y2="378" fill="rgb(0, 0, 0)" stroke="rgb(60, 60, 60)" stroke-width="1px" opacity="0.25"></line><line x1="1298" y1="0" x2="1298" y2="378" fill="rgb(0, 0, 0)" stroke="rgb(60, 60, 60)" stroke-width="1px" opacity="0.25"></line><line x1="1416" y1="0" x2="1416" y2="378" fill="rgb(0, 0, 0)" stroke="rgb(60, 60, 60)" stroke-width="1px" opacity="0.25"></line></g><g><line x1="0" y1="378" x2="1416" y2="378" fill="rgb(0, 0, 0)" stroke="rgb(60, 60, 60)" stroke-width="1px" opacity="0.25"></line><line x1="0" y1="336" x2="1416" y2="336" fill="rgb(0, 0, 0)" stroke="rgb(60, 60, 60)" stroke-width="1px" opacity="0.25"></line><line x1="0" y1="294" x2="1416" y2="294" fill="rgb(0, 0, 0)" stroke="rgb(60, 60, 60)" stroke-width="1px" opacity="0.25"></line><line x1="0" y1="252.00000000000003" x2="1416" y2="252.00000000000003" fill="rgb(0, 0, 0)" stroke="rgb(60, 60, 60)" stroke-width="1px" opacity="0.25"></line><line x1="0" y1="210" x2="1416" y2="210" fill="rgb(0, 0, 0)" stroke="rgb(60, 60, 60)" stroke-width="1px" opacity="0.25"></line><line x1="0" y1="168" x2="1416" y2="168" fill="rgb(0, 0, 0)" stroke="rgb(60, 60, 60)" stroke-width="1px" opacity="0.25"></line><line x1="0" y1="126.00000000000001" x2="1416" y2="126.00000000000001" fill="rgb(0, 0, 0)" stroke="rgb(60, 60, 60)" stroke-width="1px" opacity="0.25"></line><line x1="0" y1="84" x2="1416" y2="84" fill="rgb(0, 0, 0)" stroke="rgb(60, 60, 60)" stroke-width="1px" opacity="0.25"></line><line x1="0" y1="42.00000000000002" x2="1416" y2="42.00000000000002" fill="rgb(0, 0, 0)" stroke="rgb(60, 60, 60)" stroke-width="1px" opacity="0.25"></line><line x1="0" y1="0" x2="1416" y2="0" fill="rgb(0, 0, 0)" stroke="rgb(60, 60, 60)" stroke-width="1px" opacity="0.25"></line></g></g></g><g><g><line x1="0" y1="1134" x2="1416" y2="1134" fill="rgb(0, 0, 0)" stroke="rgb(153, 153, 153)" stroke-width="1.5px"></line></g></g><g><g><line x1="118" y1="0" x2="118" y2="378" fill="rgb(0, 0, 0)" stroke="rgb(153, 153, 153)" stroke-width="1.5px"></line></g></g><g><g><g><g><g><path stroke="rgb(255, 112, 67)" stroke-width="2px" d="M141.6,409.94875089757585L147.5,371.36245179535706L153.4,348.22352637269444L159.3,340.0210467413719L165.2,337.5816745132678L171.1,339.4342101315635L177,338.87276797164253L182.9,337.41829317091583L188.8,362.4320327909866L194.70000000000002,358.0268304323961L200.6,354.99844579425536L206.5,336.1475341390725L212.4,339.5202033958214L218.3,328.7049368819744L224.2,334.39299683955744L230.1,326.87421493943606L236,315.26163661596155L241.9,297.50408265736735L247.79999999999998,298.18297610825664L253.7,301.92313942090414L259.59999999999997,284.69828055021765L265.5,280.54498191280794L271.40000000000003,274.1865837701694L277.3,256.10261144083L283.2,252.1466015445101L289.1,261.79066174574814L295,245.50666493185673L300.9,249.12610881421287L306.8,253.21004647292943L312.7,240.44434953979544L318.6,256.3749461178077L324.5,247.259053451476L330.4,246.69236175254045L336.3,273.94454222017856L342.2,273.2168210325298L348.09999999999997,252.16840116637368L354,248.04032975680602L359.9,214.5868462647522L365.8,204.93936947295867L371.7,198.68884238509537L377.6,202.6661980098713L383.5,192.27070708609241L389.40000000000003,219.36562151897016L395.3,208.78132994223608L401.2,205.4887979652676L407.09999999999997,212.62252096675684L413,194.9508641424109L418.9,187.50586809478557L424.8,193.72852671626444L430.7,199.53209845164383L436.6,175.52405203971102L442.5,199.94006208321693L448.4,224.72044545306454L454.3,208.532341490585L460.2,229.43341856622894L466.1,246.86558824911378L472,209.4805736525917L477.90000000000003,234.64676216030583L483.8,209.50317448368295L489.7,181.00429726833445L495.59999999999997,145.1358517985005L501.5,158.09465170410044L507.4,160.96479102246013L513.3,163.02287461347618L519.1999999999999,170.67642398683574L525.1,193.67513564210162L531,189.28811654151085L536.9,175.74554375303154L542.8000000000001,168.25106648619376L548.7,170.0094270010911L554.6,153.1810565912797L560.5,145.34879411101787L566.4,146.96973935723582L572.3,117.1052830674665L578.2,131.7321385904799L584.1,136.943296826163L590,104.42511676757266L595.9,132.78965599804354L601.8,104.56203383320106L607.6999999999999,120.63381014367049L613.6,125.24860639870234L619.5,156.04715212047148L625.4,87.88306861603276L631.3000000000001,87.03879624774473L637.2,101.01177384239682L643.1,114.53346469606312L649,144.52290108326278L654.9,133.87116838433263L660.8,143.70422837434944L666.7,109.3996053839846L672.6,114.4217378397657L678.5,104.6151325476094L684.4,81.76357952856559L690.3,52.060450451514185L696.1999999999999,65.54522534903361L702.1,80.43557856879514L708,61.78624948502709L713.9,49.92108367539126L719.8,94.18205254898483L725.6999999999999,88.83987996689083L731.6,79.02006860513447L737.5,107.80328335058071L743.4,120.40305008847348L749.3,108.23078513120898L755.2,95.77918592247528L761.1,117.30721663161003L767,160.22487294771594L772.9,179.3618202530045L778.8000000000001,120.01373668305283L784.7,139.2486834160816L790.6,128.53038973714897L796.5,98.82312837353929L802.4,118.59151960224861L808.3,132.74024183947418L814.1999999999999,129.8190513536845L820.1,57.189245265335764L826,67.16349442482651L831.9,71.13881149864588L837.8,57.102986117937505L843.7,80.17636393638749L849.6,81.47161914308259L855.5,57.47242265772457L861.4,24.470637188384664L867.3000000000001,106.7202963755308L873.2,51.490707122193534L879.1,88.05601411706621L885,92.84422761086476L890.9,96.61535687901888L896.8,115.55199342428637L902.6999999999999,121.35627613269679L908.6,153.97277739836818L914.5,110.04466643902097L920.4,119.83158892591261L926.3,110.2903166367976L932.2,113.12854935707863L938.1,140.04686984862226L944,132.8035750341733L949.9,129.46182470800397L955.8000000000001,69.68774326230243L961.7,128.87790767613149L967.6,115.43112155880397L973.5,116.0246475446574L979.4,95.05034126116949L985.3,69.0696031942016L991.1999999999999,78.39167207277107L997.1,107.25824543116265L1003,101.30485741494768L1008.9,112.80151405834356L1014.8,85.41540843500623L1020.7,108.64819232662879L1026.6,105.52556773972736L1032.5,90.27076837821154L1038.3999999999999,93.91357430817708L1044.3,106.65766411615623L1050.2,80.2730847978187L1056.1,62.42084111306615L1062,107.31277810533969L1067.9,104.26186803507885L1073.8,79.8856071491724L1079.7,51.8441318676285L1085.6000000000001,42.81697326120219L1091.5,27.289834347346382L1097.4,9.907787327157978L1103.3,20.017748568169793L1109.2,38.412612031526955L1115.1,42.427080890791096L1121,51.96940478447462L1126.8999999999999,70.63338310505985L1132.8,47.75963923803589L1138.7,108.25780112094655L1144.6,78.01975684444294L1150.5,83.46944590354079L1156.4,67.59915387024954L1162.3,86.23900404089976L1168.2,89.18722273703989L1174.1000000000001,88.37147231409888L1180,84.9802076072094L1185.9,55.0779155799507L1191.8,48.272856769845475L1197.7,70.81548359315724L1203.6,55.564989374644405L1209.5,51.88199362478659L1215.3999999999999,59.0034969561219L1221.3,97.64449856429825L1227.2,134.36228702920403L1233.1,92.84425307689742L1239,86.64570418988853L1244.9,61.9315787639332L1250.8,87.86262694586001L1256.7,37.78255663626608L1262.6000000000001,73.54769413800972L1268.5,91.66121413905574L1274.4,82.31559567093346L1280.3,83.17753709005999L1286.2,88.79852225403597L1292.1,69.40711335242166L1298,48.129412542702966" style="fill: none;" fill="none"></path></g></g></g></g><g opacity="0.2"><g><g><g><path stroke="rgb(255, 112, 67)" stroke-width="2px" d="M135.70000000000002,384.37198242187503L141.6,373.20958007812504L147.5,320.9841796875L153.4,316.2140625L159.3,328.2913696289063L165.2,334.0250463867187L171.1,342.16634033203127L177,338.03909179687497L182.9,335.24977294921877L188.8,399.81651855468755L194.70000000000002,351.43341064453125L200.6,350.4618017578125L206.5,307.8933251953125L212.4,344.57682861328124L218.3,312.48661376953123L224.2,342.923642578125L230.1,315.5971875L236,297.84383056640627L241.9,270.8687255859375L247.79999999999998,299.2012939453125L253.7,307.533310546875L259.59999999999997,258.8611962890625L265.5,274.3150634765625L271.40000000000003,264.649013671875L277.3,228.97669921874999L283.2,246.2125927734375L289.1,276.25674316406247L295,221.0806787109375L300.9,254.55527343750003L306.8,259.3359521484375L312.7,221.29580566406253L318.6,280.27083984374997L324.5,233.58521484375L330.4,245.84232421874998L336.3,314.8228125L342.2,272.1252392578125L348.09999999999997,220.595771484375L354,241.84822265625L359.9,164.40662109375L365.8,190.468154296875L371.7,189.3130517578125L377.6,208.6322314453125L383.5,176.677470703125L389.40000000000003,260.0079931640625L395.3,192.90489257812501L401.2,200.55L407.09999999999997,223.32310546875L413,168.44337890625L418.9,176.33837402343752L424.8,203.06251464843749L430.7,208.23745605468753L436.6,139.511982421875L442.5,236.56407714843752L448.4,261.8910205078125L454.3,184.25018554687497L460.2,260.7850341796875L466.1,273.0138427734375L472,153.4030517578125L477.90000000000003,272.396044921875L483.8,171.78779296875L489.7,138.25598144531247L495.59999999999997,91.33318359375001L501.5,177.53285156249999L507.4,165.26999999999998L513.3,166.10999999999999L519.1999999999999,182.156748046875L525.1,228.17320312500001L531,182.70758789062498L536.9,155.43168457031248L542.8000000000001,157.00935058593748L548.7,172.64696777343752L554.6,127.93850097656251L560.5,133.600400390625L566.4,149.4011572265625L572.3,72.3085986328125L578.2,153.672421875L584.1,144.76003417968752L590,55.64784667968749L595.9,175.33646484375L601.8,62.22060058593749L607.6999999999999,144.741474609375L613.6,132.17080078125L619.5,202.24497070312498L625.4,-14.363056640625016L631.3000000000001,85.77238769531252L637.2,121.97124023437502L643.1,134.8160009765625L649,189.5070556640625L654.9,117.8935693359375L660.8,158.45381835937502L666.7,57.942670898437505L672.6,121.95493652343751L678.5,89.90522460937501L684.4,47.48625L690.3,7.5057568359375075L696.1999999999999,85.77238769531252L702.1,102.77110839843748L708,33.81225585937498L713.9,32.1233349609375L719.8,160.573505859375L725.6999999999999,80.82662109374999L731.6,64.2903515625L737.5,150.97810546875002L743.4,139.3027001953125L749.3,89.97238769531249L755.2,77.101787109375L761.1,149.5992626953125L767,224.60135742187498L772.9,208.06724121093748L778.8000000000001,30.991611328125L784.7,168.101103515625L790.6,112.45294921874998L796.5,54.262236328124985L802.4,148.2441064453125L808.3,153.96332519531248L814.1999999999999,125.437265625L820.1,-51.75546386718752L826,82.12486816406249L831.9,77.101787109375L837.8,36.049248046875L843.7,114.7864306640625L849.6,83.414501953125L855.5,21.473627929687492L861.4,-25.032041015625023L867.3000000000001,230.09478515625003L873.2,-31.353676757812487L879.1,142.90397460937498L885,100.0265478515625L890.9,102.27205078125002L896.8,143.9569482421875L902.6999999999999,130.0627001953125L908.6,202.89752929687498L914.5,44.15250000000002L920.4,134.51197265625L926.3,95.978408203125L932.2,117.38589843749999L938.1,180.4243505859375L944,121.9386328125L949.9,124.44919921875001L955.8000000000001,-19.97337890624999L961.7,217.66315429687498L967.6,95.26094238281252L973.5,116.91493652343752L979.4,63.5888818359375L985.3,30.098496093749986L991.1999999999999,92.37477539062499L997.1,150.55810546875L1003,92.37477539062499L1008.9,130.0464990234375L1014.8,44.33625000000001L1020.7,143.49736816406252L1026.6,100.84163085937502L1032.5,67.38856933593749L1038.3999999999999,99.37778320312498L1044.3,125.77379882812498L1050.2,40.69621582031248L1056.1,35.64247558593749L1062,174.65068359375L1067.9,99.6855029296875L1073.8,43.32121582031251L1079.7,9.78191894531248L1085.6000000000001,29.2762353515625L1091.5,3.999125976562521L1097.4,-16.16528320312503L1103.3,35.18269042968751L1109.2,66.0049072265625L1115.1,48.44878417968748L1121,66.28289062499998L1126.8999999999999,98.62935058593752L1132.8,13.44902343749998L1138.7,199.0050439453125L1144.6,32.6626904296875L1150.5,91.64397949218748L1156.4,43.7937158203125L1162.3,114.19877929687502L1168.2,93.60955078125L1174.1000000000001,87.1478466796875L1180,79.893310546875L1185.9,10.22447753906251L1191.8,38.065268554687506L1197.7,104.629423828125L1203.6,32.68924804687498L1209.5,46.35749999999999L1215.3999999999999,69.68575195312499L1221.3,155.6060009765625L1227.2,189.4389697265625L1233.1,30.567202148437516L1239,77.34788085937498L1244.9,24.860390625000008L1250.8,126.75919921875L1256.7,-37.337548828124966L1262.6000000000001,127.19540039062503L1268.5,118.831494140625L1274.4,68.29716796874999L1280.3,84.47044921875002L1286.2,97.23L1292.1,40.32000000000001L1298,16.212861328124998" style="fill: none;" fill="none"></path></g></g></g></g></g></g><g transform="translate(80, 378)" clip-path="url(#clip_1)"><clipPath id="clip_1"><rect width="1416" height="22"></rect></clipPath><g><g><line x1="0" y1="0" x2="0" y2="5" style="visibility: inherit;" fill="rgb(0, 0, 0)" stroke="rgb(204, 204, 204)" stroke-width="1px"></line><line x1="118" y1="0" x2="118" y2="5" style="visibility: inherit;" fill="rgb(0, 0, 0)" stroke="rgb(204, 204, 204)" stroke-width="1px"></line><line x1="236" y1="0" x2="236" y2="5" style="visibility: inherit;" fill="rgb(0, 0, 0)" stroke="rgb(204, 204, 204)" stroke-width="1px"></line><line x1="354" y1="0" x2="354" y2="5" style="visibility: inherit;" fill="rgb(0, 0, 0)" stroke="rgb(204, 204, 204)" stroke-width="1px"></line><line x1="472" y1="0" x2="472" y2="5" style="visibility: inherit;" fill="rgb(0, 0, 0)" stroke="rgb(204, 204, 204)" stroke-width="1px"></line><line x1="590" y1="0" x2="590" y2="5" style="visibility: inherit;" fill="rgb(0, 0, 0)" stroke="rgb(204, 204, 204)" stroke-width="1px"></line><line x1="708" y1="0" x2="708" y2="5" style="visibility: inherit;" fill="rgb(0, 0, 0)" stroke="rgb(204, 204, 204)" stroke-width="1px"></line><line x1="826" y1="0" x2="826" y2="5" style="visibility: inherit;" fill="rgb(0, 0, 0)" stroke="rgb(204, 204, 204)" stroke-width="1px"></line><line x1="944" y1="0" x2="944" y2="5" style="visibility: inherit;" fill="rgb(0, 0, 0)" stroke="rgb(204, 204, 204)" stroke-width="1px"></line><line x1="1062" y1="0" x2="1062" y2="5" style="visibility: inherit;" fill="rgb(0, 0, 0)" stroke="rgb(204, 204, 204)" stroke-width="1px"></line><line x1="1180" y1="0" x2="1180" y2="5" style="visibility: inherit;" fill="rgb(0, 0, 0)" stroke="rgb(204, 204, 204)" stroke-width="1px"></line><line x1="1298" y1="0" x2="1298" y2="5" style="visibility: inherit;" fill="rgb(0, 0, 0)" stroke="rgb(204, 204, 204)" stroke-width="1px"></line><line x1="1416" y1="0" x2="1416" y2="5" style="visibility: inherit;" fill="rgb(0, 0, 0)" stroke="rgb(204, 204, 204)" stroke-width="1px"></line></g><g transform="translate(0, 8)"><text x="0" y="0" dx="0em" dy="0.95em" style="text-anchor: middle; visibility: hidden; font-family: Roboto, sans-serif; font-size: 12px; font-weight: 200;" fill="rgb(50, 49, 63)" stroke="none" stroke-width="1px">-5M</text><text x="118" y="0" dx="0em" dy="0.95em" style="text-anchor: middle; visibility: inherit; font-family: Roboto, sans-serif; font-size: 12px; font-weight: 200;" fill="rgb(50, 49, 63)" stroke="none" stroke-width="1px">0</text><text x="236" y="0" dx="0em" dy="0.95em" style="text-anchor: middle; visibility: inherit; font-family: Roboto, sans-serif; font-size: 12px; font-weight: 200;" fill="rgb(50, 49, 63)" stroke="none" stroke-width="1px">5M</text><text x="354" y="0" dx="0em" dy="0.95em" style="text-anchor: middle; visibility: inherit; font-family: Roboto, sans-serif; font-size: 12px; font-weight: 200;" fill="rgb(50, 49, 63)" stroke="none" stroke-width="1px">10M</text><text x="472" y="0" dx="0em" dy="0.95em" style="text-anchor: middle; visibility: inherit; font-family: Roboto, sans-serif; font-size: 12px; font-weight: 200;" fill="rgb(50, 49, 63)" stroke="none" stroke-width="1px">15M</text><text x="590" y="0" dx="0em" dy="0.95em" style="text-anchor: middle; visibility: inherit; font-family: Roboto, sans-serif; font-size: 12px; font-weight: 200;" fill="rgb(50, 49, 63)" stroke="none" stroke-width="1px">20M</text><text x="708" y="0" dx="0em" dy="0.95em" style="text-anchor: middle; visibility: inherit; font-family: Roboto, sans-serif; font-size: 12px; font-weight: 200;" fill="rgb(50, 49, 63)" stroke="none" stroke-width="1px">25M</text><text x="826" y="0" dx="0em" dy="0.95em" style="text-anchor: middle; visibility: inherit; font-family: Roboto, sans-serif; font-size: 12px; font-weight: 200;" fill="rgb(50, 49, 63)" stroke="none" stroke-width="1px">30M</text><text x="944" y="0" dx="0em" dy="0.95em" style="text-anchor: middle; visibility: inherit; font-family: Roboto, sans-serif; font-size: 12px; font-weight: 200;" fill="rgb(50, 49, 63)" stroke="none" stroke-width="1px">35M</text><text x="1062" y="0" dx="0em" dy="0.95em" style="text-anchor: middle; visibility: inherit; font-family: Roboto, sans-serif; font-size: 12px; font-weight: 200;" fill="rgb(50, 49, 63)" stroke="none" stroke-width="1px">40M</text><text x="1180" y="0" dx="0em" dy="0.95em" style="text-anchor: middle; visibility: inherit; font-family: Roboto, sans-serif; font-size: 12px; font-weight: 200;" fill="rgb(50, 49, 63)" stroke="none" stroke-width="1px">45M</text><text x="1298" y="0" dx="0em" dy="0.95em" style="text-anchor: middle; visibility: inherit; font-family: Roboto, sans-serif; font-size: 12px; font-weight: 200;" fill="rgb(50, 49, 63)" stroke="none" stroke-width="1px">50M</text><text x="1416" y="0" dx="0em" dy="0.95em" style="text-anchor: middle; visibility: hidden; font-family: Roboto, sans-serif; font-size: 12px; font-weight: 200;" fill="rgb(50, 49, 63)" stroke="none" stroke-width="1px">55M</text></g><line x1="0" y1="0" x2="1416" y2="0" fill="rgb(0, 0, 0)" stroke="rgb(204, 204, 204)" stroke-width="1px"></line></g></g></g></g></svg>