<svg viewBox="0 0 1076 400" xmlns="http://www.w3.org/2000/svg"><g><g><g><g><g><line x1="40" y1="378" x2="35" y2="378" style="visibility: inherit;" fill="rgb(0, 0, 0)" stroke="rgb(204, 204, 204)" stroke-width="1px"></line><line x1="40" y1="336" x2="35" y2="336" style="visibility: inherit;" fill="rgb(0, 0, 0)" stroke="rgb(204, 204, 204)" stroke-width="1px"></line><line x1="40" y1="294" x2="35" y2="294" style="visibility: inherit;" fill="rgb(0, 0, 0)" stroke="rgb(204, 204, 204)" stroke-width="1px"></line><line x1="40" y1="252" x2="35" y2="252" style="visibility: inherit;" fill="rgb(0, 0, 0)" stroke="rgb(204, 204, 204)" stroke-width="1px"></line><line x1="40" y1="210" x2="35" y2="210" style="visibility: inherit;" fill="rgb(0, 0, 0)" stroke="rgb(204, 204, 204)" stroke-width="1px"></line><line x1="40" y1="168" x2="35" y2="168" style="visibility: inherit;" fill="rgb(0, 0, 0)" stroke="rgb(204, 204, 204)" stroke-width="1px"></line><line x1="40" y1="126" x2="35" y2="126" style="visibility: inherit;" fill="rgb(0, 0, 0)" stroke="rgb(204, 204, 204)" stroke-width="1px"></line><line x1="40" y1="84" x2="35" y2="84" style="visibility: inherit;" fill="rgb(0, 0, 0)" stroke="rgb(204, 204, 204)" stroke-width="1px"></line><line x1="40" y1="42" x2="35" y2="42" style="visibility: inherit;" fill="rgb(0, 0, 0)" stroke="rgb(204, 204, 204)" stroke-width="1px"></line><line x1="40" y1="0" x2="35" y2="0" style="visibility: inherit;" fill="rgb(0, 0, 0)" stroke="rgb(204, 204, 204)" stroke-width="1px"></line></g><g transform="translate(30, 0)"><text x="0" y="378" dx="0em" dy="0.3em" style="text-anchor: end; visibility: hidden; font-family: &quot;Helvetica Neue&quot;, sans-serif; font-size: 12px; font-weight: 200;" fill="rgb(50, 49, 63)" stroke="none" stroke-width="1px">-50</text><text x="0" y="336" dx="0em" dy="0.3em" style="text-anchor: end; visibility: inherit; font-family: &quot;Helvetica Neue&quot;, sans-serif; font-size: 12px; font-weight: 200;" fill="rgb(50, 49, 63)" stroke="none" stroke-width="1px">0</text><text x="0" y="294" dx="0em" dy="0.3em" style="text-anchor: end; visibility: inherit; font-family: &quot;Helvetica Neue&quot;, sans-serif; font-size: 12px; font-weight: 200;" fill="rgb(50, 49, 63)" stroke="none" stroke-width="1px">50</text><text x="0" y="252" dx="0em" dy="0.3em" style="text-anchor: end; visibility: inherit; font-family: &quot;Helvetica Neue&quot;, sans-serif; font-size: 12px; font-weight: 200;" fill="rgb(50, 49, 63)" stroke="none" stroke-width="1px">100</text><text x="0" y="210" dx="0em" dy="0.3em" style="text-anchor: end; visibility: inherit; font-family: &quot;Helvetica Neue&quot;, sans-serif; font-size: 12px; font-weight: 200;" fill="rgb(50, 49, 63)" stroke="none" stroke-width="1px">150</text><text x="0" y="168" dx="0em" dy="0.3em" style="text-anchor: end; visibility: inherit; font-family: &quot;Helvetica Neue&quot;, sans-serif; font-size: 12px; font-weight: 200;" fill="rgb(50, 49, 63)" stroke="none" stroke-width="1px">200</text><text x="0" y="126" dx="0em" dy="0.3em" style="text-anchor: end; visibility: inherit; font-family: &quot;Helvetica Neue&quot;, sans-serif; font-size: 12px; font-weight: 200;" fill="rgb(50, 49, 63)" stroke="none" stroke-width="1px">250</text><text x="0" y="84" dx="0em" dy="0.3em" style="text-anchor: end; visibility: inherit; font-family: &quot;Helvetica Neue&quot;, sans-serif; font-size: 12px; font-weight: 200;" fill="rgb(50, 49, 63)" stroke="none" stroke-width="1px">300</text><text x="0" y="42" dx="0em" dy="0.3em" style="text-anchor: end; visibility: inherit; font-family: &quot;Helvetica Neue&quot;, sans-serif; font-size: 12px; font-weight: 200;" fill="rgb(50, 49, 63)" stroke="none" stroke-width="1px">350</text><text x="0" y="0" dx="0em" dy="0.3em" style="text-anchor: end; visibility: hidden; font-family: &quot;Helvetica Neue&quot;, sans-serif; font-size: 12px; font-weight: 200;" fill="rgb(50, 49, 63)" stroke="none" stroke-width="1px">400</text></g><line x1="40" y1="0" x2="40" y2="378" fill="rgb(0, 0, 0)" stroke="rgb(204, 204, 204)" stroke-width="1px"></line></g></g><g transform="translate(40, 0)" clip-path="url(#clip_0)"><clipPath id="clip_0"><rect width="1036" height="378"></rect></clipPath><g><g><g><line x1="0" y1="0" x2="0" y2="378" fill="rgb(0, 0, 0)" stroke="rgb(60, 60, 60)" stroke-width="1px" opacity="0.25"></line><line x1="86.33333333333333" y1="0" x2="86.33333333333333" y2="378" fill="rgb(0, 0, 0)" stroke="rgb(60, 60, 60)" stroke-width="1px" opacity="0.25"></line><line x1="172.66666666666666" y1="0" x2="172.66666666666666" y2="378" fill="rgb(0, 0, 0)" stroke="rgb(60, 60, 60)" stroke-width="1px" opacity="0.25"></line><line x1="259" y1="0" x2="259" y2="378" fill="rgb(0, 0, 0)" stroke="rgb(60, 60, 60)" stroke-width="1px" opacity="0.25"></line><line x1="345.3333333333333" y1="0" x2="345.3333333333333" y2="378" fill="rgb(0, 0, 0)" stroke="rgb(60, 60, 60)" stroke-width="1px" opacity="0.25"></line><line x1="431.6666666666667" y1="0" x2="431.6666666666667" y2="378" fill="rgb(0, 0, 0)" stroke="rgb(60, 60, 60)" stroke-width="1px" opacity="0.25"></line><line x1="518" y1="0" x2="518" y2="378" fill="rgb(0, 0, 0)" stroke="rgb(60, 60, 60)" stroke-width="1px" opacity="0.25"></line><line x1="604.3333333333334" y1="0" x2="604.3333333333334" y2="378" fill="rgb(0, 0, 0)" stroke="rgb(60, 60, 60)" stroke-width="1px" opacity="0.25"></line><line x1="690.6666666666666" y1="0" x2="690.6666666666666" y2="378" fill="rgb(0, 0, 0)" stroke="rgb(60, 60, 60)" stroke-width="1px" opacity="0.25"></line><line x1="777" y1="0" x2="777" y2="378" fill="rgb(0, 0, 0)" stroke="rgb(60, 60, 60)" stroke-width="1px" opacity="0.25"></line><line x1="863.3333333333334" y1="0" x2="863.3333333333334" y2="378" fill="rgb(0, 0, 0)" stroke="rgb(60, 60, 60)" stroke-width="1px" opacity="0.25"></line><line x1="949.6666666666666" y1="0" x2="949.6666666666666" y2="378" fill="rgb(0, 0, 0)" stroke="rgb(60, 60, 60)" stroke-width="1px" opacity="0.25"></line><line x1="1036" y1="0" x2="1036" y2="378" fill="rgb(0, 0, 0)" stroke="rgb(60, 60, 60)" stroke-width="1px" opacity="0.25"></line></g><g><line x1="0" y1="378" x2="1036" y2="378" fill="rgb(0, 0, 0)" stroke="rgb(60, 60, 60)" stroke-width="1px" opacity="0.25"></line><line x1="0" y1="336" x2="1036" y2="336" fill="rgb(0, 0, 0)" stroke="rgb(60, 60, 60)" stroke-width="1px" opacity="0.25"></line><line x1="0" y1="294" x2="1036" y2="294" fill="rgb(0, 0, 0)" stroke="rgb(60, 60, 60)" stroke-width="1px" opacity="0.25"></line><line x1="0" y1="252" x2="1036" y2="252" fill="rgb(0, 0, 0)" stroke="rgb(60, 60, 60)" stroke-width="1px" opacity="0.25"></line><line x1="0" y1="210" x2="1036" y2="210" fill="rgb(0, 0, 0)" stroke="rgb(60, 60, 60)" stroke-width="1px" opacity="0.25"></line><line x1="0" y1="168" x2="1036" y2="168" fill="rgb(0, 0, 0)" stroke="rgb(60, 60, 60)" stroke-width="1px" opacity="0.25"></line><line x1="0" y1="126" x2="1036" y2="126" fill="rgb(0, 0, 0)" stroke="rgb(60, 60, 60)" stroke-width="1px" opacity="0.25"></line><line x1="0" y1="84" x2="1036" y2="84" fill="rgb(0, 0, 0)" stroke="rgb(60, 60, 60)" stroke-width="1px" opacity="0.25"></line><line x1="0" y1="42" x2="1036" y2="42" fill="rgb(0, 0, 0)" stroke="rgb(60, 60, 60)" stroke-width="1px" opacity="0.25"></line><line x1="0" y1="0" x2="1036" y2="0" fill="rgb(0, 0, 0)" stroke="rgb(60, 60, 60)" stroke-width="1px" opacity="0.25"></line></g></g></g><g><g><line x1="0" y1="336" x2="1036" y2="336" fill="rgb(0, 0, 0)" stroke="rgb(153, 153, 153)" stroke-width="1.5px"></line></g></g><g><g><line x1="86.33333333333333" y1="0" x2="86.33333333333333" y2="378" fill="rgb(0, 0, 0)" stroke="rgb(153, 153, 153)" stroke-width="1.5px"></line></g></g><g><g><g><g><g><path stroke="rgb(255, 112, 67)" stroke-width="2px" d="M86.47208826666666,334.32L86.48122233333333,334.845L86.56791826666667,335.4342857142857L86.64530746666667,334.53617647058826L86.84563533333333,334.80674531575295L86.87711246666666,334.95496240601506L87.073469,335.0393394611394L87.09028673333333,335.43016809698383L87.1613218,335.6604212797694L87.21859533333334,335.7970790853541L87.32937826666668,335.54131956319566L87.336872,334.041527015993L87.3622022,333.81662246864823L87.7165142,334.35439490206113L87.854095,334.6767885258777L87.90567053333334,335.20622247466247L88.1486816,334.515616588291L88.2809788,333.42925962260824L88.36480846666667,332.4414955832011L88.39112286666666,333.19292482336425L88.62308326666667,333.6437647840725L88.69249526666667,332.57024474058977L88.76529153333333,332.2621444111925L88.81584833333334,330.73327940237004L89.09147613333333,329.47996407821046L89.1414804,330.7439806031075L89.47229246666667,330.494388106409L89.5851992,325.30462967684474L89.72079433333333,326.22277814440463L89.76273506666668,327.78166723127254L89.970643,326.7010001954191L90.84915373333332,324.0365999052009L91.07132393333333,325.46196001118426L91.4431616,326.9891760504671L91.88323713333332,326.8975056287044L92.26003033333333,325.1625033593271L93.06912906666668,322.1055019966775L93.96335246666666,323.96730120491975L94.62691046666667,321.38838071720625L94.66904113333332,317.4890284251113L94.85084186666667,317.8374170553462L94.89616686666666,320.73445023460187L95.49331726666666,319.78467014048687L95.57334826666667,317.19880208384416L96.1285752,315.6472812501452L96.51415713333333,312.3643687498824L97.26542979999999,316.442621250082L97.67357926666666,317.88157275008155L97.89521420000001,317.40094365004245L98.13957206666666,315.43256619000954L98.91534613333334,313.5795397139967L99.64256633333333,306.7557238283782L99.91037233333333,306.3574342970262L100.05686273333333,308.8064605782183L100.27406013333334,311.95587634693294L100.309923,306.11752580815755L100.3582524,292.1985154848914L100.97519039999999,301.65510929093614L101.94704473333333,294.8970655745611L102.12243953333333,298.90623934473683L102.33143526666666,294.927743606842L102.37380766666666,308.3326461641054L102.50688186666667,299.2395876984632L103.1357684,307.5597526190779L103.40457586666666,305.4958515714468L103.63698520000001,308.9615109428681L104.54329526666668,310.03290656572085L105.13973773333333,310.0037439394325L105.87403726666666,312.3382463636595L106.19252093333334,308.3629478181957L107.90787793333334,308.32976869091743L108.13127406666666,299.23786121455043L108.7402694,302.18271672873027L108.85916766666668,300.5896300372382L109.2611702,294.92977802234293L109.36520186666668,288.84586681340573L110.18666353333333,281.16352008804347L110.42989906666666,272.8581120528261L111.1429088,275.26686723169564L111.86919660000001,282.76012033901736L111.8864978,281.20807220341044L112.90697506666667,292.03684332204625L113.23695833333333,284.7581059932278L113.27518673333333,294.16686359593666L113.38407033333333,291.076118157562L113.93135459999999,280.8216708945372L113.95879133333334,282.3970025367223L114.22766786666666,285.35820152203337L114.34701506666667,280.75092091322006L115.01851573333333,278.994552547932L115.36017126666667,235.26873152875922L115.50766313333334,248.68123891725554L118.45503133333334,269.4967433503533L119.7377202,278.290046010212L120.86428386666667,288.9420276061272L123.33087900000001,283.5732165636763L125.02907293333332,285.72792993820576L125.99857899999999,271.9007579629235L126.67282506666666,267.9724547777541L126.74389466666666,260.2394728666525L128.1709156,249.21568371999146L129.6686608,263.76941023199487L130.48081573333334,255.02964613919693L131.34741246666667,262.5537876835182L131.67102433333335,208.6042726101109L131.71836953333332,234.02656356606656L131.74157593333334,200.89593813963992L133.14649553333334,216.63356288378398L135.70957679999998,219.35613773027038L136.75358853333333,223.67768263816225L137.5408104,237.69460958289736L140.58528633333333,263.2407657497384L141.05790953333332,244.29645944984304L141.1176522,222.84987566990583L142.37015893333333,241.2299254019435L143.90502746666667,225.7139552411661L144.3079624,252.3563731446997L145.697342,165.18982388681982L146.26436206666665,135.06589433209186L146.43383440000002,195.27953659925512L149.49866773333332,136.99172195955305L150.29119046666668,177.95503317573184L151.05246053333335,204.88501990543912L152.5044663333333,216.00301194326346L154.25292353333333,235.77780716595808L157.03857213333333,238.23468429957484L157.19329873333334,263.22881057974496L157.89605206666664,188.84928634784694L158.0426288,137.83757180870813L158.89016313333335,107.56654308522491L160.0619482,183.8199258511349L160.39612726666667,160.01995551068094L160.4691998,116.50797330640859L162.82875886666667,147.52078398384512L165.5690652,110.35247039030708L166.0787772,104.51548223418422L166.69713106666666,178.29328934051054L169.57368866666667,207.77597360430633L170.69127366666666,137.76958416258375L170.86233453333332,95.09375049755027L171.12321659999998,75.53625029853015L173.3318995333333,49.35375017911804L174.554086,79.34025010747081L174.9727854,131.26815006448248L176.14816193333334,135.8808900386895L176.54208366666668,76.15253402321366L177.83618579999998,65.85152041392826L179.94810633333333,60.342912248356924L180.2201772,131.9657473490142L180.30987753333332,112.1074484094085L182.68079806666668,78.01646904564507L182.73342686666666,164.07388142738705L184.45128753333333,104.82832885643222L185.33269906666666,69.28099731385936L188.68246693333333,47.95259838831561L191.4987466,127.2195590329894L191.96213213333334,83.0517354197936L192.42843573333332,169.11104125187617L194.33883699999998,122.6346247511257L197.201564,92.06077485067544L197.25105026666665,153.68446491040527L198.2406892666667,191.33067894624315L201.71698726666665,127.56640736774588L202.2249208,159.19584442064755L203.58411826666668,101.22950665238847L206.3010628,126.25770399143306L206.83764173333336,123.80262239485987L206.91920946666667,76.63357343691587L208.04882933333332,56.73214406214953L208.2689275333333,37.39928643728973L209.40593753333332,34.53557186237384L210.10067913333333,21.39334311742431L211.96064446666665,76.00400587045453L212.5404246,151.77840352227273L215.9081498,182.45904211336364L216.25203273333332,139.71542526801818L217.91935386666665,169.5092551608109L218.521667,123.54555309648654L218.90476253333333,89.24733185789194L219.0820566666667,77.06839911473514L219.46247586666667,74.12903946884109L221.1833409333333,45.149423681304654L221.90020113333335,76.14565420878273L222.0797572,44.00739252526961L222.84109633333335,119.14043551516181L223.9437802,95.0042613090971L224.65798133333334,126.21855678545825L227.65250479999997,172.83513407127492L228.39971979999999,124.86908044276495L230.17468133333333,127.33744826565896L231.040173,150.65846895939538L232.68294093333336,133.4030813756372L233.9468264,76.00984882538233L234.0363368,48.96590929522938L234.39063153333333,58.947545577137646L235.39741633333333,107.27252734628257L238.70938746666667,77.13151640776948L238.99366586666665,45.942909844661756L239.43962933333336,129.70974590679702L242.37420293333332,92.2738475440782L243.1922458,69.81230852644694L243.8415588,39.535385115868166L246.66571206666666,149.72123106952088L246.91367866666667,90.16873864171254L248.23646073333336,58.469243185027494L250.05850846666667,36.089545911016444L250.98293126666667,97.58972754660988L252.85750420000002,179.84983652796592L253.38847146666666,120.00590191677952L253.71263586666666,143.5715411500677L253.7535924,94.20692469004064L254.314431,110.28415481402442L255.02084486666666,156.55449288841461L255.5920262,98.63669573304878L257.12554793333334,134.44601743982923L257.4463626,82.34761046389758L257.5359420666667,94.43256627833853L257.950791,92.27553976700312L258.9227144,174.64532386020187L262.9576926666667,102.43519431612111L264.247858,65.15711658967263L264.42356359999997,95.87826995380357L266.47776166666665,156.64696197228213L267.32046133333336,135.6521771833693L267.61544506666667,180.84730631002157L268.6867036,105.82038378601294L270.6653945333333,85.33223027160778L271.61399066666667,134.86333816296468L273.4632506666667,77.22200289777885L274.5626193333334,99.42120173866726L275.2796004,73.42872104320037L275.81978806666666,45.06523262592026L279.23152600000003,33.42313957555217L280.30173126666665,39.8778837453313L280.5053225333333,43.414730247198804L282.59567699999997,137.60083814831924L283.9874221333333,90.96050288899153L284.85821466666664,84.81630173339494L285.0157384666667,54.58578104003698L285.2839243333333,38.799468624022154L288.1161411333333,30.33568117441331L288.21742739999996,7.113408704647952L289.09821733333337,55.34004522278883L289.39853646666666,95.36402713367329L291.2015045333333,156.67441628020396L292.24396226666664,102.06864976812238L293.2509888,65.2731898608734L293.2800140666667,128.53991391652403L295.15745326666666,83.84394834991446L298.80507113333334,55.34636900994872L298.87738393333336,154.1678214059692L300.5145574666667,151.63669284358153L301.3086169333333,118.53401570614892L301.4228877333333,87.92040942368936L302.05153253333333,156.57624565421366L302.26348086666667,162.82574739252817L304.05904153333336,143.3914484355169L304.21552933333334,174.40286906131016L305.8511661333333,126.14572143678609L306.1056422666667,134.82343286207163L311.110023,111.80605971724299L311.33101906666667,116.81163583034578L312.12419793333333,168.8709814982075L313.89252906666667,136.26658889892448L314.8010665333333,170.12795333935466L316.7599526,107.11677200361282L316.85384873333334,78.38206320216761L317.4723752666667,47.365237921300604L317.6727204,51.6031427527804L318.47751973333334,85.72988565166821L320.58852513333335,160.97393139100095L320.85362026666667,122.79235883460055L321.0755314666667,83.75541530076038L321.467433,73.77324918045628L322.1079054666667,85.25594950827372L323.21241960000003,123.39356970496422L324.0721787333334,86.13214182297855L324.7749838666667,150.46328509378708L325.3165356,206.5339710562723L327.4710702666667,158.86438263376337L329.6776466666667,103.71862958025798L330.83040386666664,161.0151777481548L331.4517276,178.59310664889287L333.33201579999997,201.57186398933572L335.62931126666666,126.99111839360145L335.75395933333334,171.95467103616085L335.85319086666664,205.65280262169654L336.6094018,124.73568157301793L339.05816046666666,152.12140894381074L339.53808746666664,148.39284536628648L341.60179946666665,113.56370721977186L342.1912316666666,73.8502243318631L342.3884515333333,75.89413459911788L345.6840366,106.01648075947071L345.77637873333333,84.44188845568243L346.35950859999997,137.6891330734095L348.0924258,189.12547984404566L348.37309546666665,195.12328790642738L348.49727733333333,168.14597274385642L349.3284774,219.4955836463139L350.2819772666667,148.4973501877883L351.7899788666667,182.50641011267297L352.3030578666667,200.2238460676038L352.7164736666666,168.51830764056226L353.1604342,209.97498458433736L353.70164059999996,182.4329907506024L354.9278329333333,124.24379445036146L356.1833958666666,80.25827667021684L356.2078282,139.88296600213008L356.82842673333334,187.08177960127804L357.88150346666663,183.81706776076686L358.17526126666667,129.77824065646013L358.5976384666667,187.06694439387607L358.83141186666666,209.34416663632567L359.1871397333333,233.7984999817954L360.3111997333333,240.40709998907724L360.39903526666666,255.12425999344634L361.3579568666667,264.29055599606784L361.4789098666667,258.3663335976407L362.1315380666667,194.3318001585844L362.29895566666664,126.34308009515067L362.36484526666663,92.9418480570904L363.5384433333333,70.88510883425425L363.724837,76.80306530055248L364.06985953333333,78.33783918033151L364.2200622666667,80.60270350819889L366.11281699999995,109.1776221049193L366.69912393333334,103.4745732629516L366.96572126666666,174.64474395777094L368.2583557333333,194.49884637466258L368.94152866666667,138.53930782479756L369.0054844,163.76358469487855L369.0400868,139.58615081692713L370.6794532,137.51169049015627L375.16079206666666,186.66701429409378L376.639613,184.24020857645624L377.2439981333334,116.92812514587376L378.08664600000003,146.42887508752423L378.3133746,133.55332505251457L378.7907634,144.97999503150874L379.24776026666666,112.52399701890528L380.09655506666667,162.60239821134317L381.42171993333335,184.9214389268059L382.01040966666665,211.41686335608355L382.39177853333337,232.35411801365012L384.3420830666667,254.32447080819009L387.5022802,242.64268248491405L390.0930917333333,165.4096094909484L390.2242838666666,219.19776569456906L391.1828256,147.64665941674141L392.0008512,217.27599565004488L394.6736966666667,250.98959739002692L395.3880186666667,243.66575843401617L395.4942259333334,246.3274550604097L395.9504803333333,167.95647303624582L397.0852111333333,113.20588382174748L398.801725,138.4835302930485L398.8948614,184.8981181758291L399.3221250666666,188.21887090549745L401.88467106666667,213.7313225432985L403.2782119333333,233.0707935259791L405.7410084,161.34647611558742L408.9017408,212.3918856693525L409.6912764,224.53913140161148L411.22631759999996,166.6434788409669L411.65049053333337,158.11408730458015L412.47851353333334,199.36445238274808L414.294846,148.85067142964886L414.77706946666666,210.60640285778933L415.9200019333333,191.8838417146736L416.4694618,213.91430502880414L417.9374392666667,245.6125830172825L418.3451052666667,275.7195498103695L419.03748133333335,280.3437298862217L419.56149013333334,259.934237931733L419.8567156,259.7845427590398L420.2067972666666,209.2947256554239L420.3126592,175.30483539325434L420.7447748,223.4549012359526L421.6948040666667,240.58494074157156L422.75982933333336,194.4149644449429L423.6376148666667,220.80897866696577L426.4997548,240.67738720017945L427.8924841333333,241.5104323201077L428.0113824,231.2582593920646L428.5546262666667,245.60295563523877L429.84962626666663,153.40977338114325L430.6902712,196.20586402868594L431.7408788,187.61151841721156L433.0348428,168.00691105032698L433.64088553333335,158.5961466301962L435.2618802,188.2296879781177L435.3502337333333,173.41781278687063L437.1105358666667,183.68268767212237L437.84633759999997,132.72161260327343L438.7260915333333,143.47296756196408L439.6820950666667,193.60378053717844L440.2760684,145.05826832230707L440.6754636666667,208.33096099338425L442.0752205333333,232.51857659603056L442.6310863333333,232.91914595761833L442.9655244,245.255487574571L443.1114968,265.0892925447426L443.6774118,206.09357552684557L445.84458566666666,225.46414531610733L449.4030212,246.8304871896644L451.0698416,236.13029231379866L451.22510346666667,236.0941753882792L451.47567733333335,248.1685052329675L451.9018877333333,258.4371031397805L452.2299198666667,229.3182618838683L452.3655495333333,202.43895713032097L453.80515786666666,229.65537427819257L455.1263686666666,217.42522456691555L456.33232446666665,227.22313474014933L457.23497399999997,254.6058808440896L457.8359230666667,191.73952850645375L457.8948196666667,226.59571710387226L459.8863224666667,238.43743026232337L460.06603393333336,247.894458157394L460.7835675333333,257.9366748944364L461.0135077333333,159.46600493666185L461.12442880000003,203.8716029619971L461.2599030666667,222.45096177719824L463.5996054666667,239.98257706631898L463.61832253333336,264.9495462397914L463.7987074,257.75372774387483L463.89964833333335,170.44423664632487L464.30871293333337,202.39454198779492L465.9932662,206.78072519267695L466.45257680000003,171.44443511560615L467.28305166666667,207.6986610693637L469.7603003333333,175.0191966416182L471.45279626666667,203.12351798497093L472.588235,216.62611079098255L473.6829934666667,210.95166647458953L474.1376420666667,244.84299988475374L475.8456089333333,258.12179993085226L477.2840431333333,267.7690799585113L477.8756682,265.4934479751068L479.873905,240.94406878506408L480.5637774,250.40644127103843L481.0062875333333,250.70786476262305L481.0532874,266.6807188575739L481.8861968666667,282.9844313145443L482.6548225333333,292.0946587887266L484.1252173333333,301.256795273236L487.7790857333333,243.25007716394157L488.35734640000004,248.76604629836496L488.60337913333336,255.77162777901896L488.7506810666667,243.17497666741136L489.880888,238.30498600044683L489.9485733333333,242.7749916002681L490.4368056,235.71299496016084L490.9045768666667,244.24379697609652L493.73964266666667,255.07427818565793L494.059076,253.17256691139477L496.5793532,241.27954014683687L497.0934682,252.95972408810212L498.8549272,254.92783445286128L500.38791366666663,263.1647006717168L502.1226784,267.09882040303006L502.66887486666667,277.18729224181806L503.0605346666667,266.44037534509084L504.26193206666665,281.8322252070545L505.0672148666667,284.6833351242327L506.63810166666667,256.8260010745396L507.9521122666667,274.71960064472376L508.6281368,286.4637603868342L508.74850273333334,278.39025623210057L510.40087093333335,264.4741537392604L511.33675880000004,259.8204922435562L512.5547322,267.44429534613374L514.0672922,272.69057720768024L514.0956440666666,198.55834632460812L514.9089040666667,230.35100779476488L515.2296669333333,238.67460467685893L516.2705361333333,244.00476280611534L520.5367668666667,247.2028576836692L521.2985722000001,247.44171461020153L522.1390962666667,246.57702876612092L523.6835996000001,258.49021725967253L523.9147657333333,263.28613035580355L524.8734801333334,264.4836782134821L525.0720986,270.2422069280893L525.7266952,263.28132415685354L526.1706730000001,196.60879449411212L526.2164296666667,237.58127669646728L526.7654405999999,246.03676601788038L526.7883707333333,258.1660596107282L526.8134937333334,243.26763576643694L526.8896915333333,219.88058145986216L527.3227913333333,238.10434887591728L528.2557611333333,247.69460932555037L528.9962939333333,250.42476559533023L529.5209070666667,264.83085935719816L529.9646604,260.3705156143189L530.2193264666666,261.72630936859133L532.4196178,253.1317856211548L532.7802494,198.91907137269288L533.2736616666667,216.79144282361574L533.4703980666667,229.86686569416943L533.6462072666666,252.83211941650165L533.6706396000001,258.88327164990096L534.4183553333332,249.40996298994062L534.697212,190.97397779396434L535.1691790666666,219.4163866763786L536.8605699333333,227.74583200582714L538.0931336666667,263.3194992034963L538.1127485999999,271.2236995220978L538.8164688666667,263.8702197132586L539.7466587333333,257.7781318279552L542.4711833333333,227.91487909677315L543.0854968,255.35692745806386L543.1696545333334,266.7821564748383L543.3769063333333,282.037293884903L544.0650348,281.4463763309418L544.8693161333334,285.4598257985651L545.173503,277.787895479139L546.1271582666667,287.96873728748346L546.7532821333333,204.70124237249007L547.1361704666667,241.76474542349405L548.7590644666667,249.2188472540964L549.3039486666667,252.68330835245786L549.9825977333333,250.72998501147472L551.2634045333334,242.16599100688484L554.41281,258.86759460413094L554.4383474,266.2005567624785L556.7743547333334,262.5363340574871L557.8668685333333,271.76180043449233L560.87227,258.48108026069536L561.0248727999999,208.1766481564172L563.9690984666667,226.04198889385032L565.076358,239.78519333631021L566.0221914666666,260.12711600178613L566.5978276000001,271.66026960107166L567.0851102,269.508161760643L567.2025408,269.5608970563858L567.7387744,270.60053823383146L568.2792555999999,264.5043229402989L568.7792464666667,258.49459376417934L570.4479834666666,260.2647562585076L571.7313457333333,272.41485375510456L573.1030097333334,270.96891225306274L574.1706422666667,274.80534735183767L574.2690795333334,271.0592084111026L574.882875,263.7715250466615L579.3282128666667,265.4469150279969L579.7400401333334,274.18014901679817L579.7991612,271.02008941007887L580.3395906000001,268.78805364604733L580.5193538666666,271.4808321876284L581.6313617333334,269.736499312577L581.9965172,271.7138995875462L583.1231154,259.4603397525277L583.4383874666667,274.62020385151664L583.7058654,273.63612231090997L583.9559903333333,271.365673386546L585.077633,282.4354040319276L585.3488578,240.35724241915656L585.4887868666667,258.7903454514939L586.9138221333334,269.17820727089634L587.5548126000001,258.6109243625378L588.0832762,259.9985546175227L589.8003253333334,260.8311327705136L590.3265960666666,214.29067966230818L591.1063242,243.48640779738489L591.5097426,247.56384467843094L591.6742766666667,265.13030680705856L592.6069529333333,274.99818408423516L592.9128837333334,275.20691045054105L593.0288466666667,266.93214627032467L593.1700707333333,262.9752877621948L593.2393791333333,276.7291726573169L595.0818878666666,268.85350359439013L595.1099634666666,227.50410215663408L595.1557892,259.47846129398044L596.1462224666667,270.93507677638826L596.2113350666666,275.12104606583296L596.9913222,272.9286276394998L597.5843286,272.9571765836999L597.6439849333334,287.42230595021994L597.7544915999999,288.03738357013196L599.0650661333334,204.07043014207918L599.4256804666667,236.68225808524753L599.6271824666667,248.1853548511485L599.6762370666667,255.4232129106891L600.9081792,246.99792774641347L601.2597458,256.7267566478481L602.2918780666666,257.1880539887088L603.4937416666667,173.8008323932253L604.4922902666666,210.4564994359352L604.8165582666667,154.1618996615611L604.8474483333333,151.63313979693666L605.3065172,205.555883878162L605.3701103333334,239.92553032689722L605.4939814,243.41131819613835L605.7984618,248.52679091768303L608.560127,244.87607455060981L609.0939087333334,241.67764473036587L610.7503691333333,252.52658683821954L610.7852305333333,229.1319521029317L610.8600297333332,251.71917126175902L610.883616,262.24750275705543L611.8250464666667,256.80450165423326L612.0710274,275.04270099253995L612.7062680666667,268.177620595524L613.5016570666667,245.9145723573144L614.0953541333333,254.3967434143886L614.9828608,251.0860460486332L615.8756338000001,252.1236276291799L616.8683462666667,180.17017657750793L617.0892905333333,210.58210594650478L617.8601954,225.80526356790287L618.1750876,252.41115814074172L619.7375137333333,261.990694884445L621.306294,248.25041693066703L621.8515408,251.4302501584002L623.9682269333333,204.61815009504014L624.0416620666666,219.2028900570241L624.1924000666667,234.00173403421448L625.8337521333333,232.12904042052867L626.2492226666667,258.2214242523172L628.0147047999999,260.7728545513903L628.9078058666668,276.0797127308342L628.9337231333334,262.7518276385005L632.7913382,270.21109658310036L633.7949977333334,272.6706579498602L633.8163220666667,275.82639476991613L635.3304015333333,239.75183686194967L635.4549978,250.6991021171698L635.9359089999999,263.3154612703019L636.0617657333333,271.5572767621811L636.5689740666667,279.19036605730867L636.710319,272.3462196343852L638.0687567333333,277.31173178063113L639.4866090666667,271.5550390683787L640.2358442666666,268.7730234410272L640.4062144666667,253.66381406461633L645.468663,256.6942884387698L646.0905910666667,259.1845730632619L646.4171728,200.19874383795712L647.1076668000001,225.9592463027743L647.2703188,241.41554778166457L647.5282482666667,246.65732866899873L647.6412413333333,267.6103972013992L647.8483895333334,259.0142383208395L648.1730719333334,267.9685429925037L648.8658106,265.27712579550223L650.4989609999999,253.91827547730134L650.57174,257.85496528638083L651.6428949333333,252.48897917182848L652.4746993333333,197.18938750309707L653.3738955333333,216.08963250185823L655.5730645333333,237.17377950111495L655.9578694666666,242.096267700669L658.5327784,247.0657606204014L658.7016291333333,269.53545637224084L659.0223574666667,265.5452738233445L660.2447338666667,276.5911642940067L660.5283388666667,272.46669857640404L660.5479883333333,284.4400191458424L662.6539864,276.5040114875054L662.7269726000001,252.59040689250327L666.24901,253.02624413550194L666.3302324,266.0557464813012L666.3530244,272.52944788878074L666.7799945333334,262.3016687332684L667.1162974,282.37300123996107L667.3784054,276.9438007439766L667.6351952666666,266.966280446386L667.769599,196.13176826783157L667.8921232666667,143.88706096069893L667.9711182666667,199.22823657641936L668.1141726,222.35294194585163L668.6848186666666,239.58776516751095L668.9172798,245.22465910050656L669.5283989333333,244.91079546030397L669.5700288666666,248.75447727618237L670.6511984666666,241.65268636570943L671.1985863333333,248.47961181942563L672.4585522666667,242.1597670916554L673.0206168000001,254.4958602549932L673.4632478,262.56951615299596L673.7791587333332,262.37370969179756L674.5343509333334,270.3202258150785L677.1109347333332,272.7361354890471L678.2616544666666,220.42568129342826L679.6288636666667,244.47940877605694L680.0833914,263.27964526563414L680.3687403333333,270.1917871593805L680.8206780666667,269.2990722956283L682.2604418,262.71544337737697L682.5626257333333,266.1572660264262L683.4562448,287.71035961585574L683.9380366,272.41821576951344L684.1992812666666,271.97892946170805L686.2541527333333,271.7153576770248L686.4895664666666,270.2132146062149L689.7847544,282.7519287637289L690.6334283333333,270.45115725823734L690.679185,268.7826943549424L691.4081318666666,272.1496166129655L692.3277717999999,268.4577699677793L693.4555959333334,203.07466198066754L694.5509414666667,239.44479718840054L694.6052624,251.52287831304034L694.7880473333333,263.4737269878242L695.4603422666667,257.5402361926945L696.0090251333334,265.7401417156167L696.3035772,266.29208502937L697.6912992,265.95125101762204L699.9073204666666,267.7627506105732L701.0174807999999,265.8256503663439L701.1132417333333,256.5993902198063L702.5550947333334,199.6556341318838L703.6040792666668,231.00938047913027L704.2768404,250.15762828747816L704.8063572666667,263.99857697248694L705.0152321333334,261.55114618349216L707.8743676666667,267.4746877100953L708.5802117333333,272.7088126260572L709.1031327333334,267.7852875756343L709.8789758666667,272.5591725453806L710.5440188,290.5435035272284L711.6210098666667,289.57410211633703L712.5917073333334,298.7364612698022L714.5235538000001,293.81787676188134L716.2414662666666,288.51472605712877L716.8096777333333,286.00483563427724L717.1189928,217.63490138056636L717.3181292666667,243.14094082833984L719.1870042,255.7565644970039L720.5206642666667,273.40593869820236L723.2088943333333,276.9395632189214L723.5627401333334,278.38773793135283L724.7902965333333,278.9206427588117L725.4465507333333,275.880385655287L726.8858482666666,284.13623139317224L727.4611563333334,266.9137388359033L729.4516749333333,270.020243301542L730.3225710666667,273.5641459809252L731.1105699333333,274.0104875885551L731.8413470666667,273.27029255313306L732.7488312666667,280.21817553187987L735.159845,275.3149053191279L735.5283329333333,278.0849431914767L735.9765928666667,275.7149659148861L736.1934449333334,278.9969795489316L736.557409,272.90218772935896L737.977506,270.58931263761536L737.9977943333333,279.95358758256924L738.3090605333334,293.97215254954153L740.8714338666667,289.6152915297249L741.1589756666666,296.74517491783496L741.4429259999999,300.351104950701L743.5202959333333,294.4506629704206L743.7450734,286.54239778225235L745.3522892666667,282.8054386693514L746.2850864,274.17926320161087L750.0583538,259.59555792096654L752.0230932666667,219.2613347525799L752.0673132000001,241.76480085154796L753.1187323333334,241.49088051092878L753.1419905333333,260.8145283065573L753.1611910666667,277.44871698393433L753.5351525333333,284.4052301903606L753.8354544,277.49113811421637L753.8857004,261.24668286852983L756.2279237333333,257.8840097211179L759.8047828,265.6104058326707L761.3058604666667,281.67024349960246L761.4368972,286.60214609976146L761.5781385333333,284.85728765985687L761.6645582,285.4903725959141L761.6771110666667,293.2622235575485L763.4377067333334,282.4693341345291L764.3862510666667,289.76960048071743L765.6848425333334,297.50976028843047L768.3261418000001,280.6498561730583L768.5891476666666,279.605913703835L768.7830350666667,277.299548222301L769.9702738000001,273.8997289333806L770.4953358666667,279.25183736002833L771.4067914000001,244.83110241601702L771.4820395333334,257.77866144961024L772.1749681333333,266.89119686976613L772.4174957333333,272.3587181218597L772.5574075333333,271.9432308731158L772.9911634666668,269.67793852386944L774.3541250666667,275.7107631143217L774.8317210666667,277.986457868593L774.8915327999999,278.0078747211558L775.3890545333334,269.6207248326935L777.2815675333334,279.3724348996161L779.4023631333333,282.19946093976966L779.4495356666666,283.2236765638618L780.2199225333333,275.4382059383171L780.654749,281.51892356299027L787.2940931333334,262.6553541377941L787.9179723333333,264.7772124826765L788.9668014666667,270.7543274896059L790.2072733333333,256.53259649376355L791.6471579333333,265.8075578962581L791.9668502666667,270.7005347377549L794.1573168666667,252.8043208426529L794.8329615333333,258.19459250559174L795.7228337333333,267.47675550335504L797.2170738,195.43005330201302L802.2930939333334,236.87403198120782L804.1797190000001,253.0044191887247L804.7488628666666,247.22665151323483L805.2423269333334,269.9679909079409L805.6987712666667,274.54079454476454L806.1603438,276.94847672685876L806.2824709333333,271.0010860361152L806.6484552000001,275.83265162166913L806.9431799333333,268.9875909730015L807.3226494666667,265.8885545838009L807.9455617333334,271.42113275028055L809.5062439333333,262.3086796501683L810.6605724,263.897207790101L810.9722702666667,273.5863246740606L811.1984290666666,279.3997948044364L812.0532671999999,282.5518768826618L813.4733987333334,277.0511261295971L815.1550339333332,284.16667567775823L815.8944961999999,285.07600540665493L816.0715313333334,272.181603243993L816.2719109999999,290.3169619463958L817.4587526,280.03017716783745L817.5338108000001,264.7861063007025L818.0296576666666,248.5836637804215L818.2802660666666,261.3741982682529L818.705734,261.32051896095174L819.140854,259.60831137657107L822.3417314,276.72498682594266L824.2288917333333,274.8989920955656L824.2531686666666,273.80339525733933L825.0352968666667,275.1620371544036L825.4910332666666,275.30522229264216L826.5964625333334,280.76713337558533L828.3582496,272.28428002535117L828.4814990666666,275.9305680152107L829.0999047333333,282.82234080912644L830.2324772,284.26940448547583L830.6020702000001,280.0976426912855L831.665317,271.2105856147713L832.5734400666666,276.63035136886276L833.5741815333333,275.1782108213177L834.0626037333334,249.7789264927906L834.2075746666667,266.79535589567433L834.5357621999999,271.6292135374046L835.1970582666667,266.80152812244273L836.2473723333334,276.33691687346567L837.1934302666666,277.0181501240794L838.7975554,279.77889007444765L839.3735886666667,276.05933404466856L839.5336161333333,271.81160042680114L839.6204329333334,279.0069602560807L841.8957997333333,275.9321761536484L841.9635886666666,278.45530569218903L842.9062623333333,280.64118341531344L843.6487635333334,276.24071004918807L845.0736433999999,281.6644260295128L845.4085476666667,273.1586556177077L845.8334457999999,281.49519337062463L845.8534751333333,291.5371160223748L846.8228776000001,277.40226961342483L849.1036661333333,277.32136176805494L849.7501474,270.88881706083293L853.2992244,275.42929023649975L854.6398947333333,281.5135741418999L857.3101329333333,288.8601444851399L857.5758496666666,283.1880866910839L860.602092,280.79285201465035L861.9778309333334,269.9477112087902L862.8935858666666,264.44862672527415L863.3981869333332,262.15717603516447L864.2714486,268.51030562109867L865.1470757999999,199.0741833726592L865.1713354666667,216.8845100235955L865.7632540666666,240.33870601415728L867.2435772,255.41922360849438L867.4083702666667,256.40353416509663L867.7651168666666,270.434120499058L868.9137128,254.32447229943477L869.5268521333334,256.4186833796609L869.9308403333333,270.1072100277965L870.5370039333334,274.2883260166779L871.5786846666666,274.1089956100068L873.0961484000001,263.249397366004L873.2411193333334,264.4616384196024L873.4599570666667,262.16498305176145L874.5565976,268.5149898310569L874.7778872,273.33299389863413L876.1439395333334,274.8797963391805L876.4371966,275.8078778035083L879.8798591333333,273.67672668210497L880.1753263333333,274.078036009263L880.9723211333334,268.6068216055578L881.0076832666666,277.7560929633347L881.9070694,274.5096557780008L883.4986589333333,267.5217934668005L885.1907577333334,274.08107608008027L886.2574751333334,289.4406456480482L887.1261266,261.3603873888289L887.8092822666667,263.66423243329734L888.4497547333333,275.4625394599784L888.7525430000001,271.11752367598706L888.8159289333333,265.48651420559224L890.3926346,267.48390852335535L890.4471627333334,274.0583451140132L891.5001531333332,265.2350070684079L892.4461074666667,261.28500424104476L892.6879271333333,191.37900254462684L892.7570110666667,231.0834015267761L894.0588659333333,262.63404091606566L896.7041192666667,253.34042454963938L897.1463703999999,250.11625472978363L897.3014250666666,261.9577528378702L897.3239926,269.0626517027221L897.5009759333334,270.9735910216333L899.0231707333334,276.15215461298L899.1202957333334,273.88329276778796L899.6962944666667,267.4819756606728L899.9844578666666,274.3931853964037L900.3035458666666,281.8999112378422L900.4572192,275.31594674270536L902.4140332666667,271.0295680456232L903.2166569999999,272.1537408273739L903.3173216666667,278.87624449642436L903.9478485333334,283.5817466978546L903.9955218,283.7170480187128L905.5525779999999,270.6942288112276L905.7017274666666,273.9685372867366L906.1137101333333,272.90912237204196L907.8190179333334,265.2174734232252L908.0736840000001,262.6184840539351L908.4897761333334,269.45909043236105L908.6448135333334,283.64345425941667L908.7141564666666,266.28207255564996L909.0895338,257.54524353338996L909.3366198,273.471146120034L912.5763126666667,280.3386876720204L913.477201,285.8032126032122L914.8257276666667,284.04192756192737L914.96671,286.6811565371564L916.4820672,288.93669392229384L917.0639366,297.6820163533763L917.2721380666666,289.1532098120258L917.5732859999999,283.3639258872155L918.0141212666666,264.09835553232926L918.3821948,277.4030133193976L918.7047706666667,284.0418079916385L919.6377749999999,277.2730847949831L919.9357804,279.25985087698984L920.5040954666666,273.0599105261939L921.2440412,264.63594631571635L921.4068658666667,276.71756778942984L922.7290781333332,262.7985406736579L922.9701207999999,272.5911244041947L923.7615902666666,271.07467464251687L924.2170849333334,270.5008047855101L924.3789426666666,275.1964828713061L925.4506501333334,271.29388972278366L925.9868837333333,269.2883338336702L926.6088636,264.3890003002021L926.6733028,252.37740018012127L927.4348318666666,264.6584401080728L928.9751739333333,269.3390640648437L929.586224,269.1234384389062L930.4189608,270.0020630633437L930.4857828,247.00923783800621L931.7609261333333,251.69354270280377L931.7885700666667,250.80812562168225L931.9720974666667,270.43687537300934L932.2561341333333,271.1261252238056L933.6034694,271.20367513428334L934.2231182666667,271.25020508057L935.6153986666667,205.422123048342L935.6456498666666,172.9812738290052L936.2381382666666,219.3727642974031L936.5365062666666,232.08765857844188L936.8883664,237.3645951470651L937.3695193333334,253.9707570882391L937.5663420666667,257.55045425294344L937.7658066,268.7702725517661L938.4694750666666,268.44616353105965L939.5807922666667,266.5716981186358L940.8475094666667,273.5110188711815L941.5903732666667,277.00261132270884L942.0952160666667,282.45756679362535L943.7975885333333,281.69854007617516L945.6032847333333,276.53912404570514L946.8541511333333,286.21147442742307L947.3655725333333,277.90288465645386L948.4740062,273.2537307938723L949.3367524666667,269.4562384763234L949.6560131333333,263.48174308579405" style="fill: none;" fill="none"></path></g></g></g></g><g opacity="0.2"><g><g><g><path stroke="rgb(255, 112, 67)" stroke-width="2px" d="M86.47208826666666,334.32L86.48122233333333,335.16L86.56791826666667,336L86.64530746666667,333.48L86.84563533333333,335.16L86.87711246666666,335.16L87.073469,335.16L87.09028673333333,336L87.1613218,336L87.21859533333334,336L87.32937826666668,335.16L87.336872,331.8L87.3622022,333.48L87.7165142,335.16L87.854095,335.16L87.90567053333334,336L88.1486816,333.48L88.2809788,331.8L88.36480846666667,330.96L88.39112286666666,334.32L88.62308326666667,334.32L88.69249526666667,330.96L88.76529153333333,331.8L88.81584833333334,328.44L89.09147613333333,327.6L89.1414804,332.64L89.47229246666667,330.12L89.5851992,317.52L89.72079433333333,327.6L89.76273506666668,330.12L89.970643,325.08L90.84915373333332,320.04L91.07132393333333,327.6L91.4431616,329.28L91.88323713333332,326.76L92.26003033333333,322.56L93.06912906666668,317.52L93.96335246666666,326.76L94.62691046666667,317.52L94.66904113333332,311.64L94.85084186666667,318.36L94.89616686666666,325.08L95.49331726666666,318.36L95.57334826666667,313.32L96.1285752,313.32L96.51415713333333,307.44L97.26542979999999,322.56L97.67357926666666,320.04L97.89521420000001,316.68L98.13957206666666,312.48L98.91534613333334,310.8L99.64256633333333,296.52L99.91037233333333,305.76L100.05686273333333,312.48L100.27406013333334,316.68L100.309923,297.36L100.3582524,271.32L100.97519039999999,315.84L101.94704473333333,284.76L102.12243953333333,304.92L102.33143526666666,288.96000000000004L102.37380766666666,328.44L102.50688186666667,285.6L103.1357684,320.04L103.40457586666666,302.4L103.63698520000001,314.15999999999997L104.54329526666668,311.64L105.13973773333333,309.96000000000004L105.87403726666666,315.84L106.19252093333334,302.4L107.90787793333334,308.28L108.13127406666666,285.6L108.7402694,306.6L108.85916766666668,298.2L109.2611702,286.44L109.36520186666668,279.72L110.18666353333333,269.64L110.42989906666666,260.4L111.1429088,278.88L111.86919660000001,294L111.8864978,278.88L112.90697506666667,308.28L113.23695833333333,273.84000000000003L113.27518673333333,308.28L113.38407033333333,286.44L113.93135459999999,265.44L113.95879133333334,284.76L114.22766786666666,289.8L114.34701506666667,273.84000000000003L115.01851573333333,276.36L115.36017126666667,169.68L115.50766313333334,268.8L118.45503133333334,300.72L119.7377202,291.48L120.86428386666667,304.92L123.33087900000001,275.52L125.02907293333332,288.96000000000004L125.99857899999999,251.16L126.67282506666666,262.08000000000004L126.74389466666666,248.64000000000001L128.1709156,232.68L129.6686608,285.6L130.48081573333334,241.92000000000002L131.34741246666667,273.84000000000003L131.67102433333335,127.67999999999998L131.71836953333332,272.15999999999997L131.74157593333334,151.20000000000002L133.14649553333334,240.23999999999998L135.70957679999998,223.44L136.75358853333333,230.16L137.5408104,258.72L140.58528633333333,301.56L141.05790953333332,215.88L141.1176522,190.67999999999998L142.37015893333333,268.8L143.90502746666667,202.44L144.3079624,292.32L145.697342,34.44L146.26436206666665,89.88L146.43383440000002,285.6L149.49866773333332,49.56L150.29119046666668,239.4L151.05246053333335,245.28L152.5044663333333,232.68L154.25292353333333,265.44L157.03857213333333,241.92000000000002L157.19329873333334,300.72L157.89605206666664,77.27999999999997L158.0426288,61.31999999999999L158.89016313333335,62.15999999999997L160.0619482,298.2L160.39612726666667,124.32L160.4691998,51.24000000000001L162.82875886666667,194.04L165.5690652,54.60000000000002L166.0787772,95.75999999999999L166.69713106666666,288.96000000000004L169.57368866666667,252L170.69127366666666,32.75999999999999L170.86233453333332,31.079999999999984L171.12321659999998,46.19999999999999L173.3318995333333,10.079999999999984L174.554086,124.32L174.9727854,209.16L176.14816193333334,142.79999999999998L176.54208366666668,-13.439999999999998L177.83618579999998,50.39999999999998L179.94810633333333,52.079999999999984L180.2201772,239.4L180.30987753333332,82.32L182.68079806666668,26.879999999999995L182.73342686666666,293.15999999999997L184.45128753333333,15.960000000000036L185.33269906666666,15.960000000000036L188.68246693333333,15.960000000000036L191.4987466,246.11999999999998L191.96213213333334,16.799999999999955L192.42843573333332,298.2L194.33883699999998,52.920000000000016L197.201564,46.19999999999999L197.25105026666665,246.11999999999998L198.2406892666667,247.8L201.71698726666665,31.920000000000016L202.2249208,206.64000000000001L203.58411826666668,14.28000000000003L206.3010628,163.8L206.83764173333336,120.12L206.91920946666667,5.8799999999999955L208.04882933333332,26.879999999999995L208.2689275333333,8.400000000000034L209.40593753333332,30.24000000000001L210.10067913333333,1.6800000000000068L211.96064446666665,157.92000000000002L212.5404246,265.44L215.9081498,228.48L216.25203273333332,75.59999999999997L217.91935386666665,214.2L218.521667,54.60000000000002L218.90476253333333,37.80000000000001L219.0820566666667,58.80000000000001L219.46247586666667,69.71999999999997L221.1833409333333,1.6800000000000068L221.90020113333335,122.63999999999999L222.0797572,-4.199999999999989L222.84109633333335,231.84L223.9437802,58.80000000000001L224.65798133333334,173.04L227.65250479999997,242.76000000000002L228.39971979999999,52.920000000000016L230.17468133333333,131.04L231.040173,185.64000000000001L232.68294093333336,107.52000000000004L233.9468264,-10.079999999999984L234.0363368,8.400000000000034L234.39063153333333,73.92000000000002L235.39741633333333,179.76L238.70938746666667,31.920000000000016L238.99366586666665,-0.839999999999975L239.43962933333336,255.36L242.37420293333332,36.120000000000005L243.1922458,36.120000000000005L243.8415588,-5.8799999999999955L246.66571206666666,315L246.91367866666667,0.8400000000000318L248.23646073333336,10.919999999999959L250.05850846666667,2.5200000000000387L250.98293126666667,189.84L252.85750420000002,303.24L253.38847146666666,30.24000000000001L253.71263586666666,178.92000000000002L253.7535924,20.160000000000025L254.314431,134.39999999999998L255.02084486666666,225.96L255.5920262,11.759999999999991L257.12554793333334,188.16L257.4463626,4.199999999999989L257.5359420666667,112.56L257.950791,89.03999999999996L258.9227144,298.2L262.9576926666667,-5.8799999999999955L264.247858,9.240000000000009L264.42356359999997,141.95999999999998L266.47776166666665,247.8L267.32046133333336,104.16000000000003L267.61544506666667,248.64000000000001L268.6867036,-6.71999999999997L270.6653945333333,54.60000000000002L271.61399066666667,209.16L273.4632506666667,-9.240000000000009L274.5626193333334,132.72000000000003L275.2796004,34.44L275.81978806666666,2.5200000000000387L279.23152600000003,15.960000000000036L280.30173126666665,49.56L280.5053225333333,48.72000000000003L282.59567699999997,278.88L283.9874221333333,21L284.85821466666664,75.59999999999997L285.0157384666667,9.240000000000009L285.2839243333333,15.120000000000005L288.1161411333333,17.639999999999986L288.21742739999996,-27.71999999999997L289.09821733333337,127.67999999999998L289.39853646666666,155.4L291.2015045333333,248.64000000000001L292.24396226666664,20.160000000000025L293.2509888,10.079999999999984L293.2800140666667,223.44L295.15745326666666,16.799999999999955L298.80507113333334,12.600000000000023L298.87738393333336,302.4L300.5145574666667,147.83999999999997L301.3086169333333,68.88L301.4228877333333,42L302.05153253333333,259.56L302.26348086666667,172.20000000000002L304.05904153333336,114.23999999999995L304.21552933333334,220.92L305.8511661333333,53.75999999999999L306.1056422666667,147.83999999999997L311.110023,77.27999999999997L311.33101906666667,124.32L312.12419793333333,246.96L313.89252906666667,87.36000000000001L314.8010665333333,220.92L316.7599526,12.600000000000023L316.85384873333334,35.28000000000003L317.4723752666667,0.8400000000000318L317.6727204,57.95999999999998L318.47751973333334,136.92L320.58852513333335,273.84000000000003L320.85362026666667,65.51999999999998L321.0755314666667,25.19999999999999L321.467433,58.80000000000001L322.1079054666667,102.47999999999996L323.21241960000003,180.6L324.0721787333334,30.24000000000001L324.7749838666667,246.96L325.3165356,290.64L327.4710702666667,87.36000000000001L329.6776466666667,21L330.83040386666664,246.96L331.4517276,204.96L333.33201579999997,236.04000000000002L335.62931126666666,15.120000000000005L335.75395933333334,239.4L335.85319086666664,256.2L336.6094018,3.359999999999957L339.05816046666666,193.20000000000002L339.53808746666664,142.79999999999998L341.60179946666665,61.31999999999999L342.1912316666666,14.28000000000003L342.3884515333333,78.95999999999998L345.6840366,151.20000000000002L345.77637873333333,52.079999999999984L346.35950859999997,217.56L348.0924258,266.28L348.37309546666665,204.12L348.49727733333333,127.67999999999998L349.3284774,296.52L350.2819772666667,42L351.7899788666667,233.51999999999998L352.3030578666667,226.79999999999998L352.7164736666666,120.95999999999998L353.1604342,272.15999999999997L353.70164059999996,141.11999999999998L354.9278329333333,36.95999999999998L356.1833958666666,14.28000000000003L356.2078282,229.32000000000002L356.82842673333334,257.88L357.88150346666663,178.92000000000002L358.17526126666667,48.72000000000003L358.5976384666667,273L358.83141186666666,242.76000000000002L359.1871397333333,270.48L360.3111997333333,250.32L360.39903526666666,277.2L361.3579568666667,278.04L361.4789098666667,249.48L362.1315380666667,98.28000000000003L362.29895566666664,24.360000000000014L362.36484526666663,42.839999999999975L363.5384433333333,37.80000000000001L363.724837,85.68L364.06985953333333,80.64000000000004L364.2200622666667,84L366.11281699999995,152.04000000000002L366.69912393333334,94.91999999999996L366.96572126666666,281.4L368.2583557333333,224.28L368.94152866666667,54.60000000000002L369.0054844,201.6L369.0400868,103.32L370.6794532,134.39999999999998L375.16079206666666,260.4L376.639613,180.6L377.2439981333334,15.960000000000036L378.08664600000003,190.67999999999998L378.3133746,114.23999999999995L378.7907634,162.12L379.24776026666666,63.839999999999975L380.09655506666667,237.72L381.42171993333335,218.4L382.01040966666665,251.16L382.39177853333337,263.76L384.3420830666667,287.28L387.5022802,225.12L390.0930917333333,49.56L390.2242838666666,299.88L391.1828256,40.31999999999999L392.0008512,321.72L394.6736966666667,301.56L395.3880186666667,232.68L395.4942259333334,250.32L395.9504803333333,50.39999999999998L397.0852111333333,31.079999999999984L398.801725,176.4L398.8948614,254.51999999999998L399.3221250666666,193.20000000000002L401.88467106666667,252L403.2782119333333,262.08000000000004L405.7410084,53.75999999999999L408.9017408,288.96000000000004L409.6912764,242.76000000000002L411.22631759999996,79.80000000000001L411.65049053333337,145.32000000000002L412.47851353333334,261.24L414.294846,73.07999999999998L414.77706946666666,303.24L415.9200019333333,163.8L416.4694618,246.96L417.9374392666667,293.15999999999997L418.3451052666667,320.88L419.03748133333335,287.28L419.56149013333334,229.32000000000002L419.8567156,259.56L420.2067972666666,133.56000000000003L420.3126592,124.32L420.7447748,295.68L421.6948040666667,266.28L422.75982933333336,125.16L423.6376148666667,260.4L426.4997548,270.48L427.8924841333333,242.76000000000002L428.0113824,215.88L428.5546262666667,267.12L429.84962626666663,15.120000000000005L430.6902712,260.4L431.7408788,174.72L433.0348428,138.60000000000002L433.64088553333335,144.48000000000002L435.2618802,232.68L435.3502337333333,151.20000000000002L437.1105358666667,199.08L437.84633759999997,56.27999999999997L438.7260915333333,159.60000000000002L439.6820950666667,268.8L440.2760684,72.24000000000001L440.6754636666667,303.24L442.0752205333333,268.8L442.6310863333333,233.51999999999998L442.9655244,263.76L443.1114968,294.84000000000003L443.6774118,117.60000000000002L445.84458566666666,254.51999999999998L449.4030212,278.88L451.0698416,220.07999999999998L451.22510346666667,236.04000000000002L451.47567733333335,266.28L451.9018877333333,273.84000000000003L452.2299198666667,185.64000000000001L452.3655495333333,162.12L453.80515786666666,270.48L455.1263686666666,199.08L456.33232446666665,241.92000000000002L457.23497399999997,295.68L457.8359230666667,97.44L457.8948196666667,278.88L459.8863224666667,256.2L460.06603393333336,262.08000000000004L460.7835675333333,273L461.0135077333333,11.759999999999991L461.12442880000003,270.48L461.2599030666667,250.32L463.5996054666667,266.28L463.61832253333336,302.4L463.7987074,246.96L463.89964833333335,39.48000000000002L464.30871293333337,250.32L465.9932662,213.36L466.45257680000003,118.44L467.28305166666667,262.08000000000004L469.7603003333333,126L471.45279626666667,245.28L472.588235,236.88L473.6829934666667,202.44L474.1376420666667,295.68L475.8456089333333,278.04L477.2840431333333,282.24L477.8756682,262.08000000000004L479.873905,204.12L480.5637774,264.6L481.0062875333333,251.16L481.0532874,290.64L481.8861968666667,307.44L482.6548225333333,305.76L484.1252173333333,315L487.7790857333333,156.24L488.35734640000004,257.03999999999996L488.60337913333336,266.28L488.7506810666667,224.28L489.880888,231L489.9485733333333,249.48L490.4368056,225.12L490.9045768666667,257.03999999999996L493.73964266666667,271.32L494.059076,250.32L496.5793532,223.44L497.0934682,270.48L498.8549272,257.88L500.38791366666663,275.52L502.1226784,273L502.66887486666667,292.32L503.0605346666667,250.32L504.26193206666665,304.92L505.0672148666667,288.96000000000004L506.63810166666667,215.04L507.9521122666667,301.56L508.6281368,304.08L508.74850273333334,266.28L510.40087093333335,243.6L511.33675880000004,252.83999999999997L512.5547322,278.88L514.0672922,280.56L514.0956440666666,87.36000000000001L514.9089040666667,278.04L515.2296669333333,251.16L516.2705361333333,252L520.5367668666667,252L521.2985722000001,247.8L522.1390962666667,245.28L523.6835996000001,276.36L523.9147657333333,270.48L524.8734801333334,266.28L525.0720986,278.88L525.7266952,252.83999999999997L526.1706730000001,96.59999999999997L526.2164296666667,299.03999999999996L526.7654405999999,258.72L526.7883707333333,276.36L526.8134937333334,220.92L526.8896915333333,184.8L527.3227913333333,265.44L528.2557611333333,262.08000000000004L528.9962939333333,254.51999999999998L529.5209070666667,286.44L529.9646604,253.68L530.2193264666666,263.76L532.4196178,240.23999999999998L532.7802494,117.60000000000002L533.2736616666667,243.6L533.4703980666667,249.48L533.6462072666666,287.28L533.6706396000001,267.96000000000004L534.4183553333332,235.20000000000002L534.697212,103.32L535.1691790666666,262.08000000000004L536.8605699333333,240.23999999999998L538.0931336666667,316.68L538.1127485999999,283.08L538.8164688666667,252.83999999999997L539.7466587333333,248.64000000000001L542.4711833333333,183.12L543.0854968,296.52L543.1696545333334,283.92L543.3769063333333,304.92L544.0650348,280.56L544.8693161333334,291.48L545.173503,266.28L546.1271582666667,303.24L546.7532821333333,79.80000000000001L547.1361704666667,297.36L548.7590644666667,260.4L549.3039486666667,257.88L549.9825977333333,247.8L551.2634045333334,229.32000000000002L554.41281,283.92L554.4383474,277.2L556.7743547333334,257.03999999999996L557.8668685333333,285.6L560.87227,238.56L561.0248727999999,132.72000000000003L563.9690984666667,252.83999999999997L565.076358,260.4L566.0221914666666,290.64L566.5978276000001,288.96000000000004L567.0851102,266.28L567.2025408,269.64L567.7387744,272.15999999999997L568.2792555999999,255.36L568.7792464666667,249.48L570.4479834666666,262.91999999999996L571.7313457333333,290.64L573.1030097333334,268.8L574.1706422666667,280.56L574.2690795333334,265.44L574.882875,252.83999999999997L579.3282128666667,267.96000000000004L579.7400401333334,287.28L579.7991612,266.28L580.3395906000001,265.44L580.5193538666666,275.52L581.6313617333334,267.12L581.9965172,274.68L583.1231154,241.08L583.4383874666667,297.36L583.7058654,272.15999999999997L583.9559903333333,267.96000000000004L585.077633,299.03999999999996L585.3488578,177.24L585.4887868666667,286.44L586.9138221333334,284.76L587.5548126000001,242.76000000000002L588.0832762,262.08000000000004L589.8003253333334,262.08000000000004L590.3265960666666,144.48000000000002L591.1063242,287.28L591.5097426,253.68L591.6742766666667,291.48L592.6069529333333,289.8L592.9128837333334,275.52L593.0288466666667,254.51999999999998L593.1700707333333,257.03999999999996L593.2393791333333,297.36L595.0818878666666,257.03999999999996L595.1099634666666,165.48000000000002L595.1557892,307.44L596.1462224666667,288.12L596.2113350666666,281.4L596.9913222,269.64L597.5843286,273L597.6439849333334,309.12L597.7544915999999,288.96000000000004L599.0650661333334,78.12L599.4256804666667,285.6L599.6271824666667,265.44L599.6762370666667,266.28L600.9081792,234.35999999999999L601.2597458,271.32L602.2918780666666,257.88L603.4937416666667,48.72000000000003L604.4922902666666,265.44L604.8165582666667,69.71999999999997L604.8474483333333,147.83999999999997L605.3065172,286.44L605.3701103333334,291.48L605.4939814,248.64000000000001L605.7984618,256.2L608.560127,239.4L609.0939087333334,236.88L610.7503691333333,268.8L610.7852305333333,194.04L610.8600297333332,285.6L610.883616,278.04L611.8250464666667,248.64000000000001L612.0710274,302.4L612.7062680666667,257.88L613.5016570666667,212.52L614.0953541333333,267.12L614.9828608,246.11999999999998L615.8756338000001,253.68L616.8683462666667,72.24000000000001L617.0892905333333,256.2L617.8601954,248.64000000000001L618.1750876,292.32L619.7375137333333,276.36L621.306294,227.64L621.8515408,256.2L623.9682269333333,134.39999999999998L624.0416620666666,241.08L624.1924000666667,256.2L625.8337521333333,229.32000000000002L626.2492226666667,297.36L628.0147047999999,264.6L628.9078058666668,299.03999999999996L628.9337231333334,242.76000000000002L632.7913382,281.4L633.7949977333334,276.36L633.8163220666667,280.56L635.3304015333333,185.64000000000001L635.4549978,267.12L635.9359089999999,282.24L636.0617657333333,283.92L636.5689740666667,290.64L636.710319,262.08000000000004L638.0687567333333,284.76L639.4866090666667,262.91999999999996L640.2358442666666,264.6L640.4062144666667,231L645.468663,261.24L646.0905910666667,262.91999999999996L646.4171728,111.72000000000003L647.1076668000001,264.6L647.2703188,264.6L647.5282482666667,254.51999999999998L647.6412413333333,299.03999999999996L647.8483895333334,246.11999999999998L648.1730719333334,281.4L648.8658106,261.24L650.4989609999999,236.88L650.57174,263.76L651.6428949333333,244.44L652.4746993333333,114.23999999999995L653.3738955333333,244.44L655.5730645333333,268.8L655.9578694666666,249.48L658.5327784,254.51999999999998L658.7016291333333,303.24L659.0223574666667,259.56L660.2447338666667,293.15999999999997L660.5283388666667,266.28L660.5479883333333,302.4L662.6539864,264.6L662.7269726000001,216.72L666.24901,253.68L666.3302324,285.6L666.3530244,282.24L666.7799945333334,246.96L667.1162974,312.48L667.3784054,268.8L667.6351952666666,252L667.769599,89.88L667.8921232666667,65.51999999999998L667.9711182666667,282.24L668.1141726,257.03999999999996L668.6848186666666,265.44L668.9172798,253.68L669.5283989333333,244.44L669.5700288666666,254.51999999999998L670.6511984666666,231L671.1985863333333,258.72L672.4585522666667,232.68L673.0206168000001,273L673.4632478,274.68L673.7791587333332,262.08000000000004L674.5343509333334,282.24L677.1109347333332,276.36L678.2616544666666,141.95999999999998L679.6288636666667,280.56L680.0833914,291.48L680.3687403333333,280.56L680.8206780666667,267.96000000000004L682.2604418,252.83999999999997L682.5626257333333,271.32L683.4562448,320.04L683.9380366,249.48L684.1992812666666,271.32L686.2541527333333,271.32L686.4895664666666,267.96000000000004L689.7847544,301.56L690.6334283333333,252L690.679185,266.28L691.4081318666666,277.2L692.3277717999999,262.91999999999996L693.4555959333334,105L694.5509414666667,294L694.6052624,269.64L694.7880473333333,281.4L695.4603422666667,248.64000000000001L696.0090251333334,278.04L696.3035772,267.12L697.6912992,265.44L699.9073204666666,270.48L701.0174807999999,262.91999999999996L701.1132417333333,242.76000000000002L702.5550947333334,114.23999999999995L703.6040792666668,278.04L704.2768404,278.88L704.8063572666667,284.76L705.0152321333334,257.88L707.8743676666667,276.36L708.5802117333333,280.56L709.1031327333334,260.4L709.8789758666667,279.72L710.5440188,317.52L711.6210098666667,288.12L712.5917073333334,312.48L714.5235538000001,286.44L716.2414662666666,280.56L716.8096777333333,282.24L717.1189928,115.07999999999998L717.3181292666667,281.4L719.1870042,274.68L720.5206642666667,299.88L723.2088943333333,282.24L723.5627401333334,280.56L724.7902965333333,279.72L725.4465507333333,271.32L726.8858482666666,296.52L727.4611563333334,241.08L729.4516749333333,274.68L730.3225710666667,278.88L731.1105699333333,274.68L731.8413470666667,272.15999999999997L732.7488312666667,290.64L735.159845,267.96000000000004L735.5283329333333,282.24L735.9765928666667,272.15999999999997L736.1934449333334,283.92L736.557409,263.76L737.977506,267.12L737.9977943333333,294L738.3090605333334,315L740.8714338666667,283.08L741.1589756666666,307.44L741.4429259999999,305.76L743.5202959333333,285.6L743.7450734,274.68L745.3522892666667,277.2L746.2850864,261.24L750.0583538,237.72L752.0230932666667,158.76000000000002L752.0673132000001,275.52L753.1187323333334,241.08L753.1419905333333,289.8L753.1611910666667,302.4L753.5351525333333,294.84000000000003L753.8354544,267.12L753.8857004,236.88L756.2279237333333,252.83999999999997L759.8047828,277.2L761.3058604666667,305.76L761.4368972,294L761.5781385333333,282.24L761.6645582,286.44L761.6771110666667,304.92L763.4377067333334,266.28L764.3862510666667,300.72L765.6848425333334,309.12L768.3261418000001,255.36L768.5891476666666,278.04L768.7830350666667,273.84000000000003L769.9702738000001,268.8L770.4953358666667,287.28L771.4067914000001,193.20000000000002L771.4820395333334,277.2L772.1749681333333,280.56L772.4174957333333,280.56L772.5574075333333,271.32L772.9911634666668,266.28L774.3541250666667,284.76L774.8317210666667,281.4L774.8915327999999,278.04L775.3890545333334,257.03999999999996L777.2815675333334,294L779.4023631333333,286.44L779.4495356666666,284.76L780.2199225333333,263.76L780.654749,290.64L787.2940931333334,234.35999999999999L787.9179723333333,267.96000000000004L788.9668014666667,279.72L790.2072733333333,235.20000000000002L791.6471579333333,279.72L791.9668502666667,278.04L794.1573168666667,225.96L794.8329615333333,266.28L795.7228337333333,281.4L797.2170738,87.36000000000001L802.2930939333334,299.03999999999996L804.1797190000001,277.2L804.7488628666666,238.56L805.2423269333334,304.08L805.6987712666667,281.4L806.1603438,280.56L806.2824709333333,262.08000000000004L806.6484552000001,283.08L806.9431799333333,258.72L807.3226494666667,261.24L807.9455617333334,279.72L809.5062439333333,248.64000000000001L810.6605724,266.28L810.9722702666667,288.12L811.1984290666666,288.12L812.0532671999999,287.28L813.4733987333334,268.8L815.1550339333332,294.84000000000003L815.8944961999999,286.44L816.0715313333334,252.83999999999997L816.2719109999999,317.52L817.4587526,264.6L817.5338108000001,241.92000000000002L818.0296576666666,224.28L818.2802660666666,280.56L818.705734,261.24L819.140854,257.03999999999996L822.3417314,302.4L824.2288917333333,272.15999999999997L824.2531686666666,272.15999999999997L825.0352968666667,277.2L825.4910332666666,275.52L826.5964625333334,288.96000000000004L828.3582496,259.56L828.4814990666666,281.4L829.0999047333333,293.15999999999997L830.2324772,286.44L830.6020702000001,273.84000000000003L831.665317,257.88L832.5734400666666,284.76L833.5741815333333,273L834.0626037333334,211.68L834.2075746666667,292.32L834.5357621999999,278.88L835.1970582666667,259.56L836.2473723333334,290.64L837.1934302666666,278.04L838.7975554,283.92L839.3735886666667,270.48L839.5336161333333,265.44L839.6204329333334,289.8L841.8957997333333,271.32L841.9635886666666,282.24L842.9062623333333,283.92L843.6487635333334,269.64L845.0736433999999,289.8L845.4085476666667,260.4L845.8334457999999,294L845.8534751333333,306.6L846.8228776000001,256.2L849.1036661333333,277.2L849.7501474,261.24L853.2992244,282.24L854.6398947333333,290.64L857.3101329333333,299.88L857.5758496666666,274.68L860.602092,277.2L861.9778309333334,253.68L862.8935858666666,256.2L863.3981869333332,258.72L864.2714486,278.04L865.1470757999999,94.91999999999996L865.1713354666667,243.6L865.7632540666666,275.52L867.2435772,278.04L867.4083702666667,257.88L867.7651168666666,291.48L868.9137128,230.16L869.5268521333334,259.56L869.9308403333333,290.64L870.5370039333334,280.56L871.5786846666666,273.84000000000003L873.0961484000001,246.96L873.2411193333334,266.28L873.4599570666667,258.72L874.5565976,278.04L874.7778872,280.56L876.1439395333334,277.2L876.4371966,277.2L879.8798591333333,270.48L880.1753263333333,274.68L880.9723211333334,260.4L881.0076832666666,291.48L881.9070694,269.64L883.4986589333333,257.03999999999996L885.1907577333334,283.92L886.2574751333334,312.48L887.1261266,219.24L887.8092822666667,267.12L888.4497547333333,293.15999999999997L888.7525430000001,264.6L888.8159289333333,257.03999999999996L890.3926346,270.48L890.4471627333334,283.92L891.5001531333332,252L892.4461074666667,255.36L892.6879271333333,86.52000000000004L892.7570110666667,290.64L894.0588659333333,309.96000000000004L896.7041192666667,239.4L897.1463703999999,245.28L897.3014250666666,279.72L897.3239926,279.72L897.5009759333334,273.84000000000003L899.0231707333334,283.92L899.1202957333334,270.48L899.6962944666667,257.88L899.9844578666666,284.76L900.3035458666666,293.15999999999997L900.4572192,265.44L902.4140332666667,264.6L903.2166569999999,273.84000000000003L903.3173216666667,288.96000000000004L903.9478485333334,290.64L903.9955218,283.92L905.5525779999999,251.16L905.7017274666666,278.88L906.1137101333333,271.32L907.8190179333334,253.68L908.0736840000001,258.72L908.4897761333334,279.72L908.6448135333334,304.92L908.7141564666666,240.23999999999998L909.0895338,244.44L909.3366198,297.36L912.5763126666667,290.64L913.477201,294L914.8257276666667,281.4L914.96671,290.64L916.4820672,292.32L917.0639366,310.8L917.2721380666666,276.36L917.5732859999999,274.68L918.0141212666666,235.20000000000002L918.3821948,297.36L918.7047706666667,294L919.6377749999999,267.12L919.9357804,282.24L920.5040954666666,263.76L921.2440412,252L921.4068658666667,294.84000000000003L922.7290781333332,241.92000000000002L922.9701207999999,287.28L923.7615902666666,268.8L924.2170849333334,269.64L924.3789426666666,282.24L925.4506501333334,265.44L925.9868837333333,266.28L926.6088636,257.03999999999996L926.6733028,234.35999999999999L927.4348318666666,283.08L928.9751739333333,276.36L929.586224,268.8L930.4189608,271.32L930.4857828,212.52L931.7609261333333,258.72L931.7885700666667,249.48L931.9720974666667,299.88L932.2561341333333,272.15999999999997L933.6034694,271.32L934.2231182666667,271.32L935.6153986666667,106.68L935.6456498666666,124.32L936.2381382666666,288.96000000000004L936.5365062666666,251.16L936.8883664,245.28L937.3695193333334,278.88L937.5663420666667,262.91999999999996L937.7658066,285.6L938.4694750666666,267.96000000000004L939.5807922666667,263.76L940.8475094666667,283.92L941.5903732666667,282.24L942.0952160666667,290.64L943.7975885333333,280.56L945.6032847333333,268.8L946.8541511333333,300.72L947.3655725333333,265.44L948.4740062,266.28L949.3367524666667,263.76L949.6560131333333,254.51999999999998" style="fill: none;" fill="none"></path></g></g></g></g></g><g><g opacity="0.0587524"><span fill="rgb(0, 0, 0)" stroke="none" stroke-width="1px">Alt + Scroll to Zoom</span></g></g></g><g transform="translate(40, 378)" clip-path="url(#clip_1)"><clipPath id="clip_1"><rect width="1036" height="22"></rect></clipPath><g><g><line x1="0" y1="0" x2="0" y2="5" style="visibility: inherit;" fill="rgb(0, 0, 0)" stroke="rgb(204, 204, 204)" stroke-width="1px"></line><line x1="86.33333333333333" y1="0" x2="86.33333333333333" y2="5" style="visibility: inherit;" fill="rgb(0, 0, 0)" stroke="rgb(204, 204, 204)" stroke-width="1px"></line><line x1="172.66666666666666" y1="0" x2="172.66666666666666" y2="5" style="visibility: inherit;" fill="rgb(0, 0, 0)" stroke="rgb(204, 204, 204)" stroke-width="1px"></line><line x1="259" y1="0" x2="259" y2="5" style="visibility: inherit;" fill="rgb(0, 0, 0)" stroke="rgb(204, 204, 204)" stroke-width="1px"></line><line x1="345.3333333333333" y1="0" x2="345.3333333333333" y2="5" style="visibility: inherit;" fill="rgb(0, 0, 0)" stroke="rgb(204, 204, 204)" stroke-width="1px"></line><line x1="431.6666666666667" y1="0" x2="431.6666666666667" y2="5" style="visibility: inherit;" fill="rgb(0, 0, 0)" stroke="rgb(204, 204, 204)" stroke-width="1px"></line><line x1="518" y1="0" x2="518" y2="5" style="visibility: inherit;" fill="rgb(0, 0, 0)" stroke="rgb(204, 204, 204)" stroke-width="1px"></line><line x1="604.3333333333334" y1="0" x2="604.3333333333334" y2="5" style="visibility: inherit;" fill="rgb(0, 0, 0)" stroke="rgb(204, 204, 204)" stroke-width="1px"></line><line x1="690.6666666666666" y1="0" x2="690.6666666666666" y2="5" style="visibility: inherit;" fill="rgb(0, 0, 0)" stroke="rgb(204, 204, 204)" stroke-width="1px"></line><line x1="777" y1="0" x2="777" y2="5" style="visibility: inherit;" fill="rgb(0, 0, 0)" stroke="rgb(204, 204, 204)" stroke-width="1px"></line><line x1="863.3333333333334" y1="0" x2="863.3333333333334" y2="5" style="visibility: inherit;" fill="rgb(0, 0, 0)" stroke="rgb(204, 204, 204)" stroke-width="1px"></line><line x1="949.6666666666666" y1="0" x2="949.6666666666666" y2="5" style="visibility: inherit;" fill="rgb(0, 0, 0)" stroke="rgb(204, 204, 204)" stroke-width="1px"></line><line x1="1036" y1="0" x2="1036" y2="5" style="visibility: inherit;" fill="rgb(0, 0, 0)" stroke="rgb(204, 204, 204)" stroke-width="1px"></line></g><g transform="translate(0, 8)"><text x="0" y="0" dx="0em" dy="0.95em" style="text-anchor: middle; visibility: hidden; font-family: &quot;Helvetica Neue&quot;, sans-serif; font-size: 12px; font-weight: 200;" fill="rgb(50, 49, 63)" stroke="none" stroke-width="1px">-5M</text><text x="86.33333333333333" y="0" dx="0em" dy="0.95em" style="text-anchor: middle; visibility: inherit; font-family: &quot;Helvetica Neue&quot;, sans-serif; font-size: 12px; font-weight: 200;" fill="rgb(50, 49, 63)" stroke="none" stroke-width="1px">0</text><text x="172.66666666666666" y="0" dx="0em" dy="0.95em" style="text-anchor: middle; visibility: inherit; font-family: &quot;Helvetica Neue&quot;, sans-serif; font-size: 12px; font-weight: 200;" fill="rgb(50, 49, 63)" stroke="none" stroke-width="1px">5M</text><text x="259" y="0" dx="0em" dy="0.95em" style="text-anchor: middle; visibility: inherit; font-family: &quot;Helvetica Neue&quot;, sans-serif; font-size: 12px; font-weight: 200;" fill="rgb(50, 49, 63)" stroke="none" stroke-width="1px">10M</text><text x="345.3333333333333" y="0" dx="0em" dy="0.95em" style="text-anchor: middle; visibility: inherit; font-family: &quot;Helvetica Neue&quot;, sans-serif; font-size: 12px; font-weight: 200;" fill="rgb(50, 49, 63)" stroke="none" stroke-width="1px">15M</text><text x="431.6666666666667" y="0" dx="0em" dy="0.95em" style="text-anchor: middle; visibility: inherit; font-family: &quot;Helvetica Neue&quot;, sans-serif; font-size: 12px; font-weight: 200;" fill="rgb(50, 49, 63)" stroke="none" stroke-width="1px">20M</text><text x="518" y="0" dx="0em" dy="0.95em" style="text-anchor: middle; visibility: inherit; font-family: &quot;Helvetica Neue&quot;, sans-serif; font-size: 12px; font-weight: 200;" fill="rgb(50, 49, 63)" stroke="none" stroke-width="1px">25M</text><text x="604.3333333333334" y="0" dx="0em" dy="0.95em" style="text-anchor: middle; visibility: inherit; font-family: &quot;Helvetica Neue&quot;, sans-serif; font-size: 12px; font-weight: 200;" fill="rgb(50, 49, 63)" stroke="none" stroke-width="1px">30M</text><text x="690.6666666666666" y="0" dx="0em" dy="0.95em" style="text-anchor: middle; visibility: inherit; font-family: &quot;Helvetica Neue&quot;, sans-serif; font-size: 12px; font-weight: 200;" fill="rgb(50, 49, 63)" stroke="none" stroke-width="1px">35M</text><text x="777" y="0" dx="0em" dy="0.95em" style="text-anchor: middle; visibility: inherit; font-family: &quot;Helvetica Neue&quot;, sans-serif; font-size: 12px; font-weight: 200;" fill="rgb(50, 49, 63)" stroke="none" stroke-width="1px">40M</text><text x="863.3333333333334" y="0" dx="0em" dy="0.95em" style="text-anchor: middle; visibility: inherit; font-family: &quot;Helvetica Neue&quot;, sans-serif; font-size: 12px; font-weight: 200;" fill="rgb(50, 49, 63)" stroke="none" stroke-width="1px">45M</text><text x="949.6666666666666" y="0" dx="0em" dy="0.95em" style="text-anchor: middle; visibility: inherit; font-family: &quot;Helvetica Neue&quot;, sans-serif; font-size: 12px; font-weight: 200;" fill="rgb(50, 49, 63)" stroke="none" stroke-width="1px">50M</text><text x="1036" y="0" dx="0em" dy="0.95em" style="text-anchor: middle; visibility: hidden; font-family: &quot;Helvetica Neue&quot;, sans-serif; font-size: 12px; font-weight: 200;" fill="rgb(50, 49, 63)" stroke="none" stroke-width="1px">55M</text></g><line x1="0" y1="0" x2="1036" y2="0" fill="rgb(0, 0, 0)" stroke="rgb(204, 204, 204)" stroke-width="1px"></line></g></g></g></g></svg>