<svg viewBox="0 0 1496 400" xmlns="http://www.w3.org/2000/svg"><g><g><g><g><g><line x1="70" y1="378" x2="65" y2="378" style="visibility: inherit;" fill="rgb(0, 0, 0)" stroke="rgb(204, 204, 204)" stroke-width="1px"></line><line x1="70" y1="330.75" x2="65" y2="330.75" style="visibility: inherit;" fill="rgb(0, 0, 0)" stroke="rgb(204, 204, 204)" stroke-width="1px"></line><line x1="70" y1="283.5" x2="65" y2="283.5" style="visibility: inherit;" fill="rgb(0, 0, 0)" stroke="rgb(204, 204, 204)" stroke-width="1px"></line><line x1="70" y1="236.25" x2="65" y2="236.25" style="visibility: inherit;" fill="rgb(0, 0, 0)" stroke="rgb(204, 204, 204)" stroke-width="1px"></line><line x1="70" y1="189" x2="65" y2="189" style="visibility: inherit;" fill="rgb(0, 0, 0)" stroke="rgb(204, 204, 204)" stroke-width="1px"></line><line x1="70" y1="141.75" x2="65" y2="141.75" style="visibility: inherit;" fill="rgb(0, 0, 0)" stroke="rgb(204, 204, 204)" stroke-width="1px"></line><line x1="70" y1="94.5" x2="65" y2="94.5" style="visibility: inherit;" fill="rgb(0, 0, 0)" stroke="rgb(204, 204, 204)" stroke-width="1px"></line><line x1="70" y1="47.25" x2="65" y2="47.25" style="visibility: inherit;" fill="rgb(0, 0, 0)" stroke="rgb(204, 204, 204)" stroke-width="1px"></line><line x1="70" y1="0" x2="65" y2="0" style="visibility: inherit;" fill="rgb(0, 0, 0)" stroke="rgb(204, 204, 204)" stroke-width="1px"></line></g><g transform="translate(60, 0)"><text x="0" y="378" dx="0em" dy="0.3em" style="text-anchor: end; visibility: hidden; font-family: Roboto, sans-serif; font-size: 12px; font-weight: 200;" fill="rgb(50, 49, 63)" stroke="none" stroke-width="1px">800</text><text x="0" y="330.75" dx="0em" dy="0.3em" style="text-anchor: end; visibility: inherit; font-family: Roboto, sans-serif; font-size: 12px; font-weight: 200;" fill="rgb(50, 49, 63)" stroke="none" stroke-width="1px">900</text><text x="0" y="283.5" dx="0em" dy="0.3em" style="text-anchor: end; visibility: inherit; font-family: Roboto, sans-serif; font-size: 12px; font-weight: 200;" fill="rgb(50, 49, 63)" stroke="none" stroke-width="1px">1e+3</text><text x="0" y="236.25" dx="0em" dy="0.3em" style="text-anchor: end; visibility: inherit; font-family: Roboto, sans-serif; font-size: 12px; font-weight: 200;" fill="rgb(50, 49, 63)" stroke="none" stroke-width="1px">1.1e+3</text><text x="0" y="189" dx="0em" dy="0.3em" style="text-anchor: end; visibility: inherit; font-family: Roboto, sans-serif; font-size: 12px; font-weight: 200;" fill="rgb(50, 49, 63)" stroke="none" stroke-width="1px">1.2e+3</text><text x="0" y="141.75" dx="0em" dy="0.3em" style="text-anchor: end; visibility: inherit; font-family: Roboto, sans-serif; font-size: 12px; font-weight: 200;" fill="rgb(50, 49, 63)" stroke="none" stroke-width="1px">1.3e+3</text><text x="0" y="94.5" dx="0em" dy="0.3em" style="text-anchor: end; visibility: inherit; font-family: Roboto, sans-serif; font-size: 12px; font-weight: 200;" fill="rgb(50, 49, 63)" stroke="none" stroke-width="1px">1.4e+3</text><text x="0" y="47.25" dx="0em" dy="0.3em" style="text-anchor: end; visibility: inherit; font-family: Roboto, sans-serif; font-size: 12px; font-weight: 200;" fill="rgb(50, 49, 63)" stroke="none" stroke-width="1px">1.5e+3</text><text x="0" y="0" dx="0em" dy="0.3em" style="text-anchor: end; visibility: hidden; font-family: Roboto, sans-serif; font-size: 12px; font-weight: 200;" fill="rgb(50, 49, 63)" stroke="none" stroke-width="1px">1.6e+3</text></g><line x1="70" y1="0" x2="70" y2="378" fill="rgb(0, 0, 0)" stroke="rgb(204, 204, 204)" stroke-width="1px"></line></g></g><g transform="translate(70, 0)" clip-path="url(#clip_0)"><clipPath id="clip_0"><rect width="1426" height="378"></rect></clipPath><g><g><g><line x1="0" y1="0" x2="0" y2="378" fill="rgb(0, 0, 0)" stroke="rgb(60, 60, 60)" stroke-width="1px" opacity="0.25"></line><line x1="118.83333333333333" y1="0" x2="118.83333333333333" y2="378" fill="rgb(0, 0, 0)" stroke="rgb(60, 60, 60)" stroke-width="1px" opacity="0.25"></line><line x1="237.66666666666666" y1="0" x2="237.66666666666666" y2="378" fill="rgb(0, 0, 0)" stroke="rgb(60, 60, 60)" stroke-width="1px" opacity="0.25"></line><line x1="356.5" y1="0" x2="356.5" y2="378" fill="rgb(0, 0, 0)" stroke="rgb(60, 60, 60)" stroke-width="1px" opacity="0.25"></line><line x1="475.3333333333333" y1="0" x2="475.3333333333333" y2="378" fill="rgb(0, 0, 0)" stroke="rgb(60, 60, 60)" stroke-width="1px" opacity="0.25"></line><line x1="594.1666666666667" y1="0" x2="594.1666666666667" y2="378" fill="rgb(0, 0, 0)" stroke="rgb(60, 60, 60)" stroke-width="1px" opacity="0.25"></line><line x1="713" y1="0" x2="713" y2="378" fill="rgb(0, 0, 0)" stroke="rgb(60, 60, 60)" stroke-width="1px" opacity="0.25"></line><line x1="831.8333333333334" y1="0" x2="831.8333333333334" y2="378" fill="rgb(0, 0, 0)" stroke="rgb(60, 60, 60)" stroke-width="1px" opacity="0.25"></line><line x1="950.6666666666666" y1="0" x2="950.6666666666666" y2="378" fill="rgb(0, 0, 0)" stroke="rgb(60, 60, 60)" stroke-width="1px" opacity="0.25"></line><line x1="1069.5" y1="0" x2="1069.5" y2="378" fill="rgb(0, 0, 0)" stroke="rgb(60, 60, 60)" stroke-width="1px" opacity="0.25"></line><line x1="1188.3333333333335" y1="0" x2="1188.3333333333335" y2="378" fill="rgb(0, 0, 0)" stroke="rgb(60, 60, 60)" stroke-width="1px" opacity="0.25"></line><line x1="1307.1666666666665" y1="0" x2="1307.1666666666665" y2="378" fill="rgb(0, 0, 0)" stroke="rgb(60, 60, 60)" stroke-width="1px" opacity="0.25"></line><line x1="1426" y1="0" x2="1426" y2="378" fill="rgb(0, 0, 0)" stroke="rgb(60, 60, 60)" stroke-width="1px" opacity="0.25"></line></g><g><line x1="0" y1="378" x2="1426" y2="378" fill="rgb(0, 0, 0)" stroke="rgb(60, 60, 60)" stroke-width="1px" opacity="0.25"></line><line x1="0" y1="330.75" x2="1426" y2="330.75" fill="rgb(0, 0, 0)" stroke="rgb(60, 60, 60)" stroke-width="1px" opacity="0.25"></line><line x1="0" y1="283.5" x2="1426" y2="283.5" fill="rgb(0, 0, 0)" stroke="rgb(60, 60, 60)" stroke-width="1px" opacity="0.25"></line><line x1="0" y1="236.25" x2="1426" y2="236.25" fill="rgb(0, 0, 0)" stroke="rgb(60, 60, 60)" stroke-width="1px" opacity="0.25"></line><line x1="0" y1="189" x2="1426" y2="189" fill="rgb(0, 0, 0)" stroke="rgb(60, 60, 60)" stroke-width="1px" opacity="0.25"></line><line x1="0" y1="141.75" x2="1426" y2="141.75" fill="rgb(0, 0, 0)" stroke="rgb(60, 60, 60)" stroke-width="1px" opacity="0.25"></line><line x1="0" y1="94.5" x2="1426" y2="94.5" fill="rgb(0, 0, 0)" stroke="rgb(60, 60, 60)" stroke-width="1px" opacity="0.25"></line><line x1="0" y1="47.25" x2="1426" y2="47.25" fill="rgb(0, 0, 0)" stroke="rgb(60, 60, 60)" stroke-width="1px" opacity="0.25"></line><line x1="0" y1="0" x2="1426" y2="0" fill="rgb(0, 0, 0)" stroke="rgb(60, 60, 60)" stroke-width="1px" opacity="0.25"></line></g></g></g><g><g><line x1="0" y1="756" x2="1426" y2="756" fill="rgb(0, 0, 0)" stroke="rgb(153, 153, 153)" stroke-width="1.5px"></line></g></g><g><g><line x1="118.83333333333333" y1="0" x2="118.83333333333333" y2="378" fill="rgb(0, 0, 0)" stroke="rgb(153, 153, 153)" stroke-width="1.5px"></line></g></g><g><g><g><g><g><path stroke="rgb(255, 112, 67)" stroke-width="2px" d="M126.3869504,386.1302731656807L126.8175311,329.4262966369397L126.91616276666667,382.8807090165793L127.22933613333332,417.1019175321608L128.0136599,361.13104868010777L128.9002516333333,369.77540328429177L129.219129,390.0847911397907L132.06273936666668,408.6246629912944L133.3057598,371.4230195974856L133.71426126666668,365.35944226850086L136.30473286666668,354.72827666884217L136.5616743,275.7722339464933L136.79042846666667,341.2342019894731L138.61509053333333,263.518907452515L138.76203983333335,298.1605086166255L139.4053322,340.30242498065724L139.6687144,347.63246749210754L139.80998346666667,344.8484776458777L141.22816423333333,325.79007488387157L141.2736061,280.902028391029L141.64897683333334,256.9932117490016L143.85889656666666,284.79493073714195L144.71684946666667,278.41795793476354L145.6421571,242.08377302582934L146.44297493333335,309.49126574680184L146.7795347,281.8957589736948L146.8460576,332.811455909383L147.63810553333332,346.7288736317599L148.02260266666667,333.34432412935655L150.35140326666667,419.43559466941804L154.18912576666668,344.2713567011751L156.25021863333333,301.2518139862012L156.65641473333332,326.0920884036746L156.67970606666668,312.83525303837706L165.3668743,319.24515182413666L167.05594753333332,316.28709109417457L167.17998576666668,291.26525465494416L167.65049446666666,260.75415279182477L167.72210343333333,294.2334916758465L168.54989643333332,287.6720950054195L170.1708544,270.12725700310983L170.6680293,307.98435420204953L171.43490833333334,293.84361252118856L171.6189574,267.59316751266726L172.50402806666668,292.28890050762624L172.69399503333335,293.1203403045762L173.0224979,273.0182041827381L173.2137245,283.06992250964515L174.39100633333334,307.62295350579046L174.7828949,339.7427721034769L176.14641233333333,347.29666326208644L176.5342368,329.7159979572513L179.08207099999998,280.42259877435L181.54959763333332,267.28955926460986L181.57376833333333,270.56073555876594L182.06181683333332,160.25744133525913L182.0864391,202.75046480115552L182.94512876666667,250.35927888069344L184.13816789999998,256.6225673284161L184.54854693333334,270.96454039704963L185.07752163333333,261.8037242382298L185.6448319666667,266.89123454293787L185.71427816666665,237.05774072576273L187.66414303333335,267.73064443545763L188.83774103333332,283.2993866612747L190.66556406666666,265.61363199676475L191.05892616666665,278.8161791980589L191.6847738,306.3937075188353L192.60544693333333,211.4302245113012L193.424066,224.5711347067807L193.77816556666667,273.0906808240684L194.661834,271.395408494441L194.82675089999998,319.51824509666466L194.9834445333333,339.3199470579988L195.04112623333333,333.6239682347993L195.92560273333333,288.6263809408796L197.51416673333335,253.6898285645278L199.06993273333333,268.82689713871656L200.63090363333333,204.57713828322989L201.06483543333334,190.97528296993798L202.04483016666669,228.9301697819628L202.900549,250.00210186917766L203.13911879999998,320.29026112150655L205.1020791,284.0281566729039L205.38209796666666,286.8408940037424L205.92210039999998,294.1985364022454L206.74475980000003,249.85112184134724L206.97852873333335,307.34767310480834L207.7574337,303.66760386288496L209.85134833333333,294.08856231773103L210.09170063333335,325.9521373906386L212.96471036666665,315.7752824343832L214.89610853333332,309.6691694606299L215.42986033333332,334.544501676378L217.34975543333334,321.68670100582676L218.2606367,392.5960206034961L220.28177780000001,416.9976123620976L221.5857835,346.77756741725864L221.67764166666666,326.1915404503552L221.85517866666666,307.6029242702131L222.7484726,251.27875456212786L223.3692817,284.3902527372767L227.21287456666664,262.866151642366L227.43490276666665,302.3046909854196L227.47380879999997,359.79881459125176L228.46963213333336,353.0932887547511L228.57292206666665,329.9809732528506L229.02867166666667,287.19658395171035L229.78851576666668,270.59795037102623L230.097221,260.07177022261567L230.69141143333331,295.7140621335694L231.01513720000003,267.2034372801417L231.59606583333334,251.609062368085L232.34079433333332,284.399437420851L232.862948,273.26666245251056L233.93240046666665,268.09899747150627L234.93494976666668,275.96039848290377L236.12311673333332,273.3062390897423L241.10097376666667,218.79374345384542L243.30787513333334,251.1022460723072L245.12357716666668,265.0063476433843L245.9175502,268.24580858603065L246.2354056,243.91848515161843L248.0736622,259.940091090971L248.64289763333332,290.53205465458257L249.01553520000002,275.8122327927495L250.39987223333335,274.91833967564975L251.79818406666666,296.68400380538986L252.469735,316.9254022832339L252.55705373333333,319.8092413699403L254.608735,304.3405448219642L255.05780616666667,296.3823268931785L255.9381235,279.1333961359071L257.31076733333333,249.69503768154428L257.35373746666664,289.8660226089266L257.9454324,287.13061356535593L257.9715282,267.15636813921355L258.1060950666666,273.3158208835281L258.2203652,341.83849253011687L262.0151888666667,326.0630955180701L262.5536227,309.98285731084206L262.8870928,300.5237143865052L263.03380443333333,297.4942286319031L263.46688063333335,277.3435371791419L263.57670640000003,267.89912230748513L263.78511629999997,271.3044733844911L264.1826851,296.40568403069466L266.9844186,305.79641041841677L267.4589676333334,321.82584625105005L268.7255408333333,318.02450775063005L269.68286216666667,302.8917046503781L269.86588926666667,295.3240227902269L271.4555703,251.66041367413615L271.53323976666667,261.93924820448166L273.2425384333333,364.68554892268895L273.3612767,354.51332935361336L273.4054827,345.763997612168L274.7351326333333,320.85839856730075L276.2757355,285.1250391403805L277.4009683333333,297.5160234842283L278.43258426666665,272.06461409053696L279.5482153666667,294.02676845432217L280.010786,379.96906107259326L280.83634493333335,313.598436643556L281.6036517666667,291.54206198613355L281.97868976666666,267.1572371916802L283.96484633333336,305.0683423150081L284.6756360333333,288.12500538900485L284.76666236666665,283.06200323340295L284.82023243333333,231.8292019400417L285.6904014,285.194521164025L286.59132443333334,163.93471269841496L287.7655641333333,263.54682761904905L287.9973842,278.71009657142946L289.0090123666667,295.9350579428576L291.04900043333333,135.4140347657146L291.1216313666667,209.95742085942877L291.76076456666664,249.20245251565717L292.6898035666666,253.28247150939433L293.3413192,246.6584829056366L294.213746,263.47408974338197L295.20422183333335,270.3504538460292L297.4341531,323.42727230761756L300.77479576666667,314.82736338457056L301.31605783333333,302.8634180307423L304.7790037666667,264.1220508184454L304.8994057,270.9282304910673L306.9333332666667,259.51393829464047L307.4603828666667,294.6233629767843L311.11244016666666,283.1810177860705L311.2600787,207.33061067164235L312.86330673333333,256.69836640298547L313.8654757666667,292.7450198417913L313.96907466666664,307.00201190507477L314.6743267333333,174.18420714304486L315.40403469999995,239.0785242858268L316.0860905,185.21611457149612L316.66288373333333,247.2096687428976L316.7184739666667,169.49380124573852L317.78008343333335,250.62828074744317L318.04339433333337,271.3369684484658L318.89507283333336,301.33918106907953L319.0604413,284.18650864144774L320.11853329999997,288.2589051848687L323.5407194,343.4333431109212L325.1430680666667,225.90500586655267L325.9028408666667,272.19000351993157L327.36936303333334,254.9790021119589L328.4138605,254.66940126717537L329.4359935333333,184.55364076030517L329.73352843333333,244.54418445618307L330.30692303333336,237.4465106737098L331.11104443333335,265.1289064042259L331.72864503333335,284.5733438425356L333.3414272666667,278.6630063055214L335.32378116666666,305.7348037833128L335.5680074333333,268.6798822699877L336.0496864666667,296.90992936199257L338.6740731,312.71395761719555L339.7330207,356.5943745703173L340.83413036666667,339.6416247421904L340.87491396666667,181.86097484531413L341.31329013333334,279.2165849071885L342.9126679666667,297.56195094431314L343.2501784,287.40117056658784L343.70165,330.6337023399527L344.40122183333335,195.73422140397167L344.9824356666667,225.170532842383L345.8222546,217.69531970542977L345.84839793333333,225.11719182325794L345.86793413333334,282.1123150939548L346.1714107,156.41538905637285L346.50081670000003,168.50423343382369L346.6455794666667,188.04254006029424L346.9846109666667,250.22852403617648L348.7354062333333,251.44111442170586L349.47029533333335,258.9726686530235L350.3312190666667,281.06860119181414L350.7805279,225.34116071508848L352.1451386,262.96869642905307L352.6038115,212.02421785743186L352.7759772333333,241.7485307144592L354.43769503333334,246.5421184286755L356.0458427666667,118.6302710572054L356.12550863333337,196.86316263432323L356.15060623333335,220.93389758059394L357.4941596666667,270.53033854835627L358.79224746666665,265.89020312901374L358.94295189999997,208.10712187740828L358.96681363333335,237.50827312644495L359.1229131,265.354963875867L360.25579880000004,270.34497832552023L360.72927833333335,245.1779869953121L361.83421443333333,324.76679219718727L362.6719656666667,291.4390753183124L363.9907304666667,289.01944519098737L364.03747949999996,294.3716671145924L365.7006708333334,292.10200026875543L365.94335226666664,273.73020016125326L366.1389757,262.3291200967519L373.60154266666666,252.46447205805117L373.7390328333333,156.01468323483067L373.93123386666673,262.0078099408984L374.3880767333333,261.1546859645391L375.40959183333337,344.1808115787235L376.03244486666665,334.4614869472341L376.1890909666667,289.88489216834046L378.42330023333335,376.91693530100434L378.566637,411.5591611806026L381.40608819999994,234.8394967083615L382.9514919333333,194.01269802501693L383.3439509,343.5856188150101L384.2622711333333,342.7983712890061L384.6966782666667,331.3640227734037L388.5125829666667,322.8024136640422L391.81852630000003,293.8514481984253L393.1087473333334,296.3258689190552L393.96420473333336,296.48752135143314L394.7646660666666,262.9425128108599L395.3152446666666,244.32750768651596L395.5133160666666,274.92750461190957L398.03774009999995,223.92450276714578L399.4298726,249.45570166028742L400.78160176666665,286.6984209961725L403.3712653,298.6490525977035L403.44748500000003,321.8844315586221L404.88857683333333,312.5786589351732L405.8626536666667,279.7791953611039L406.6538697666667,296.3875172166624L407.00730386666663,358.7055103299975L408.0584322333333,195.37830619799854L409.1200654666667,264.07998371879904L409.21125816666665,254.6489902312795L409.2656125333333,247.2893941387677L409.8415264,281.24063648326063L410.2782151333334,284.03438188995636L411.2909365666667,308.0126291339738L411.33972953333335,290.8365774803843L411.39225386666664,277.3179464882306L413.2530175,293.7767678929383L414.40684163333333,307.243060735763L415.62333846666667,188.12583644145786L417.2063648333333,240.63950186487475L422.2916947333334,228.86670111892485L422.3818654666667,245.4280206713548L423.4359884333333,237.22081240281284L424.16880983333334,270.6634874416878L424.25465503333334,315.2990924650127L425.50525703333335,351.7194554790076L429.78408886666665,360.3416732874046L432.8512485,339.43300397244275L433.99138303333336,291.92280238346564L434.9918171,290.06568143007934L435.78003859999995,311.6314088580477L436.7411863666666,296.2208453148286L438.4708293,317.40350718889715L439.1730867666667,301.0071043133383L439.3801419666667,300.619262588003L441.02479530000005,186.60855755280176L441.5175971333333,217.80513453168106L441.64424970000005,236.90108071900863L445.5621371666667,258.9426484314052L446.80468226666665,293.90258905884315L448.50803926666663,312.6105534353059L449.9309496,370.89633206118356L450.15594863333337,313.44679923671015L450.8148557,308.4610795420261L451.8684795666667,191.12464772521565L455.3202314,52.68278863512935L455.6124425666667,151.43567318107762L456.05039093333335,231.4774039086466L457.35972036666664,229.228442345188L457.54804743333335,277.7750654071128L459.9496928666667,316.54203924426764L460.1238787666666,341.1252235465606L461.2262956,327.3361341279363L461.6039241666667,368.3916804767618L464.7604227,256.1890082860571L465.939796,306.04740497163425L467.07674579999997,304.96644298298054L467.6007532666667,280.3148657897883L470.25049893333335,202.208919473873L472.2516760333333,212.42335168432382L473.11666386666667,340.6460110105943L473.4444537333333,334.6086066063566L473.56252653333337,306.9831639638139L474.8799366333334,393.03489837828835L474.9820382333333,276.455939026973L475.3703618,164.36156341618383L477.4351385,241.68993804971035L478.5938585666667,224.5829628298262L478.62228350000004,211.1057776978957L478.73714780000006,149.1544666187374L479.77168703333336,215.36667997124243L480.1192983,241.2970079827454L480.4701180666667,268.38420478964724L480.8732245,173.31552287378827L481.73355406666667,231.94231372427296L482.0860612666667,257.66838823456374L485.7869828333333,284.82203294073827L486.5136724333333,269.740219764443L486.73075716666665,255.02113185866577L487.9608247666667,317.63167911519946L488.9064053666667,379.9570074691197L489.07460206666667,258.40320448147185L489.8433111333333,253.6999226888831L493.14868406666665,251.44495361332991L493.85472043333334,262.565972167998L495.7621380333334,178.51858330079875L496.0357399,192.5391499804792L497.1497548666667,219.47348998828753L498.1047946,125.82509399297255L498.8453639333333,186.24905639578353L500.3926214666667,219.85743383747015L501.79414180000003,162.721460302482L504.7278516,205.55187618148923L505.87879996666663,181.54312570889354L506.9656258666667,214.3878754253361L508.69676610000005,258.09772525520174L508.71575566666667,306.24763515312105L510.16592636666667,334.57058109187267L512.1356126333334,301.6683486551236L513.0068511,274.17800919307416L514.1702056666667,290.9478055158445L514.6722289666667,276.0616833095067L515.0443912,322.31800998570407L523.2071954666667,255.94980599142247L523.3281915666666,279.6328835948534L525.9489656666667,342.41573015691205L526.7631166,212.0644380941473L527.1924139,253.11266285648838L527.297011,120.49359771389307L527.8994722333333,168.3081586283358L528.9803564666666,209.47089517700152L530.3783118,318.8405371062009L530.7570811666667,307.9173222637205L531.7764335,172.27639335823224L532.3559599,153.07283601493924L533.5484999333333,193.7147016089635L533.6872022,272.3428209653781L533.7070711333333,307.8016925792269L534.1052103333334,198.28901554753614L537.3579638666666,232.75140932852173L537.6336572,341.69184559711306L541.0269430333334,217.11110735826782L542.0982968333333,203.78766441496063L545.6838074666667,178.5945986489764L547.5791278333332,170.66075918938577L549.0750018333333,265.12545551363144L549.3394535333333,234.10827330817884L550.2228605333333,263.6929639849073L551.2175906,285.0347783909444L554.2139968666667,260.9848670345666L554.4379739333333,161.31592022073997L554.5668368,183.54055213244402L555.9814525666667,124.11033127946638L557.8967607,134.94619876767985L561.1057360333333,131.24171926060794L561.3334444666667,64.19203155636467L561.4510181666667,134.52721893381886L561.5536426333333,103.77433136029123L563.4427598999999,259.20259881617477L565.2189379666667,203.52755928970493L566.8585765333333,258.9525355738229L568.8747504,286.9155213442938L569.5986117666666,123.7653128065762L570.6612194333334,167.81418768394576L571.0009877,240.1705126103675L571.2399615333334,225.75030756622056L572.1852094,161.15418453973228L574.7197342666667,191.38151072383937L575.1798094,226.3389064343036L575.4804815,219.53034386058215L578.6846084333333,243.41720631634934L578.7238472,136.4113237898096L578.8907129666667,220.57279427388573L578.979529,191.12267656433136L579.3265461,122.98960593859877L579.7809885333334,192.2967635631592L582.9501784666667,56.032058137895476L585.2806189666667,136.62423488273726L586.6207024666667,229.77254092964236L588.6218795666666,110.64752455778542L588.7286156666667,156.73051473467123L591.3875828,172.4733088408028L593.3358552999999,83.26098530448172L594.6101051333333,88.32359118268903L596.3406512,29.93615470961336L597.1371910333334,136.46469282576803L597.5326208333333,195.4678156954608L599.6737123,172.09068941727645L599.7415423666666,222.70241365036588L601.0323575666666,182.5724481902195L603.0099106,204.04346891413178L603.5010012333333,220.706081348479L604.0850433,158.50564880908738L609.5629747666667,123.26438928545248L610.1100596666666,155.4176335712715L611.0118145333333,206.65058014276286L611.5011226666667,274.81234808565773L611.8227807333333,274.12940885139466L613.4809810666667,377.8586453108368L613.5913534666666,222.36818718650207L613.9598318666667,262.88591231190117L614.3760812666667,290.5985473871407L617.6644135,247.50212843228448L622.5711368999999,239.59927705937073L624.0872363333333,157.74556623562248L625.0082659666666,217.87533974137358L625.3137389333334,267.9392038448241L625.8242469333334,256.77552230689446L626.3142442999999,99.06631338413663L627.8903070333333,192.11778803048202L630.4578675666667,87.29867281828926L630.5542889333333,41.039203690973494L631.5720251333333,148.9855222145841L632.3485296666666,182.00131332875043L632.8516462333333,98.61678799725017L632.9114431666667,82.0390727983501L635.4851830333333,117.07444367901003L636.9745211999999,109.74566620740602L637.7917855666667,90.03939972444351L640.9637799666666,188.59163983466607L641.0884836666667,224.0979839007996L641.5875836666667,292.8407903404797L641.6546056666667,169.84547420428783L641.7687094333334,222.30028452257275L641.9366684666667,103.70717071354356L642.6443447333334,93.0313024281261L643.6455393333333,156.17778145687566L644.1297851666667,152.86366887412544L646.3358784666666,211.92220132447534L648.3987300666666,234.88332079468518L648.5187042,83.28499247681113L649.2104092666666,216.47999548608664L650.2193280333333,152.0009972916519L651.3941381333334,218.01959837499112L653.6607651333334,202.63175902499464L654.4535023,215.3230554149968L659.0758813,215.56683324899808L659.4538188333333,230.6440999493989L659.6098707666666,269.1744599696394L659.8258147,143.73867598178364L660.2567994333334,105.71020558907018L661.8377343333334,102.92712335344221L661.8873591333333,173.0772740120653L663.5394039,197.21236440723916L665.8409916666667,83.74041864434339L666.8035416666667,195.01825118660608L673.2448312,246.8539507119637L673.9015755,196.11837042717826L675.2870771,89.69902225630688L675.5651946333334,187.44241335378413L675.9930897,272.5484480122705L677.8053218,286.1900688073623L679.1091373666667,198.17404128441737L679.4606701333333,171.6354247706505L680.1022275333333,141.34825486239026L682.1731835666666,216.35295291743415L682.2351195,94.65777175046053L683.1996659,87.0346630502763L684.5562197,94.17879783016568L685.9056435,165.18227869809942L691.2688770333333,185.2933672188597L692.7505148,272.2040203313158L693.4421010333334,174.8514121987895L697.6184034666667,211.31784731927365L698.40489,192.75170839156422L701.7188427,123.58902503493843L702.1809855333333,60.35641502096307L702.9122383333333,10.887849012577812L703.2525056999999,74.57270940754671L707.7739239,175.90962564452798L708.9042903333333,94.20577538671688L709.7842749333333,140.62846523203015L711.9137682666667,200.23407913921807L711.9510581666666,125.99944748353079L714.6109522,127.76366849011849L717.1406761999999,65.69620109407104L717.1996413,94.03872065644264L718.7697386000001,203.8432323938656L718.8599331,81.2929394363193L731.2439825666667,72.9677636617916L735.4009627,67.78365819707496L740.0160928666667,134.414194918245L741.7948139666667,163.80851695094702L742.6833308,248.5401101705683L742.7787064333334,264.41406610234094L743.2805633666667,285.84543966140455L746.4147212333334,207.79526379684276L749.2294788666666,245.8261582781056L749.6134293666667,228.76569496686344L750.8449942666666,68.841416980118L752.8341454333333,171.7148501880708L753.2291712,223.79991011284253L754.2050543,275.27394606770554L754.3878675,289.71536764062324L756.0274109999999,182.71222058437394L756.5585484666666,101.12233235062432L756.6346255666667,-7.17760058962532L757.5114254333333,8.73443964622474L759.4047731666666,21.683663787734794L761.1038046333333,25.2951982726409L763.2106958666666,25.761118963584632L764.8922350666667,27.552671378150748L769.0205288333334,64.34860282689048L770.2276853666666,152.38716169613429L770.9081963333333,219.1962970176806L774.9858433333334,262.49477821060833L776.0657056,282.992866926365L776.4374875666667,277.714720155819L777.1742067,149.8078320934914L777.668387,92.90869925609483L777.9762128666666,45.53921955365691L778.0333241666666,55.67353173219414L779.1492642333334,124.88011903931655L780.7716006666667,191.91907142358988L781.2494295,91.33744285415396L783.3825591333333,160.2644657124924L783.6635049,15.077679427495468L783.9765356666667,118.85560765649733L785.6264652000001,161.08836459389838L788.6299777,215.72301875633906L788.9020822666666,236.2188112538034L789.1536286666666,155.33928675228202L789.4031548999999,91.31357205136923L790.2146677333334,177.44914323082148L793.1934629,198.89048593849287L793.9368842333334,226.11929156309583L794.3021779,264.38057493785743L794.3480000333333,278.0763449627145L796.4422949333334,293.4758069776287L797.6788983666668,254.33148418657717L801.2363881,166.01789051194638L802.2701905666667,160.84673430716776L802.4025233666666,90.08204058430063L803.9974805999999,77.1072243505804L805.5623967666667,59.87233461034829L807.1935031,163.30940076620902L808.9673282666668,191.7296404597254L808.9887658,246.95978427583526L811.8152166333333,93.74387056550123L813.3898296,173.0483223393007L814.5658042666668,198.70699340358033L814.9760169333334,101.83619604214826L815.8740166666666,46.5487176252889L817.1682542666666,13.943230575173413L817.7337108,135.94093834510414L818.2547474333334,187.97156300706249L822.8989442333333,107.86893780423749L824.6055810333334,35.61536268254246L826.6974992666667,141.76221760952546L826.7922094333334,83.16733056571529L827.0426863333333,134.1943983394292L828.9261471333333,226.9916390036576L829.4051167666667,90.07898340219452L831.9311331666667,101.67539004131679L832.6573712,187.82423402479L836.6845853333334,128.3815404148739L837.6203740666667,187.02692424892442L837.8479161333333,209.17315454935468L839.6047481333333,132.1188927296128L841.7740506333333,78.89333563776766L842.7104573,137.8670013826606L843.8535864333334,189.31620082959628L845.4053121000001,223.77672049775776L848.1534992999999,245.2090322986547L848.6813332,171.8844193791928L852.6617745333334,222.57865162751563L855.2377484666667,271.3281909765094L855.4718739,245.01191458590566L857.0984170333332,143.41614875154346L857.7211749999999,150.68768925092613L859.3025139333333,18.97061355055572L860.1605619,137.63436813033343L860.5256892000001,80.69062087820008L865.3297881333334,50.304372526920154L865.4103333666667,12.983623516152065L867.2315492666667,28.580174109691317L868.0243102,124.31110446581476L870.6419946333334,206.50866267948876L870.6936158333333,266.7891976076933L870.9399811,306.359518564616L874.9566190666667,242.02771113876963L875.1443995000001,278.0836266832618L879.1721365,277.79317600995705L880.6896144,286.69090560597425L881.9119578333334,309.79554336358456L883.4421271333333,279.81032601815076L884.2589399333333,145.9621956108904L885.9630812333334,134.44931736653425L888.0885817666667,149.65459041992057L889.6337716,222.84875425195233L890.0695572,229.72125255117137L891.0721778000001,145.2037515307028L891.2384256333333,143.25525091842167L894.4723322,88.41015055105296L894.6839268333333,175.89609033063178L895.2358363666666,151.65365419837906L895.8712382,227.07219251902748L896.3677238666667,106.38131551141645L897.1126900333334,174.77178930684988L899.5960928,224.68907358411L899.8703839000001,207.578444150466L900.6019456666667,84.29006649027947L902.2250426333334,156.03603989416771L902.5426603666667,209.66762393650063L902.9210494666665,213.87457436190033L906.2411814999999,223.7697446171402L907.5605879999999,179.8108467702841L907.8810339666666,280.44350806217045L907.9379076,253.12710483730226L908.0717139333334,255.44826290238134L909.2398931333333,224.33295774142877L910.0911200666667,272.00277464485725L910.5692816333334,238.23466478691432L912.7174080333334,119.8827988721486L918.2377154666666,187.59767932328919L920.4176654333334,221.6116075939735L920.7889720666667,161.12796455638417L922.1813422333333,162.82677873383057L924.8895301333334,228.1060672402984L926.0895566666666,231.36364034417906L926.7876549666667,254.67518420650745L927.4973276333333,248.81711052390443L927.7218513333333,257.77626631434265L927.8915691,300.1957597886056L928.1131695,345.3034558731634L929.2549677000001,283.91607352389804L932.5307036,271.08664411433875L935.0909202333332,149.7999864686032L936.0626679333334,173.22899188116187L938.0280762,107.52839512869703L938.6790451999999,120.08303707721824L939.7449564333334,210.208822246331L940.7230498333334,257.2912933477986L942.2573307666665,203.5147760086791L946.2661495000001,149.13586560520744L946.8871725,185.68251936312447L947.7785175666667,157.14751161787467L948.8007219,205.42050697072474L948.9237619333334,217.37430418243483L949.1570555333333,101.3185825094609L950.968741,9.00514950567661L951.0450557666667,140.727089703406L954.0436960999999,166.2732538220436L954.6215350666666,242.2699522932261L955.0648071666666,274.8269713759357L955.5228859,218.95018282556143L956.1365412333332,110.39110969533674L956.7453244,35.99466581720201L957.2289047666667,103.05579949032122L957.7569050333334,205.85147969419262L962.4025991333334,257.70088781651555L963.3330166000001,292.9685326899093L964.6358101999999,325.46911961394557L971.7891966,308.6814717683673L972.1417038,237.1838830610204L973.5256843333333,265.34932983661224L974.8176641,285.0835979019673L978.7032526666667,168.97115874118035L980.4197764,203.82069524470816L980.4425686333333,243.44141714682488L980.7510599666667,251.52685028809492L980.8034179333333,36.949110172856926L983.0226779666666,13.664466103714203L984.7884937666666,130.10367966222856L985.3523104,190.8952077973371L986.0784058333332,169.15812467840232L987.0893447666667,216.4068748070414L990.9057723333333,249.6701248842249L992.1538550666667,171.15907493053496L993.4485679999999,217.41844495832103L993.7192465666667,156.9110669749927L996.9626360333333,225.69064018499566L997.4188372,195.3273841109974L997.5407126666665,307.8974304665984L997.9177232999999,322.89745827995904L998.3176450000001,294.47547496797546L1005.9506664999999,198.4202849807853L1006.1510670333333,246.0601709884712L1007.3345995000001,189.02710259308276L1007.3614320666667,202.43526155584965L1008.9281545000001,242.42115693350982L1009.6530616,285.5016941601059L1010.4406176333333,175.64801649606352L1010.5556245333333,227.10480989763812L1010.6261164666666,243.23688593858287L1011.2490170333334,118.34813156314972L1015.0149642,224.4768789378899L1016.9314844333334,268.4981273627339L1017.4605304333334,207.40387641764036L1020.0842753666667,215.9183258505843L1022.4112934666666,197.02399551035055L1022.5476666000001,175.67039730621036L1024.9891925,247.34123838372622L1027.9966265,275.60174303023575L1028.2930681333332,222.43904581814147L1028.9554451333333,128.3604274908849L1031.7582719,-11.624743505469096L1032.7345115,47.45715389671853L1034.0493310333334,129.9672923380311L1036.1161754333334,187.41137540281866L1038.0798487333334,237.18682524169122L1039.3747993333334,267.4300951450147L1039.9412540666667,267.6210570870088L1040.9289729666666,284.1786342522053L1041.5652304,206.2281805513232L1041.7881617333333,249.04390833079387L1042.0411816666667,267.55134499847634L1042.0856966333333,231.0278069990858L1042.1300214666667,274.8856841994514L1042.5855571666668,244.31141051967091L1044.0816926,207.63384631180259L1044.8741683333333,106.43630778708153L1045.7332145,185.01078467224892L1046.7978661,122.72447080334928L1047.5668841333334,182.87668248200953L1048.5677697666667,91.77100948920572L1049.8685194333334,104.20260569352347L1054.4189092,159.66756341611412L1056.4710420333333,27.949538049668504L1057.1776725666666,13.934722829801121L1057.5381416,108.3418336978807L1058.9607905,181.24010021872843L1059.7238431,217.41906013123705L1060.5721229666667,108.14943607874227L1060.8327244666666,175.4546616472454L1062.1569318333334,100.35879698834728L1062.6390149000001,167.37827819300833L1064.0732857,96.07996691580489L1065.8351324666667,47.44198014948299L1068.454029,34.32418808968977L1069.2104031666668,-70.50348714618626L1070.2002135333332,128.55390771228826L1071.2206353666666,193.36734462737297L1072.7880945666666,110.72840677642375L1073.0021133999999,149.4080440658543L1076.4487554,152.58182643951253L1076.9831964333334,194.9320958637075L1078.2878913666666,226.01225751822457L1080.4926299666665,274.7113545109347L1080.7466718666667,315.08181270656087L1086.0838571333334,190.93908762393656L1087.7065500666668,94.34045257436193L1088.5338202,73.42527154461716L1090.4802864333333,90.92716292677027L1090.5225198,183.45429775606212L1090.8325559666666,102.13457865363722L1091.0160584,195.4707471921824L1091.5640464333333,170.39144831530947L1093.2562568666667,131.34086898918562L1093.5052602333333,85.79752139351132L1094.5775171666667,46.9425128361068L1098.4066599,157.81950770166407L1099.0297981333333,215.8407046209985L1099.1130052333333,109.28142277259913L1099.1872998333333,218.8478536635595L1099.4889226,85.57071219813562L1099.8688327666666,178.16142731888138L1100.4378543,228.9908563913288L1100.6223549333333,215.07351383479727L1100.7194892999999,245.0901083008784L1102.2250838666666,249.49206498052703L1104.2514536333333,131.36223898831625L1104.6545600666668,25.519343392989658L1104.9211983,10.96460603579377L1105.7967860666668,10.925763621476253L1107.3742748,143.58045817288576L1107.6728554333333,192.3662749037314L1108.2594167666666,225.41776494223882L1113.1599608333333,274.9216589653432L1116.8615716333334,254.91699537920596L1117.6908619333333,227.03819722752365L1117.7628749333335,220.32791833651422L1118.8555474333334,246.5417510019086L1119.2029923333332,264.3490506011451L1120.3135611333335,265.772430360687L1121.3956812333333,157.0064582164122L1122.2270154666667,235.5758749298473L1124.5667012,254.74552495790832L1126.1432868,161.9193149747449L1126.3180668666666,170.6725889848469L1130.0617209,93.89855339090825L1130.9124487333333,212.26413203454499L1131.2490085,237.35647922072692L1133.2576958666666,224.2508875324361L1133.4415548,219.9785325194617L1137.1010748333333,96.07711951167707L1143.3763066666668,210.54727170700622L1143.3953437666667,277.3393630242037L1143.8671834,175.47561781452225L1144.1256221333333,107.17537068871334L1145.2165834333334,202.27522241322797L1146.4567043333334,240.05713344793674L1147.3663735,153.862280068762L1148.6263158000002,69.07036804125715L1152.2037457666668,69.60322082475436L1153.4476455666666,180.29893249485266L1155.7345217666668,182.07835949691162L1156.7715802666667,185.22501569814696L1157.9592243666666,246.6480094188881L1158.4882703666667,137.59380565133284L1158.7605650666667,85.76928339079971L1162.1904278,133.67657003447982L1162.7377265999999,173.57194202068786L1163.8062284,189.38216521241264L1164.9174626666666,21.775299127447553L1167.5488604666666,-2.432820523531449L1173.4069635333333,-18.01176923308278L1174.9860446333334,30.394938460150367L1175.8680494,-4.632036923909803L1178.0859309666666,118.36977784565413L1179.1388893666667,203.32186670739256L1179.5408787666668,233.50312002443553L1182.2530594666666,242.72887201466136L1182.7016553,283.9853232087968L1182.9986673333333,308.9281939252781L1183.1095863666667,256.7989163551668L1185.5841954666666,318.6983498131001L1188.2854910333333,316.71500988786005L1189.5730739666667,314.202005932716L1190.8795514,275.0832035596296L1191.1344489,195.85692213577784L1191.7683296666667,219.95215328146662L1191.8357081666666,164.29029196887993L1192.4281636333333,211.40717518132791L1193.2119407666667,110.02330510879668L1194.1609675333334,69.22698306527793L1196.003312,207.1001898391668L1196.0280055666665,230.28911390350012L1196.5820541,144.59946834210007L1197.8957328333333,39.50968100526004L1197.9200223666667,132.94780860315603L1198.3357964333334,212.63568516189366L1199.4219331,247.7854110971362L1200.5608317666668,203.8592466582817L1200.7619690666668,275.972547994969L1201.7825810333334,167.28452879698142L1203.1646364666667,240.98671727818885L1206.0767661333334,156.12103036691332L1206.6318128666667,93.105618220148L1208.1455594,224.6403709320888L1208.8729382333333,124.01122255925327L1213.7925194,108.04873353555202L1213.9808702333332,190.3252401213312L1215.4316113333334,130.26014407279865L1216.2959099333334,78.72308644367925L1217.3972572666667,44.02085186620753L1218.0525042666666,155.6885111197245L1220.1419745333333,73.56810667183471L1220.9831957,127.30086400310093L1221.7953502333335,196.20651840186054L1221.9085271000001,125.09491104111632L1222.0300223,214.16094662466978L1223.6297091,193.70156797480186L1223.6613663,166.8729407848811L1224.5439652333334,105.2267644709286L1227.5260164333333,63.892058682557085L1227.6133114,149.08923520953422L1228.3552829666667,45.227541125720556L1229.8383467333333,22.978524675432237L1230.8014671333333,117.73711480525945L1231.2847385333332,203.50926888315564L1233.6886655666667,100.18156132989336L1235.0290580333333,182.39193679793593L1235.1778136,261.0131620787615L1235.3409004666667,290.7978972472569L1235.4806247000001,288.25673834835413L1236.1679091666667,303.5530430090125L1236.3484882999999,310.65182580540755L1236.7807802,317.93509548324454L1236.8465425666666,142.7550572899467L1237.4888367333333,197.35203437396802L1238.8808741666667,116.8992206243808L1239.1762938333334,180.32653237462844L1239.285977,167.91991942477705L1242.3863386666667,230.7839516548662L1246.5664913,240.15237099291969L1247.5986301,155.62042259575182L1248.0212964999998,224.16025355745114L1248.2929257333333,103.68915213447069L1249.3741427,180.7164912806824L1249.6139483666668,247.34489476840938L1250.2435036,243.47393686104564L1250.7272741,269.5013621166273L1250.7496623,286.0628172699764L1251.8627503666667,311.6866903619858L1252.4087657666666,152.23601421719152L1252.7015711,93.23160853031494L1252.9832061,193.71996511818895L1253.0976426,117.55497907091336L1259.9997202666666,120.05098744254803L1260.1011801666666,102.08159246552879L1261.9618962666666,194.68295547931723L1262.7520190999999,15.883773287590332L1262.8901985,50.92126397255421L1265.0292222666667,26.01675838353256L1269.9074732,20.902055030119467L1270.5172308,-25.825766981928318L1271.7820928,115.10353981084303L1274.1144108666667,200.41712388650583L1274.4072637333334,4.393274331903474L1274.6202606,122.27296459914216L1274.8111782333333,67.12677875948523L1275.3420780333333,147.2500672556911L1275.6908776333332,222.1620403534147L1277.0248531,277.12622421204884L1277.6768915999999,284.2117345272293L1282.5064684,186.21404071633762L1283.9646246999998,65.99042442980257L1284.1802358999998,43.185254657881586L1285.3173996,185.805152794729L1285.4282473333333,142.2900916768374L1287.2432363666667,-37.28694499389754L1289.4560318666665,107.47083300366145L1292.7336691,181.28449980219682L1293.1001986333333,116.89769988131809L1294.6133034666666,128.91761992879086L1295.7490411666668,57.316571957274476L1296.4116320666667,20.403943174364617L1298.3206420333333,-22.53363409538121L1300.9248745333332,63.213819542771326L1301.5530988333335,36.79429172566276L1304.5862008333334,14.138575035397615L1305.1127988666667,157.98214502123858L1305.5405988666666,156.59228701274316L1306.9494393333332,313.1953722076459L1307.1520264,381.07522332458757" style="fill: none;" fill="none"></path></g></g></g></g><g opacity="0.2"><g><g><g><path stroke="rgb(255, 112, 67)" stroke-width="2px" d="M125.10421586666668,479.115L125.58496799999999,306.65250000000003L126.3869504,360.99L126.8175311,245.22749999999996L126.91616276666667,462.5775L127.22933613333332,468.2475L128.0136599,277.3575L128.9002516333333,382.72499999999997L132.06273936666668,403.9875L133.3057598,315.63L133.71426126666668,356.265L136.30473286666668,338.78249999999997L136.5616743,157.3425L136.79042846666667,439.425L138.61509053333333,146.94750000000002L138.76203983333335,350.1225L139.4053322,403.515L139.6687144,358.6275L139.80998346666667,340.6725L141.22816423333333,297.2025L141.2736061,213.57L141.64897683333334,221.13L143.85889656666666,326.4975L144.71684946666667,268.85249999999996L145.6421571,187.58249999999998L146.44297493333335,410.60249999999996L146.7795347,240.5025L146.8460576,409.185L147.63810553333332,367.605L148.02260266666667,313.2675L150.35140326666667,548.5725L154.18912576666668,231.525L156.25021863333333,236.7225L156.65641473333332,363.3525L156.67970606666668,292.95L165.3668743,328.86L167.05594753333332,311.84999999999997L167.17998576666668,253.73250000000002L167.65049446666666,214.98749999999998L167.72210343333333,344.4525L168.54989643333332,277.83L170.1708544,243.81L170.6680293,364.77L171.43490833333334,272.6325L171.6189574,228.2175L172.50402806666668,329.3325L172.69399503333335,294.3675L173.0224979,242.86500000000004L173.2137245,298.14750000000004L174.39100633333334,344.4525L174.7828949,387.9225L176.14641233333333,358.6275L176.5342368,303.34499999999997L179.08207099999998,206.48250000000002L181.54959763333332,247.59L181.57376833333333,275.46750000000003L182.06181683333332,-5.197499999999973L182.0864391,266.49L182.94512876666667,321.77250000000004L184.13816789999998,266.0175L184.54854693333334,292.47749999999996L185.07752163333333,248.0625L185.6448319666667,274.52250000000004L185.71427816666665,192.3075L187.66414303333335,313.74L188.83774103333332,306.65250000000003L190.66556406666666,239.08500000000004L191.05892616666665,298.62L191.6847738,347.76L192.60544693333333,68.985L193.424066,244.2825L193.77816556666667,345.87L194.661834,268.85249999999996L194.82675089999998,391.7025L194.9834445333333,369.0225L195.04112623333333,325.08L195.92560273333333,221.13L197.51416673333335,201.285L199.06993273333333,291.53249999999997L200.63090363333333,108.2025L201.06483543333334,170.57250000000002L202.04483016666669,285.8625L202.900549,281.61L203.13911879999998,425.72249999999997L205.1020791,229.63499999999996L205.38209796666666,291.06L205.92210039999998,305.235L206.74475980000003,183.32999999999998L206.97852873333335,393.59250000000003L207.7574337,298.14750000000004L209.85134833333333,279.71999999999997L210.09170063333335,373.7475L212.96471036666665,300.51L214.89610853333332,300.51L215.42986033333332,371.8575L217.34975543333334,302.40000000000003L218.2606367,498.96000000000004L220.28177780000001,453.59999999999997L221.5857835,241.44749999999996L221.67764166666666,295.3125L221.85517866666666,279.71999999999997L222.7484726,166.79250000000002L223.3692817,334.0575L227.21287456666664,230.57999999999998L227.43490276666665,361.46250000000003L227.47380879999997,446.03999999999996L228.46963213333336,343.03499999999997L228.57292206666665,295.3125L229.02867166666667,223.02000000000004L229.78851576666668,245.70000000000002L230.097221,244.2825L230.69141143333331,349.1775L231.01513720000003,224.4375L231.59606583333334,228.2175L232.34079433333332,333.58500000000004L232.862948,256.5675L233.93240046666665,260.34749999999997L234.93494976666668,287.7525L236.12311673333332,269.325L241.10097376666667,137.025L243.30787513333334,299.565L245.12357716666668,285.8625L245.9175502,273.10499999999996L246.2354056,207.42750000000004L248.0736622,283.97249999999997L248.64289763333332,336.42L249.01553520000002,253.73250000000002L250.39987223333335,273.5775L251.79818406666666,329.3325L252.469735,347.28749999999997L252.55705373333333,324.135L254.608735,281.1375L255.05780616666667,284.445L255.9381235,253.25999999999996L257.31076733333333,205.5375L257.35373746666664,350.1225L257.9454324,283.02750000000003L257.9715282,237.195L258.1060950666666,282.555L258.2203652,444.6225L262.0151888666667,302.40000000000003L262.5536227,285.8625L262.8870928,286.33500000000004L263.03380443333333,292.95L263.46688063333335,247.1175L263.57670640000003,253.73250000000002L263.78511629999997,276.41249999999997L264.1826851,334.0575L266.9844186,319.8825L267.4589676333334,345.87L268.7255408333333,312.3225L269.68286216666667,280.1925L269.86588926666667,283.97249999999997L271.4555703,186.16500000000002L271.53323976666667,277.3575L273.2425384333333,518.8050000000001L273.3612767,339.255L273.4054827,332.64L274.7351326333333,283.5L276.2757355,231.525L277.4009683333333,316.10249999999996L278.43258426666665,233.88750000000002L279.5482153666667,326.96999999999997L280.010786,508.8825L280.83634493333335,214.04249999999996L281.6036517666667,258.45750000000004L281.97868976666666,230.57999999999998L283.96484633333336,361.935L284.6756360333333,262.71000000000004L284.76666236666665,275.46750000000003L284.82023243333333,154.98000000000002L285.6904014,365.2425L286.59132443333334,-17.955000000000037L287.7655641333333,412.96500000000003L287.9973842,301.455L289.0090123666667,321.77250000000004L291.04900043333333,-105.36750000000002L291.1216313666667,321.77250000000004L291.76076456666664,308.07L292.6898035666666,259.40250000000003L293.3413192,236.7225L294.213746,288.6975L295.20422183333335,280.66499999999996L297.4341531,403.04249999999996L300.77479576666667,301.9275L301.31605783333333,284.9175L304.7790037666667,206.00999999999996L304.8994057,281.1375L306.9333332666667,242.39249999999998L307.4603828666667,347.28749999999997L311.11244016666666,266.0175L311.2600787,93.55500000000002L312.86330673333333,330.75L313.8654757666667,346.815L313.96907466666664,328.3875L314.6743267333333,-25.04249999999997L315.40403469999995,336.42L316.0860905,104.4225L316.66288373333333,340.2L316.7184739666667,52.92L317.78008343333335,372.33L318.04339433333337,302.40000000000003L318.89507283333336,346.34250000000003L319.0604413,258.45750000000004L320.11853329999997,294.3675L323.5407194,426.195L325.1430680666667,49.61249999999999L325.9028408666667,341.6175L327.36936303333334,229.1625L328.4138605,254.20499999999998L329.4359935333333,79.37999999999998L329.73352843333333,334.53000000000003L330.30692303333336,226.79999999999998L331.11104443333335,306.65250000000003L331.72864503333335,313.74L333.3414272666667,269.7975L335.32378116666666,346.34250000000003L335.5680074333333,213.0975L336.0496864666667,339.255L338.6740731,336.42L339.7330207,422.41499999999996L340.83413036666667,314.21250000000003L340.87491396666667,-54.81000000000001L341.31329013333334,425.25L342.9126679666667,325.08L343.2501784,272.15999999999997L343.70165,395.48249999999996L344.40122183333335,-6.615000000000027L344.9824356666667,269.325L345.8222546,206.48250000000002L345.84839793333333,236.25L345.86793413333334,367.605L346.1714107,-32.12999999999999L346.50081670000003,186.63750000000002L346.6455794666667,217.35L346.9846109666667,343.5075L348.7354062333333,253.25999999999996L349.47029533333335,270.27000000000004L350.3312190666667,314.21250000000003L350.7805279,141.75L352.1451386,319.40999999999997L352.6038115,135.60750000000002L352.7759772333333,286.33500000000004L354.43769503333334,253.73250000000002L356.0458427666667,-73.23750000000004L356.12550863333337,314.21250000000003L356.15060623333335,257.03999999999996L357.4941596666667,344.925L358.79224746666665,258.93L358.94295189999997,121.43250000000002L358.96681363333335,281.61L359.1229131,307.125L360.25579880000004,277.83L360.72927833333335,207.42750000000004L361.83421443333333,444.15000000000003L362.6719656666667,241.44749999999996L363.9907304666667,285.39L364.03747949999996,302.40000000000003L365.7006708333334,288.6975L365.94335226666664,246.17249999999999L366.1389757,245.22749999999996L373.60154266666666,237.66749999999996L373.7390328333333,11.34000000000001L373.93123386666673,420.9975L374.3880767333333,259.875L375.40959183333337,468.71999999999997L376.03244486666665,319.8825L376.1890909666667,223.02000000000004L378.42330023333335,507.46500000000003L381.40608819999994,-30.240000000000027L382.9514919333333,132.77249999999998L383.3439509,567.9449999999999L384.2622711333333,341.6175L384.6966782666667,314.21250000000003L388.5125829666667,309.96000000000004L391.81852630000003,250.42499999999998L393.1087473333334,300.03749999999997L393.96420473333336,296.73L394.7646660666666,212.625L395.3152446666666,216.405L395.5133160666666,320.8275L398.03774009999995,147.42000000000002L399.4298726,287.7525L400.78160176666665,342.5625L403.3712653,316.575L403.44748500000003,356.7375L404.88857683333333,298.62L405.8626536666667,230.57999999999998L406.6538697666667,321.3L407.00730386666663,452.1825L408.0584322333333,-49.61250000000003L409.1200654666667,367.1325L409.21125816666665,240.5025L409.2656125333333,236.25L409.8415264,332.1675L410.2782151333334,288.22499999999997L411.2909365666667,343.98L411.33972953333335,265.0725L411.39225386666664,257.03999999999996L413.2530175,318.46500000000003L414.40684163333333,327.4425L415.62333846666667,9.450000000000008L417.2063648333333,319.40999999999997L422.2916947333334,211.20750000000004L422.3818654666667,270.27000000000004L423.4359884333333,224.91L424.16880983333334,320.8275L424.25465503333334,382.2525L425.50525703333335,406.34999999999997L429.78408886666665,373.27500000000003L432.8512485,308.07L433.99138303333336,220.6575L434.9918171,287.28000000000003L435.78003859999995,343.98L436.7411863666666,273.10499999999996L438.4708293,349.1775L439.1730867666667,276.41249999999997L439.3801419666667,300.03749999999997L441.02479530000005,15.592500000000003L441.5175971333333,264.59999999999997L441.64424970000005,265.545L445.5621371666667,292.005L446.80468226666665,346.34250000000003L448.50803926666663,340.6725L449.9309496,458.325L450.15594863333337,227.27250000000004L450.8148557,300.9825L451.8684795666667,15.120000000000013L455.3202314,-154.97999999999996L455.6124425666667,299.565L456.05039093333335,351.53999999999996L457.35972036666664,225.85499999999996L457.54804743333335,350.59499999999997L459.9496928666667,374.6925L460.1238787666666,378L461.2262956,306.65250000000003L461.6039241666667,429.97499999999997L464.7604227,87.88500000000002L465.939796,380.83500000000004L467.07674579999997,303.34499999999997L467.6007532666667,243.3375L470.25049893333335,85.05L472.2516760333333,227.745L473.11666386666667,532.98L473.4444537333333,325.5525L473.56252653333337,265.545L474.8799366333334,522.1125000000001L474.9820382333333,101.58750000000002L475.3703618,-3.7800000000000034L477.4351385,357.6825L478.5938585666667,198.92249999999999L478.62228350000004,190.89000000000001L478.73714780000006,56.22750000000002L479.77168703333336,314.685L480.1192983,280.1925L480.4701180666667,309.015L480.8732245,30.712500000000016L481.73355406666667,319.8825L482.0860612666667,296.2575L485.7869828333333,325.5525L486.5136724333333,247.1175L486.73075716666665,232.9425L487.9608247666667,411.5475L488.9064053666667,473.445L489.07460206666667,76.07250000000002L489.8433111333333,246.64500000000004L493.14868406666665,248.0625L493.85472043333334,279.2475L495.7621380333334,52.44750000000001L496.0357399,213.57L497.1497548666667,259.875L498.1047946,-14.647500000000024L498.8453639333333,276.885L500.3926214666667,270.27000000000004L501.79414180000003,77.0175L504.7278516,269.7975L505.87879996666663,145.53L506.9656258666667,263.65500000000003L508.69676610000005,323.66249999999997L508.71575566666667,378.47249999999997L510.16592636666667,377.055L512.1356126333334,252.315L513.0068511,232.9425L514.1702056666667,316.10249999999996L514.6722289666667,253.73250000000002L515.0443912,391.7025L523.2071954666667,156.39749999999998L523.3281915666666,315.15749999999997L525.9489656666667,436.59000000000003L526.7631166,16.537499999999984L527.1924139,314.685L527.297011,-78.435L527.8994722333333,240.03L528.9803564666666,271.21500000000003L530.3783118,482.89500000000004L530.7570811666667,291.53249999999997L531.7764335,-31.185000000000006L532.3559599,124.2675L533.5484999333333,254.67750000000004L533.6872022,390.28499999999997L533.7070711333333,360.99L534.1052103333334,34.01999999999999L537.3579638666666,284.445L537.6336572,505.10249999999996L541.0269430333334,30.239999999999984L542.0982968333333,183.80249999999998L545.6838074666667,140.805L547.5791278333332,158.76000000000002L549.0750018333333,406.8225L549.3394535333333,187.58249999999998L550.2228605333333,308.07L551.2175906,317.0475L554.2139968666667,224.91L554.4379739333333,11.8125L554.5668368,216.8775L555.9814525666667,34.96500000000001L557.8967607,151.20000000000002L561.1057360333333,125.685L561.3334444666667,-36.38249999999998L561.4510181666667,240.03L561.5536426333333,57.64499999999999L563.4427598999999,492.34499999999997L565.2189379666667,120.015L566.8585765333333,342.09000000000003L568.8747504,328.86L569.5986117666666,-120.96000000000002L570.6612194333334,233.88750000000002L571.0009877,348.705L571.2399615333334,204.12L572.1852094,64.26000000000002L574.7197342666667,236.7225L575.1798094,278.77500000000003L575.4804815,209.3175L578.6846084333333,279.2475L578.7238472,-24.09749999999999L578.8907129666667,346.815L578.979529,146.94750000000002L579.3265461,20.790000000000017L579.7809885333334,296.2575L582.9501784666667,-148.36500000000004L585.2806189666667,257.5125L586.6207024666667,369.495L588.6218795666666,-68.03999999999998L588.7286156666667,225.85499999999996L591.3875828,196.0875L593.3358552999999,-50.55750000000001L594.6101051333333,95.91750000000002L596.3406512,-57.64500000000003L597.1371910333334,296.2575L597.5326208333333,283.97249999999997L599.6737123,137.025L599.7415423666666,298.62L601.0323575666666,122.3775L603.0099106,236.25L603.5010012333333,245.70000000000002L604.0850433,65.205L609.5629747666667,70.4025L610.1100596666666,203.64750000000004L611.0118145333333,283.5L611.5011226666667,377.055L611.8227807333333,273.10499999999996L613.4809810666667,533.4525L613.5913534666666,-10.867500000000021L613.9598318666667,323.66249999999997L614.3760812666667,332.1675L617.6644135,182.85750000000002L622.5711368999999,227.745L624.0872363333333,34.96500000000001L625.0082659666666,308.07L625.3137389333334,343.03499999999997L625.8242469333334,240.03L626.3142442999999,-137.4975L627.8903070333333,331.695L630.4578675666667,-69.93000000000002L630.5542889333333,-28.349999999999984L631.5720251333333,310.90500000000003L632.3485296666666,231.525L632.8516462333333,-26.460000000000022L632.9114431666667,57.1725L635.4851830333333,169.6275L636.9745211999999,98.7525L637.7917855666667,60.48000000000001L640.9637799666666,336.42L641.0884836666667,277.3575L641.5875836666667,395.95500000000004L641.6546056666667,-14.647500000000024L641.7687094333334,300.9825L641.9366684666667,-74.18250000000002L642.6443447333334,77.0175L643.6455393333333,250.89750000000004L644.1297851666667,147.89249999999998L646.3358784666666,300.51L648.3987300666666,269.325L648.5187042,-144.11250000000004L649.2104092666666,416.27250000000004L650.2193280333333,55.2825L651.3941381333334,317.0475L653.6607651333334,179.54999999999998L654.4535023,234.35999999999999L659.0758813,215.9325L659.4538188333333,253.25999999999996L659.6098707666666,326.96999999999997L659.8258147,-44.41499999999998L660.2567994333334,48.66750000000001L661.8377343333334,98.7525L661.8873591333333,278.3025L663.5394039,233.41499999999996L665.8409916666667,-86.4675L666.8035416666667,361.935L673.2448312,324.6075L673.9015755,120.015L675.2870771,-69.93000000000002L675.5651946333334,334.0575L675.9930897,400.20750000000004L677.8053218,306.65250000000003L679.1091373666667,66.15000000000002L679.4606701333333,131.82750000000001L680.1022275333333,95.91750000000002L682.1731835666666,328.86L682.2351195,-87.88499999999998L683.1996659,75.59999999999998L684.5562197,104.89499999999998L685.9056435,271.6875L691.2688770333333,215.46000000000004L692.7505148,402.57L693.4421010333334,28.822500000000016L697.6184034666667,266.0175L698.40489,164.9025L701.7188427,19.844999999999995L702.1809855333333,-34.49250000000002L702.9122383333333,-63.31499999999999L703.2525056999999,170.1L707.7739239,327.91499999999996L708.9042903333333,-28.349999999999984L709.7842749333333,210.26250000000002L711.9137682666667,289.6425L711.9510581666666,14.647499999999981L714.6109522,130.41L717.1406761999999,-27.405000000000005L717.1996413,136.55249999999998L718.7697386000001,368.55L718.8599331,-102.5325L731.2439825666667,60.48000000000001L735.4009627,60.00749999999998L740.0160928666667,234.35999999999999L741.7948139666667,207.9L742.6833308,375.6375L742.7787064333334,288.22499999999997L743.2805633666667,317.9925L746.4147212333334,90.72L749.2294788666666,302.8725L749.6134293666667,203.17499999999998L750.8449942666666,-171.04499999999996L752.8341454333333,326.02500000000003L753.2291712,301.9275L754.2050543,352.485L754.3878675,311.3775L756.0274109999999,22.20749999999999L756.5585484666666,-21.262499999999967L756.6346255666667,-169.6275L757.5114254333333,32.60250000000002L759.4047731666666,41.1075L761.1038046333333,30.712500000000016L763.2106958666666,26.459999999999983L764.8922350666667,30.239999999999984L769.0205288333334,119.54250000000002L770.2276853666666,284.445L770.9081963333333,319.40999999999997L774.9858433333334,327.4425L776.0657056,313.74L776.4374875666667,269.7975L777.1742067,-42.05250000000002L777.668387,7.560000000000007L777.9762128666666,-25.514999999999958L778.0333241666666,70.875L779.1492642333334,228.69L780.7716006666667,292.47749999999996L781.2494295,-59.53499999999999L783.3825591333333,263.65500000000003L783.6635049,-202.70249999999996L783.9765356666667,274.52250000000004L785.6264652000001,224.4375L788.6299777,297.675L788.9020822666666,266.96250000000003L789.1536286666666,34.01999999999999L789.4031548999999,-4.724999999999984L790.2146677333334,306.65250000000003L793.1934629,231.05250000000004L793.9368842333334,266.96250000000003L794.3021779,321.77250000000004L794.3480000333333,298.62L796.4422949333334,316.575L797.6788983666668,195.61500000000004L801.2363881,33.5475L802.2701905666667,153.09L802.4025233666666,-16.064999999999994L803.9974805999999,57.64499999999999L805.5623967666667,34.01999999999999L807.1935031,318.46500000000003L808.9673282666668,234.35999999999999L808.9887658,329.805L811.8152166333333,-136.08000000000004L813.3898296,292.005L814.5658042666668,237.195L814.9760169333334,-43.47L817.1682542666666,-34.96500000000001L817.7337108,318.9375L818.2547474333334,266.0175L822.8989442333333,-12.28499999999999L824.6055810333334,-72.76499999999996L826.6974992666667,300.9825L826.7922094333334,-4.724999999999984L827.0426863333333,210.73499999999999L828.9261471333333,366.1875L829.4051167666667,-115.28999999999998L831.9311331666667,119.06999999999998L832.6573712,317.0475L836.6845853333334,39.2175L837.6203740666667,274.995L837.8479161333333,242.39249999999998L839.6047481333333,16.537499999999984L841.7740506333333,-0.9449999999999799L842.7104573,226.32750000000001L843.8535864333334,266.49L845.4053121000001,275.46750000000003L848.1534992999999,277.3575L848.6813332,61.89749999999998L852.6617745333334,298.62L855.2377484666667,344.4525L855.4718739,205.5375L857.0984170333332,-8.977499999999976L857.7211749999999,161.595L859.3025139333333,-178.60499999999996L860.1605619,315.63L860.5256892000001,-4.724999999999984L865.3297881333334,4.724999999999984L865.4103333666667,-42.99750000000001L867.2315492666667,51.97499999999998L868.0243102,267.90749999999997L870.6419946333334,329.805L870.6936158333333,357.21L870.9399811,365.71500000000003L874.9566190666667,145.53L875.1443995000001,332.1675L879.1721365,277.3575L880.6896144,300.03749999999997L881.9119578333334,344.4525L883.4421271333333,234.83250000000004L884.2589399333333,-54.81000000000001L885.9630812333334,117.18000000000002L888.0885817666667,172.4625L889.6337716,332.64L890.0695572,240.03L891.0721778000001,18.427499999999984L891.2384256333333,140.33249999999998L894.4723322,6.142499999999995L894.6839268333333,307.125L895.2358363666666,115.29000000000002L895.8712382,340.2L896.3677238666667,-74.655L897.1126900333334,277.3575L899.5960928,299.565L899.8703839000001,181.9125L900.6019456666667,-100.64250000000004L902.2250426333334,263.65500000000003L902.5426603666667,290.115L902.9210494666665,220.185L906.2411814999999,238.61249999999998L907.5605879999999,113.8725L907.8810339666666,431.3924999999999L907.9379076,212.1525L908.0717139333334,258.93L909.2398931333333,177.66L910.0911200666667,343.5075L910.5692816333334,187.58249999999998L912.7174080333334,-57.64500000000003L918.2377154666666,289.17L920.4176654333334,272.6325L920.7889720666667,70.4025L922.1813422333333,165.375L924.8895301333334,326.02500000000003L926.0895566666666,236.25L926.7876549666667,289.6425L927.4973276333333,240.03L927.7218513333333,271.21500000000003L927.8915691,363.825L928.1131695,412.96500000000003L929.2549677000001,191.83500000000004L932.5307036,251.8425L935.0909202333332,-32.12999999999999L936.0626679333334,208.3725L938.0280762,8.977500000000019L938.6790451999999,138.91500000000002L939.7449564333334,345.39750000000004L940.7230498333334,327.91499999999996L942.2573307666665,122.84999999999998L946.2661495000001,67.56749999999998L946.8871725,240.5025L947.7785175666667,114.345L948.8007219,277.83L948.9237619333334,235.305L949.1570555333333,-72.76499999999996L950.968741,-129.465L951.0450557666667,338.31L954.0436960999999,204.5925L954.6215350666666,356.265L955.0648071666666,323.66249999999997L955.5228859,135.13500000000002L956.1365412333332,-52.44749999999998L956.7453244,-75.59999999999998L957.2289047666667,203.64750000000004L957.7569050333334,360.045L962.4025991333334,335.47499999999997L963.3330166000001,345.87L964.6358101999999,374.21999999999997L971.7891966,283.5L972.1417038,129.9375L973.5256843333333,307.59749999999997L974.8176641,314.685L978.7032526666667,-5.197499999999973L980.4197764,256.09499999999997L980.4425686333333,302.8725L980.7510599666667,263.65500000000003L980.8034179333333,-284.91749999999996L983.0226779666666,-21.262499999999967L984.7884937666666,304.7625L985.3523104,282.08250000000004L986.0784058333332,136.55249999999998L987.0893447666667,287.28000000000003L990.9057723333333,299.565L992.1538550666667,53.3925L993.4485679999999,286.8075L993.7192465666667,66.15000000000002L996.9626360333333,328.86L997.4188372,149.7825L997.5407126666665,476.7525L997.9177232999999,345.39750000000004L998.3176450000001,251.8425L1005.9506664999999,54.33750000000002L1006.1510670333333,317.52L1007.3345995000001,103.47750000000002L1007.3614320666667,222.54749999999999L1008.9281545000001,302.40000000000003L1009.6530616,350.1225L1010.4406176333333,10.867500000000021L1010.5556245333333,304.28999999999996L1010.6261164666666,267.435L1011.2490170333334,-68.98500000000004L1015.0149642,383.66999999999996L1016.9314844333334,334.53000000000003L1017.4605304333334,115.7625L1020.0842753666667,228.69L1022.4112934666666,168.6825L1022.5476666000001,143.64000000000001L1024.9891925,354.84749999999997L1027.9966265,317.9925L1028.2930681333332,142.695L1028.9554451333333,-12.757499999999979L1031.7582719,-221.60249999999996L1032.7345115,136.07999999999998L1034.0493310333334,253.73250000000002L1036.1161754333334,273.5775L1038.0798487333334,311.84999999999997L1039.3747993333334,312.795L1039.9412540666667,267.90749999999997L1040.9289729666666,309.015L1041.5652304,89.30249999999998L1041.7881617333333,313.2675L1042.0411816666667,295.3125L1042.0856966333333,176.2425L1042.1300214666667,340.6725L1042.5855571666668,198.45000000000002L1044.0816926,152.6175L1044.8741683333333,-45.36000000000004L1045.7332145,302.8725L1046.7978661,29.295000000000005L1047.5668841333334,273.10499999999996L1048.5677697666667,-44.88749999999997L1049.8685194333334,122.84999999999998L1054.4189092,242.86500000000004L1056.4710420333333,-169.6275L1057.1776725666666,-7.087500000000016L1057.5381416,249.95250000000001L1058.9607905,290.58750000000003L1059.7238431,271.6875L1060.5721229666667,-55.75499999999999L1060.8327244666666,276.41249999999997L1062.1569318333334,-12.28499999999999L1062.6390149000001,267.90749999999997L1064.0732857,-10.867500000000021L1065.8351324666667,-25.514999999999958L1068.454029,14.647499999999981L1069.2104031666668,-227.745L1070.2002135333332,427.14L1071.2206353666666,290.58750000000003L1072.7880945666666,-13.22999999999997L1073.0021133999999,207.42750000000004L1076.4487554,157.3425L1076.9831964333334,258.45750000000004L1078.2878913666666,272.6325L1080.4926299666665,347.76L1080.7466718666667,375.6375L1086.0838571333334,4.724999999999984L1087.7065500666668,-50.55750000000001L1088.5338202,42.05249999999999L1090.4802864333333,117.18000000000002L1090.5225198,322.245L1090.8325559666666,-19.844999999999995L1091.0160584,335.47499999999997L1091.5640464333333,132.77249999999998L1093.2562568666667,72.765L1093.5052602333333,17.482500000000005L1094.5775171666667,-11.34000000000001L1098.4066599,324.135L1099.0297981333333,302.8725L1099.1130052333333,-50.55750000000001L1099.4889226,-114.345L1099.8688327666666,317.0475L1100.4378543,305.235L1100.6223549333333,194.19749999999996L1100.7194892999999,290.115L1102.2250838666666,256.09499999999997L1104.2514536333333,-45.83250000000003L1104.9211983,-10.867500000000021L1105.7967860666668,10.867500000000021L1107.3742748,342.5625L1107.6728554333333,265.545L1108.2594167666666,274.995L1113.1599608333333,349.1775L1116.8615716333334,224.91L1117.6908619333333,185.22L1117.7628749333335,210.26250000000002L1118.8555474333334,285.8625L1119.2029923333332,291.06L1120.3135611333335,267.90749999999997L1121.3956812333333,-6.142500000000037L1122.2270154666667,353.43L1124.5667012,283.5L1126.1432868,22.68000000000002L1126.3180668666666,183.80249999999998L1130.0617209,-21.262499999999967L1130.9124487333333,389.8125L1131.2490085,274.995L1133.2576958666666,204.5925L1133.4415548,213.57L1137.1010748333333,-89.77500000000002L1143.3763066666668,382.2525L1143.3953437666667,377.52750000000003L1143.8671834,22.68000000000002L1144.1256221333333,4.724999999999984L1145.2165834333334,344.925L1146.4567043333334,296.73L1147.3663735,24.56999999999998L1148.6263158000002,-58.11750000000002L1152.2037457666668,70.4025L1153.4476455666666,346.34250000000003L1155.7345217666668,184.7475L1156.7715802666667,189.945L1157.9592243666666,338.78249999999997L1158.4882703666667,-25.987500000000033L1158.7605650666667,8.032499999999997L1162.1904278,205.5375L1162.7377265999999,233.41499999999996L1163.8062284,213.0975L1164.9174626666666,-229.63499999999996L1168.5747011,-41.107499999999966L1173.4069635333333,17.010000000000016L1174.9860446333334,103.00499999999998L1175.8680494,-57.17250000000004L1178.0859309666666,302.8725L1179.1388893666667,330.75L1179.5408787666668,278.77500000000003L1182.2530594666666,256.5675L1182.7016553,345.87L1182.9986673333333,346.34250000000003L1183.1095863666667,178.60500000000002L1185.5841954666666,411.5475L1188.2854910333333,313.74L1189.5730739666667,310.4325L1190.8795514,216.405L1191.1344489,77.0175L1191.7683296666667,256.09499999999997L1191.8357081666666,80.7975L1192.4281636333333,282.08250000000004L1193.2119407666667,-42.05250000000002L1194.1609675333334,8.032499999999997L1196.003312,413.90999999999997L1196.0280055666665,265.0725L1196.5820541,16.064999999999994L1197.8957328333333,-118.125L1197.9200223666667,273.10499999999996L1198.3357964333334,332.1675L1199.4219331,300.51L1200.5608317666668,137.97L1200.7619690666668,384.14250000000004L1201.7825810333334,4.252499999999993L1203.1646364666667,351.53999999999996L1206.0767661333334,28.822500000000016L1206.6318128666667,-1.4174999999999698L1208.8729382333333,-26.93250000000001L1213.7925194,84.10500000000002L1213.9808702333332,313.74L1215.4316113333334,40.16249999999998L1216.2959099333334,1.4175000000000118L1217.3972572666667,-8.032499999999997L1218.0525042666666,323.19L1220.1419745333333,-49.61250000000003L1220.9831957,207.9L1221.7953502333335,299.565L1221.9085271000001,18.427499999999984L1222.0300223,347.76L1223.6297091,163.01250000000002L1223.6613663,126.62999999999998L1224.5439652333334,12.757499999999979L1227.5260164333333,1.8900000000000017L1227.6133114,276.885L1228.3552829666667,-110.565L1229.8383467333333,-10.39500000000003L1230.8014671333333,259.875L1231.2847385333332,332.1675L1233.6886655666667,-54.81000000000001L1235.0290580333333,305.7075L1235.1778136,378.945L1235.3409004666667,335.47499999999997L1235.4806247000001,284.445L1236.1679091666667,326.4975L1236.3484882999999,321.3L1236.7807802,328.86L1236.8465425666666,-120.01499999999996L1237.4888367333333,279.2475L1238.8808741666667,-3.7800000000000034L1239.1762938333334,275.46750000000003L1239.285977,149.31L1242.3863386666667,325.08L1246.5664913,254.20499999999998L1247.5986301,28.822500000000016L1248.0212964999998,326.96999999999997L1248.2929257333333,-77.01750000000004L1249.3741427,296.2575L1249.6139483666668,347.28749999999997L1250.2435036,237.66749999999996L1250.7272741,308.5425L1250.7496623,310.90500000000003L1251.8627503666667,350.1225L1252.4087657666666,-86.94L1252.7015711,4.724999999999984L1252.9832061,344.4525L1253.0976426,3.3075000000000134L1259.9997202666666,123.795L1260.1011801666666,75.1275L1261.9618962666666,333.58500000000004L1262.7520190999999,-252.315L1262.8901985,103.47750000000002L1265.0292222666667,-11.34000000000001L1269.9074732,13.230000000000011L1270.5172308,-95.91749999999998L1271.7820928,326.4975L1274.1144108666667,328.3875L1274.4072637333334,-289.64250000000004L1274.6202606,299.09250000000003L1274.8111782333333,-15.592500000000003L1275.3420780333333,267.435L1275.6908776333332,334.53000000000003L1277.0248531,359.5725L1277.6768915999999,294.84000000000003L1282.5064684,39.2175L1283.9646246999998,-114.345L1284.1802358999998,8.977500000000019L1285.3173996,399.735L1285.4282473333333,77.0175L1287.2432363666667,-306.65250000000003L1289.4560318666665,324.6075L1292.7336691,292.005L1293.1001986333333,20.31749999999999L1294.6133034666666,146.94750000000002L1295.7490411666668,-50.08500000000002L1298.3206420333333,-86.94L1300.9248745333332,191.83500000000004L1301.5530988333335,-2.8350000000000235L1304.5862008333334,-19.844999999999995L1305.1127988666667,373.7475L1305.5405988666666,154.5075L1306.9494393333332,548.1" style="fill: none;" fill="none"></path></g></g></g></g></g></g><g transform="translate(70, 378)" clip-path="url(#clip_1)"><clipPath id="clip_1"><rect width="1426" height="22"></rect></clipPath><g><g><line x1="0" y1="0" x2="0" y2="5" style="visibility: inherit;" fill="rgb(0, 0, 0)" stroke="rgb(204, 204, 204)" stroke-width="1px"></line><line x1="118.83333333333333" y1="0" x2="118.83333333333333" y2="5" style="visibility: inherit;" fill="rgb(0, 0, 0)" stroke="rgb(204, 204, 204)" stroke-width="1px"></line><line x1="237.66666666666666" y1="0" x2="237.66666666666666" y2="5" style="visibility: inherit;" fill="rgb(0, 0, 0)" stroke="rgb(204, 204, 204)" stroke-width="1px"></line><line x1="356.5" y1="0" x2="356.5" y2="5" style="visibility: inherit;" fill="rgb(0, 0, 0)" stroke="rgb(204, 204, 204)" stroke-width="1px"></line><line x1="475.3333333333333" y1="0" x2="475.3333333333333" y2="5" style="visibility: inherit;" fill="rgb(0, 0, 0)" stroke="rgb(204, 204, 204)" stroke-width="1px"></line><line x1="594.1666666666667" y1="0" x2="594.1666666666667" y2="5" style="visibility: inherit;" fill="rgb(0, 0, 0)" stroke="rgb(204, 204, 204)" stroke-width="1px"></line><line x1="713" y1="0" x2="713" y2="5" style="visibility: inherit;" fill="rgb(0, 0, 0)" stroke="rgb(204, 204, 204)" stroke-width="1px"></line><line x1="831.8333333333334" y1="0" x2="831.8333333333334" y2="5" style="visibility: inherit;" fill="rgb(0, 0, 0)" stroke="rgb(204, 204, 204)" stroke-width="1px"></line><line x1="950.6666666666666" y1="0" x2="950.6666666666666" y2="5" style="visibility: inherit;" fill="rgb(0, 0, 0)" stroke="rgb(204, 204, 204)" stroke-width="1px"></line><line x1="1069.5" y1="0" x2="1069.5" y2="5" style="visibility: inherit;" fill="rgb(0, 0, 0)" stroke="rgb(204, 204, 204)" stroke-width="1px"></line><line x1="1188.3333333333335" y1="0" x2="1188.3333333333335" y2="5" style="visibility: inherit;" fill="rgb(0, 0, 0)" stroke="rgb(204, 204, 204)" stroke-width="1px"></line><line x1="1307.1666666666665" y1="0" x2="1307.1666666666665" y2="5" style="visibility: inherit;" fill="rgb(0, 0, 0)" stroke="rgb(204, 204, 204)" stroke-width="1px"></line><line x1="1426" y1="0" x2="1426" y2="5" style="visibility: inherit;" fill="rgb(0, 0, 0)" stroke="rgb(204, 204, 204)" stroke-width="1px"></line></g><g transform="translate(0, 8)"><text x="0" y="0" dx="0em" dy="0.95em" style="text-anchor: middle; visibility: hidden; font-family: Roboto, sans-serif; font-size: 12px; font-weight: 200;" fill="rgb(50, 49, 63)" stroke="none" stroke-width="1px">-5M</text><text x="118.83333333333333" y="0" dx="0em" dy="0.95em" style="text-anchor: middle; visibility: inherit; font-family: Roboto, sans-serif; font-size: 12px; font-weight: 200;" fill="rgb(50, 49, 63)" stroke="none" stroke-width="1px">0</text><text x="237.66666666666666" y="0" dx="0em" dy="0.95em" style="text-anchor: middle; visibility: inherit; font-family: Roboto, sans-serif; font-size: 12px; font-weight: 200;" fill="rgb(50, 49, 63)" stroke="none" stroke-width="1px">5M</text><text x="356.5" y="0" dx="0em" dy="0.95em" style="text-anchor: middle; visibility: inherit; font-family: Roboto, sans-serif; font-size: 12px; font-weight: 200;" fill="rgb(50, 49, 63)" stroke="none" stroke-width="1px">10M</text><text x="475.3333333333333" y="0" dx="0em" dy="0.95em" style="text-anchor: middle; visibility: inherit; font-family: Roboto, sans-serif; font-size: 12px; font-weight: 200;" fill="rgb(50, 49, 63)" stroke="none" stroke-width="1px">15M</text><text x="594.1666666666667" y="0" dx="0em" dy="0.95em" style="text-anchor: middle; visibility: inherit; font-family: Roboto, sans-serif; font-size: 12px; font-weight: 200;" fill="rgb(50, 49, 63)" stroke="none" stroke-width="1px">20M</text><text x="713" y="0" dx="0em" dy="0.95em" style="text-anchor: middle; visibility: inherit; font-family: Roboto, sans-serif; font-size: 12px; font-weight: 200;" fill="rgb(50, 49, 63)" stroke="none" stroke-width="1px">25M</text><text x="831.8333333333334" y="0" dx="0em" dy="0.95em" style="text-anchor: middle; visibility: inherit; font-family: Roboto, sans-serif; font-size: 12px; font-weight: 200;" fill="rgb(50, 49, 63)" stroke="none" stroke-width="1px">30M</text><text x="950.6666666666666" y="0" dx="0em" dy="0.95em" style="text-anchor: middle; visibility: inherit; font-family: Roboto, sans-serif; font-size: 12px; font-weight: 200;" fill="rgb(50, 49, 63)" stroke="none" stroke-width="1px">35M</text><text x="1069.5" y="0" dx="0em" dy="0.95em" style="text-anchor: middle; visibility: inherit; font-family: Roboto, sans-serif; font-size: 12px; font-weight: 200;" fill="rgb(50, 49, 63)" stroke="none" stroke-width="1px">40M</text><text x="1188.3333333333335" y="0" dx="0em" dy="0.95em" style="text-anchor: middle; visibility: inherit; font-family: Roboto, sans-serif; font-size: 12px; font-weight: 200;" fill="rgb(50, 49, 63)" stroke="none" stroke-width="1px">45M</text><text x="1307.1666666666665" y="0" dx="0em" dy="0.95em" style="text-anchor: middle; visibility: inherit; font-family: Roboto, sans-serif; font-size: 12px; font-weight: 200;" fill="rgb(50, 49, 63)" stroke="none" stroke-width="1px">50M</text><text x="1426" y="0" dx="0em" dy="0.95em" style="text-anchor: middle; visibility: hidden; font-family: Roboto, sans-serif; font-size: 12px; font-weight: 200;" fill="rgb(50, 49, 63)" stroke="none" stroke-width="1px">55M</text></g><line x1="0" y1="0" x2="1426" y2="0" fill="rgb(0, 0, 0)" stroke="rgb(204, 204, 204)" stroke-width="1px"></line></g></g></g></g></svg>