<svg viewBox="0 0 718 400" xmlns="http://www.w3.org/2000/svg"><g><g><g><g><g><line x1="30" y1="378" x2="25" y2="378" style="visibility: inherit;" fill="rgb(0, 0, 0)" stroke="rgb(204, 204, 204)" stroke-width="1px"></line><line x1="30" y1="340.2" x2="25" y2="340.2" style="visibility: inherit;" fill="rgb(0, 0, 0)" stroke="rgb(204, 204, 204)" stroke-width="1px"></line><line x1="30" y1="302.40000000000003" x2="25" y2="302.40000000000003" style="visibility: inherit;" fill="rgb(0, 0, 0)" stroke="rgb(204, 204, 204)" stroke-width="1px"></line><line x1="30" y1="264.59999999999997" x2="25" y2="264.59999999999997" style="visibility: inherit;" fill="rgb(0, 0, 0)" stroke="rgb(204, 204, 204)" stroke-width="1px"></line><line x1="30" y1="226.79999999999998" x2="25" y2="226.79999999999998" style="visibility: inherit;" fill="rgb(0, 0, 0)" stroke="rgb(204, 204, 204)" stroke-width="1px"></line><line x1="30" y1="189" x2="25" y2="189" style="visibility: inherit;" fill="rgb(0, 0, 0)" stroke="rgb(204, 204, 204)" stroke-width="1px"></line><line x1="30" y1="151.20000000000002" x2="25" y2="151.20000000000002" style="visibility: inherit;" fill="rgb(0, 0, 0)" stroke="rgb(204, 204, 204)" stroke-width="1px"></line><line x1="30" y1="113.40000000000002" x2="25" y2="113.40000000000002" style="visibility: inherit;" fill="rgb(0, 0, 0)" stroke="rgb(204, 204, 204)" stroke-width="1px"></line><line x1="30" y1="75.59999999999998" x2="25" y2="75.59999999999998" style="visibility: inherit;" fill="rgb(0, 0, 0)" stroke="rgb(204, 204, 204)" stroke-width="1px"></line><line x1="30" y1="37.79999999999999" x2="25" y2="37.79999999999999" style="visibility: inherit;" fill="rgb(0, 0, 0)" stroke="rgb(204, 204, 204)" stroke-width="1px"></line><line x1="30" y1="0" x2="25" y2="0" style="visibility: inherit;" fill="rgb(0, 0, 0)" stroke="rgb(204, 204, 204)" stroke-width="1px"></line></g><g transform="translate(20, 0)"><text x="0" y="378" dx="0em" dy="0.3em" style="text-anchor: end; visibility: hidden; font-family: Roboto, sans-serif; font-size: 12px; font-weight: 200;" fill="rgb(50, 49, 63)" stroke="none" stroke-width="1px">2</text><text x="0" y="340.2" dx="0em" dy="0.3em" style="text-anchor: end; visibility: inherit; font-family: Roboto, sans-serif; font-size: 12px; font-weight: 200;" fill="rgb(50, 49, 63)" stroke="none" stroke-width="1px">4</text><text x="0" y="302.40000000000003" dx="0em" dy="0.3em" style="text-anchor: end; visibility: inherit; font-family: Roboto, sans-serif; font-size: 12px; font-weight: 200;" fill="rgb(50, 49, 63)" stroke="none" stroke-width="1px">6</text><text x="0" y="264.59999999999997" dx="0em" dy="0.3em" style="text-anchor: end; visibility: inherit; font-family: Roboto, sans-serif; font-size: 12px; font-weight: 200;" fill="rgb(50, 49, 63)" stroke="none" stroke-width="1px">8</text><text x="0" y="226.79999999999998" dx="0em" dy="0.3em" style="text-anchor: end; visibility: inherit; font-family: Roboto, sans-serif; font-size: 12px; font-weight: 200;" fill="rgb(50, 49, 63)" stroke="none" stroke-width="1px">10</text><text x="0" y="189" dx="0em" dy="0.3em" style="text-anchor: end; visibility: inherit; font-family: Roboto, sans-serif; font-size: 12px; font-weight: 200;" fill="rgb(50, 49, 63)" stroke="none" stroke-width="1px">12</text><text x="0" y="151.20000000000002" dx="0em" dy="0.3em" style="text-anchor: end; visibility: inherit; font-family: Roboto, sans-serif; font-size: 12px; font-weight: 200;" fill="rgb(50, 49, 63)" stroke="none" stroke-width="1px">14</text><text x="0" y="113.40000000000002" dx="0em" dy="0.3em" style="text-anchor: end; visibility: inherit; font-family: Roboto, sans-serif; font-size: 12px; font-weight: 200;" fill="rgb(50, 49, 63)" stroke="none" stroke-width="1px">16</text><text x="0" y="75.59999999999998" dx="0em" dy="0.3em" style="text-anchor: end; visibility: inherit; font-family: Roboto, sans-serif; font-size: 12px; font-weight: 200;" fill="rgb(50, 49, 63)" stroke="none" stroke-width="1px">18</text><text x="0" y="37.79999999999999" dx="0em" dy="0.3em" style="text-anchor: end; visibility: inherit; font-family: Roboto, sans-serif; font-size: 12px; font-weight: 200;" fill="rgb(50, 49, 63)" stroke="none" stroke-width="1px">20</text><text x="0" y="0" dx="0em" dy="0.3em" style="text-anchor: end; visibility: hidden; font-family: Roboto, sans-serif; font-size: 12px; font-weight: 200;" fill="rgb(50, 49, 63)" stroke="none" stroke-width="1px">22</text></g><line x1="30" y1="0" x2="30" y2="378" fill="rgb(0, 0, 0)" stroke="rgb(204, 204, 204)" stroke-width="1px"></line></g></g><g transform="translate(30, 0)" clip-path="url(#clip_0)"><clipPath id="clip_0"><rect width="688" height="378"></rect></clipPath><g><g><g><line x1="0" y1="0" x2="0" y2="378" fill="rgb(0, 0, 0)" stroke="rgb(60, 60, 60)" stroke-width="1px" opacity="0.25"></line><line x1="57.33333333333333" y1="0" x2="57.33333333333333" y2="378" fill="rgb(0, 0, 0)" stroke="rgb(60, 60, 60)" stroke-width="1px" opacity="0.25"></line><line x1="114.66666666666666" y1="0" x2="114.66666666666666" y2="378" fill="rgb(0, 0, 0)" stroke="rgb(60, 60, 60)" stroke-width="1px" opacity="0.25"></line><line x1="172" y1="0" x2="172" y2="378" fill="rgb(0, 0, 0)" stroke="rgb(60, 60, 60)" stroke-width="1px" opacity="0.25"></line><line x1="229.33333333333331" y1="0" x2="229.33333333333331" y2="378" fill="rgb(0, 0, 0)" stroke="rgb(60, 60, 60)" stroke-width="1px" opacity="0.25"></line><line x1="286.6666666666667" y1="0" x2="286.6666666666667" y2="378" fill="rgb(0, 0, 0)" stroke="rgb(60, 60, 60)" stroke-width="1px" opacity="0.25"></line><line x1="344" y1="0" x2="344" y2="378" fill="rgb(0, 0, 0)" stroke="rgb(60, 60, 60)" stroke-width="1px" opacity="0.25"></line><line x1="401.33333333333337" y1="0" x2="401.33333333333337" y2="378" fill="rgb(0, 0, 0)" stroke="rgb(60, 60, 60)" stroke-width="1px" opacity="0.25"></line><line x1="458.66666666666663" y1="0" x2="458.66666666666663" y2="378" fill="rgb(0, 0, 0)" stroke="rgb(60, 60, 60)" stroke-width="1px" opacity="0.25"></line><line x1="516" y1="0" x2="516" y2="378" fill="rgb(0, 0, 0)" stroke="rgb(60, 60, 60)" stroke-width="1px" opacity="0.25"></line><line x1="573.3333333333334" y1="0" x2="573.3333333333334" y2="378" fill="rgb(0, 0, 0)" stroke="rgb(60, 60, 60)" stroke-width="1px" opacity="0.25"></line><line x1="630.6666666666666" y1="0" x2="630.6666666666666" y2="378" fill="rgb(0, 0, 0)" stroke="rgb(60, 60, 60)" stroke-width="1px" opacity="0.25"></line><line x1="688" y1="0" x2="688" y2="378" fill="rgb(0, 0, 0)" stroke="rgb(60, 60, 60)" stroke-width="1px" opacity="0.25"></line></g><g><line x1="0" y1="378" x2="688" y2="378" fill="rgb(0, 0, 0)" stroke="rgb(60, 60, 60)" stroke-width="1px" opacity="0.25"></line><line x1="0" y1="340.2" x2="688" y2="340.2" fill="rgb(0, 0, 0)" stroke="rgb(60, 60, 60)" stroke-width="1px" opacity="0.25"></line><line x1="0" y1="302.40000000000003" x2="688" y2="302.40000000000003" fill="rgb(0, 0, 0)" stroke="rgb(60, 60, 60)" stroke-width="1px" opacity="0.25"></line><line x1="0" y1="264.59999999999997" x2="688" y2="264.59999999999997" fill="rgb(0, 0, 0)" stroke="rgb(60, 60, 60)" stroke-width="1px" opacity="0.25"></line><line x1="0" y1="226.79999999999998" x2="688" y2="226.79999999999998" fill="rgb(0, 0, 0)" stroke="rgb(60, 60, 60)" stroke-width="1px" opacity="0.25"></line><line x1="0" y1="189" x2="688" y2="189" fill="rgb(0, 0, 0)" stroke="rgb(60, 60, 60)" stroke-width="1px" opacity="0.25"></line><line x1="0" y1="151.20000000000002" x2="688" y2="151.20000000000002" fill="rgb(0, 0, 0)" stroke="rgb(60, 60, 60)" stroke-width="1px" opacity="0.25"></line><line x1="0" y1="113.40000000000002" x2="688" y2="113.40000000000002" fill="rgb(0, 0, 0)" stroke="rgb(60, 60, 60)" stroke-width="1px" opacity="0.25"></line><line x1="0" y1="75.59999999999998" x2="688" y2="75.59999999999998" fill="rgb(0, 0, 0)" stroke="rgb(60, 60, 60)" stroke-width="1px" opacity="0.25"></line><line x1="0" y1="37.79999999999999" x2="688" y2="37.79999999999999" fill="rgb(0, 0, 0)" stroke="rgb(60, 60, 60)" stroke-width="1px" opacity="0.25"></line><line x1="0" y1="0" x2="688" y2="0" fill="rgb(0, 0, 0)" stroke="rgb(60, 60, 60)" stroke-width="1px" opacity="0.25"></line></g></g></g><g><g><line x1="0" y1="415.8" x2="688" y2="415.8" fill="rgb(0, 0, 0)" stroke="rgb(153, 153, 153)" stroke-width="1.5px"></line></g></g><g><g><line x1="57.33333333333333" y1="0" x2="57.33333333333333" y2="378" fill="rgb(0, 0, 0)" stroke="rgb(153, 153, 153)" stroke-width="1.5px"></line></g></g><g><g><g><g><g><path stroke="rgb(255, 112, 67)" stroke-width="2px" d="M86,382.9180544314814L88.86666666666667,354.8088516967293L91.73333333333333,315.3440170899301L94.60000000000001,252.4392522654059L97.46666666666667,206.61564351324182L100.33333333333334,190.03598887293708L103.2,163.444862014585L106.06666666666668,134.70883477549327L108.93333333333332,112.34438008766689L111.8,96.74872367555908L114.66666666666666,94.52284209359763L117.53333333333333,92.71977204080079L120.39999999999999,95.68664493548941L123.26666666666667,93.51748458602788L126.13333333333333,92.71680730071996L129,86.86154196164924L131.86666666666667,75.03690409079056L134.73333333333332,70.9943968466702L137.6,69.78825678260168L140.46666666666667,68.39295332657058L143.33333333333334,66.71577460062569L146.2,64.53849859022438L149.06666666666666,63.56310525631598L151.93333333333334,73.66986940422963L154.8,71.62294171023365L157.66666666666666,66.0137635564235L160.53333333333333,78.62326444372336L163.4,69.61395952600581L166.26666666666668,63.73962569379095L169.13333333333333,63.154596032647L172,74.18075186650513L174.86666666666665,70.90649028658852L177.73333333333335,70.67700963509952L180.6,72.88620486617027L183.46666666666667,68.57172909876435L186.33333333333331,69.42786106774605L189.20000000000002,70.87163042857945L192.06666666666666,69.54068341151678L194.93333333333334,69.19240908559854L197.79999999999998,66.51222104031233L200.66666666666669,57.12086465230961L203.53333333333333,76.02177553586222L206.4,95.59306211722865L209.26666666666665,82.43584253459643L212.13333333333335,70.97842416088261L215,63.82705998968907L217.86666666666665,56.57563273758518L220.73333333333335,60.10538078696108L223.6,56.53338830799166L226.46666666666667,64.7796989699031L229.33333333333331,63.01104379295252L232.20000000000002,66.85294661878928L235.06666666666666,68.30159554695717L237.93333333333334,70.63033232817438L240.79999999999998,69.89164887505403L243.66666666666669,64.3787393250324L246.53333333333333,64.06724748601067L249.4,59.32645483010743L252.26666666666665,54.07587450023729L255.13333333333335,55.00552515790607L258,64.39653347853262L260.8666666666667,55.70519456221723L263.73333333333335,52.44504850002561L266.6,48.392400727822974L269.46666666666664,53.66640631804144L272.3333333333333,54.123840906913706L275.2,53.382429544148245L278.06666666666666,65.26946070195282L280.93333333333334,64.72822633267072L283.8,64.22712012577432L286.6666666666667,55.37444865017159L289.53333333333336,55.90466919010293L292.4,57.28385009804611L295.26666666666665,65.96031211876414L298.1333333333333,61.14077696242057L301,53.484459768760956L303.8666666666667,53.93067906560227L306.73333333333335,55.038407439361336L309.6,52.93104350231306L312.46666666666664,48.138621294869274L315.3333333333333,59.64455507062273L318.2,52.53504694618219L321.06666666666666,48.61825205992122L323.93333333333334,45.41931030577694L326.8,58.13226146117615L329.6666666666667,54.606231876705706L332.53333333333336,57.769887426194366L335.4,58.16880745571661L338.26666666666665,58.715281589518874L341.1333333333333,55.02916552048373L344,48.927344893344944L346.8666666666667,52.918407897310686L349.7333333333333,59.884160201643255L352.59999999999997,56.33049039893999L355.4666666666667,55.62474306138549L358.33333333333337,52.45484515018576L361.2,56.25979162685462L364.06666666666666,50.883999976112754L366.93333333333334,52.029149985667615L369.8,58.51037794611252L372.66666666666663,59.466220358976116L375.5333333333333,55.757103354912104L378.40000000000003,56.13426201294723L381.2666666666667,57.65993220776833L384.1333333333333,59.958544621291885L387,107.79512677277508L389.8666666666667,88.53832606366501L392.7333333333333,77.21249278480549L395.59999999999997,67.32750207957471L398.4666666666667,61.756506283145235L401.33333333333337,65.2210061258442L404.2,60.22744750180044L407.06666666666666,58.94246657847287L409.93333333333334,56.46032377337767L412.8,58.32019618663399L415.66666666666663,55.99212412067179L418.5333333333333,54.879576840567154L421.40000000000003,55.371496104340295L424.2666666666667,52.646284274542694L427.1333333333333,53.08652056472562L430,49.89836116085687L432.8666666666667,59.53834141880416L435.7333333333333,61.62529969686361L438.59999999999997,63.309181740725585L441.4666666666667,62.22964150598319L444.33333333333337,56.710284903589894L447.2,54.75520506080624L450.06666666666666,57.268199330429056L452.93333333333334,57.65059283128966L455.8,64.43932618827574L458.66666666666663,60.39859571296543L461.5333333333333,55.199157198897446L464.40000000000003,54.33626990832771L467.2666666666667,54.44176514934232L470.1333333333333,63.03539745325288L473,66.49710601040388L475.8666666666667,69.63425687711634L478.7333333333333,64.7044320712161L481.59999999999997,63.45362512407736L484.4666666666667,71.25928711973451L487.33333333333337,65.78994727184069L490.2,75.60820687323624L493.06666666666666,74.96424884623183L495.93333333333334,60.54989581957988L498.8,64.7760438302489L501.66666666666663,59.8385239421923L504.5333333333333,54.26311642525192L507.40000000000003,51.050791379199005L510.2666666666667,64.78081319116686L513.1333333333333,62.748483337063355L516,56.37462779825851L518.8666666666667,53.24816329089359L521.7333333333333,52.31212238554695L524.6,66.08226725151856L527.4666666666667,65.05591087276171L530.3333333333334,69.6453547664549L533.2,66.02720690894523L536.0666666666667,59.53632025437589L538.9333333333333,64.370219276649L541.8,59.62213797468077L544.6666666666666,55.81327843605355L547.5333333333333,64.88118544542115L550.4,57.828711267252686L553.2666666666667,54.06972676035163L556.1333333333333,58.59200306365732L559,63.85757251995709L561.8666666666667,56.623918511974324L564.7333333333333,56.89435019165724L567.6,56.94054619592695L570.4666666666667,55.426827717556186L573.3333333333334,96.92547163053369L576.2,78.9762706034423L579.0666666666667,68.5057683129931L581.9333333333333,59.759583042849584L584.8,64.14057343410818L587.6666666666666,59.579187886758895L590.5333333333333,56.419387732055306L593.4,66.48563936835912L596.2666666666667,59.8545086210155L599.1333333333333,58.22689546496771L602,54.37613521904411L604.8666666666667,51.93275960737864L607.7333333333333,60.374569552268945L610.6,57.85796850748448L613.4666666666667,73.20206038610687L616.3333333333334,64.82936123166418L619.2,58.57761376353463L622.0666666666667,50.60508174689034L624.9333333333333,52.08305271024357" style="fill: none;" fill="none"></path></g></g></g></g><g opacity="0.2"><g><g><g><path stroke="rgb(255, 112, 67)" stroke-width="2px" d="M80.26666666666667,405.09000007510184L83.13333333333334,342.5625L86,347.9823513507843L88.86666666666667,312.89999599456786L91.73333333333333,256.36153106689454L94.60000000000001,158.2875L97.46666666666667,137.97000360488892L100.33333333333334,165.1859956741333L103.2,123.57692584991453L106.06666666666668,91.61695404052735L108.93333333333332,78.80337638854981L111.8,73.35761489868166L114.66666666666666,91.18422317504883L117.53333333333333,90.01526584625246L120.39999999999999,100.13685665130613L123.26666666666667,90.26378688812254L126.13333333333333,91.51580085754397L129,78.07868556976318L131.86666666666667,57.29999771118166L134.73333333333332,64.93064632415773L137.6,67.979048538208L140.46666666666667,66.29999942779541L143.33333333333334,64.20000743865967L146.2,61.27258529663088L149.06666666666666,62.100015449523916L151.93333333333334,88.83001441955567L154.8,68.55255031585693L157.66666666666666,57.59999656677246L160.53333333333333,97.53751544952392L163.4,56.10000228881836L166.26666666666668,54.92812499999998L169.13333333333333,62.27705154418943L172,90.71998558044432L174.86666666666665,65.9950979232788L177.73333333333335,70.33278865814209L180.6,76.19999771118164L183.46666666666667,62.100015449523916L186.33333333333331,70.7120590209961L189.20000000000002,73.03728446960447L192.06666666666666,67.54426288604736L194.93333333333334,68.66999759674074L197.79999999999998,62.491938972473164L200.66666666666669,43.033830070495625L203.53333333333333,104.3731418609619L206.4,124.94999198913574L209.26666666666665,62.700013160705566L212.13333333333335,53.79229660034181L215,53.100013732910156L217.86666666666665,45.698491859436025L220.73333333333335,65.40000286102297L223.6,51.175399589538564L226.46666666666667,77.14916496276855L229.33333333333331,60.358061027526865L232.20000000000002,72.61580085754395L235.06666666666666,70.47456893920896L237.93333333333334,74.12343749999998L240.79999999999998,68.78362369537354L243.66666666666669,56.109375L246.53333333333333,63.60000972747802L249.4,52.21526584625242L252.26666666666665,46.20000400543215L255.13333333333335,56.40000114440916L258,78.48304595947268L260.8666666666667,42.66818618774414L263.73333333333335,47.55482940673827L266.6,42.31342906951905L269.46666666666664,61.57741470336915L272.3333333333333,54.80999279022217L275.2,52.27031250000001L278.06666666666666,83.10000743865969L280.93333333333334,63.91637477874754L283.8,63.47546081542968L286.6666666666667,42.09544143676756L289.53333333333336,56.70000000000001L292.4,59.35262145996096L295.26666666666665,78.97500514984131L298.1333333333333,53.91147422790527L301,41.999983978271494L303.8666666666667,54.60000801086426L306.73333333333335,56.70000000000001L309.6,49.76999759674072L312.46666666666664,40.94998798370359L315.3333333333333,76.90345573425293L318.2,41.870784759521484L321.06666666666666,42.743059730529765L323.93333333333334,40.62089767456057L326.8,77.20168819427492L329.6666666666667,49.31718750000001L332.53333333333336,62.515370750427266L335.4,58.76718750000002L338.26666666666665,59.53499279022215L341.1333333333333,49.49999141693115L344,39.7746139526367L346.8666666666667,58.90500240325927L349.7333333333333,70.33278865814209L352.59999999999997,50.999985694885254L355.4666666666667,54.56612205505371L358.33333333333337,47.69999828338625L361.2,61.96721134185789L364.06666666666666,42.8203125L366.93333333333334,53.74687500000001L369.8,68.23221988677979L372.66666666666663,60.899983978271464L375.5333333333333,50.19342784881591L378.40000000000003,56.70000000000001L381.2666666666667,59.94843749999999L384.1333333333333,63.40646324157713L387,179.54999999999998L389.8666666666667,59.65312500000001L392.7333333333333,60.22374286651613L395.59999999999997,52.500016021728506L398.4666666666667,53.40001258850096L401.33333333333337,70.41775588989258L404.2,52.73710956573488L407.06666666666666,57.014995193481425L409.93333333333334,52.73710956573488L412.8,61.110004806518575L415.66666666666663,52.500016021728506L418.5333333333333,53.210755920410136L421.40000000000003,56.109375L424.2666666666667,48.55846652984617L427.1333333333333,53.74687500000001L430,45.1161220550537L432.8666666666667,73.9983118057251L435.7333333333333,64.75573711395263L438.59999999999997,65.83500480651855L441.4666666666667,60.61033115386961L444.33333333333337,48.43125000000002L447.2,51.82258529663087L450.06666666666666,61.03769073486326L452.93333333333334,58.224183082580566L455.8,74.62242622375489L458.66666666666663,54.33750000000002L461.5333333333333,47.3999994277954L464.40000000000003,53.041938972473154L467.2666666666667,54.60000801086426L470.1333333333333,75.92584590911865L473,71.68966884613037L475.8666666666667,74.33998317718506L478.7333333333333,57.3096948623657L481.59999999999997,61.57741470336915L484.4666666666667,82.96778011322021L487.33333333333337,57.5859375L490.2,90.33559627532959L493.06666666666666,73.9983118057251L495.93333333333334,38.92836627960203L498.8,71.11526584625244L501.66666666666663,52.43224411010741L504.5333333333333,45.9000051498413L507.40000000000003,46.23230381011964L510.2666666666667,85.37584590911865L513.1333333333333,59.69998855590821L516,46.81384449005126L518.8666666666667,48.55846652984617L521.7333333333333,50.908061027526855L524.6,86.73748455047605L527.4666666666667,63.516376304626455L530.3333333333334,76.52952060699461L533.2,60.599985122680664L536.0666666666667,49.79999027252195L538.9333333333333,71.62106781005859L541.8,52.500016021728506L544.6666666666666,50.0999891281128L547.5333333333333,78.48304595947268L550.4,47.25L553.2666666666667,48.43125000000002L556.1333333333333,65.37541751861572L559,71.75592670440672L561.8666666666667,45.7734375L564.7333333333333,57.29999771118166L567.6,57.00984020233155L570.4666666666667,53.15625L573.3333333333334,159.1734375L576.2,52.052469062805166L579.0666666666667,52.800014877319356L581.9333333333333,46.64030513763426L584.8,70.7120590209961L587.6666666666666,52.73710956573488L590.5333333333333,51.6796875L593.4,81.58501682281492L596.2666666666667,49.90781250000002L599.1333333333333,55.785475730895996L602,48.5999948501587L604.8666666666667,48.26769618988036L607.7333333333333,73.03728446960447L610.6,54.08306694030762L613.4666666666667,96.21819820404055L616.3333333333334,52.27031250000001L619.2,49.19999256134035L622.0666666666667,38.64628372192381L624.9333333333333,54.30000915527346" style="fill: none;" fill="none"></path></g></g></g></g></g></g><g transform="translate(30, 378)" clip-path="url(#clip_1)"><clipPath id="clip_1"><rect width="688" height="22"></rect></clipPath><g><g><line x1="0" y1="0" x2="0" y2="5" style="visibility: inherit;" fill="rgb(0, 0, 0)" stroke="rgb(204, 204, 204)" stroke-width="1px"></line><line x1="57.33333333333333" y1="0" x2="57.33333333333333" y2="5" style="visibility: inherit;" fill="rgb(0, 0, 0)" stroke="rgb(204, 204, 204)" stroke-width="1px"></line><line x1="114.66666666666666" y1="0" x2="114.66666666666666" y2="5" style="visibility: inherit;" fill="rgb(0, 0, 0)" stroke="rgb(204, 204, 204)" stroke-width="1px"></line><line x1="172" y1="0" x2="172" y2="5" style="visibility: inherit;" fill="rgb(0, 0, 0)" stroke="rgb(204, 204, 204)" stroke-width="1px"></line><line x1="229.33333333333331" y1="0" x2="229.33333333333331" y2="5" style="visibility: inherit;" fill="rgb(0, 0, 0)" stroke="rgb(204, 204, 204)" stroke-width="1px"></line><line x1="286.6666666666667" y1="0" x2="286.6666666666667" y2="5" style="visibility: inherit;" fill="rgb(0, 0, 0)" stroke="rgb(204, 204, 204)" stroke-width="1px"></line><line x1="344" y1="0" x2="344" y2="5" style="visibility: inherit;" fill="rgb(0, 0, 0)" stroke="rgb(204, 204, 204)" stroke-width="1px"></line><line x1="401.33333333333337" y1="0" x2="401.33333333333337" y2="5" style="visibility: inherit;" fill="rgb(0, 0, 0)" stroke="rgb(204, 204, 204)" stroke-width="1px"></line><line x1="458.66666666666663" y1="0" x2="458.66666666666663" y2="5" style="visibility: inherit;" fill="rgb(0, 0, 0)" stroke="rgb(204, 204, 204)" stroke-width="1px"></line><line x1="516" y1="0" x2="516" y2="5" style="visibility: inherit;" fill="rgb(0, 0, 0)" stroke="rgb(204, 204, 204)" stroke-width="1px"></line><line x1="573.3333333333334" y1="0" x2="573.3333333333334" y2="5" style="visibility: inherit;" fill="rgb(0, 0, 0)" stroke="rgb(204, 204, 204)" stroke-width="1px"></line><line x1="630.6666666666666" y1="0" x2="630.6666666666666" y2="5" style="visibility: inherit;" fill="rgb(0, 0, 0)" stroke="rgb(204, 204, 204)" stroke-width="1px"></line><line x1="688" y1="0" x2="688" y2="5" style="visibility: inherit;" fill="rgb(0, 0, 0)" stroke="rgb(204, 204, 204)" stroke-width="1px"></line></g><g transform="translate(0, 8)"><text x="0" y="0" dx="0em" dy="0.95em" style="text-anchor: middle; visibility: hidden; font-family: Roboto, sans-serif; font-size: 12px; font-weight: 200;" fill="rgb(50, 49, 63)" stroke="none" stroke-width="1px">-5M</text><text x="57.33333333333333" y="0" dx="0em" dy="0.95em" style="text-anchor: middle; visibility: inherit; font-family: Roboto, sans-serif; font-size: 12px; font-weight: 200;" fill="rgb(50, 49, 63)" stroke="none" stroke-width="1px">0</text><text x="114.66666666666666" y="0" dx="0em" dy="0.95em" style="text-anchor: middle; visibility: inherit; font-family: Roboto, sans-serif; font-size: 12px; font-weight: 200;" fill="rgb(50, 49, 63)" stroke="none" stroke-width="1px">5M</text><text x="172" y="0" dx="0em" dy="0.95em" style="text-anchor: middle; visibility: inherit; font-family: Roboto, sans-serif; font-size: 12px; font-weight: 200;" fill="rgb(50, 49, 63)" stroke="none" stroke-width="1px">10M</text><text x="229.33333333333331" y="0" dx="0em" dy="0.95em" style="text-anchor: middle; visibility: inherit; font-family: Roboto, sans-serif; font-size: 12px; font-weight: 200;" fill="rgb(50, 49, 63)" stroke="none" stroke-width="1px">15M</text><text x="286.6666666666667" y="0" dx="0em" dy="0.95em" style="text-anchor: middle; visibility: inherit; font-family: Roboto, sans-serif; font-size: 12px; font-weight: 200;" fill="rgb(50, 49, 63)" stroke="none" stroke-width="1px">20M</text><text x="344" y="0" dx="0em" dy="0.95em" style="text-anchor: middle; visibility: inherit; font-family: Roboto, sans-serif; font-size: 12px; font-weight: 200;" fill="rgb(50, 49, 63)" stroke="none" stroke-width="1px">25M</text><text x="401.33333333333337" y="0" dx="0em" dy="0.95em" style="text-anchor: middle; visibility: inherit; font-family: Roboto, sans-serif; font-size: 12px; font-weight: 200;" fill="rgb(50, 49, 63)" stroke="none" stroke-width="1px">30M</text><text x="458.66666666666663" y="0" dx="0em" dy="0.95em" style="text-anchor: middle; visibility: inherit; font-family: Roboto, sans-serif; font-size: 12px; font-weight: 200;" fill="rgb(50, 49, 63)" stroke="none" stroke-width="1px">35M</text><text x="516" y="0" dx="0em" dy="0.95em" style="text-anchor: middle; visibility: inherit; font-family: Roboto, sans-serif; font-size: 12px; font-weight: 200;" fill="rgb(50, 49, 63)" stroke="none" stroke-width="1px">40M</text><text x="573.3333333333334" y="0" dx="0em" dy="0.95em" style="text-anchor: middle; visibility: inherit; font-family: Roboto, sans-serif; font-size: 12px; font-weight: 200;" fill="rgb(50, 49, 63)" stroke="none" stroke-width="1px">45M</text><text x="630.6666666666666" y="0" dx="0em" dy="0.95em" style="text-anchor: middle; visibility: inherit; font-family: Roboto, sans-serif; font-size: 12px; font-weight: 200;" fill="rgb(50, 49, 63)" stroke="none" stroke-width="1px">50M</text><text x="688" y="0" dx="0em" dy="0.95em" style="text-anchor: middle; visibility: hidden; font-family: Roboto, sans-serif; font-size: 12px; font-weight: 200;" fill="rgb(50, 49, 63)" stroke="none" stroke-width="1px">55M</text></g><line x1="0" y1="0" x2="688" y2="0" fill="rgb(0, 0, 0)" stroke="rgb(204, 204, 204)" stroke-width="1px"></line></g></g></g></g></svg>