<?xml version="1.0" encoding="UTF-8"?>
<svg xmlns="http://www.w3.org/2000/svg" xmlns:xlink="http://www.w3.org/1999/xlink" width="320pt" height="320pt" viewBox="0 0 320 320" version="1.1">
<g id="surface6">
<path style=" stroke:none;fill-rule:nonzero;fill:rgb(0%,0%,0%);fill-opacity:1;" d="M 145 145 L 175 145 L 175 175 L 145 175 Z M 145 145 "/>
<path style="fill:none;stroke-width:2;stroke-linecap:butt;stroke-linejoin:miter;stroke:rgb(0%,0%,0%);stroke-opacity:1;stroke-miterlimit:10;" d="M 182.390625 178 C 176.9375 184.785156 168.703125 188.730469 160 188.730469 C 151.296875 188.730469 143.0625 184.785156 137.609375 178 "/>
<path style=" stroke:none;fill-rule:nonzero;fill:rgb(25.1%,38.8%,84.7%);fill-opacity:1;" d="M 190 70 C 190 86.570312 176.570312 100 160 100 C 143.429688 100 130 86.570312 130 70 C 130 53.429688 143.429688 40 160 40 C 176.570312 40 190 53.429688 190 70 "/>
<path style="fill:none;stroke-width:5;stroke-linecap:butt;stroke-linejoin:miter;stroke:rgb(25.1%,38.8%,84.7%);stroke-opacity:1;stroke-miterlimit:10;" d="M 160 100 L 160 137.929688 "/>
<path style=" stroke:none;fill-rule:nonzero;fill:rgb(25.1%,38.8%,84.7%);fill-opacity:1;" d="M 167.070312 137.929688 L 160 145 L 152.929688 137.929688 "/>
<path style=" stroke:none;fill-rule:nonzero;fill:rgb(79.6%,23.5%,20%);fill-opacity:1;" d="M 112.058594 205 C 112.058594 221.570312 98.625 235 82.058594 235 C 65.488281 235 52.058594 221.570312 52.058594 205 C 52.058594 188.429688 65.488281 175 82.058594 175 C 98.625 175 112.058594 188.429688 112.058594 205 "/>
<path style="fill:none;stroke-width:5;stroke-linecap:butt;stroke-linejoin:miter;stroke:rgb(79.6%,23.5%,20%);stroke-opacity:1;stroke-miterlimit:10;" d="M 145 175 L 114.589844 187.339844 "/>
<path style=" stroke:none;fill-rule:nonzero;fill:rgb(79.6%,23.5%,20%);fill-opacity:1;" d="M 117.25 193.894531 L 108.039062 190 L 111.929688 180.789062 "/>
<path style=" stroke:none;fill-rule:nonzero;fill:rgb(22%,59.6%,14.9%);fill-opacity:1;" d="M 190 250 C 190 266.570312 176.570312 280 160 280 C 143.429688 280 130 266.570312 130 250 C 130 233.429688 143.429688 220 160 220 C 176.570312 220 190 233.429688 190 250 "/>
<path style="fill:none;stroke-width:5;stroke-linecap:butt;stroke-linejoin:miter;stroke:rgb(22%,59.6%,14.9%);stroke-opacity:1;stroke-miterlimit:10;" d="M 160 175 L 160 212.929688 "/>
<path style=" stroke:none;fill-rule:nonzero;fill:rgb(22%,59.6%,14.9%);fill-opacity:1;" d="M 167.070312 212.929688 L 160 220 L 152.929688 212.929688 "/>
<path style=" stroke:none;fill-rule:nonzero;fill:rgb(58.4%,34.5%,69.8%);fill-opacity:1;" d="M 267.941406 205 C 267.941406 221.570312 254.511719 235 237.941406 235 C 221.375 235 207.941406 221.570312 207.941406 205 C 207.941406 188.429688 221.375 175 237.941406 175 C 254.511719 175 267.941406 188.429688 267.941406 205 "/>
<path style="fill:none;stroke-width:5;stroke-linecap:butt;stroke-linejoin:miter;stroke:rgb(58.4%,34.5%,69.8%);stroke-opacity:1;stroke-miterlimit:10;" d="M 175 175 L 205.410156 187.339844 "/>
<path style=" stroke:none;fill-rule:nonzero;fill:rgb(58.4%,34.5%,69.8%);fill-opacity:1;" d="M 208.070312 180.789062 L 211.960938 190 L 202.75 193.894531 "/>
</g>
</svg>
